<svg width="40" height="56" viewBox="0 0 40 56" fill="none" xmlns="http://www.w3.org/2000/svg">
<g clip-path="url(#clip0_111_3499)">
<g filter="url(#filter0_d_111_3499)">
<path d="M26.0557 28.478C26.018 29.0377 26.298 29.4107 26.7717 29.6527C27.3083 29.9274 27.8977 30.0371 28.4856 30.1275C29.5634 30.2926 30.6468 30.4207 31.7235 30.5906C33.148 30.8168 34.5657 31.0805 35.8847 31.7001C37.5518 32.4805 38.711 33.7207 39.1941 35.5209C39.6546 37.2322 39.2981 38.8248 38.3975 40.3141C38.2136 40.6182 37.9747 40.8891 37.7625 41.1767C37.6871 41.2762 37.6197 41.3787 37.5481 41.4782C37.3461 41.4544 37.3001 41.6526 37.1803 41.742C36.9918 41.884 36.8434 42.0789 36.6466 42.2013C36.2698 42.4369 35.8767 42.6505 35.4784 42.8488C35.1509 43.0119 34.8152 43.1713 34.4658 43.2765C33.931 43.4432 33.3866 43.5772 32.8356 43.6778C32.1226 43.8014 31.4036 43.9235 30.6808 43.9503C29.3083 44.0012 27.9324 44.0343 26.5611 43.8953C26.1499 43.8534 25.7373 43.8199 25.3288 43.7577C24.9029 43.6929 24.4767 43.616 24.0592 43.5105C23.5909 43.396 23.1292 43.2566 22.6757 43.093C22.0573 42.86 21.481 42.5275 20.9698 42.1086C20.4949 41.7273 20.0465 41.3146 19.7118 40.8187C19.3482 40.2802 19.0859 39.6731 18.7795 39.0961C18.7207 38.905 18.6593 38.7151 18.6047 38.5229C18.55 38.3307 18.504 38.1415 18.4517 37.9399C19.3131 37.8559 20.1433 37.7745 20.9739 37.6939C21.7035 37.623 22.4331 37.5514 23.163 37.4836C24.0362 37.4022 24.9105 37.3283 25.7829 37.2409C25.905 37.2284 25.9449 37.2597 25.9845 37.3664C26.1631 37.8506 26.393 38.3085 26.7269 38.708C27.1595 39.2265 27.7259 39.5238 28.3748 39.6501C29.338 39.8355 30.2968 39.8193 31.2204 39.4424C31.3414 39.3931 31.4435 39.297 31.5547 39.2224C31.65 39.1696 31.7476 39.121 31.8399 39.0637C32.3298 38.7577 32.5936 37.9855 32.4112 37.4387C32.2288 36.8919 31.8173 36.6017 31.3097 36.4412C30.8021 36.2807 30.2877 36.1586 29.771 36.0474C29.014 35.885 28.2516 35.7478 27.4919 35.5982C26.8426 35.4705 26.188 35.3638 25.5462 35.2063C24.7616 35.0133 23.9876 34.7771 23.2097 34.5589C22.5601 34.3765 21.9823 34.0437 21.4634 33.6288C20.9941 33.2492 20.5838 32.802 20.2458 32.3019C19.6459 31.4254 19.3339 30.4652 19.2868 29.4047C19.2481 28.6071 19.3954 27.8115 19.7171 27.0807C20.0024 26.4321 20.3838 25.8258 20.7256 25.2025C20.914 24.8595 21.1055 24.5182 21.3003 24.1786C21.4989 23.8341 21.7148 23.5002 21.9032 23.1505C22.2088 22.5947 22.5035 22.0328 22.7975 21.4709C22.9765 21.1287 23.1445 20.7805 23.3202 20.4365C23.6801 19.731 24.049 19.0297 24.401 18.3201C24.7823 17.5506 25.1516 16.775 25.5213 15.9991C25.8262 15.3584 26.1243 14.7178 26.4239 14.073C26.6643 13.5542 26.903 13.034 27.1399 12.5125C27.372 12.0019 27.6079 11.4927 27.8322 10.9787C28.1276 10.3004 28.4165 9.61993 28.6989 8.93733C28.7984 8.69803 28.9759 8.48511 28.954 8.2021C29.2932 7.39564 29.6395 6.59258 29.9678 5.7816C30.7215 3.91545 31.4687 2.04515 32.2183 0.176365C32.2434 0.120136 32.2611 0.0608364 32.2707 0L24.502 23.2357C24.6052 23.2357 24.6576 23.241 24.7085 23.2357C26.355 23.0464 28.0129 22.9747 29.6697 23.0213C31.1643 23.0642 32.6468 23.2097 34.0916 23.628C35.0383 23.9023 35.9382 24.2799 36.6738 24.9586C37.2767 25.5134 37.7289 26.1853 38.0983 26.9092C38.3176 27.3373 38.5049 27.782 38.7242 28.2572C38.4604 28.2851 38.2369 28.3039 38.0169 28.3326C37.7776 28.3635 37.5394 28.4042 37.3008 28.4403C37.2672 28.426 37.2314 28.4172 37.195 28.4143C36.7292 28.4603 36.2638 28.5097 35.798 28.5583C35.2218 28.6182 34.6463 28.6827 34.0698 28.7358C33.3963 28.798 32.7225 28.8564 32.048 28.9039C31.5784 28.9367 31.5829 28.925 31.3904 28.5003C31.2374 28.163 31.0429 27.8438 30.7437 27.6199C30.1479 27.1741 29.4564 26.9793 28.723 26.9416C28.1653 26.9152 27.6117 26.9718 27.0792 27.1613C26.523 27.3622 26.0708 27.8728 26.0557 28.478Z" fill="#97EEFF"/>
<path d="M16.7486 13.3826C16.8673 13.0276 16.9977 12.6764 17.098 12.3165C17.1394 12.1692 17.2001 12.1356 17.3418 12.1356C19.6782 12.1399 22.0147 12.1409 24.3512 12.1387H24.7657C24.6903 12.338 24.6285 12.5155 24.5573 12.6904C24.0166 14.0149 23.4747 15.3388 22.9316 16.6623C22.3861 17.9939 21.8406 19.3241 21.2949 20.6532C20.7314 22.0302 20.169 23.4077 19.6078 24.7857C19.0774 26.0805 18.5456 27.3744 18.0122 28.6672C17.3849 30.1892 16.7603 31.7109 16.1385 33.2323C15.4911 34.8176 14.845 36.4038 14.2004 37.9908C13.839 38.876 13.4693 39.7578 13.1075 40.6427C12.5719 41.9491 12.0376 43.2555 11.5048 44.5619C11.2515 45.1818 11.0262 45.8142 10.7409 46.4186C10.4372 47.0615 10.2299 47.7399 9.94613 48.3892C9.65822 49.0479 9.39292 49.7164 9.12008 50.3816C8.60782 51.6305 8.09669 52.8797 7.58669 54.1293C7.47791 54.3951 7.36849 54.6604 7.25845 54.9252C7.28483 54.7745 7.29614 54.6211 7.33985 54.4764C7.53544 53.8256 7.7412 53.1782 7.94281 52.5285C8.11214 51.9798 8.27984 51.4307 8.4459 50.8813C8.594 50.3959 8.74324 49.9113 8.8887 49.4251C9.15249 48.5441 9.40875 47.6607 9.67594 46.7808C9.8979 46.0512 10.1368 45.3265 10.3577 44.5951C10.6652 43.5776 10.9565 42.5533 11.2655 41.5351C11.5526 40.5899 11.8575 39.6508 12.1469 38.7061C12.4363 37.7613 12.7103 36.8252 12.9952 35.8861C13.3095 34.8502 13.6287 33.8161 13.9445 32.7809C13.9822 32.6531 14.0153 32.5235 14.0553 32.378C13.9694 32.3705 13.9143 32.3611 13.8593 32.3611C12.5347 32.3611 11.2097 32.3611 9.88509 32.3641C9.76148 32.3641 9.69176 32.3373 9.6439 32.2134C9.41139 31.6191 9.17209 31.0278 8.93091 30.4365C8.39767 29.1285 7.8599 27.8223 7.32817 26.5139C6.98901 25.675 6.65738 24.8317 6.31746 23.9924C5.87429 22.8996 5.42433 21.8067 4.98116 20.7138C4.6126 19.8037 4.25121 18.8906 3.88303 17.9806C3.43081 16.8623 2.97633 15.7451 2.51959 14.6289C2.34737 14.2076 2.16799 13.7893 1.992 13.3698C1.86639 13.0432 1.74077 12.7166 1.61515 12.39C1.58727 12.3146 1.56541 12.2393 1.53149 12.1349H9.08202C9.37107 12.1349 9.36956 12.1349 9.45397 12.4156C9.8685 13.7915 10.283 15.1666 10.6976 16.5429C11.1659 18.1184 11.6323 19.6938 12.0968 21.2693C12.2586 21.8147 12.4219 22.3597 12.5867 22.9041C12.6023 22.9443 12.6209 22.9832 12.6425 23.0205L13.1595 24.8501L13.2221 24.8396C13.2635 24.7178 13.3084 24.5973 13.3461 24.4748C13.53 23.8718 13.7078 23.2651 13.8959 22.6625C14.0632 22.1263 14.2463 21.5945 14.4129 21.0583C14.6533 20.2835 14.8847 19.506 15.121 18.7301C15.3619 17.9395 15.6036 17.1492 15.8461 16.3594C16.0401 15.7262 16.2376 15.0947 16.4302 14.4612C16.5402 14.1028 16.6431 13.7421 16.7486 13.3826Z" fill="#FF1A43"/>
<path d="M1.989 13.3717C2.16537 13.7911 2.34475 14.2094 2.51659 14.6307C2.97434 15.7475 3.42932 16.8647 3.88154 17.9824C4.24972 18.8925 4.61111 19.8056 4.97967 20.7157C5.42284 21.8086 5.8728 22.9014 6.31597 23.9943C6.65514 24.8335 6.98601 25.6769 7.32668 26.5158C7.85841 27.8242 8.39618 29.1304 8.92942 30.4384C9.1706 31.0297 9.4099 31.6209 9.64241 32.2152C9.69027 32.3381 9.75999 32.366 9.88359 32.366C11.2082 32.3611 12.5332 32.3626 13.8578 32.363C13.9129 32.363 13.9679 32.3724 14.0538 32.3799C14.0139 32.5254 13.9822 32.655 13.943 32.7828C13.6272 33.818 13.308 34.852 12.9937 35.888C12.7088 36.8271 12.433 37.7692 12.1454 38.7079C11.8579 39.6467 11.5511 40.5922 11.264 41.5369C10.955 42.5544 10.6637 43.5783 10.3562 44.597C10.1353 45.3273 9.89641 46.052 9.67444 46.7827C9.40726 47.6626 9.15063 48.5459 8.88721 49.427C8.74174 49.9131 8.59251 50.3978 8.44441 50.8832C8.27709 51.4321 8.10939 51.9812 7.94132 52.5304C7.74121 53.18 7.53545 53.8275 7.33836 54.4783C7.29503 54.623 7.28334 54.7771 7.25696 54.9271C7.24867 54.9448 7.24001 54.9648 7.23171 54.981L7.20647 55.0477L6.85864 55.9996L6.80286 55.9808C8.71775 48.5267 10.634 41.0674 12.5517 33.6028H11.6823C10.5834 33.6028 9.48451 33.5986 8.386 33.6069C8.233 33.6069 8.16781 33.5576 8.11316 33.4223C7.12909 30.9833 6.1425 28.5455 5.1534 26.1088C4.00125 23.2671 2.84872 20.4255 1.69582 17.5841C1.14914 16.2357 0.60145 14.8879 0.0527587 13.5405C0.0376848 13.4961 0.0244951 13.4486 0 13.3717H1.989Z" fill="#050405"/>
<path d="M28.9536 8.2021C28.9755 8.48398 28.798 8.69803 28.6985 8.93733C28.4148 9.62017 28.1259 10.3006 27.8317 10.9787C27.6056 11.4927 27.3716 12.0019 27.1395 12.5125C26.9028 13.0333 26.6641 13.5535 26.4234 14.073C26.125 14.7163 25.8258 15.3588 25.5209 15.9991C25.1512 16.7746 24.7819 17.5506 24.4005 18.3201C24.0486 19.0297 23.6796 19.731 23.3197 20.4365C23.1441 20.7805 22.976 21.1287 22.797 21.4709C22.5031 22.0328 22.2084 22.5947 21.9028 23.1505C21.7117 23.4987 21.4969 23.8341 21.2998 24.1786C21.1027 24.523 20.9136 24.8595 20.7251 25.2025C20.3833 25.8258 20.002 26.4321 19.7167 27.0807C19.395 27.8115 19.2477 28.6071 19.2863 29.4047C19.3334 30.4652 19.6455 31.4254 20.2454 32.3019C20.5833 32.802 20.9937 33.2492 21.463 33.6288C21.9819 34.0433 22.5596 34.3765 23.2093 34.5589C23.9879 34.777 24.7619 35.0133 25.5458 35.2063C26.1864 35.3638 26.8421 35.4701 27.4914 35.5982C28.2512 35.7489 29.0135 35.885 29.7706 36.0474C30.2884 36.1605 30.8062 36.2799 31.3104 36.4405C31.8146 36.601 32.2284 36.8991 32.4101 37.4414C32.5917 37.9836 32.3294 38.7603 31.8388 39.0663C31.7464 39.1236 31.6503 39.1722 31.5535 39.225C31.5286 38.4336 31.1152 37.906 30.2462 37.6799C29.286 37.4319 28.3137 37.2277 27.3403 37.0351C25.649 36.7031 23.9487 36.4152 22.309 35.8609C20.6863 35.3118 19.5083 34.243 18.8198 32.681C18.1343 31.1258 18.1923 29.5532 18.9419 28.0337C19.3259 27.2559 19.8169 26.5324 20.2371 25.7726C21.3401 23.7753 22.4605 21.7871 23.5198 19.7668C25.2032 16.5557 26.7189 13.2624 28.1927 9.94992C28.449 9.36957 28.6992 8.78508 28.9536 8.2021Z" fill="#050405"/>
<path d="M18.7776 39.0999C19.0839 39.6768 19.3462 40.2839 19.7099 40.8224C20.0445 41.3184 20.493 41.731 20.9678 42.1124C21.4791 42.5312 22.0553 42.8637 22.6738 43.0967C23.1272 43.2603 23.589 43.3997 24.0572 43.5143C24.4748 43.6198 24.901 43.6967 25.3268 43.7615C25.7353 43.824 26.148 43.8572 26.5591 43.899C27.9304 44.0381 29.3063 44.0049 30.6788 43.9541C31.3997 43.9273 32.1206 43.8052 32.8336 43.6816C33.3847 43.581 33.9291 43.447 34.4639 43.2802C34.8132 43.1751 35.149 43.0165 35.4765 42.8525C35.8748 42.6543 36.2678 42.4406 36.6447 42.2051C36.8414 42.0826 36.9914 41.8878 37.1783 41.7457C37.2981 41.6545 37.3441 41.4563 37.5461 41.4819C37.0833 42.3163 36.428 42.9731 35.649 43.509C34.4586 44.3283 33.1306 44.7929 31.7114 45.0303C30.0253 45.3122 28.3295 45.3318 26.6288 45.2606C25.4252 45.2105 24.2313 45.0812 23.0586 44.7967C21.9427 44.5261 20.8962 44.1093 19.9955 43.3684C18.8141 42.3973 18.0521 41.1631 17.644 39.6991C17.6022 39.5483 17.5645 39.3976 17.52 39.2288L18.7776 39.0999Z" fill="#050405"/>
<path d="M26.0557 28.478C26.0707 27.8728 26.523 27.3622 27.0796 27.164C27.612 26.9755 28.1656 26.9179 28.7234 26.9443C29.4567 26.9789 30.1482 27.1749 30.744 27.6226C31.0433 27.8464 31.2377 28.1656 31.3907 28.5029C31.5833 28.9276 31.5791 28.9393 32.0483 28.9065C32.7229 28.859 33.3967 28.8006 34.0701 28.7384C34.6467 28.6853 35.2221 28.6209 35.7983 28.5609C36.2641 28.5123 36.7295 28.463 37.1953 28.417C37.2314 28.4195 37.2669 28.4277 37.3004 28.4415L37.7937 29.5569L30.6792 30.2534C30.5202 29.9406 30.3981 29.6365 30.2217 29.3681C29.8177 28.7535 29.1876 28.4746 28.4991 28.3314C27.6761 28.1603 26.8557 28.1882 26.0557 28.478Z" fill="#050405"/>
<path d="M16.7487 13.3826C16.6432 13.7421 16.5403 14.1028 16.431 14.4612C16.2384 15.0947 16.041 15.7263 15.8469 16.3594C15.6042 17.1492 15.3625 17.9395 15.1218 18.7301C14.8856 19.506 14.6542 20.2835 14.4137 21.0583C14.2472 21.5945 14.064 22.1263 13.8967 22.6625C13.7083 23.2655 13.5308 23.8707 13.3469 24.4748C13.3092 24.5973 13.2644 24.7178 13.2229 24.8396L13.1603 24.8501L12.6433 23.0205C12.851 22.3671 13.0635 21.7155 13.2659 21.0609C14.0366 18.5647 14.8048 16.0674 15.5703 13.5692C15.6133 13.4279 15.6702 13.3676 15.8273 13.3755C16.1341 13.3905 16.4416 13.3815 16.7487 13.3826Z" fill="#050405"/>
</g>
</g>
<defs>
<filter id="filter0_d_111_3499" x="-2" y="0" width="43.3954" height="59.9996" filterUnits="userSpaceOnUse" color-interpolation-filters="sRGB">
<feFlood flood-opacity="0" result="BackgroundImageFix"/>
<feColorMatrix in="SourceAlpha" type="matrix" values="0 0 0 0 0 0 0 0 0 0 0 0 0 0 0 0 0 0 127 0" result="hardAlpha"/>
<feOffset dy="2"/>
<feGaussianBlur stdDeviation="1"/>
<feComposite in2="hardAlpha" operator="out"/>
<feColorMatrix type="matrix" values="0 0 0 0 0.972549 0 0 0 0 0.815686 0 0 0 0 0.372549 0 0 0 1 0"/>
<feBlend mode="normal" in2="BackgroundImageFix" result="effect1_dropShadow_111_3499"/>
<feBlend mode="normal" in="SourceGraphic" in2="effect1_dropShadow_111_3499" result="shape"/>
</filter>
<clipPath id="clip0_111_3499">
<rect width="39.3934" height="56" fill="white"/>
</clipPath>
</defs>
</svg>
