<svg width="218.000000" height="154.000000" viewBox="0 0 218 154" fill="none" xmlns="http://www.w3.org/2000/svg" xmlns:xlink="http://www.w3.org/1999/xlink">
	<desc>
			Created with Pixso.
	</desc>
	<defs>
		<filter id="filter_1_422_dd" x="35.553314" y="30.000000" width="147.664551" height="123.207413" filterUnits="userSpaceOnUse" color-interpolation-filters="sRGB">
			<feFlood flood-opacity="0" result="BackgroundImageFix"/>
			<feColorMatrix in="SourceAlpha" type="matrix" values="0 0 0 0 0 0 0 0 0 0 0 0 0 0 0 0 0 0 127 0" result="hardAlpha"/>
			<feOffset dx="0" dy="0"/>
			<feGaussianBlur stdDeviation="8.33333"/>
			<feComposite in2="hardAlpha" operator="out" k2="-1" k3="1"/>
			<feColorMatrix type="matrix" values="0 0 0 0 0.98039 0 0 0 0 0.79216 0 0 0 0 0.34902 0 0 0 1 0"/>
			<feBlend mode="normal" in2="BackgroundImageFix" result="effect_dropShadow_1"/>
			<feBlend mode="normal" in="SourceGraphic" in2="effect_dropShadow_1" result="shape"/>
		</filter>
		<filter id="filter_1_424_dd" x="75.526062" y="69.912231" width="63.724854" height="37.025299" filterUnits="userSpaceOnUse" color-interpolation-filters="sRGB">
			<feFlood flood-opacity="0" result="BackgroundImageFix"/>
			<feColorMatrix in="SourceAlpha" type="matrix" values="0 0 0 0 0 0 0 0 0 0 0 0 0 0 0 0 0 0 127 0" result="hardAlpha"/>
			<feOffset dx="0" dy="4"/>
			<feGaussianBlur stdDeviation="0.666667"/>
			<feComposite in2="hardAlpha" operator="out" k2="-1" k3="1"/>
			<feColorMatrix type="matrix" values="0 0 0 0 0 0 0 0 0 0 0 0 0 0 0 0 0 0 0.5 0"/>
			<feBlend mode="normal" in2="BackgroundImageFix" result="effect_dropShadow_1"/>
			<feBlend mode="normal" in="SourceGraphic" in2="effect_dropShadow_1" result="shape"/>
		</filter>
		<clipPath id="clip2_425">
			<rect id="player 2" width="50.000000" height="50.000000" transform="translate(0.000000 63.000000)" fill="white" fill-opacity="0"/>
		</clipPath>
		<clipPath id="clip2_429">
			<rect id="player 3" width="50.000000" height="50.000000" transform="translate(168.000000 63.000000)" fill="white" fill-opacity="0"/>
		</clipPath>
		<clipPath id="clip3_842">
			<rect id="crown 1" width="38.000000" height="38.000000" transform="translate(90.000000 0.000000)" fill="white" fill-opacity="0"/>
		</clipPath>
		<radialGradient gradientTransform="translate(68.2456 75.9649) rotate(9.60303) scale(81.0302 109)" cx="0.000000" cy="0.000000" r="1.000000" id="paint_radial_1_422_0" gradientUnits="userSpaceOnUse">
			<stop offset="0.102161" stop-color="#B37D16"/>
			<stop offset="0.806940" stop-color="#F8F497"/>
			<stop offset="1.000000" stop-color="#C4963D"/>
		</radialGradient>
		<linearGradient x1="62.999981" y1="56.999985" x2="135.228012" y2="113.087708" id="paint_linear_1_422_1" gradientUnits="userSpaceOnUse">
			<stop stop-color="#F8F497"/>
			<stop offset="1.000000" stop-color="#B7851F"/>
		</linearGradient>
		<radialGradient gradientTransform="translate(113.842 62.6492) rotate(95.6823) scale(40.7529 55.0084)" cx="0.000000" cy="0.000000" r="1.000000" id="paint_radial_1_423_0" gradientUnits="userSpaceOnUse">
			<stop stop-color="#AF4190"/>
			<stop offset="0.472281" stop-color="#610547"/>
			<stop offset="1.000000" stop-color="#220119"/>
		</radialGradient>
		<linearGradient x1="78.131485" y1="62.649193" x2="138.254288" y2="106.833420" id="paint_linear_1_423_1" gradientUnits="userSpaceOnUse">
			<stop stop-color="#F2E586"/>
			<stop offset="0.546840" stop-color="#B37D16"/>
			<stop offset="0.990875" stop-color="#F7F395"/>
		</linearGradient>
		<linearGradient x1="77.526062" y1="104.815735" x2="77.526062" y2="69.912231" id="paint_linear_1_424_0" gradientUnits="userSpaceOnUse">
			<stop offset="0.276042" stop-color="#B37D16"/>
			<stop offset="0.670000" stop-color="#F8F497"/>
			<stop offset="1.000000" stop-color="#DDB149"/>
		</linearGradient>
		<linearGradient x1="107.388489" y1="69.912231" x2="107.388489" y2="103.806961" id="paint_linear_1_424_1" gradientUnits="userSpaceOnUse">
			<stop stop-color="#DDB149"/>
			<stop offset="1.000000" stop-color="#F8F497"/>
		</linearGradient>
	</defs>
	<g filter="url(#filter_1_422_dd)">
		<path id="Vector 1" d="M73.57 109.09L63 57L155.8 57L146.01 109.09L108.22 126L73.57 109.09Z" fill="url(#paint_radial_1_422_0)" fill-opacity="1.000000" fill-rule="nonzero"/>
		<path id="Vector 1" d="M60.55 55L71.8 110.45L72.69 110.89L108.19 128.2L147.78 110.49L158.21 55L60.55 55ZM73.57 109.09L63 57L155.8 57L155.43 59L146.01 109.09L108.22 126L73.57 109.09Z" fill="url(#paint_linear_1_422_1)" fill-opacity="1.000000" fill-rule="evenodd"/>
	</g>
	<path id="Vector 2" d="M79.53 106.21L70.66 62.64L148.54 62.64L140.32 106.21L108.61 120.35L79.53 106.21Z" fill="url(#paint_radial_1_423_0)" fill-opacity="1.000000" fill-rule="nonzero"/>
	<path id="Vector 2" d="M68.21 60.64L77.77 107.58L78.66 108.01L108.58 122.55L142.1 107.61L150.95 60.64L68.21 60.64ZM79.53 106.21L70.66 62.64L148.54 62.64L148.16 64.64L140.32 106.21L108.61 120.35L79.53 106.21Z" fill="url(#paint_linear_1_423_1)" fill-opacity="1.000000" fill-rule="evenodd"/>
	<g filter="url(#filter_1_424_dd)">
		<path id="Vector" d="M125.13 81.24C126.15 81.58 127.19 81.93 128.26 82.28C129.33 82.62 130.27 82.95 131.1 83.27C133.11 84.05 134.64 85.12 135.68 86.48C136.72 87.84 137.25 89.53 137.25 91.55C137.25 92.82 136.95 94.06 136.35 95.25C135.76 96.44 134.96 97.43 133.95 98.21C132.84 99.09 131.56 99.76 130.11 100.23C128.65 100.7 126.96 100.93 125.02 100.93C123.22 100.93 121.55 100.71 119.99 100.26C118.43 99.81 117.12 99.28 116.04 98.67L114.61 100.12L112.84 100.12L112.57 89.49L114.36 89.49C114.76 90.5 115.27 91.57 115.89 92.69C116.52 93.81 117.23 94.82 118.05 95.7C118.89 96.63 119.84 97.39 120.88 97.97C121.93 98.55 123.15 98.84 124.55 98.84C126.43 98.84 127.87 98.38 128.87 97.46C129.88 96.54 130.38 95.38 130.38 93.99C130.38 92.84 129.95 91.87 129.1 91.09C128.25 90.31 126.93 89.64 125.15 89.07C123.99 88.69 122.92 88.35 121.94 88.03C120.97 87.71 120.05 87.38 119.19 87.05C117.21 86.26 115.74 85.13 114.78 83.67C113.82 82.2 113.34 80.56 113.34 78.75C113.34 77.6 113.59 76.5 114.09 75.44C114.58 74.38 115.31 73.43 116.27 72.58C117.18 71.8 118.35 71.15 119.77 70.65C121.2 70.16 122.75 69.91 124.42 69.91C126.05 69.91 127.58 70.14 129.01 70.59C130.43 71.05 131.55 71.5 132.37 71.96L133.64 70.72L135.44 70.72L135.61 80.75L133.82 80.75C133.41 79.67 132.92 78.56 132.36 77.43C131.8 76.3 131.21 75.37 130.59 74.62C129.91 73.81 129.13 73.17 128.24 72.7C127.35 72.22 126.32 71.98 125.13 71.98C123.63 71.98 122.41 72.4 121.46 73.25C120.52 74.09 120.04 75.14 120.04 76.38C120.04 77.56 120.45 78.52 121.28 79.27C122.1 80.01 123.38 80.67 125.13 81.24ZM109.5 73.2C108.91 73.55 108.45 73.92 108.12 74.31C107.8 74.71 107.47 75.25 107.16 75.94C106.73 76.89 106.12 78.28 105.35 80.11C104.57 81.95 103.69 84.03 102.69 86.36C101.81 88.46 100.85 90.76 99.82 93.26C98.79 95.76 97.8 98.16 96.86 100.46L92.69 100.46C90.75 95.72 88.78 90.9 86.78 86.01C84.77 81.12 83.36 77.72 82.54 75.81C82.22 75.12 81.92 74.6 81.62 74.25C81.32 73.9 80.85 73.53 80.2 73.16C79.73 72.9 79.31 72.72 78.95 72.61C78.59 72.51 78.12 72.41 77.52 72.33L77.52 70.72L93.48 70.72L93.48 72.29C91.99 72.47 90.97 72.66 90.44 72.86C89.91 73.06 89.64 73.31 89.64 73.62C89.64 73.77 89.67 73.93 89.72 74.1C89.76 74.28 89.84 74.51 89.93 74.8C90.38 76.01 91.18 78 92.34 80.75C93.5 83.5 95.22 87.7 97.51 93.35C98.9 89.91 100.06 87.01 100.99 84.63C101.92 82.26 102.73 80.16 103.44 78.34C103.79 77.46 104.07 76.63 104.3 75.87C104.53 75.1 104.64 74.52 104.64 74.14C104.64 73.69 104.32 73.32 103.69 73.03C103.05 72.73 101.88 72.51 100.16 72.37L100.16 70.72L112.1 70.72L112.1 72.37C111.64 72.41 111.2 72.5 110.79 72.62C110.37 72.75 109.94 72.94 109.5 73.2Z" fill="url(#paint_linear_1_424_0)" fill-opacity="1.000000" fill-rule="nonzero"/>
		<path id="Vector" d="M116.04 98.67C117.12 99.28 118.43 99.81 119.99 100.26C121.55 100.71 123.22 100.93 125.02 100.93C126.96 100.93 128.65 100.7 130.11 100.23C131.56 99.76 132.84 99.09 133.95 98.21C134.96 97.43 135.76 96.44 136.35 95.25C136.95 94.06 137.25 92.82 137.25 91.55C137.25 89.53 136.72 87.84 135.68 86.48C134.64 85.12 133.11 84.05 131.1 83.27C130.27 82.95 129.33 82.62 128.26 82.28C127.19 81.93 126.15 81.58 125.13 81.24C123.38 80.67 122.1 80.01 121.28 79.27C120.45 78.52 120.04 77.56 120.04 76.38C120.04 75.14 120.52 74.09 121.46 73.25C122.41 72.4 123.63 71.98 125.13 71.98C126.32 71.98 127.35 72.22 128.24 72.7C129.13 73.17 129.91 73.81 130.59 74.62C131.21 75.37 131.8 76.3 132.36 77.43C132.92 78.56 133.41 79.67 133.82 80.75L135.61 80.75L135.59 79.75L135.44 70.72L135.44 70.72L133.64 70.72L132.37 71.96C131.55 71.5 130.43 71.05 129.01 70.59C127.58 70.14 126.05 69.91 124.42 69.91C122.75 69.91 121.2 70.16 119.77 70.65C118.35 71.15 117.18 71.8 116.27 72.58C115.31 73.43 114.58 74.38 114.09 75.44C113.59 76.5 113.34 77.6 113.34 78.75C113.34 80.56 113.82 82.2 114.78 83.67C115.74 85.13 117.21 86.26 119.19 87.05C120.05 87.38 120.97 87.71 121.94 88.03C122.92 88.35 123.99 88.69 125.15 89.07C126.93 89.64 128.25 90.31 129.1 91.09C129.95 91.87 130.38 92.84 130.38 93.99C130.38 95.38 129.88 96.54 128.87 97.46C127.87 98.38 126.43 98.84 124.55 98.84Q122.45 98.84 120.88 97.97C119.84 97.39 118.89 96.63 118.05 95.7C117.23 94.82 116.52 93.81 115.89 92.69C115.27 91.57 114.76 90.5 114.36 89.49L112.57 89.49L112.6 90.49L112.84 100.12L114.61 100.12L116.04 98.67ZM114.19 99.12L115.86 97.43L116.53 97.8Q118.05 98.66 120.27 99.3Q122.47 99.93 125.02 99.93Q127.77 99.93 129.8 99.28Q131.81 98.63 133.33 97.43Q133.71 97.13 134.05 96.79Q134.89 95.93 135.46 94.8Q136.04 93.64 136.19 92.43Q136.25 91.99 136.25 91.55Q136.25 89.09 135.1 87.39Q135 87.23 134.89 87.09Q133.49 85.27 130.75 84.21Q129.53 83.74 127.95 83.23L127.95 83.23L124.82 82.19Q122 81.27 120.61 80.01Q119.93 79.39 119.55 78.63Q119.04 77.63 119.04 76.38Q119.04 75.28 119.44 74.34Q119.88 73.32 120.8 72.5Q121.21 72.14 121.67 71.86Q123.13 70.98 125.13 70.98Q127.16 70.98 128.71 71.82Q129.01 71.97 129.29 72.15Q130.43 72.89 131.35 73.98Q132.37 75.19 133.25 76.99Q133.95 78.39 134.5 79.75L134.59 79.75L134.46 71.72L134.04 71.72L132.53 73.2L131.88 72.83Q130.75 72.2 128.7 71.54Q126.71 70.91 124.42 70.91Q122.08 70.91 120.1 71.6Q118.14 72.28 116.93 73.33Q115.65 74.46 114.99 75.86Q114.59 76.72 114.43 77.63Q114.34 78.18 114.34 78.75Q114.34 80.23 114.82 81.54Q115.13 82.37 115.62 83.12Q116.89 85.05 119.55 86.12Q120.82 86.61 122.25 87.08L125.45 88.11Q128.34 89.03 129.78 90.36Q130.59 91.1 130.99 92.03Q131.38 92.92 131.38 93.99Q131.38 95.33 130.86 96.44Q130.4 97.41 129.55 98.2Q129.49 98.25 129.43 98.3Q127.66 99.84 124.55 99.84Q122.19 99.84 120.4 98.84Q120.16 98.71 119.93 98.57Q118.5 97.68 117.32 96.38Q116.01 94.96 115.02 93.18Q114.24 91.78 113.69 90.49L113.6 90.49L113.82 99.12L114.19 99.12ZM82.54 75.81C82.22 75.12 81.92 74.6 81.62 74.25C81.32 73.9 80.85 73.53 80.2 73.16C79.73 72.9 79.31 72.72 78.95 72.61C78.59 72.51 78.12 72.41 77.52 72.33L77.52 70.72L93.48 70.72L93.48 72.29C91.99 72.47 90.97 72.66 90.44 72.86C89.91 73.06 89.64 73.31 89.64 73.62C89.64 73.77 89.67 73.93 89.72 74.1C89.76 74.28 89.84 74.51 89.93 74.8C90.38 76.01 91.18 78 92.34 80.75C93.41 83.28 94.95 87.04 96.96 92.01C97.14 92.45 97.32 92.89 97.51 93.35C97.69 92.9 97.87 92.46 98.04 92.02C99.2 89.16 100.19 86.7 100.99 84.63C101.92 82.26 102.73 80.16 103.44 78.34C103.79 77.46 104.07 76.63 104.3 75.87C104.53 75.1 104.64 74.52 104.64 74.14C104.64 73.69 104.32 73.32 103.69 73.03C103.05 72.73 101.88 72.51 100.16 72.37L100.16 70.72L112.1 70.72L112.1 71.72L112.1 72.37C111.64 72.41 111.2 72.5 110.79 72.62C110.37 72.75 109.94 72.94 109.5 73.2C108.91 73.55 108.45 73.92 108.12 74.31C107.8 74.71 107.47 75.25 107.16 75.94C106.73 76.89 106.12 78.28 105.35 80.11C104.57 81.95 103.69 84.03 102.69 86.36C101.81 88.46 100.85 90.76 99.82 93.26C98.79 95.76 97.8 98.16 96.86 100.46L92.69 100.46Q89.78 93.35 86.78 86.01C84.77 81.12 83.36 77.72 82.54 75.81ZM93.36 99.46L87.7 85.63L83.46 75.41L83.45 75.4Q82.92 74.24 82.38 73.6Q81.82 72.94 80.7 72.29Q80 71.91 79.43 71.72L90.8 71.72Q90.38 71.82 90.09 71.92Q89.05 72.32 88.76 73.02Q88.64 73.29 88.64 73.62Q88.64 73.99 88.75 74.38Q88.83 74.66 88.99 75.12L88.99 75.13L88.99 75.14Q89.67 76.99 91.42 81.14L97.52 96.01L101.92 85.01L104.37 78.7Q104.9 77.34 105.26 76.15Q105.64 74.87 105.64 74.14Q105.64 73.77 105.52 73.45Q105.21 72.64 104.11 72.12Q103.61 71.89 102.79 71.72L110.34 71.72Q109.68 71.94 108.99 72.34Q107.95 72.95 107.35 73.67L107.35 73.68Q106.78 74.36 106.25 75.52Q105.58 77 104.43 79.72L101.77 85.97L98.9 92.88L96.19 99.46L93.36 99.46Z" fill="url(#paint_linear_1_424_1)" fill-opacity="1.000000" fill-rule="evenodd"/>
	</g>
	<rect id="player 2" width="50.000000" height="50.000000" transform="translate(0.000000 63.000000)" fill="#FFFFFF" fill-opacity="0"/>
	<g clip-path="url(#clip2_425)">
		<path id="Vector" d="M25 63C38.8 63 50 74.19 50 88C50 101.8 38.8 113 25 113C11.19 113 0 101.8 0 88C0 74.19 11.19 63 25 63Z" fill="#F8D05F" fill-opacity="1.000000" fill-rule="evenodd"/>
		<path id="Vector" d="M25 77C28.86 77 32 80.13 32 84C32 87.86 28.86 91 25 91C21.13 91 18 87.86 18 84C18 80.13 21.13 77 25 77Z" fill="#1F0D15" fill-opacity="1.000000" fill-rule="evenodd"/>
		<path id="Vector" d="M25 95C34.38 95 42 102 42 102C42 102 34.38 109 25 109C15.61 109 8 102 8 102C8 102 15.61 95 25 95Z" fill="#1F0D15" fill-opacity="1.000000" fill-rule="evenodd"/>
	</g>
	<rect id="player 3" width="50.000000" height="50.000000" transform="translate(168.000000 63.000000)" fill="#FFFFFF" fill-opacity="0"/>
	<g clip-path="url(#clip2_429)">
		<path id="Vector" d="M193 63C206.8 63 218 74.19 218 88C218 101.8 206.8 113 193 113C179.19 113 168 101.8 168 88C168 74.19 179.19 63 193 63Z" fill="#F8D05F" fill-opacity="1.000000" fill-rule="evenodd"/>
		<path id="Vector" d="M193 77C196.86 77 200 80.13 200 84C200 87.86 196.86 91 193 91C189.13 91 186 87.86 186 84C186 80.13 189.13 77 193 77Z" fill="#1F0D15" fill-opacity="1.000000" fill-rule="evenodd"/>
		<path id="Vector" d="M193 95C202.38 95 210 102 210 102C210 102 202.38 109 193 109C183.61 109 176 102 176 102C176 102 183.61 95 193 95Z" fill="#1F0D15" fill-opacity="1.000000" fill-rule="evenodd"/>
	</g>
	<rect id="crown 1" width="38.000000" height="38.000000" transform="translate(90.000000 0.000000)" fill="#FFFFFF" fill-opacity="0"/>
	<g clip-path="url(#clip3_842)">
		<path id="Vector" d="M125.35 9.27C123.89 9.27 122.71 10.45 122.71 11.91C122.71 12.84 123.19 13.66 123.91 14.13C123.23 16.49 121.84 19.92 120.59 20.63C118.21 21.98 116.06 19.94 117.1 14.34C118.42 14.2 119.45 13.08 119.45 11.72C119.45 10.26 118.27 9.08 116.81 9.08C115.35 9.08 114.17 10.26 114.17 11.72C114.17 12.62 114.62 13.41 115.31 13.89C114.6 17.01 113.56 18.26 112.3 18.09C110.38 17.83 110.03 14.37 110 9.56C110.96 9.16 111.64 8.22 111.64 7.11C111.64 5.65 110.46 4.47 109 4.47C107.54 4.47 106.35 5.65 106.35 7.11C106.35 8.22 107.03 9.16 107.99 9.56C107.96 14.37 107.61 17.83 105.69 18.09C104.43 18.26 103.39 17.01 102.68 13.89C103.37 13.41 103.82 12.62 103.82 11.72C103.82 10.26 102.64 9.08 101.18 9.08C99.72 9.08 98.54 10.26 98.54 11.72C98.54 13.08 99.57 14.2 100.89 14.34C101.93 19.94 99.78 21.98 97.4 20.63C96.15 19.92 94.76 16.49 94.08 14.13C94.8 13.66 95.28 12.84 95.28 11.91C95.28 10.45 94.1 9.27 92.64 9.27C91.18 9.27 90 10.45 90 11.91C90 13.29 91.05 14.42 92.4 14.54L94.31 27.58L123.68 27.58L125.59 14.54C126.94 14.42 128 13.29 128 11.91C128 10.45 126.81 9.27 125.35 9.27Z" fill="#FFD762" fill-opacity="1.000000" fill-rule="nonzero"/>
		<path id="Vector" d="M95.18 33.52L109 33.52L122.81 33.52L123.33 29.96L94.66 29.96L95.18 33.52Z" fill="#FFD762" fill-opacity="1.000000" fill-rule="nonzero"/>
	</g>
</svg>
