<svg width="292.000000" height="153.000000" viewBox="0 0 292 153" fill="none" xmlns="http://www.w3.org/2000/svg" xmlns:xlink="http://www.w3.org/1999/xlink">
	<desc>
			Created with Pixso.
	</desc>
	<defs>
		<filter id="filter_3_3_dd" x="72.553307" y="29.000000" width="147.664551" height="123.207413" filterUnits="userSpaceOnUse" color-interpolation-filters="sRGB">
			<feFlood flood-opacity="0" result="BackgroundImageFix"/>
			<feColorMatrix in="SourceAlpha" type="matrix" values="0 0 0 0 0 0 0 0 0 0 0 0 0 0 0 0 0 0 127 0" result="hardAlpha"/>
			<feOffset dx="0" dy="0"/>
			<feGaussianBlur stdDeviation="8.33333"/>
			<feComposite in2="hardAlpha" operator="out" k2="-1" k3="1"/>
			<feColorMatrix type="matrix" values="0 0 0 0 0.98039 0 0 0 0 0.79216 0 0 0 0 0.34902 0 0 0 1 0"/>
			<feBlend mode="normal" in2="BackgroundImageFix" result="effect_dropShadow_1"/>
			<feBlend mode="normal" in="SourceGraphic" in2="effect_dropShadow_1" result="shape"/>
		</filter>
		<filter id="filter_3_5_dd" x="112.526123" y="68.912231" width="63.724838" height="37.025299" filterUnits="userSpaceOnUse" color-interpolation-filters="sRGB">
			<feFlood flood-opacity="0" result="BackgroundImageFix"/>
			<feColorMatrix in="SourceAlpha" type="matrix" values="0 0 0 0 0 0 0 0 0 0 0 0 0 0 0 0 0 0 127 0" result="hardAlpha"/>
			<feOffset dx="0" dy="4"/>
			<feGaussianBlur stdDeviation="0.666667"/>
			<feComposite in2="hardAlpha" operator="out" k2="-1" k3="1"/>
			<feColorMatrix type="matrix" values="0 0 0 0 0 0 0 0 0 0 0 0 0 0 0 0 0 0 0.5 0"/>
			<feBlend mode="normal" in2="BackgroundImageFix" result="effect_dropShadow_1"/>
			<feBlend mode="normal" in="SourceGraphic" in2="effect_dropShadow_1" result="shape"/>
		</filter>
		<clipPath id="clip3_6">
			<rect id="player 2" width="40.000000" height="40.000000" transform="translate(0.000000 60.000000)" fill="white" fill-opacity="0"/>
		</clipPath>
		<clipPath id="clip3_14">
			<rect id="player 4" width="40.000000" height="40.000000" transform="translate(45.000000 60.000000)" fill="white" fill-opacity="0"/>
		</clipPath>
		<clipPath id="clip3_22">
			<rect id="player 6" width="40.000000" height="40.000000" transform="translate(207.000000 60.000000)" fill="white" fill-opacity="0"/>
		</clipPath>
		<clipPath id="clip3_26">
			<rect id="player 7" width="40.000000" height="40.000000" transform="translate(252.000000 60.000000)" fill="white" fill-opacity="0"/>
		</clipPath>
		<clipPath id="clip3_846">
			<rect id="crown 1" width="38.000000" height="38.000000" transform="translate(127.000000 0.000000)" fill="white" fill-opacity="0"/>
		</clipPath>
		<radialGradient gradientTransform="translate(105.246 74.9649) rotate(9.60303) scale(81.0302 109)" cx="0.000000" cy="0.000000" r="1.000000" id="paint_radial_3_3_0" gradientUnits="userSpaceOnUse">
			<stop offset="0.102161" stop-color="#B37D16"/>
			<stop offset="0.806940" stop-color="#F8F497"/>
			<stop offset="1.000000" stop-color="#C4963D"/>
		</radialGradient>
		<linearGradient x1="99.999985" y1="55.999985" x2="172.228012" y2="112.087708" id="paint_linear_3_3_1" gradientUnits="userSpaceOnUse">
			<stop stop-color="#F8F497"/>
			<stop offset="1.000000" stop-color="#B7851F"/>
		</linearGradient>
		<radialGradient gradientTransform="translate(150.842 61.6492) rotate(95.6823) scale(40.7529 55.0084)" cx="0.000000" cy="0.000000" r="1.000000" id="paint_radial_3_4_0" gradientUnits="userSpaceOnUse">
			<stop stop-color="#AF4190"/>
			<stop offset="0.472281" stop-color="#610547"/>
			<stop offset="1.000000" stop-color="#220119"/>
		</radialGradient>
		<linearGradient x1="115.131424" y1="61.649193" x2="175.254227" y2="105.833420" id="paint_linear_3_4_1" gradientUnits="userSpaceOnUse">
			<stop stop-color="#F2E586"/>
			<stop offset="0.546840" stop-color="#B37D16"/>
			<stop offset="0.990875" stop-color="#F7F395"/>
		</linearGradient>
		<linearGradient x1="114.526123" y1="103.815735" x2="114.526123" y2="68.912231" id="paint_linear_3_5_0" gradientUnits="userSpaceOnUse">
			<stop offset="0.276042" stop-color="#B37D16"/>
			<stop offset="0.670000" stop-color="#F8F497"/>
			<stop offset="1.000000" stop-color="#DDB149"/>
		</linearGradient>
		<linearGradient x1="144.388550" y1="68.912231" x2="144.388550" y2="102.806961" id="paint_linear_3_5_1" gradientUnits="userSpaceOnUse">
			<stop stop-color="#DDB149"/>
			<stop offset="1.000000" stop-color="#F8F497"/>
		</linearGradient>
	</defs>
	<g filter="url(#filter_3_3_dd)">
		<path id="Vector 1" d="M110.57 108.09L100 56L192.8 56L183.01 108.09L145.22 125L110.57 108.09Z" fill="url(#paint_radial_3_3_0)" fill-opacity="1.000000" fill-rule="nonzero"/>
		<path id="Vector 1" d="M97.55 54L108.8 109.45L109.69 109.89L145.19 127.2L184.79 109.49L195.21 54L97.55 54ZM110.57 108.09L100 56L192.8 56L192.43 58L183.01 108.09L145.22 125L110.57 108.09Z" fill="url(#paint_linear_3_3_1)" fill-opacity="1.000000" fill-rule="evenodd"/>
	</g>
	<path id="Vector 2" d="M116.53 105.21L107.66 61.64L185.54 61.64L177.32 105.21L145.61 119.35L116.53 105.21Z" fill="url(#paint_radial_3_4_0)" fill-opacity="1.000000" fill-rule="nonzero"/>
	<path id="Vector 2" d="M105.21 59.64L114.77 106.58L115.66 107.01L145.58 121.55L179.1 106.61L187.95 59.64L105.21 59.64ZM116.53 105.21L107.66 61.64L185.54 61.64L185.16 63.64L177.32 105.21L145.61 119.35L116.53 105.21Z" fill="url(#paint_linear_3_4_1)" fill-opacity="1.000000" fill-rule="evenodd"/>
	<g filter="url(#filter_3_5_dd)">
		<path id="Vector" d="M162.13 80.24C163.15 80.58 164.2 80.93 165.26 81.28C166.33 81.62 167.27 81.95 168.1 82.27C170.11 83.05 171.64 84.12 172.68 85.48C173.72 86.84 174.25 88.53 174.25 90.55C174.25 91.82 173.95 93.06 173.35 94.25C172.76 95.44 171.96 96.43 170.95 97.21C169.84 98.09 168.56 98.76 167.11 99.23C165.65 99.7 163.96 99.93 162.02 99.93C160.22 99.93 158.55 99.71 156.99 99.26C155.43 98.81 154.12 98.28 153.04 97.67L151.61 99.12L149.84 99.12L149.57 88.49L151.36 88.49C151.76 89.5 152.27 90.57 152.89 91.69C153.52 92.81 154.23 93.82 155.05 94.7C155.89 95.63 156.84 96.39 157.88 96.97C158.93 97.55 160.15 97.84 161.55 97.84C163.43 97.84 164.87 97.38 165.87 96.46C166.88 95.54 167.38 94.38 167.38 92.99C167.38 91.84 166.95 90.87 166.1 90.09C165.25 89.31 163.93 88.64 162.15 88.07C160.99 87.69 159.92 87.35 158.94 87.03C157.97 86.71 157.05 86.38 156.19 86.05C154.21 85.26 152.74 84.13 151.78 82.67C150.82 81.2 150.34 79.56 150.34 77.75C150.34 76.6 150.59 75.5 151.09 74.44C151.58 73.38 152.31 72.43 153.27 71.58C154.18 70.8 155.35 70.15 156.77 69.65C158.2 69.16 159.75 68.91 161.42 68.91C163.05 68.91 164.58 69.14 166.01 69.59C167.43 70.05 168.55 70.5 169.37 70.96L170.64 69.72L172.44 69.72L172.61 79.75L170.82 79.75C170.41 78.67 169.92 77.56 169.36 76.43C168.8 75.3 168.21 74.37 167.59 73.62C166.91 72.81 166.13 72.17 165.24 71.7C164.35 71.22 163.32 70.98 162.13 70.98C160.63 70.98 159.41 71.4 158.46 72.25C157.52 73.09 157.04 74.14 157.04 75.38C157.04 76.56 157.45 77.52 158.28 78.27C159.1 79.01 160.38 79.67 162.13 80.24ZM146.5 72.2C145.91 72.55 145.45 72.92 145.12 73.31C144.8 73.71 144.47 74.25 144.16 74.94C143.73 75.89 143.12 77.28 142.35 79.11C141.57 80.95 140.69 83.03 139.69 85.36C138.81 87.46 137.85 89.76 136.82 92.26C135.79 94.76 134.8 97.16 133.86 99.46L129.69 99.46C127.75 94.72 125.78 89.9 123.78 85.01C121.77 80.12 120.36 76.72 119.54 74.81C119.23 74.12 118.92 73.6 118.62 73.25C118.32 72.9 117.85 72.53 117.2 72.16C116.73 71.9 116.31 71.72 115.95 71.61C115.59 71.51 115.12 71.41 114.52 71.33L114.52 69.72L130.48 69.72L130.48 71.29C128.99 71.47 127.97 71.66 127.44 71.86C126.91 72.06 126.64 72.31 126.64 72.62C126.64 72.77 126.67 72.93 126.72 73.1C126.76 73.28 126.84 73.51 126.93 73.8C127.38 75.01 128.18 77 129.34 79.75C130.5 82.5 132.22 86.7 134.5 92.35C135.9 88.91 137.06 86.01 137.99 83.63C138.92 81.26 139.73 79.16 140.44 77.34C140.78 76.46 141.07 75.63 141.3 74.87C141.53 74.1 141.64 73.52 141.64 73.14C141.64 72.69 141.32 72.32 140.69 72.03C140.05 71.73 138.88 71.51 137.16 71.37L137.16 69.72L149.1 69.72L149.1 71.37C148.64 71.41 148.2 71.5 147.79 71.62C147.37 71.75 146.94 71.94 146.5 72.2Z" fill="url(#paint_linear_3_5_0)" fill-opacity="1.000000" fill-rule="nonzero"/>
		<path id="Vector" d="M153.04 97.67C154.12 98.28 155.43 98.81 156.99 99.26C158.55 99.71 160.22 99.93 162.02 99.93C163.96 99.93 165.65 99.7 167.11 99.23C168.56 98.76 169.84 98.09 170.95 97.21C171.96 96.43 172.76 95.44 173.35 94.25C173.95 93.06 174.25 91.82 174.25 90.55C174.25 88.53 173.72 86.84 172.68 85.48C171.64 84.12 170.11 83.05 168.1 82.27C167.27 81.95 166.33 81.62 165.26 81.28C164.2 80.93 163.15 80.58 162.13 80.24C160.38 79.67 159.1 79.01 158.28 78.27C157.45 77.52 157.04 76.56 157.04 75.38C157.04 74.14 157.52 73.09 158.46 72.25C159.41 71.4 160.63 70.98 162.13 70.98C163.32 70.98 164.35 71.22 165.24 71.7C166.13 72.17 166.91 72.81 167.59 73.62C168.21 74.37 168.8 75.3 169.36 76.43C169.92 77.56 170.41 78.67 170.82 79.75L172.61 79.75L172.59 78.75L172.44 69.72L172.44 69.72L170.64 69.72L169.37 70.96C168.55 70.5 167.43 70.05 166.01 69.59C164.58 69.14 163.05 68.91 161.42 68.91C159.75 68.91 158.2 69.16 156.77 69.65C155.35 70.15 154.18 70.8 153.27 71.58C152.31 72.43 151.58 73.38 151.09 74.44C150.59 75.5 150.34 76.6 150.34 77.75C150.34 79.56 150.82 81.2 151.78 82.67C152.74 84.13 154.21 85.26 156.19 86.05C157.05 86.38 157.97 86.71 158.94 87.03C159.92 87.35 160.99 87.69 162.15 88.07C163.93 88.64 165.25 89.31 166.1 90.09C166.95 90.87 167.38 91.84 167.38 92.99C167.38 94.38 166.88 95.54 165.87 96.46C164.87 97.38 163.43 97.84 161.55 97.84Q159.45 97.84 157.88 96.97C156.84 96.39 155.89 95.63 155.05 94.7C154.23 93.82 153.52 92.81 152.89 91.69C152.27 90.57 151.76 89.5 151.36 88.49L149.57 88.49L149.6 89.49L149.84 99.12L151.61 99.12L153.04 97.67ZM151.19 98.12L152.86 96.43L153.53 96.8Q155.05 97.66 157.27 98.3Q159.47 98.93 162.02 98.93Q164.77 98.93 166.8 98.28Q168.81 97.63 170.33 96.43Q170.71 96.13 171.05 95.79Q171.89 94.93 172.46 93.8Q173.04 92.64 173.19 91.43Q173.25 90.99 173.25 90.55Q173.25 88.09 172.1 86.39Q172 86.23 171.89 86.09Q170.49 84.27 167.75 83.21Q166.53 82.74 164.95 82.23L164.95 82.23L161.82 81.19Q159 80.27 157.61 79.01Q156.93 78.39 156.55 77.63Q156.04 76.63 156.04 75.38Q156.04 74.28 156.44 73.34Q156.88 72.32 157.8 71.5Q158.21 71.14 158.67 70.86Q160.13 69.98 162.13 69.98Q164.16 69.98 165.71 70.82Q166.01 70.97 166.29 71.15Q167.43 71.89 168.35 72.98Q169.37 74.19 170.25 75.99Q170.95 77.39 171.5 78.75L171.59 78.75L171.46 70.72L171.04 70.72L169.54 72.2L168.88 71.83Q167.75 71.2 165.7 70.54Q163.71 69.91 161.42 69.91Q159.08 69.91 157.1 70.6Q155.14 71.28 153.93 72.33Q152.65 73.46 151.99 74.86Q151.59 75.72 151.43 76.63Q151.34 77.18 151.34 77.75Q151.34 79.23 151.82 80.54Q152.13 81.37 152.62 82.12Q153.89 84.05 156.55 85.12Q157.82 85.61 159.25 86.08L162.45 87.11Q165.34 88.03 166.78 89.36Q167.59 90.1 167.99 91.03Q168.38 91.92 168.38 92.99Q168.38 94.33 167.86 95.44Q167.4 96.41 166.55 97.2Q166.49 97.25 166.43 97.3Q164.66 98.84 161.55 98.84Q159.19 98.84 157.4 97.84Q157.16 97.71 156.93 97.57Q155.5 96.68 154.32 95.38Q153.01 93.96 152.02 92.18Q151.24 90.78 150.69 89.49L150.6 89.49L150.82 98.12L151.19 98.12ZM119.54 74.81C119.23 74.12 118.92 73.6 118.62 73.25C118.32 72.9 117.85 72.53 117.2 72.16C116.73 71.9 116.31 71.72 115.95 71.61C115.59 71.51 115.12 71.41 114.52 71.33L114.52 69.72L130.48 69.72L130.48 71.29C128.99 71.47 127.97 71.66 127.44 71.86C126.91 72.06 126.64 72.31 126.64 72.62C126.64 72.77 126.67 72.93 126.72 73.1C126.76 73.28 126.84 73.51 126.93 73.8C127.38 75.01 128.18 77 129.34 79.75C130.41 82.28 131.95 86.04 133.96 91.01C134.14 91.45 134.32 91.89 134.5 92.35C134.69 91.9 134.87 91.46 135.04 91.02C136.2 88.16 137.19 85.7 137.99 83.63C138.92 81.26 139.73 79.16 140.44 77.34C140.78 76.46 141.07 75.63 141.3 74.87C141.53 74.1 141.64 73.52 141.64 73.14C141.64 72.69 141.32 72.32 140.69 72.03C140.05 71.73 138.88 71.51 137.16 71.37L137.16 69.72L149.1 69.72L149.1 70.72L149.1 71.37C148.64 71.41 148.2 71.5 147.79 71.62C147.37 71.75 146.94 71.94 146.5 72.2C145.91 72.55 145.45 72.92 145.12 73.31C144.8 73.71 144.47 74.25 144.16 74.94C143.73 75.89 143.12 77.28 142.35 79.11C141.57 80.95 140.69 83.03 139.69 85.36C138.81 87.46 137.85 89.76 136.82 92.26C135.79 94.76 134.8 97.16 133.86 99.46L129.69 99.46Q126.79 92.35 123.78 85.01C121.77 80.12 120.36 76.72 119.54 74.81ZM130.36 98.46L124.7 84.63L120.46 74.41L120.45 74.4Q119.92 73.24 119.38 72.6Q118.82 71.94 117.7 71.29Q117 70.91 116.43 70.72L127.8 70.72Q127.38 70.82 127.09 70.92Q126.05 71.32 125.76 72.02Q125.64 72.29 125.64 72.62Q125.64 72.99 125.75 73.38Q125.83 73.66 125.99 74.12L125.99 74.13L125.99 74.14Q126.67 75.99 128.42 80.14L134.52 95.01L138.92 84.01L141.37 77.7Q141.9 76.34 142.26 75.15Q142.64 73.87 142.64 73.14Q142.64 72.77 142.52 72.45Q142.21 71.64 141.11 71.12Q140.61 70.89 139.79 70.72L147.34 70.72Q146.67 70.94 145.99 71.34Q144.95 71.95 144.35 72.67L144.35 72.68Q143.78 73.36 143.25 74.52Q142.58 76 141.43 78.72L138.77 84.97L135.9 91.88L133.19 98.46L130.36 98.46Z" fill="url(#paint_linear_3_5_1)" fill-opacity="1.000000" fill-rule="evenodd"/>
	</g>
	<rect id="player 2" width="40.000000" height="40.000000" transform="translate(0.000000 60.000000)" fill="#FFFFFF" fill-opacity="0"/>
	<g clip-path="url(#clip3_6)">
		<path id="Vector" d="M20 60C31.04 60 40 68.95 40 80C40 91.04 31.04 100 20 100C8.95 100 0 91.04 0 80C0 68.95 8.95 60 20 60Z" fill="#F8D05F" fill-opacity="1.000000" fill-rule="evenodd"/>
		<path id="Vector" d="M20 71.19C23.09 71.19 25.6 73.7 25.6 76.8C25.6 79.89 23.09 82.4 20 82.4C16.9 82.4 14.4 79.89 14.4 76.8C14.4 73.7 16.9 71.19 20 71.19Z" fill="#1F0D15" fill-opacity="1.000000" fill-rule="evenodd"/>
		<path id="Vector" d="M20 85.6C27.51 85.6 33.59 91.2 33.59 91.2C33.59 91.2 27.51 96.8 20 96.8C12.48 96.8 6.4 91.2 6.4 91.2C6.4 91.2 12.48 85.6 20 85.6Z" fill="#1F0D15" fill-opacity="1.000000" fill-rule="evenodd"/>
	</g>
	<rect id="player 4" width="40.000000" height="40.000000" transform="translate(45.000000 60.000000)" fill="#FFFFFF" fill-opacity="0"/>
	<g clip-path="url(#clip3_14)">
		<path id="Vector" d="M65 60C76.04 60 85 68.95 85 80C85 91.04 76.04 100 65 100C53.95 100 45 91.04 45 80C45 68.95 53.95 60 65 60Z" fill="#F8D05F" fill-opacity="1.000000" fill-rule="evenodd"/>
		<path id="Vector" d="M65 71.19C68.09 71.19 70.6 73.7 70.6 76.8C70.6 79.89 68.09 82.4 65 82.4C61.9 82.4 59.4 79.89 59.4 76.8C59.4 73.7 61.9 71.19 65 71.19Z" fill="#1F0D15" fill-opacity="1.000000" fill-rule="evenodd"/>
		<path id="Vector" d="M65 85.6C72.51 85.6 78.6 91.2 78.6 91.2C78.6 91.2 72.51 96.8 65 96.8C57.48 96.8 51.4 91.2 51.4 91.2C51.4 91.2 57.48 85.6 65 85.6Z" fill="#1F0D15" fill-opacity="1.000000" fill-rule="evenodd"/>
	</g>
	<rect id="player 6" width="40.000000" height="40.000000" transform="translate(207.000000 60.000000)" fill="#FFFFFF" fill-opacity="0"/>
	<g clip-path="url(#clip3_22)">
		<path id="Vector" d="M227 60C238.04 60 247 68.95 247 80C247 91.04 238.04 100 227 100C215.95 100 207 91.04 207 80C207 68.95 215.95 60 227 60Z" fill="#F8D05F" fill-opacity="1.000000" fill-rule="evenodd"/>
		<path id="Vector" d="M227 71.19C230.09 71.19 232.6 73.7 232.6 76.8C232.6 79.89 230.09 82.4 227 82.4C223.9 82.4 221.4 79.89 221.4 76.8C221.4 73.7 223.9 71.19 227 71.19Z" fill="#1F0D15" fill-opacity="1.000000" fill-rule="evenodd"/>
		<path id="Vector" d="M227 85.6C234.51 85.6 240.6 91.2 240.6 91.2C240.6 91.2 234.51 96.8 227 96.8C219.49 96.8 213.4 91.2 213.4 91.2C213.4 91.2 219.49 85.6 227 85.6Z" fill="#1F0D15" fill-opacity="1.000000" fill-rule="evenodd"/>
	</g>
	<rect id="player 7" width="40.000000" height="40.000000" transform="translate(252.000000 60.000000)" fill="#FFFFFF" fill-opacity="0"/>
	<g clip-path="url(#clip3_26)">
		<path id="Vector" d="M272 60C283.04 60 292 68.95 292 80C292 91.04 283.04 100 272 100C260.95 100 252 91.04 252 80C252 68.95 260.95 60 272 60Z" fill="#F8D05F" fill-opacity="1.000000" fill-rule="evenodd"/>
		<path id="Vector" d="M272 71.19C275.09 71.19 277.6 73.7 277.6 76.8C277.6 79.89 275.09 82.4 272 82.4C268.9 82.4 266.4 79.89 266.4 76.8C266.4 73.7 268.9 71.19 272 71.19Z" fill="#1F0D15" fill-opacity="1.000000" fill-rule="evenodd"/>
		<path id="Vector" d="M272 85.6C279.51 85.6 285.6 91.2 285.6 91.2C285.6 91.2 279.51 96.8 272 96.8C264.49 96.8 258.4 91.2 258.4 91.2C258.4 91.2 264.49 85.6 272 85.6Z" fill="#1F0D15" fill-opacity="1.000000" fill-rule="evenodd"/>
	</g>
	<rect id="crown 1" width="38.000000" height="38.000000" transform="translate(127.000000 0.000000)" fill="#FFFFFF" fill-opacity="0"/>
	<g clip-path="url(#clip3_846)">
		<path id="Vector" d="M162.35 9.27C160.89 9.27 159.71 10.45 159.71 11.91C159.71 12.84 160.19 13.66 160.91 14.13C160.23 16.49 158.84 19.92 157.59 20.63C155.21 21.98 153.06 19.94 154.1 14.34C155.42 14.2 156.45 13.08 156.45 11.72C156.45 10.26 155.27 9.08 153.81 9.08C152.35 9.08 151.17 10.26 151.17 11.72C151.17 12.62 151.62 13.41 152.31 13.89C151.6 17.01 150.56 18.26 149.3 18.09C147.38 17.83 147.03 14.37 147 9.56C147.96 9.16 148.64 8.22 148.64 7.11C148.64 5.65 147.46 4.47 146 4.47C144.54 4.47 143.35 5.65 143.35 7.11C143.35 8.22 144.03 9.16 144.99 9.56C144.96 14.37 144.61 17.83 142.69 18.09C141.43 18.26 140.39 17.01 139.68 13.89C140.37 13.41 140.82 12.62 140.82 11.72C140.82 10.26 139.64 9.08 138.18 9.08C136.72 9.08 135.54 10.26 135.54 11.72C135.54 13.08 136.57 14.2 137.89 14.34C138.93 19.94 136.78 21.98 134.4 20.63C133.15 19.92 131.77 16.49 131.08 14.13C131.8 13.66 132.28 12.84 132.28 11.91C132.28 10.45 131.1 9.27 129.64 9.27C128.18 9.27 127 10.45 127 11.91C127 13.29 128.06 14.42 129.41 14.54L131.32 27.58L160.68 27.58L162.59 14.54C163.94 14.42 165 13.29 165 11.91C165 10.45 163.81 9.27 162.35 9.27Z" fill="#FFD762" fill-opacity="1.000000" fill-rule="nonzero"/>
		<path id="Vector" d="M132.19 33.52L146 33.52L159.81 33.52L160.33 29.96L131.66 29.96L132.19 33.52Z" fill="#FFD762" fill-opacity="1.000000" fill-rule="nonzero"/>
	</g>
</svg>
