<svg width="301" height="154" viewBox="0 0 301 154" fill="none" xmlns="http://www.w3.org/2000/svg">
<g filter="url(#filter0_d_392_6325)">
<path d="M113.792 108.821L103.049 55.8871H197.353L187.405 108.821L149.007 126L113.792 108.821Z" fill="url(#paint0_radial_392_6325)"/>
<path d="M112.812 109.02L112.91 109.504L113.354 109.72L148.569 126.899L148.989 127.104L149.415 126.913L187.813 109.734L188.291 109.52L188.388 109.006L198.336 56.0718L198.558 54.8871H197.353H103.049H101.825L102.069 56.086L112.812 109.02Z" stroke="url(#paint1_linear_392_6325)" stroke-width="2"/>
</g>
<path d="M118.875 106.094L118.974 106.578L119.418 106.793L148.968 121.159L149.387 121.363L149.812 121.173L182.033 106.807L182.511 106.594L182.608 106.079L190.956 61.8128L191.179 60.6275H189.973H110.84H109.616L109.86 61.8271L118.875 106.094Z" fill="url(#paint2_radial_392_6325)" stroke="url(#paint3_linear_392_6325)" stroke-width="2"/>
<g filter="url(#filter1_d_392_6325)">
<path d="M166.182 80.5211C167.222 80.8728 168.283 81.2236 169.366 81.5753C170.448 81.927 171.412 82.2645 172.255 82.588C174.294 83.3751 175.843 84.4616 176.905 85.8459C177.966 87.2302 178.497 88.9487 178.497 91.0015C178.497 92.2945 178.194 93.5461 177.59 94.7554C176.985 95.9638 176.17 96.9691 175.144 97.7703C174.019 98.6561 172.719 99.3379 171.243 99.8156C169.766 100.293 168.045 100.533 166.077 100.533C164.249 100.533 162.544 100.305 160.963 99.8488C159.381 99.3926 158.042 98.8551 156.946 98.2372L155.491 99.7119H153.699L153.425 88.9081H155.238C155.645 89.9357 156.165 91.0189 156.798 92.1585C157.431 93.2981 158.162 94.3183 158.992 95.219C159.849 96.1621 160.808 96.9284 161.869 97.5198C162.931 98.1103 164.171 98.4056 165.592 98.4056C167.503 98.4056 168.968 97.9395 169.988 97.0047C171.007 96.07 171.517 94.8931 171.517 93.474C171.517 92.3078 171.084 91.3275 170.22 90.5337C169.355 89.74 168.017 89.0541 166.203 88.476C165.022 88.0953 163.936 87.7428 162.945 87.4185C161.954 87.0942 161.022 86.7624 160.151 86.424C158.14 85.6228 156.647 84.4774 155.67 82.987C154.693 81.4973 154.205 79.8319 154.205 77.9898C154.205 76.8228 154.458 75.7023 154.964 74.6265C155.469 73.5516 156.208 72.5846 157.178 71.7278C158.105 70.9266 159.293 70.273 160.741 69.7662C162.189 69.2603 163.764 69.0073 165.465 69.0073C167.124 69.0073 168.677 69.2387 170.125 69.7024C171.573 70.166 172.711 70.6288 173.541 71.0925L174.828 69.8284H176.662L176.831 80.021H175.018C174.596 78.9237 174.1 77.8015 173.53 76.6544C172.961 75.5074 172.36 74.5544 171.728 73.7938C171.039 72.9777 170.245 72.3274 169.345 71.8414C168.445 71.3562 167.39 71.1132 166.182 71.1132C164.664 71.1132 163.423 71.5428 162.46 72.4004C161.497 73.258 161.015 74.3197 161.015 75.5853C161.015 76.7805 161.434 77.7576 162.27 78.5173C163.107 79.277 164.411 79.9447 166.182 80.5211ZM150.304 72.3556C149.699 72.7073 149.231 73.0822 148.901 73.4828C148.57 73.8826 148.244 74.4341 147.921 75.1358C147.485 76.1045 146.873 77.5187 146.086 79.379C145.298 81.2394 144.399 83.356 143.387 85.7281C142.487 87.8622 141.514 90.2003 140.466 92.7408C139.419 95.2821 138.418 97.718 137.462 100.049H133.223C131.254 95.2331 129.251 90.3405 127.213 85.3707C125.174 80.4 123.741 76.9464 122.911 75.0089C122.588 74.3072 122.275 73.7772 121.973 73.4189C121.67 73.0615 121.19 72.6932 120.528 72.3133C120.05 72.0471 119.629 71.8613 119.264 71.756C118.898 71.6506 118.413 71.5553 117.809 71.4715V69.8284H134.024V71.4292C132.507 71.6117 131.478 71.8049 130.937 72.0081C130.396 72.2121 130.126 72.4684 130.126 72.777C130.126 72.9321 130.15 73.0963 130.2 73.2721C130.249 73.448 130.323 73.6827 130.421 73.9771C130.871 75.2113 131.685 77.2276 132.866 80.026C134.047 82.8236 135.796 87.0909 138.115 92.827C139.535 89.3352 140.716 86.3834 141.656 83.9715C142.598 81.5595 143.427 79.428 144.145 77.5767C144.496 76.6793 144.787 75.8408 145.019 75.062C145.252 74.2832 145.367 73.6968 145.367 73.3036C145.367 72.8541 145.044 72.4792 144.398 72.1765C143.751 71.8754 142.557 71.654 140.814 71.5138V69.8284H152.94V71.5138C152.475 71.5553 152.033 71.6399 151.611 71.7659C151.189 71.8928 150.753 72.0894 150.304 72.3556Z" fill="url(#paint4_linear_392_6325)"/>
<path d="M174.835 97.3774L174.836 97.3763C175.801 96.6225 176.57 95.6764 177.143 94.5318C177.714 93.3887 177.997 92.2134 177.997 91.0015C177.997 89.0386 177.491 87.4324 176.508 86.1502C175.515 84.8552 174.049 83.8168 172.075 83.0546C171.242 82.735 170.287 82.4004 169.212 82.0508C168.128 81.699 167.066 81.3478 166.025 80.9957C164.226 80.41 162.846 79.7154 161.934 78.8874C160.987 78.027 160.515 76.9125 160.515 75.5853C160.515 74.1739 161.06 72.9775 162.127 72.0271L162.127 72.027C163.198 71.0739 164.564 70.6132 166.182 70.6132C167.458 70.6132 168.597 70.8702 169.582 71.4014L169.582 71.4014C170.54 71.9185 171.382 72.6094 172.11 73.4712L172.113 73.4743C172.775 74.2718 173.397 75.2597 173.978 76.4323C174.499 77.4809 174.96 78.5105 175.359 79.521H176.322L176.17 70.3284H175.032L173.892 71.4491L173.624 71.7117L173.297 71.5289C172.509 71.0883 171.405 70.6374 169.973 70.1785C168.578 69.7321 167.077 69.5073 165.465 69.5073C163.814 69.5073 162.295 69.7527 160.906 70.2382C159.504 70.7289 158.376 71.3539 157.507 72.1043C156.584 72.9194 155.89 73.8321 155.416 74.8393C154.941 75.8499 154.705 76.8979 154.705 77.9898C154.705 79.738 155.166 81.3074 156.088 82.7126L156.089 82.7129C156.997 84.0999 158.399 85.1873 160.334 85.9587C161.195 86.2932 162.118 86.6217 163.1 86.9433C164.091 87.2673 165.175 87.6195 166.355 87.9998C168.2 88.5879 169.617 89.3014 170.558 90.1654C171.525 91.0531 172.017 92.1667 172.017 93.474C172.017 95.0291 171.451 96.3411 170.326 97.3732L170.326 97.3733C169.184 98.4204 167.58 98.9056 165.592 98.9056C164.101 98.9056 162.774 98.5951 161.626 97.9567L161.626 97.9566C160.515 97.3379 159.514 96.5374 158.623 95.5566C157.765 94.6251 157.012 93.5727 156.361 92.4013C155.783 91.3611 155.297 90.3635 154.901 89.4081H153.938L154.186 99.2119H155.282L156.59 97.8861L156.859 97.614L157.192 97.8017C158.246 98.3958 159.546 98.9199 161.102 99.3683L161.102 99.3684C162.633 99.8102 164.29 100.033 166.077 100.033C168.006 100.033 169.673 99.7979 171.089 99.3399L174.835 97.3774ZM174.835 97.3774C173.76 98.2237 172.513 98.8789 171.089 99.3399L174.835 97.3774ZM147.465 74.9306L147.467 74.9267C147.8 74.2033 148.147 73.6096 148.516 73.1642M147.465 74.9306L150.304 72.3556M147.465 74.9306C147.027 75.9045 146.413 77.3226 145.626 79.184C144.838 81.044 143.939 83.1603 142.927 85.532L142.927 85.5338M147.465 74.9306L142.927 85.5338M148.516 73.1642L148.901 73.4828L148.515 73.1646C148.515 73.1645 148.515 73.1643 148.516 73.1642ZM148.516 73.1642C148.894 72.7054 149.413 72.2955 150.051 71.9244M150.051 71.9244C150.05 71.9248 150.049 71.9251 150.049 71.9255L150.304 72.3556M150.051 71.9244C150.051 71.9241 150.052 71.9238 150.052 71.9234L150.304 72.3556M150.051 71.9244C150.528 71.6417 151 71.4274 151.467 71.2871L151.468 71.2869C151.782 71.193 152.106 71.1207 152.44 71.0703V70.3284H141.314V71.0554C142.821 71.1969 143.938 71.4111 144.609 71.7232L144.61 71.7237C145.317 72.0551 145.867 72.5595 145.867 73.3036C145.867 73.7732 145.733 74.4176 145.498 75.205C145.262 75.9991 144.966 76.8506 144.611 77.7583C143.893 79.6097 143.064 81.7413 142.122 84.1532C141.18 86.5681 139.998 89.5223 138.578 93.0153L138.114 94.158L137.652 93.0144C135.333 87.2788 133.584 83.0144 132.406 80.2204L150.304 72.3556M142.927 85.5338C142.026 87.6694 141.052 90.0088 140.004 92.5502L140.004 92.5503M142.927 85.5338L140.004 92.5503M140.004 92.5503C139.003 94.9793 138.044 97.3121 137.126 99.5487H133.558C131.631 94.8333 129.67 90.044 127.676 85.181L127.676 85.1809M140.004 92.5503L127.676 85.1809M127.676 85.1809C125.637 80.2105 124.202 76.7536 123.371 74.8121L123.371 74.812M127.676 85.1809L123.371 74.812M123.371 74.812L123.365 74.7998M123.371 74.812L123.365 74.7998M123.365 74.7998C123.034 74.0798 122.699 73.504 122.355 73.0965L122.355 73.0961M123.365 74.7998L122.355 73.0961M122.355 73.0961C121.999 72.6753 121.462 72.2728 120.778 71.8798L120.778 71.8798M122.355 73.0961L120.778 71.8798M120.778 71.8798L120.772 71.8764M120.778 71.8798L120.772 71.8764M120.772 71.8764C120.274 71.5992 119.816 71.3949 119.402 71.2755C119.101 71.1889 118.736 71.1109 118.309 71.0411V70.3284H133.524V70.9878C132.24 71.1546 131.305 71.3356 130.761 71.5401L130.761 71.5402M120.772 71.8764L130.761 71.5402M130.761 71.5402C130.204 71.7501 129.626 72.1188 129.626 72.777C129.626 72.984 129.658 73.1939 129.718 73.4073C129.771 73.5953 129.848 73.8391 129.947 74.1362L129.947 74.1363M130.761 71.5402L129.947 74.1363M129.947 74.1363L129.952 74.1482M129.947 74.1363L129.952 74.1482M129.952 74.1482C130.406 75.3951 131.225 77.4215 132.406 80.2203L129.952 74.1482Z" stroke="url(#paint5_linear_392_6325)"/>
</g>
<g clip-path="url(#clip0_392_6325)">
<path fill-rule="evenodd" clip-rule="evenodd" d="M18.2903 53C28.3924 53 36.5806 61.1882 36.5806 71.2903C36.5806 81.3924 28.3924 89.5806 18.2903 89.5806C8.18821 89.5806 0 81.3924 0 71.2903C0 61.1882 8.18821 53 18.2903 53Z" fill="#F8D05F"/>
<path fill-rule="evenodd" clip-rule="evenodd" d="M18.2912 63.2426C21.1196 63.2426 23.4125 65.5354 23.4125 68.3638C23.4125 71.1923 21.1196 73.4851 18.2912 73.4851C15.4628 73.4851 13.1699 71.1923 13.1699 68.3638C13.1699 65.5354 15.4628 63.2426 18.2912 63.2426Z" fill="#1F0D15"/>
<path fill-rule="evenodd" clip-rule="evenodd" d="M18.2909 76.4116C25.1593 76.4116 30.7284 81.5329 30.7284 81.5329C30.7284 81.5329 25.1593 86.6542 18.2909 86.6542C11.4226 86.6542 5.85352 81.5329 5.85352 81.5329C5.85352 81.5329 11.4226 76.4116 18.2909 76.4116Z" fill="#1F0D15"/>
</g>
<g clip-path="url(#clip1_392_6325)">
<path fill-rule="evenodd" clip-rule="evenodd" d="M66.2903 53C76.3924 53 84.5806 61.1882 84.5806 71.2903C84.5806 81.3924 76.3924 89.5806 66.2903 89.5806C56.1882 89.5806 48 81.3924 48 71.2903C48 61.1882 56.1882 53 66.2903 53Z" fill="#F8D05F"/>
<path fill-rule="evenodd" clip-rule="evenodd" d="M66.2912 63.2426C69.1196 63.2426 71.4125 65.5354 71.4125 68.3638C71.4125 71.1923 69.1196 73.4851 66.2912 73.4851C63.4628 73.4851 61.1699 71.1923 61.1699 68.3638C61.1699 65.5354 63.4628 63.2426 66.2912 63.2426Z" fill="#1F0D15"/>
<path fill-rule="evenodd" clip-rule="evenodd" d="M66.2909 76.4116C73.1593 76.4116 78.7284 81.5329 78.7284 81.5329C78.7284 81.5329 73.1593 86.6542 66.2909 86.6542C59.4226 86.6542 53.8535 81.5329 53.8535 81.5329C53.8535 81.5329 59.4226 76.4116 66.2909 76.4116Z" fill="#1F0D15"/>
</g>
<g clip-path="url(#clip2_392_6325)">
<path fill-rule="evenodd" clip-rule="evenodd" d="M40.888 69.9839C50.9901 69.9839 59.1783 78.1721 59.1783 88.2742C59.1783 98.3763 50.9901 106.565 40.888 106.565C30.7859 106.565 22.5977 98.3763 22.5977 88.2742C22.5977 78.1721 30.7859 69.9839 40.888 69.9839Z" fill="#F8D05F"/>
<path fill-rule="evenodd" clip-rule="evenodd" d="M40.8889 80.2264C43.7173 80.2264 46.0102 82.5193 46.0102 85.3477C46.0102 88.1761 43.7173 90.469 40.8889 90.469C38.0605 90.469 35.7676 88.1761 35.7676 85.3477C35.7676 82.5193 38.0605 80.2264 40.8889 80.2264Z" fill="#1F0D15"/>
<path fill-rule="evenodd" clip-rule="evenodd" d="M40.8886 93.3955C47.757 93.3955 53.326 98.5168 53.326 98.5168C53.326 98.5168 47.757 103.638 40.8886 103.638C34.0202 103.638 28.4512 98.5168 28.4512 98.5168C28.4512 98.5168 34.0202 93.3955 40.8886 93.3955Z" fill="#1F0D15"/>
</g>
<g clip-path="url(#clip3_392_6325)">
<path fill-rule="evenodd" clip-rule="evenodd" d="M234.29 53C244.392 53 252.581 61.1882 252.581 71.2903C252.581 81.3924 244.392 89.5806 234.29 89.5806C224.188 89.5806 216 81.3924 216 71.2903C216 61.1882 224.188 53 234.29 53Z" fill="#F8D05F"/>
<path fill-rule="evenodd" clip-rule="evenodd" d="M234.291 63.2426C237.12 63.2426 239.413 65.5354 239.413 68.3638C239.413 71.1923 237.12 73.4851 234.291 73.4851C231.463 73.4851 229.17 71.1923 229.17 68.3638C229.17 65.5354 231.463 63.2426 234.291 63.2426Z" fill="#1F0D15"/>
<path fill-rule="evenodd" clip-rule="evenodd" d="M234.291 76.4116C241.159 76.4116 246.728 81.5329 246.728 81.5329C246.728 81.5329 241.159 86.6542 234.291 86.6542C227.423 86.6542 221.854 81.5329 221.854 81.5329C221.854 81.5329 227.423 76.4116 234.291 76.4116Z" fill="#1F0D15"/>
</g>
<g clip-path="url(#clip4_392_6325)">
<path fill-rule="evenodd" clip-rule="evenodd" d="M282.29 53C292.392 53 300.581 61.1882 300.581 71.2903C300.581 81.3924 292.392 89.5806 282.29 89.5806C272.188 89.5806 264 81.3924 264 71.2903C264 61.1882 272.188 53 282.29 53Z" fill="#F8D05F"/>
<path fill-rule="evenodd" clip-rule="evenodd" d="M282.291 63.2426C285.12 63.2426 287.413 65.5354 287.413 68.3638C287.413 71.1923 285.12 73.4851 282.291 73.4851C279.463 73.4851 277.17 71.1923 277.17 68.3638C277.17 65.5354 279.463 63.2426 282.291 63.2426Z" fill="#1F0D15"/>
<path fill-rule="evenodd" clip-rule="evenodd" d="M282.291 76.4116C289.159 76.4116 294.728 81.5329 294.728 81.5329C294.728 81.5329 289.159 86.6542 282.291 86.6542C275.423 86.6542 269.854 81.5329 269.854 81.5329C269.854 81.5329 275.423 76.4116 282.291 76.4116Z" fill="#1F0D15"/>
</g>
<g clip-path="url(#clip5_392_6325)">
<path fill-rule="evenodd" clip-rule="evenodd" d="M256.888 69.9839C266.99 69.9839 275.178 78.1721 275.178 88.2742C275.178 98.3763 266.99 106.565 256.888 106.565C246.786 106.565 238.598 98.3763 238.598 88.2742C238.598 78.1721 246.786 69.9839 256.888 69.9839Z" fill="#F8D05F"/>
<path fill-rule="evenodd" clip-rule="evenodd" d="M256.889 80.2264C259.717 80.2264 262.01 82.5193 262.01 85.3477C262.01 88.1761 259.717 90.469 256.889 90.469C254.06 90.469 251.768 88.1761 251.768 85.3477C251.768 82.5193 254.06 80.2264 256.889 80.2264Z" fill="#1F0D15"/>
<path fill-rule="evenodd" clip-rule="evenodd" d="M256.889 93.3955C263.757 93.3955 269.326 98.5168 269.326 98.5168C269.326 98.5168 263.757 103.638 256.889 103.638C250.02 103.638 244.451 98.5168 244.451 98.5168C244.451 98.5168 250.02 93.3955 256.889 93.3955Z" fill="#1F0D15"/>
</g>
<g clip-path="url(#clip6_392_6325)">
<path d="M166.413 9.42342C164.931 9.42342 163.726 10.6254 163.726 12.1078C163.726 13.0517 164.214 13.8824 164.951 14.3608C164.252 16.7576 162.847 20.2456 161.574 20.9691C159.158 22.3419 156.967 20.2668 158.028 14.5812C159.371 14.4339 160.417 13.2944 160.417 11.9121C160.417 10.4286 159.215 9.22666 157.732 9.22666C156.248 9.22666 155.046 10.4286 155.046 11.9121C155.046 12.8278 155.506 13.6349 156.206 14.1204C155.489 17.2926 154.434 18.5593 153.147 18.3837C151.203 18.1186 150.847 14.6117 150.816 9.71558C151.792 9.31376 152.476 8.35334 152.476 7.23394C152.476 5.75036 151.274 4.54846 149.791 4.54846C148.309 4.54846 147.107 5.75044 147.107 7.23394C147.107 8.35342 147.792 9.31376 148.766 9.71558C148.735 14.6118 148.38 18.1186 146.435 18.3838C145.148 18.5594 144.092 17.2926 143.377 14.1205C144.078 13.6349 144.535 12.8278 144.535 11.9122C144.535 10.4286 143.333 9.22673 141.851 9.22673C140.366 9.22673 139.164 10.4287 139.164 11.9122C139.164 13.2944 140.211 14.434 141.554 14.5813C142.615 20.2669 140.425 22.342 138.009 20.9692C136.734 20.2456 135.331 16.7576 134.632 14.3608C135.369 13.8824 135.855 13.0517 135.855 12.1078C135.855 10.6254 134.653 9.42342 133.169 9.42342C131.687 9.42342 130.484 10.6254 130.484 12.1078C130.484 13.5112 131.561 14.6613 132.933 14.7827L134.874 28.0311H164.709L166.649 14.7827C168.021 14.6613 169.097 13.5112 169.097 12.1078C169.097 10.6254 167.895 9.42342 166.413 9.42342Z" fill="#FFD762"/>
<path d="M135.757 34.0644H149.79H163.824L164.355 30.4445H135.227L135.757 34.0644Z" fill="#FFD762"/>
</g>
<defs>
<filter id="filter0_d_392_6325" x="75.6016" y="28.8871" width="149.162" height="124.32" filterUnits="userSpaceOnUse" color-interpolation-filters="sRGB">
<feFlood flood-opacity="0" result="BackgroundImageFix"/>
<feColorMatrix in="SourceAlpha" type="matrix" values="0 0 0 0 0 0 0 0 0 0 0 0 0 0 0 0 0 0 127 0" result="hardAlpha"/>
<feOffset/>
<feGaussianBlur stdDeviation="12.5"/>
<feComposite in2="hardAlpha" operator="out"/>
<feColorMatrix type="matrix" values="0 0 0 0 0.979167 0 0 0 0 0.792375 0 0 0 0 0.350868 0 0 0 1 0"/>
<feBlend mode="normal" in2="BackgroundImageFix" result="effect1_dropShadow_392_6325"/>
<feBlend mode="normal" in="SourceGraphic" in2="effect1_dropShadow_392_6325" result="shape"/>
</filter>
<filter id="filter1_d_392_6325" x="115.809" y="69.0073" width="64.6875" height="37.5257" filterUnits="userSpaceOnUse" color-interpolation-filters="sRGB">
<feFlood flood-opacity="0" result="BackgroundImageFix"/>
<feColorMatrix in="SourceAlpha" type="matrix" values="0 0 0 0 0 0 0 0 0 0 0 0 0 0 0 0 0 0 127 0" result="hardAlpha"/>
<feOffset dy="4"/>
<feGaussianBlur stdDeviation="1"/>
<feComposite in2="hardAlpha" operator="out"/>
<feColorMatrix type="matrix" values="0 0 0 0 0 0 0 0 0 0 0 0 0 0 0 0 0 0 0.5 0"/>
<feBlend mode="normal" in2="BackgroundImageFix" result="effect1_dropShadow_392_6325"/>
<feBlend mode="normal" in="SourceGraphic" in2="effect1_dropShadow_392_6325" result="shape"/>
</filter>
<radialGradient id="paint0_radial_392_6325" cx="0" cy="0" r="1" gradientUnits="userSpaceOnUse" gradientTransform="translate(108.379 75.1579) rotate(9.60304) scale(82.3371 110.758)">
<stop offset="0.102161" stop-color="#B37D16"/>
<stop offset="0.80694" stop-color="#F8F497"/>
<stop offset="1" stop-color="#C4963D"/>
</radialGradient>
<linearGradient id="paint1_linear_392_6325" x1="103.049" y1="55.8871" x2="176.442" y2="112.879" gradientUnits="userSpaceOnUse">
<stop stop-color="#F8F497"/>
<stop offset="1" stop-color="#B7851F"/>
</linearGradient>
<radialGradient id="paint2_radial_392_6325" cx="0" cy="0" r="1" gradientUnits="userSpaceOnUse" gradientTransform="translate(154.712 61.6275) rotate(95.6824) scale(41.4102 55.8956)">
<stop stop-color="#AF4190"/>
<stop offset="0.472281" stop-color="#610547"/>
<stop offset="1" stop-color="#220119"/>
</radialGradient>
<linearGradient id="paint3_linear_392_6325" x1="118.425" y1="61.6275" x2="179.518" y2="106.524" gradientUnits="userSpaceOnUse">
<stop stop-color="#F2E586"/>
<stop offset="0.54684" stop-color="#B37D16"/>
<stop offset="0.990875" stop-color="#F7F395"/>
</linearGradient>
<linearGradient id="paint4_linear_392_6325" x1="117.809" y1="104.474" x2="117.809" y2="69.0073" gradientUnits="userSpaceOnUse">
<stop offset="0.276042" stop-color="#B37D16"/>
<stop offset="0.67" stop-color="#F8F497"/>
<stop offset="1" stop-color="#DDB149"/>
</linearGradient>
<linearGradient id="paint5_linear_392_6325" x1="148.153" y1="69.0073" x2="148.15" y2="103.449" gradientUnits="userSpaceOnUse">
<stop stop-color="#DDB149"/>
<stop offset="1" stop-color="#F8F497"/>
</linearGradient>
<clipPath id="clip0_392_6325">
<rect width="36.5806" height="36.5806" fill="white" transform="translate(0 53)"/>
</clipPath>
<clipPath id="clip1_392_6325">
<rect width="36.5806" height="36.5806" fill="white" transform="translate(48 53)"/>
</clipPath>
<clipPath id="clip2_392_6325">
<rect width="36.5806" height="36.5806" fill="white" transform="translate(22.5977 69.9839)"/>
</clipPath>
<clipPath id="clip3_392_6325">
<rect width="36.5806" height="36.5806" fill="white" transform="translate(216 53)"/>
</clipPath>
<clipPath id="clip4_392_6325">
<rect width="36.5806" height="36.5806" fill="white" transform="translate(264 53)"/>
</clipPath>
<clipPath id="clip5_392_6325">
<rect width="36.5806" height="36.5806" fill="white" transform="translate(238.598 69.9839)"/>
</clipPath>
<clipPath id="clip6_392_6325">
<rect width="38.6129" height="38.6129" fill="white" transform="translate(130.484)"/>
</clipPath>
</defs>
</svg>
