<svg width="89" height="91" viewBox="0 0 89 91" fill="none" xmlns="http://www.w3.org/2000/svg">
<rect x="21.5024" y="24.1279" width="45.9342" height="45.9342" rx="22.9671" fill="black"/>
<rect x="21.5024" y="24.1279" width="45.9342" height="45.9342" rx="22.9671" stroke="#CDCCCC"/>
<path d="M55.0543 42.4358C54.8907 42.5628 52.0012 44.1909 52.0012 47.8112C52.0012 51.9986 55.6779 53.48 55.788 53.5167C55.7711 53.607 55.2039 55.5455 53.8495 57.5207C52.6418 59.2589 51.3805 60.9942 49.4617 60.9942C47.5429 60.9942 47.0491 59.8797 44.8341 59.8797C42.6755 59.8797 41.908 61.0309 40.1529 61.0309C38.3978 61.0309 37.1731 59.4225 35.7651 57.4473C34.1341 55.1279 32.8164 51.5246 32.8164 48.1046C32.8164 42.6192 36.3831 39.71 39.8933 39.71C41.7584 39.71 43.3132 40.9347 44.4842 40.9347C45.5988 40.9347 47.337 39.6367 49.4589 39.6367C50.2631 39.6367 53.1525 39.71 55.0543 42.4358ZM48.4515 37.3144C49.3291 36.2732 49.9499 34.8285 49.9499 33.3838C49.9499 33.1834 49.9329 32.9802 49.8962 32.8166C48.4685 32.8702 46.7698 33.7675 45.7455 34.9554C44.9413 35.8697 44.1907 37.3144 44.1907 38.7789C44.1907 38.999 44.2274 39.2191 44.2444 39.2896C44.3346 39.3065 44.4814 39.3263 44.6281 39.3263C45.9092 39.3263 47.5204 38.4685 48.4515 37.3144Z" fill="white"/>
<g filter="url(#filter0_d_186_6613)">
<path d="M22.9949 55.2288L23.6062 54.4472C26.9586 50.1445 31.1292 44.7916 29.4182 37.6186L27.7878 30.7841L26.5817 31.0718C22.227 32.1106 18.4897 30.9927 17.8883 28.4716L15.4761 29.047C16.0775 31.5681 13.2472 34.2527 8.89247 35.2914L7.68637 35.5792L9.31669 42.4136C11.0278 49.5866 17.1657 52.4805 22.0976 54.8059L22.9949 55.2288Z" fill="#D84025"/>
</g>
<g filter="url(#filter1_d_186_6613)">
<path d="M8.8924 35.2915C13.2471 34.2527 16.0774 31.5682 15.476 29.047L16.6821 28.7593L22.9959 55.2274L22.9947 55.2289L22.0975 54.8059C17.1657 52.4806 11.0277 49.5868 9.31661 42.4137L7.68629 35.5792L8.8924 35.2915Z" fill="#A13023"/>
</g>
<g clip-path="url(#clip0_186_6613)">
<g filter="url(#filter2_d_186_6613)">
<path fill-rule="evenodd" clip-rule="evenodd" d="M54.4435 22.5884C54.7527 23.844 55.0606 25.0986 55.3672 26.3521C52.543 27.9684 48.977 28.8709 44.4976 28.8724V23.689L54.4435 22.5884Z" fill="#535353"/>
<path fill-rule="evenodd" clip-rule="evenodd" d="M34.5598 22.5884C34.2464 23.844 33.9358 25.0986 33.6279 26.3521C36.4582 27.9684 40.016 28.8709 44.4975 28.8724V23.689L34.5598 22.5884Z" fill="#676767"/>
<path fill-rule="evenodd" clip-rule="evenodd" d="M42.2743 9.0759C35.8217 3.36948 48.0228 3.91021 51.4613 1.01904C51.704 1.26047 51.8479 1.55073 51.8752 1.85375C51.9024 2.15677 51.8117 2.45917 51.6144 2.72338C53.1408 3.67161 55.8243 2.37786 57.2793 4.1953C55.6304 4.12403 54.6264 4.61829 54.0142 5.27988C58.5363 4.75618 56.767 7.94329 60.6321 8.12302C57.7527 9.34239 50.9899 7.00126 46.8086 9.8506C44.921 9.79792 44.1619 9.13323 42.2743 9.0759Z" fill="#A23023"/>
<path fill-rule="evenodd" clip-rule="evenodd" d="M60.6302 8.0703C57.78 9.32968 51.0667 6.93003 46.916 9.85058C46.1437 9.81775 45.3837 9.6841 44.6675 9.45514C50.0964 4.6606 54.9136 8.91676 60.6322 8.0703H60.6302Z" fill="#1A1A1A"/>
<path fill-rule="evenodd" clip-rule="evenodd" d="M42.6515 8.59114C43.3966 8.64919 44.1275 8.78313 44.8236 8.9892L44.8728 9.0014C44.6296 8.72992 44.3906 8.45845 44.1556 8.18697C42.0203 6.3705 46.5142 4.22155 49.2397 3.78078C50.2213 4.41524 51.7336 4.11479 52.5082 4.56013C51.8401 5.10004 51.4262 6.03344 50.7561 6.57335C58.4079 5.79857 54.9222 7.64096 58.5943 7.99785C58.3472 7.87286 58.1227 7.72472 57.9263 7.55708C56.6968 6.51234 56.8792 5.37152 54.1988 5.67655L52.707 5.84585C52.9706 5.57335 53.2363 5.30136 53.5041 5.02988C54.1084 4.39931 55.0179 3.9679 56.041 3.82653C55.8012 3.72209 55.537 3.65224 55.2623 3.62064C55.0005 3.59114 54.7362 3.57534 54.4713 3.57336C53.2787 3.552 52.1414 3.62216 51.1926 3.05175L50.8401 2.8367C50.9098 2.74214 50.9815 2.64911 51.045 2.55607C51.2036 2.34726 51.2703 2.1067 51.2356 1.86823C50.0061 2.56217 48.3052 3.02887 46.8482 3.41626C45.6945 3.7213 44.4835 4.02633 43.3892 4.40609C42.6166 4.67757 41.7498 5.05429 41.34 5.56979C40.5961 6.53064 41.7457 7.77975 42.6515 8.59114Z" fill="#EF4123"/>
<path fill-rule="evenodd" clip-rule="evenodd" d="M43.726 8.71744C44.1138 8.79334 44.4961 8.88402 44.8716 8.98912L44.9206 9.0014C44.6783 8.72818 44.4401 8.45496 44.2059 8.18175C42.0781 6.35365 46.5563 4.19094 49.2722 3.74734C50.2504 4.38587 51.7574 4.08349 52.5293 4.53169C51.8636 5.07506 51.4511 6.01443 50.7833 6.55779C58.4083 5.77805 54.9348 7.63224 58.5941 7.99142C56.6889 7.61843 56.7236 6.27076 55.6413 5.94689C54.5591 5.62302 53.1296 6.369 52.0392 6.04513C52.1535 5.42041 52.6702 4.91235 53.4216 4.13721C52.3782 3.66292 49.746 4.08656 50.2932 2.71741C47.951 4.65909 40.4057 3.85479 43.2686 8.55013L43.726 8.71744Z" fill="#D03927"/>
<path d="M44.4128 12.7378C46.3357 12.7378 47.8945 11.7113 47.8945 10.445C47.8945 9.17875 46.3357 8.15222 44.4128 8.15222C42.4899 8.15222 40.9312 9.17875 40.9312 10.445C40.9312 11.7113 42.4899 12.7378 44.4128 12.7378Z" fill="#CDCCCC"/>
<path fill-rule="evenodd" clip-rule="evenodd" d="M44.4279 10.53C48.7929 10.53 52.5226 12.2606 54.0145 14.7018C54.8158 14.9591 55.3671 15.489 55.3671 16.0954C55.363 16.2971 55.3022 16.4958 55.1885 16.6787C55.0748 16.8615 54.9108 17.0244 54.7072 17.1568C54.6334 20.7267 50.0594 23.6075 44.4279 23.6075C38.7964 23.6075 34.2388 20.7328 34.1527 17.1721C33.94 17.0393 33.7679 16.8739 33.648 16.6871C33.5282 16.5003 33.4634 16.2964 33.458 16.0893C33.458 15.4767 34.0277 14.9361 34.8474 14.6834C36.3455 12.2483 40.069 10.53 44.4279 10.53Z" fill="#8B8A8A"/>
<path fill-rule="evenodd" clip-rule="evenodd" d="M42.7993 20.2107C46.6373 20.2107 49.7626 18.2312 49.7626 15.7949C49.7626 13.3586 46.6312 11.3792 42.7993 11.3792C38.9674 11.3792 35.8359 13.3586 35.8359 15.7949C35.8359 18.2312 38.9592 20.2107 42.7993 20.2107Z" fill="#989898"/>
<path fill-rule="evenodd" clip-rule="evenodd" d="M40.6764 15.2854C42.1273 15.2854 43.3089 14.5219 43.3089 13.587C43.3089 12.6522 42.1273 11.8887 40.6764 11.8887C39.2256 11.8887 38.0439 12.6506 38.0439 13.587C38.0439 14.5235 39.2379 15.2854 40.6764 15.2854Z" fill="#ACACAC"/>
<path fill-rule="evenodd" clip-rule="evenodd" d="M44.4976 14.2665H44.398C43.0095 14.2611 41.6314 14.4487 40.3311 14.82L32.7788 16.9646V23.3547C36.0832 26.2792 39.9366 28.5695 44.4976 30.0613V14.2665Z" fill="#CDCCCC"/>
<path fill-rule="evenodd" clip-rule="evenodd" d="M42.7991 15.2854C42.1973 15.3616 41.6069 15.484 41.0364 15.651L39.5886 16.0678V26.7622C40.6103 27.3513 41.6823 27.8861 42.7971 28.3629V15.2854H42.7991ZM38.9088 16.2638L36.6568 16.9125V24.8458C37.3687 25.37 38.1187 25.8771 38.9088 26.3593V16.2638ZM35.979 17.1069L34.4771 17.5394V23.0865C34.9583 23.5096 35.459 23.9244 35.979 24.3309V17.1069Z" fill="#333333"/>
<path fill-rule="evenodd" clip-rule="evenodd" d="M44.4976 14.2664H44.5972C45.9823 14.262 47.3568 14.4496 48.6539 14.82L56.2164 16.963V23.3532C52.91 26.2792 49.0566 28.5695 44.4976 30.0613V14.2664Z" fill="#B4B4B4"/>
<path fill-rule="evenodd" clip-rule="evenodd" d="M46.1958 15.2854C46.8099 15.3618 47.4126 15.4842 47.9949 15.651L49.4726 16.0678V26.7622C48.4294 27.351 47.3354 27.8857 46.1978 28.3629V15.2854H46.1958ZM50.1665 16.2638L52.4629 16.9125V24.8458C51.7383 25.37 50.9729 25.8771 50.1665 26.3593V16.2638ZM53.1567 17.1069L54.6877 17.5394V23.0865C54.1978 23.5096 53.6875 23.9244 53.1567 24.3309V17.1069Z" fill="#1A1A1A"/>
<path fill-rule="evenodd" clip-rule="evenodd" d="M43.5342 8.66174C44.1861 8.66174 44.4987 8.96662 44.2334 9.34109C44.0654 9.54109 43.8244 9.70857 43.5335 9.82751C43.2426 9.94646 42.9115 10.0129 42.5719 10.0204C41.922 10.0204 41.6095 9.71696 41.8747 9.34109C42.0429 9.14147 42.2836 8.97426 42.574 8.85535C42.8645 8.73645 43.195 8.6698 43.5342 8.66174Z" fill="#E3E3E3"/>
</g>
</g>
<g clip-path="url(#clip1_186_6613)">
<g filter="url(#filter3_d_186_6613)">
<path fill-rule="evenodd" clip-rule="evenodd" d="M60.0088 47.2835L60.1448 47.3539C60.299 47.4366 60.4706 47.4817 60.6455 47.4855C60.8205 47.4893 60.9939 47.4517 61.1515 47.3757C61.3113 47.3045 61.452 47.1966 61.5623 47.0608C61.6726 46.925 61.7493 46.7651 61.7862 46.5942C62.0988 45.2279 62.7241 43.5585 63.6136 41.8343C64.5031 40.1101 65.502 38.6345 66.4275 37.5887C66.5434 37.4584 66.6281 37.3033 66.6749 37.1353C66.7217 36.9673 66.7295 36.7908 66.6977 36.6193C66.6659 36.4478 66.5953 36.2859 66.4913 36.1459C66.3873 36.0058 66.2526 35.8914 66.0976 35.8114L65.9601 35.7411L66.526 34.6469L69.1835 36.0162L71.841 37.384L71.2751 38.4782L71.1391 38.4078C70.9834 38.3264 70.8111 38.2819 70.6354 38.2777C70.4598 38.2736 70.2855 38.31 70.1262 38.3841C69.9668 38.4581 69.8267 38.5679 69.7166 38.7049C69.6066 38.8418 69.5295 39.0023 69.4914 39.1738C69.1788 40.5384 68.5535 42.2095 67.664 43.9321C66.7745 45.6547 65.7756 47.1319 64.8502 48.1776C64.7342 48.3081 64.6496 48.4633 64.6027 48.6314C64.5559 48.7996 64.5481 48.9762 64.5799 49.1478C64.6117 49.3194 64.6823 49.4814 64.7863 49.6216C64.8903 49.7618 65.025 49.8763 65.18 49.9565L65.3176 50.0269L64.7517 51.1211L62.0941 49.7533L59.4429 48.3793L60.0088 47.2835Z" fill="#CA3927"/>
<path fill-rule="evenodd" clip-rule="evenodd" d="M66.7735 38.234C67.2118 38.4627 66.6031 40.5413 65.412 42.8737C64.221 45.2061 62.8998 46.9135 62.4692 46.6848C62.0386 46.4561 62.6396 44.3775 63.8306 42.0451C65.0217 39.7127 66.3351 38.0053 66.7735 38.234Z" fill="#F04B23"/>
<path fill-rule="evenodd" clip-rule="evenodd" d="M86.1073 3.39673L84.6829 11.4454L71.396 37.1944L67.0854 34.9697L80.3724 9.22068L86.1073 3.39673Z" fill="#D1D2D2"/>
<path fill-rule="evenodd" clip-rule="evenodd" d="M81.8078 7.74434L84.07 6.27113L83.2745 11.0728L71.3315 37.1944L84.6768 11.4454L86.1074 3.39673L81.8078 7.74434Z" fill="#E6E6E5"/>
<path fill-rule="evenodd" clip-rule="evenodd" d="M82.371 10.6998L76.0931 23.5217L69.8136 36.3452L69.1282 35.9965L68.4443 35.6477L75.4077 23.1745L82.371 10.6998Z" fill="#818181"/>
<path fill-rule="evenodd" clip-rule="evenodd" d="M65.7724 33.4234L73.372 37.3669C73.7628 37.0841 74.2369 36.9418 74.7179 36.9631C75.1989 36.9844 75.6587 37.168 76.0233 37.4842C76.3878 37.8005 76.6358 38.231 76.7273 38.7064C76.8188 39.1817 76.7484 39.6742 76.5275 40.1044C76.3066 40.5346 75.9481 40.8775 75.5097 41.0777C75.0714 41.2779 74.5787 41.3238 74.1113 41.208C73.6438 41.0922 73.2287 40.8214 72.933 40.4394C72.6372 40.0573 72.478 39.5862 72.4811 39.1021L64.8815 35.1585C64.4903 35.4422 64.0154 35.585 63.5336 35.5639C63.0518 35.5429 62.591 35.3592 62.2257 35.0425C61.8604 34.7258 61.6119 34.2946 61.5201 33.8185C61.4284 33.3423 61.4989 32.8489 61.7201 32.418C61.9414 31.987 62.3006 31.6436 62.7398 31.4431C63.1789 31.2426 63.6724 31.1968 64.1407 31.3129C64.609 31.4291 65.0246 31.7005 65.3207 32.0834C65.6167 32.4663 65.7759 32.9384 65.7724 33.4234Z" fill="#333333"/>
</g>
</g>
<g filter="url(#filter4_d_186_6613)">
<path d="M14.5638 83.509L13.6038 81.277H8.83984L7.87984 83.509H6.94384L10.7118 74.761H11.7558L15.5358 83.509H14.5638ZM13.2558 80.437L11.2158 75.709L9.18784 80.437H13.2558ZM22.528 80.521C22.528 81.065 22.412 81.569 22.18 82.033C21.948 82.497 21.62 82.873 21.196 83.161C20.764 83.449 20.272 83.593 19.72 83.593C18.744 83.593 17.98 83.157 17.428 82.285V86.449H16.552V77.545H17.404V78.841C18.02 77.905 18.792 77.437 19.72 77.437C20.568 77.437 21.252 77.757 21.772 78.397C22.276 79.021 22.528 79.729 22.528 80.521ZM19.552 82.837C20.176 82.837 20.684 82.617 21.076 82.177C21.452 81.729 21.64 81.185 21.64 80.545C21.64 79.641 21.316 78.973 20.668 78.541C20.356 78.325 19.984 78.217 19.552 78.217C18.96 78.209 18.452 78.437 18.028 78.901C17.604 79.365 17.4 79.901 17.416 80.509C17.416 81.149 17.616 81.693 18.016 82.141C18.424 82.605 18.936 82.837 19.552 82.837ZM30.0397 80.521C30.0397 81.065 29.9237 81.569 29.6917 82.033C29.4597 82.497 29.1317 82.873 28.7077 83.161C28.2757 83.449 27.7837 83.593 27.2317 83.593C26.2557 83.593 25.4917 83.157 24.9397 82.285V86.449H24.0637V77.545H24.9157V78.841C25.5317 77.905 26.3037 77.437 27.2317 77.437C28.0797 77.437 28.7637 77.757 29.2837 78.397C29.7877 79.021 30.0397 79.729 30.0397 80.521ZM27.0637 82.837C27.6877 82.837 28.1957 82.617 28.5877 82.177C28.9637 81.729 29.1517 81.185 29.1517 80.545C29.1517 79.641 28.8277 78.973 28.1797 78.541C27.8677 78.325 27.4957 78.217 27.0637 78.217C26.4717 78.209 25.9637 78.437 25.5397 78.901C25.1157 79.365 24.9117 79.901 24.9277 80.509C24.9277 81.149 25.1277 81.693 25.5277 82.141C25.9357 82.605 26.4477 82.837 27.0637 82.837ZM31.5754 83.509V74.401H32.4514V83.509H31.5754ZM39.6911 80.797H34.8671C34.8991 81.381 35.1191 81.865 35.5271 82.249C35.9271 82.641 36.4191 82.837 37.0031 82.837C37.4591 82.837 37.8471 82.729 38.1671 82.513C38.4871 82.289 38.7151 81.973 38.8511 81.565L39.6191 81.805C39.4511 82.365 39.1271 82.809 38.6471 83.137C38.1511 83.457 37.6071 83.617 37.0151 83.617C36.4551 83.617 35.9391 83.477 35.4671 83.197C34.9951 82.917 34.6351 82.541 34.3871 82.069C34.1231 81.605 33.9911 81.089 33.9911 80.521C33.9911 79.977 34.1151 79.473 34.3631 79.009C34.5951 78.537 34.9431 78.157 35.4071 77.869C35.8551 77.581 36.3511 77.437 36.8951 77.437C37.4951 77.437 38.0071 77.573 38.4311 77.845C38.8631 78.109 39.1831 78.473 39.3911 78.937C39.5991 79.377 39.7031 79.901 39.7031 80.509C39.7031 80.613 39.6991 80.709 39.6911 80.797ZM34.8791 80.053H38.8271C38.7711 79.509 38.5711 79.061 38.2271 78.709C37.8911 78.373 37.4471 78.205 36.8951 78.205C36.3911 78.205 35.9471 78.385 35.5631 78.745C35.1791 79.121 34.9511 79.557 34.8791 80.053ZM43.9414 79.513V79.225C43.9414 78.073 44.2214 77.025 44.7814 76.081C45.3334 75.129 46.1134 74.365 47.1214 73.789L47.4814 74.353C45.7134 75.489 44.8294 77.117 44.8294 79.237V79.501C44.8294 81.605 45.7134 83.229 47.4814 84.373L47.1214 84.961C46.1134 84.377 45.3334 83.609 44.7814 82.657C44.2214 81.713 43.9414 80.665 43.9414 79.513ZM55.4388 83.509L54.4788 81.277H49.7148L48.7548 83.509H47.8188L51.5868 74.761H52.6308L56.4108 83.509H55.4388ZM54.1308 80.437L52.0908 75.709L50.0628 80.437H54.1308ZM64.099 83.509L63.139 81.277H58.375L57.415 83.509H56.479L60.247 74.761H61.291L65.071 83.509H64.099ZM62.791 80.437L60.751 75.709L58.723 80.437H62.791ZM69.0992 80.089H67.2392V83.509H66.3152V74.761H69.2432C70.2512 74.753 71.0152 75.005 71.5352 75.517C72.0552 76.029 72.3152 76.653 72.3152 77.389C72.3152 78.149 72.0472 78.785 71.5112 79.297C70.9432 79.825 70.1392 80.089 69.0992 80.089ZM69.1712 75.625H67.2392V79.237H69.1232C69.9072 79.237 70.4872 79.041 70.8632 78.649C71.2072 78.305 71.3792 77.893 71.3792 77.413C71.3792 76.917 71.2072 76.497 70.8632 76.153C70.5192 75.801 69.9552 75.625 69.1712 75.625ZM73.9206 83.509V74.761H74.8446V82.645H78.9966V83.509H73.9206ZM83.0643 79.225V79.513C83.0643 80.673 82.7883 81.725 82.2363 82.669C81.6763 83.613 80.8923 84.377 79.8843 84.961L79.5243 84.373C81.2923 83.229 82.1763 81.605 82.1763 79.501V79.237C82.1763 77.117 81.2923 75.489 79.5243 74.353L79.8843 73.789C80.8923 74.357 81.6763 75.117 82.2363 76.069C82.7883 77.021 83.0643 78.073 83.0643 79.225Z" fill="white"/>
</g>
<defs>
<filter id="filter0_d_186_6613" x="3.68652" y="28.4716" width="30.1289" height="34.7572" filterUnits="userSpaceOnUse" color-interpolation-filters="sRGB">
<feFlood flood-opacity="0" result="BackgroundImageFix"/>
<feColorMatrix in="SourceAlpha" type="matrix" values="0 0 0 0 0 0 0 0 0 0 0 0 0 0 0 0 0 0 127 0" result="hardAlpha"/>
<feOffset dy="4"/>
<feGaussianBlur stdDeviation="2"/>
<feComposite in2="hardAlpha" operator="out"/>
<feColorMatrix type="matrix" values="0 0 0 0 0 0 0 0 0 0 0 0 0 0 0 0 0 0 0.25 0"/>
<feBlend mode="normal" in2="BackgroundImageFix" result="effect1_dropShadow_186_6613"/>
<feBlend mode="normal" in="SourceGraphic" in2="effect1_dropShadow_186_6613" result="shape"/>
</filter>
<filter id="filter1_d_186_6613" x="3.68652" y="28.7593" width="23.3096" height="34.4695" filterUnits="userSpaceOnUse" color-interpolation-filters="sRGB">
<feFlood flood-opacity="0" result="BackgroundImageFix"/>
<feColorMatrix in="SourceAlpha" type="matrix" values="0 0 0 0 0 0 0 0 0 0 0 0 0 0 0 0 0 0 127 0" result="hardAlpha"/>
<feOffset dy="4"/>
<feGaussianBlur stdDeviation="2"/>
<feComposite in2="hardAlpha" operator="out"/>
<feColorMatrix type="matrix" values="0 0 0 0 0 0 0 0 0 0 0 0 0 0 0 0 0 0 0.25 0"/>
<feBlend mode="normal" in2="BackgroundImageFix" result="effect1_dropShadow_186_6613"/>
<feBlend mode="normal" in="SourceGraphic" in2="effect1_dropShadow_186_6613" result="shape"/>
</filter>
<filter id="filter2_d_186_6613" x="22.7788" y="-4.98096" width="47.8535" height="49.0422" filterUnits="userSpaceOnUse" color-interpolation-filters="sRGB">
<feFlood flood-opacity="0" result="BackgroundImageFix"/>
<feColorMatrix in="SourceAlpha" type="matrix" values="0 0 0 0 0 0 0 0 0 0 0 0 0 0 0 0 0 0 127 0" result="hardAlpha"/>
<feOffset dy="4"/>
<feGaussianBlur stdDeviation="5"/>
<feComposite in2="hardAlpha" operator="out"/>
<feColorMatrix type="matrix" values="0 0 0 0 0 0 0 0 0 0 0 0 0 0 0 0 0 0 0.5 0"/>
<feBlend mode="normal" in2="BackgroundImageFix" result="effect1_dropShadow_186_6613"/>
<feBlend mode="normal" in="SourceGraphic" in2="effect1_dropShadow_186_6613" result="shape"/>
</filter>
<filter id="filter3_d_186_6613" x="49.4429" y="-2.60327" width="46.6646" height="67.7244" filterUnits="userSpaceOnUse" color-interpolation-filters="sRGB">
<feFlood flood-opacity="0" result="BackgroundImageFix"/>
<feColorMatrix in="SourceAlpha" type="matrix" values="0 0 0 0 0 0 0 0 0 0 0 0 0 0 0 0 0 0 127 0" result="hardAlpha"/>
<feOffset dy="4"/>
<feGaussianBlur stdDeviation="5"/>
<feComposite in2="hardAlpha" operator="out"/>
<feColorMatrix type="matrix" values="0 0 0 0 0 0 0 0 0 0 0 0 0 0 0 0 0 0 0.5 0"/>
<feBlend mode="normal" in2="BackgroundImageFix" result="effect1_dropShadow_186_6613"/>
<feBlend mode="normal" in="SourceGraphic" in2="effect1_dropShadow_186_6613" result="shape"/>
</filter>
<filter id="filter4_d_186_6613" x="4.94385" y="73.7891" width="80.1206" height="16.66" filterUnits="userSpaceOnUse" color-interpolation-filters="sRGB">
<feFlood flood-opacity="0" result="BackgroundImageFix"/>
<feColorMatrix in="SourceAlpha" type="matrix" values="0 0 0 0 0 0 0 0 0 0 0 0 0 0 0 0 0 0 127 0" result="hardAlpha"/>
<feOffset dy="2"/>
<feGaussianBlur stdDeviation="1"/>
<feComposite in2="hardAlpha" operator="out"/>
<feColorMatrix type="matrix" values="0 0 0 0 0 0 0 0 0 0 0 0 0 0 0 0 0 0 0.5 0"/>
<feBlend mode="normal" in2="BackgroundImageFix" result="effect1_dropShadow_186_6613"/>
<feBlend mode="normal" in="SourceGraphic" in2="effect1_dropShadow_186_6613" result="shape"/>
</filter>
<clipPath id="clip0_186_6613">
<rect width="30.5708" height="31.8649" fill="white" transform="translate(31.9297)"/>
</clipPath>
<clipPath id="clip1_186_6613">
<rect width="28.8843" height="51.8684" fill="white" transform="translate(59.6128)"/>
</clipPath>
</defs>
</svg>
