<svg width="90" height="98" viewBox="0 0 90 98" fill="none" xmlns="http://www.w3.org/2000/svg">
<rect x="21.5801" y="24.1279" width="45.9342" height="45.9342" rx="22.9671" fill="white"/>
<rect x="21.5801" y="24.1279" width="45.9342" height="45.9342" rx="22.9671" stroke="#CDCCCC"/>
<path fill-rule="evenodd" clip-rule="evenodd" d="M57.5655 50.5807C57.3756 50.95 57.0485 51.446 56.753 51.752C32.9894 51.752 32.9894 51.752 32.9894 51.752C32.7994 51.5199 32.3773 50.9817 32.2085 50.5807L57.5655 50.5807Z" fill="black"/>
<path fill-rule="evenodd" clip-rule="evenodd" d="M55.7927 52.955C33.9707 52.955 33.9707 52.955 33.9707 52.955C34.3189 53.3771 34.6883 53.7464 35.0892 54.0207C54.5687 54.0207 54.5687 54.0207 54.5687 54.0207C55.0646 53.7464 55.5078 53.3771 55.7927 52.955Z" fill="black"/>
<path fill-rule="evenodd" clip-rule="evenodd" d="M53.102 55.1498C47.1083 55.1498 47.1083 55.1498 47.1083 55.1498C46.9395 56.0995 46.9395 56.9859 46.9395 57.6191C48.6911 57.503 50.9915 56.7116 53.102 55.1498Z" fill="black"/>
<path fill-rule="evenodd" clip-rule="evenodd" d="M59.792 42.8354C57.059 43.0042 53.1335 44.8403 50.5905 47.8266C50.1262 48.3648 49.7041 48.8924 49.377 49.4622C58.1459 49.4622 58.1459 49.4622 58.1459 49.4622C59.3488 47.0985 59.9608 44.7453 59.792 42.8354Z" fill="black"/>
<path fill-rule="evenodd" clip-rule="evenodd" d="M42.7817 57.6191C42.8134 56.9965 42.8134 56.1101 42.6868 55.1498C36.6509 55.1498 36.6509 55.1498 36.6509 55.1498C38.8035 56.7116 41.1039 57.503 42.7817 57.6191Z" fill="black"/>
<path fill-rule="evenodd" clip-rule="evenodd" d="M44.8815 57.809C45.5147 57.1548 46.1689 56.2684 46.7493 55.1498C42.9927 55.1498 42.9927 55.1498 42.9927 55.1498C43.6258 56.2684 44.2062 57.1548 44.8815 57.809Z" fill="black"/>
<path fill-rule="evenodd" clip-rule="evenodd" d="M40.4074 49.4516C40.0803 48.8924 39.6371 48.3542 39.1939 47.816C36.6508 44.8403 32.7043 42.9937 30.0346 42.8354C29.8446 44.7453 30.4461 47.0985 31.6174 49.4516L40.4074 49.4516Z" fill="black"/>
<path fill-rule="evenodd" clip-rule="evenodd" d="M48.6911 49.4516C48.7439 48.7763 48.8072 48.1221 48.8072 47.3517C48.8072 43.1942 46.9394 38.91 44.8923 37C42.8241 38.91 40.9985 43.1942 40.9985 47.3517C40.9985 48.1221 40.9985 48.7763 41.1146 49.4516L48.6911 49.4516Z" fill="black"/>
<g clip-path="url(#clip0_462_979)">
<g filter="url(#filter0_d_462_979)">
<path d="M66.9178 55.4019L66.3041 54.6173C62.939 50.2982 58.7525 44.9249 60.4701 37.7246L62.1066 30.8641L63.3173 31.1529C67.6886 32.1957 71.4401 31.0736 72.0438 28.5429L74.4652 29.1204C73.8615 31.6512 76.7026 34.3459 81.0738 35.3887L82.2845 35.6775L80.648 42.5379C78.9304 49.7382 72.7691 52.6431 67.8185 54.9773L66.9178 55.4019Z" fill="#7AB9E8"/>
</g>
<g filter="url(#filter1_d_462_979)">
<path d="M81.0738 35.3887C76.7025 34.3459 73.8614 31.6512 74.4651 29.1205L73.2544 28.8316L66.9166 55.4004L66.9178 55.4019L67.8185 54.9773C72.769 52.6431 78.9303 49.7383 80.6479 42.538L82.2845 35.6775L81.0738 35.3887Z" fill="#579ADF"/>
</g>
</g>
<g clip-path="url(#clip1_462_979)">
<g filter="url(#filter2_d_462_979)">
<path fill-rule="evenodd" clip-rule="evenodd" d="M35.1481 22.6743C34.8376 23.9347 34.5286 25.194 34.2209 26.4523C37.0558 28.0747 40.6353 28.9807 45.1318 28.9822V23.7791L35.1481 22.6743Z" fill="#535353"/>
<path fill-rule="evenodd" clip-rule="evenodd" d="M55.1071 22.6743C55.4216 23.9347 55.7334 25.194 56.0425 26.4523C53.2014 28.0747 49.6301 28.9807 45.1315 28.9822V23.7791L55.1071 22.6743Z" fill="#676767"/>
<path fill-rule="evenodd" clip-rule="evenodd" d="M47.3632 9.11041C53.8403 3.38228 41.5928 3.92507 38.1412 1.0229C37.8976 1.26525 37.7531 1.55661 37.7258 1.86078C37.6985 2.16496 37.7895 2.46851 37.9876 2.73372C36.4554 3.68556 33.7617 2.38689 32.3011 4.21125C33.9563 4.1397 34.9641 4.63584 35.5786 5.29995C31.0393 4.77426 32.8153 7.97349 28.9356 8.15391C31.8259 9.37792 38.6144 7.02788 42.8116 9.88806C44.7064 9.83518 45.4684 9.16796 47.3632 9.11041Z" fill="#1B2241"/>
<path fill-rule="evenodd" clip-rule="evenodd" d="M28.9375 8.10101C31.7985 9.36518 38.5373 6.9564 42.7038 9.88806C43.4791 9.85511 44.242 9.72095 44.9609 9.49112C39.5113 4.67834 34.6758 8.9507 28.9355 8.10101H28.9375Z" fill="#1A1A1A"/>
<path fill-rule="evenodd" clip-rule="evenodd" d="M46.9852 8.62381C46.2373 8.68208 45.5036 8.81653 44.8048 9.02339L44.7554 9.03564C44.9995 8.76313 45.2395 8.49061 45.4754 8.2181C47.6188 6.39473 43.1078 4.2376 40.3719 3.79515C39.3866 4.43203 37.8686 4.13043 37.091 4.57747C37.7616 5.11943 38.1771 6.05638 38.8497 6.59834C31.1689 5.82061 34.6678 7.67002 30.9817 8.02826C31.2298 7.9028 31.4552 7.75409 31.6523 7.58582C32.8865 6.53711 32.7034 5.39194 35.394 5.69814L36.8915 5.86807C36.6268 5.59454 36.3601 5.32152 36.0913 5.04901C35.4847 4.41603 34.5718 3.98298 33.5447 3.84108C33.7855 3.73624 34.0507 3.66612 34.3264 3.6344C34.5892 3.60479 34.8546 3.58893 35.1204 3.58694C36.3176 3.5655 37.4592 3.63593 38.4116 3.06335L38.7654 2.84748C38.6955 2.75256 38.6235 2.65917 38.5597 2.56579C38.4005 2.35618 38.3336 2.1147 38.3684 1.87532C39.6026 2.57191 41.3099 3.04038 42.7725 3.42925C43.9306 3.73544 45.1463 4.04163 46.2447 4.42284C47.0202 4.69536 47.8903 5.0735 48.3017 5.59097C49.0484 6.55548 47.8944 7.80934 46.9852 8.62381Z" fill="#4386BB"/>
<path fill-rule="evenodd" clip-rule="evenodd" d="M45.906 8.75059C45.5168 8.82679 45.133 8.91781 44.7561 9.02331L44.7069 9.03564C44.9501 8.76138 45.1893 8.48712 45.4243 8.21287C47.5602 6.37781 43.065 4.20687 40.3387 3.76159C39.3569 4.40255 37.8441 4.09902 37.0693 4.54892C37.7375 5.09435 38.1516 6.0373 38.8219 6.58274C31.1679 5.80003 34.6546 7.66127 30.9814 8.02181C32.8938 7.64741 32.859 6.29461 33.9454 5.96951C35.0318 5.64441 36.4667 6.39322 37.5612 6.06812C37.4465 5.44103 36.9279 4.93103 36.1735 4.15295C37.221 3.67685 39.8632 4.1021 39.3138 2.72774C41.665 4.67681 49.239 3.86945 46.3652 8.58265L45.906 8.75059Z" fill="#283A84"/>
<path d="M45.217 12.7863C43.2868 12.7863 41.7221 11.7559 41.7221 10.4848C41.7221 9.21366 43.2868 8.18323 45.217 8.18323C47.1472 8.18323 48.7119 9.21366 48.7119 10.4848C48.7119 11.7559 47.1472 12.7863 45.217 12.7863Z" fill="#CDCCCC"/>
<path fill-rule="evenodd" clip-rule="evenodd" d="M45.2013 10.57C40.8197 10.57 37.0757 12.3072 35.5782 14.7577C34.7739 15.0159 34.2205 15.5479 34.2205 16.1566C34.2245 16.359 34.2856 16.5585 34.3998 16.7421C34.5139 16.9256 34.6785 17.0892 34.8829 17.222C34.9569 20.8055 39.5484 23.6972 45.2013 23.6972C50.8542 23.6972 55.4291 20.8117 55.5155 17.2374C55.7291 17.1041 55.9019 16.938 56.0222 16.7505C56.1425 16.563 56.2075 16.3584 56.2129 16.1505C56.2129 15.5356 55.641 14.9929 54.8182 14.7392C53.3144 12.2949 49.5767 10.57 45.2013 10.57Z" fill="#8B8A8A"/>
<path fill-rule="evenodd" clip-rule="evenodd" d="M46.8363 20.2876C42.9837 20.2876 39.8465 18.3005 39.8465 15.855C39.8465 13.4094 42.9899 11.4224 46.8363 11.4224C50.6828 11.4224 53.8262 13.4094 53.8262 15.855C53.8262 18.3005 50.691 20.2876 46.8363 20.2876Z" fill="#989898"/>
<path fill-rule="evenodd" clip-rule="evenodd" d="M48.9674 15.3435C47.511 15.3435 46.3249 14.5771 46.3249 13.6387C46.3249 12.7003 47.511 11.9339 48.9674 11.9339C50.4237 11.9339 51.6099 12.6987 51.6099 13.6387C51.6099 14.5787 50.4114 15.3435 48.9674 15.3435Z" fill="#ACACAC"/>
<path fill-rule="evenodd" clip-rule="evenodd" d="M45.1316 14.3207H45.2317C46.6254 14.3154 48.0088 14.5037 49.314 14.8764L56.895 17.0291V23.4436C53.5781 26.3792 49.71 28.6782 45.1316 30.1756V14.3207Z" fill="#CDCCCC"/>
<path fill-rule="evenodd" clip-rule="evenodd" d="M46.8362 15.3435C47.4403 15.42 48.033 15.5429 48.6056 15.7105L50.059 16.129V26.864C49.0333 27.4553 47.9573 27.9921 46.8383 28.4708V15.3435H46.8362ZM50.7413 16.3257L53.0019 16.9768V24.9403C52.2873 25.4665 51.5344 25.9756 50.7413 26.4596V16.3257ZM53.6822 17.172L55.1899 17.6061V23.1743C54.7068 23.599 54.2043 24.0154 53.6822 24.4235V17.172Z" fill="#333333"/>
<path fill-rule="evenodd" clip-rule="evenodd" d="M45.1318 14.3207H45.0318C43.6415 14.3163 42.2617 14.5046 40.9596 14.8764L33.3685 17.0275V23.442C36.6874 26.3792 40.5555 28.6782 45.1318 30.1756V14.3207Z" fill="#B4B4B4"/>
<path fill-rule="evenodd" clip-rule="evenodd" d="M43.4268 15.3435C42.8103 15.4202 42.2054 15.5431 41.6208 15.7105L40.1375 16.129V26.864C41.1846 27.455 42.2828 27.9918 43.4247 28.4708V15.3435H43.4268ZM39.441 16.3257L37.1358 16.9768V24.9403C37.8631 25.4665 38.6315 25.9756 39.441 26.4596V16.3257ZM36.4394 17.172L34.9026 17.6061V23.1743C35.3943 23.599 35.9065 24.0154 36.4394 24.4235V17.172Z" fill="#1A1A1A"/>
<path fill-rule="evenodd" clip-rule="evenodd" d="M46.0987 8.69467C45.4444 8.69467 45.1306 9.0007 45.3969 9.37661C45.5655 9.57737 45.8074 9.74548 46.0994 9.86488C46.3915 9.98427 46.7238 10.051 47.0648 10.0585C47.7171 10.0585 48.0308 9.75391 47.7645 9.37661C47.5958 9.17622 47.3542 9.00838 47.0626 8.88902C46.7711 8.76966 46.4393 8.70276 46.0987 8.69467Z" fill="#E3E3E3"/>
</g>
</g>
<g clip-path="url(#clip2_462_979)">
<g filter="url(#filter3_d_462_979)">
<path fill-rule="evenodd" clip-rule="evenodd" d="M29.5726 47.4634L29.4361 47.534C29.2813 47.6171 29.109 47.6624 28.9334 47.6662C28.7578 47.67 28.5837 47.6323 28.4255 47.556C28.2651 47.4845 28.1238 47.3762 28.0132 47.2399C27.9025 47.1036 27.8255 46.9431 27.7884 46.7714C27.4746 45.4 26.8469 43.7242 25.954 41.9935C25.0611 40.2627 24.0584 38.7815 23.1294 37.7318C23.0131 37.601 22.9281 37.4453 22.8811 37.2766C22.8341 37.108 22.8263 36.9308 22.8582 36.7587C22.8901 36.5865 22.961 36.4239 23.0654 36.2834C23.1698 36.1428 23.305 36.028 23.4605 35.9477L23.5986 35.8771L23.0306 34.7787L20.363 36.1532L17.6953 37.5262L18.2634 38.6246L18.3999 38.554C18.5562 38.4722 18.7292 38.4275 18.9055 38.4234C19.0818 38.4192 19.2567 38.4558 19.4167 38.5301C19.5766 38.6045 19.7173 38.7146 19.8278 38.8521C19.9383 38.9896 20.0156 39.1507 20.0538 39.3228C20.3677 40.6927 20.9953 42.3701 21.8882 44.0992C22.7811 45.8284 23.7838 47.3112 24.7128 48.3609C24.8292 48.4919 24.9141 48.6477 24.9611 48.8165C25.0081 48.9852 25.016 49.1625 24.984 49.3348C24.9521 49.507 24.8812 49.6697 24.7768 49.8104C24.6724 49.9511 24.5373 50.0661 24.3817 50.1466L24.2436 50.2172L24.8116 51.3156L27.4793 49.9426L30.1406 48.5634L29.5726 47.4634Z" fill="#4592CF"/>
<path fill-rule="evenodd" clip-rule="evenodd" d="M22.7819 38.3794C22.3419 38.609 22.9529 40.6955 24.1485 43.0368C25.3441 45.3781 26.6703 47.092 27.1025 46.8624C27.5348 46.6328 26.9315 44.5463 25.7359 42.205C24.5403 39.8638 23.2219 38.1499 22.7819 38.3794Z" fill="#283A84"/>
<path fill-rule="evenodd" clip-rule="evenodd" d="M3.37457 3.40967L4.80432 11.4889L18.1418 37.3359L22.4688 35.1028L9.13127 9.25577L3.37457 3.40967Z" fill="#D1D2D2"/>
<path fill-rule="evenodd" clip-rule="evenodd" d="M7.69042 7.77382L5.41961 6.295L6.2181 11.1149L18.2065 37.3359L4.81048 11.4889L3.37446 3.40967L7.69042 7.77382Z" fill="#E6E6E5"/>
<path fill-rule="evenodd" clip-rule="evenodd" d="M7.12532 10.7405L13.4271 23.6112L19.7305 36.4835L20.4185 36.1334L21.105 35.7833L14.1151 23.2627L7.12532 10.7405Z" fill="#818181"/>
<path fill-rule="evenodd" clip-rule="evenodd" d="M23.7869 33.5505L16.1584 37.5091C15.7662 37.2252 15.2903 37.0824 14.8074 37.1037C14.3246 37.1251 13.863 37.3094 13.4971 37.6268C13.1312 37.9443 12.8822 38.3764 12.7904 38.8536C12.6986 39.3308 12.7692 39.8251 12.9909 40.257C13.2127 40.6888 13.5726 41.033 14.0126 41.2339C14.4526 41.4349 14.9471 41.481 15.4164 41.3648C15.8856 41.2485 16.3023 40.9767 16.5992 40.5932C16.896 40.2097 17.0558 39.7368 17.0527 39.2508L24.6812 35.2923C25.074 35.577 25.5506 35.7203 26.0343 35.6992C26.5179 35.6781 26.9804 35.4937 27.3471 35.1758C27.7138 34.8579 27.9633 34.4251 28.0554 33.9471C28.1475 33.4691 28.0768 32.9739 27.8546 32.5413C27.6325 32.1087 27.272 31.764 26.8311 31.5627C26.3903 31.3615 25.8949 31.3154 25.4249 31.4321C24.9548 31.5487 24.5376 31.8211 24.2404 32.2055C23.9432 32.5898 23.7835 33.0637 23.7869 33.5505Z" fill="#333333"/>
</g>
</g>
<g filter="url(#filter4_d_462_979)">
<path d="M17.4255 84L16.4655 81.768H11.7015L10.7415 84H9.80553L13.5735 75.252H14.6175L18.3975 84H17.4255ZM16.1175 80.928L14.0775 76.2L12.0495 80.928H16.1175ZM18.9817 81.012C18.9817 80.212 19.2377 79.504 19.7497 78.888C20.2697 78.248 20.9457 77.928 21.7777 77.928C22.3297 77.928 22.8017 78.068 23.1937 78.348C23.5297 78.588 23.8297 78.9 24.0937 79.284V74.904H24.9577V84H24.1057V82.728C23.5617 83.632 22.7857 84.084 21.7777 84.084C20.9457 84.084 20.2657 83.776 19.7377 83.16C19.2337 82.552 18.9817 81.836 18.9817 81.012ZM21.9577 83.328C22.5577 83.336 23.0697 83.104 23.4937 82.632C23.9177 82.16 24.1217 81.616 24.1057 81C24.1057 80.608 24.0137 80.24 23.8297 79.896C23.6457 79.544 23.3897 79.256 23.0617 79.032C22.7257 78.816 22.3577 78.708 21.9577 78.708C21.3177 78.708 20.8137 78.928 20.4457 79.368C20.0617 79.816 19.8697 80.372 19.8697 81.036C19.8697 81.908 20.1937 82.564 20.8417 83.004C21.1697 83.22 21.5417 83.328 21.9577 83.328ZM26.9014 76.368C26.7734 76.224 26.7094 76.068 26.7094 75.9C26.7094 75.732 26.7734 75.576 26.9014 75.432C27.0294 75.304 27.1854 75.24 27.3694 75.24C27.5454 75.24 27.6974 75.304 27.8254 75.432C27.9534 75.56 28.0174 75.716 28.0174 75.9C28.0174 76.084 27.9534 76.24 27.8254 76.368C27.6974 76.496 27.5454 76.56 27.3694 76.56C27.1854 76.56 27.0294 76.496 26.9014 76.368ZM26.9254 84V78.036H27.8014V84H26.9254ZM29.3411 81.012C29.3411 80.212 29.5971 79.504 30.1091 78.888C30.6291 78.248 31.3051 77.928 32.1371 77.928C32.6891 77.928 33.1611 78.068 33.5531 78.348C33.8891 78.588 34.1891 78.9 34.4531 79.284V74.904H35.3171V84H34.4651V82.728C33.9211 83.632 33.1451 84.084 32.1371 84.084C31.3051 84.084 30.6251 83.776 30.0971 83.16C29.5931 82.552 29.3411 81.836 29.3411 81.012ZM32.3171 83.328C32.9171 83.336 33.4291 83.104 33.8531 82.632C34.2771 82.16 34.4811 81.616 34.4651 81C34.4651 80.608 34.3731 80.24 34.1891 79.896C34.0051 79.544 33.7491 79.256 33.4211 79.032C33.0851 78.816 32.7171 78.708 32.3171 78.708C31.6771 78.708 31.1731 78.928 30.8051 79.368C30.4211 79.816 30.2291 80.372 30.2291 81.036C30.2291 81.908 30.5531 82.564 31.2011 83.004C31.5291 83.22 31.9011 83.328 32.3171 83.328ZM39.2288 80.556H40.8848V80.16C40.8848 79.192 40.3768 78.708 39.3608 78.708C38.8728 78.708 38.4968 78.84 38.2328 79.104C37.9928 79.344 37.8488 79.616 37.8008 79.92L36.9608 79.74C36.9688 79.572 37.0488 79.36 37.2008 79.104C37.3528 78.848 37.5528 78.62 37.8008 78.42C38.2248 78.092 38.7528 77.928 39.3848 77.928C40.4728 77.928 41.1968 78.34 41.5568 79.164C41.6768 79.444 41.7368 79.772 41.7368 80.148V81.828C41.7368 82.804 41.7688 83.528 41.8328 84H40.9688C40.9128 83.696 40.8848 83.348 40.8848 82.956C40.3808 83.724 39.7088 84.108 38.8688 84.108C38.2688 84.108 37.7888 83.94 37.4288 83.604C37.0528 83.276 36.8648 82.856 36.8648 82.344V82.284C36.8648 81.692 37.1008 81.256 37.5728 80.976C38.0528 80.696 38.6048 80.556 39.2288 80.556ZM40.8848 81.48V81.276H39.2168C38.8488 81.276 38.5248 81.344 38.2448 81.48C37.9088 81.624 37.7408 81.888 37.7408 82.272C37.7408 82.6 37.8648 82.86 38.1128 83.052C38.3528 83.244 38.6568 83.34 39.0248 83.34C39.5448 83.34 39.9888 83.164 40.3568 82.812C40.7088 82.476 40.8848 82.032 40.8848 81.48ZM47.5723 82.308C47.5723 82.844 47.3683 83.272 46.9603 83.592C46.5523 83.928 46.0523 84.096 45.4603 84.096C44.5883 84.096 43.9523 83.808 43.5523 83.232C43.3523 82.96 43.2323 82.656 43.1923 82.32L43.9843 82.116C44.0403 82.444 44.1883 82.732 44.4283 82.98C44.6763 83.22 45.0163 83.34 45.4483 83.34C45.7763 83.34 46.0683 83.248 46.3243 83.064C46.5643 82.896 46.6843 82.66 46.6843 82.356C46.6843 82.116 46.5883 81.924 46.3963 81.78C46.2203 81.636 45.9923 81.532 45.7123 81.468L44.8003 81.264C43.8083 81.048 43.3123 80.528 43.3123 79.704C43.3123 79.088 43.5603 78.628 44.0563 78.324C44.4803 78.06 44.9083 77.928 45.3403 77.928C46.1563 77.936 46.7523 78.2 47.1283 78.72C47.3123 78.984 47.4323 79.252 47.4883 79.524L46.6963 79.752C46.6403 79.52 46.5243 79.296 46.3483 79.08C46.1323 78.824 45.7963 78.696 45.3403 78.696C45.0123 78.696 44.7403 78.788 44.5243 78.972C44.3003 79.148 44.1883 79.372 44.1883 79.644C44.1883 80.044 44.4763 80.316 45.0523 80.46L46.0123 80.676C46.4523 80.78 46.8203 80.968 47.1163 81.24C47.4203 81.512 47.5723 81.868 47.5723 82.308ZM51.8539 80.004V79.716C51.8539 78.564 52.1339 77.516 52.6939 76.572C53.2459 75.62 54.0259 74.856 55.0339 74.28L55.3939 74.844C53.6259 75.98 52.7419 77.608 52.7419 79.728V79.992C52.7419 82.096 53.6259 83.72 55.3939 84.864L55.0339 85.452C54.0259 84.868 53.2459 84.1 52.6939 83.148C52.1339 82.204 51.8539 81.156 51.8539 80.004ZM63.3513 84L62.3913 81.768H57.6273L56.6673 84H55.7313L59.4993 75.252H60.5433L64.3233 84H63.3513ZM62.0433 80.928L60.0033 76.2L57.9753 80.928H62.0433ZM65.5675 84V75.252H68.1715C68.8515 75.252 69.4755 75.364 70.0435 75.588C70.6115 75.804 71.0995 76.108 71.5075 76.5C72.3635 77.332 72.7915 78.368 72.7915 79.608C72.7915 80.248 72.6715 80.844 72.4315 81.396C72.1995 81.924 71.8715 82.388 71.4475 82.788C70.5595 83.596 69.4675 84 68.1715 84H65.5675ZM66.4915 76.116V83.136H68.1355C68.8635 83.136 69.5075 82.984 70.0675 82.68C70.6435 82.376 71.0795 81.964 71.3755 81.444C71.6875 80.916 71.8435 80.312 71.8435 79.632C71.8435 78.624 71.5075 77.784 70.8355 77.112C70.1715 76.448 69.2715 76.116 68.1355 76.116H66.4915ZM77.0266 84.084C76.1786 84.084 75.4666 83.828 74.8906 83.316C74.3306 82.828 74.0106 82.26 73.9306 81.612L74.7946 81.372C74.8906 81.884 75.1546 82.32 75.5866 82.68C76.0106 83.04 76.4906 83.22 77.0266 83.22C77.5626 83.22 78.0106 83.092 78.3706 82.836C78.7786 82.556 78.9826 82.152 78.9826 81.624C78.9826 81.08 78.7386 80.664 78.2506 80.376C78.0266 80.24 77.7506 80.14 77.4226 80.076L76.2706 79.848C76.0386 79.8 75.7826 79.716 75.5026 79.596C75.2146 79.46 74.9746 79.296 74.7826 79.104C74.3746 78.704 74.1706 78.2 74.1706 77.592C74.1706 77.112 74.3026 76.684 74.5666 76.308C74.8226 75.94 75.1626 75.652 75.5866 75.444C76.0026 75.252 76.4546 75.156 76.9426 75.156C77.7986 75.156 78.4666 75.368 78.9466 75.792C79.4346 76.216 79.7306 76.704 79.8346 77.256L78.9946 77.52C78.9066 77.128 78.6906 76.78 78.3466 76.476C78.0106 76.164 77.5386 76.008 76.9306 76.008C76.4506 75.992 76.0226 76.136 75.6466 76.44C75.2706 76.744 75.0866 77.116 75.0946 77.556C75.0946 77.9 75.2026 78.196 75.4186 78.444C75.6346 78.692 75.9506 78.856 76.3666 78.936L77.4706 79.152C78.2306 79.296 78.7986 79.552 79.1746 79.92C79.4306 80.152 79.6226 80.42 79.7506 80.724C79.8706 81.02 79.9306 81.288 79.9306 81.528C79.9386 82.288 79.6626 82.908 79.1026 83.388C78.5426 83.868 77.8506 84.1 77.0266 84.084ZM83.6291 79.716V80.004C83.6291 81.164 83.3531 82.216 82.8011 83.16C82.2411 84.104 81.4571 84.868 80.4491 85.452L80.0891 84.864C81.8571 83.72 82.7411 82.096 82.7411 79.992V79.728C82.7411 77.608 81.8571 75.98 80.0891 74.844L80.4491 74.28C81.4571 74.848 82.2411 75.608 82.8011 76.56C83.3531 77.512 83.6291 78.564 83.6291 79.716Z" fill="white"/>
</g>
<defs>
<filter id="filter0_d_462_979" x="52.0713" y="28.5428" width="30.2134" height="34.8591" filterUnits="userSpaceOnUse" color-interpolation-filters="sRGB">
<feFlood flood-opacity="0" result="BackgroundImageFix"/>
<feColorMatrix in="SourceAlpha" type="matrix" values="0 0 0 0 0 0 0 0 0 0 0 0 0 0 0 0 0 0 127 0" result="hardAlpha"/>
<feOffset dx="-4" dy="4"/>
<feGaussianBlur stdDeviation="2"/>
<feComposite in2="hardAlpha" operator="out"/>
<feColorMatrix type="matrix" values="0 0 0 0 0 0 0 0 0 0 0 0 0 0 0 0 0 0 0.25 0"/>
<feBlend mode="normal" in2="BackgroundImageFix" result="effect1_dropShadow_462_979"/>
<feBlend mode="normal" in="SourceGraphic" in2="effect1_dropShadow_462_979" result="shape"/>
</filter>
<filter id="filter1_d_462_979" x="58.9165" y="28.8316" width="23.3682" height="34.5703" filterUnits="userSpaceOnUse" color-interpolation-filters="sRGB">
<feFlood flood-opacity="0" result="BackgroundImageFix"/>
<feColorMatrix in="SourceAlpha" type="matrix" values="0 0 0 0 0 0 0 0 0 0 0 0 0 0 0 0 0 0 127 0" result="hardAlpha"/>
<feOffset dx="-4" dy="4"/>
<feGaussianBlur stdDeviation="2"/>
<feComposite in2="hardAlpha" operator="out"/>
<feColorMatrix type="matrix" values="0 0 0 0 0 0 0 0 0 0 0 0 0 0 0 0 0 0 0.25 0"/>
<feBlend mode="normal" in2="BackgroundImageFix" result="effect1_dropShadow_462_979"/>
<feBlend mode="normal" in="SourceGraphic" in2="effect1_dropShadow_462_979" result="shape"/>
</filter>
<filter id="filter2_d_462_979" x="18.9355" y="-4.9771" width="47.9595" height="49.1527" filterUnits="userSpaceOnUse" color-interpolation-filters="sRGB">
<feFlood flood-opacity="0" result="BackgroundImageFix"/>
<feColorMatrix in="SourceAlpha" type="matrix" values="0 0 0 0 0 0 0 0 0 0 0 0 0 0 0 0 0 0 127 0" result="hardAlpha"/>
<feOffset dy="4"/>
<feGaussianBlur stdDeviation="5"/>
<feComposite in2="hardAlpha" operator="out"/>
<feColorMatrix type="matrix" values="0 0 0 0 0 0 0 0 0 0 0 0 0 0 0 0 0 0 0.5 0"/>
<feBlend mode="normal" in2="BackgroundImageFix" result="effect1_dropShadow_462_979"/>
<feBlend mode="normal" in="SourceGraphic" in2="effect1_dropShadow_462_979" result="shape"/>
</filter>
<filter id="filter3_d_462_979" x="-6.62549" y="-2.59033" width="46.7661" height="67.9059" filterUnits="userSpaceOnUse" color-interpolation-filters="sRGB">
<feFlood flood-opacity="0" result="BackgroundImageFix"/>
<feColorMatrix in="SourceAlpha" type="matrix" values="0 0 0 0 0 0 0 0 0 0 0 0 0 0 0 0 0 0 127 0" result="hardAlpha"/>
<feOffset dy="4"/>
<feGaussianBlur stdDeviation="5"/>
<feComposite in2="hardAlpha" operator="out"/>
<feColorMatrix type="matrix" values="0 0 0 0 0 0 0 0 0 0 0 0 0 0 0 0 0 0 0.5 0"/>
<feBlend mode="normal" in2="BackgroundImageFix" result="effect1_dropShadow_462_979"/>
<feBlend mode="normal" in="SourceGraphic" in2="effect1_dropShadow_462_979" result="shape"/>
</filter>
<filter id="filter4_d_462_979" x="7.80566" y="74.28" width="77.8232" height="15.172" filterUnits="userSpaceOnUse" color-interpolation-filters="sRGB">
<feFlood flood-opacity="0" result="BackgroundImageFix"/>
<feColorMatrix in="SourceAlpha" type="matrix" values="0 0 0 0 0 0 0 0 0 0 0 0 0 0 0 0 0 0 127 0" result="hardAlpha"/>
<feOffset dy="2"/>
<feGaussianBlur stdDeviation="1"/>
<feComposite in2="hardAlpha" operator="out"/>
<feColorMatrix type="matrix" values="0 0 0 0 0 0 0 0 0 0 0 0 0 0 0 0 0 0 0.5 0"/>
<feBlend mode="normal" in2="BackgroundImageFix" result="effect1_dropShadow_462_979"/>
<feBlend mode="normal" in="SourceGraphic" in2="effect1_dropShadow_462_979" result="shape"/>
</filter>
<clipPath id="clip0_462_979">
<rect width="35.8257" height="35.8257" fill="white" transform="translate(55.1519 19.739) rotate(13.4168)"/>
</clipPath>
<clipPath id="clip1_462_979">
<rect width="30.6871" height="31.9862" fill="white" transform="matrix(-1 0 0 1 57.7476 0)"/>
</clipPath>
<clipPath id="clip2_462_979">
<rect width="28.9942" height="52.0657" fill="white" transform="matrix(-1 0 0 1 29.9702 0)"/>
</clipPath>
</defs>
</svg>
