<svg width="89" height="89" viewBox="0 0 89 89" fill="none" xmlns="http://www.w3.org/2000/svg">
<rect x="21.5027" y="24.1279" width="45.9342" height="45.9342" rx="22.9671" fill="#01A66E"/>
<rect x="21.5027" y="24.1279" width="45.9342" height="45.9342" rx="22.9671" stroke="#CDCCCC"/>
<path d="M31.7195 34.1293L38.8711 41.2855L50.5963 41.2855L50.5963 53.0153L57.7571 60.1715L57.7571 34.1293L31.7195 34.1293ZM38.862 42.7213L31.5039 50.0748L31.5039 60.3963L41.807 60.3963L49.1651 53.0244L38.862 53.0244L38.862 42.7213Z" fill="white"/>
<g filter="url(#filter0_d_183_2766)">
<path d="M22.9946 55.2289L23.606 54.4472C26.9583 50.1446 31.129 44.7916 29.4179 37.6186L27.7876 30.7841L26.5815 31.0719C22.2268 32.1106 18.4894 30.9928 17.888 28.4717L15.4759 29.0471C16.0773 31.5682 13.2469 34.2527 8.89223 35.2915L7.68612 35.5792L9.31645 42.4137C11.0275 49.5867 17.1655 52.4806 22.0973 54.8059L22.9946 55.2289Z" fill="#D84025"/>
</g>
<g filter="url(#filter1_d_183_2766)">
<path d="M8.89215 35.2914C13.2469 34.2527 16.0772 31.5681 15.4758 29.047L16.6819 28.7593L22.9957 55.2274L22.9945 55.2288L22.0972 54.8058C17.1654 52.4805 11.0275 49.5867 9.31637 42.4136L7.68605 35.5791L8.89215 35.2914Z" fill="#A13023"/>
</g>
<g clip-path="url(#clip0_183_2766)">
<g filter="url(#filter2_d_183_2766)">
<path fill-rule="evenodd" clip-rule="evenodd" d="M54.4432 22.5884C54.7525 23.8439 55.0604 25.0985 55.3669 26.352C52.5427 27.9683 48.9768 28.8708 44.4973 28.8724V23.6889L54.4432 22.5884Z" fill="#535353"/>
<path fill-rule="evenodd" clip-rule="evenodd" d="M34.5595 22.5884C34.2462 23.8439 33.9356 25.0985 33.6277 26.352C36.458 27.9683 40.0158 28.8708 44.4973 28.8724V23.6889L34.5595 22.5884Z" fill="#676767"/>
<path fill-rule="evenodd" clip-rule="evenodd" d="M42.274 9.0759C35.8214 3.36948 48.0226 3.91021 51.4611 1.01904C51.7038 1.26047 51.8477 1.55073 51.8749 1.85375C51.9021 2.15677 51.8114 2.45917 51.6141 2.72338C53.1405 3.67161 55.824 2.37786 57.279 4.1953C55.6302 4.12403 54.6261 4.61829 54.0139 5.27988C58.5361 4.75618 56.7668 7.94329 60.6318 8.12302C57.7524 9.34239 50.9897 7.00126 46.8084 9.8506C44.9208 9.79792 44.1616 9.13323 42.274 9.0759Z" fill="#A23023"/>
<path fill-rule="evenodd" clip-rule="evenodd" d="M60.6299 8.0703C57.7798 9.32968 51.0665 6.93003 46.9158 9.85058C46.1434 9.81775 45.3835 9.6841 44.6672 9.45514C50.0962 4.6606 54.9134 8.91676 60.632 8.0703H60.6299Z" fill="#1A1A1A"/>
<path fill-rule="evenodd" clip-rule="evenodd" d="M42.651 8.5912C43.3961 8.64925 44.127 8.78319 44.8231 8.98926L44.8723 9.00146C44.6291 8.72999 44.3901 8.45851 44.1551 8.18703C42.0198 6.37056 46.5137 4.22161 49.2392 3.78084C50.2208 4.41531 51.7331 4.11485 52.5077 4.5602C51.8396 5.1001 51.4257 6.0335 50.7556 6.57341C58.4074 5.79863 54.9217 7.64102 58.5939 7.99791C58.3467 7.87292 58.1222 7.72478 57.9258 7.55714C56.6963 6.5124 56.8787 5.37158 54.1983 5.67661L52.7065 5.84591C52.9701 5.57341 53.2358 5.30142 53.5036 5.02995C54.1079 4.39937 55.0174 3.96796 56.0405 3.82659C55.8007 3.72215 55.5365 3.6523 55.2618 3.6207C55 3.5912 54.7357 3.5754 54.4708 3.57342C53.2782 3.55206 52.1409 3.62222 51.1921 3.05181L50.8396 2.83676C50.9093 2.7422 50.981 2.64917 51.0446 2.55613C51.2032 2.34732 51.2698 2.10676 51.2351 1.86829C50.0056 2.56223 48.3048 3.02893 46.8478 3.41632C45.6941 3.72136 44.483 4.02639 43.3887 4.40615C42.6161 4.67763 41.7493 5.05435 41.3395 5.56985C40.5956 6.5307 41.7452 7.77981 42.651 8.5912Z" fill="#EF4123"/>
<path fill-rule="evenodd" clip-rule="evenodd" d="M43.7258 8.71744C44.1135 8.79334 44.4959 8.88402 44.8714 8.98912L44.9204 9.0014C44.6781 8.72818 44.4398 8.45496 44.2057 8.18175C42.0779 6.35365 46.5561 4.19094 49.272 3.74734C50.2501 4.38587 51.7571 4.08349 52.529 4.53169C51.8633 5.07505 51.4508 6.01443 50.7831 6.55779C58.4081 5.77805 54.9346 7.63224 58.5939 7.99142C56.6887 7.61843 56.7234 6.27076 55.6411 5.94689C54.5588 5.62302 53.1294 6.369 52.0389 6.04513C52.1533 5.42041 52.6699 4.91235 53.4214 4.13721C52.3779 3.66292 49.7457 4.08656 50.293 2.71741C47.9508 4.65909 40.4055 3.85479 43.2684 8.55013L43.7258 8.71744Z" fill="#D03927"/>
<path d="M44.4123 12.7378C46.3352 12.7378 47.894 11.7113 47.894 10.445C47.894 9.17875 46.3352 8.15222 44.4123 8.15222C42.4895 8.15222 40.9307 9.17875 40.9307 10.445C40.9307 11.7113 42.4895 12.7378 44.4123 12.7378Z" fill="#CDCCCC"/>
<path fill-rule="evenodd" clip-rule="evenodd" d="M44.4279 10.5299C48.7929 10.5299 52.5226 12.2605 54.0145 14.7017C54.8158 14.959 55.3671 15.4889 55.3671 16.0954C55.363 16.297 55.3022 16.4957 55.1885 16.6786C55.0748 16.8615 54.9108 17.0244 54.7072 17.1567C54.6334 20.7266 50.0594 23.6074 44.4279 23.6074C38.7964 23.6074 34.2388 20.7328 34.1527 17.172C33.94 17.0392 33.7679 16.8738 33.648 16.687C33.5282 16.5002 33.4634 16.2964 33.458 16.0893C33.458 15.4767 34.0277 14.936 34.8474 14.6833C36.3455 12.2483 40.069 10.5299 44.4279 10.5299Z" fill="#8B8A8A"/>
<path fill-rule="evenodd" clip-rule="evenodd" d="M42.799 20.2107C46.6371 20.2107 49.7624 18.2312 49.7624 15.7949C49.7624 13.3586 46.6309 11.3792 42.799 11.3792C38.9671 11.3792 35.8357 13.3586 35.8357 15.7949C35.8357 18.2312 38.959 20.2107 42.799 20.2107Z" fill="#989898"/>
<path fill-rule="evenodd" clip-rule="evenodd" d="M40.6759 15.2854C42.1268 15.2854 43.3084 14.5219 43.3084 13.587C43.3084 12.6522 42.1268 11.8887 40.6759 11.8887C39.2251 11.8887 38.0435 12.6506 38.0435 13.587C38.0435 14.5235 39.2374 15.2854 40.6759 15.2854Z" fill="#ACACAC"/>
<path fill-rule="evenodd" clip-rule="evenodd" d="M44.4974 14.2665H44.3977C43.0092 14.2611 41.6311 14.4487 40.3308 14.82L32.7786 16.9646V23.3547C36.0829 26.2792 39.9363 28.5695 44.4974 30.0613V14.2665Z" fill="#CDCCCC"/>
<path fill-rule="evenodd" clip-rule="evenodd" d="M42.7991 15.2854C42.1973 15.3616 41.6069 15.484 41.0364 15.651L39.5886 16.0678V26.7622C40.6103 27.3513 41.6823 27.8861 42.7971 28.3629V15.2854H42.7991ZM38.9088 16.2638L36.6568 16.9125V24.8458C37.3687 25.37 38.1187 25.8771 38.9088 26.3593V16.2638ZM35.979 17.1069L34.4771 17.5394V23.0865C34.9583 23.5096 35.459 23.9244 35.979 24.3309V17.1069Z" fill="#333333"/>
<path fill-rule="evenodd" clip-rule="evenodd" d="M44.4973 14.2664H44.597C45.982 14.262 47.3566 14.4496 48.6537 14.82L56.2161 16.963V23.3532C52.9097 26.2792 49.0563 28.5695 44.4973 30.0613V14.2664Z" fill="#B4B4B4"/>
<path fill-rule="evenodd" clip-rule="evenodd" d="M46.1958 15.2854C46.8099 15.3618 47.4126 15.4842 47.9949 15.651L49.4726 16.0678V26.7622C48.4294 27.351 47.3354 27.8857 46.1978 28.3629V15.2854H46.1958ZM50.1665 16.2638L52.4629 16.9125V24.8458C51.7383 25.37 50.9729 25.8771 50.1665 26.3593V16.2638ZM53.1567 17.1069L54.6877 17.5394V23.0865C54.1978 23.5096 53.6875 23.9244 53.1567 24.3309V17.1069Z" fill="#1A1A1A"/>
<path fill-rule="evenodd" clip-rule="evenodd" d="M43.534 8.66174C44.1859 8.66174 44.4984 8.96662 44.2331 9.34109C44.0652 9.54109 43.8242 9.70857 43.5333 9.82751C43.2424 9.94646 42.9113 10.0129 42.5716 10.0204C41.9218 10.0204 41.6092 9.71696 41.8745 9.34109C42.0426 9.14147 42.2833 8.97426 42.5738 8.85535C42.8642 8.73645 43.1948 8.6698 43.534 8.66174Z" fill="#E3E3E3"/>
</g>
</g>
<g clip-path="url(#clip1_183_2766)">
<g filter="url(#filter3_d_183_2766)">
<path fill-rule="evenodd" clip-rule="evenodd" d="M60.009 47.2835L60.145 47.3539C60.2992 47.4366 60.4708 47.4817 60.6458 47.4855C60.8207 47.4893 60.9941 47.4517 61.1517 47.3757C61.3115 47.3045 61.4523 47.1966 61.5625 47.0608C61.6728 46.925 61.7495 46.7651 61.7864 46.5942C62.0991 45.2279 62.7244 43.5585 63.6139 41.8343C64.5034 40.1101 65.5023 38.6345 66.4277 37.5887C66.5437 37.4584 66.6283 37.3033 66.6751 37.1353C66.722 36.9673 66.7298 36.7908 66.6979 36.6193C66.6661 36.4478 66.5955 36.2859 66.4915 36.1459C66.3875 36.0058 66.2529 35.8914 66.0979 35.8114L65.9603 35.7411L66.5262 34.6469L69.1837 36.0162L71.8413 37.384L71.2754 38.4782L71.1394 38.4078C70.9837 38.3264 70.8113 38.2819 70.6357 38.2777C70.46 38.2736 70.2858 38.31 70.1264 38.3841C69.9671 38.4581 69.827 38.5679 69.7169 38.7049C69.6068 38.8418 69.5298 39.0023 69.4917 39.1738C69.179 40.5384 68.5537 42.2095 67.6643 43.9321C66.7748 45.6547 65.7758 47.1319 64.8504 48.1776C64.7344 48.3081 64.6498 48.4633 64.603 48.6314C64.5561 48.7996 64.5483 48.9762 64.5802 49.1478C64.612 49.3194 64.6826 49.4814 64.7866 49.6216C64.8906 49.7618 65.0252 49.8763 65.1802 49.9565L65.3178 50.0269L64.7519 51.1211L62.0944 49.7533L59.4431 48.3793L60.009 47.2835Z" fill="#CA3927"/>
<path fill-rule="evenodd" clip-rule="evenodd" d="M66.7737 38.2339C67.212 38.4626 66.6033 40.5412 65.4123 42.8736C64.2212 45.206 62.9 46.9134 62.4694 46.6847C62.0388 46.456 62.6398 44.3774 63.8309 42.045C65.022 39.7126 66.3354 38.0052 66.7737 38.2339Z" fill="#F04B23"/>
<path fill-rule="evenodd" clip-rule="evenodd" d="M86.1075 3.39673L84.6832 11.4454L71.3962 37.1944L67.0857 34.9697L80.3726 9.22067L86.1075 3.39673Z" fill="#D1D2D2"/>
<path fill-rule="evenodd" clip-rule="evenodd" d="M81.808 7.74434L84.0703 6.27113L83.2748 11.0728L71.3318 37.1944L84.6771 11.4454L86.1077 3.39673L81.808 7.74434Z" fill="#E6E6E5"/>
<path fill-rule="evenodd" clip-rule="evenodd" d="M82.3713 10.6997L76.0934 23.5217L69.8139 36.3452L69.1284 35.9964L68.4446 35.6476L75.4079 23.1745L82.3713 10.6997Z" fill="#818181"/>
<path fill-rule="evenodd" clip-rule="evenodd" d="M65.7727 33.4234L73.3723 37.3669C73.7631 37.0841 74.2371 36.9418 74.7181 36.9631C75.1991 36.9844 75.659 37.168 76.0235 37.4842C76.3881 37.8005 76.6361 38.231 76.7275 38.7064C76.819 39.1817 76.7486 39.6742 76.5278 40.1044C76.3069 40.5346 75.9483 40.8775 75.51 41.0777C75.0716 41.2779 74.579 41.3238 74.1115 41.208C73.644 41.0922 73.2289 40.8214 72.9332 40.4394C72.6375 40.0573 72.4783 39.5862 72.4814 39.1021L64.8818 35.1585C64.4905 35.4422 64.0157 35.585 63.5338 35.5639C63.052 35.5429 62.5913 35.3592 62.226 35.0425C61.8607 34.7258 61.6121 34.2946 61.5204 33.8185C61.4286 33.3423 61.4991 32.8489 61.7204 32.418C61.9417 31.987 62.3009 31.6436 62.74 31.4431C63.1792 31.2426 63.6727 31.1968 64.1409 31.3129C64.6092 31.4291 65.0249 31.7005 65.3209 32.0834C65.617 32.4663 65.7761 32.9384 65.7727 33.4234Z" fill="#333333"/>
</g>
</g>
<g filter="url(#filter4_d_183_2766)">
<path d="M18.3549 83.509L17.3949 81.277H12.6309L11.6709 83.509H10.7349L14.5029 74.761H15.5469L19.3269 83.509H18.3549ZM17.0469 80.437L15.0069 75.709L12.9789 80.437H17.0469ZM28.383 74.761H29.703V83.509H28.791V76.009L25.539 83.509H24.711L21.483 76.069V83.509H20.571V74.761H21.879L25.143 82.261L28.383 74.761ZM32.1374 83.509V74.761H34.7414C35.4214 74.761 36.0454 74.873 36.6134 75.097C37.1814 75.313 37.6694 75.617 38.0774 76.009C38.9334 76.841 39.3614 77.877 39.3614 79.117C39.3614 79.757 39.2414 80.353 39.0014 80.905C38.7694 81.433 38.4414 81.897 38.0174 82.297C37.1294 83.105 36.0374 83.509 34.7414 83.509H32.1374ZM33.0614 75.625V82.645H34.7054C35.4334 82.645 36.0774 82.493 36.6374 82.189C37.2134 81.885 37.6494 81.473 37.9454 80.953C38.2574 80.425 38.4134 79.821 38.4134 79.141C38.4134 78.133 38.0774 77.293 37.4054 76.621C36.7414 75.957 35.8414 75.625 34.7054 75.625H33.0614ZM43.6778 79.513V79.225C43.6778 78.073 43.9578 77.025 44.5178 76.081C45.0698 75.129 45.8498 74.365 46.8578 73.789L47.2178 74.353C45.4498 75.489 44.5658 77.117 44.5658 79.237V79.501C44.5658 81.605 45.4498 83.229 47.2178 84.373L46.8578 84.961C45.8498 84.377 45.0698 83.609 44.5178 82.657C43.9578 81.713 43.6778 80.665 43.6778 79.513ZM55.1752 83.509L54.2152 81.277H49.4512L48.4912 83.509H47.5552L51.3232 74.761H52.3672L56.1472 83.509H55.1752ZM53.8672 80.437L51.8272 75.709L49.7992 80.437H53.8672ZM65.2033 74.761H66.5233V83.509H65.6113V76.009L62.3593 83.509H61.5313L58.3033 76.069V83.509H57.3913V74.761H58.6993L61.9633 82.261L65.2033 74.761ZM68.9577 83.509V74.761H71.5617C72.2417 74.761 72.8657 74.873 73.4337 75.097C74.0017 75.313 74.4897 75.617 74.8977 76.009C75.7537 76.841 76.1817 77.877 76.1817 79.117C76.1817 79.757 76.0617 80.353 75.8217 80.905C75.5897 81.433 75.2617 81.897 74.8377 82.297C73.9497 83.105 72.8577 83.509 71.5617 83.509H68.9577ZM69.8817 75.625V82.645H71.5257C72.2537 82.645 72.8977 82.493 73.4577 82.189C74.0337 81.885 74.4697 81.473 74.7657 80.953C75.0777 80.425 75.2337 79.821 75.2337 79.141C75.2337 78.133 74.8977 77.293 74.2257 76.621C73.5617 75.957 72.6617 75.625 71.5257 75.625H69.8817ZM79.2732 79.225V79.513C79.2732 80.673 78.9972 81.725 78.4452 82.669C77.8852 83.613 77.1012 84.377 76.0932 84.961L75.7332 84.373C77.5012 83.229 78.3852 81.605 78.3852 79.501V79.237C78.3852 77.117 77.5012 75.489 75.7332 74.353L76.0932 73.789C77.1012 74.357 77.8852 75.117 78.4452 76.069C78.9972 77.021 79.2732 78.073 79.2732 79.225Z" fill="white"/>
</g>
<defs>
<filter id="filter0_d_183_2766" x="3.68604" y="28.4717" width="30.1289" height="34.7572" filterUnits="userSpaceOnUse" color-interpolation-filters="sRGB">
<feFlood flood-opacity="0" result="BackgroundImageFix"/>
<feColorMatrix in="SourceAlpha" type="matrix" values="0 0 0 0 0 0 0 0 0 0 0 0 0 0 0 0 0 0 127 0" result="hardAlpha"/>
<feOffset dy="4"/>
<feGaussianBlur stdDeviation="2"/>
<feComposite in2="hardAlpha" operator="out"/>
<feColorMatrix type="matrix" values="0 0 0 0 0 0 0 0 0 0 0 0 0 0 0 0 0 0 0.25 0"/>
<feBlend mode="normal" in2="BackgroundImageFix" result="effect1_dropShadow_183_2766"/>
<feBlend mode="normal" in="SourceGraphic" in2="effect1_dropShadow_183_2766" result="shape"/>
</filter>
<filter id="filter1_d_183_2766" x="3.68604" y="28.7593" width="23.3096" height="34.4696" filterUnits="userSpaceOnUse" color-interpolation-filters="sRGB">
<feFlood flood-opacity="0" result="BackgroundImageFix"/>
<feColorMatrix in="SourceAlpha" type="matrix" values="0 0 0 0 0 0 0 0 0 0 0 0 0 0 0 0 0 0 127 0" result="hardAlpha"/>
<feOffset dy="4"/>
<feGaussianBlur stdDeviation="2"/>
<feComposite in2="hardAlpha" operator="out"/>
<feColorMatrix type="matrix" values="0 0 0 0 0 0 0 0 0 0 0 0 0 0 0 0 0 0 0.25 0"/>
<feBlend mode="normal" in2="BackgroundImageFix" result="effect1_dropShadow_183_2766"/>
<feBlend mode="normal" in="SourceGraphic" in2="effect1_dropShadow_183_2766" result="shape"/>
</filter>
<filter id="filter2_d_183_2766" x="22.7786" y="-4.98096" width="47.8535" height="49.0422" filterUnits="userSpaceOnUse" color-interpolation-filters="sRGB">
<feFlood flood-opacity="0" result="BackgroundImageFix"/>
<feColorMatrix in="SourceAlpha" type="matrix" values="0 0 0 0 0 0 0 0 0 0 0 0 0 0 0 0 0 0 127 0" result="hardAlpha"/>
<feOffset dy="4"/>
<feGaussianBlur stdDeviation="5"/>
<feComposite in2="hardAlpha" operator="out"/>
<feColorMatrix type="matrix" values="0 0 0 0 0 0 0 0 0 0 0 0 0 0 0 0 0 0 0.5 0"/>
<feBlend mode="normal" in2="BackgroundImageFix" result="effect1_dropShadow_183_2766"/>
<feBlend mode="normal" in="SourceGraphic" in2="effect1_dropShadow_183_2766" result="shape"/>
</filter>
<filter id="filter3_d_183_2766" x="49.4431" y="-2.60327" width="46.6646" height="67.7244" filterUnits="userSpaceOnUse" color-interpolation-filters="sRGB">
<feFlood flood-opacity="0" result="BackgroundImageFix"/>
<feColorMatrix in="SourceAlpha" type="matrix" values="0 0 0 0 0 0 0 0 0 0 0 0 0 0 0 0 0 0 127 0" result="hardAlpha"/>
<feOffset dy="4"/>
<feGaussianBlur stdDeviation="5"/>
<feComposite in2="hardAlpha" operator="out"/>
<feColorMatrix type="matrix" values="0 0 0 0 0 0 0 0 0 0 0 0 0 0 0 0 0 0 0.5 0"/>
<feBlend mode="normal" in2="BackgroundImageFix" result="effect1_dropShadow_183_2766"/>
<feBlend mode="normal" in="SourceGraphic" in2="effect1_dropShadow_183_2766" result="shape"/>
</filter>
<filter id="filter4_d_183_2766" x="8.73486" y="73.7891" width="72.5383" height="15.172" filterUnits="userSpaceOnUse" color-interpolation-filters="sRGB">
<feFlood flood-opacity="0" result="BackgroundImageFix"/>
<feColorMatrix in="SourceAlpha" type="matrix" values="0 0 0 0 0 0 0 0 0 0 0 0 0 0 0 0 0 0 127 0" result="hardAlpha"/>
<feOffset dy="2"/>
<feGaussianBlur stdDeviation="1"/>
<feComposite in2="hardAlpha" operator="out"/>
<feColorMatrix type="matrix" values="0 0 0 0 0 0 0 0 0 0 0 0 0 0 0 0 0 0 0.5 0"/>
<feBlend mode="normal" in2="BackgroundImageFix" result="effect1_dropShadow_183_2766"/>
<feBlend mode="normal" in="SourceGraphic" in2="effect1_dropShadow_183_2766" result="shape"/>
</filter>
<clipPath id="clip0_183_2766">
<rect width="30.5708" height="31.8649" fill="white" transform="translate(31.9294)"/>
</clipPath>
<clipPath id="clip1_183_2766">
<rect width="28.8843" height="51.8684" fill="white" transform="translate(59.613)"/>
</clipPath>
</defs>
</svg>
