<svg width="89" height="102" viewBox="0 0 89 102" fill="none" xmlns="http://www.w3.org/2000/svg">
<rect x="21.5027" y="24.1279" width="45.9342" height="45.9342" rx="22.9671" fill="#F79400"/>
<rect x="21.5027" y="24.1279" width="45.9342" height="45.9342" rx="22.9671" stroke="#CDCCCC"/>
<path fill-rule="evenodd" clip-rule="evenodd" d="M46.5326 45.8442C46.5326 47.1939 46.5648 48.319 45.8839 49.5182C45.3341 50.4935 44.4589 51.0922 43.4868 51.0922C42.1585 51.0922 41.381 50.0806 41.381 48.5808C41.381 45.6311 44.0272 45.0949 46.5326 45.0949V45.8442ZM50.0248 54.2886C49.7951 54.494 49.4641 54.5082 49.2058 54.369C48.0549 53.4132 47.849 52.971 47.2205 52.0611C45.3197 53.9976 43.973 54.5784 41.5107 54.5784C38.5946 54.5784 36.3272 52.7794 36.3272 49.1807C36.3272 46.3691 37.8495 44.4575 40.0202 43.5201C41.8993 42.6953 44.5241 42.5457 46.5326 42.3204V41.8705C46.5326 41.0463 46.5968 40.0712 46.1112 39.3591C45.6899 38.7217 44.8799 38.4596 44.1676 38.4596C42.8467 38.4596 41.672 39.1362 41.3839 40.5389C41.3235 40.8514 41.0962 41.1599 40.7817 41.176L37.4252 40.8124C37.142 40.7488 36.8265 40.521 36.9087 40.0884C37.6796 36.0161 41.3575 34.7856 44.6532 34.7856C46.338 34.7856 48.5411 35.2355 49.8695 36.51C51.5542 38.0847 51.3923 40.1839 51.3923 42.4707V47.8661C51.3923 49.489 52.066 50.2014 52.6992 51.0767C52.9206 51.391 52.9706 51.7659 52.6885 51.9956C51.9809 52.5889 50.7234 53.681 50.0318 54.2964L50.0248 54.2886ZM54.7709 55.2486C51.5548 56.6126 48.0597 57.272 44.8806 57.272C40.1666 57.272 35.6035 55.9794 31.9138 53.8316C31.5907 53.6435 31.3514 53.975 31.6199 54.2178C35.0401 57.3064 39.5597 59.1621 44.5789 59.1621C48.1603 59.1621 52.319 58.0355 55.188 55.9187C55.6623 55.5676 55.2559 55.0427 54.7709 55.2486ZM55.6272 57.8266C55.5225 58.0885 55.7475 58.1944 55.9843 57.9956C57.5233 56.7078 57.9208 54.0107 57.6054 53.6209C57.293 53.2347 54.6024 52.902 52.9599 54.0548C52.7075 54.2333 52.7516 54.4773 53.0313 54.444C53.9561 54.3327 56.0147 54.0858 56.3818 54.5559C56.7484 55.026 55.9736 56.9613 55.6272 57.8266Z" fill="black"/>
<g filter="url(#filter0_d_183_2989)">
<path d="M22.9946 55.2288L23.606 54.4472C26.9583 50.1445 31.129 44.7916 29.4179 37.6186L27.7876 30.7841L26.5815 31.0718C22.2268 32.1106 18.4894 30.9927 17.888 28.4716L15.4759 29.047C16.0773 31.5681 13.2469 34.2527 8.89223 35.2914L7.68612 35.5792L9.31645 42.4136C11.0275 49.5866 17.1655 52.4805 22.0973 54.8059L22.9946 55.2288Z" fill="#D84025"/>
</g>
<g filter="url(#filter1_d_183_2989)">
<path d="M8.8924 35.2915C13.2471 34.2527 16.0774 31.5682 15.476 29.047L16.6821 28.7593L22.9959 55.2274L22.9947 55.2289L22.0975 54.8059C17.1657 52.4806 11.0277 49.5868 9.31661 42.4137L7.68629 35.5792L8.8924 35.2915Z" fill="#A13023"/>
</g>
<g clip-path="url(#clip0_183_2989)">
<g filter="url(#filter2_d_183_2989)">
<path fill-rule="evenodd" clip-rule="evenodd" d="M54.4432 22.5884C54.7525 23.844 55.0604 25.0986 55.3669 26.3521C52.5427 27.9684 48.9768 28.8709 44.4973 28.8724V23.689L54.4432 22.5884Z" fill="#535353"/>
<path fill-rule="evenodd" clip-rule="evenodd" d="M34.5595 22.5884C34.2462 23.844 33.9356 25.0986 33.6277 26.3521C36.458 27.9684 40.0158 28.8709 44.4973 28.8724V23.689L34.5595 22.5884Z" fill="#676767"/>
<path fill-rule="evenodd" clip-rule="evenodd" d="M42.274 9.0759C35.8214 3.36948 48.0226 3.91021 51.4611 1.01904C51.7038 1.26047 51.8477 1.55073 51.8749 1.85375C51.9021 2.15677 51.8114 2.45917 51.6141 2.72338C53.1405 3.67161 55.824 2.37786 57.279 4.1953C55.6302 4.12403 54.6261 4.61829 54.0139 5.27988C58.5361 4.75618 56.7668 7.94329 60.6318 8.12302C57.7524 9.34239 50.9897 7.00126 46.8084 9.8506C44.9208 9.79792 44.1616 9.13323 42.274 9.0759Z" fill="#A23023"/>
<path fill-rule="evenodd" clip-rule="evenodd" d="M60.6299 8.0703C57.7798 9.32968 51.0665 6.93003 46.9158 9.85058C46.1434 9.81775 45.3835 9.6841 44.6672 9.45514C50.0962 4.6606 54.9134 8.91676 60.632 8.0703H60.6299Z" fill="#1A1A1A"/>
<path fill-rule="evenodd" clip-rule="evenodd" d="M42.651 8.59114C43.3961 8.64919 44.127 8.78313 44.8231 8.9892L44.8723 9.0014C44.6291 8.72992 44.3901 8.45845 44.1551 8.18697C42.0198 6.3705 46.5137 4.22155 49.2392 3.78078C50.2208 4.41524 51.7331 4.11479 52.5077 4.56013C51.8396 5.10004 51.4257 6.03344 50.7556 6.57335C58.4074 5.79857 54.9217 7.64096 58.5939 7.99785C58.3467 7.87286 58.1222 7.72472 57.9258 7.55708C56.6963 6.51234 56.8787 5.37152 54.1983 5.67655L52.7065 5.84585C52.9701 5.57335 53.2358 5.30136 53.5036 5.02988C54.1079 4.39931 55.0174 3.9679 56.0405 3.82653C55.8007 3.72209 55.5365 3.65224 55.2618 3.62064C55 3.59114 54.7357 3.57534 54.4708 3.57336C53.2782 3.552 52.1409 3.62216 51.1921 3.05175L50.8396 2.8367C50.9093 2.74214 50.981 2.64911 51.0446 2.55607C51.2032 2.34726 51.2698 2.1067 51.2351 1.86823C50.0056 2.56217 48.3048 3.02887 46.8478 3.41626C45.6941 3.7213 44.483 4.02633 43.3887 4.40609C42.6161 4.67757 41.7493 5.05429 41.3395 5.56979C40.5956 6.53064 41.7452 7.77975 42.651 8.59114Z" fill="#EF4123"/>
<path fill-rule="evenodd" clip-rule="evenodd" d="M43.7258 8.71744C44.1135 8.79334 44.4959 8.88402 44.8714 8.98912L44.9204 9.0014C44.6781 8.72818 44.4398 8.45496 44.2057 8.18175C42.0779 6.35365 46.5561 4.19094 49.272 3.74734C50.2501 4.38587 51.7571 4.08349 52.529 4.53169C51.8633 5.07505 51.4508 6.01443 50.7831 6.55779C58.4081 5.77805 54.9346 7.63224 58.5939 7.99142C56.6887 7.61843 56.7234 6.27076 55.6411 5.94689C54.5588 5.62302 53.1294 6.369 52.0389 6.04513C52.1533 5.42041 52.6699 4.91235 53.4214 4.13721C52.3779 3.66292 49.7457 4.08656 50.293 2.71741C47.9508 4.65909 40.4055 3.85479 43.2684 8.55013L43.7258 8.71744Z" fill="#D03927"/>
<path d="M44.4123 12.7378C46.3352 12.7378 47.894 11.7113 47.894 10.445C47.894 9.17875 46.3352 8.15222 44.4123 8.15222C42.4895 8.15222 40.9307 9.17875 40.9307 10.445C40.9307 11.7113 42.4895 12.7378 44.4123 12.7378Z" fill="#CDCCCC"/>
<path fill-rule="evenodd" clip-rule="evenodd" d="M44.4279 10.53C48.7929 10.53 52.5226 12.2606 54.0145 14.7018C54.8158 14.9591 55.3671 15.489 55.3671 16.0954C55.363 16.2971 55.3022 16.4958 55.1885 16.6787C55.0748 16.8615 54.9108 17.0244 54.7072 17.1568C54.6334 20.7267 50.0594 23.6075 44.4279 23.6075C38.7964 23.6075 34.2388 20.7328 34.1527 17.1721C33.94 17.0393 33.7679 16.8739 33.648 16.6871C33.5282 16.5003 33.4634 16.2964 33.458 16.0893C33.458 15.4767 34.0277 14.9361 34.8474 14.6834C36.3455 12.2483 40.069 10.53 44.4279 10.53Z" fill="#8B8A8A"/>
<path fill-rule="evenodd" clip-rule="evenodd" d="M42.799 20.2107C46.6371 20.2107 49.7624 18.2312 49.7624 15.7949C49.7624 13.3586 46.6309 11.3792 42.799 11.3792C38.9671 11.3792 35.8357 13.3586 35.8357 15.7949C35.8357 18.2312 38.959 20.2107 42.799 20.2107Z" fill="#989898"/>
<path fill-rule="evenodd" clip-rule="evenodd" d="M40.6759 15.2854C42.1268 15.2854 43.3084 14.5219 43.3084 13.587C43.3084 12.6522 42.1268 11.8887 40.6759 11.8887C39.2251 11.8887 38.0435 12.6506 38.0435 13.587C38.0435 14.5235 39.2374 15.2854 40.6759 15.2854Z" fill="#ACACAC"/>
<path fill-rule="evenodd" clip-rule="evenodd" d="M44.4974 14.2665H44.3977C43.0092 14.2611 41.6311 14.4487 40.3308 14.82L32.7786 16.9646V23.3547C36.0829 26.2792 39.9363 28.5695 44.4974 30.0613V14.2665Z" fill="#CDCCCC"/>
<path fill-rule="evenodd" clip-rule="evenodd" d="M42.7991 15.2854C42.1973 15.3616 41.6069 15.484 41.0364 15.651L39.5886 16.0678V26.7622C40.6103 27.3513 41.6823 27.8861 42.7971 28.3629V15.2854H42.7991ZM38.9088 16.2638L36.6568 16.9125V24.8458C37.3687 25.37 38.1187 25.8771 38.9088 26.3593V16.2638ZM35.979 17.1069L34.4771 17.5394V23.0865C34.9583 23.5096 35.459 23.9244 35.979 24.3309V17.1069Z" fill="#333333"/>
<path fill-rule="evenodd" clip-rule="evenodd" d="M44.4973 14.2664H44.597C45.982 14.262 47.3566 14.4496 48.6537 14.82L56.2161 16.963V23.3532C52.9097 26.2792 49.0563 28.5695 44.4973 30.0613V14.2664Z" fill="#B4B4B4"/>
<path fill-rule="evenodd" clip-rule="evenodd" d="M46.1958 15.2854C46.8099 15.3618 47.4126 15.4842 47.9949 15.651L49.4726 16.0678V26.7622C48.4294 27.351 47.3354 27.8857 46.1978 28.3629V15.2854H46.1958ZM50.1665 16.2638L52.4629 16.9125V24.8458C51.7383 25.37 50.9729 25.8771 50.1665 26.3593V16.2638ZM53.1567 17.1069L54.6877 17.5394V23.0865C54.1978 23.5096 53.6875 23.9244 53.1567 24.3309V17.1069Z" fill="#1A1A1A"/>
<path fill-rule="evenodd" clip-rule="evenodd" d="M43.534 8.66174C44.1859 8.66174 44.4984 8.96662 44.2331 9.34109C44.0652 9.54109 43.8242 9.70857 43.5333 9.82751C43.2424 9.94646 42.9113 10.0129 42.5716 10.0204C41.9218 10.0204 41.6092 9.71696 41.8745 9.34109C42.0426 9.14147 42.2833 8.97426 42.5738 8.85535C42.8642 8.73645 43.1948 8.6698 43.534 8.66174Z" fill="#E3E3E3"/>
</g>
</g>
<g clip-path="url(#clip1_183_2989)">
<g filter="url(#filter3_d_183_2989)">
<path fill-rule="evenodd" clip-rule="evenodd" d="M60.009 47.2835L60.145 47.3539C60.2992 47.4366 60.4708 47.4817 60.6458 47.4855C60.8207 47.4893 60.9941 47.4517 61.1517 47.3757C61.3115 47.3045 61.4523 47.1966 61.5625 47.0608C61.6728 46.925 61.7495 46.7651 61.7864 46.5942C62.0991 45.2279 62.7244 43.5585 63.6139 41.8343C64.5034 40.1101 65.5023 38.6345 66.4277 37.5887C66.5437 37.4584 66.6283 37.3033 66.6751 37.1353C66.722 36.9673 66.7298 36.7908 66.6979 36.6193C66.6661 36.4478 66.5955 36.2859 66.4915 36.1459C66.3875 36.0058 66.2529 35.8914 66.0979 35.8114L65.9603 35.7411L66.5262 34.6469L69.1837 36.0162L71.8413 37.384L71.2754 38.4782L71.1394 38.4078C70.9837 38.3264 70.8113 38.2819 70.6357 38.2777C70.46 38.2736 70.2858 38.31 70.1264 38.3841C69.9671 38.4581 69.827 38.5679 69.7169 38.7049C69.6068 38.8418 69.5298 39.0023 69.4917 39.1738C69.179 40.5384 68.5537 42.2095 67.6643 43.9321C66.7748 45.6547 65.7758 47.1319 64.8504 48.1776C64.7344 48.3081 64.6498 48.4633 64.603 48.6314C64.5561 48.7996 64.5483 48.9762 64.5802 49.1478C64.612 49.3194 64.6826 49.4814 64.7866 49.6216C64.8906 49.7618 65.0252 49.8763 65.1802 49.9565L65.3178 50.0269L64.7519 51.1211L62.0944 49.7533L59.4431 48.3793L60.009 47.2835Z" fill="#CA3927"/>
<path fill-rule="evenodd" clip-rule="evenodd" d="M66.7737 38.234C67.212 38.4627 66.6033 40.5413 65.4123 42.8737C64.2212 45.2061 62.9 46.9135 62.4694 46.6848C62.0388 46.4561 62.6398 44.3775 63.8309 42.0451C65.022 39.7127 66.3354 38.0053 66.7737 38.234Z" fill="#F04B23"/>
<path fill-rule="evenodd" clip-rule="evenodd" d="M86.1075 3.39673L84.6832 11.4454L71.3962 37.1944L67.0857 34.9697L80.3726 9.22067L86.1075 3.39673Z" fill="#D1D2D2"/>
<path fill-rule="evenodd" clip-rule="evenodd" d="M81.808 7.74434L84.0703 6.27113L83.2748 11.0728L71.3318 37.1944L84.6771 11.4454L86.1077 3.39673L81.808 7.74434Z" fill="#E6E6E5"/>
<path fill-rule="evenodd" clip-rule="evenodd" d="M82.3713 10.6998L76.0934 23.5217L69.8139 36.3452L69.1284 35.9965L68.4446 35.6477L75.4079 23.1745L82.3713 10.6998Z" fill="#818181"/>
<path fill-rule="evenodd" clip-rule="evenodd" d="M65.7727 33.4234L73.3723 37.3669C73.7631 37.0841 74.2371 36.9418 74.7181 36.9631C75.1991 36.9844 75.659 37.168 76.0235 37.4842C76.3881 37.8005 76.6361 38.231 76.7275 38.7064C76.819 39.1817 76.7486 39.6742 76.5278 40.1044C76.3069 40.5346 75.9483 40.8775 75.51 41.0777C75.0716 41.2779 74.579 41.3238 74.1115 41.208C73.644 41.0922 73.2289 40.8214 72.9332 40.4394C72.6375 40.0573 72.4783 39.5862 72.4814 39.1021L64.8818 35.1585C64.4905 35.4422 64.0157 35.585 63.5338 35.5639C63.052 35.5429 62.5913 35.3592 62.226 35.0425C61.8607 34.7258 61.6121 34.2946 61.5204 33.8185C61.4286 33.3423 61.4991 32.8489 61.7204 32.418C61.9417 31.987 62.3009 31.6436 62.74 31.4431C63.1792 31.2426 63.6727 31.1968 64.1409 31.3129C64.6092 31.4291 65.0249 31.7005 65.3209 32.0834C65.617 32.4663 65.7761 32.9384 65.7727 33.4234Z" fill="#333333"/>
</g>
</g>
<g filter="url(#filter4_d_183_2989)">
<path d="M30.0853 83.509L29.1253 81.277H24.3613L23.4013 83.509H22.4653L26.2333 74.761H27.2773L31.0573 83.509H30.0853ZM28.7773 80.437L26.7373 75.709L24.7093 80.437H28.7773ZM36.9935 83.509H36.1415V80.005C36.1415 79.493 36.0135 79.065 35.7575 78.721C35.4935 78.393 35.1095 78.229 34.6055 78.229C34.0935 78.229 33.6895 78.413 33.3935 78.781C33.0975 79.149 32.9495 79.593 32.9495 80.113V83.509H32.0735V77.545H32.9255V78.577C33.1895 78.185 33.4735 77.897 33.7775 77.713C34.0815 77.529 34.4415 77.437 34.8575 77.437C35.7615 77.437 36.3975 77.837 36.7655 78.637C37.2695 77.837 37.9695 77.437 38.8655 77.437C39.5615 77.437 40.1055 77.657 40.4975 78.097C40.8735 78.537 41.0615 79.113 41.0615 79.825V83.509H40.1975V80.041C40.1975 79.497 40.0695 79.061 39.8135 78.733C39.5495 78.397 39.1615 78.229 38.6495 78.229C38.1535 78.229 37.7535 78.409 37.4495 78.769C37.1455 79.121 36.9935 79.557 36.9935 80.077V83.509ZM44.9042 80.065H46.5602V79.669C46.5602 78.701 46.0522 78.217 45.0362 78.217C44.5482 78.217 44.1722 78.349 43.9082 78.613C43.6682 78.853 43.5242 79.125 43.4762 79.429L42.6362 79.249C42.6442 79.081 42.7242 78.869 42.8762 78.613C43.0282 78.357 43.2282 78.129 43.4762 77.929C43.9002 77.601 44.4282 77.437 45.0602 77.437C46.1482 77.437 46.8722 77.849 47.2322 78.673C47.3522 78.953 47.4122 79.281 47.4122 79.657V81.337C47.4122 82.313 47.4442 83.037 47.5082 83.509H46.6442C46.5882 83.205 46.5602 82.857 46.5602 82.465C46.0562 83.233 45.3842 83.617 44.5442 83.617C43.9442 83.617 43.4642 83.449 43.1042 83.113C42.7282 82.785 42.5402 82.365 42.5402 81.853V81.793C42.5402 81.201 42.7762 80.765 43.2482 80.485C43.7282 80.205 44.2802 80.065 44.9042 80.065ZM46.5602 80.989V80.785H44.8922C44.5242 80.785 44.2002 80.853 43.9202 80.989C43.5842 81.133 43.4162 81.397 43.4162 81.781C43.4162 82.109 43.5402 82.369 43.7882 82.561C44.0282 82.753 44.3322 82.849 44.7002 82.849C45.2202 82.849 45.6642 82.673 46.0322 82.321C46.3842 81.985 46.5602 81.541 46.5602 80.989ZM49.8278 82.765H53.5718V83.509H48.7958V82.765L52.5158 78.289H48.8798V77.545H53.5598V78.289L49.8278 82.765ZM57.4241 83.617C56.8721 83.617 56.3561 83.481 55.8761 83.209C55.4041 82.929 55.0361 82.557 54.7721 82.093C54.5001 81.629 54.3641 81.113 54.3641 80.545C54.3641 79.657 54.6601 78.921 55.2521 78.337C55.8441 77.737 56.5761 77.437 57.4481 77.437C58.2961 77.421 59.0241 77.721 59.6321 78.337C60.2481 78.945 60.5481 79.669 60.5321 80.509C60.5481 81.373 60.2481 82.113 59.6321 82.729C59.0161 83.337 58.2801 83.633 57.4241 83.617ZM57.4481 82.837C58.0721 82.837 58.5961 82.613 59.0201 82.165C59.4281 81.717 59.6321 81.177 59.6321 80.545C59.6321 79.905 59.4241 79.353 59.0081 78.889C58.5841 78.433 58.0561 78.205 57.4241 78.205C56.7921 78.205 56.2721 78.429 55.8641 78.877C55.4561 79.325 55.2521 79.869 55.2521 80.509C55.2361 81.141 55.4401 81.689 55.8641 82.153C56.2961 82.617 56.8241 82.845 57.4481 82.837ZM67.2338 83.509H66.3578V80.041C66.3578 79.489 66.2178 79.049 65.9378 78.721C65.6578 78.393 65.2498 78.229 64.7138 78.229C64.1938 78.229 63.7658 78.409 63.4298 78.769C63.1018 79.137 62.9378 79.585 62.9378 80.113V83.509H62.0618V77.545H62.9138V78.637C63.3938 77.837 64.0818 77.437 64.9778 77.437C65.6818 77.437 66.2378 77.653 66.6458 78.085C67.0378 78.541 67.2338 79.121 67.2338 79.825V83.509ZM22.959 92.513V92.225C22.959 91.073 23.239 90.025 23.799 89.081C24.351 88.129 25.131 87.365 26.139 86.789L26.499 87.353C24.731 88.489 23.847 90.117 23.847 92.237V92.501C23.847 94.605 24.731 96.229 26.499 97.373L26.139 97.961C25.131 97.377 24.351 96.609 23.799 95.657C23.239 94.713 22.959 93.665 22.959 92.513ZM34.4564 96.509L33.4964 94.277H28.7324L27.7724 96.509H26.8364L30.6044 87.761H31.6484L35.4284 96.509H34.4564ZM33.1484 93.437L31.1084 88.709L29.0804 93.437H33.1484ZM44.4846 87.761H45.8046V96.509H44.8926V89.009L41.6406 96.509H40.8126L37.5846 89.069V96.509H36.6726V87.761H37.9806L41.2446 95.261L44.4846 87.761ZM53.747 95.669V96.509H47.435V95.669L52.643 88.601H47.615V87.761H53.723V88.601L48.491 95.669H53.747ZM61.6506 87.761H62.5506V96.509H61.5546L56.3346 89.069V96.509H55.4226V87.761H56.4906L61.6506 95.117V87.761ZM67.6131 92.225V92.513C67.6131 93.673 67.3371 94.725 66.7851 95.669C66.2251 96.613 65.4411 97.377 64.4331 97.961L64.0731 97.373C65.8411 96.229 66.7251 94.605 66.7251 92.501V92.237C66.7251 90.117 65.8411 88.489 64.0731 87.353L64.4331 86.789C65.4411 87.357 66.2251 88.117 66.7851 89.069C67.3371 90.021 67.6131 91.073 67.6131 92.225Z" fill="white"/>
</g>
<defs>
<filter id="filter0_d_183_2989" x="3.68604" y="28.4716" width="30.1289" height="34.7572" filterUnits="userSpaceOnUse" color-interpolation-filters="sRGB">
<feFlood flood-opacity="0" result="BackgroundImageFix"/>
<feColorMatrix in="SourceAlpha" type="matrix" values="0 0 0 0 0 0 0 0 0 0 0 0 0 0 0 0 0 0 127 0" result="hardAlpha"/>
<feOffset dy="4"/>
<feGaussianBlur stdDeviation="2"/>
<feComposite in2="hardAlpha" operator="out"/>
<feColorMatrix type="matrix" values="0 0 0 0 0 0 0 0 0 0 0 0 0 0 0 0 0 0 0.25 0"/>
<feBlend mode="normal" in2="BackgroundImageFix" result="effect1_dropShadow_183_2989"/>
<feBlend mode="normal" in="SourceGraphic" in2="effect1_dropShadow_183_2989" result="shape"/>
</filter>
<filter id="filter1_d_183_2989" x="3.68652" y="28.7593" width="23.3093" height="34.4695" filterUnits="userSpaceOnUse" color-interpolation-filters="sRGB">
<feFlood flood-opacity="0" result="BackgroundImageFix"/>
<feColorMatrix in="SourceAlpha" type="matrix" values="0 0 0 0 0 0 0 0 0 0 0 0 0 0 0 0 0 0 127 0" result="hardAlpha"/>
<feOffset dy="4"/>
<feGaussianBlur stdDeviation="2"/>
<feComposite in2="hardAlpha" operator="out"/>
<feColorMatrix type="matrix" values="0 0 0 0 0 0 0 0 0 0 0 0 0 0 0 0 0 0 0.25 0"/>
<feBlend mode="normal" in2="BackgroundImageFix" result="effect1_dropShadow_183_2989"/>
<feBlend mode="normal" in="SourceGraphic" in2="effect1_dropShadow_183_2989" result="shape"/>
</filter>
<filter id="filter2_d_183_2989" x="22.7786" y="-4.98096" width="47.8535" height="49.0422" filterUnits="userSpaceOnUse" color-interpolation-filters="sRGB">
<feFlood flood-opacity="0" result="BackgroundImageFix"/>
<feColorMatrix in="SourceAlpha" type="matrix" values="0 0 0 0 0 0 0 0 0 0 0 0 0 0 0 0 0 0 127 0" result="hardAlpha"/>
<feOffset dy="4"/>
<feGaussianBlur stdDeviation="5"/>
<feComposite in2="hardAlpha" operator="out"/>
<feColorMatrix type="matrix" values="0 0 0 0 0 0 0 0 0 0 0 0 0 0 0 0 0 0 0.5 0"/>
<feBlend mode="normal" in2="BackgroundImageFix" result="effect1_dropShadow_183_2989"/>
<feBlend mode="normal" in="SourceGraphic" in2="effect1_dropShadow_183_2989" result="shape"/>
</filter>
<filter id="filter3_d_183_2989" x="49.4431" y="-2.60327" width="46.6646" height="67.7244" filterUnits="userSpaceOnUse" color-interpolation-filters="sRGB">
<feFlood flood-opacity="0" result="BackgroundImageFix"/>
<feColorMatrix in="SourceAlpha" type="matrix" values="0 0 0 0 0 0 0 0 0 0 0 0 0 0 0 0 0 0 127 0" result="hardAlpha"/>
<feOffset dy="4"/>
<feGaussianBlur stdDeviation="5"/>
<feComposite in2="hardAlpha" operator="out"/>
<feColorMatrix type="matrix" values="0 0 0 0 0 0 0 0 0 0 0 0 0 0 0 0 0 0 0.5 0"/>
<feBlend mode="normal" in2="BackgroundImageFix" result="effect1_dropShadow_183_2989"/>
<feBlend mode="normal" in="SourceGraphic" in2="effect1_dropShadow_183_2989" result="shape"/>
</filter>
<filter id="filter4_d_183_2989" x="20.4653" y="74.761" width="49.1477" height="27.2" filterUnits="userSpaceOnUse" color-interpolation-filters="sRGB">
<feFlood flood-opacity="0" result="BackgroundImageFix"/>
<feColorMatrix in="SourceAlpha" type="matrix" values="0 0 0 0 0 0 0 0 0 0 0 0 0 0 0 0 0 0 127 0" result="hardAlpha"/>
<feOffset dy="2"/>
<feGaussianBlur stdDeviation="1"/>
<feComposite in2="hardAlpha" operator="out"/>
<feColorMatrix type="matrix" values="0 0 0 0 0 0 0 0 0 0 0 0 0 0 0 0 0 0 0.5 0"/>
<feBlend mode="normal" in2="BackgroundImageFix" result="effect1_dropShadow_183_2989"/>
<feBlend mode="normal" in="SourceGraphic" in2="effect1_dropShadow_183_2989" result="shape"/>
</filter>
<clipPath id="clip0_183_2989">
<rect width="30.5708" height="31.8649" fill="white" transform="translate(31.9294)"/>
</clipPath>
<clipPath id="clip1_183_2989">
<rect width="28.8843" height="51.8684" fill="white" transform="translate(59.613)"/>
</clipPath>
</defs>
</svg>
