<svg width="90" height="103" viewBox="0 0 90 103" fill="none" xmlns="http://www.w3.org/2000/svg">
<rect x="21.5801" y="24.1279" width="45.9342" height="45.9342" rx="22.9671" fill="#F5EBDC"/>
<rect x="21.5801" y="24.1279" width="45.9342" height="45.9342" rx="22.9671" stroke="#CDCCCC"/>
<g clip-path="url(#clip0_462_740)">
<path d="M44.9999 63.1492C38.8222 63.1492 35.4051 62.6401 33.1805 61.3806C31.5454 60.4559 30.5271 59.0627 30.5271 57.7494V40.3171C30.5271 38.3606 31.9608 36.123 34.2526 34.4881C36.1558 33.1347 39.5726 31.527 44.9999 31.527C54.4476 31.527 59.4731 36.6321 59.4731 40.3171V57.7355C59.4731 59.0621 58.4545 60.4556 56.8061 61.3802C54.5951 62.6401 51.178 63.1492 44.9999 63.1492Z" fill="#F5EBDC"/>
<path d="M56.0455 60.0037C53.8901 61.2202 50.1923 61.5681 45.0773 61.5681C39.9624 61.5681 36.2645 61.2202 34.1095 60.0037C32.8155 59.2752 32.1609 58.2819 32.1609 57.5697C32.1609 57.1644 32.3766 56.9322 32.8569 56.9322H57.2973C57.778 56.9322 57.9937 57.1643 57.9937 57.5697C57.994 58.2819 57.339 59.2751 56.0457 60.0037H56.0455ZM57.2974 41.1294H32.8569C32.3763 41.1294 32.1609 40.8812 32.1609 40.4344C32.1609 37.7851 36.1485 33.1081 45.0773 33.1081C53.9237 33.1081 57.994 37.7851 57.994 40.4344C57.994 40.8812 57.7784 41.1294 57.2974 41.1294Z" fill="#FF8732"/>
<path d="M37.3668 52.0568C37.2922 51.941 37.2843 51.8664 37.2843 51.8335C37.2843 51.7424 37.334 51.6764 37.4333 51.5853C37.6654 51.3696 38.2378 50.8317 38.5527 50.3434C38.793 49.971 38.8923 49.6316 38.8923 49.3505C38.8923 48.6302 38.2377 48.0669 37.5243 48.0669C37.0683 48.0669 36.6373 48.3237 36.3473 48.7955C35.9577 49.4245 35.4932 50.1531 35.195 50.443C35.1204 50.5177 35.079 50.5342 35.0211 50.5342C34.9215 50.5342 34.8801 50.4678 34.8801 50.3603V49.5327C34.8801 48.7215 34.3994 48.0673 33.5288 48.0673C32.65 48.0673 32.1772 48.7212 32.1772 49.5327V54.6321C32.1772 55.4432 32.6497 56.0978 33.5288 56.0978C34.3994 56.0978 34.8801 55.4438 34.8801 54.6321V53.457C34.8801 53.3574 34.9215 53.2831 35.0211 53.2831C35.1539 53.2831 35.1871 53.4157 35.2203 53.4818C35.411 53.9371 35.9659 54.9054 36.4804 55.4768C36.8285 55.8576 37.2596 56.0979 37.7156 56.0979C38.4866 56.0979 39.1336 55.4272 39.1336 54.7068C39.1336 54.2599 38.9426 53.9288 38.578 53.5317C38.1135 53.0257 37.5661 52.3633 37.3668 52.0571V52.0568ZM47.7057 47.5949C49.0072 47.5949 49.8281 46.767 49.8281 45.5584C49.8281 44.7887 49.3633 44.2587 48.4352 44.2587H48.1702C47.6807 44.2587 47.2993 44.4909 47.2993 45.0123C47.2993 45.4759 47.7057 45.6994 48.0124 45.6994C48.1699 45.6994 48.2698 45.7491 48.2698 45.8652C48.2698 46.0138 48.0959 46.1134 47.8966 46.1134C47.2746 46.1134 46.8519 45.6744 46.8519 44.8548C46.8519 43.9444 47.4325 43.6137 47.88 43.6137C48.427 43.6137 48.5183 43.8951 48.8998 43.8951C49.3393 43.8951 49.6378 43.5308 49.6378 43.1501C49.6378 42.8686 49.5132 42.6536 49.3226 42.5043C48.9744 42.2476 48.4855 42.0575 47.756 42.0575C46.4705 42.0575 45.2189 42.9018 45.2189 44.8555C45.2183 46.7256 46.4703 47.5949 47.7057 47.5949ZM33.1304 47.5452H34.2998C35.4025 47.5452 36.0738 46.8085 36.0738 45.8895C36.0738 45.1527 35.6343 44.8134 35.535 44.7305C35.4939 44.6973 35.4524 44.6645 35.4524 44.6313C35.4524 44.5901 35.4771 44.5734 35.5188 44.5237C35.676 44.3416 35.8335 44.0519 35.8335 43.6295C35.8335 42.6365 35.1619 42.1062 34.1174 42.1062H33.1307C32.4758 42.1062 32.1609 42.4876 32.1609 43.0005V46.651C32.1609 47.1645 32.4758 47.5452 33.1304 47.5452ZM33.6199 43.5305C33.6199 43.423 33.6864 43.3398 33.8271 43.3398H33.9349C34.2913 43.3398 34.3994 43.588 34.3994 43.8037C34.3994 44.0023 34.2919 44.2837 33.9349 44.2837H33.8274C33.6863 44.2837 33.6199 44.2012 33.6199 44.0934L33.6199 43.5305ZM33.6199 45.4677C33.6199 45.3601 33.6864 45.277 33.8271 45.277H33.9764C34.3745 45.277 34.4902 45.5417 34.4902 45.782C34.4902 45.9976 34.3742 46.3037 33.9764 46.3037H33.8274C33.6864 46.3037 33.6199 46.2209 33.6199 46.1131V45.4677ZM54.7774 47.5863C55.3079 47.5863 55.598 47.1889 55.598 46.6924V45.8149C55.598 45.7073 55.6479 45.6577 55.7308 45.6577C55.8301 45.6577 55.863 45.7156 55.8794 45.8149C55.9544 46.237 56.1532 46.8081 56.3768 47.0981C56.6589 47.4709 56.9239 47.587 57.1895 47.587C57.6202 47.587 57.9937 47.2474 57.9937 46.8249C57.9937 46.5434 57.8777 46.3363 57.7284 46.1463C57.4463 45.7905 57.2725 45.5588 57.165 45.2691C57.1399 45.2027 57.1564 45.1445 57.2314 45.0869C57.4884 44.8883 57.787 44.4494 57.787 43.7543C57.787 42.7029 56.9161 42.1068 55.8631 42.1068H54.9266C54.2717 42.1068 53.9568 42.4872 53.9568 43.0008V46.693C53.9568 47.1894 54.2468 47.5863 54.7777 47.5863L54.7774 47.5863ZM55.5069 43.6715C55.5069 43.564 55.5733 43.4805 55.7141 43.4805H55.8301C56.1786 43.4805 56.2861 43.7291 56.2861 43.9444C56.2861 44.1515 56.1786 44.4244 55.8301 44.4244H55.7141C55.573 44.4244 55.5069 44.3422 55.5069 44.2341V43.6712V43.6715ZM41.1476 48.0667C40.2192 48.0667 39.7132 48.7617 39.7132 49.631V54.5322C39.7132 55.4018 40.2192 56.0968 41.1476 56.0968C42.076 56.0968 42.5817 55.4015 42.5817 54.5322V49.631C42.5817 48.7623 42.0763 48.0667 41.1476 48.0667ZM55.8879 51.2539H55.4819C54.7524 51.2539 54.1886 51.5932 54.1886 52.3379C54.1886 53.0168 54.8021 53.3397 55.258 53.3397C55.4819 53.3397 55.6393 53.4061 55.6393 53.5797C55.6393 53.7947 55.374 53.9354 55.0923 53.9354C54.1553 53.9354 53.5169 53.2979 53.5169 52.114C53.5169 50.7979 54.3875 50.3179 55.0588 50.3179C55.8797 50.3179 56.0122 50.7321 56.5842 50.7321C57.2472 50.7321 57.695 50.1939 57.695 49.6475C57.695 49.2421 57.5126 48.9273 57.2226 48.7121C56.7166 48.3393 55.9543 48.0659 54.8762 48.0659C52.9447 48.0659 51.0626 49.2828 51.0626 52.114C51.0626 54.8208 52.9441 56.0876 54.8016 56.0876C56.7495 56.0876 57.9849 54.8873 57.9849 53.1322C57.9854 52.0236 57.2894 51.2539 55.8879 51.2539ZM52.7542 47.5452C53.219 47.5452 53.5836 47.272 53.5836 46.7753C53.5836 46.2867 53.2187 46.0135 52.7545 46.0135H52.0083C51.8676 46.0135 51.8011 45.931 51.8011 45.8231V45.6657C51.8011 45.5582 51.8676 45.4753 52.0086 45.4753H52.5806C52.9788 45.4753 53.2938 45.2353 53.2938 44.8128C53.2938 44.391 52.9788 44.1506 52.5806 44.1506H52.0084C51.8676 44.1506 51.8012 44.0678 51.8012 43.96V43.8275C51.8012 43.72 51.8676 43.6371 52.0087 43.6371H52.7546C53.2189 43.6371 53.5837 43.3639 53.5837 42.8674C53.5837 42.3785 53.2188 42.1053 52.7546 42.1053H51.1878C50.5333 42.1053 50.2179 42.4861 50.2179 42.9996V46.6501C50.2179 47.1633 50.5329 47.5443 51.1878 47.5443H52.7546V47.5453H52.7542M38.5113 47.5863C39.8542 47.5863 40.5673 46.7831 40.5673 45.7738V42.9837C40.5673 42.4873 40.2773 42.0895 39.7465 42.0895C39.2158 42.0895 38.9259 42.4873 38.9259 42.9837V45.6824C38.9259 45.8806 38.8098 46.1124 38.5113 46.1124C38.2128 46.1124 38.1129 45.8806 38.1129 45.6824V42.9837C38.1129 42.4873 37.8147 42.0895 37.2838 42.0895C36.7532 42.0895 36.4632 42.4873 36.4632 42.9837V45.7734C36.4636 46.7835 37.1684 47.5861 38.5114 47.5861L38.5113 47.5863ZM44.3313 47.5863C44.7624 47.5863 45.1358 47.247 45.1358 46.8246C45.1358 46.5431 45.0198 46.336 44.8705 46.146C44.6302 45.8313 44.4145 45.5581 44.307 45.2688C44.282 45.2023 44.2985 45.1442 44.3735 45.0863C44.6306 44.888 44.9291 44.4491 44.9291 43.7537C44.9291 42.7023 44.0582 42.1062 43.0052 42.1062H42.0679C41.4133 42.1062 41.0981 42.487 41.0981 43.0005V46.6927C41.0981 47.1892 41.3884 47.587 41.919 47.587C42.4496 47.587 42.7399 47.1892 42.7399 46.6927V45.8155C42.7399 45.708 42.7895 45.658 42.8724 45.658C42.972 45.658 43.0049 45.7159 43.0213 45.8155C43.096 46.2373 43.2948 46.8084 43.5187 47.0987C43.8007 47.4706 44.0657 47.5863 44.3313 47.5863ZM42.9716 44.4241H42.8552C42.7142 44.4241 42.6481 44.3416 42.6481 44.2338V43.6712C42.6481 43.5637 42.7145 43.4805 42.8552 43.4805H42.9712C43.3197 43.4805 43.4272 43.7291 43.4272 43.9444C43.4272 44.1509 43.3197 44.4241 42.9712 44.4241H42.9716ZM49.098 48.0667C48.2443 48.0667 47.78 48.7039 47.78 49.5071V51.295C47.78 51.4436 47.7301 51.5103 47.639 51.5103C47.5726 51.5103 47.5229 51.4692 47.4651 51.3532L46.3128 49.1184C45.8732 48.2656 45.4172 48.0671 44.8951 48.0671C44.0246 48.0671 43.5436 48.7207 43.5436 49.5406V54.6568C43.5436 55.4599 44.0078 56.0972 44.8616 56.0972C45.7157 56.0972 46.1796 55.4597 46.1796 54.6568V52.8688C46.1796 52.7203 46.2296 52.6532 46.3207 52.6532C46.3871 52.6532 46.4371 52.6946 46.4946 52.8106L47.6469 55.0457C48.0864 55.8985 48.5589 56.0971 49.0648 56.0971C49.9354 56.0971 50.4164 55.4431 50.4164 54.6235V49.5074C50.4164 48.7042 49.9521 48.067 49.098 48.067V48.0667Z" fill="#D62300"/>
</g>
<g clip-path="url(#clip1_462_740)">
<g filter="url(#filter0_d_462_740)">
<path d="M66.9175 55.4019L66.3039 54.6173C62.9388 50.2982 58.7522 44.9249 60.4698 37.7246L62.1064 30.8641L63.317 31.1529C67.6883 32.1957 71.4399 31.0736 72.0436 28.5428L74.4649 29.1204C73.8612 31.6512 76.7023 34.3459 81.0736 35.3887L82.2843 35.6775L80.6478 42.5379C78.9302 49.7382 72.7688 52.6431 67.8183 54.9773L66.9175 55.4019Z" fill="#7AB9E8"/>
</g>
<g filter="url(#filter1_d_462_740)">
<path d="M81.0738 35.3887C76.7025 34.3459 73.8614 31.6512 74.4651 29.1205L73.2544 28.8316L66.9166 55.4004L66.9178 55.4019L67.8185 54.9773C72.769 52.6431 78.9303 49.7383 80.6479 42.538L82.2845 35.6775L81.0738 35.3887Z" fill="#579ADF"/>
</g>
</g>
<g clip-path="url(#clip2_462_740)">
<g filter="url(#filter2_d_462_740)">
<path fill-rule="evenodd" clip-rule="evenodd" d="M35.1478 22.6743C34.8374 23.9347 34.5283 25.194 34.2206 26.4523C37.0556 28.0747 40.6351 28.9807 45.1316 28.9822V23.7791L35.1478 22.6743Z" fill="#535353"/>
<path fill-rule="evenodd" clip-rule="evenodd" d="M55.1071 22.6743C55.4216 23.9347 55.7334 25.194 56.0425 26.4523C53.2014 28.0747 49.6301 28.9807 45.1315 28.9822V23.7791L55.1071 22.6743Z" fill="#676767"/>
<path fill-rule="evenodd" clip-rule="evenodd" d="M47.3632 9.11041C53.8403 3.38228 41.5928 3.92507 38.1412 1.0229C37.8976 1.26525 37.7531 1.55661 37.7258 1.86078C37.6985 2.16496 37.7895 2.46851 37.9876 2.73372C36.4554 3.68556 33.7617 2.38689 32.3011 4.21125C33.9563 4.1397 34.9641 4.63584 35.5786 5.29995C31.0393 4.77426 32.8153 7.97349 28.9356 8.15391C31.8259 9.37792 38.6144 7.02788 42.8116 9.88806C44.7064 9.83518 45.4684 9.16796 47.3632 9.11041Z" fill="#1B2241"/>
<path fill-rule="evenodd" clip-rule="evenodd" d="M28.9377 8.10101C31.7988 9.36518 38.5376 6.9564 42.7041 9.88806C43.4794 9.85511 44.2422 9.72095 44.9612 9.49112C39.5116 4.67834 34.6761 8.9507 28.9357 8.10101H28.9377Z" fill="#1A1A1A"/>
<path fill-rule="evenodd" clip-rule="evenodd" d="M46.985 8.62381C46.237 8.68208 45.5034 8.81653 44.8045 9.02339L44.7552 9.03564C44.9993 8.76312 45.2393 8.49061 45.4751 8.2181C47.6185 6.39472 43.1075 4.2376 40.3717 3.79515C39.3864 4.43203 37.8683 4.13043 37.0908 4.57747C37.7613 5.11943 38.1769 6.05638 38.8495 6.59834C31.1686 5.82061 34.6676 7.67002 30.9814 8.02826C31.2295 7.9028 31.4549 7.75409 31.652 7.58581C32.8862 6.5371 32.7032 5.39194 35.3937 5.69814L36.8912 5.86807C36.6266 5.59454 36.3598 5.32152 36.0911 5.04901C35.4845 4.41603 34.5715 3.98298 33.5445 3.84108C33.7853 3.73624 34.0504 3.66612 34.3261 3.6344C34.589 3.60479 34.8543 3.58893 35.1201 3.58694C36.3173 3.5655 37.459 3.63593 38.4114 3.06335L38.7652 2.84748C38.6952 2.75256 38.6232 2.65917 38.5595 2.56578C38.4003 2.35618 38.3333 2.1147 38.3682 1.87532C39.6024 2.57191 41.3097 3.04038 42.7722 3.42925C43.9303 3.73544 45.146 4.04163 46.2445 4.42284C47.02 4.69536 47.8901 5.0735 48.3015 5.59097C49.0482 6.55548 47.8942 7.80934 46.985 8.62381Z" fill="#4386BB"/>
<path fill-rule="evenodd" clip-rule="evenodd" d="M45.9063 8.75059C45.517 8.82679 45.1332 8.91781 44.7563 9.02331L44.7071 9.03563C44.9504 8.76138 45.1895 8.48712 45.4246 8.21286C47.5604 6.37781 43.0652 4.20687 40.339 3.76159C39.3571 4.40255 37.8444 4.09902 37.0695 4.54892C37.7378 5.09435 38.1518 6.0373 38.8221 6.58273C31.1681 5.80003 34.6549 7.66127 30.9816 8.02181C32.8941 7.6474 32.8592 6.29461 33.9456 5.96951C35.032 5.64441 36.4669 6.39322 37.5615 6.06812C37.4467 5.44103 36.9281 4.93103 36.1738 4.15295C37.2212 3.67685 39.8634 4.1021 39.3141 2.72774C41.6652 4.67681 49.2392 3.86945 46.3654 8.58265L45.9063 8.75059Z" fill="#283A84"/>
<path d="M45.217 12.7863C43.2868 12.7863 41.7221 11.7558 41.7221 10.4847C41.7221 9.21364 43.2868 8.18321 45.217 8.18321C47.1472 8.18321 48.7119 9.21364 48.7119 10.4847C48.7119 11.7558 47.1472 12.7863 45.217 12.7863Z" fill="#CDCCCC"/>
<path fill-rule="evenodd" clip-rule="evenodd" d="M45.2015 10.57C40.8199 10.57 37.076 12.3072 35.5784 14.7577C34.7741 15.0159 34.2207 15.5479 34.2207 16.1566C34.2248 16.359 34.2859 16.5585 34.4 16.7421C34.5141 16.9256 34.6787 17.0892 34.8831 17.222C34.9572 20.8055 39.5486 23.6972 45.2015 23.6972C50.8544 23.6972 55.4294 20.8117 55.5158 17.2374C55.7293 17.1041 55.9021 16.938 56.0224 16.7505C56.1427 16.563 56.2078 16.3584 56.2131 16.1505C56.2131 15.5356 55.6413 14.9929 54.8184 14.7392C53.3147 12.2949 49.5769 10.57 45.2015 10.57Z" fill="#8B8A8A"/>
<path fill-rule="evenodd" clip-rule="evenodd" d="M46.8366 20.2876C42.984 20.2876 39.8468 18.3005 39.8468 15.855C39.8468 13.4094 42.9901 11.4224 46.8366 11.4224C50.683 11.4224 53.8264 13.4094 53.8264 15.855C53.8264 18.3005 50.6913 20.2876 46.8366 20.2876Z" fill="#989898"/>
<path fill-rule="evenodd" clip-rule="evenodd" d="M48.9676 15.3435C47.5112 15.3435 46.3251 14.5771 46.3251 13.6387C46.3251 12.7002 47.5112 11.9339 48.9676 11.9339C50.424 11.9339 51.6101 12.6987 51.6101 13.6387C51.6101 14.5787 50.4116 15.3435 48.9676 15.3435Z" fill="#ACACAC"/>
<path fill-rule="evenodd" clip-rule="evenodd" d="M45.1316 14.3207H45.2317C46.6254 14.3154 48.0088 14.5037 49.314 14.8764L56.895 17.0291V23.4436C53.5781 26.3792 49.71 28.6782 45.1316 30.1756V14.3207Z" fill="#CDCCCC"/>
<path fill-rule="evenodd" clip-rule="evenodd" d="M46.8365 15.3435C47.4405 15.42 48.0332 15.5429 48.6059 15.7105L50.0592 16.129V26.864C49.0336 27.4553 47.9575 27.9921 46.8385 28.4708V15.3435H46.8365ZM50.7416 16.3257L53.0021 16.9768V24.9403C52.2875 25.4665 51.5347 25.9756 50.7416 26.4596V16.3257ZM53.6825 17.172L55.1902 17.6061V23.1743C54.7071 23.599 54.2045 24.0154 53.6825 24.4235V17.172Z" fill="#333333"/>
<path fill-rule="evenodd" clip-rule="evenodd" d="M45.1316 14.3207H45.0316C43.6412 14.3163 42.2614 14.5046 40.9594 14.8764L33.3682 17.0275V23.442C36.6872 26.3792 40.5552 28.6782 45.1316 30.1756V14.3207Z" fill="#B4B4B4"/>
<path fill-rule="evenodd" clip-rule="evenodd" d="M43.4268 15.3435C42.8103 15.4202 42.2054 15.5431 41.6208 15.7105L40.1375 16.129V26.864C41.1846 27.455 42.2828 27.9918 43.4247 28.4708V15.3435H43.4268ZM39.441 16.3257L37.1358 16.9768V24.9403C37.8631 25.4665 38.6315 25.9756 39.441 26.4596V16.3257ZM36.4394 17.172L34.9026 17.6061V23.1743C35.3943 23.599 35.9065 24.0154 36.4394 24.4235V17.172Z" fill="#1A1A1A"/>
<path fill-rule="evenodd" clip-rule="evenodd" d="M46.0987 8.69467C45.4444 8.69467 45.1306 9.0007 45.3969 9.37661C45.5655 9.57737 45.8074 9.74548 46.0994 9.86488C46.3915 9.98427 46.7238 10.051 47.0648 10.0585C47.7171 10.0585 48.0308 9.75391 47.7645 9.37661C47.5958 9.17622 47.3542 9.00838 47.0626 8.88902C46.7711 8.76966 46.4393 8.70276 46.0987 8.69467Z" fill="#E3E3E3"/>
</g>
</g>
<g clip-path="url(#clip3_462_740)">
<g filter="url(#filter3_d_462_740)">
<path fill-rule="evenodd" clip-rule="evenodd" d="M29.5728 47.4634L29.4363 47.534C29.2815 47.6171 29.1093 47.6624 28.9337 47.6662C28.758 47.67 28.584 47.6323 28.4257 47.556C28.2654 47.4845 28.1241 47.3762 28.0134 47.2399C27.9027 47.1035 27.8257 46.9431 27.7886 46.7714C27.4748 45.4 26.8471 43.7242 25.9542 41.9935C25.0614 40.2627 24.0587 38.7815 23.1297 37.7317C23.0133 37.601 22.9284 37.4453 22.8813 37.2766C22.8343 37.108 22.8265 36.9308 22.8584 36.7587C22.8904 36.5865 22.9613 36.4239 23.0657 36.2834C23.1701 36.1428 23.3052 36.028 23.4608 35.9477L23.5989 35.8771L23.0308 34.7787L20.3632 36.1532L17.6956 37.5262L18.2636 38.6246L18.4001 38.554C18.5564 38.4722 18.7294 38.4275 18.9057 38.4234C19.0821 38.4192 19.257 38.4558 19.4169 38.5301C19.5769 38.6045 19.7175 38.7146 19.828 38.8521C19.9385 38.9896 20.0159 39.1507 20.0541 39.3228C20.3679 40.6927 20.9956 42.3701 21.8885 44.0992C22.7813 45.8284 23.784 47.3112 24.713 48.3609C24.8294 48.4919 24.9144 48.6477 24.9614 48.8165C25.0084 48.9852 25.0162 49.1625 24.9843 49.3348C24.9523 49.507 24.8815 49.6697 24.7771 49.8104C24.6727 49.9511 24.5375 50.0661 24.3819 50.1466L24.2438 50.2172L24.8119 51.3156L27.4795 49.9426L30.1409 48.5634L29.5728 47.4634Z" fill="#4592CF"/>
<path fill-rule="evenodd" clip-rule="evenodd" d="M22.7824 38.3794C22.3424 38.609 22.9534 40.6955 24.149 43.0368C25.3446 45.3781 26.6708 47.092 27.103 46.8624C27.5353 46.6328 26.932 44.5463 25.7364 42.205C24.5408 39.8638 23.2224 38.1499 22.7824 38.3794Z" fill="#283A84"/>
<path fill-rule="evenodd" clip-rule="evenodd" d="M3.37482 3.40967L4.80457 11.4889L18.142 37.3359L22.469 35.1028L9.13151 9.25577L3.37482 3.40967Z" fill="#D1D2D2"/>
<path fill-rule="evenodd" clip-rule="evenodd" d="M7.69091 7.77382L5.4201 6.295L6.21859 11.1149L18.207 37.3359L4.81097 11.4889L3.37495 3.40967L7.69091 7.77382Z" fill="#E6E6E5"/>
<path fill-rule="evenodd" clip-rule="evenodd" d="M7.12556 10.7405L13.4273 23.6112L19.7307 36.4835L20.4188 36.1334L21.1052 35.7833L14.1154 23.2627L7.12556 10.7405Z" fill="#818181"/>
<path fill-rule="evenodd" clip-rule="evenodd" d="M23.7872 33.5505L16.1586 37.509C15.7664 37.2251 15.2905 37.0823 14.8077 37.1037C14.3249 37.1251 13.8633 37.3093 13.4973 37.6268C13.1314 37.9443 12.8825 38.3764 12.7906 38.8536C12.6988 39.3308 12.7694 39.8251 12.9912 40.257C13.2129 40.6888 13.5728 41.033 14.0128 41.2339C14.4529 41.4349 14.9474 41.481 15.4166 41.3648C15.8859 41.2485 16.3025 40.9767 16.5994 40.5932C16.8963 40.2097 17.056 39.7368 17.053 39.2508L24.6815 35.2923C25.0742 35.577 25.5508 35.7203 26.0345 35.6992C26.5182 35.6781 26.9807 35.4937 27.3474 35.1758C27.7141 34.8579 27.9636 34.4251 28.0557 33.9471C28.1477 33.4691 28.077 32.9739 27.8549 32.5413C27.6328 32.1087 27.2722 31.764 26.8314 31.5627C26.3905 31.3615 25.8951 31.3154 25.4251 31.432C24.9551 31.5487 24.5378 31.8211 24.2406 32.2055C23.9435 32.5898 23.7837 33.0636 23.7872 33.5505Z" fill="#333333"/>
</g>
</g>
<g filter="url(#filter4_d_462_740)">
<path d="M19.0033 84H15.7393V75.252H18.8833C19.6993 75.236 20.3713 75.428 20.8993 75.828C21.4353 76.22 21.7033 76.76 21.7033 77.448C21.7033 77.68 21.6633 77.92 21.5833 78.168C21.5353 78.32 21.4633 78.472 21.3673 78.624C21.1433 78.976 20.8113 79.252 20.3713 79.452C20.9873 79.612 21.4393 79.928 21.7273 80.4C21.9673 80.8 22.0873 81.2 22.0873 81.6C22.0873 82.416 21.7793 83.028 21.1633 83.436C20.5793 83.812 19.8593 84 19.0033 84ZM18.8113 76.092H16.6513V79.14H18.7393C19.4273 79.14 19.9353 78.992 20.2633 78.696C20.5993 78.4 20.7673 78.02 20.7673 77.556C20.7673 77.06 20.5793 76.692 20.2033 76.452C19.8273 76.212 19.3633 76.092 18.8113 76.092ZM18.8473 79.956H16.6513V83.16H19.0273C19.5953 83.16 20.0913 83.032 20.5153 82.776C20.9393 82.512 21.1513 82.1 21.1513 81.54C21.1513 80.868 20.7993 80.408 20.0953 80.16C19.7433 80.024 19.3273 79.956 18.8473 79.956ZM23.619 78.036H24.483V81.504C24.483 82.064 24.627 82.504 24.915 82.824C25.187 83.152 25.595 83.316 26.139 83.316C26.651 83.316 27.075 83.136 27.411 82.776C27.747 82.416 27.915 81.968 27.915 81.432V78.036H28.779V84H27.927V82.908C27.447 83.716 26.763 84.12 25.875 84.12C25.179 84.12 24.623 83.9 24.207 83.46C23.815 83.02 23.619 82.44 23.619 81.72V78.036ZM30.7457 78.036H31.5977V79.212C31.8777 78.644 32.2857 78.26 32.8217 78.06C33.0377 77.98 33.2737 77.94 33.5297 77.94C33.6817 77.94 33.7777 77.948 33.8177 77.964V78.888C33.7537 78.872 33.6417 78.864 33.4817 78.864C32.8337 78.864 32.3617 79.08 32.0657 79.512C31.7697 79.944 31.6217 80.468 31.6217 81.084V84H30.7457V78.036ZM39.2109 83.916V82.668C38.6749 83.572 37.9069 84.024 36.9069 84.024C36.3629 84.024 35.8709 83.884 35.4309 83.604C35.0069 83.332 34.6789 82.964 34.4469 82.5C34.2229 82.044 34.1109 81.54 34.1109 80.988C34.1109 80.452 34.2229 79.956 34.4469 79.5C34.6789 79.036 35.0109 78.66 35.4429 78.372C35.8669 78.076 36.3549 77.928 36.9069 77.928C37.4509 77.928 37.9269 78.068 38.3349 78.348C38.6549 78.572 38.9509 78.884 39.2229 79.284V78.036H40.0869V83.856C40.0869 84.872 39.8069 85.648 39.2469 86.184C38.6709 86.72 37.9149 86.988 36.9789 86.988C36.2429 86.988 35.6109 86.792 35.0829 86.4C34.5549 85.992 34.2389 85.504 34.1349 84.936L34.9269 84.672C35.0229 85.064 35.2349 85.42 35.5629 85.74C35.8989 86.06 36.3669 86.22 36.9669 86.22C37.6069 86.22 38.1309 86.044 38.5389 85.692C38.9869 85.324 39.2109 84.732 39.2109 83.916ZM37.0869 83.256C37.7029 83.256 38.2109 83.032 38.6109 82.584C39.0189 82.136 39.2229 81.6 39.2229 80.976C39.2389 80.384 39.0349 79.856 38.6109 79.392C38.1869 78.928 37.6789 78.7 37.0869 78.708C36.4389 78.708 35.9309 78.924 35.5629 79.356C35.1869 79.78 34.9989 80.328 34.9989 81C34.9829 81.632 35.1709 82.168 35.5629 82.608C35.9549 83.048 36.4629 83.264 37.0869 83.256ZM47.3223 81.288H42.4983C42.5303 81.872 42.7503 82.356 43.1583 82.74C43.5583 83.132 44.0503 83.328 44.6343 83.328C45.0903 83.328 45.4783 83.22 45.7983 83.004C46.1183 82.78 46.3463 82.464 46.4823 82.056L47.2503 82.296C47.0823 82.856 46.7583 83.3 46.2783 83.628C45.7823 83.948 45.2383 84.108 44.6463 84.108C44.0863 84.108 43.5703 83.968 43.0983 83.688C42.6263 83.408 42.2663 83.032 42.0183 82.56C41.7543 82.096 41.6223 81.58 41.6223 81.012C41.6223 80.468 41.7463 79.964 41.9943 79.5C42.2263 79.028 42.5743 78.648 43.0383 78.36C43.4863 78.072 43.9823 77.928 44.5263 77.928C45.1263 77.928 45.6383 78.064 46.0623 78.336C46.4943 78.6 46.8143 78.964 47.0223 79.428C47.2303 79.868 47.3343 80.392 47.3343 81C47.3343 81.104 47.3303 81.2 47.3223 81.288ZM42.5103 80.544H46.4583C46.4023 80 46.2023 79.552 45.8583 79.2C45.5223 78.864 45.0783 78.696 44.5263 78.696C44.0223 78.696 43.5783 78.876 43.1943 79.236C42.8103 79.612 42.5823 80.048 42.5103 80.544ZM48.8395 78.036H49.6915V79.212C49.9715 78.644 50.3795 78.26 50.9155 78.06C51.1315 77.98 51.3675 77.94 51.6235 77.94C51.7755 77.94 51.8715 77.948 51.9115 77.964V78.888C51.8475 78.872 51.7355 78.864 51.5755 78.864C50.9275 78.864 50.4555 79.08 50.1595 79.512C49.8635 79.944 49.7155 80.468 49.7155 81.084V84H48.8395V78.036ZM56.6126 84H55.6886V75.252H56.6126V79.116H56.6726L60.5966 75.252H61.8686L57.5846 79.44L62.0726 84H60.7766L56.6726 79.788H56.6126V84ZM62.9952 76.368C62.8672 76.224 62.8032 76.068 62.8032 75.9C62.8032 75.732 62.8672 75.576 62.9952 75.432C63.1232 75.304 63.2792 75.24 63.4632 75.24C63.6392 75.24 63.7912 75.304 63.9192 75.432C64.0472 75.56 64.1112 75.716 64.1112 75.9C64.1112 76.084 64.0472 76.24 63.9192 76.368C63.7912 76.496 63.6392 76.56 63.4632 76.56C63.2792 76.56 63.1232 76.496 62.9952 76.368ZM63.0192 84V78.036H63.8952V84H63.0192ZM71.0388 84H70.1628V80.532C70.1628 79.98 70.0228 79.54 69.7428 79.212C69.4628 78.884 69.0548 78.72 68.5188 78.72C67.9988 78.72 67.5708 78.9 67.2348 79.26C66.9068 79.628 66.7428 80.076 66.7428 80.604V84H65.8668V78.036H66.7188V79.128C67.1988 78.328 67.8868 77.928 68.7828 77.928C69.4868 77.928 70.0428 78.144 70.4508 78.576C70.8428 79.032 71.0388 79.612 71.0388 80.316V84ZM77.6132 83.916V82.668C77.0772 83.572 76.3092 84.024 75.3092 84.024C74.7652 84.024 74.2732 83.884 73.8332 83.604C73.4092 83.332 73.0812 82.964 72.8492 82.5C72.6252 82.044 72.5132 81.54 72.5132 80.988C72.5132 80.452 72.6252 79.956 72.8492 79.5C73.0812 79.036 73.4132 78.66 73.8452 78.372C74.2692 78.076 74.7572 77.928 75.3092 77.928C75.8532 77.928 76.3292 78.068 76.7372 78.348C77.0572 78.572 77.3532 78.884 77.6252 79.284V78.036H78.4892V83.856C78.4892 84.872 78.2092 85.648 77.6492 86.184C77.0732 86.72 76.3172 86.988 75.3812 86.988C74.6452 86.988 74.0132 86.792 73.4852 86.4C72.9572 85.992 72.6412 85.504 72.5372 84.936L73.3292 84.672C73.4252 85.064 73.6372 85.42 73.9652 85.74C74.3012 86.06 74.7692 86.22 75.3692 86.22C76.0092 86.22 76.5332 86.044 76.9412 85.692C77.3892 85.324 77.6132 84.732 77.6132 83.916ZM75.4892 83.256C76.1052 83.256 76.6132 83.032 77.0132 82.584C77.4212 82.136 77.6252 81.6 77.6252 80.976C77.6412 80.384 77.4372 79.856 77.0132 79.392C76.5892 78.928 76.0812 78.7 75.4892 78.708C74.8412 78.708 74.3332 78.924 73.9652 79.356C73.5892 79.78 73.4012 80.328 73.4012 81C73.3852 81.632 73.5732 82.168 73.9652 82.608C74.3572 83.048 74.8652 83.264 75.4892 83.256ZM35.2895 93.004V92.716C35.2895 91.564 35.5695 90.516 36.1295 89.572C36.6815 88.62 37.4615 87.856 38.4695 87.28L38.8295 87.844C37.0615 88.98 36.1775 90.608 36.1775 92.728V92.992C36.1775 95.096 37.0615 96.72 38.8295 97.864L38.4695 98.452C37.4615 97.868 36.6815 97.1 36.1295 96.148C35.5695 95.204 35.2895 94.156 35.2895 93.004ZM43.6069 97H40.3429V88.252H43.4869C44.3029 88.236 44.9749 88.428 45.5029 88.828C46.0389 89.22 46.3069 89.76 46.3069 90.448C46.3069 90.68 46.2669 90.92 46.1869 91.168C46.1389 91.32 46.0669 91.472 45.9709 91.624C45.7469 91.976 45.4149 92.252 44.9749 92.452C45.5909 92.612 46.0429 92.928 46.3309 93.4C46.5709 93.8 46.6909 94.2 46.6909 94.6C46.6909 95.416 46.3829 96.028 45.7669 96.436C45.1829 96.812 44.4629 97 43.6069 97ZM43.4149 89.092H41.2549V92.14H43.3429C44.0309 92.14 44.5389 91.992 44.8669 91.696C45.2029 91.4 45.3709 91.02 45.3709 90.556C45.3709 90.06 45.1829 89.692 44.8069 89.452C44.4309 89.212 43.9669 89.092 43.4149 89.092ZM43.4509 92.956H41.2549V96.16H43.6309C44.1989 96.16 44.6949 96.032 45.1189 95.776C45.5429 95.512 45.7549 95.1 45.7549 94.54C45.7549 93.868 45.4029 93.408 44.6989 93.16C44.3469 93.024 43.9309 92.956 43.4509 92.956ZM49.4465 97H48.5225V88.252H49.4465V92.116H49.5065L53.4305 88.252H54.7025L50.4185 92.44L54.9065 97H53.6105L49.5065 92.788H49.4465V97ZM58.7091 92.716V93.004C58.7091 94.164 58.4331 95.216 57.8811 96.16C57.3211 97.104 56.5371 97.868 55.5291 98.452L55.1691 97.864C56.9371 96.72 57.8211 95.096 57.8211 92.992V92.728C57.8211 90.608 56.9371 88.98 55.1691 87.844L55.5291 87.28C56.5371 87.848 57.3211 88.608 57.8811 89.56C58.4331 90.512 58.7091 91.564 58.7091 92.716Z" fill="white"/>
</g>
<defs>
<filter id="filter0_d_462_740" x="52.0713" y="28.5428" width="30.2129" height="34.8591" filterUnits="userSpaceOnUse" color-interpolation-filters="sRGB">
<feFlood flood-opacity="0" result="BackgroundImageFix"/>
<feColorMatrix in="SourceAlpha" type="matrix" values="0 0 0 0 0 0 0 0 0 0 0 0 0 0 0 0 0 0 127 0" result="hardAlpha"/>
<feOffset dx="-4" dy="4"/>
<feGaussianBlur stdDeviation="2"/>
<feComposite in2="hardAlpha" operator="out"/>
<feColorMatrix type="matrix" values="0 0 0 0 0 0 0 0 0 0 0 0 0 0 0 0 0 0 0.25 0"/>
<feBlend mode="normal" in2="BackgroundImageFix" result="effect1_dropShadow_462_740"/>
<feBlend mode="normal" in="SourceGraphic" in2="effect1_dropShadow_462_740" result="shape"/>
</filter>
<filter id="filter1_d_462_740" x="58.9165" y="28.8316" width="23.3679" height="34.5703" filterUnits="userSpaceOnUse" color-interpolation-filters="sRGB">
<feFlood flood-opacity="0" result="BackgroundImageFix"/>
<feColorMatrix in="SourceAlpha" type="matrix" values="0 0 0 0 0 0 0 0 0 0 0 0 0 0 0 0 0 0 127 0" result="hardAlpha"/>
<feOffset dx="-4" dy="4"/>
<feGaussianBlur stdDeviation="2"/>
<feComposite in2="hardAlpha" operator="out"/>
<feColorMatrix type="matrix" values="0 0 0 0 0 0 0 0 0 0 0 0 0 0 0 0 0 0 0.25 0"/>
<feBlend mode="normal" in2="BackgroundImageFix" result="effect1_dropShadow_462_740"/>
<feBlend mode="normal" in="SourceGraphic" in2="effect1_dropShadow_462_740" result="shape"/>
</filter>
<filter id="filter2_d_462_740" x="18.9355" y="-4.9771" width="47.9595" height="49.1527" filterUnits="userSpaceOnUse" color-interpolation-filters="sRGB">
<feFlood flood-opacity="0" result="BackgroundImageFix"/>
<feColorMatrix in="SourceAlpha" type="matrix" values="0 0 0 0 0 0 0 0 0 0 0 0 0 0 0 0 0 0 127 0" result="hardAlpha"/>
<feOffset dy="4"/>
<feGaussianBlur stdDeviation="5"/>
<feComposite in2="hardAlpha" operator="out"/>
<feColorMatrix type="matrix" values="0 0 0 0 0 0 0 0 0 0 0 0 0 0 0 0 0 0 0.5 0"/>
<feBlend mode="normal" in2="BackgroundImageFix" result="effect1_dropShadow_462_740"/>
<feBlend mode="normal" in="SourceGraphic" in2="effect1_dropShadow_462_740" result="shape"/>
</filter>
<filter id="filter3_d_462_740" x="-6.62524" y="-2.59033" width="46.7661" height="67.9059" filterUnits="userSpaceOnUse" color-interpolation-filters="sRGB">
<feFlood flood-opacity="0" result="BackgroundImageFix"/>
<feColorMatrix in="SourceAlpha" type="matrix" values="0 0 0 0 0 0 0 0 0 0 0 0 0 0 0 0 0 0 127 0" result="hardAlpha"/>
<feOffset dy="4"/>
<feGaussianBlur stdDeviation="5"/>
<feComposite in2="hardAlpha" operator="out"/>
<feColorMatrix type="matrix" values="0 0 0 0 0 0 0 0 0 0 0 0 0 0 0 0 0 0 0.5 0"/>
<feBlend mode="normal" in2="BackgroundImageFix" result="effect1_dropShadow_462_740"/>
<feBlend mode="normal" in="SourceGraphic" in2="effect1_dropShadow_462_740" result="shape"/>
</filter>
<filter id="filter4_d_462_740" x="13.7393" y="75.228" width="66.75" height="27.224" filterUnits="userSpaceOnUse" color-interpolation-filters="sRGB">
<feFlood flood-opacity="0" result="BackgroundImageFix"/>
<feColorMatrix in="SourceAlpha" type="matrix" values="0 0 0 0 0 0 0 0 0 0 0 0 0 0 0 0 0 0 127 0" result="hardAlpha"/>
<feOffset dy="2"/>
<feGaussianBlur stdDeviation="1"/>
<feComposite in2="hardAlpha" operator="out"/>
<feColorMatrix type="matrix" values="0 0 0 0 0 0 0 0 0 0 0 0 0 0 0 0 0 0 0.5 0"/>
<feBlend mode="normal" in2="BackgroundImageFix" result="effect1_dropShadow_462_740"/>
<feBlend mode="normal" in="SourceGraphic" in2="effect1_dropShadow_462_740" result="shape"/>
</filter>
<clipPath id="clip0_462_740">
<rect width="30" height="32.6762" fill="white" transform="translate(30 31)"/>
</clipPath>
<clipPath id="clip1_462_740">
<rect width="35.8257" height="35.8257" fill="white" transform="translate(55.1519 19.739) rotate(13.4168)"/>
</clipPath>
<clipPath id="clip2_462_740">
<rect width="30.6871" height="31.9862" fill="white" transform="matrix(-1 0 0 1 57.7476 0)"/>
</clipPath>
<clipPath id="clip3_462_740">
<rect width="28.9942" height="52.0657" fill="white" transform="matrix(-1 0 0 1 29.9705 0)"/>
</clipPath>
</defs>
</svg>
