<svg width="89" height="103" viewBox="0 0 89 103" fill="none" xmlns="http://www.w3.org/2000/svg">
<rect x="21.5027" y="24.1279" width="45.9342" height="45.9342" rx="22.9671" fill="white"/>
<rect x="21.5027" y="24.1279" width="45.9342" height="45.9342" rx="22.9671" stroke="#CDCCCC"/>
<g clip-path="url(#clip0_462_859)">
<path d="M35.608 37.7574C35.4188 37.8497 35.0367 37.9635 34.4699 37.9635C32.9006 37.9635 32 36.8841 32 35.507C32 33.8675 33.1476 33 34.5742 33C35.1272 33 35.4195 33.1058 35.6077 33.2059L35.4333 34.1863C35.2238 34.0935 35.0014 34.009 34.6173 34.009C33.9379 34.009 33.2172 34.413 33.2172 35.4889C33.2172 36.4513 33.7918 36.9603 34.6229 36.9603C34.9521 36.9603 35.1756 36.8958 35.4334 36.7774L35.608 37.7574Z" fill="#0056A2"/>
<path d="M38.2138 34.2158C37.7911 34.2158 37.382 34.4075 37.1737 34.7154H37.1608V33.0172L36.0974 33.3853V37.8158H37.1608V35.7463C37.1608 35.4474 37.3551 35.126 37.7277 35.126C38.1263 35.126 38.2799 35.4398 38.2799 35.8962V37.8159H39.3442V35.7494C39.3442 34.6945 38.8918 34.2158 38.2138 34.2158Z" fill="#0056A2"/>
<path d="M40.9486 36.4182C40.9877 36.8669 41.3599 37.1054 41.9351 37.1105C42.2817 37.1132 42.6846 37.0124 42.9531 36.8543L43.1135 37.6819C42.7095 37.8849 42.2479 37.9635 41.7781 37.9635C40.5122 37.9635 39.8337 37.2022 39.8337 36.0358C39.8337 34.9076 40.5633 34.1796 41.6566 34.1796C42.7833 34.1796 43.2883 35.0091 43.2883 36.0485C43.2883 36.1581 43.2748 36.3365 43.2627 36.4182H40.9486ZM42.2262 35.6614C42.2262 35.4008 42.099 34.945 41.6067 34.945C41.1751 34.945 40.9715 35.3166 40.9413 35.6614H42.2262Z" fill="#0056A2"/>
<path d="M44.5383 37.8158L43.3633 34.3276H44.5365L45.1749 36.7951H45.1964L45.8348 34.3276H47.0085L45.8336 37.8158H44.5383Z" fill="#0056A2"/>
<path d="M47.3099 35.4748C47.3099 34.9616 47.2938 34.6268 47.272 34.3275H48.2738L48.3042 34.9759H48.3311C48.5064 34.4627 48.8429 34.2678 49.189 34.2481C49.3535 34.2385 49.4426 34.2502 49.5444 34.2699V35.2898C49.4469 35.2707 49.2535 35.2483 49.1175 35.2608C48.7082 35.2984 48.4606 35.5961 48.3911 35.9388C48.3771 36.0098 48.3699 36.0887 48.3699 36.1809V37.8158H47.3103V35.4748H47.3099Z" fill="#0056A2"/>
<path d="M53.2817 36.0715C53.2817 37.2148 52.5928 37.9634 51.4766 37.9634C50.3602 37.9634 49.6709 37.2148 49.6709 36.0715C49.6709 34.9281 50.3602 34.1795 51.4766 34.1795C52.5928 34.1795 53.2817 34.9281 53.2817 36.0715ZM52.1791 36.0715C52.1791 35.5038 51.984 35.0097 51.4766 35.0097C50.9686 35.0097 50.7744 35.5038 50.7744 36.0715C50.7744 36.6397 50.9686 37.133 51.4766 37.133C51.9841 37.133 52.1791 36.6397 52.1791 36.0715Z" fill="#0056A2"/>
<path d="M53.7547 35.4397C53.7547 35.0044 53.7388 34.6327 53.7163 34.3276H54.7182L54.7411 34.8156H54.7626C54.9013 34.5887 55.2685 34.2158 55.8413 34.2158C56.5424 34.2158 57.0001 34.6945 57.0001 35.7213V37.8159H55.9376V35.8816C55.9376 35.4328 55.7836 35.1259 55.3991 35.1259C55.1043 35.1259 54.9212 35.3332 54.8532 35.532C54.8281 35.6048 54.8178 35.7036 54.8178 35.8035V37.8158H53.7547V35.4397Z" fill="#0056A2"/>
<path d="M32.0381 47.063V38.7435L44.5205 42.9035L32.0381 47.063Z" fill="url(#paint0_linear_462_859)"/>
<path d="M32.0413 47.0637L44.5206 51.2232L56.9992 47.0637V38.7445L44.5206 42.9035L32.0413 47.0637Z" fill="url(#paint1_linear_462_859)"/>
<path d="M32.0387 56.7335L32.0376 48.4113L44.5192 52.5711L32.0387 56.7335Z" fill="url(#paint2_linear_462_859)"/>
<path d="M56.9995 48.4113L44.5168 52.5698L32.04 56.732L44.5192 60.8926L56.9995 56.7307V48.4113Z" fill="url(#paint3_linear_462_859)"/>
</g>
<g filter="url(#filter0_d_462_859)">
<path d="M22.9946 55.2288L23.606 54.4472C26.9583 50.1445 31.129 44.7916 29.4179 37.6186L27.7876 30.7841L26.5815 31.0718C22.2268 32.1106 18.4894 30.9927 17.888 28.4716L15.4759 29.047C16.0773 31.5681 13.2469 34.2526 8.89223 35.2914L7.68612 35.5791L9.31645 42.4136C11.0275 49.5866 17.1655 52.4805 22.0973 54.8058L22.9946 55.2288Z" fill="#D84025"/>
</g>
<g filter="url(#filter1_d_462_859)">
<path d="M8.89215 35.2915C13.2469 34.2527 16.0772 31.5681 15.4758 29.047L16.6819 28.7593L22.9957 55.2274L22.9945 55.2289L22.0972 54.8058C17.1654 52.4805 11.0275 49.5867 9.31637 42.4137L7.68605 35.5792L8.89215 35.2915Z" fill="#A13023"/>
</g>
<g clip-path="url(#clip1_462_859)">
<g filter="url(#filter2_d_462_859)">
<path fill-rule="evenodd" clip-rule="evenodd" d="M54.4432 22.5884C54.7525 23.844 55.0604 25.0985 55.3669 26.3521C52.5427 27.9683 48.9768 28.8709 44.4973 28.8724V23.689L54.4432 22.5884Z" fill="#535353"/>
<path fill-rule="evenodd" clip-rule="evenodd" d="M34.5595 22.5884C34.2462 23.844 33.9356 25.0985 33.6277 26.3521C36.458 27.9683 40.0158 28.8709 44.4973 28.8724V23.689L34.5595 22.5884Z" fill="#676767"/>
<path fill-rule="evenodd" clip-rule="evenodd" d="M42.274 9.07588C35.8214 3.36946 48.0226 3.9102 51.4611 1.01903C51.7038 1.26045 51.8477 1.55072 51.8749 1.85373C51.9021 2.15675 51.8114 2.45916 51.6141 2.72336C53.1405 3.67159 55.824 2.37785 57.279 4.19529C55.6302 4.12402 54.6261 4.61827 54.0139 5.27986C58.5361 4.75617 56.7668 7.94327 60.6318 8.123C57.7524 9.34238 50.9897 7.00124 46.8084 9.85058C44.9208 9.7979 44.1616 9.13321 42.274 9.07588Z" fill="#A23023"/>
<path fill-rule="evenodd" clip-rule="evenodd" d="M60.6299 8.0703C57.7798 9.32968 51.0665 6.93003 46.9158 9.85058C46.1434 9.81775 45.3835 9.6841 44.6672 9.45514C50.0962 4.6606 54.9134 8.91676 60.632 8.0703H60.6299Z" fill="#1A1A1A"/>
<path fill-rule="evenodd" clip-rule="evenodd" d="M42.651 8.59112C43.3961 8.64917 44.127 8.78311 44.8231 8.98919L44.8723 9.00139C44.6291 8.72991 44.3901 8.45843 44.1551 8.18695C42.0198 6.37049 46.5137 4.22153 49.2392 3.78076C50.2208 4.41523 51.7331 4.11477 52.5077 4.56012C51.8396 5.10003 51.4257 6.03342 50.7556 6.57333C58.4074 5.79855 54.9217 7.64094 58.5939 7.99783C58.3467 7.87284 58.1222 7.7247 57.9258 7.55706C56.6963 6.51233 56.8787 5.3715 54.1983 5.67654L52.7065 5.84583C52.9701 5.57333 53.2358 5.30135 53.5036 5.02987C54.1079 4.39929 55.0174 3.96788 56.0405 3.82652C55.8007 3.72207 55.5365 3.65222 55.2618 3.62062C55 3.59112 54.7357 3.57532 54.4708 3.57334C53.2782 3.55199 52.1409 3.62215 51.1921 3.05173L50.8396 2.83669C50.9093 2.74213 50.981 2.64909 51.0446 2.55606C51.2032 2.34725 51.2698 2.10668 51.2351 1.86821C50.0056 2.56216 48.3048 3.02886 46.8478 3.41625C45.6941 3.72128 44.483 4.02631 43.3887 4.40608C42.6161 4.67756 41.7493 5.05427 41.3395 5.56978C40.5956 6.53063 41.7452 7.77973 42.651 8.59112Z" fill="#EF4123"/>
<path fill-rule="evenodd" clip-rule="evenodd" d="M43.7258 8.71744C44.1135 8.79334 44.4959 8.88402 44.8714 8.98912L44.9204 9.0014C44.6781 8.72818 44.4398 8.45496 44.2057 8.18175C42.0779 6.35365 46.5561 4.19094 49.272 3.74734C50.2501 4.38587 51.7571 4.08349 52.529 4.53169C51.8633 5.07505 51.4508 6.01443 50.7831 6.55779C58.4081 5.77805 54.9346 7.63224 58.5939 7.99142C56.6887 7.61843 56.7234 6.27076 55.6411 5.94689C54.5588 5.62302 53.1294 6.369 52.0389 6.04513C52.1533 5.42041 52.6699 4.91235 53.4214 4.13721C52.3779 3.66292 49.7457 4.08656 50.293 2.71741C47.9508 4.65909 40.4055 3.85479 43.2684 8.55013L43.7258 8.71744Z" fill="#D03927"/>
<path d="M44.4123 12.7378C46.3352 12.7378 47.894 11.7113 47.894 10.445C47.894 9.17873 46.3352 8.15221 44.4123 8.15221C42.4895 8.15221 40.9307 9.17873 40.9307 10.445C40.9307 11.7113 42.4895 12.7378 44.4123 12.7378Z" fill="#CDCCCC"/>
<path fill-rule="evenodd" clip-rule="evenodd" d="M44.4279 10.5299C48.7929 10.5299 52.5226 12.2605 54.0145 14.7017C54.8158 14.959 55.3671 15.4889 55.3671 16.0954C55.363 16.297 55.3022 16.4958 55.1885 16.6786C55.0748 16.8615 54.9108 17.0244 54.7072 17.1567C54.6334 20.7267 50.0594 23.6074 44.4279 23.6074C38.7964 23.6074 34.2388 20.7328 34.1527 17.1721C33.94 17.0393 33.7679 16.8739 33.648 16.6871C33.5282 16.5003 33.4634 16.2964 33.458 16.0893C33.458 15.4767 34.0277 14.9361 34.8474 14.6834C36.3455 12.2483 40.069 10.5299 44.4279 10.5299Z" fill="#8B8A8A"/>
<path fill-rule="evenodd" clip-rule="evenodd" d="M42.799 20.2107C46.6371 20.2107 49.7624 18.2312 49.7624 15.7949C49.7624 13.3586 46.6309 11.3791 42.799 11.3791C38.9671 11.3791 35.8357 13.3586 35.8357 15.7949C35.8357 18.2312 38.959 20.2107 42.799 20.2107Z" fill="#989898"/>
<path fill-rule="evenodd" clip-rule="evenodd" d="M40.6759 15.2854C42.1268 15.2854 43.3084 14.5219 43.3084 13.587C43.3084 12.6521 42.1268 11.8886 40.6759 11.8886C39.2251 11.8886 38.0435 12.6506 38.0435 13.587C38.0435 14.5234 39.2374 15.2854 40.6759 15.2854Z" fill="#ACACAC"/>
<path fill-rule="evenodd" clip-rule="evenodd" d="M44.4974 14.2665H44.3977C43.0092 14.2611 41.6311 14.4487 40.3308 14.82L32.7786 16.9646V23.3547C36.0829 26.2792 39.9363 28.5695 44.4974 30.0613V14.2665Z" fill="#CDCCCC"/>
<path fill-rule="evenodd" clip-rule="evenodd" d="M42.7991 15.2854C42.1973 15.3615 41.6069 15.484 41.0364 15.6509L39.5886 16.0678V26.7622C40.6103 27.3513 41.6823 27.8861 42.7971 28.3629V15.2854H42.7991ZM38.9088 16.2638L36.6568 16.9125V24.8458C37.3687 25.37 38.1187 25.8771 38.9088 26.3593V16.2638ZM35.979 17.1069L34.4771 17.5394V23.0865C34.9583 23.5096 35.459 23.9244 35.979 24.3309V17.1069Z" fill="#333333"/>
<path fill-rule="evenodd" clip-rule="evenodd" d="M44.4973 14.2664H44.597C45.982 14.262 47.3566 14.4496 48.6537 14.82L56.2161 16.963V23.3532C52.9097 26.2792 49.0563 28.5695 44.4973 30.0613V14.2664Z" fill="#B4B4B4"/>
<path fill-rule="evenodd" clip-rule="evenodd" d="M46.1958 15.2854C46.8099 15.3618 47.4126 15.4842 47.9949 15.6509L49.4726 16.0678V26.7622C48.4294 27.3509 47.3354 27.8857 46.1978 28.3629V15.2854H46.1958ZM50.1665 16.2638L52.4629 16.9125V24.8458C51.7383 25.37 50.9729 25.8771 50.1665 26.3593V16.2638ZM53.1567 17.1069L54.6877 17.5394V23.0865C54.1978 23.5096 53.6875 23.9244 53.1567 24.3309V17.1069Z" fill="#1A1A1A"/>
<path fill-rule="evenodd" clip-rule="evenodd" d="M43.534 8.66171C44.1859 8.66171 44.4984 8.96658 44.2331 9.34106C44.0652 9.54106 43.8242 9.70854 43.5333 9.82748C43.2424 9.94643 42.9113 10.0129 42.5716 10.0204C41.9218 10.0204 41.6092 9.71693 41.8745 9.34106C42.0426 9.14144 42.2833 8.97423 42.5738 8.85532C42.8642 8.73642 43.1948 8.66977 43.534 8.66171Z" fill="#E3E3E3"/>
</g>
</g>
<g clip-path="url(#clip2_462_859)">
<g filter="url(#filter3_d_462_859)">
<path fill-rule="evenodd" clip-rule="evenodd" d="M60.009 47.2835L60.145 47.3539C60.2992 47.4366 60.4708 47.4817 60.6458 47.4855C60.8207 47.4894 60.9941 47.4517 61.1517 47.3758C61.3115 47.3045 61.4523 47.1966 61.5625 47.0608C61.6728 46.925 61.7495 46.7652 61.7864 46.5942C62.0991 45.228 62.7244 43.5585 63.6139 41.8343C64.5034 40.1101 65.5023 38.6345 66.4277 37.5888C66.5437 37.4584 66.6283 37.3034 66.6751 37.1353C66.722 36.9673 66.7298 36.7908 66.6979 36.6193C66.6661 36.4478 66.5955 36.2859 66.4915 36.1459C66.3875 36.0059 66.2529 35.8915 66.0979 35.8114L65.9603 35.7411L66.5262 34.6469L69.1837 36.0162L71.8413 37.384L71.2754 38.4782L71.1394 38.4079C70.9837 38.3264 70.8113 38.2819 70.6357 38.2778C70.46 38.2736 70.2858 38.31 70.1264 38.3841C69.9671 38.4582 69.827 38.5679 69.7169 38.7049C69.6068 38.8418 69.5298 39.0023 69.4917 39.1738C69.179 40.5385 68.5537 42.2095 67.6643 43.9321C66.7748 45.6547 65.7758 47.1319 64.8504 48.1777C64.7344 48.3081 64.6498 48.4633 64.603 48.6314C64.5561 48.7996 64.5483 48.9762 64.5802 49.1478C64.612 49.3194 64.6826 49.4815 64.7866 49.6216C64.8906 49.7618 65.0252 49.8763 65.1802 49.9566L65.3178 50.0269L64.7519 51.1211L62.0944 49.7533L59.4431 48.3793L60.009 47.2835Z" fill="#CA3927"/>
<path fill-rule="evenodd" clip-rule="evenodd" d="M66.7737 38.234C67.212 38.4627 66.6033 40.5413 65.4123 42.8737C64.2212 45.2061 62.9 46.9135 62.4694 46.6848C62.0388 46.4561 62.6398 44.3775 63.8309 42.0451C65.022 39.7127 66.3354 38.0053 66.7737 38.234Z" fill="#F04B23"/>
<path fill-rule="evenodd" clip-rule="evenodd" d="M86.1075 3.39676L84.6832 11.4454L71.3962 37.1944L67.0857 34.9697L80.3726 9.22071L86.1075 3.39676Z" fill="#D1D2D2"/>
<path fill-rule="evenodd" clip-rule="evenodd" d="M81.808 7.74437L84.0703 6.27116L83.2748 11.0728L71.3318 37.1944L84.6771 11.4454L86.1077 3.39676L81.808 7.74437Z" fill="#E6E6E5"/>
<path fill-rule="evenodd" clip-rule="evenodd" d="M82.3713 10.6998L76.0934 23.5217L69.8139 36.3452L69.1284 35.9965L68.4446 35.6477L75.4079 23.1745L82.3713 10.6998Z" fill="#818181"/>
<path fill-rule="evenodd" clip-rule="evenodd" d="M65.7727 33.4234L73.3723 37.3669C73.7631 37.0841 74.2371 36.9418 74.7181 36.9631C75.1991 36.9844 75.659 37.168 76.0235 37.4842C76.3881 37.8005 76.6361 38.231 76.7275 38.7064C76.819 39.1817 76.7486 39.6742 76.5278 40.1044C76.3069 40.5346 75.9483 40.8775 75.51 41.0777C75.0716 41.2779 74.579 41.3238 74.1115 41.208C73.644 41.0922 73.2289 40.8214 72.9332 40.4394C72.6375 40.0573 72.4783 39.5862 72.4814 39.1021L64.8818 35.1585C64.4905 35.4422 64.0157 35.585 63.5338 35.5639C63.052 35.5429 62.5913 35.3592 62.226 35.0425C61.8607 34.7258 61.6121 34.2946 61.5204 33.8185C61.4286 33.3423 61.4991 32.8489 61.7204 32.418C61.9417 31.987 62.3009 31.6436 62.74 31.4431C63.1792 31.2426 63.6727 31.1968 64.1409 31.3129C64.6092 31.4291 65.0249 31.7005 65.3209 32.0834C65.617 32.4663 65.7761 32.9384 65.7727 33.4234Z" fill="#333333"/>
</g>
</g>
<g filter="url(#filter4_d_462_859)">
<path d="M26.7785 84.096C25.5545 84.096 24.5225 83.684 23.6825 82.86C23.2905 82.468 22.9825 82 22.7585 81.456C22.5265 80.88 22.4105 80.28 22.4105 79.656C22.4105 79 22.5305 78.392 22.7705 77.832C23.0185 77.256 23.3345 76.78 23.7185 76.404C24.5745 75.572 25.6065 75.156 26.8145 75.156C27.7265 75.156 28.5025 75.38 29.1425 75.828C29.4145 76.004 29.6705 76.228 29.9105 76.5C30.3105 76.964 30.5825 77.476 30.7265 78.036L29.8505 78.348C29.7625 78.012 29.5905 77.66 29.3345 77.292C29.1505 77.044 28.9625 76.84 28.7705 76.68C28.5465 76.488 28.2665 76.336 27.9305 76.224C27.5945 76.096 27.2145 76.032 26.7905 76.032C25.8465 76.032 25.0465 76.36 24.3905 77.016C23.7105 77.696 23.3705 78.556 23.3705 79.596C23.3705 80.292 23.5185 80.912 23.8145 81.456C24.1025 82.008 24.5145 82.44 25.0505 82.752C25.5625 83.064 26.1465 83.22 26.8025 83.22C27.5705 83.22 28.2105 83.016 28.7225 82.608C28.9545 82.432 29.1465 82.232 29.2985 82.008C29.4505 81.808 29.5745 81.608 29.6705 81.408C29.7505 81.216 29.8185 81.04 29.8745 80.88L30.7505 81.192C30.6065 81.712 30.3385 82.208 29.9465 82.68C29.7385 82.928 29.4865 83.164 29.1905 83.388C28.5265 83.86 27.7225 84.096 26.7785 84.096ZM37.3415 84H36.4655V80.532C36.4655 79.98 36.3255 79.54 36.0455 79.212C35.7655 78.884 35.3575 78.72 34.8215 78.72C34.3015 78.72 33.8735 78.9 33.5375 79.26C33.2095 79.628 33.0455 80.076 33.0455 80.604V84H32.1695V74.904H33.0455V79.104C33.5095 78.32 34.1895 77.928 35.0855 77.928C35.7895 77.928 36.3455 78.144 36.7535 78.576C37.1455 79.032 37.3415 79.612 37.3415 80.316V84ZM44.504 81.288H39.68C39.712 81.872 39.932 82.356 40.34 82.74C40.74 83.132 41.232 83.328 41.816 83.328C42.272 83.328 42.66 83.22 42.98 83.004C43.3 82.78 43.528 82.464 43.664 82.056L44.432 82.296C44.264 82.856 43.94 83.3 43.46 83.628C42.964 83.948 42.42 84.108 41.828 84.108C41.268 84.108 40.752 83.968 40.28 83.688C39.808 83.408 39.448 83.032 39.2 82.56C38.936 82.096 38.804 81.58 38.804 81.012C38.804 80.468 38.928 79.964 39.176 79.5C39.408 79.028 39.756 78.648 40.22 78.36C40.668 78.072 41.164 77.928 41.708 77.928C42.308 77.928 42.82 78.064 43.244 78.336C43.676 78.6 43.996 78.964 44.204 79.428C44.412 79.868 44.516 80.392 44.516 81C44.516 81.104 44.512 81.2 44.504 81.288ZM39.692 80.544H43.64C43.584 80 43.384 79.552 43.04 79.2C42.704 78.864 42.26 78.696 41.708 78.696C41.204 78.696 40.76 78.876 40.376 79.236C39.992 79.612 39.764 80.048 39.692 80.544ZM48.2649 84H47.3409L44.8089 78.036H45.7689L47.8089 83.04L49.8849 78.036H50.8089L48.2649 84ZM52.0563 78.036H52.9083V79.212C53.1883 78.644 53.5963 78.26 54.1323 78.06C54.3483 77.98 54.5843 77.94 54.8403 77.94C54.9923 77.94 55.0883 77.948 55.1283 77.964V78.888C55.0643 78.872 54.9523 78.864 54.7923 78.864C54.1443 78.864 53.6723 79.08 53.3763 79.512C53.0803 79.944 52.9323 80.468 52.9323 81.084V84H52.0563V78.036ZM58.4694 84.108C57.9174 84.108 57.4014 83.972 56.9214 83.7C56.4494 83.42 56.0814 83.048 55.8174 82.584C55.5454 82.12 55.4094 81.604 55.4094 81.036C55.4094 80.148 55.7054 79.412 56.2974 78.828C56.8894 78.228 57.6214 77.928 58.4934 77.928C59.3414 77.912 60.0694 78.212 60.6774 78.828C61.2934 79.436 61.5934 80.16 61.5774 81C61.5934 81.864 61.2934 82.604 60.6774 83.22C60.0614 83.828 59.3254 84.124 58.4694 84.108ZM58.4934 83.328C59.1174 83.328 59.6414 83.104 60.0654 82.656C60.4734 82.208 60.6774 81.668 60.6774 81.036C60.6774 80.396 60.4694 79.844 60.0534 79.38C59.6294 78.924 59.1014 78.696 58.4694 78.696C57.8374 78.696 57.3174 78.92 56.9094 79.368C56.5014 79.816 56.2974 80.36 56.2974 81C56.2814 81.632 56.4854 82.18 56.9094 82.644C57.3414 83.108 57.8694 83.336 58.4934 83.328ZM68.279 84H67.403V80.532C67.403 79.98 67.263 79.54 66.983 79.212C66.703 78.884 66.295 78.72 65.759 78.72C65.239 78.72 64.811 78.9 64.475 79.26C64.147 79.628 63.983 80.076 63.983 80.604V84H63.107V78.036H63.959V79.128C64.439 78.328 65.127 77.928 66.023 77.928C66.727 77.928 67.283 78.144 67.691 78.576C68.083 79.032 68.279 79.612 68.279 80.316V84ZM29.5883 93.004V92.716C29.5883 91.564 29.8683 90.516 30.4283 89.572C30.9803 88.62 31.7603 87.856 32.7683 87.28L33.1283 87.844C31.3603 88.98 30.4763 90.608 30.4763 92.728V92.992C30.4763 95.096 31.3603 96.72 33.1283 97.864L32.7683 98.452C31.7603 97.868 30.9803 97.1 30.4283 96.148C29.8683 95.204 29.5883 94.156 29.5883 93.004ZM37.0383 97.096C35.8143 97.096 34.7823 96.684 33.9423 95.86C33.5503 95.468 33.2423 95 33.0183 94.456C32.7863 93.88 32.6703 93.28 32.6703 92.656C32.6703 92 32.7903 91.392 33.0303 90.832C33.2783 90.256 33.5943 89.78 33.9783 89.404C34.8343 88.572 35.8663 88.156 37.0743 88.156C37.9863 88.156 38.7623 88.38 39.4023 88.828C39.6743 89.004 39.9303 89.228 40.1703 89.5C40.5703 89.964 40.8423 90.476 40.9863 91.036L40.1103 91.348C40.0223 91.012 39.8503 90.66 39.5943 90.292C39.4103 90.044 39.2223 89.84 39.0303 89.68C38.8063 89.488 38.5263 89.336 38.1903 89.224C37.8543 89.096 37.4743 89.032 37.0503 89.032C36.1063 89.032 35.3063 89.36 34.6503 90.016C33.9703 90.696 33.6303 91.556 33.6303 92.596C33.6303 93.292 33.7783 93.912 34.0743 94.456C34.3623 95.008 34.7743 95.44 35.3103 95.752C35.8223 96.064 36.4063 96.22 37.0623 96.22C37.8303 96.22 38.4703 96.016 38.9823 95.608C39.2143 95.432 39.4063 95.232 39.5583 95.008C39.7103 94.808 39.8343 94.608 39.9303 94.408C40.0103 94.216 40.0783 94.04 40.1343 93.88L41.0103 94.192C40.8663 94.712 40.5983 95.208 40.2063 95.68C39.9983 95.928 39.7463 96.164 39.4503 96.388C38.7863 96.86 37.9823 97.096 37.0383 97.096ZM49.3277 88.252L45.8117 97H44.7917L41.2757 88.252H42.2837L45.3077 95.968L48.3437 88.252H49.3277ZM56.4178 97L53.5738 93.172L50.7538 97H49.6738L53.0338 92.524L49.8298 88.252H50.8978L53.5978 91.852L56.2738 88.252H57.3418L54.1378 92.512L57.4858 97H56.4178ZM61.4103 92.716V93.004C61.4103 94.164 61.1343 95.216 60.5823 96.16C60.0223 97.104 59.2383 97.868 58.2303 98.452L57.8703 97.864C59.6383 96.72 60.5223 95.096 60.5223 92.992V92.728C60.5223 90.608 59.6383 88.98 57.8703 87.844L58.2303 87.28C59.2383 87.848 60.0223 88.608 60.5823 89.56C61.1343 90.512 61.4103 91.564 61.4103 92.716Z" fill="white"/>
</g>
<defs>
<filter id="filter0_d_462_859" x="3.68604" y="28.4716" width="30.1289" height="34.7572" filterUnits="userSpaceOnUse" color-interpolation-filters="sRGB">
<feFlood flood-opacity="0" result="BackgroundImageFix"/>
<feColorMatrix in="SourceAlpha" type="matrix" values="0 0 0 0 0 0 0 0 0 0 0 0 0 0 0 0 0 0 127 0" result="hardAlpha"/>
<feOffset dy="4"/>
<feGaussianBlur stdDeviation="2"/>
<feComposite in2="hardAlpha" operator="out"/>
<feColorMatrix type="matrix" values="0 0 0 0 0 0 0 0 0 0 0 0 0 0 0 0 0 0 0.25 0"/>
<feBlend mode="normal" in2="BackgroundImageFix" result="effect1_dropShadow_462_859"/>
<feBlend mode="normal" in="SourceGraphic" in2="effect1_dropShadow_462_859" result="shape"/>
</filter>
<filter id="filter1_d_462_859" x="3.68604" y="28.7593" width="23.3096" height="34.4696" filterUnits="userSpaceOnUse" color-interpolation-filters="sRGB">
<feFlood flood-opacity="0" result="BackgroundImageFix"/>
<feColorMatrix in="SourceAlpha" type="matrix" values="0 0 0 0 0 0 0 0 0 0 0 0 0 0 0 0 0 0 127 0" result="hardAlpha"/>
<feOffset dy="4"/>
<feGaussianBlur stdDeviation="2"/>
<feComposite in2="hardAlpha" operator="out"/>
<feColorMatrix type="matrix" values="0 0 0 0 0 0 0 0 0 0 0 0 0 0 0 0 0 0 0.25 0"/>
<feBlend mode="normal" in2="BackgroundImageFix" result="effect1_dropShadow_462_859"/>
<feBlend mode="normal" in="SourceGraphic" in2="effect1_dropShadow_462_859" result="shape"/>
</filter>
<filter id="filter2_d_462_859" x="22.7786" y="-4.98097" width="47.8535" height="49.0422" filterUnits="userSpaceOnUse" color-interpolation-filters="sRGB">
<feFlood flood-opacity="0" result="BackgroundImageFix"/>
<feColorMatrix in="SourceAlpha" type="matrix" values="0 0 0 0 0 0 0 0 0 0 0 0 0 0 0 0 0 0 127 0" result="hardAlpha"/>
<feOffset dy="4"/>
<feGaussianBlur stdDeviation="5"/>
<feComposite in2="hardAlpha" operator="out"/>
<feColorMatrix type="matrix" values="0 0 0 0 0 0 0 0 0 0 0 0 0 0 0 0 0 0 0.5 0"/>
<feBlend mode="normal" in2="BackgroundImageFix" result="effect1_dropShadow_462_859"/>
<feBlend mode="normal" in="SourceGraphic" in2="effect1_dropShadow_462_859" result="shape"/>
</filter>
<filter id="filter3_d_462_859" x="49.4431" y="-2.60324" width="46.6646" height="67.7243" filterUnits="userSpaceOnUse" color-interpolation-filters="sRGB">
<feFlood flood-opacity="0" result="BackgroundImageFix"/>
<feColorMatrix in="SourceAlpha" type="matrix" values="0 0 0 0 0 0 0 0 0 0 0 0 0 0 0 0 0 0 127 0" result="hardAlpha"/>
<feOffset dy="4"/>
<feGaussianBlur stdDeviation="5"/>
<feComposite in2="hardAlpha" operator="out"/>
<feColorMatrix type="matrix" values="0 0 0 0 0 0 0 0 0 0 0 0 0 0 0 0 0 0 0.5 0"/>
<feBlend mode="normal" in2="BackgroundImageFix" result="effect1_dropShadow_462_859"/>
<feBlend mode="normal" in="SourceGraphic" in2="effect1_dropShadow_462_859" result="shape"/>
</filter>
<filter id="filter4_d_462_859" x="20.4106" y="74.904" width="49.8684" height="27.548" filterUnits="userSpaceOnUse" color-interpolation-filters="sRGB">
<feFlood flood-opacity="0" result="BackgroundImageFix"/>
<feColorMatrix in="SourceAlpha" type="matrix" values="0 0 0 0 0 0 0 0 0 0 0 0 0 0 0 0 0 0 127 0" result="hardAlpha"/>
<feOffset dy="2"/>
<feGaussianBlur stdDeviation="1"/>
<feComposite in2="hardAlpha" operator="out"/>
<feColorMatrix type="matrix" values="0 0 0 0 0 0 0 0 0 0 0 0 0 0 0 0 0 0 0.5 0"/>
<feBlend mode="normal" in2="BackgroundImageFix" result="effect1_dropShadow_462_859"/>
<feBlend mode="normal" in="SourceGraphic" in2="effect1_dropShadow_462_859" result="shape"/>
</filter>
<linearGradient id="paint0_linear_462_859" x1="44.5205" y1="42.9033" x2="36.8417" y2="31.3821" gradientUnits="userSpaceOnUse">
<stop stop-color="#06549B"/>
<stop offset="0.55" stop-color="#2FA1D3"/>
<stop offset="0.9" stop-color="#2FA1D3"/>
</linearGradient>
<linearGradient id="paint1_linear_462_859" x1="32.0413" y1="46.2317" x2="40.5384" y2="23.289" gradientUnits="userSpaceOnUse">
<stop stop-color="#1371B1"/>
<stop offset="0.05" stop-color="#2FA1D3"/>
<stop offset="0.45" stop-color="#2FA1D3"/>
<stop offset="0.6" stop-color="#06569C"/>
</linearGradient>
<linearGradient id="paint2_linear_462_859" x1="44.5192" y1="52.5724" x2="35.1396" y2="44.132" gradientUnits="userSpaceOnUse">
<stop stop-color="#9D1A36"/>
<stop offset="0.4" stop-color="#9D1A36"/>
<stop offset="0.6" stop-color="#E6192F"/>
</linearGradient>
<linearGradient id="paint3_linear_462_859" x1="32.04" y1="55.9001" x2="40.5399" y2="32.9534" gradientUnits="userSpaceOnUse">
<stop stop-color="#A21C38"/>
<stop offset="0.13" stop-color="#E6192F"/>
<stop offset="0.45" stop-color="#E6192F"/>
<stop offset="0.6" stop-color="#A71C37"/>
</linearGradient>
<clipPath id="clip0_462_859">
<rect width="25" height="27.8926" fill="white" transform="translate(32 33)"/>
</clipPath>
<clipPath id="clip1_462_859">
<rect width="30.5708" height="31.8649" fill="white" transform="translate(31.9294)"/>
</clipPath>
<clipPath id="clip2_462_859">
<rect width="28.8843" height="51.8684" fill="white" transform="translate(59.613)"/>
</clipPath>
</defs>
</svg>
