<svg width="89.023743" height="91.964111" viewBox="0 0 89.0237 91.9641" fill="none" xmlns="http://www.w3.org/2000/svg" xmlns:xlink="http://www.w3.org/1999/xlink">
	<desc>
			Created with Pixso.
	</desc>
	<defs>
		<clipPath id="clip187_13952">
			<rect id="disney" rx="22.968464" width="45.936932" height="45.936928" transform="translate(20.757019 24.215454)" fill="white" fill-opacity="0"/>
		</clipPath>
		<filter id="filter_187_13955_dd" x="51.095123" y="28.542969" width="30.213043" height="34.859009" filterUnits="userSpaceOnUse" color-interpolation-filters="sRGB">
			<feFlood flood-opacity="0" result="BackgroundImageFix"/>
			<feColorMatrix in="SourceAlpha" type="matrix" values="0 0 0 0 0 0 0 0 0 0 0 0 0 0 0 0 0 0 127 0" result="hardAlpha"/>
			<feOffset dx="-4" dy="4"/>
			<feGaussianBlur stdDeviation="1.33333"/>
			<feComposite in2="hardAlpha" operator="out" k2="-1" k3="1"/>
			<feColorMatrix type="matrix" values="0 0 0 0 0 0 0 0 0 0 0 0 0 0 0 0 0 0 0.25 0"/>
			<feBlend mode="normal" in2="BackgroundImageFix" result="effect_dropShadow_1"/>
			<feBlend mode="normal" in="SourceGraphic" in2="effect_dropShadow_1" result="shape"/>
		</filter>
		<filter id="filter_187_13956_dd" x="57.940308" y="28.831665" width="23.367889" height="34.570312" filterUnits="userSpaceOnUse" color-interpolation-filters="sRGB">
			<feFlood flood-opacity="0" result="BackgroundImageFix"/>
			<feColorMatrix in="SourceAlpha" type="matrix" values="0 0 0 0 0 0 0 0 0 0 0 0 0 0 0 0 0 0 127 0" result="hardAlpha"/>
			<feOffset dx="-4" dy="4"/>
			<feGaussianBlur stdDeviation="1.33333"/>
			<feComposite in2="hardAlpha" operator="out" k2="-1" k3="1"/>
			<feColorMatrix type="matrix" values="0 0 0 0 0 0 0 0 0 0 0 0 0 0 0 0 0 0 0.25 0"/>
			<feBlend mode="normal" in2="BackgroundImageFix" result="effect_dropShadow_1"/>
			<feBlend mode="normal" in="SourceGraphic" in2="effect_dropShadow_1" result="shape"/>
		</filter>
		<clipPath id="clip187_13954">
			<rect id="shield-antivirus-svgrepo-com 1" width="35.825710" height="35.825710" transform="translate(54.175720 19.739014) rotate(-13.416809)" fill="white" fill-opacity="0"/>
		</clipPath>
		<filter id="filter_187_13959_dd" x="17.959473" y="-4.977051" width="47.959351" height="49.152710" filterUnits="userSpaceOnUse" color-interpolation-filters="sRGB">
			<feFlood flood-opacity="0" result="BackgroundImageFix"/>
			<feColorMatrix in="SourceAlpha" type="matrix" values="0 0 0 0 0 0 0 0 0 0 0 0 0 0 0 0 0 0 127 0" result="hardAlpha"/>
			<feOffset dx="0" dy="4"/>
			<feGaussianBlur stdDeviation="3.33333"/>
			<feComposite in2="hardAlpha" operator="out" k2="-1" k3="1"/>
			<feColorMatrix type="matrix" values="0 0 0 0 0 0 0 0 0 0 0 0 0 0 0 0 0 0 0.5 0"/>
			<feBlend mode="normal" in2="BackgroundImageFix" result="effect_dropShadow_1"/>
			<feBlend mode="normal" in="SourceGraphic" in2="effect_dropShadow_1" result="shape"/>
		</filter>
		<clipPath id="clip187_13957">
			<rect id="helmet_red" width="30.687067" height="31.986151" transform="matrix(-1 0 0 1 56.7712 0)" fill="white" fill-opacity="0"/>
		</clipPath>
		<filter id="filter_187_13977_dd" x="-7.601318" y="-2.590332" width="46.765930" height="67.905884" filterUnits="userSpaceOnUse" color-interpolation-filters="sRGB">
			<feFlood flood-opacity="0" result="BackgroundImageFix"/>
			<feColorMatrix in="SourceAlpha" type="matrix" values="0 0 0 0 0 0 0 0 0 0 0 0 0 0 0 0 0 0 127 0" result="hardAlpha"/>
			<feOffset dx="0" dy="4"/>
			<feGaussianBlur stdDeviation="3.33333"/>
			<feComposite in2="hardAlpha" operator="out" k2="-1" k3="1"/>
			<feColorMatrix type="matrix" values="0 0 0 0 0 0 0 0 0 0 0 0 0 0 0 0 0 0 0.5 0"/>
			<feBlend mode="normal" in2="BackgroundImageFix" result="effect_dropShadow_1"/>
			<feBlend mode="normal" in="SourceGraphic" in2="effect_dropShadow_1" result="shape"/>
		</filter>
		<clipPath id="clip187_13975">
			<rect id="sword_red" width="28.994165" height="52.065720" transform="matrix(-1 0 0 1 28.9941 0)" fill="white" fill-opacity="0"/>
		</clipPath>
		<filter id="filter_187_13984_dd" x="10.378235" y="75.691650" width="71.413177" height="16.272461" filterUnits="userSpaceOnUse" color-interpolation-filters="sRGB">
			<feFlood flood-opacity="0" result="BackgroundImageFix"/>
			<feColorMatrix in="SourceAlpha" type="matrix" values="0 0 0 0 0 0 0 0 0 0 0 0 0 0 0 0 0 0 127 0" result="hardAlpha"/>
			<feOffset dx="0" dy="2"/>
			<feGaussianBlur stdDeviation="0.666667"/>
			<feComposite in2="hardAlpha" operator="out" k2="-1" k3="1"/>
			<feColorMatrix type="matrix" values="0 0 0 0 0 0 0 0 0 0 0 0 0 0 0 0 0 0 0.5 0"/>
			<feBlend mode="normal" in2="BackgroundImageFix" result="effect_dropShadow_1"/>
			<feBlend mode="normal" in="SourceGraphic" in2="effect_dropShadow_1" result="shape"/>
		</filter>
	</defs>
	<rect id="disney" rx="22.968464" width="45.936932" height="45.936928" transform="translate(20.757019 24.215454)" fill="#000000" fill-opacity="1.000000"/>
	<g clip-path="url(#clip187_13952)">
		<path id="disney" d="M55.75 47.77C55.14 47.9 53.55 47.98 53.55 47.98L53.35 48.61C53.35 48.61 54.14 48.54 54.72 48.6C54.72 48.6 54.91 48.59 54.93 48.81C54.94 49.03 54.91 49.27 54.91 49.27C54.91 49.27 54.9 49.41 54.71 49.45C54.48 49.48 52.99 49.55 52.99 49.55L52.75 50.36C52.75 50.36 52.66 50.55 52.86 50.5C53.04 50.45 54.61 50.15 54.82 50.19C55.04 50.24 55.28 50.54 55.21 50.81C55.13 51.13 53.56 52.13 52.61 52.07C52.61 52.07 52.11 52.1 51.69 51.42C51.29 50.78 51.83 49.57 51.83 49.57C51.83 49.57 51.59 49 51.77 48.79C51.77 48.79 51.87 48.7 52.18 48.68L52.57 47.88C52.57 47.88 52.13 47.91 51.87 47.59C51.64 47.28 51.62 47.15 51.8 47.06C52 46.96 53.81 46.64 55.06 46.68C55.06 46.68 55.5 46.63 55.89 47.38C55.89 47.38 56.06 47.69 55.75 47.77L55.75 47.77ZM51.04 50.82C50.89 51.19 50.46 51.59 49.95 51.35C49.42 51.1 48.59 49.41 48.59 49.41C48.59 49.41 48.28 48.78 48.22 48.8C48.22 48.8 48.15 48.68 48.12 49.37C48.06 50.06 48.13 51.39 47.84 51.6C47.58 51.81 47.27 51.72 47.1 51.48C46.96 51.24 46.89 50.65 46.98 49.64C47.07 48.62 47.3 47.54 47.59 47.2C47.9 46.86 48.15 47.11 48.24 47.2C48.24 47.2 48.64 47.56 49.31 48.63L49.43 48.83C49.43 48.83 50.03 49.84 50.1 49.84C50.1 49.84 50.15 49.89 50.19 49.85C50.25 49.83 50.23 49.5 50.23 49.5C50.23 49.5 50.12 48.41 49.55 46.55C49.55 46.55 49.47 46.31 49.52 46.08C49.57 45.88 49.8 45.98 49.8 45.98C49.8 45.98 50.65 46.39 51.07 47.79C51.48 49.18 51.2 50.44 51.05 50.82L51.04 50.82ZM46.85 47.24C46.76 47.39 46.73 47.59 46.37 47.65C46.37 47.65 42.92 47.89 42.75 48.13C42.75 48.13 42.63 48.28 42.82 48.31C43.02 48.35 43.8 48.46 44.17 48.48C44.57 48.48 45.92 48.49 46.42 49.1C46.42 49.1 46.7 49.38 46.69 50.04C46.68 50.71 46.56 50.95 46.3 51.19C46.03 51.42 43.69 52.47 42.18 50.86C42.18 50.86 41.48 50.09 42.42 49.5C42.42 49.5 43.09 49.09 44.8 49.57C44.8 49.57 45.32 49.75 45.3 49.94C45.27 50.15 44.87 50.35 44.29 50.34C43.74 50.33 43.32 50.06 43.41 50.11C43.48 50.13 42.8 49.78 42.59 50.02C42.39 50.25 42.44 50.38 42.64 50.52C43.16 50.82 45.19 50.71 45.79 50.03C45.79 50.03 46.03 49.76 45.67 49.54C45.31 49.33 44.25 49.2 43.85 49.19C43.46 49.17 42.01 49.19 41.79 48.81C41.79 48.81 41.59 48.54 41.81 47.81C42.05 47.04 43.74 46.74 44.47 46.68C44.47 46.68 46.48 46.6 46.86 47.01C46.86 47.01 46.91 47.1 46.85 47.24L46.85 47.24ZM41.14 51.78C40.9 51.96 40.39 51.88 40.24 51.67C40.09 51.49 40.04 50.78 40.07 49.66C40.1 48.52 40.12 47.12 40.38 46.89C40.63 46.67 40.79 46.86 40.89 47.01C40.99 47.17 41.13 47.34 41.15 47.69C41.18 48.05 41.27 49.91 41.27 49.91C41.27 49.91 41.38 51.6 41.15 51.78L41.14 51.78ZM41.66 45.74C40.95 45.99 40.46 45.91 40.05 45.73C39.87 46.05 39.76 46.15 39.63 46.17C39.42 46.19 39.24 45.86 39.22 45.76C39.17 45.68 39.08 45.54 39.19 45.23C38.79 44.87 38.76 44.38 38.83 44.06C38.93 43.68 39.61 42.24 41.67 42.07C41.67 42.07 42.68 42 42.86 42.54L42.89 42.54C42.89 42.54 43.87 42.54 43.85 43.41C43.85 44.29 42.76 45.38 41.66 45.76L41.66 45.74ZM42.58 43.25C41.93 43.35 40.93 44.22 40.45 44.93C41.19 45.07 42.47 45.02 43.05 43.85C43.05 43.85 43.32 43.12 42.58 43.25ZM39.73 43.82C39.52 44.15 39.51 44.35 39.61 44.49C39.85 44.13 40.28 43.56 40.92 43.11C40.43 43.17 40.01 43.37 39.73 43.82ZM57.29 51.74C56.82 52.91 56.42 54.09 56.19 55.86C56.19 55.86 56.13 56.2 55.85 56.09C55.57 55.99 55.1 55.52 55 54.87C54.9 54.01 55.28 52.57 56.06 50.91C55.83 50.55 55.67 50.01 55.8 49.26C55.8 49.26 56 47.86 57.4 46.61C57.4 46.61 57.56 46.47 57.65 46.51C57.77 46.56 57.72 47.01 57.63 47.23C57.55 47.45 56.93 48.52 56.93 48.52C56.93 48.52 56.54 49.26 56.65 49.83C57.38 48.7 59.05 46.43 60.08 47.15C60.73 47.61 60.73 49.11 60.24 49.97C59.86 50.66 58.76 52.08 57.3 51.75L57.29 51.74ZM59.45 48.24C59.07 48.65 58.39 49.44 57.85 50.5C58.42 50.44 58.97 50.12 59.14 49.96C59.41 49.72 60.04 49.07 59.94 48.2C59.94 48.2 59.88 47.75 59.45 48.24ZM36.35 52.35C34.52 52.91 32.8 52.65 31.86 52.4C31.84 52.78 31.8 52.94 31.73 53C31.66 53.09 31.06 53.43 30.73 52.94C30.59 52.71 30.52 52.29 30.47 51.91C28.36 50.95 27.38 49.54 27.35 49.49C27.3 49.44 26.82 48.94 27.3 48.32C27.75 47.76 29.23 47.2 30.56 46.98C30.61 45.84 30.74 44.97 30.9 44.58C31.09 44.12 31.33 44.53 31.55 44.84C31.72 45.07 31.83 46.06 31.84 46.86C32.71 46.82 33.23 46.88 34.2 47.06C35.47 47.28 36.31 47.93 36.25 48.66C36.18 49.38 35.52 49.68 35.27 49.7C35.01 49.73 34.59 49.53 34.59 49.53C34.31 49.4 34.57 49.28 34.9 49.13C35.28 48.95 35.19 48.77 35.19 48.77C35.06 48.36 33.41 48.09 31.78 48.09C31.78 48.99 31.82 50.48 31.84 51.35C32.99 51.57 33.84 51.52 33.84 51.52C33.84 51.52 38.02 51.41 38.14 48.74C38.27 46.07 33.96 43.51 30.79 42.71C27.62 41.88 25.83 42.46 25.67 42.54C25.5 42.62 25.66 42.66 25.66 42.66C25.66 42.66 25.83 42.68 26.14 42.78C26.45 42.89 26.2 43.04 26.2 43.04C25.66 43.23 25.06 43.12 24.94 42.87C24.82 42.63 25.01 42.41 25.25 42.08C25.46 41.75 25.71 41.76 25.71 41.76C29.63 40.39 34.41 42.84 34.41 42.84C38.89 45.1 39.65 47.76 39.57 48.79C39.5 49.8 39.11 51.52 36.35 52.36L36.35 52.35ZM27.74 48.66C27.29 48.87 27.6 49.2 27.6 49.2C28.44 50.09 29.46 50.65 30.44 51C30.55 49.46 30.54 48.91 30.54 48.13C29.03 48.23 28.15 48.48 27.74 48.66Z" fill="#FFFFFF" fill-opacity="1.000000" fill-rule="nonzero"/>
	</g>
	<rect id="disney" rx="22.968464" width="45.936932" height="45.936928" transform="translate(20.757019 24.215454)" stroke="#CDCCCC" stroke-opacity="1.000000" stroke-width="1.000000"/>
	<rect id="shield-antivirus-svgrepo-com 1" width="35.825710" height="35.825710" transform="translate(54.175720 19.739014) rotate(-13.416809)" fill="#FFFFFF" fill-opacity="0"/>
	<g clip-path="url(#clip187_13954)">
		<g filter="url(#filter_187_13955_dd)">
			<path id="Vector" d="M65.94 55.4L65.32 54.61C61.96 50.29 57.77 44.92 59.49 37.72L61.13 30.86L62.34 31.15C66.71 32.19 70.46 31.07 71.06 28.54L73.48 29.12C72.88 31.65 75.72 34.34 80.09 35.38L81.3 35.67L79.67 42.53C77.95 49.73 71.79 52.64 66.84 54.97L65.94 55.4Z" fill="#7AB9E8" fill-opacity="1.000000" fill-rule="nonzero"/>
		</g>
		<g filter="url(#filter_187_13956_dd)">
			<path id="Vector" d="M80.09 35.38C75.72 34.34 72.88 31.65 73.48 29.12L72.27 28.83L65.94 55.4L65.94 55.4L66.84 54.97C71.79 52.64 77.95 49.73 79.67 42.53L81.3 35.67L80.09 35.38Z" fill="#579ADF" fill-opacity="1.000000" fill-rule="nonzero"/>
		</g>
	</g>
	<rect id="helmet_red" width="30.687067" height="31.986151" transform="matrix(-1 0 0 1 56.7712 0)" fill="#FFFFFF" fill-opacity="0"/>
	<g clip-path="url(#clip187_13957)">
		<g filter="url(#filter_187_13959_dd)">
			<path id="Vector" d="M34.17 22.67C33.86 23.93 33.55 25.19 33.24 26.45C36.07 28.07 39.65 28.98 44.15 28.98L44.15 23.77L34.17 22.67Z" fill="#535353" fill-opacity="1.000000" fill-rule="evenodd"/>
			<path id="Vector" d="M54.13 22.67C54.44 23.93 54.75 25.19 55.06 26.45C52.22 28.07 48.65 28.98 44.15 28.98L44.15 23.77L54.13 22.67Z" fill="#676767" fill-opacity="1.000000" fill-rule="evenodd"/>
			<path id="Vector" d="M46.38 9.11C52.86 3.38 40.61 3.92 37.16 1.02C36.92 1.26 36.77 1.55 36.74 1.86C36.72 2.16 36.81 2.46 37.01 2.73C35.47 3.68 32.78 2.38 31.32 4.21C32.98 4.13 33.98 4.63 34.6 5.3C30.06 4.77 31.83 7.97 27.95 8.15C30.84 9.37 37.63 7.02 41.83 9.88C43.73 9.83 44.49 9.16 46.38 9.11Z" fill="#1B2241" fill-opacity="1.000000" fill-rule="evenodd"/>
			<path id="Vector" d="M27.96 8.1C30.82 9.36 37.56 6.95 41.72 9.88C42.5 9.85 43.26 9.72 43.98 9.49C38.53 4.67 33.69 8.95 27.95 8.1L27.96 8.1Z" fill="#1A1A1A" fill-opacity="1.000000" fill-rule="evenodd"/>
			<path id="Vector" d="M46 8.62C45.26 8.68 44.52 8.81 43.82 9.02L43.77 9.03C44.02 8.76 44.26 8.49 44.49 8.21C46.64 6.39 42.13 4.23 39.39 3.79C38.41 4.43 36.89 4.13 36.11 4.57C36.78 5.11 37.2 6.05 37.87 6.59C30.19 5.82 33.69 7.66 30 8.02C30.25 7.9 30.47 7.75 30.67 7.58C31.91 6.53 31.72 5.39 34.41 5.69L35.91 5.86C35.65 5.59 35.38 5.32 35.11 5.04C34.5 4.41 33.59 3.98 32.56 3.84C32.8 3.73 33.07 3.66 33.34 3.63C33.61 3.6 33.87 3.58 34.14 3.58C35.34 3.56 36.48 3.63 37.43 3.06L37.78 2.84C37.71 2.75 37.64 2.65 37.58 2.56C37.42 2.35 37.35 2.11 37.39 1.87C38.62 2.57 40.33 3.04 41.79 3.42C42.95 3.73 44.16 4.04 45.26 4.42C46.04 4.69 46.91 5.07 47.32 5.59C48.07 6.55 46.91 7.8 46 8.62Z" fill="#4386BB" fill-opacity="1.000000" fill-rule="evenodd"/>
			<path id="Vector" d="M44.92 8.75C44.54 8.82 44.15 8.91 43.78 9.02L43.73 9.03C43.97 8.76 44.21 8.48 44.44 8.21C46.58 6.37 42.08 4.2 39.36 3.76C38.38 4.4 36.86 4.09 36.09 4.54C36.76 5.09 37.17 6.03 37.84 6.58C30.19 5.8 33.67 7.66 30 8.02C31.91 7.64 31.88 6.29 32.96 5.96C34.05 5.64 35.49 6.39 36.58 6.06C36.47 5.44 35.95 4.93 35.19 4.15C36.24 3.67 38.88 4.1 38.33 2.72C40.68 4.67 48.26 3.86 45.38 8.58L44.92 8.75Z" fill="#283A84" fill-opacity="1.000000" fill-rule="evenodd"/>
			<path id="Vector" d="M40.74 10.48C40.74 11.75 42.31 12.78 44.24 12.78C46.17 12.78 47.73 11.75 47.73 10.48C47.73 9.21 46.17 8.18 44.24 8.18C42.31 8.18 40.74 9.21 40.74 10.48Z" fill="#CDCCCC" fill-opacity="1.000000" fill-rule="evenodd"/>
			<path id="Vector" d="M44.22 10.57C39.84 10.57 36.09 12.3 34.6 14.75C33.79 15.01 33.24 15.54 33.24 16.15C33.24 16.35 33.3 16.55 33.42 16.74C33.53 16.92 33.7 17.08 33.9 17.22C33.98 20.8 38.57 23.69 44.22 23.69C49.87 23.69 54.45 20.81 54.53 17.23C54.75 17.1 54.92 16.93 55.04 16.75C55.16 16.56 55.23 16.35 55.23 16.15C55.23 15.53 54.66 14.99 53.84 14.73C52.33 12.29 48.6 10.57 44.22 10.57Z" fill="#8B8A8A" fill-opacity="1.000000" fill-rule="evenodd"/>
			<path id="Vector" d="M45.86 20.28C42 20.28 38.87 18.3 38.87 15.85C38.87 13.4 42.01 11.42 45.86 11.42C49.7 11.42 52.85 13.4 52.85 15.85C52.85 18.3 49.71 20.28 45.86 20.28Z" fill="#989898" fill-opacity="1.000000" fill-rule="evenodd"/>
			<path id="Vector" d="M47.99 15.34C46.53 15.34 45.34 14.57 45.34 13.63C45.34 12.7 46.53 11.93 47.99 11.93C49.44 11.93 50.63 12.69 50.63 13.63C50.63 14.57 49.43 15.34 47.99 15.34Z" fill="#ACACAC" fill-opacity="1.000000" fill-rule="evenodd"/>
			<path id="Vector" d="M44.15 14.32L44.25 14.32C45.64 14.31 47.03 14.5 48.33 14.87L55.91 17.02L55.91 23.44C52.6 26.37 48.73 28.67 44.15 30.17L44.15 14.32Z" fill="#CDCCCC" fill-opacity="1.000000" fill-rule="evenodd"/>
			<path id="Vector" d="M45.86 15.34C46.46 15.41 47.05 15.54 47.62 15.71L49.08 16.12L49.08 26.86C48.05 27.45 46.98 27.99 45.86 28.47L45.86 15.34L45.86 15.34ZM49.76 16.32L52.02 16.97L52.02 24.94C51.31 25.46 50.55 25.97 49.76 26.45L49.76 16.32ZM52.7 17.17L54.21 17.6L54.21 23.17C53.73 23.59 53.22 24.01 52.7 24.42L52.7 17.17Z" fill="#333333" fill-opacity="1.000000" fill-rule="evenodd"/>
			<path id="Vector" d="M44.15 14.32L44.05 14.32C42.66 14.31 41.28 14.5 39.98 14.87L32.39 17.02L32.39 23.44C35.71 26.37 39.57 28.67 44.15 30.17L44.15 14.32Z" fill="#B4B4B4" fill-opacity="1.000000" fill-rule="evenodd"/>
			<path id="Vector" d="M42.45 15.34C41.83 15.42 41.22 15.54 40.64 15.71L39.16 16.12L39.16 26.86C40.2 27.45 41.3 27.99 42.44 28.47L42.44 15.34L42.45 15.34ZM38.46 16.32L36.15 16.97L36.15 24.94C36.88 25.46 37.65 25.97 38.46 26.45L38.46 16.32ZM35.46 17.17L33.92 17.6L33.92 23.17C34.41 23.59 34.93 24.01 35.46 24.42L35.46 17.17Z" fill="#1A1A1A" fill-opacity="1.000000" fill-rule="evenodd"/>
			<path id="Vector" d="M45.12 8.69C44.46 8.69 44.15 9 44.42 9.37C44.58 9.57 44.83 9.74 45.12 9.86C45.41 9.98 45.74 10.05 46.08 10.05C46.74 10.05 47.05 9.75 46.78 9.37C46.61 9.17 46.37 9 46.08 8.88C45.79 8.76 45.46 8.7 45.12 8.69Z" fill="#E3E3E3" fill-opacity="1.000000" fill-rule="evenodd"/>
		</g>
	</g>
	<rect id="sword_red" width="28.994165" height="52.065720" transform="matrix(-1 0 0 1 28.9941 0)" fill="#FFFFFF" fill-opacity="0"/>
	<g clip-path="url(#clip187_13975)">
		<g filter="url(#filter_187_13977_dd)">
			<path id="Vector" d="M28.59 47.46L28.46 47.53C28.3 47.61 28.13 47.66 27.95 47.66C27.78 47.67 27.6 47.63 27.44 47.55C27.28 47.48 27.14 47.37 27.03 47.23C26.92 47.1 26.84 46.94 26.81 46.77C26.49 45.4 25.87 43.72 24.97 41.99C24.08 40.26 23.08 38.78 22.15 37.73C22.03 37.6 21.95 37.44 21.9 37.27C21.85 37.1 21.85 36.93 21.88 36.75C21.91 36.58 21.98 36.42 22.08 36.28C22.19 36.14 22.32 36.02 22.48 35.94L22.62 35.87L22.05 34.77L19.38 36.15L16.71 37.52L17.28 38.62L17.42 38.55C17.58 38.47 17.75 38.42 17.92 38.42C18.1 38.41 18.28 38.45 18.44 38.53C18.6 38.6 18.74 38.71 18.85 38.85C18.96 38.98 19.03 39.15 19.07 39.32C19.39 40.69 20.01 42.37 20.91 44.09C21.8 45.82 22.8 47.31 23.73 48.36C23.85 48.49 23.93 48.64 23.98 48.81C24.03 48.98 24.04 49.16 24 49.33C23.97 49.5 23.9 49.66 23.8 49.81C23.69 49.95 23.56 50.06 23.4 50.14L23.26 50.21L23.83 51.31L26.5 49.94L29.16 48.56L28.59 47.46Z" fill="#4592CF" fill-opacity="1.000000" fill-rule="evenodd"/>
			<path id="Vector" d="M21.8 38.37C21.36 38.6 21.97 40.69 23.17 43.03C24.36 45.37 25.69 47.09 26.12 46.86C26.55 46.63 25.95 44.54 24.76 42.2C23.56 39.86 22.24 38.14 21.8 38.37Z" fill="#283A84" fill-opacity="1.000000" fill-rule="evenodd"/>
			<path id="Vector" d="M2.39 3.4L3.82 11.48L17.16 37.33L21.49 35.1L8.15 9.25L2.39 3.4Z" fill="#D1D2D2" fill-opacity="1.000000" fill-rule="evenodd"/>
			<path id="Vector" d="M6.71 7.77L4.44 6.29L5.24 11.11L17.23 37.33L3.83 11.48L2.39 3.4L6.71 7.77Z" fill="#E6E6E5" fill-opacity="1.000000" fill-rule="evenodd"/>
			<path id="Vector" d="M6.14 10.74L12.45 23.61L18.75 36.48L19.44 36.13L20.12 35.78L13.13 23.26L6.14 10.74Z" fill="#818181" fill-opacity="1.000000" fill-rule="evenodd"/>
			<path id="Vector" d="M22.81 33.55L15.18 37.5C14.79 37.22 14.31 37.08 13.83 37.1C13.34 37.12 12.88 37.3 12.52 37.62C12.15 37.94 11.9 38.37 11.81 38.85C11.72 39.33 11.79 39.82 12.01 40.25C12.23 40.68 12.59 41.03 13.03 41.23C13.47 41.43 13.97 41.48 14.44 41.36C14.9 41.24 15.32 40.97 15.62 40.59C15.92 40.2 16.07 39.73 16.07 39.25L23.7 35.29C24.09 35.57 24.57 35.72 25.05 35.69C25.54 35.67 26 35.49 26.37 35.17C26.73 34.85 26.98 34.42 27.07 33.94C27.17 33.46 27.1 32.97 26.87 32.54C26.65 32.1 26.29 31.76 25.85 31.56C25.41 31.36 24.91 31.31 24.44 31.43C23.97 31.54 23.56 31.82 23.26 32.2C22.96 32.58 22.8 33.06 22.81 33.55Z" fill="#333333" fill-opacity="1.000000" fill-rule="evenodd"/>
		</g>
	</g>
	<g filter="url(#filter_187_13984_dd)">
		<path id="Disney (DIS)" d="M55.82 86.59C54.78 85.08 54.2 83.29 54.2 81.14C54.2 78.99 54.78 77.2 55.82 75.69L56.71 75.69C55.89 76.81 55.24 79.11 55.24 81.14C55.24 83.17 55.89 85.47 56.71 86.59L55.82 86.59ZM78.17 75.69C79.21 77.2 79.79 78.99 79.79 81.14C79.79 83.29 79.21 85.08 78.17 86.59L77.28 86.59C78.1 85.47 78.75 83.17 78.75 81.14C78.75 79.11 78.1 76.81 77.28 75.69L78.17 75.69ZM22.09 77.19C22.09 77.56 21.77 77.87 21.37 77.87C20.98 77.87 20.66 77.56 20.66 77.19C20.66 76.81 20.98 76.5 21.37 76.5C21.77 76.5 22.09 76.81 22.09 77.19ZM75.92 78.96L74.9 78.96C74.79 78.1 73.99 77.59 72.94 77.59C71.78 77.59 71.01 78.21 71.01 79.04C71.01 79.98 72.05 80.32 72.7 80.49L73.58 80.73C74.49 80.97 76.04 81.5 76.04 83.13C76.04 84.55 74.9 85.66 72.88 85.66C71.01 85.66 69.85 84.69 69.75 83.25L70.84 83.25C70.92 84.24 71.84 84.7 72.88 84.7C74.09 84.7 75.02 84.07 75.02 83.12C75.02 82.25 74.2 81.92 73.28 81.67L72.2 81.36C70.84 80.97 69.99 80.27 69.99 79.09C69.99 77.63 71.3 76.66 72.97 76.66C74.66 76.66 75.87 77.64 75.92 78.96ZM19.23 81.12C19.23 83.85 17.73 85.5 15.07 85.5L12.37 85.5L12.37 76.78L15.19 76.78C17.73 76.78 19.23 78.41 19.23 81.12ZM65.18 81.12C65.18 83.85 63.68 85.5 61.02 85.5L58.33 85.5L58.33 76.78L61.14 76.78C63.68 76.78 65.18 78.41 65.18 81.12ZM66.95 76.78L68.01 76.78L68.01 85.5L66.95 85.5L66.95 76.78ZM13.43 77.71L13.43 84.57L15 84.57C17.16 84.57 18.2 83.25 18.2 81.12C18.2 79.01 17.16 77.71 15.12 77.71L13.43 77.71ZM59.38 77.71L59.38 84.57L60.95 84.57C63.12 84.57 64.16 83.25 64.16 81.12C64.16 79.01 63.12 77.71 61.07 77.71L59.38 77.71ZM26.02 78.87C27.32 78.87 28.03 79.5 28.34 80.42L27.44 80.68C27.27 80.23 26.9 79.74 26.02 79.74C25.22 79.74 24.63 80.15 24.63 80.71C24.63 81.22 24.98 81.48 25.75 81.67L26.72 81.91C27.89 82.19 28.46 82.77 28.46 83.68C28.46 84.81 27.43 85.64 25.91 85.64C24.57 85.64 23.65 85.05 23.42 83.94L24.37 83.7C24.55 84.4 25.07 84.75 25.89 84.75C26.83 84.75 27.42 84.29 27.42 83.73C27.42 83.28 27.11 82.96 26.45 82.81L25.36 82.55C24.16 82.27 23.62 81.67 23.62 80.77C23.62 79.66 24.64 78.87 26.02 78.87ZM32.66 79.78C31.69 79.78 30.98 80.42 30.98 81.57L30.98 85.5L29.98 85.5L29.98 78.96L30.95 78.96L30.95 79.98L31.04 79.98C31.35 79.32 31.96 78.87 32.95 78.87C34.27 78.87 35.16 79.67 35.16 81.34L35.16 85.5L34.16 85.5L34.16 81.41C34.16 80.39 33.59 79.78 32.66 79.78ZM42.36 83.99C42.05 84.98 41.08 85.64 39.75 85.64C37.86 85.64 36.7 84.29 36.7 82.28C36.7 80.27 37.87 78.87 39.65 78.87C41.01 78.87 42.46 79.71 42.46 82.15L42.46 82.57L37.71 82.57C37.75 83.97 38.57 84.74 39.75 84.74C40.54 84.74 41.13 84.4 41.38 83.71L42.36 83.99ZM21.87 85.5L20.86 85.5L20.86 78.96L21.87 78.96L21.87 85.5ZM46.36 86.46C45.98 87.48 45.34 87.96 44.43 87.96C44.09 87.96 43.8 87.89 43.7 87.84L43.96 86.95C44.69 87.14 45.14 87.05 45.51 86.05L45.7 85.54L43.28 78.96L44.37 78.96L46.17 84.17L46.24 84.17L48.05 78.96L49.14 78.96L46.36 86.46ZM39.65 79.78C38.49 79.78 37.77 80.68 37.71 81.7L41.44 81.7C41.44 80.59 40.74 79.78 39.65 79.78Z" fill="#FFFFFF" fill-opacity="1.000000" fill-rule="evenodd"/>
	</g>
</svg>
