<svg width="180.000000" height="167.085571" viewBox="0 0 180 167.086" fill="none" xmlns="http://www.w3.org/2000/svg" xmlns:xlink="http://www.w3.org/1999/xlink">
	<desc>
			Created with Pixso.
	</desc>
	<defs>
		<clipPath id="clip187_10567">
			<rect id="disney" rx="47" ry="47" width="93.903412" height="93.903404" transform="translate(41.458984 48.451172)" fill="white" fill-opacity="0"/>
		</clipPath>
		<filter id="filter_187_10570_dd" x="111.486328" y="57.711914" width="52.913086" height="62.307251" filterUnits="userSpaceOnUse" color-interpolation-filters="sRGB">
			<feFlood flood-opacity="0" result="BackgroundImageFix"/>
			<feColorMatrix in="SourceAlpha" type="matrix" values="0 0 0 0 0 0 0 0 0 0 0 0 0 0 0 0 0 0 127 0" result="hardAlpha"/>
			<feOffset dx="-4" dy="4"/>
			<feGaussianBlur stdDeviation="1.33333"/>
			<feComposite in2="hardAlpha" operator="out" k2="-1" k3="1"/>
			<feColorMatrix type="matrix" values="0 0 0 0 0 0 0 0 0 0 0 0 0 0 0 0 0 0 0.25 0"/>
			<feBlend mode="normal" in2="BackgroundImageFix" result="effect_dropShadow_1"/>
			<feBlend mode="normal" in="SourceGraphic" in2="effect_dropShadow_1" result="shape"/>
		</filter>
		<filter id="filter_187_10571_dd" x="125.327148" y="58.295776" width="39.072754" height="61.723389" filterUnits="userSpaceOnUse" color-interpolation-filters="sRGB">
			<feFlood flood-opacity="0" result="BackgroundImageFix"/>
			<feColorMatrix in="SourceAlpha" type="matrix" values="0 0 0 0 0 0 0 0 0 0 0 0 0 0 0 0 0 0 127 0" result="hardAlpha"/>
			<feOffset dx="-4" dy="4"/>
			<feGaussianBlur stdDeviation="1.33333"/>
			<feComposite in2="hardAlpha" operator="out" k2="-1" k3="1"/>
			<feColorMatrix type="matrix" values="0 0 0 0 0 0 0 0 0 0 0 0 0 0 0 0 0 0 0.25 0"/>
			<feBlend mode="normal" in2="BackgroundImageFix" result="effect_dropShadow_1"/>
			<feBlend mode="normal" in="SourceGraphic" in2="effect_dropShadow_1" result="shape"/>
		</filter>
		<clipPath id="clip187_10569">
			<rect id="shield-antivirus-svgrepo-com 1" width="72.437248" height="72.437248" transform="translate(109.539551 39.911133) rotate(-13.416809)" fill="white" fill-opacity="0"/>
		</clipPath>
		<filter id="filter_187_10574_dd" x="46.532227" y="-3.931763" width="76.532227" height="78.944946" filterUnits="userSpaceOnUse" color-interpolation-filters="sRGB">
			<feFlood flood-opacity="0" result="BackgroundImageFix"/>
			<feColorMatrix in="SourceAlpha" type="matrix" values="0 0 0 0 0 0 0 0 0 0 0 0 0 0 0 0 0 0 127 0" result="hardAlpha"/>
			<feOffset dx="0" dy="4"/>
			<feGaussianBlur stdDeviation="3.33333"/>
			<feComposite in2="hardAlpha" operator="out" k2="-1" k3="1"/>
			<feColorMatrix type="matrix" values="0 0 0 0 0 0 0 0 0 0 0 0 0 0 0 0 0 0 0.5 0"/>
			<feBlend mode="normal" in2="BackgroundImageFix" result="effect_dropShadow_1"/>
			<feBlend mode="normal" in="SourceGraphic" in2="effect_dropShadow_1" result="shape"/>
		</filter>
		<clipPath id="clip187_10572">
			<rect id="helmet_red" width="62.047245" height="64.673912" transform="matrix(-1 0 0 1 114.788 0)" fill="white" fill-opacity="0"/>
		</clipPath>
		<filter id="filter_187_10592_dd" x="-5.150391" y="0.894165" width="74.119629" height="116.862671" filterUnits="userSpaceOnUse" color-interpolation-filters="sRGB">
			<feFlood flood-opacity="0" result="BackgroundImageFix"/>
			<feColorMatrix in="SourceAlpha" type="matrix" values="0 0 0 0 0 0 0 0 0 0 0 0 0 0 0 0 0 0 127 0" result="hardAlpha"/>
			<feOffset dx="0" dy="4"/>
			<feGaussianBlur stdDeviation="3.33333"/>
			<feComposite in2="hardAlpha" operator="out" k2="-1" k3="1"/>
			<feColorMatrix type="matrix" values="0 0 0 0 0 0 0 0 0 0 0 0 0 0 0 0 0 0 0.5 0"/>
			<feBlend mode="normal" in2="BackgroundImageFix" result="effect_dropShadow_1"/>
			<feBlend mode="normal" in="SourceGraphic" in2="effect_dropShadow_1" result="shape"/>
		</filter>
		<clipPath id="clip187_10590">
			<rect id="sword_red" width="58.624310" height="105.273491" transform="matrix(-1 0 0 1 58.6245 0)" fill="white" fill-opacity="0"/>
		</clipPath>
		<filter id="filter_187_10599_dd" x="56.655273" y="150.813110" width="71.413086" height="16.272461" filterUnits="userSpaceOnUse" color-interpolation-filters="sRGB">
			<feFlood flood-opacity="0" result="BackgroundImageFix"/>
			<feColorMatrix in="SourceAlpha" type="matrix" values="0 0 0 0 0 0 0 0 0 0 0 0 0 0 0 0 0 0 127 0" result="hardAlpha"/>
			<feOffset dx="0" dy="2"/>
			<feGaussianBlur stdDeviation="0.666667"/>
			<feComposite in2="hardAlpha" operator="out" k2="-1" k3="1"/>
			<feColorMatrix type="matrix" values="0 0 0 0 0 0 0 0 0 0 0 0 0 0 0 0 0 0 0.5 0"/>
			<feBlend mode="normal" in2="BackgroundImageFix" result="effect_dropShadow_1"/>
			<feBlend mode="normal" in="SourceGraphic" in2="effect_dropShadow_1" result="shape"/>
		</filter>
	</defs>
	<rect id="disney" rx="47" ry="47" width="93.903412" height="93.903404" transform="translate(41.458984 48.451172)" fill="#000000" fill-opacity="1.000000"/>
	<g clip-path="url(#clip187_10567)">
		<path id="disney" d="M112.727 96.5892C111.507 96.8707 108.285 97.0271 108.285 97.0271L107.889 98.2991C107.889 98.2991 109.484 98.1636 110.652 98.2782C110.652 98.2782 111.027 98.2469 111.069 98.6953C111.09 99.1541 111.038 99.6337 111.038 99.6337C111.038 99.6337 111.007 99.9152 110.621 99.9882C110.172 100.061 107.149 100.197 107.149 100.197L106.659 101.844C106.659 101.844 106.481 102.219 106.888 102.115C107.264 102.011 110.433 101.406 110.85 101.49C111.288 101.594 111.789 102.198 111.643 102.741C111.476 103.397 108.306 105.42 106.388 105.285C106.388 105.285 105.376 105.347 104.532 103.981C103.719 102.678 104.813 100.228 104.813 100.228C104.813 100.228 104.323 99.0811 104.688 98.6639C104.688 98.6639 104.897 98.4867 105.522 98.4346L106.304 96.829C106.304 96.829 105.418 96.8811 104.897 96.2347C104.417 95.6091 104.375 95.338 104.751 95.1713C105.147 94.9628 108.817 94.3059 111.34 94.3893C111.34 94.3893 112.227 94.285 113.008 95.8176C113.008 95.8176 113.363 96.4432 112.737 96.5892L112.727 96.5892ZM103.218 102.761C102.906 103.523 102.04 104.325 100.998 103.835C99.9341 103.335 98.2554 99.9152 98.2554 99.9152C98.2554 99.9152 97.6299 98.6432 97.5049 98.6848C97.5049 98.6848 97.3691 98.4346 97.2964 99.8317C97.1919 101.218 97.3174 103.919 96.7437 104.346C96.2222 104.763 95.5967 104.586 95.2422 104.096C94.9502 103.606 94.8252 102.428 94.9922 100.374C95.1797 98.3199 95.6489 96.1305 96.2432 95.4528C96.8687 94.7646 97.3691 95.2651 97.5571 95.4528C97.5571 95.4528 98.3599 96.1826 99.7153 98.3408L99.9443 98.7369C99.9443 98.7369 101.175 100.791 101.3 100.781C101.3 100.781 101.404 100.885 101.488 100.801C101.613 100.77 101.571 100.103 101.571 100.103C101.571 100.103 101.342 97.8821 100.195 94.1287C100.195 94.1287 100.028 93.649 100.143 93.1903C100.247 92.7732 100.695 92.9818 100.695 92.9818C100.695 92.9818 102.426 93.8159 103.271 96.6309C104.104 99.4459 103.542 102 103.229 102.761L103.218 102.761ZM94.7314 95.5361C94.5645 95.8281 94.4917 96.2347 93.7725 96.3494C93.7725 96.3494 86.7866 96.8395 86.4429 97.3295C86.4429 97.3295 86.2134 97.6213 86.5889 97.6943C86.9849 97.7778 88.5698 97.9863 89.3203 98.028C90.1338 98.028 92.8652 98.0488 93.8662 99.2792C93.8662 99.2792 94.4395 99.863 94.4185 101.187C94.3979 102.542 94.1582 103.022 93.6265 103.512C93.0737 103.971 88.3403 106.098 85.2856 102.845C85.2856 102.845 83.8882 101.281 85.7754 100.092C85.7754 100.092 87.1309 99.2583 90.6025 100.228C90.6025 100.228 91.6455 100.603 91.6035 100.989C91.541 101.406 90.7383 101.823 89.5708 101.802C88.4443 101.771 87.6104 101.229 87.7773 101.323C87.9336 101.375 86.5576 100.655 86.1299 101.145C85.7129 101.604 85.8174 101.875 86.2344 102.157C87.2769 102.761 91.3745 102.542 92.5942 101.177C92.5942 101.177 93.084 100.624 92.3438 100.176C91.6143 99.7588 89.4873 99.498 88.6636 99.4668C87.8813 99.425 84.9517 99.4668 84.5142 98.7057C84.5142 98.7057 84.0967 98.1636 84.5557 96.683C85.0352 95.1191 88.4443 94.5144 89.9253 94.3893C89.9253 94.3893 93.9912 94.2225 94.7524 95.0565C94.7524 95.0565 94.8564 95.2443 94.7314 95.5258L94.7314 95.5361ZM83.2002 104.701C82.71 105.066 81.6675 104.909 81.3652 104.492C81.0732 104.127 80.9692 102.688 81.021 100.426C81.0942 98.1115 81.1255 95.2755 81.647 94.8168C82.168 94.3684 82.481 94.7646 82.6895 95.067C82.8979 95.3798 83.1689 95.7239 83.2104 96.4432C83.2734 97.1731 83.4507 100.926 83.4507 100.926C83.4507 100.926 83.6797 104.346 83.2104 104.701L83.2002 104.701ZM84.2427 92.5022C82.8042 92.9922 81.8242 92.8358 80.9897 92.4709C80.625 93.1277 80.4062 93.3258 80.1348 93.3676C79.7178 93.4093 79.353 92.7419 79.3008 92.5334C79.2173 92.3771 79.0195 92.0956 79.2593 91.4596C78.4458 90.7297 78.3833 89.7496 78.5293 89.0929C78.7168 88.3213 80.0933 85.4229 84.2637 85.0789C84.2637 85.0789 86.3071 84.9329 86.6616 86.0172L86.7241 86.0172C86.7241 86.0172 88.7051 86.0172 88.6636 87.7896C88.6636 89.562 86.4741 91.7723 84.2427 92.5334L84.2427 92.5022ZM86.0986 87.4559C84.7852 87.6644 82.7622 89.416 81.7925 90.8652C83.2837 91.1364 85.8901 91.0321 87.0581 88.6758C87.0581 88.6758 87.6104 87.1953 86.0986 87.4559ZM80.333 88.6028C79.916 89.2805 79.895 89.6871 80.0933 89.9583C80.5835 89.2284 81.4487 88.0815 82.752 87.1848C81.751 87.2892 80.9062 87.7062 80.333 88.6028ZM115.855 104.628C114.896 106.984 114.083 109.372 113.613 112.948C113.613 112.948 113.509 113.646 112.936 113.417C112.362 113.208 111.424 112.27 111.215 110.946C111.007 109.215 111.778 106.296 113.353 102.939C112.894 102.209 112.57 101.125 112.831 99.6023C112.831 99.6023 113.248 96.7874 116.063 94.2433C116.063 94.2433 116.397 93.9618 116.584 94.0557C116.814 94.1599 116.72 95.0565 116.532 95.5153C116.366 95.9532 115.114 98.1218 115.114 98.1218C115.114 98.1218 114.333 99.6023 114.551 100.76C116.032 98.4867 119.399 93.8784 121.485 95.338C122.809 96.2764 122.809 99.2999 121.818 101.052C121.037 102.438 118.826 105.305 115.875 104.638L115.855 104.628ZM120.213 97.5483C119.441 98.3824 118.065 99.9673 116.981 102.115C118.127 101.99 119.243 101.354 119.587 101.031C120.14 100.541 121.412 99.2166 121.214 97.465C121.214 97.465 121.089 96.5475 120.213 97.5483ZM73.5039 105.858C69.813 106.984 66.3311 106.463 64.4331 105.962C64.3813 106.734 64.2979 107.057 64.1729 107.182C64.0269 107.349 62.8174 108.037 62.1499 107.057C61.8579 106.588 61.7119 105.743 61.6284 104.972C57.354 103.032 55.373 100.176 55.3105 100.072C55.2061 99.9673 54.2363 98.9559 55.2061 97.7048C56.1133 96.5787 59.1162 95.4424 61.8057 94.994C61.9102 92.7003 62.1602 90.9279 62.4834 90.1459C62.8691 89.2075 63.3594 90.0416 63.7974 90.6672C64.1519 91.1364 64.3706 93.1486 64.3916 94.7542C66.1431 94.6708 67.2065 94.7959 69.1562 95.1713C71.7212 95.6091 73.4312 96.9229 73.2954 98.4033C73.1704 99.863 71.8359 100.468 71.3145 100.509C70.793 100.551 69.959 100.165 69.959 100.165C69.375 99.8943 69.9067 99.644 70.5845 99.3522C71.3354 98.9872 71.1685 98.6223 71.1685 98.6223C70.8975 97.7882 67.5713 97.2356 64.2666 97.2356C64.2666 99.0602 64.3394 102.084 64.3916 103.846C66.7061 104.284 68.437 104.19 68.437 104.19C68.437 104.19 76.8818 103.95 77.1216 98.5597C77.3823 93.1591 68.6768 87.9877 62.2646 86.3612C55.8628 84.6826 52.2349 85.8712 51.9219 86.0276C51.5781 86.1943 51.8906 86.257 51.8906 86.257C51.8906 86.257 52.2349 86.3091 52.8604 86.5176C53.4858 86.7261 52.9854 87.0389 52.9854 87.0389C51.8906 87.4143 50.6709 87.1953 50.4312 86.6948C50.1914 86.2048 50.5874 85.7565 51.0566 85.0996C51.4946 84.422 51.9951 84.4429 51.9951 84.4429C59.9189 81.6799 69.5942 86.6323 69.5942 86.6323C78.644 91.199 80.187 96.5684 80.0205 98.6536C79.8745 100.708 79.082 104.179 73.5039 105.868L73.5039 105.858ZM56.0923 98.4033C55.1958 98.8204 55.8213 99.4877 55.8213 99.4877C57.5103 101.291 59.5747 102.428 61.5557 103.137C61.7852 100.009 61.7642 98.8933 61.7642 97.319C58.6987 97.5276 56.9263 98.028 56.0923 98.4033Z" fill="#FFFFFF" fill-opacity="1.000000" fill-rule="nonzero"/>
	</g>
	<rect id="disney" rx="47" ry="47" width="93.903412" height="93.903404" transform="translate(41.458984 48.451172)" stroke="#CDCCCC" stroke-opacity="1.000000" stroke-width="1.000000"/>
	<rect id="shield-antivirus-svgrepo-com 1" width="72.437248" height="72.437248" transform="translate(109.539551 39.911133) rotate(-13.416809)" fill="#FFFFFF" fill-opacity="0"/>
	<g clip-path="url(#clip187_10569)">
		<g filter="url(#filter_187_10570_dd)">
			<path id="Vector" d="M133.329 112.019L132.088 110.433C125.284 101.7 116.819 90.8353 120.292 76.2769L123.601 62.4054L126.049 62.9893C134.888 65.0977 142.473 62.8289 143.693 57.7119L148.589 58.8798C147.369 63.9967 153.113 69.4453 161.952 71.5536L164.399 72.1376L161.091 86.009C157.618 100.568 145.16 106.441 135.15 111.161L133.329 112.019Z" fill="#7AB9E8" fill-opacity="1.000000" fill-rule="nonzero"/>
		</g>
		<g filter="url(#filter_187_10571_dd)">
			<path id="Vector" d="M161.952 71.5536C153.113 69.4453 147.369 63.9967 148.589 58.8798L146.142 58.2958L133.327 112.016L133.329 112.019L135.15 111.161C145.16 106.441 157.618 100.568 161.091 86.009L164.4 72.1376L161.952 71.5536Z" fill="#579ADF" fill-opacity="1.000000" fill-rule="nonzero"/>
		</g>
	</g>
	<rect id="helmet_red" width="62.047245" height="64.673912" transform="matrix(-1 0 0 1 114.788 0)" fill="#FFFFFF" fill-opacity="0"/>
	<g clip-path="url(#clip187_10572)">
		<g filter="url(#filter_187_10574_dd)">
			<path id="Vector" d="M69.0933 45.8459C68.4658 48.3943 67.8408 50.9406 67.2188 53.4847C72.9507 56.7651 80.188 58.597 89.2798 58.6001L89.2798 48.0796L69.0933 45.8459Z" fill="#535353" fill-opacity="1.000000" fill-rule="evenodd"/>
			<path id="Vector" d="M109.45 45.8459C110.085 48.3943 110.716 50.9406 111.341 53.4847C105.596 56.7651 98.3755 58.597 89.2798 58.6001L89.2798 48.0796L109.45 45.8459Z" fill="#676767" fill-opacity="1.000000" fill-rule="evenodd"/>
			<path id="Vector" d="M93.7915 18.4207C106.888 6.83875 82.124 7.93628 75.1455 2.06824C74.6528 2.55823 74.3604 3.14734 74.3052 3.76233C74.25 4.37744 74.4341 4.99121 74.8345 5.52734C71.7368 7.4519 66.29 4.82617 63.3369 8.51489C66.6836 8.37024 68.7212 9.37341 69.9639 10.7162C60.7856 9.6532 64.3765 16.1218 56.5322 16.4867C62.376 18.9615 76.1021 14.21 84.5884 19.993C88.4199 19.8861 89.9604 18.537 93.7915 18.4207Z" fill="#1B2241" fill-opacity="1.000000" fill-rule="evenodd"/>
			<path id="Vector" d="M56.5366 16.3796C62.3218 18.9358 75.9468 14.0653 84.3711 19.9929C85.939 19.9264 87.4814 19.655 88.9351 19.1904C77.9165 9.45923 68.1392 18.0977 56.5327 16.3796L56.5366 16.3796Z" fill="#1A1A1A" fill-opacity="1.000000" fill-rule="evenodd"/>
			<path id="Vector" d="M93.0273 17.4368C91.5146 17.5546 90.0312 17.8264 88.6187 18.2446L88.5186 18.2694C89.0122 17.7184 89.4976 17.1675 89.9741 16.6165C94.3081 12.9297 85.187 8.56812 79.6553 7.67346C77.6631 8.9613 74.5938 8.35144 73.0215 9.25537C74.3774 10.3511 75.2178 12.2456 76.5776 13.3414C61.0474 11.7689 68.1221 15.5083 60.6689 16.2325C61.1704 15.9789 61.6265 15.6782 62.0249 15.338C64.5205 13.2175 64.1504 10.9021 69.5903 11.5212L72.6182 11.8649C72.083 11.3118 71.5439 10.7598 71.0005 10.2087C69.7739 8.92896 67.9277 8.05334 65.8511 7.76636C66.3384 7.55444 66.8745 7.4126 67.4316 7.34851C67.9634 7.28857 68.4995 7.25659 69.0371 7.25256C71.458 7.20923 73.7661 7.35156 75.6919 6.19385L76.4072 5.75745C76.2656 5.56543 76.1201 5.37671 75.9912 5.18787C75.6694 4.76404 75.5342 4.27576 75.6045 3.79175C78.1001 5.2002 81.5522 6.14746 84.5093 6.93372C86.8506 7.55273 89.3091 8.17188 91.5298 8.94263C93.0977 9.49365 94.8569 10.2583 95.689 11.3046C97.1987 13.2548 94.8652 15.7899 93.0273 17.4368Z" fill="#4386BB" fill-opacity="1.000000" fill-rule="evenodd"/>
			<path id="Vector" d="M90.8457 17.6932C90.0586 17.8473 89.2827 18.0312 88.5205 18.2446L88.4209 18.2695C88.9126 17.715 89.3965 17.1605 89.8716 16.606C94.1899 12.8956 85.1011 8.5061 79.5889 7.60571C77.6035 8.90173 74.5449 8.28796 72.978 9.19775C74.3296 10.3005 75.1665 12.2072 76.522 13.3099C61.0459 11.7273 68.0957 15.4907 60.6689 16.2196C64.5356 15.4626 64.4653 12.7274 66.6621 12.0701C68.8584 11.4127 71.7598 12.9268 73.9731 12.2694C73.7407 11.0015 72.6924 9.97034 71.167 8.39709C73.2852 7.43445 78.6274 8.29431 77.5166 5.51538C82.2705 9.4563 97.5845 7.82385 91.7739 17.3536L90.8457 17.6932Z" fill="#283A84" fill-opacity="1.000000" fill-rule="evenodd"/>
			<path id="Vector" d="M82.3853 21.1995C82.3853 23.7695 85.5488 25.853 89.4517 25.853C93.3545 25.853 96.5181 23.7695 96.5181 21.1995C96.5181 18.6294 93.3545 16.5459 89.4517 16.5459C85.5488 16.5459 82.3853 18.6294 82.3853 21.1995Z" fill="#CDCCCC" fill-opacity="1.000000" fill-rule="evenodd"/>
			<path id="Vector" d="M89.4209 21.3718C80.5615 21.3718 72.9917 24.8843 69.9634 29.839C68.3374 30.3612 67.2183 31.4368 67.2183 32.6677C67.2266 33.0769 67.3501 33.4802 67.5811 33.8514C67.8115 34.2225 68.1445 34.5532 68.5576 34.8218C68.7075 42.0674 77.9912 47.9143 89.4209 47.9143C100.851 47.9143 110.101 42.0798 110.275 34.8529C110.708 34.5833 111.057 34.2477 111.3 33.8685C111.543 33.4894 111.675 33.0756 111.686 32.6553C111.686 31.4119 110.529 30.3146 108.866 29.8018C105.825 24.8594 98.2676 21.3718 89.4209 21.3718Z" fill="#8B8A8A" fill-opacity="1.000000" fill-rule="evenodd"/>
			<path id="Vector" d="M92.7266 41.0201C84.9365 41.0201 78.5933 37.0024 78.5933 32.0577C78.5933 27.1129 84.9492 23.0953 92.7266 23.0953C100.504 23.0953 106.859 27.1129 106.859 32.0577C106.859 37.0024 100.521 41.0201 92.7266 41.0201Z" fill="#989898" fill-opacity="1.000000" fill-rule="evenodd"/>
			<path id="Vector" d="M97.0356 31.0237C94.0908 31.0237 91.6924 29.474 91.6924 27.5765C91.6924 25.6791 94.0908 24.1295 97.0356 24.1295C99.98 24.1295 102.378 25.6759 102.378 27.5765C102.378 29.4772 99.9551 31.0237 97.0356 31.0237Z" fill="#ACACAC" fill-opacity="1.000000" fill-rule="evenodd"/>
			<path id="Vector" d="M89.2798 28.9556L89.4819 28.9556C92.2998 28.9447 95.0972 29.3254 97.7363 30.0791L113.064 34.4316L113.064 47.4014C106.358 53.337 98.5371 57.9855 89.2798 61.0131L89.2798 28.9556Z" fill="#CDCCCC" fill-opacity="1.000000" fill-rule="evenodd"/>
			<path id="Vector" d="M92.7266 31.0237C93.9478 31.1782 95.1465 31.4268 96.3042 31.7656L99.2427 32.6117L99.2427 54.3174C97.1689 55.5129 94.9932 56.5984 92.7305 57.5662L92.7305 31.0237L92.7266 31.0237ZM100.623 33.0095L105.193 34.326L105.193 50.4277C103.748 51.4917 102.226 52.5209 100.623 53.4996L100.623 33.0095ZM106.569 34.7207L109.617 35.5984L109.617 46.8569C108.64 47.7157 107.624 48.5576 106.569 49.3827L106.569 34.7207Z" fill="#333333" fill-opacity="1.000000" fill-rule="evenodd"/>
			<path id="Vector" d="M89.2798 28.9554L89.0776 28.9554C86.2666 28.9465 83.4766 29.3273 80.8438 30.079L65.4951 34.4285L65.4951 47.3982C72.2056 53.337 80.0269 57.9855 89.2798 61.0131L89.2798 28.9554Z" fill="#B4B4B4" fill-opacity="1.000000" fill-rule="evenodd"/>
			<path id="Vector" d="M85.8325 31.0237C84.5859 31.1787 83.3628 31.4272 82.1812 31.7656L79.1816 32.6117L79.1816 54.3174C81.2988 55.5122 83.5195 56.5977 85.8281 57.5662L85.8281 31.0237L85.8325 31.0237ZM77.7734 33.0095L73.1128 34.326L73.1128 50.4277C74.583 51.4917 76.1367 52.5209 77.7734 53.4996L77.7734 33.0095ZM71.7046 34.7207L68.5972 35.5984L68.5972 46.8569C69.5913 47.7157 70.627 48.5576 71.7046 49.3827L71.7046 34.7207Z" fill="#1A1A1A" fill-opacity="1.000000" fill-rule="evenodd"/>
			<path id="Vector" d="M91.2349 17.5801C89.9121 17.5801 89.2778 18.1989 89.8159 18.9589C90.1567 19.3649 90.646 19.7047 91.2363 19.9462C91.8267 20.1876 92.499 20.3224 93.1885 20.3378C94.5073 20.3378 95.1416 19.7218 94.603 18.9589C94.2622 18.5537 93.7734 18.2144 93.1841 17.973C92.5942 17.7317 91.9233 17.5964 91.2349 17.5801Z" fill="#E3E3E3" fill-opacity="1.000000" fill-rule="evenodd"/>
		</g>
	</g>
	<rect id="sword_red" width="58.624310" height="105.273491" transform="matrix(-1 0 0 1 58.6245 0)" fill="#FFFFFF" fill-opacity="0"/>
	<g clip-path="url(#clip187_10590)">
		<g filter="url(#filter_187_10592_dd)">
			<path id="Vector" d="M57.8208 95.9679L57.5444 96.1107C57.2314 96.2787 56.8833 96.3702 56.5283 96.3779C56.1733 96.3856 55.8213 96.3093 55.5015 96.1552C55.1772 96.0105 54.8916 95.7915 54.6675 95.5159C54.4438 95.2402 54.2881 94.9158 54.2134 94.5687C53.5786 91.7959 52.3096 88.4075 50.5044 84.9081C48.6987 81.4086 46.6714 78.4136 44.793 76.2911C44.5576 76.0266 44.3862 75.7119 44.291 75.3708C44.1958 75.0299 44.1802 74.6716 44.2446 74.3236C44.3091 73.9755 44.4526 73.6469 44.6636 73.3627C44.8745 73.0784 45.1479 72.8462 45.4624 72.6838L45.7417 72.541L44.5933 70.3202L39.1992 73.0995L33.8057 75.8755L34.9541 78.0963L35.2305 77.9536C35.5464 77.7882 35.896 77.6979 36.2524 77.6896C36.6089 77.6812 36.9629 77.755 37.2861 77.9054C37.6094 78.0557 37.894 78.2784 38.1172 78.5564C38.3408 78.8344 38.4971 79.16 38.5742 79.5082C39.209 82.278 40.478 85.6694 42.2832 89.1658C44.0889 92.662 46.1162 95.6602 47.9946 97.7827C48.23 98.0474 48.4014 98.3624 48.4966 98.7036C48.5918 99.0449 48.6074 99.4033 48.543 99.7517C48.4785 100.1 48.335 100.429 48.124 100.713C47.9131 100.998 47.6396 101.23 47.3252 101.393L47.0459 101.536L48.1943 103.757L53.5884 100.981L58.9692 98.1919L57.8208 95.9679Z" fill="#4592CF" fill-opacity="1.000000" fill-rule="evenodd"/>
			<path id="Vector" d="M44.0903 77.6008C43.2007 78.0649 44.436 82.2838 46.8535 87.0177C49.271 91.7516 51.9526 95.2169 52.8267 94.7527C53.7007 94.2886 52.481 90.0697 50.0635 85.3358C47.646 80.6019 44.98 77.1366 44.0903 77.6008Z" fill="#283A84" fill-opacity="1.000000" fill-rule="evenodd"/>
			<path id="Vector" d="M4.85059 6.89417L7.74121 23.2299L34.7085 75.4908L43.4575 70.9756L16.4902 18.7146L4.85059 6.89417Z" fill="#D1D2D2" fill-opacity="1.000000" fill-rule="evenodd"/>
			<path id="Vector" d="M13.5767 15.7181L8.98486 12.7281L10.5996 22.4736L34.8394 75.4908L7.75342 23.2299L4.84961 6.89417L13.5767 15.7181Z" fill="#E6E6E5" fill-opacity="1.000000" fill-rule="evenodd"/>
			<path id="Vector" d="M12.4336 21.7166L25.1758 47.7404L37.9204 73.7673L39.3115 73.0594L40.6997 72.3516L26.5669 47.0356L12.4336 21.7166Z" fill="#818181" fill-opacity="1.000000" fill-rule="evenodd"/>
			<path id="Vector" d="M46.1226 67.8369L30.6982 75.8408C29.9048 75.2667 28.9429 74.978 27.9663 75.0212C26.9902 75.0645 26.0571 75.437 25.3169 76.079C24.5771 76.7208 24.0737 77.5946 23.8882 78.5594C23.7026 79.5242 23.8452 80.5238 24.2935 81.3969C24.7422 82.27 25.4697 82.9659 26.3594 83.3723C27.249 83.7787 28.249 83.8718 29.1978 83.6368C30.1465 83.4017 30.9888 82.8523 31.5894 82.0768C32.1895 81.3014 32.5127 80.3452 32.5063 79.3625L47.9307 71.3586C48.7246 71.9343 49.6885 72.2241 50.6665 72.1814C51.6445 72.1387 52.5796 71.7659 53.3208 71.1232C54.0625 70.4803 54.5669 69.6052 54.7529 68.6388C54.939 67.6724 54.7964 66.671 54.3472 65.7963C53.8979 64.9216 53.1689 64.2246 52.2778 63.8177C51.3862 63.4108 50.3848 63.3177 49.4341 63.5535C48.4839 63.7893 47.6401 64.3402 47.0396 65.1173C46.4385 65.8945 46.1152 66.8525 46.1226 67.8369Z" fill="#333333" fill-opacity="1.000000" fill-rule="evenodd"/>
		</g>
	</g>
	<g filter="url(#filter_187_10599_dd)">
		<path id="Disney (DIS)" d="M102.103 161.72C101.063 160.206 100.483 158.416 100.483 156.268C100.483 154.118 101.063 152.331 102.103 150.813L102.991 150.813C102.17 151.938 101.523 154.238 101.523 156.268C101.523 158.296 102.17 160.595 102.991 161.72L102.103 161.72ZM124.451 150.813C125.488 152.331 126.068 154.118 126.068 156.268C126.068 158.416 125.488 160.206 124.451 161.72L123.564 161.72C124.381 160.595 125.028 158.296 125.028 156.268C125.028 154.238 124.381 151.938 123.564 150.813L124.451 150.813ZM68.3701 152.313C68.3701 152.688 68.0479 152.993 67.6553 152.993C67.2627 152.993 66.9375 152.688 66.9375 152.313C66.9375 151.938 67.2627 151.63 67.6553 151.63C68.0479 151.63 68.3701 151.938 68.3701 152.313ZM122.2 154.086L121.178 154.086C121.075 153.224 120.272 152.72 119.218 152.72C118.058 152.72 117.29 153.336 117.29 154.171C117.29 155.108 118.33 155.448 118.978 155.618L119.865 155.858C120.768 156.095 122.32 156.626 122.32 158.26C122.32 159.675 121.178 160.783 119.165 160.783C117.29 160.783 116.133 159.813 116.03 158.38L117.12 158.38C117.205 159.368 118.125 159.831 119.165 159.831C120.375 159.831 121.298 159.198 121.298 158.243C121.298 157.376 120.478 157.05 119.558 156.796L118.485 156.488C117.12 156.095 116.268 155.398 116.268 154.22C116.268 152.755 117.58 151.783 119.25 151.783C120.938 151.783 122.153 152.767 122.2 154.086ZM65.5078 156.251C65.5078 158.978 64.0078 160.63 61.3477 160.63L58.6553 160.63L58.6553 151.903L61.4678 151.903C64.0078 151.903 65.5078 153.541 65.5078 156.251ZM111.462 156.251C111.462 158.978 109.962 160.63 107.302 160.63L104.61 160.63L104.61 151.903L107.422 151.903C109.962 151.903 111.462 153.541 111.462 156.251ZM113.235 151.903L114.29 151.903L114.29 160.63L113.235 160.63L113.235 151.903ZM59.71 152.84L59.71 159.693L61.2803 159.693C63.4453 159.693 64.4854 158.38 64.4854 156.251C64.4854 154.135 63.4453 152.84 61.3975 152.84L59.71 152.84ZM105.665 152.84L105.665 159.693L107.235 159.693C109.4 159.693 110.44 158.38 110.44 156.251C110.44 154.135 109.4 152.84 107.352 152.84L105.665 152.84ZM72.3065 154.001C73.6044 154.001 74.3105 154.622 74.6269 155.55L73.7216 155.805C73.5487 155.354 73.1855 154.868 72.3065 154.868C71.5067 154.868 70.9091 155.278 70.9091 155.84C70.9091 156.344 71.2607 156.602 72.0341 156.796L73.0067 157.033C74.1757 157.32 74.744 157.894 74.744 158.805C74.744 159.936 73.7099 160.768 72.1894 160.768C70.8505 160.768 69.9335 160.173 69.6991 159.063L70.6542 158.823C70.8329 159.526 71.3485 159.88 72.1718 159.88C73.1093 159.88 73.7069 159.421 73.7069 158.858C73.7069 158.407 73.3935 158.09 72.7343 157.938L71.6444 157.68C70.4403 157.399 69.9042 156.796 69.9042 155.893C69.9042 154.783 70.9267 154.001 72.3065 154.001ZM78.9396 154.903C77.9758 154.903 77.2668 155.55 77.2668 156.693L77.2668 160.63L76.2619 160.63L76.2619 154.086L77.2346 154.086L77.2346 155.108L77.3195 155.108C77.6271 154.443 78.2394 154.001 79.2297 154.001C80.5539 154.001 81.4445 154.8 81.4445 156.47L81.4445 160.63L80.4396 160.63L80.4396 156.541C80.4396 155.512 79.8713 154.903 78.9396 154.903ZM88.6372 159.113C88.3295 160.103 87.3598 160.768 86.0297 160.768C84.1372 160.768 82.977 159.421 82.977 157.408C82.977 155.398 84.1547 154.001 85.9272 154.001C87.2895 154.001 88.7397 154.836 88.7397 157.273L88.7397 157.698L83.9877 157.698C84.0346 159.101 84.8491 159.863 86.0297 159.863C86.8178 159.863 87.4096 159.523 87.6645 158.84L88.6372 159.113ZM68.1475 160.63L67.1426 160.63L67.1426 154.086L68.1475 154.086L68.1475 160.63ZM92.6439 161.586C92.263 162.602 91.6244 163.086 90.7162 163.086C90.3763 163.086 90.0863 163.018 89.9837 162.965L90.2386 162.081C90.974 162.268 91.4252 162.174 91.7914 161.175L91.9789 160.666L89.5589 154.086L90.6488 154.086L92.4564 159.3L92.5238 159.3L94.3314 154.086L95.4212 154.086L92.6439 161.586ZM85.9272 154.903C84.7758 154.903 84.0551 155.811 83.9877 156.831L87.7172 156.831C87.7172 155.72 87.017 154.903 85.9272 154.903Z" fill="#FFFFFF" fill-opacity="1.000000" fill-rule="evenodd"/>
	</g>
</svg>
