<svg width="25.000000" height="25.000000" viewBox="0 0 25 25" fill="none" xmlns="http://www.w3.org/2000/svg" xmlns:xlink="http://www.w3.org/1999/xlink">
	<desc>
			Created with Pixso.
	</desc>
	<defs>
		<clipPath id="clip184_4172">
			<rect id="disney" rx="47" ry="47"  width="24.000000" height="24.000000" transform="translate(0.500000 0.500000) rotate(-0.000000)" fill="white" fill-opacity="0"/>
		</clipPath>
	</defs>
	<rect id="disney" rx="47" ry="47"  width="24.000000" height="24.000000" transform="translate(0.500000 0.500000) rotate(-0.000000)" fill="#000000" fill-opacity="1.000000"/>
	<g clip-path="url(#clip184_4172)">
		<path id="disney" d="M18.9058 12.8126C18.5842 12.8867 17.7356 12.9279 17.7356 12.9279L17.6313 13.2629C17.6313 13.2629 18.0515 13.2273 18.3591 13.2574C18.3591 13.2574 18.458 13.2493 18.469 13.3673C18.4744 13.4882 18.4607 13.6145 18.4607 13.6145C18.4607 13.6145 18.4524 13.6887 18.3508 13.7079C18.2327 13.7272 17.4363 13.7628 17.4363 13.7628L17.3071 14.1968C17.3071 14.1968 17.2605 14.2957 17.3677 14.2682C17.4666 14.2407 18.3015 14.0814 18.4114 14.1034C18.5266 14.1309 18.6584 14.2902 18.6201 14.433C18.5762 14.6061 17.7412 15.1388 17.2358 15.1031C17.2358 15.1031 16.9695 15.1196 16.7468 14.7599C16.5327 14.4165 16.821 13.7711 16.821 13.7711C16.821 13.7711 16.6919 13.469 16.7881 13.3591C16.7881 13.3591 16.843 13.3124 17.0078 13.2987L17.2139 12.8757C17.2139 12.8757 16.9805 12.8895 16.843 12.7192C16.7168 12.5544 16.7058 12.483 16.8047 12.4391C16.9089 12.3842 17.8757 12.2111 18.5403 12.233C18.5403 12.233 18.7739 12.2056 18.9797 12.6094C18.9797 12.6094 19.0732 12.7742 18.9084 12.8126L18.9058 12.8126ZM16.4009 14.4385C16.3184 14.639 16.0906 14.8505 15.8159 14.7214C15.5356 14.5896 15.0935 13.6887 15.0935 13.6887C15.0935 13.6887 14.9287 13.3536 14.8958 13.3646C14.8958 13.3646 14.8601 13.2987 14.8408 13.6667C14.8135 14.032 14.8464 14.7434 14.6953 14.856C14.5579 14.9658 14.3931 14.9192 14.2998 14.79C14.2229 14.661 14.1899 14.3506 14.2339 13.8096C14.2832 13.2684 14.407 12.6918 14.5635 12.5132C14.7283 12.3319 14.8601 12.4637 14.9094 12.5132C14.9094 12.5132 15.1211 12.7054 15.478 13.2739L15.5383 13.3783C15.5383 13.3783 15.8625 13.9194 15.8955 13.9166C15.8955 13.9166 15.9229 13.9441 15.9448 13.9221C15.9778 13.9139 15.9668 13.7382 15.9668 13.7382C15.9668 13.7382 15.9065 13.1531 15.6042 12.1644C15.6042 12.1644 15.5603 12.0381 15.5906 11.9172C15.6182 11.8074 15.7361 11.8623 15.7361 11.8623C15.7361 11.8623 16.1921 12.082 16.4146 12.8236C16.6343 13.5651 16.4861 14.238 16.4036 14.4385L16.4009 14.4385ZM14.1653 12.5352C14.1213 12.6121 14.1021 12.7192 13.9126 12.7494C13.9126 12.7494 12.0723 12.8785 11.9817 13.0076C11.9817 13.0076 11.9214 13.0845 12.0203 13.1036C12.1245 13.1256 12.542 13.1805 12.7397 13.1915C12.9541 13.1915 13.6736 13.197 13.9373 13.5211C13.9373 13.5211 14.0884 13.6749 14.0828 14.0238C14.0774 14.3809 14.0142 14.5072 13.874 14.6362C13.7285 14.7571 12.4817 15.3174 11.6768 14.4604C11.6768 14.4604 11.3088 14.0485 11.8059 13.7354C11.8059 13.7354 12.1631 13.5156 13.0776 13.7711C13.0776 13.7711 13.3523 13.87 13.3413 13.9716C13.3247 14.0814 13.1133 14.1913 12.8057 14.1858C12.509 14.1776 12.2893 14.0348 12.3333 14.0594C12.3745 14.0732 12.012 13.8837 11.8994 14.0128C11.7896 14.1337 11.8169 14.2051 11.9268 14.2792C12.2014 14.4385 13.2808 14.3809 13.6021 14.021C13.6021 14.021 13.7312 13.8755 13.5361 13.7573C13.344 13.6475 12.7837 13.5789 12.5667 13.5706C12.3608 13.5596 11.5889 13.5706 11.4736 13.3701C11.4736 13.3701 11.3638 13.2273 11.4846 12.8373C11.6108 12.4253 12.509 12.266 12.8992 12.233C12.8992 12.233 13.9702 12.1891 14.1707 12.4088C14.1707 12.4088 14.1982 12.4583 14.1653 12.5325L14.1653 12.5352ZM11.1277 14.9493C10.9985 15.0454 10.7239 15.0043 10.6443 14.8944C10.5674 14.7983 10.5398 14.4193 10.5535 13.8232C10.5728 13.2135 10.5811 12.4666 10.7183 12.3457C10.8557 12.2275 10.938 12.3319 10.9929 12.4116C11.0479 12.494 11.1194 12.5846 11.1304 12.7742C11.1467 12.9663 11.1936 13.9551 11.1936 13.9551C11.1936 13.9551 11.2539 14.856 11.1304 14.9493L11.1277 14.9493ZM11.4023 11.736C11.0232 11.865 10.7651 11.8239 10.5454 11.7277C10.4492 11.9008 10.3916 11.9529 10.3201 11.9639C10.2102 11.9749 10.114 11.7991 10.1003 11.7441C10.0784 11.703 10.0261 11.6288 10.0894 11.4613C9.87524 11.269 9.85864 11.0109 9.89722 10.8379C9.94653 10.6346 10.3091 9.87109 11.4077 9.7804C11.4077 9.7804 11.946 9.74194 12.0393 10.0276L12.0559 10.0276C12.0559 10.0276 12.5776 10.0276 12.5667 10.4945C12.5667 10.9614 11.99 11.5437 11.4023 11.7441L11.4023 11.736ZM11.8911 10.4066C11.5449 10.4615 11.0122 10.923 10.7568 11.3047C11.1497 11.3761 11.8362 11.3486 12.1438 10.728C12.1438 10.728 12.2893 10.338 11.8911 10.4066ZM10.3723 10.7087C10.2625 10.8873 10.2568 10.9944 10.3091 11.0658C10.4382 10.8735 10.6663 10.5714 11.0095 10.3352C10.7458 10.3627 10.5234 10.4725 10.3723 10.7087ZM19.7295 14.9302C19.4771 15.5508 19.2627 16.1798 19.1392 17.1218C19.1392 17.1218 19.1116 17.3058 18.9607 17.2454C18.8096 17.1904 18.5623 16.9434 18.5073 16.5945C18.4524 16.1385 18.6558 15.3695 19.0706 14.4852C18.9497 14.293 18.8645 14.0073 18.9331 13.6063C18.9331 13.6063 19.043 12.8647 19.7844 12.1946C19.7844 12.1946 19.8723 12.1205 19.9219 12.1451C19.9822 12.1726 19.9575 12.4088 19.9082 12.5297C19.8643 12.645 19.5347 13.2163 19.5347 13.2163C19.5347 13.2163 19.3286 13.6063 19.3862 13.9111C19.7764 13.3124 20.6633 12.0985 21.2126 12.483C21.5615 12.7302 21.5615 13.5266 21.3005 13.988C21.0947 14.3534 20.5125 15.1086 19.7351 14.9329L19.7295 14.9302ZM20.8777 13.0652C20.6743 13.2849 20.3118 13.7024 20.0261 14.2682C20.3284 14.2352 20.6223 14.0677 20.7129 13.9825C20.8584 13.8535 21.1936 13.5046 21.1414 13.0432C21.1414 13.0432 21.1084 12.8016 20.8777 13.0652ZM8.57324 15.2542C7.60107 15.5508 6.68384 15.4135 6.18384 15.2816C6.17017 15.4849 6.14819 15.5701 6.11523 15.603C6.07666 15.647 5.75806 15.8282 5.58228 15.5701C5.50537 15.4464 5.46704 15.224 5.44507 15.0208C4.31909 14.5099 3.79712 13.7573 3.78076 13.7299C3.75317 13.7024 3.4978 13.436 3.75317 13.1064C3.99219 12.8098 4.7832 12.5105 5.4917 12.3923C5.51929 11.7881 5.58521 11.3212 5.67017 11.1152C5.77197 10.868 5.90088 11.0878 6.01636 11.2526C6.10962 11.3761 6.16748 11.9062 6.17285 12.3292C6.63428 12.3073 6.91455 12.3402 7.42798 12.4391C8.10376 12.5544 8.5542 12.9005 8.51831 13.2904C8.48535 13.6749 8.13379 13.8342 7.99658 13.8452C7.85913 13.8562 7.6394 13.7546 7.6394 13.7546C7.4856 13.6832 7.62573 13.6173 7.8042 13.5404C8.00195 13.4442 7.95801 13.3481 7.95801 13.3481C7.88672 13.1284 7.0105 12.9828 6.13989 12.9828C6.13989 13.4635 6.15918 14.26 6.17285 14.7241C6.78271 14.8395 7.23853 14.8148 7.23853 14.8148C7.23853 14.8148 9.46313 14.7516 9.52637 13.3317C9.59497 11.9089 7.30176 10.5468 5.61255 10.1183C3.92627 9.67603 2.97046 9.98914 2.88818 10.0304C2.79736 10.0743 2.87988 10.0908 2.87988 10.0908C2.87988 10.0908 2.97046 10.1045 3.13525 10.1594C3.30005 10.2144 3.16821 10.2968 3.16821 10.2968C2.87988 10.3956 2.55859 10.338 2.49536 10.2062C2.43213 10.077 2.53662 9.95898 2.66016 9.78589C2.77539 9.60742 2.90723 9.61292 2.90723 9.61292C4.99463 8.88501 7.54346 10.1897 7.54346 10.1897C9.92725 11.3926 10.3337 12.8071 10.2898 13.3563C10.2515 13.8975 10.0427 14.812 8.57324 15.257L8.57324 15.2542ZM3.98657 13.2904C3.75049 13.4003 3.91528 13.576 3.91528 13.576C4.36011 14.0513 4.90405 14.3506 5.42578 14.5374C5.48633 13.7134 5.48071 13.4196 5.48071 13.0048C4.67334 13.0597 4.2063 13.1915 3.98657 13.2904Z" fill="#FFFFFF" fill-opacity="1.000000" fill-rule="nonzero"/>
	</g>
	<rect id="disney" rx="47" ry="47"  width="24.000000" height="24.000000" transform="translate(0.500000 0.500000) rotate(-0.000000)" stroke="#CDCCCC" stroke-opacity="1.000000" stroke-width="1.000000"/>
</svg>
