<svg width="89" height="90" viewBox="0 0 89 90" fill="none" xmlns="http://www.w3.org/2000/svg">
<rect x="21.5027" y="24.1279" width="45.9342" height="45.9342" rx="22.9671" fill="#00095B"/>
<rect x="21.5027" y="24.1279" width="45.9342" height="45.9342" rx="22.9671" stroke="#CDCCCC"/>
<path d="M37.64 41.0001C37.2971 41.0012 36.9525 41.0145 36.6055 41.0429C34.301 41.2349 32.1075 42.5197 32.1035 44.4702C32.101 45.4593 32.8112 46.2608 33.9116 46.2255C35.2046 46.1821 36.2661 45.1564 36.8218 43.8632C37.0327 43.3725 36.6422 43.1687 36.4564 43.4512C36.1328 43.9447 35.682 44.3417 35.1516 44.6004C34.5432 44.8954 33.8929 44.8158 33.6957 44.3267C33.4185 43.6365 33.9947 42.6039 35.3095 42.1179C37.2087 41.4218 39.1957 41.8823 41.1078 42.238C41.1351 42.238 41.2369 42.2939 41.1469 42.3403C40.8045 42.5252 40.4674 42.6755 39.9422 43.123C39.5657 43.4422 39.0727 43.8673 38.6915 44.3303C38.313 44.7866 38.0448 45.1937 37.6899 45.6449C37.6404 45.7101 37.5795 45.7071 37.5802 45.7071C36.7151 45.8518 35.8682 45.9487 35.0928 46.4826C34.9324 46.5922 34.8628 46.7867 34.96 46.9355C35.0474 47.0675 35.2473 47.0815 35.3861 46.9816C35.8679 46.6247 36.3639 46.4568 36.9326 46.4412C36.9575 46.4427 36.9694 46.4467 36.9764 46.4619C36.9808 46.4704 36.9781 46.4884 36.9679 46.5017C36.1159 47.672 35.9025 47.9365 35.2615 48.6621C34.9337 49.035 34.6112 49.3498 34.251 49.6774C32.7957 51.0161 31.2304 50.993 30.6688 50.1536C30.3332 49.6499 30.3774 49.1211 30.5974 48.6824C30.8681 48.1451 31.4152 47.7513 31.8702 47.5213C32.0392 47.436 32.0878 47.2221 31.9186 47.0272C31.8111 46.9002 31.5504 46.8776 31.3563 46.9129C30.7602 47.0219 30.0558 47.4681 29.6397 48.005C29.1706 48.6075 28.9363 49.339 29.015 50.1599C29.1562 51.6412 30.388 52.4968 31.7865 52.487C32.8992 52.4784 33.9474 52.1445 35.2086 50.8769C36.3843 49.6946 37.4553 47.9285 38.4583 46.2908C38.4897 46.2385 38.5121 46.2105 38.6645 46.1917C39.2936 46.1138 40.2225 46.0251 40.8178 45.9909C40.9501 45.9837 40.977 45.9852 41.0301 46.0506C41.1852 46.2444 41.4181 46.4088 41.6047 46.5089C41.6957 46.5578 41.739 46.5823 41.8104 46.5834C41.8986 46.5853 41.9672 46.5383 42.0116 46.4887C42.0747 46.42 42.0922 46.3302 42.058 46.2724C42.0224 46.2118 41.6072 45.9839 41.5949 45.8918C41.5858 45.8343 41.6493 45.8205 41.6493 45.8205C41.9545 45.7257 42.2721 45.5306 42.4645 45.1656C42.6535 44.8063 42.684 44.3268 42.3382 44.0603C42.0347 43.8261 41.5761 43.8631 41.2102 44.1882C40.8522 44.5039 40.7338 44.9632 40.7821 45.3657C40.7908 45.4354 40.7872 45.4589 40.6911 45.4669C40.1409 45.5105 39.6108 45.5256 39.0211 45.5565C38.9817 45.5594 38.9692 45.5336 38.9921 45.5065C39.6711 44.3386 40.6848 43.5069 41.806 42.6879C41.8804 42.6327 41.8577 42.5278 41.8546 42.4402C43.8791 42.8757 45.8355 43.6862 47.9359 43.669C48.8044 43.662 49.6359 43.5312 50.4307 43.0994C51.1297 42.722 51.4133 42.3728 51.4342 42.0099C51.4505 41.7591 51.2743 41.6005 51.0235 41.6545C48.9014 42.1372 46.8769 42.1319 44.7656 41.879C42.3542 41.5892 40.0403 40.9926 37.64 41.0001ZM41.876 44.3848C41.9256 44.3874 41.972 44.4039 42.0095 44.4357C42.1214 44.5303 42.0684 44.7664 41.9554 44.9298C41.832 45.1101 41.6227 45.2657 41.4318 45.3037C41.3935 45.3107 41.3603 45.2944 41.3446 45.2104C41.3135 44.988 41.3865 44.6902 41.6266 44.4803C41.7017 44.4145 41.7933 44.3804 41.876 44.3848ZM58.9115 44.4274C58.5257 44.4274 58.0197 44.4281 57.6176 44.4281C57.5219 44.4281 57.4724 44.4396 57.427 44.5278C57.2788 44.8093 55.4704 47.4927 55.1337 48.0139C55.0772 48.0932 55.0078 48.0821 54.9998 47.9917C54.9657 47.6822 54.6959 47.3266 54.2706 47.1563C53.9464 47.0261 53.6294 47.0026 53.3001 47.0458C52.7054 47.1249 52.1755 47.4358 51.7095 47.786C51.0074 48.3148 50.4018 48.9993 49.6197 49.5055C49.1928 49.781 48.6083 50.0213 48.2171 49.663C47.8632 49.338 47.903 48.6161 48.4446 48.0579C48.5017 47.9993 48.5702 48.0482 48.5594 48.1007C48.5082 48.3532 48.5711 48.6043 48.7647 48.7804C49.0009 48.9899 49.3391 49.0138 49.6284 48.8739C49.9701 48.7065 50.1707 48.3828 50.2295 48.0154C50.32 47.4456 49.8769 46.9431 49.3229 46.9029C48.8726 46.8716 48.4409 47.0267 48.0204 47.3706C47.8094 47.5437 47.6893 47.6719 47.5071 47.9286C47.4626 47.9919 47.3943 47.9983 47.3966 47.9049C47.4177 47.1755 47.1127 46.7651 46.5036 46.7516C46.0311 46.7406 45.5259 46.9942 45.1323 47.3052C44.7008 47.6483 44.3235 48.103 43.9191 48.5303C43.8689 48.583 43.8249 48.5806 43.8109 48.4784C43.7985 47.9951 43.6758 47.527 43.4498 47.1946C43.37 47.079 43.2018 47.0217 43.0604 47.0998C42.9952 47.1353 42.7679 47.2386 42.6028 47.3704C42.5207 47.4373 42.4889 47.5342 42.525 47.6584C42.743 48.3801 42.695 49.2011 42.3993 49.8946C42.1276 50.5294 41.5996 51.1024 40.9792 51.2961C40.5705 51.4245 40.1454 51.3617 39.8824 51.0028C39.5212 50.5076 39.6673 49.6465 40.2053 48.9311C40.6807 48.3017 41.3676 47.9016 42.0533 47.644C42.1341 47.6132 42.1505 47.5621 42.1278 47.4942C42.0904 47.3824 42.0311 47.2306 42.0067 47.161C41.9439 46.9955 41.7678 46.9684 41.553 46.9917C41.0549 47.0492 40.6058 47.2181 40.1619 47.4534C38.9997 48.0696 38.4173 49.2621 38.1617 49.9003C38.0389 50.2065 37.9337 50.398 37.7977 50.5675C37.6146 50.7956 37.3846 51.003 36.9641 51.3687C36.9262 51.4023 36.8977 51.4722 36.9296 51.537C36.9726 51.6252 37.1912 51.9308 37.253 51.9581C37.3215 51.9915 37.4008 51.9449 37.4327 51.9222C37.7269 51.7248 38.079 51.4118 38.2514 51.1994C38.3116 51.1268 38.3739 51.1574 38.406 51.2677C38.5667 51.8357 38.9877 52.2994 39.57 52.4934C40.6355 52.8492 41.7408 52.3342 42.575 51.4376C43.1051 50.8679 43.2965 50.5013 43.4997 50.2522C43.844 49.8296 44.5235 48.8843 45.3325 48.2774C45.6292 48.0537 45.9805 47.8831 46.1572 47.9963C46.2989 48.0873 46.3446 48.2986 46.1171 48.7081C45.2923 50.1997 44.0781 51.9521 43.8555 52.3774C43.815 52.4511 43.8504 52.5089 43.9283 52.5089C44.36 52.507 44.7882 52.5079 45.18 52.5079C45.2451 52.5049 45.2745 52.4756 45.3071 52.4299C45.9402 51.4487 46.536 50.5144 47.1746 49.5488C47.2106 49.492 47.2434 49.5361 47.2447 49.5609C47.258 49.7848 47.3135 50.0914 47.4478 50.2928C47.6893 50.6647 48.0314 50.8245 48.4109 50.827C48.7128 50.8304 48.8654 50.785 49.1909 50.6646C49.4186 50.5799 49.6341 50.4654 49.8317 50.324C49.9271 50.2586 49.9437 50.3683 49.9413 50.3851C49.7949 51.1642 49.9758 52.087 50.7577 52.4698C51.6935 52.9268 52.7215 52.2846 53.313 51.7051C53.3709 51.6491 53.4333 51.655 53.4391 51.7752C53.4516 51.9966 53.5525 52.2593 53.7376 52.4432C54.2332 52.9357 55.2335 52.7406 56.2374 51.971C56.882 51.4787 57.5563 50.7827 58.1655 50.0458C58.188 50.0173 58.2049 49.9712 58.1613 49.925C58.0684 49.8288 57.9342 49.7188 57.8423 49.6341C57.8004 49.5988 57.7387 49.6089 57.7032 49.6357C57.0789 50.2236 56.517 50.8942 55.7044 51.4488C55.4304 51.638 54.994 51.7908 54.7977 51.528C54.7213 51.426 54.7301 51.2847 54.8054 51.0995C55.0426 50.5144 58.7925 44.8611 58.987 44.5282L58.9874 44.5278C59.0207 44.4698 58.9855 44.4274 58.9115 44.4274ZM53.6571 47.9617C53.7553 47.9608 53.8472 47.9795 53.931 48.0194C54.3928 48.2376 54.2453 48.7671 54.0388 49.1829C54.0318 49.1959 54.0275 49.2102 54.026 49.2249C54.0246 49.2397 54.0261 49.2545 54.0305 49.2687C54.0381 49.3119 54.0949 49.3538 54.1508 49.3737C54.1703 49.3809 54.1814 49.3949 54.1592 49.4404C53.9996 49.7788 53.8532 49.9739 53.6532 50.2678C53.4697 50.5395 53.2626 50.7513 53.0116 50.9553C52.6333 51.2653 52.1082 51.6025 51.674 51.3758C51.481 51.2764 51.3978 51.0093 51.4016 50.7929C51.4116 50.1843 51.6841 49.5598 52.1888 48.9459C52.6888 48.3365 53.2317 47.9654 53.6571 47.9617Z" fill="white"/>
<g filter="url(#filter0_d_459_278)">
<path d="M22.9946 55.2288L23.606 54.4472C26.9583 50.1445 31.129 44.7916 29.4179 37.6186L27.7876 30.7841L26.5815 31.0718C22.2268 32.1106 18.4894 30.9927 17.888 28.4716L15.4759 29.047C16.0773 31.5681 13.2469 34.2527 8.89223 35.2914L7.68612 35.5792L9.31645 42.4136C11.0275 49.5866 17.1655 52.4805 22.0973 54.8059L22.9946 55.2288Z" fill="#D84025"/>
</g>
<g filter="url(#filter1_d_459_278)">
<path d="M8.89215 35.2914C13.2469 34.2527 16.0772 31.5681 15.4758 29.047L16.6819 28.7593L22.9957 55.2274L22.9945 55.2288L22.0972 54.8058C17.1654 52.4805 11.0275 49.5867 9.31637 42.4136L7.68605 35.5791L8.89215 35.2914Z" fill="#A13023"/>
</g>
<g clip-path="url(#clip0_459_278)">
<g filter="url(#filter2_d_459_278)">
<path fill-rule="evenodd" clip-rule="evenodd" d="M54.4432 22.5884C54.7525 23.844 55.0604 25.0985 55.3669 26.3521C52.5427 27.9683 48.9768 28.8709 44.4973 28.8724V23.689L54.4432 22.5884Z" fill="#535353"/>
<path fill-rule="evenodd" clip-rule="evenodd" d="M34.5595 22.5884C34.2462 23.844 33.9356 25.0985 33.6277 26.3521C36.458 27.9683 40.0158 28.8709 44.4973 28.8724V23.689L34.5595 22.5884Z" fill="#676767"/>
<path fill-rule="evenodd" clip-rule="evenodd" d="M42.274 9.0759C35.8214 3.36948 48.0226 3.91021 51.4611 1.01904C51.7038 1.26047 51.8477 1.55073 51.8749 1.85375C51.9021 2.15677 51.8114 2.45917 51.6141 2.72338C53.1405 3.67161 55.824 2.37786 57.279 4.1953C55.6302 4.12403 54.6261 4.61829 54.0139 5.27988C58.5361 4.75618 56.7668 7.94329 60.6318 8.12302C57.7524 9.34239 50.9897 7.00126 46.8084 9.8506C44.9208 9.79792 44.1616 9.13323 42.274 9.0759Z" fill="#A23023"/>
<path fill-rule="evenodd" clip-rule="evenodd" d="M60.6299 8.07033C57.7798 9.32971 51.0665 6.93006 46.9158 9.85061C46.1434 9.81778 45.3835 9.68413 44.6672 9.45517C50.0962 4.66063 54.9134 8.9168 60.632 8.07033H60.6299Z" fill="#1A1A1A"/>
<path fill-rule="evenodd" clip-rule="evenodd" d="M42.651 8.59114C43.3961 8.64919 44.127 8.78313 44.8231 8.9892L44.8723 9.0014C44.6291 8.72992 44.3901 8.45845 44.1551 8.18697C42.0198 6.3705 46.5137 4.22155 49.2392 3.78078C50.2208 4.41524 51.7331 4.11479 52.5077 4.56013C51.8396 5.10004 51.4257 6.03344 50.7556 6.57335C58.4074 5.79857 54.9217 7.64096 58.5939 7.99785C58.3467 7.87286 58.1222 7.72472 57.9258 7.55708C56.6963 6.51234 56.8787 5.37152 54.1983 5.67655L52.7065 5.84585C52.9701 5.57335 53.2358 5.30136 53.5036 5.02988C54.1079 4.39931 55.0174 3.9679 56.0405 3.82653C55.8007 3.72209 55.5365 3.65224 55.2618 3.62064C55 3.59114 54.7357 3.57534 54.4708 3.57336C53.2782 3.552 52.1409 3.62216 51.1921 3.05175L50.8396 2.8367C50.9093 2.74214 50.981 2.64911 51.0446 2.55607C51.2032 2.34726 51.2698 2.1067 51.2351 1.86823C50.0056 2.56217 48.3048 3.02887 46.8478 3.41626C45.6941 3.7213 44.483 4.02633 43.3887 4.40609C42.6161 4.67757 41.7493 5.05429 41.3395 5.56979C40.5956 6.53064 41.7452 7.77975 42.651 8.59114Z" fill="#EF4123"/>
<path fill-rule="evenodd" clip-rule="evenodd" d="M43.7258 8.71744C44.1135 8.79334 44.4959 8.88402 44.8714 8.98912L44.9204 9.0014C44.6781 8.72818 44.4398 8.45496 44.2057 8.18175C42.0779 6.35365 46.5561 4.19094 49.272 3.74734C50.2501 4.38587 51.7571 4.08349 52.529 4.53169C51.8633 5.07505 51.4508 6.01443 50.7831 6.55779C58.4081 5.77805 54.9346 7.63224 58.5939 7.99142C56.6887 7.61843 56.7234 6.27076 55.6411 5.94689C54.5588 5.62302 53.1294 6.369 52.0389 6.04513C52.1533 5.42041 52.6699 4.91235 53.4214 4.13721C52.3779 3.66292 49.7457 4.08656 50.293 2.71741C47.9508 4.65909 40.4055 3.85479 43.2684 8.55013L43.7258 8.71744Z" fill="#D03927"/>
<path d="M44.4123 12.7378C46.3352 12.7378 47.894 11.7113 47.894 10.445C47.894 9.17875 46.3352 8.15222 44.4123 8.15222C42.4895 8.15222 40.9307 9.17875 40.9307 10.445C40.9307 11.7113 42.4895 12.7378 44.4123 12.7378Z" fill="#CDCCCC"/>
<path fill-rule="evenodd" clip-rule="evenodd" d="M44.4279 10.5299C48.7929 10.5299 52.5226 12.2605 54.0145 14.7017C54.8158 14.959 55.3671 15.4889 55.3671 16.0954C55.363 16.297 55.3022 16.4958 55.1885 16.6786C55.0748 16.8615 54.9108 17.0244 54.7072 17.1567C54.6334 20.7267 50.0594 23.6074 44.4279 23.6074C38.7964 23.6074 34.2388 20.7328 34.1527 17.1721C33.94 17.0393 33.7679 16.8739 33.648 16.6871C33.5282 16.5003 33.4634 16.2964 33.458 16.0893C33.458 15.4767 34.0277 14.9361 34.8474 14.6834C36.3455 12.2483 40.069 10.5299 44.4279 10.5299Z" fill="#8B8A8A"/>
<path fill-rule="evenodd" clip-rule="evenodd" d="M42.799 20.2107C46.6371 20.2107 49.7624 18.2312 49.7624 15.7949C49.7624 13.3586 46.6309 11.3792 42.799 11.3792C38.9671 11.3792 35.8357 13.3586 35.8357 15.7949C35.8357 18.2312 38.959 20.2107 42.799 20.2107Z" fill="#989898"/>
<path fill-rule="evenodd" clip-rule="evenodd" d="M40.6759 15.2854C42.1268 15.2854 43.3084 14.5219 43.3084 13.587C43.3084 12.6521 42.1268 11.8886 40.6759 11.8886C39.2251 11.8886 38.0435 12.6506 38.0435 13.587C38.0435 14.5235 39.2374 15.2854 40.6759 15.2854Z" fill="#ACACAC"/>
<path fill-rule="evenodd" clip-rule="evenodd" d="M44.4974 14.2665H44.3977C43.0092 14.2612 41.6311 14.4487 40.3308 14.8201L32.7786 16.9646V23.3548C36.0829 26.2793 39.9363 28.5696 44.4974 30.0613V14.2665Z" fill="#CDCCCC"/>
<path fill-rule="evenodd" clip-rule="evenodd" d="M42.7991 15.2854C42.1973 15.3616 41.6069 15.484 41.0364 15.651L39.5886 16.0678V26.7622C40.6103 27.3513 41.6823 27.8861 42.7971 28.3629V15.2854H42.7991ZM38.9088 16.2638L36.6568 16.9125V24.8458C37.3687 25.37 38.1187 25.8771 38.9088 26.3593V16.2638ZM35.979 17.1069L34.4771 17.5394V23.0865C34.9583 23.5096 35.459 23.9244 35.979 24.3309V17.1069Z" fill="#333333"/>
<path fill-rule="evenodd" clip-rule="evenodd" d="M44.4973 14.2665H44.597C45.982 14.2621 47.3566 14.4496 48.6537 14.82L56.2161 16.963V23.3532C52.9097 26.2793 49.0563 28.5696 44.4973 30.0613V14.2665Z" fill="#B4B4B4"/>
<path fill-rule="evenodd" clip-rule="evenodd" d="M46.1958 15.2854C46.8099 15.3618 47.4126 15.4842 47.9949 15.651L49.4726 16.0678V26.7622C48.4294 27.351 47.3354 27.8857 46.1978 28.3629V15.2854H46.1958ZM50.1665 16.2638L52.4629 16.9125V24.8458C51.7383 25.37 50.9729 25.8771 50.1665 26.3593V16.2638ZM53.1567 17.1069L54.6877 17.5394V23.0865C54.1978 23.5096 53.6875 23.9244 53.1567 24.3309V17.1069Z" fill="#1A1A1A"/>
<path fill-rule="evenodd" clip-rule="evenodd" d="M43.534 8.66174C44.1859 8.66174 44.4984 8.96662 44.2331 9.34109C44.0652 9.54109 43.8242 9.70857 43.5333 9.82751C43.2424 9.94646 42.9113 10.0129 42.5716 10.0204C41.9218 10.0204 41.6092 9.71696 41.8745 9.34109C42.0426 9.14147 42.2833 8.97426 42.5738 8.85535C42.8642 8.73645 43.1948 8.6698 43.534 8.66174Z" fill="#E3E3E3"/>
</g>
</g>
<g clip-path="url(#clip1_459_278)">
<g filter="url(#filter3_d_459_278)">
<path fill-rule="evenodd" clip-rule="evenodd" d="M60.009 47.2835L60.145 47.3539C60.2992 47.4366 60.4708 47.4817 60.6458 47.4855C60.8207 47.4893 60.9941 47.4517 61.1517 47.3757C61.3115 47.3045 61.4523 47.1966 61.5625 47.0608C61.6728 46.925 61.7495 46.7651 61.7864 46.5942C62.0991 45.2279 62.7244 43.5585 63.6139 41.8343C64.5034 40.1101 65.5023 38.6345 66.4277 37.5887C66.5437 37.4584 66.6283 37.3033 66.6751 37.1353C66.722 36.9673 66.7298 36.7908 66.6979 36.6193C66.6661 36.4478 66.5955 36.2859 66.4915 36.1459C66.3875 36.0058 66.2529 35.8914 66.0979 35.8114L65.9603 35.7411L66.5262 34.6469L69.1837 36.0162L71.8413 37.384L71.2754 38.4782L71.1394 38.4078C70.9837 38.3264 70.8113 38.2819 70.6357 38.2777C70.46 38.2736 70.2858 38.31 70.1264 38.3841C69.9671 38.4581 69.827 38.5679 69.7169 38.7049C69.6068 38.8418 69.5298 39.0023 69.4917 39.1738C69.179 40.5384 68.5537 42.2095 67.6643 43.9321C66.7748 45.6547 65.7758 47.1319 64.8504 48.1776C64.7344 48.3081 64.6498 48.4633 64.603 48.6314C64.5561 48.7996 64.5483 48.9762 64.5802 49.1478C64.612 49.3194 64.6826 49.4814 64.7866 49.6216C64.8906 49.7618 65.0252 49.8763 65.1802 49.9565L65.3178 50.0269L64.7519 51.1211L62.0944 49.7533L59.4431 48.3793L60.009 47.2835Z" fill="#CA3927"/>
<path fill-rule="evenodd" clip-rule="evenodd" d="M66.7737 38.234C67.212 38.4627 66.6033 40.5413 65.4123 42.8737C64.2212 45.2061 62.9 46.9135 62.4694 46.6848C62.0388 46.4561 62.6398 44.3775 63.8309 42.0451C65.022 39.7127 66.3354 38.0053 66.7737 38.234Z" fill="#F04B23"/>
<path fill-rule="evenodd" clip-rule="evenodd" d="M86.1075 3.39673L84.6832 11.4454L71.3962 37.1944L67.0857 34.9697L80.3726 9.22067L86.1075 3.39673Z" fill="#D1D2D2"/>
<path fill-rule="evenodd" clip-rule="evenodd" d="M81.808 7.74434L84.0703 6.27113L83.2748 11.0728L71.3318 37.1944L84.6771 11.4454L86.1077 3.39673L81.808 7.74434Z" fill="#E6E6E5"/>
<path fill-rule="evenodd" clip-rule="evenodd" d="M82.3713 10.6997L76.0934 23.5217L69.8139 36.3452L69.1284 35.9964L68.4446 35.6477L75.4079 23.1745L82.3713 10.6997Z" fill="#818181"/>
<path fill-rule="evenodd" clip-rule="evenodd" d="M65.7727 33.4233L73.3723 37.3669C73.7631 37.084 74.2371 36.9418 74.7181 36.9631C75.1991 36.9844 75.659 37.1679 76.0235 37.4842C76.3881 37.8005 76.6361 38.231 76.7275 38.7063C76.819 39.1817 76.7486 39.6742 76.5278 40.1044C76.3069 40.5346 75.9483 40.8774 75.51 41.0776C75.0716 41.2779 74.579 41.3238 74.1115 41.208C73.644 41.0922 73.2289 40.8214 72.9332 40.4394C72.6375 40.0573 72.4783 39.5862 72.4814 39.102L64.8818 35.1585C64.4905 35.4421 64.0157 35.5849 63.5338 35.5639C63.052 35.5428 62.5913 35.3591 62.226 35.0425C61.8607 34.7258 61.6121 34.2946 61.5204 33.8184C61.4286 33.3423 61.4991 32.8489 61.7204 32.4179C61.9417 31.987 62.3009 31.6436 62.74 31.4431C63.1792 31.2426 63.6727 31.1967 64.1409 31.3129C64.6092 31.4291 65.0249 31.7005 65.3209 32.0834C65.617 32.4663 65.7761 32.9383 65.7727 33.4233Z" fill="#333333"/>
</g>
</g>
<g filter="url(#filter4_d_459_278)">
<path d="M25.4055 76.116V79.26H29.5215V80.1H25.4055V84H24.4815V75.252H29.9055V76.116H25.4055ZM33.6901 84.108C33.1381 84.108 32.6221 83.972 32.1421 83.7C31.6701 83.42 31.3021 83.048 31.0381 82.584C30.7661 82.12 30.6301 81.604 30.6301 81.036C30.6301 80.148 30.9261 79.412 31.5181 78.828C32.1101 78.228 32.8421 77.928 33.7141 77.928C34.5621 77.912 35.2901 78.212 35.8981 78.828C36.5141 79.436 36.8141 80.16 36.7981 81C36.8141 81.864 36.5141 82.604 35.8981 83.22C35.2821 83.828 34.5461 84.124 33.6901 84.108ZM33.7141 83.328C34.3381 83.328 34.8621 83.104 35.2861 82.656C35.6941 82.208 35.8981 81.668 35.8981 81.036C35.8981 80.396 35.6901 79.844 35.2741 79.38C34.8501 78.924 34.3221 78.696 33.6901 78.696C33.0581 78.696 32.5381 78.92 32.1301 79.368C31.7221 79.816 31.5181 80.36 31.5181 81C31.5021 81.632 31.7061 82.18 32.1301 82.644C32.5621 83.108 33.0901 83.336 33.7141 83.328ZM38.3278 78.036H39.1798V79.212C39.4598 78.644 39.8678 78.26 40.4038 78.06C40.6198 77.98 40.8558 77.94 41.1118 77.94C41.2638 77.94 41.3598 77.948 41.3998 77.964V78.888C41.3358 78.872 41.2238 78.864 41.0638 78.864C40.4158 78.864 39.9438 79.08 39.6478 79.512C39.3518 79.944 39.2038 80.468 39.2038 81.084V84H38.3278V78.036ZM41.6809 81.012C41.6809 80.212 41.9369 79.504 42.4489 78.888C42.9689 78.248 43.6449 77.928 44.4769 77.928C45.0289 77.928 45.5009 78.068 45.8929 78.348C46.2289 78.588 46.5289 78.9 46.7929 79.284V74.904H47.6569V84H46.8049V82.728C46.2609 83.632 45.4849 84.084 44.4769 84.084C43.6449 84.084 42.9649 83.776 42.4369 83.16C41.9329 82.552 41.6809 81.836 41.6809 81.012ZM44.6569 83.328C45.2569 83.336 45.7689 83.104 46.1929 82.632C46.6169 82.16 46.8209 81.616 46.8049 81C46.8049 80.608 46.7129 80.24 46.5289 79.896C46.3449 79.544 46.0889 79.256 45.7609 79.032C45.4249 78.816 45.0569 78.708 44.6569 78.708C44.0169 78.708 43.5129 78.928 43.1449 79.368C42.7609 79.816 42.5689 80.372 42.5689 81.036C42.5689 81.908 42.8929 82.564 43.5409 83.004C43.8689 83.22 44.2409 83.328 44.6569 83.328ZM52.3578 80.004V79.716C52.3578 78.564 52.6378 77.516 53.1978 76.572C53.7498 75.62 54.5298 74.856 55.5378 74.28L55.8978 74.844C54.1298 75.98 53.2458 77.608 53.2458 79.728V79.992C53.2458 82.096 54.1298 83.72 55.8978 84.864L55.5378 85.452C54.5298 84.868 53.7498 84.1 53.1978 83.148C52.6378 82.204 52.3578 81.156 52.3578 80.004ZM58.3352 76.116V79.26H62.4512V80.1H58.3352V84H57.4112V75.252H62.8352V76.116H58.3352ZM67.1291 79.716V80.004C67.1291 81.164 66.8531 82.216 66.3011 83.16C65.7411 84.104 64.9571 84.868 63.9491 85.452L63.5891 84.864C65.3571 83.72 66.2411 82.096 66.2411 79.992V79.728C66.2411 77.608 65.3571 75.98 63.5891 74.844L63.9491 74.28C64.9571 74.848 65.7411 75.608 66.3011 76.56C66.8531 77.512 67.1291 78.564 67.1291 79.716Z" fill="white"/>
</g>
<defs>
<filter id="filter0_d_459_278" x="3.68604" y="28.4716" width="30.1289" height="34.7573" filterUnits="userSpaceOnUse" color-interpolation-filters="sRGB">
<feFlood flood-opacity="0" result="BackgroundImageFix"/>
<feColorMatrix in="SourceAlpha" type="matrix" values="0 0 0 0 0 0 0 0 0 0 0 0 0 0 0 0 0 0 127 0" result="hardAlpha"/>
<feOffset dy="4"/>
<feGaussianBlur stdDeviation="2"/>
<feComposite in2="hardAlpha" operator="out"/>
<feColorMatrix type="matrix" values="0 0 0 0 0 0 0 0 0 0 0 0 0 0 0 0 0 0 0.25 0"/>
<feBlend mode="normal" in2="BackgroundImageFix" result="effect1_dropShadow_459_278"/>
<feBlend mode="normal" in="SourceGraphic" in2="effect1_dropShadow_459_278" result="shape"/>
</filter>
<filter id="filter1_d_459_278" x="3.68604" y="28.7593" width="23.3096" height="34.4696" filterUnits="userSpaceOnUse" color-interpolation-filters="sRGB">
<feFlood flood-opacity="0" result="BackgroundImageFix"/>
<feColorMatrix in="SourceAlpha" type="matrix" values="0 0 0 0 0 0 0 0 0 0 0 0 0 0 0 0 0 0 127 0" result="hardAlpha"/>
<feOffset dy="4"/>
<feGaussianBlur stdDeviation="2"/>
<feComposite in2="hardAlpha" operator="out"/>
<feColorMatrix type="matrix" values="0 0 0 0 0 0 0 0 0 0 0 0 0 0 0 0 0 0 0.25 0"/>
<feBlend mode="normal" in2="BackgroundImageFix" result="effect1_dropShadow_459_278"/>
<feBlend mode="normal" in="SourceGraphic" in2="effect1_dropShadow_459_278" result="shape"/>
</filter>
<filter id="filter2_d_459_278" x="22.7786" y="-4.98096" width="47.8535" height="49.0422" filterUnits="userSpaceOnUse" color-interpolation-filters="sRGB">
<feFlood flood-opacity="0" result="BackgroundImageFix"/>
<feColorMatrix in="SourceAlpha" type="matrix" values="0 0 0 0 0 0 0 0 0 0 0 0 0 0 0 0 0 0 127 0" result="hardAlpha"/>
<feOffset dy="4"/>
<feGaussianBlur stdDeviation="5"/>
<feComposite in2="hardAlpha" operator="out"/>
<feColorMatrix type="matrix" values="0 0 0 0 0 0 0 0 0 0 0 0 0 0 0 0 0 0 0.5 0"/>
<feBlend mode="normal" in2="BackgroundImageFix" result="effect1_dropShadow_459_278"/>
<feBlend mode="normal" in="SourceGraphic" in2="effect1_dropShadow_459_278" result="shape"/>
</filter>
<filter id="filter3_d_459_278" x="49.4431" y="-2.60327" width="46.6646" height="67.7244" filterUnits="userSpaceOnUse" color-interpolation-filters="sRGB">
<feFlood flood-opacity="0" result="BackgroundImageFix"/>
<feColorMatrix in="SourceAlpha" type="matrix" values="0 0 0 0 0 0 0 0 0 0 0 0 0 0 0 0 0 0 127 0" result="hardAlpha"/>
<feOffset dy="4"/>
<feGaussianBlur stdDeviation="5"/>
<feComposite in2="hardAlpha" operator="out"/>
<feColorMatrix type="matrix" values="0 0 0 0 0 0 0 0 0 0 0 0 0 0 0 0 0 0 0.5 0"/>
<feBlend mode="normal" in2="BackgroundImageFix" result="effect1_dropShadow_459_278"/>
<feBlend mode="normal" in="SourceGraphic" in2="effect1_dropShadow_459_278" result="shape"/>
</filter>
<filter id="filter4_d_459_278" x="22.4814" y="74.28" width="46.6477" height="15.172" filterUnits="userSpaceOnUse" color-interpolation-filters="sRGB">
<feFlood flood-opacity="0" result="BackgroundImageFix"/>
<feColorMatrix in="SourceAlpha" type="matrix" values="0 0 0 0 0 0 0 0 0 0 0 0 0 0 0 0 0 0 127 0" result="hardAlpha"/>
<feOffset dy="2"/>
<feGaussianBlur stdDeviation="1"/>
<feComposite in2="hardAlpha" operator="out"/>
<feColorMatrix type="matrix" values="0 0 0 0 0 0 0 0 0 0 0 0 0 0 0 0 0 0 0.5 0"/>
<feBlend mode="normal" in2="BackgroundImageFix" result="effect1_dropShadow_459_278"/>
<feBlend mode="normal" in="SourceGraphic" in2="effect1_dropShadow_459_278" result="shape"/>
</filter>
<clipPath id="clip0_459_278">
<rect width="30.5708" height="31.8649" fill="white" transform="translate(31.9294)"/>
</clipPath>
<clipPath id="clip1_459_278">
<rect width="28.8843" height="51.8684" fill="white" transform="translate(59.613)"/>
</clipPath>
</defs>
</svg>
