<svg width="89" height="89" viewBox="0 0 89 89" fill="none" xmlns="http://www.w3.org/2000/svg">
<rect x="21.5024" y="24.1279" width="45.9342" height="45.9342" rx="22.9671" fill="#1773EA"/>
<rect x="21.5024" y="24.1279" width="45.9342" height="45.9342" rx="22.9671" stroke="#CDCCCC"/>
<path fill-rule="evenodd" clip-rule="evenodd" d="M40.7537 46.4106V57.753C40.7537 57.9486 40.8515 58.0463 41.047 58.0463H45.5449C45.7405 58.0463 45.8382 57.9486 45.8382 57.753V46.215H49.1627C49.3583 46.215 49.4561 46.1172 49.4561 45.9217L49.7494 42.4016C49.7494 42.206 49.6516 42.1083 49.4561 42.1083H45.8382V39.6638C45.8382 39.0771 46.3271 38.5882 47.0116 38.5882H49.5539C49.8472 38.5882 49.945 38.4904 49.945 38.2948V34.8726C49.945 34.677 49.8472 34.5792 49.6516 34.5792H45.3493C42.8071 34.5792 40.7537 36.437 40.7537 38.7837V42.1083H38.5048C38.3092 42.1083 38.2114 42.206 38.2114 42.4016V45.9217C38.2114 46.1172 38.3092 46.215 38.5048 46.215H40.7537V46.4106Z" fill="white"/>
<g filter="url(#filter0_d_183_2839)">
<path d="M22.9949 55.2288L23.6062 54.4472C26.9586 50.1445 31.1292 44.7916 29.4182 37.6186L27.7878 30.7841L26.5817 31.0718C22.227 32.1106 18.4897 30.9927 17.8883 28.4716L15.4761 29.047C16.0775 31.5681 13.2472 34.2527 8.89247 35.2914L7.68637 35.5792L9.31669 42.4136C11.0278 49.5866 17.1657 52.4805 22.0976 54.8059L22.9949 55.2288Z" fill="#D84025"/>
</g>
<g filter="url(#filter1_d_183_2839)">
<path d="M8.8924 35.2915C13.2471 34.2527 16.0774 31.5682 15.476 29.047L16.6821 28.7593L22.9959 55.2274L22.9947 55.2289L22.0975 54.8059C17.1657 52.4806 11.0277 49.5868 9.31661 42.4137L7.68629 35.5792L8.8924 35.2915Z" fill="#A13023"/>
</g>
<g clip-path="url(#clip0_183_2839)">
<g filter="url(#filter2_d_183_2839)">
<path fill-rule="evenodd" clip-rule="evenodd" d="M54.4435 22.5884C54.7527 23.844 55.0606 25.0986 55.3672 26.3521C52.543 27.9684 48.977 28.8709 44.4976 28.8724V23.689L54.4435 22.5884Z" fill="#535353"/>
<path fill-rule="evenodd" clip-rule="evenodd" d="M34.5598 22.5884C34.2464 23.844 33.9358 25.0986 33.6279 26.3521C36.4582 27.9684 40.016 28.8709 44.4975 28.8724V23.689L34.5598 22.5884Z" fill="#676767"/>
<path fill-rule="evenodd" clip-rule="evenodd" d="M42.2743 9.0759C35.8217 3.36948 48.0228 3.91021 51.4613 1.01904C51.704 1.26047 51.8479 1.55073 51.8752 1.85375C51.9024 2.15677 51.8117 2.45917 51.6144 2.72338C53.1408 3.67161 55.8243 2.37786 57.2793 4.1953C55.6304 4.12403 54.6264 4.61829 54.0142 5.27988C58.5363 4.75618 56.767 7.94329 60.6321 8.12302C57.7527 9.34239 50.9899 7.00126 46.8086 9.8506C44.921 9.79792 44.1619 9.13323 42.2743 9.0759Z" fill="#A23023"/>
<path fill-rule="evenodd" clip-rule="evenodd" d="M60.6302 8.0703C57.78 9.32968 51.0667 6.93003 46.916 9.85058C46.1437 9.81775 45.3837 9.6841 44.6675 9.45514C50.0964 4.6606 54.9136 8.91676 60.6322 8.0703H60.6302Z" fill="#1A1A1A"/>
<path fill-rule="evenodd" clip-rule="evenodd" d="M42.6515 8.59114C43.3966 8.64919 44.1275 8.78313 44.8236 8.9892L44.8728 9.0014C44.6296 8.72992 44.3906 8.45845 44.1556 8.18697C42.0203 6.3705 46.5142 4.22155 49.2397 3.78078C50.2213 4.41524 51.7336 4.11479 52.5082 4.56013C51.8401 5.10004 51.4262 6.03344 50.7561 6.57335C58.4079 5.79857 54.9222 7.64096 58.5943 7.99785C58.3472 7.87286 58.1227 7.72472 57.9263 7.55708C56.6968 6.51234 56.8792 5.37152 54.1988 5.67655L52.707 5.84585C52.9706 5.57335 53.2363 5.30136 53.5041 5.02988C54.1084 4.39931 55.0179 3.9679 56.041 3.82653C55.8012 3.72209 55.537 3.65224 55.2623 3.62064C55.0005 3.59114 54.7362 3.57534 54.4713 3.57336C53.2787 3.552 52.1414 3.62216 51.1926 3.05175L50.8401 2.8367C50.9098 2.74214 50.9815 2.64911 51.045 2.55607C51.2036 2.34726 51.2703 2.1067 51.2356 1.86823C50.0061 2.56217 48.3052 3.02887 46.8482 3.41626C45.6945 3.7213 44.4835 4.02633 43.3892 4.40609C42.6166 4.67757 41.7498 5.05429 41.34 5.56979C40.5961 6.53064 41.7457 7.77975 42.6515 8.59114Z" fill="#EF4123"/>
<path fill-rule="evenodd" clip-rule="evenodd" d="M43.726 8.71744C44.1138 8.79334 44.4961 8.88402 44.8716 8.98912L44.9206 9.0014C44.6783 8.72818 44.4401 8.45496 44.2059 8.18175C42.0781 6.35365 46.5563 4.19094 49.2722 3.74734C50.2504 4.38587 51.7574 4.08349 52.5293 4.53169C51.8636 5.07505 51.4511 6.01443 50.7833 6.55779C58.4083 5.77805 54.9348 7.63224 58.5941 7.99142C56.6889 7.61843 56.7236 6.27076 55.6413 5.94689C54.5591 5.62302 53.1296 6.369 52.0392 6.04513C52.1535 5.42041 52.6702 4.91235 53.4216 4.13721C52.3782 3.66292 49.746 4.08656 50.2932 2.71741C47.951 4.65909 40.4057 3.85479 43.2686 8.55013L43.726 8.71744Z" fill="#D03927"/>
<path d="M44.4128 12.7378C46.3357 12.7378 47.8945 11.7113 47.8945 10.445C47.8945 9.17875 46.3357 8.15222 44.4128 8.15222C42.4899 8.15222 40.9312 9.17875 40.9312 10.445C40.9312 11.7113 42.4899 12.7378 44.4128 12.7378Z" fill="#CDCCCC"/>
<path fill-rule="evenodd" clip-rule="evenodd" d="M44.4279 10.53C48.7929 10.53 52.5226 12.2606 54.0145 14.7018C54.8158 14.9591 55.3671 15.489 55.3671 16.0954C55.363 16.2971 55.3022 16.4958 55.1885 16.6787C55.0748 16.8615 54.9108 17.0244 54.7072 17.1568C54.6334 20.7267 50.0594 23.6075 44.4279 23.6075C38.7964 23.6075 34.2388 20.7328 34.1527 17.1721C33.94 17.0393 33.7679 16.8739 33.648 16.6871C33.5282 16.5003 33.4634 16.2964 33.458 16.0893C33.458 15.4767 34.0277 14.9361 34.8474 14.6834C36.3455 12.2483 40.069 10.53 44.4279 10.53Z" fill="#8B8A8A"/>
<path fill-rule="evenodd" clip-rule="evenodd" d="M42.7993 20.2107C46.6373 20.2107 49.7626 18.2312 49.7626 15.7949C49.7626 13.3586 46.6312 11.3792 42.7993 11.3792C38.9674 11.3792 35.8359 13.3586 35.8359 15.7949C35.8359 18.2312 38.9592 20.2107 42.7993 20.2107Z" fill="#989898"/>
<path fill-rule="evenodd" clip-rule="evenodd" d="M40.6764 15.2854C42.1273 15.2854 43.3089 14.5219 43.3089 13.587C43.3089 12.6522 42.1273 11.8887 40.6764 11.8887C39.2256 11.8887 38.0439 12.6506 38.0439 13.587C38.0439 14.5235 39.2379 15.2854 40.6764 15.2854Z" fill="#ACACAC"/>
<path fill-rule="evenodd" clip-rule="evenodd" d="M44.4976 14.2665H44.398C43.0095 14.2611 41.6314 14.4487 40.3311 14.82L32.7788 16.9646V23.3547C36.0832 26.2792 39.9366 28.5695 44.4976 30.0613V14.2665Z" fill="#CDCCCC"/>
<path fill-rule="evenodd" clip-rule="evenodd" d="M42.7991 15.2854C42.1973 15.3616 41.6069 15.484 41.0364 15.651L39.5886 16.0678V26.7622C40.6103 27.3513 41.6823 27.8861 42.7971 28.3629V15.2854H42.7991ZM38.9088 16.2638L36.6568 16.9125V24.8458C37.3687 25.37 38.1187 25.8771 38.9088 26.3593V16.2638ZM35.979 17.1069L34.4771 17.5394V23.0865C34.9583 23.5096 35.459 23.9244 35.979 24.3309V17.1069Z" fill="#333333"/>
<path fill-rule="evenodd" clip-rule="evenodd" d="M44.4976 14.2664H44.5972C45.9823 14.262 47.3568 14.4496 48.6539 14.82L56.2164 16.963V23.3532C52.91 26.2792 49.0566 28.5695 44.4976 30.0613V14.2664Z" fill="#B4B4B4"/>
<path fill-rule="evenodd" clip-rule="evenodd" d="M46.1958 15.2854C46.8099 15.3618 47.4126 15.4842 47.9949 15.651L49.4726 16.0678V26.7622C48.4294 27.351 47.3354 27.8857 46.1978 28.3629V15.2854H46.1958ZM50.1665 16.2638L52.4629 16.9125V24.8458C51.7383 25.37 50.9729 25.8771 50.1665 26.3593V16.2638ZM53.1567 17.1069L54.6877 17.5394V23.0865C54.1978 23.5096 53.6875 23.9244 53.1567 24.3309V17.1069Z" fill="#1A1A1A"/>
<path fill-rule="evenodd" clip-rule="evenodd" d="M43.5342 8.66174C44.1861 8.66174 44.4987 8.96662 44.2334 9.34109C44.0654 9.54109 43.8244 9.70857 43.5335 9.82751C43.2426 9.94646 42.9115 10.0129 42.5719 10.0204C41.922 10.0204 41.6095 9.71696 41.8747 9.34109C42.0429 9.14147 42.2836 8.97426 42.574 8.85535C42.8645 8.73645 43.195 8.6698 43.5342 8.66174Z" fill="#E3E3E3"/>
</g>
</g>
<g clip-path="url(#clip1_183_2839)">
<g filter="url(#filter3_d_183_2839)">
<path fill-rule="evenodd" clip-rule="evenodd" d="M60.0088 47.2835L60.1448 47.3539C60.299 47.4366 60.4706 47.4817 60.6455 47.4855C60.8205 47.4893 60.9939 47.4517 61.1515 47.3757C61.3113 47.3045 61.452 47.1966 61.5623 47.0608C61.6726 46.925 61.7493 46.7651 61.7862 46.5942C62.0988 45.2279 62.7241 43.5585 63.6136 41.8343C64.5031 40.1101 65.502 38.6345 66.4275 37.5887C66.5434 37.4584 66.6281 37.3033 66.6749 37.1353C66.7217 36.9673 66.7295 36.7908 66.6977 36.6193C66.6659 36.4478 66.5953 36.2859 66.4913 36.1459C66.3873 36.0058 66.2526 35.8914 66.0976 35.8114L65.9601 35.7411L66.526 34.6469L69.1835 36.0162L71.841 37.384L71.2751 38.4782L71.1391 38.4078C70.9834 38.3264 70.8111 38.2819 70.6354 38.2777C70.4598 38.2736 70.2855 38.31 70.1262 38.3841C69.9668 38.4581 69.8267 38.5679 69.7166 38.7049C69.6066 38.8418 69.5295 39.0023 69.4914 39.1738C69.1788 40.5384 68.5535 42.2095 67.664 43.9321C66.7745 45.6547 65.7756 47.1319 64.8502 48.1776C64.7342 48.3081 64.6496 48.4633 64.6027 48.6314C64.5559 48.7996 64.5481 48.9762 64.5799 49.1478C64.6117 49.3194 64.6823 49.4814 64.7863 49.6216C64.8903 49.7618 65.025 49.8763 65.18 49.9565L65.3176 50.0269L64.7517 51.1211L62.0941 49.7533L59.4429 48.3793L60.0088 47.2835Z" fill="#CA3927"/>
<path fill-rule="evenodd" clip-rule="evenodd" d="M66.7735 38.234C67.2118 38.4627 66.6031 40.5413 65.412 42.8737C64.221 45.2061 62.8998 46.9135 62.4692 46.6848C62.0386 46.4561 62.6396 44.3775 63.8306 42.0451C65.0217 39.7127 66.3351 38.0053 66.7735 38.234Z" fill="#F04B23"/>
<path fill-rule="evenodd" clip-rule="evenodd" d="M86.1073 3.39673L84.6829 11.4454L71.396 37.1944L67.0854 34.9697L80.3724 9.22067L86.1073 3.39673Z" fill="#D1D2D2"/>
<path fill-rule="evenodd" clip-rule="evenodd" d="M81.8078 7.74434L84.07 6.27113L83.2745 11.0728L71.3315 37.1944L84.6768 11.4454L86.1074 3.39673L81.8078 7.74434Z" fill="#E6E6E5"/>
<path fill-rule="evenodd" clip-rule="evenodd" d="M82.371 10.6998L76.0931 23.5217L69.8136 36.3452L69.1282 35.9965L68.4443 35.6477L75.4077 23.1745L82.371 10.6998Z" fill="#818181"/>
<path fill-rule="evenodd" clip-rule="evenodd" d="M65.7724 33.4234L73.372 37.3669C73.7628 37.0841 74.2369 36.9418 74.7179 36.9631C75.1989 36.9844 75.6587 37.168 76.0233 37.4842C76.3878 37.8005 76.6358 38.231 76.7273 38.7064C76.8188 39.1817 76.7484 39.6742 76.5275 40.1044C76.3066 40.5346 75.9481 40.8775 75.5097 41.0777C75.0714 41.2779 74.5787 41.3238 74.1113 41.208C73.6438 41.0922 73.2287 40.8214 72.933 40.4394C72.6372 40.0573 72.478 39.5862 72.4811 39.1021L64.8815 35.1585C64.4903 35.4422 64.0154 35.585 63.5336 35.5639C63.0518 35.5429 62.591 35.3592 62.2257 35.0425C61.8604 34.7258 61.6119 34.2946 61.5201 33.8185C61.4284 33.3423 61.4989 32.8489 61.7201 32.418C61.9414 31.987 62.3006 31.6436 62.7398 31.4431C63.1789 31.2426 63.6724 31.1968 64.1407 31.3129C64.609 31.4291 65.0246 31.7005 65.3207 32.0834C65.6167 32.4663 65.7759 32.9384 65.7724 33.4234Z" fill="#333333"/>
</g>
</g>
<g filter="url(#filter4_d_183_2839)">
<path d="M6.77041 75.625V78.769H10.8864V79.609H6.77041V83.509H5.84641V74.761H11.2704V75.625H6.77041ZM14.3944 80.065H16.0504V79.669C16.0504 78.701 15.5424 78.217 14.5264 78.217C14.0384 78.217 13.6624 78.349 13.3984 78.613C13.1584 78.853 13.0144 79.125 12.9664 79.429L12.1264 79.249C12.1344 79.081 12.2144 78.869 12.3664 78.613C12.5184 78.357 12.7184 78.129 12.9664 77.929C13.3904 77.601 13.9184 77.437 14.5504 77.437C15.6384 77.437 16.3624 77.849 16.7224 78.673C16.8424 78.953 16.9024 79.281 16.9024 79.657V81.337C16.9024 82.313 16.9344 83.037 16.9984 83.509H16.1344C16.0784 83.205 16.0504 82.857 16.0504 82.465C15.5464 83.233 14.8744 83.617 14.0344 83.617C13.4344 83.617 12.9544 83.449 12.5944 83.113C12.2184 82.785 12.0304 82.365 12.0304 81.853V81.793C12.0304 81.201 12.2664 80.765 12.7384 80.485C13.2184 80.205 13.7704 80.065 14.3944 80.065ZM16.0504 80.989V80.785H14.3824C14.0144 80.785 13.6904 80.853 13.4104 80.989C13.0744 81.133 12.9064 81.397 12.9064 81.781C12.9064 82.109 13.0304 82.369 13.2784 82.561C13.5184 82.753 13.8224 82.849 14.1904 82.849C14.7104 82.849 15.1544 82.673 15.5224 82.321C15.8744 81.985 16.0504 81.541 16.0504 80.989ZM19.258 80.497C19.258 81.393 19.594 82.061 20.266 82.501C20.594 82.725 20.978 82.837 21.418 82.837C21.898 82.837 22.306 82.713 22.642 82.465C22.762 82.377 22.886 82.257 23.014 82.105C23.19 81.873 23.322 81.641 23.41 81.409L24.214 81.673C24.078 82.153 23.774 82.585 23.302 82.969C22.79 83.401 22.158 83.617 21.406 83.617C20.55 83.633 19.826 83.345 19.234 82.753C18.65 82.161 18.362 81.425 18.37 80.545C18.37 79.969 18.51 79.437 18.79 78.949C19.07 78.469 19.442 78.097 19.906 77.833C20.37 77.569 20.882 77.437 21.442 77.437C22.114 77.437 22.706 77.621 23.218 77.989C23.738 78.381 24.058 78.833 24.178 79.345L23.386 79.609C23.298 79.289 23.082 78.977 22.738 78.673C22.402 78.369 21.962 78.217 21.418 78.217C20.794 78.217 20.278 78.437 19.87 78.877C19.462 79.325 19.258 79.865 19.258 80.497ZM30.9372 80.797H26.1132C26.1452 81.381 26.3652 81.865 26.7732 82.249C27.1732 82.641 27.6652 82.837 28.2492 82.837C28.7052 82.837 29.0932 82.729 29.4132 82.513C29.7332 82.289 29.9612 81.973 30.0972 81.565L30.8652 81.805C30.6972 82.365 30.3732 82.809 29.8932 83.137C29.3972 83.457 28.8532 83.617 28.2612 83.617C27.7012 83.617 27.1852 83.477 26.7132 83.197C26.2412 82.917 25.8812 82.541 25.6332 82.069C25.3692 81.605 25.2372 81.089 25.2372 80.521C25.2372 79.977 25.3612 79.473 25.6092 79.009C25.8412 78.537 26.1892 78.157 26.6532 77.869C27.1012 77.581 27.5972 77.437 28.1412 77.437C28.7412 77.437 29.2532 77.573 29.6772 77.845C30.1092 78.109 30.4292 78.473 30.6372 78.937C30.8452 79.377 30.9492 79.901 30.9492 80.509C30.9492 80.613 30.9452 80.709 30.9372 80.797ZM26.1252 80.053H30.0732C30.0172 79.509 29.8172 79.061 29.4732 78.709C29.1372 78.373 28.6932 78.205 28.1412 78.205C27.6372 78.205 27.1932 78.385 26.8092 78.745C26.4252 79.121 26.1972 79.557 26.1252 80.053ZM38.4303 80.521C38.4303 81.065 38.3143 81.569 38.0823 82.033C37.8503 82.497 37.5223 82.873 37.0983 83.161C36.6663 83.449 36.1743 83.593 35.6223 83.593C34.6383 83.593 33.8663 83.145 33.3063 82.249V83.509H32.4543V74.413H33.3303V78.829C33.9303 77.901 34.6943 77.437 35.6223 77.437C36.4703 77.437 37.1543 77.757 37.6743 78.397C38.1783 79.021 38.4303 79.729 38.4303 80.521ZM35.4543 82.837C36.0783 82.837 36.5863 82.617 36.9783 82.177C37.3543 81.729 37.5423 81.185 37.5423 80.545C37.5423 79.641 37.2183 78.973 36.5703 78.541C36.2583 78.325 35.8863 78.217 35.4543 78.217C34.8623 78.209 34.3543 78.437 33.9303 78.901C33.5063 79.365 33.3023 79.901 33.3183 80.509C33.3183 81.149 33.5183 81.693 33.9183 82.141C34.3263 82.605 34.8383 82.837 35.4543 82.837ZM42.5941 83.617C42.0421 83.617 41.5261 83.481 41.0461 83.209C40.5741 82.929 40.2061 82.557 39.9421 82.093C39.6701 81.629 39.5341 81.113 39.5341 80.545C39.5341 79.657 39.8301 78.921 40.4221 78.337C41.0141 77.737 41.7461 77.437 42.6181 77.437C43.4661 77.421 44.1941 77.721 44.8021 78.337C45.4181 78.945 45.7181 79.669 45.7021 80.509C45.7181 81.373 45.4181 82.113 44.8021 82.729C44.1861 83.337 43.4501 83.633 42.5941 83.617ZM42.6181 82.837C43.2421 82.837 43.7661 82.613 44.1901 82.165C44.5981 81.717 44.8021 81.177 44.8021 80.545C44.8021 79.905 44.5941 79.353 44.1781 78.889C43.7541 78.433 43.2261 78.205 42.5941 78.205C41.9621 78.205 41.4421 78.429 41.0341 78.877C40.6261 79.325 40.4221 79.869 40.4221 80.509C40.4061 81.141 40.6101 81.689 41.0341 82.153C41.4661 82.617 41.9941 82.845 42.6181 82.837ZM49.8597 83.617C49.3077 83.617 48.7917 83.481 48.3117 83.209C47.8397 82.929 47.4717 82.557 47.2077 82.093C46.9357 81.629 46.7997 81.113 46.7997 80.545C46.7997 79.657 47.0957 78.921 47.6877 78.337C48.2797 77.737 49.0117 77.437 49.8837 77.437C50.7317 77.421 51.4597 77.721 52.0677 78.337C52.6837 78.945 52.9837 79.669 52.9677 80.509C52.9837 81.373 52.6837 82.113 52.0677 82.729C51.4517 83.337 50.7157 83.633 49.8597 83.617ZM49.8837 82.837C50.5077 82.837 51.0317 82.613 51.4557 82.165C51.8637 81.717 52.0677 81.177 52.0677 80.545C52.0677 79.905 51.8597 79.353 51.4437 78.889C51.0197 78.433 50.4917 78.205 49.8597 78.205C49.2277 78.205 48.7077 78.429 48.2997 78.877C47.8917 79.325 47.6877 79.869 47.6877 80.509C47.6717 81.141 47.8757 81.689 48.2997 82.153C48.7317 82.617 49.2597 82.845 49.8837 82.837ZM55.4093 80.521H55.3733V83.509H54.4973V74.401H55.3733V79.969L58.2053 77.545H59.4413L56.2973 80.221L59.5853 83.509H58.3733L55.4093 80.521ZM63.3125 79.513V79.225C63.3125 78.073 63.5925 77.025 64.1525 76.081C64.7045 75.129 65.4845 74.365 66.4925 73.789L66.8525 74.353C65.0845 75.489 64.2005 77.117 64.2005 79.237V79.501C64.2005 81.605 65.0845 83.229 66.8525 84.373L66.4925 84.961C65.4845 84.377 64.7045 83.609 64.1525 82.657C63.5925 81.713 63.3125 80.665 63.3125 79.513ZM69.2899 75.625V78.769H73.4059V79.609H69.2899V83.509H68.3659V74.761H73.7899V75.625H69.2899ZM78.7198 83.509H75.4558V74.761H78.5998C79.4158 74.745 80.0878 74.937 80.6158 75.337C81.1518 75.729 81.4198 76.269 81.4198 76.957C81.4198 77.189 81.3798 77.429 81.2998 77.677C81.2518 77.829 81.1798 77.981 81.0838 78.133C80.8598 78.485 80.5278 78.761 80.0878 78.961C80.7038 79.121 81.1558 79.437 81.4438 79.909C81.6838 80.309 81.8038 80.709 81.8038 81.109C81.8038 81.925 81.4958 82.537 80.8798 82.945C80.2958 83.321 79.5758 83.509 78.7198 83.509ZM78.5278 75.601H76.3678V78.649H78.4558C79.1438 78.649 79.6518 78.501 79.9798 78.205C80.3158 77.909 80.4838 77.529 80.4838 77.065C80.4838 76.569 80.2958 76.201 79.9198 75.961C79.5438 75.721 79.0798 75.601 78.5278 75.601ZM78.5638 79.465H76.3678V82.669H78.7438C79.3118 82.669 79.8078 82.541 80.2318 82.285C80.6558 82.021 80.8678 81.609 80.8678 81.049C80.8678 80.377 80.5158 79.917 79.8118 79.669C79.4598 79.533 79.0438 79.465 78.5638 79.465ZM85.3377 79.225V79.513C85.3377 80.673 85.0617 81.725 84.5097 82.669C83.9497 83.613 83.1657 84.377 82.1577 84.961L81.7977 84.373C83.5657 83.229 84.4497 81.605 84.4497 79.501V79.237C84.4497 77.117 83.5657 75.489 81.7977 74.353L82.1577 73.789C83.1657 74.357 83.9497 75.117 84.5097 76.069C85.0617 77.021 85.3377 78.073 85.3377 79.225Z" fill="white"/>
</g>
<defs>
<filter id="filter0_d_183_2839" x="3.68652" y="28.4716" width="30.1289" height="34.7572" filterUnits="userSpaceOnUse" color-interpolation-filters="sRGB">
<feFlood flood-opacity="0" result="BackgroundImageFix"/>
<feColorMatrix in="SourceAlpha" type="matrix" values="0 0 0 0 0 0 0 0 0 0 0 0 0 0 0 0 0 0 127 0" result="hardAlpha"/>
<feOffset dy="4"/>
<feGaussianBlur stdDeviation="2"/>
<feComposite in2="hardAlpha" operator="out"/>
<feColorMatrix type="matrix" values="0 0 0 0 0 0 0 0 0 0 0 0 0 0 0 0 0 0 0.25 0"/>
<feBlend mode="normal" in2="BackgroundImageFix" result="effect1_dropShadow_183_2839"/>
<feBlend mode="normal" in="SourceGraphic" in2="effect1_dropShadow_183_2839" result="shape"/>
</filter>
<filter id="filter1_d_183_2839" x="3.68652" y="28.7593" width="23.3096" height="34.4695" filterUnits="userSpaceOnUse" color-interpolation-filters="sRGB">
<feFlood flood-opacity="0" result="BackgroundImageFix"/>
<feColorMatrix in="SourceAlpha" type="matrix" values="0 0 0 0 0 0 0 0 0 0 0 0 0 0 0 0 0 0 127 0" result="hardAlpha"/>
<feOffset dy="4"/>
<feGaussianBlur stdDeviation="2"/>
<feComposite in2="hardAlpha" operator="out"/>
<feColorMatrix type="matrix" values="0 0 0 0 0 0 0 0 0 0 0 0 0 0 0 0 0 0 0.25 0"/>
<feBlend mode="normal" in2="BackgroundImageFix" result="effect1_dropShadow_183_2839"/>
<feBlend mode="normal" in="SourceGraphic" in2="effect1_dropShadow_183_2839" result="shape"/>
</filter>
<filter id="filter2_d_183_2839" x="22.7788" y="-4.98096" width="47.8535" height="49.0422" filterUnits="userSpaceOnUse" color-interpolation-filters="sRGB">
<feFlood flood-opacity="0" result="BackgroundImageFix"/>
<feColorMatrix in="SourceAlpha" type="matrix" values="0 0 0 0 0 0 0 0 0 0 0 0 0 0 0 0 0 0 127 0" result="hardAlpha"/>
<feOffset dy="4"/>
<feGaussianBlur stdDeviation="5"/>
<feComposite in2="hardAlpha" operator="out"/>
<feColorMatrix type="matrix" values="0 0 0 0 0 0 0 0 0 0 0 0 0 0 0 0 0 0 0.5 0"/>
<feBlend mode="normal" in2="BackgroundImageFix" result="effect1_dropShadow_183_2839"/>
<feBlend mode="normal" in="SourceGraphic" in2="effect1_dropShadow_183_2839" result="shape"/>
</filter>
<filter id="filter3_d_183_2839" x="49.4429" y="-2.60327" width="46.6646" height="67.7244" filterUnits="userSpaceOnUse" color-interpolation-filters="sRGB">
<feFlood flood-opacity="0" result="BackgroundImageFix"/>
<feColorMatrix in="SourceAlpha" type="matrix" values="0 0 0 0 0 0 0 0 0 0 0 0 0 0 0 0 0 0 127 0" result="hardAlpha"/>
<feOffset dy="4"/>
<feGaussianBlur stdDeviation="5"/>
<feComposite in2="hardAlpha" operator="out"/>
<feColorMatrix type="matrix" values="0 0 0 0 0 0 0 0 0 0 0 0 0 0 0 0 0 0 0.5 0"/>
<feBlend mode="normal" in2="BackgroundImageFix" result="effect1_dropShadow_183_2839"/>
<feBlend mode="normal" in="SourceGraphic" in2="effect1_dropShadow_183_2839" result="shape"/>
</filter>
<filter id="filter4_d_183_2839" x="3.84619" y="73.7891" width="83.4917" height="15.172" filterUnits="userSpaceOnUse" color-interpolation-filters="sRGB">
<feFlood flood-opacity="0" result="BackgroundImageFix"/>
<feColorMatrix in="SourceAlpha" type="matrix" values="0 0 0 0 0 0 0 0 0 0 0 0 0 0 0 0 0 0 127 0" result="hardAlpha"/>
<feOffset dy="2"/>
<feGaussianBlur stdDeviation="1"/>
<feComposite in2="hardAlpha" operator="out"/>
<feColorMatrix type="matrix" values="0 0 0 0 0 0 0 0 0 0 0 0 0 0 0 0 0 0 0.5 0"/>
<feBlend mode="normal" in2="BackgroundImageFix" result="effect1_dropShadow_183_2839"/>
<feBlend mode="normal" in="SourceGraphic" in2="effect1_dropShadow_183_2839" result="shape"/>
</filter>
<clipPath id="clip0_183_2839">
<rect width="30.5708" height="31.8649" fill="white" transform="translate(31.9297)"/>
</clipPath>
<clipPath id="clip1_183_2839">
<rect width="28.8843" height="51.8684" fill="white" transform="translate(59.6128)"/>
</clipPath>
</defs>
</svg>
