<svg width="90" height="89" viewBox="0 0 90 89" fill="none" xmlns="http://www.w3.org/2000/svg">
<rect x="21.5801" y="24.1279" width="45.9342" height="45.9342" rx="22.9671" fill="#1773EA"/>
<rect x="21.5801" y="24.1279" width="45.9342" height="45.9342" rx="22.9671" stroke="#CDCCCC"/>
<path fill-rule="evenodd" clip-rule="evenodd" d="M40.8316 46.4106V57.753C40.8316 57.9486 40.9294 58.0463 41.1249 58.0463H45.6228C45.8183 58.0463 45.9161 57.9486 45.9161 57.753V46.215H49.2406C49.4362 46.215 49.534 46.1172 49.534 45.9217L49.8273 42.4016C49.8273 42.206 49.7295 42.1083 49.534 42.1083H45.9161V39.6638C45.9161 39.0771 46.405 38.5882 47.0895 38.5882H49.6317C49.9251 38.5882 50.0229 38.4904 50.0229 38.2948V34.8726C50.0229 34.677 49.9251 34.5792 49.7295 34.5792H45.4272C42.8849 34.5792 40.8316 36.437 40.8316 38.7837V42.1083H38.5826C38.3871 42.1083 38.2893 42.206 38.2893 42.4016V45.9217C38.2893 46.1172 38.3871 46.215 38.5826 46.215H40.8316V46.4106Z" fill="white"/>
<g clip-path="url(#clip0_183_2727)">
<g filter="url(#filter0_d_183_2727)">
<path d="M66.9175 55.4018L66.3039 54.6172C62.9388 50.2981 58.7522 44.9249 60.4698 37.7246L62.1064 30.8641L63.317 31.1529C67.6883 32.1956 71.4399 31.0735 72.0436 28.5428L74.4649 29.1204C73.8612 31.6511 76.7023 34.3459 81.0736 35.3886L82.2843 35.6774L80.6478 42.5379C78.9302 49.7382 72.7688 52.6431 67.8183 54.9772L66.9175 55.4018Z" fill="#7AB9E8"/>
</g>
<g filter="url(#filter1_d_183_2727)">
<path d="M81.0738 35.3887C76.7025 34.3459 73.8614 31.6512 74.4651 29.1205L73.2544 28.8317L66.9166 55.4004L66.9178 55.4019L67.8185 54.9773C72.769 52.6431 78.9303 49.7383 80.6479 42.538L82.2845 35.6775L81.0738 35.3887Z" fill="#579ADF"/>
</g>
</g>
<g clip-path="url(#clip1_183_2727)">
<g filter="url(#filter2_d_183_2727)">
<path fill-rule="evenodd" clip-rule="evenodd" d="M35.1478 22.6743C34.8374 23.9347 34.5283 25.194 34.2206 26.4523C37.0556 28.0747 40.6351 28.9807 45.1316 28.9822V23.779L35.1478 22.6743Z" fill="#535353"/>
<path fill-rule="evenodd" clip-rule="evenodd" d="M55.1071 22.6743C55.4216 23.9347 55.7334 25.194 56.0425 26.4523C53.2014 28.0747 49.6301 28.9807 45.1315 28.9822V23.779L55.1071 22.6743Z" fill="#676767"/>
<path fill-rule="evenodd" clip-rule="evenodd" d="M47.3632 9.11046C53.8403 3.38232 41.5928 3.92512 38.1412 1.02295C37.8976 1.26529 37.7531 1.55666 37.7258 1.86083C37.6985 2.165 37.7895 2.46856 37.9876 2.73377C36.4554 3.68561 33.7617 2.38694 32.3011 4.21129C33.9563 4.13975 34.9641 4.63589 35.5786 5.3C31.0393 4.77431 32.8153 7.97354 28.9356 8.15395C31.8259 9.37797 38.6144 7.02792 42.8116 9.8881C44.7064 9.83522 45.4684 9.168 47.3632 9.11046Z" fill="#1B2241"/>
<path fill-rule="evenodd" clip-rule="evenodd" d="M28.9377 8.10108C31.7988 9.36525 38.5376 6.95647 42.7041 9.88814C43.4794 9.85518 44.2422 9.72102 44.9612 9.49119C39.5116 4.67842 34.6761 8.95077 28.9357 8.10108H28.9377Z" fill="#1A1A1A"/>
<path fill-rule="evenodd" clip-rule="evenodd" d="M46.985 8.62385C46.237 8.68213 45.5034 8.81658 44.8045 9.02344L44.7552 9.03568C44.9993 8.76317 45.2393 8.49066 45.4751 8.21815C47.6185 6.39477 43.1075 4.23764 40.3717 3.79519C39.3864 4.43208 37.8683 4.13048 37.0908 4.57752C37.7613 5.11948 38.1769 6.05643 38.8495 6.59839C31.1686 5.82066 34.6676 7.67006 30.9814 8.02831C31.2295 7.90284 31.4549 7.75414 31.652 7.58586C32.8862 6.53715 32.7032 5.39199 35.3937 5.69818L36.8912 5.86812C36.6266 5.59459 36.3598 5.32156 36.0911 5.04905C35.4845 4.41608 34.5715 3.98303 33.5445 3.84112C33.7853 3.73628 34.0504 3.66616 34.3261 3.63444C34.589 3.60483 34.8543 3.58897 35.1201 3.58698C36.3173 3.56555 37.459 3.63597 38.4114 3.06339L38.7652 2.84753C38.6952 2.75261 38.6232 2.65922 38.5595 2.56583C38.4003 2.35623 38.3333 2.11475 38.3682 1.87537C39.6024 2.57195 41.3097 3.04043 42.7722 3.42929C43.9303 3.73549 45.146 4.04168 46.2445 4.42289C47.02 4.6954 47.8901 5.07355 48.3015 5.59101C49.0482 6.55552 47.8942 7.80938 46.985 8.62385Z" fill="#4386BB"/>
<path fill-rule="evenodd" clip-rule="evenodd" d="M45.9063 8.75064C45.517 8.82683 45.1332 8.91786 44.7563 9.02335L44.7071 9.03568C44.9504 8.76142 45.1895 8.48717 45.4246 8.21291C47.5604 6.37786 43.0652 4.20692 40.339 3.76164C39.3571 4.4026 37.8444 4.09907 37.0695 4.54897C37.7378 5.0944 38.1518 6.03735 38.8221 6.58278C31.1681 5.80007 34.6549 7.66132 30.9816 8.02186C32.8941 7.64745 32.8592 6.29466 33.9456 5.96956C35.032 5.64445 36.4669 6.39327 37.5615 6.06816C37.4467 5.44107 36.9281 4.93108 36.1738 4.15299C37.2212 3.6769 39.8634 4.10215 39.3141 2.72778C41.6652 4.67685 49.2392 3.86949 46.3654 8.5827L45.9063 8.75064Z" fill="#283A84"/>
<path d="M45.217 12.7863C43.2868 12.7863 41.7221 11.7559 41.7221 10.4848C41.7221 9.21366 43.2868 8.18323 45.217 8.18323C47.1472 8.18323 48.7119 9.21366 48.7119 10.4848C48.7119 11.7559 47.1472 12.7863 45.217 12.7863Z" fill="#CDCCCC"/>
<path fill-rule="evenodd" clip-rule="evenodd" d="M45.2015 10.5701C40.8199 10.5701 37.076 12.3072 35.5784 14.7577C34.7741 15.016 34.2207 15.5479 34.2207 16.1567C34.2248 16.3591 34.2859 16.5586 34.4 16.7422C34.5141 16.9257 34.6787 17.0893 34.8831 17.2221C34.9572 20.8056 39.5486 23.6973 45.2015 23.6973C50.8544 23.6973 55.4294 20.8117 55.5158 17.2375C55.7293 17.1041 55.9021 16.9381 56.0224 16.7506C56.1427 16.5631 56.2078 16.3585 56.2131 16.1506C56.2131 15.5356 55.6413 14.993 54.8184 14.7393C53.3147 12.295 49.5769 10.5701 45.2015 10.5701Z" fill="#8B8A8A"/>
<path fill-rule="evenodd" clip-rule="evenodd" d="M46.8366 20.2876C42.984 20.2876 39.8468 18.3006 39.8468 15.8551C39.8468 13.4095 42.9901 11.4225 46.8366 11.4225C50.683 11.4225 53.8264 13.4095 53.8264 15.8551C53.8264 18.3006 50.6913 20.2876 46.8366 20.2876Z" fill="#989898"/>
<path fill-rule="evenodd" clip-rule="evenodd" d="M48.9676 15.3436C47.5112 15.3436 46.3251 14.5772 46.3251 13.6388C46.3251 12.7004 47.5112 11.934 48.9676 11.934C50.424 11.934 51.6101 12.6988 51.6101 13.6388C51.6101 14.5788 50.4116 15.3436 48.9676 15.3436Z" fill="#ACACAC"/>
<path fill-rule="evenodd" clip-rule="evenodd" d="M45.1316 14.3208H45.2317C46.6254 14.3154 48.0088 14.5037 49.314 14.8765L56.895 17.0292V23.4436C53.5781 26.3793 49.71 28.6783 45.1316 30.1757V14.3208Z" fill="#CDCCCC"/>
<path fill-rule="evenodd" clip-rule="evenodd" d="M46.8365 15.3436C47.4405 15.4201 48.0332 15.543 48.6059 15.7106L50.0592 16.129V26.8641C49.0336 27.4554 47.9575 27.9922 46.8385 28.4709V15.3436H46.8365ZM50.7416 16.3258L53.0021 16.9769V24.9404C52.2875 25.4666 51.5347 25.9756 50.7416 26.4597V16.3258ZM53.6825 17.1721L55.1902 17.6062V23.1744C54.7071 23.5991 54.2045 24.0155 53.6825 24.4236V17.1721Z" fill="#333333"/>
<path fill-rule="evenodd" clip-rule="evenodd" d="M45.1316 14.3208H45.0316C43.6412 14.3163 42.2614 14.5046 40.9594 14.8764L33.3682 17.0276V23.4421C36.6872 26.3793 40.5552 28.6783 45.1316 30.1757V14.3208Z" fill="#B4B4B4"/>
<path fill-rule="evenodd" clip-rule="evenodd" d="M43.4268 15.3436C42.8103 15.4203 42.2054 15.5432 41.6208 15.7106L40.1375 16.129V26.8641C41.1846 27.4551 42.2828 27.9919 43.4247 28.4709V15.3436H43.4268ZM39.441 16.3258L37.1358 16.9769V24.9404C37.8631 25.4666 38.6315 25.9756 39.441 26.4597V16.3258ZM36.4394 17.1721L34.9026 17.6062V23.1744C35.3943 23.5991 35.9065 24.0155 36.4394 24.4236V17.1721Z" fill="#1A1A1A"/>
<path fill-rule="evenodd" clip-rule="evenodd" d="M46.0987 8.6947C45.4444 8.6947 45.1306 9.00073 45.3969 9.37664C45.5655 9.5774 45.8074 9.74551 46.0994 9.86491C46.3915 9.9843 46.7238 10.051 47.0648 10.0586C47.7171 10.0586 48.0308 9.75394 47.7645 9.37664C47.5958 9.17625 47.3542 9.00841 47.0626 8.88905C46.7711 8.76969 46.4393 8.70279 46.0987 8.6947Z" fill="#E3E3E3"/>
</g>
</g>
<g clip-path="url(#clip2_183_2727)">
<g filter="url(#filter3_d_183_2727)">
<path fill-rule="evenodd" clip-rule="evenodd" d="M29.5728 47.4634L29.4363 47.534C29.2815 47.6171 29.1093 47.6624 28.9337 47.6662C28.758 47.67 28.584 47.6323 28.4257 47.556C28.2654 47.4845 28.1241 47.3762 28.0134 47.2399C27.9027 47.1036 27.8257 46.9431 27.7886 46.7714C27.4748 45.4 26.8471 43.7242 25.9542 41.9935C25.0614 40.2628 24.0587 38.7815 23.1297 37.7318C23.0133 37.601 22.9284 37.4453 22.8813 37.2766C22.8343 37.108 22.8265 36.9308 22.8584 36.7587C22.8904 36.5865 22.9613 36.424 23.0657 36.2834C23.1701 36.1428 23.3052 36.028 23.4608 35.9477L23.5989 35.8771L23.0308 34.7787L20.3632 36.1532L17.6956 37.5262L18.2636 38.6246L18.4001 38.554C18.5564 38.4722 18.7294 38.4275 18.9057 38.4234C19.0821 38.4192 19.257 38.4558 19.4169 38.5301C19.5769 38.6045 19.7175 38.7147 19.828 38.8521C19.9385 38.9896 20.0159 39.1507 20.0541 39.3228C20.3679 40.6927 20.9956 42.3701 21.8885 44.0992C22.7813 45.8284 23.784 47.3112 24.713 48.361C24.8294 48.4919 24.9144 48.6477 24.9614 48.8165C25.0084 48.9852 25.0162 49.1625 24.9843 49.3348C24.9523 49.507 24.8815 49.6697 24.7771 49.8104C24.6727 49.9511 24.5375 50.0661 24.3819 50.1466L24.2438 50.2172L24.8119 51.3156L27.4795 49.9426L30.1409 48.5634L29.5728 47.4634Z" fill="#4592CF"/>
<path fill-rule="evenodd" clip-rule="evenodd" d="M22.7824 38.3795C22.3424 38.6091 22.9534 40.6956 24.149 43.0369C25.3446 45.3781 26.6708 47.092 27.103 46.8625C27.5353 46.6329 26.932 44.5463 25.7364 42.2051C24.5408 39.8638 23.2224 38.1499 22.7824 38.3795Z" fill="#283A84"/>
<path fill-rule="evenodd" clip-rule="evenodd" d="M3.37482 3.40967L4.80457 11.4889L18.142 37.3359L22.469 35.1028L9.13151 9.25577L3.37482 3.40967Z" fill="#D1D2D2"/>
<path fill-rule="evenodd" clip-rule="evenodd" d="M7.69091 7.77382L5.4201 6.295L6.21859 11.1149L18.207 37.3359L4.81097 11.4889L3.37495 3.40967L7.69091 7.77382Z" fill="#E6E6E5"/>
<path fill-rule="evenodd" clip-rule="evenodd" d="M7.12556 10.7405L13.4273 23.6112L19.7307 36.4835L20.4188 36.1334L21.1052 35.7833L14.1154 23.2627L7.12556 10.7405Z" fill="#818181"/>
<path fill-rule="evenodd" clip-rule="evenodd" d="M23.7872 33.5505L16.1586 37.5091C15.7664 37.2252 15.2905 37.0824 14.8077 37.1037C14.3249 37.1251 13.8633 37.3094 13.4973 37.6268C13.1314 37.9443 12.8825 38.3765 12.7906 38.8536C12.6988 39.3308 12.7694 39.8251 12.9912 40.257C13.2129 40.6888 13.5728 41.033 14.0128 41.234C14.4529 41.4349 14.9474 41.481 15.4166 41.3648C15.8859 41.2485 16.3025 40.9768 16.5994 40.5932C16.8963 40.2097 17.056 39.7368 17.053 39.2508L24.6815 35.2923C25.0742 35.577 25.5508 35.7203 26.0345 35.6992C26.5182 35.6781 26.9807 35.4937 27.3474 35.1758C27.7141 34.8579 27.9636 34.4251 28.0557 33.9471C28.1477 33.4691 28.077 32.9739 27.8549 32.5413C27.6328 32.1087 27.2722 31.764 26.8314 31.5627C26.3905 31.3615 25.8951 31.3155 25.4251 31.4321C24.9551 31.5487 24.5378 31.8212 24.2406 32.2055C23.9435 32.5899 23.7837 33.0637 23.7872 33.5505Z" fill="#333333"/>
</g>
</g>
<g filter="url(#filter4_d_183_2727)">
<path d="M8.16071 75.625V78.769H12.2767V79.609H8.16071V83.509H7.23671V74.761H12.6607V75.625H8.16071ZM15.7847 80.065H17.4407V79.669C17.4407 78.701 16.9327 78.217 15.9167 78.217C15.4287 78.217 15.0527 78.349 14.7887 78.613C14.5487 78.853 14.4047 79.125 14.3567 79.429L13.5167 79.249C13.5247 79.081 13.6047 78.869 13.7567 78.613C13.9087 78.357 14.1087 78.129 14.3567 77.929C14.7807 77.601 15.3087 77.437 15.9407 77.437C17.0287 77.437 17.7527 77.849 18.1127 78.673C18.2327 78.953 18.2927 79.281 18.2927 79.657V81.337C18.2927 82.313 18.3247 83.037 18.3887 83.509H17.5247C17.4687 83.205 17.4407 82.857 17.4407 82.465C16.9367 83.233 16.2647 83.617 15.4247 83.617C14.8247 83.617 14.3447 83.449 13.9847 83.113C13.6087 82.785 13.4207 82.365 13.4207 81.853V81.793C13.4207 81.201 13.6567 80.765 14.1287 80.485C14.6087 80.205 15.1607 80.065 15.7847 80.065ZM17.4407 80.989V80.785H15.7727C15.4047 80.785 15.0807 80.853 14.8007 80.989C14.4647 81.133 14.2967 81.397 14.2967 81.781C14.2967 82.109 14.4207 82.369 14.6687 82.561C14.9087 82.753 15.2127 82.849 15.5807 82.849C16.1007 82.849 16.5447 82.673 16.9127 82.321C17.2647 81.985 17.4407 81.541 17.4407 80.989ZM20.6483 80.497C20.6483 81.393 20.9843 82.061 21.6563 82.501C21.9843 82.725 22.3683 82.837 22.8083 82.837C23.2883 82.837 23.6963 82.713 24.0323 82.465C24.1523 82.377 24.2763 82.257 24.4043 82.105C24.5803 81.873 24.7123 81.641 24.8003 81.409L25.6043 81.673C25.4683 82.153 25.1643 82.585 24.6923 82.969C24.1803 83.401 23.5483 83.617 22.7963 83.617C21.9403 83.633 21.2163 83.345 20.6243 82.753C20.0403 82.161 19.7523 81.425 19.7603 80.545C19.7603 79.969 19.9003 79.437 20.1803 78.949C20.4603 78.469 20.8323 78.097 21.2963 77.833C21.7603 77.569 22.2723 77.437 22.8323 77.437C23.5043 77.437 24.0963 77.621 24.6083 77.989C25.1283 78.381 25.4483 78.833 25.5683 79.345L24.7763 79.609C24.6883 79.289 24.4723 78.977 24.1283 78.673C23.7923 78.369 23.3523 78.217 22.8083 78.217C22.1843 78.217 21.6683 78.437 21.2603 78.877C20.8523 79.325 20.6483 79.865 20.6483 80.497ZM32.3275 80.797H27.5035C27.5355 81.381 27.7555 81.865 28.1635 82.249C28.5635 82.641 29.0555 82.837 29.6395 82.837C30.0955 82.837 30.4835 82.729 30.8035 82.513C31.1235 82.289 31.3515 81.973 31.4875 81.565L32.2555 81.805C32.0875 82.365 31.7635 82.809 31.2835 83.137C30.7875 83.457 30.2435 83.617 29.6515 83.617C29.0915 83.617 28.5755 83.477 28.1035 83.197C27.6315 82.917 27.2715 82.541 27.0235 82.069C26.7595 81.605 26.6275 81.089 26.6275 80.521C26.6275 79.977 26.7515 79.473 26.9995 79.009C27.2315 78.537 27.5795 78.157 28.0435 77.869C28.4915 77.581 28.9875 77.437 29.5315 77.437C30.1315 77.437 30.6435 77.573 31.0675 77.845C31.4995 78.109 31.8195 78.473 32.0275 78.937C32.2355 79.377 32.3395 79.901 32.3395 80.509C32.3395 80.613 32.3355 80.709 32.3275 80.797ZM27.5155 80.053H31.4635C31.4075 79.509 31.2075 79.061 30.8635 78.709C30.5275 78.373 30.0835 78.205 29.5315 78.205C29.0275 78.205 28.5835 78.385 28.1995 78.745C27.8155 79.121 27.5875 79.557 27.5155 80.053ZM39.8206 80.521C39.8206 81.065 39.7046 81.569 39.4726 82.033C39.2406 82.497 38.9126 82.873 38.4886 83.161C38.0566 83.449 37.5646 83.593 37.0126 83.593C36.0286 83.593 35.2566 83.145 34.6966 82.249V83.509H33.8446V74.413H34.7206V78.829C35.3206 77.901 36.0846 77.437 37.0126 77.437C37.8606 77.437 38.5446 77.757 39.0646 78.397C39.5686 79.021 39.8206 79.729 39.8206 80.521ZM36.8446 82.837C37.4686 82.837 37.9766 82.617 38.3686 82.177C38.7446 81.729 38.9326 81.185 38.9326 80.545C38.9326 79.641 38.6086 78.973 37.9606 78.541C37.6486 78.325 37.2766 78.217 36.8446 78.217C36.2526 78.209 35.7446 78.437 35.3206 78.901C34.8966 79.365 34.6926 79.901 34.7086 80.509C34.7086 81.149 34.9086 81.693 35.3086 82.141C35.7166 82.605 36.2286 82.837 36.8446 82.837ZM43.9844 83.617C43.4324 83.617 42.9164 83.481 42.4364 83.209C41.9644 82.929 41.5964 82.557 41.3324 82.093C41.0604 81.629 40.9244 81.113 40.9244 80.545C40.9244 79.657 41.2204 78.921 41.8124 78.337C42.4044 77.737 43.1364 77.437 44.0084 77.437C44.8564 77.421 45.5844 77.721 46.1924 78.337C46.8084 78.945 47.1084 79.669 47.0924 80.509C47.1084 81.373 46.8084 82.113 46.1924 82.729C45.5764 83.337 44.8404 83.633 43.9844 83.617ZM44.0084 82.837C44.6324 82.837 45.1564 82.613 45.5804 82.165C45.9884 81.717 46.1924 81.177 46.1924 80.545C46.1924 79.905 45.9844 79.353 45.5684 78.889C45.1444 78.433 44.6164 78.205 43.9844 78.205C43.3524 78.205 42.8324 78.429 42.4244 78.877C42.0164 79.325 41.8124 79.869 41.8124 80.509C41.7964 81.141 42.0004 81.689 42.4244 82.153C42.8564 82.617 43.3844 82.845 44.0084 82.837ZM51.25 83.617C50.698 83.617 50.182 83.481 49.702 83.209C49.23 82.929 48.862 82.557 48.598 82.093C48.326 81.629 48.19 81.113 48.19 80.545C48.19 79.657 48.486 78.921 49.078 78.337C49.67 77.737 50.402 77.437 51.274 77.437C52.122 77.421 52.85 77.721 53.458 78.337C54.074 78.945 54.374 79.669 54.358 80.509C54.374 81.373 54.074 82.113 53.458 82.729C52.842 83.337 52.106 83.633 51.25 83.617ZM51.274 82.837C51.898 82.837 52.422 82.613 52.846 82.165C53.254 81.717 53.458 81.177 53.458 80.545C53.458 79.905 53.25 79.353 52.834 78.889C52.41 78.433 51.882 78.205 51.25 78.205C50.618 78.205 50.098 78.429 49.69 78.877C49.282 79.325 49.078 79.869 49.078 80.509C49.062 81.141 49.266 81.689 49.69 82.153C50.122 82.617 50.65 82.845 51.274 82.837ZM56.7996 80.521H56.7636V83.509H55.8876V74.401H56.7636V79.969L59.5956 77.545H60.8316L57.6876 80.221L60.9756 83.509H59.7636L56.7996 80.521ZM64.7028 79.513V79.225C64.7028 78.073 64.9828 77.025 65.5428 76.081C66.0948 75.129 66.8748 74.365 67.8828 73.789L68.2428 74.353C66.4748 75.489 65.5908 77.117 65.5908 79.237V79.501C65.5908 81.605 66.4748 83.229 68.2428 84.373L67.8828 84.961C66.8748 84.377 66.0948 83.609 65.5428 82.657C64.9828 81.713 64.7028 80.665 64.7028 79.513ZM70.6802 75.625V78.769H74.7962V79.609H70.6802V83.509H69.7562V74.761H75.1802V75.625H70.6802ZM80.1101 83.509H76.8461V74.761H79.9901C80.8061 74.745 81.4781 74.937 82.0061 75.337C82.5421 75.729 82.8101 76.269 82.8101 76.957C82.8101 77.189 82.7701 77.429 82.6901 77.677C82.6421 77.829 82.5701 77.981 82.4741 78.133C82.2501 78.485 81.9181 78.761 81.4781 78.961C82.0941 79.121 82.5461 79.437 82.8341 79.909C83.0741 80.309 83.1941 80.709 83.1941 81.109C83.1941 81.925 82.8861 82.537 82.2701 82.945C81.6861 83.321 80.9661 83.509 80.1101 83.509ZM79.9181 75.601H77.7581V78.649H79.8461C80.5341 78.649 81.0421 78.501 81.3701 78.205C81.7061 77.909 81.8741 77.529 81.8741 77.065C81.8741 76.569 81.6861 76.201 81.3101 75.961C80.9341 75.721 80.4701 75.601 79.9181 75.601ZM79.9541 79.465H77.7581V82.669H80.1341C80.7021 82.669 81.1981 82.541 81.6221 82.285C82.0461 82.021 82.2581 81.609 82.2581 81.049C82.2581 80.377 81.9061 79.917 81.2021 79.669C80.8501 79.533 80.4341 79.465 79.9541 79.465ZM86.728 79.225V79.513C86.728 80.673 86.452 81.725 85.9 82.669C85.34 83.613 84.556 84.377 83.548 84.961L83.188 84.373C84.956 83.229 85.84 81.605 85.84 79.501V79.237C85.84 77.117 84.956 75.489 83.188 74.353L83.548 73.789C84.556 74.357 85.34 75.117 85.9 76.069C86.452 77.021 86.728 78.073 86.728 79.225Z" fill="white"/>
</g>
<defs>
<filter id="filter0_d_183_2727" x="52.0713" y="28.5428" width="30.2129" height="34.859" filterUnits="userSpaceOnUse" color-interpolation-filters="sRGB">
<feFlood flood-opacity="0" result="BackgroundImageFix"/>
<feColorMatrix in="SourceAlpha" type="matrix" values="0 0 0 0 0 0 0 0 0 0 0 0 0 0 0 0 0 0 127 0" result="hardAlpha"/>
<feOffset dx="-4" dy="4"/>
<feGaussianBlur stdDeviation="2"/>
<feComposite in2="hardAlpha" operator="out"/>
<feColorMatrix type="matrix" values="0 0 0 0 0 0 0 0 0 0 0 0 0 0 0 0 0 0 0.25 0"/>
<feBlend mode="normal" in2="BackgroundImageFix" result="effect1_dropShadow_183_2727"/>
<feBlend mode="normal" in="SourceGraphic" in2="effect1_dropShadow_183_2727" result="shape"/>
</filter>
<filter id="filter1_d_183_2727" x="58.9165" y="28.8317" width="23.3679" height="34.5703" filterUnits="userSpaceOnUse" color-interpolation-filters="sRGB">
<feFlood flood-opacity="0" result="BackgroundImageFix"/>
<feColorMatrix in="SourceAlpha" type="matrix" values="0 0 0 0 0 0 0 0 0 0 0 0 0 0 0 0 0 0 127 0" result="hardAlpha"/>
<feOffset dx="-4" dy="4"/>
<feGaussianBlur stdDeviation="2"/>
<feComposite in2="hardAlpha" operator="out"/>
<feColorMatrix type="matrix" values="0 0 0 0 0 0 0 0 0 0 0 0 0 0 0 0 0 0 0.25 0"/>
<feBlend mode="normal" in2="BackgroundImageFix" result="effect1_dropShadow_183_2727"/>
<feBlend mode="normal" in="SourceGraphic" in2="effect1_dropShadow_183_2727" result="shape"/>
</filter>
<filter id="filter2_d_183_2727" x="18.9355" y="-4.97705" width="47.9595" height="49.1527" filterUnits="userSpaceOnUse" color-interpolation-filters="sRGB">
<feFlood flood-opacity="0" result="BackgroundImageFix"/>
<feColorMatrix in="SourceAlpha" type="matrix" values="0 0 0 0 0 0 0 0 0 0 0 0 0 0 0 0 0 0 127 0" result="hardAlpha"/>
<feOffset dy="4"/>
<feGaussianBlur stdDeviation="5"/>
<feComposite in2="hardAlpha" operator="out"/>
<feColorMatrix type="matrix" values="0 0 0 0 0 0 0 0 0 0 0 0 0 0 0 0 0 0 0.5 0"/>
<feBlend mode="normal" in2="BackgroundImageFix" result="effect1_dropShadow_183_2727"/>
<feBlend mode="normal" in="SourceGraphic" in2="effect1_dropShadow_183_2727" result="shape"/>
</filter>
<filter id="filter3_d_183_2727" x="-6.62524" y="-2.59033" width="46.7661" height="67.9059" filterUnits="userSpaceOnUse" color-interpolation-filters="sRGB">
<feFlood flood-opacity="0" result="BackgroundImageFix"/>
<feColorMatrix in="SourceAlpha" type="matrix" values="0 0 0 0 0 0 0 0 0 0 0 0 0 0 0 0 0 0 127 0" result="hardAlpha"/>
<feOffset dy="4"/>
<feGaussianBlur stdDeviation="5"/>
<feComposite in2="hardAlpha" operator="out"/>
<feColorMatrix type="matrix" values="0 0 0 0 0 0 0 0 0 0 0 0 0 0 0 0 0 0 0.5 0"/>
<feBlend mode="normal" in2="BackgroundImageFix" result="effect1_dropShadow_183_2727"/>
<feBlend mode="normal" in="SourceGraphic" in2="effect1_dropShadow_183_2727" result="shape"/>
</filter>
<filter id="filter4_d_183_2727" x="5.23682" y="73.7891" width="83.4912" height="15.172" filterUnits="userSpaceOnUse" color-interpolation-filters="sRGB">
<feFlood flood-opacity="0" result="BackgroundImageFix"/>
<feColorMatrix in="SourceAlpha" type="matrix" values="0 0 0 0 0 0 0 0 0 0 0 0 0 0 0 0 0 0 127 0" result="hardAlpha"/>
<feOffset dy="2"/>
<feGaussianBlur stdDeviation="1"/>
<feComposite in2="hardAlpha" operator="out"/>
<feColorMatrix type="matrix" values="0 0 0 0 0 0 0 0 0 0 0 0 0 0 0 0 0 0 0.5 0"/>
<feBlend mode="normal" in2="BackgroundImageFix" result="effect1_dropShadow_183_2727"/>
<feBlend mode="normal" in="SourceGraphic" in2="effect1_dropShadow_183_2727" result="shape"/>
</filter>
<clipPath id="clip0_183_2727">
<rect width="35.8257" height="35.8257" fill="white" transform="translate(55.1519 19.739) rotate(13.4168)"/>
</clipPath>
<clipPath id="clip1_183_2727">
<rect width="30.6871" height="31.9862" fill="white" transform="matrix(-1 0 0 1 57.7476 0)"/>
</clipPath>
<clipPath id="clip2_183_2727">
<rect width="28.9942" height="52.0657" fill="white" transform="matrix(-1 0 0 1 29.9705 0)"/>
</clipPath>
</defs>
</svg>
