<svg width="88.497314" height="105.598877" viewBox="0 0 88.4973 105.599" fill="none" xmlns="http://www.w3.org/2000/svg" xmlns:xlink="http://www.w3.org/1999/xlink">
	<desc>
			Created with Pixso.
	</desc>
	<defs>
		<clipPath id="clip187_11677">
			<rect id="fb" rx="22.967110" width="45.934223" height="45.934219" transform="translate(21.502563 24.127930) rotate(-0.000000)" fill="white" fill-opacity="0"/>
		</clipPath>
		<filter id="filter_187_11680_dd" x="3.686340" y="28.471680" width="30.128845" height="34.757202" filterUnits="userSpaceOnUse" color-interpolation-filters="sRGB">
			<feFlood flood-opacity="0" result="BackgroundImageFix"/>
			<feColorMatrix in="SourceAlpha" type="matrix" values="0 0 0 0 0 0 0 0 0 0 0 0 0 0 0 0 0 0 127 0" result="hardAlpha"/>
			<feOffset dx="0" dy="4"/>
			<feGaussianBlur stdDeviation="1.33333"/>
			<feComposite in2="hardAlpha" operator="out" k2="-1" k3="1"/>
			<feColorMatrix type="matrix" values="0 0 0 0 0 0 0 0 0 0 0 0 0 0 0 0 0 0 0.25 0"/>
			<feBlend mode="normal" in2="BackgroundImageFix" result="effect_dropShadow_1"/>
			<feBlend mode="normal" in="SourceGraphic" in2="effect_dropShadow_1" result="shape"/>
		</filter>
		<filter id="filter_187_11681_dd" x="3.686279" y="28.759277" width="23.309631" height="34.469604" filterUnits="userSpaceOnUse" color-interpolation-filters="sRGB">
			<feFlood flood-opacity="0" result="BackgroundImageFix"/>
			<feColorMatrix in="SourceAlpha" type="matrix" values="0 0 0 0 0 0 0 0 0 0 0 0 0 0 0 0 0 0 127 0" result="hardAlpha"/>
			<feOffset dx="0" dy="4"/>
			<feGaussianBlur stdDeviation="1.33333"/>
			<feComposite in2="hardAlpha" operator="out" k2="-1" k3="1"/>
			<feColorMatrix type="matrix" values="0 0 0 0 0 0 0 0 0 0 0 0 0 0 0 0 0 0 0.25 0"/>
			<feBlend mode="normal" in2="BackgroundImageFix" result="effect_dropShadow_1"/>
			<feBlend mode="normal" in="SourceGraphic" in2="effect_dropShadow_1" result="shape"/>
		</filter>
		<clipPath id="clip187_11679">
			<rect id="shield-antivirus-svgrepo-com 1" width="35.689922" height="35.689922" transform="matrix(-0.972708 0.232033 0.232033 0.972708 34.716 19.7012)" fill="white" fill-opacity="0"/>
		</clipPath>
		<filter id="filter_187_11684_dd" x="22.778687" y="-4.980957" width="47.853394" height="49.042236" filterUnits="userSpaceOnUse" color-interpolation-filters="sRGB">
			<feFlood flood-opacity="0" result="BackgroundImageFix"/>
			<feColorMatrix in="SourceAlpha" type="matrix" values="0 0 0 0 0 0 0 0 0 0 0 0 0 0 0 0 0 0 127 0" result="hardAlpha"/>
			<feOffset dx="0" dy="4"/>
			<feGaussianBlur stdDeviation="3.33333"/>
			<feComposite in2="hardAlpha" operator="out" k2="-1" k3="1"/>
			<feColorMatrix type="matrix" values="0 0 0 0 0 0 0 0 0 0 0 0 0 0 0 0 0 0 0.5 0"/>
			<feBlend mode="normal" in2="BackgroundImageFix" result="effect_dropShadow_1"/>
			<feBlend mode="normal" in="SourceGraphic" in2="effect_dropShadow_1" result="shape"/>
		</filter>
		<clipPath id="clip187_11682">
			<rect id="helmet_red" width="30.570757" height="31.864918" transform="translate(31.929443 0.000000)" fill="white" fill-opacity="0"/>
		</clipPath>
		<filter id="filter_187_11702_dd" x="49.443115" y="-2.603271" width="46.664551" height="67.724365" filterUnits="userSpaceOnUse" color-interpolation-filters="sRGB">
			<feFlood flood-opacity="0" result="BackgroundImageFix"/>
			<feColorMatrix in="SourceAlpha" type="matrix" values="0 0 0 0 0 0 0 0 0 0 0 0 0 0 0 0 0 0 127 0" result="hardAlpha"/>
			<feOffset dx="0" dy="4"/>
			<feGaussianBlur stdDeviation="3.33333"/>
			<feComposite in2="hardAlpha" operator="out" k2="-1" k3="1"/>
			<feColorMatrix type="matrix" values="0 0 0 0 0 0 0 0 0 0 0 0 0 0 0 0 0 0 0.5 0"/>
			<feBlend mode="normal" in2="BackgroundImageFix" result="effect_dropShadow_1"/>
			<feBlend mode="normal" in="SourceGraphic" in2="effect_dropShadow_1" result="shape"/>
		</filter>
		<clipPath id="clip187_11700">
			<rect id="sword_red" width="28.884270" height="51.868378" transform="translate(59.612976 0.000000)" fill="white" fill-opacity="0"/>
		</clipPath>
		<filter id="filter_187_11709_dd" x="5.473022" y="75.691650" width="80.618530" height="29.907227" filterUnits="userSpaceOnUse" color-interpolation-filters="sRGB">
			<feFlood flood-opacity="0" result="BackgroundImageFix"/>
			<feColorMatrix in="SourceAlpha" type="matrix" values="0 0 0 0 0 0 0 0 0 0 0 0 0 0 0 0 0 0 127 0" result="hardAlpha"/>
			<feOffset dx="0" dy="2"/>
			<feGaussianBlur stdDeviation="0.666667"/>
			<feComposite in2="hardAlpha" operator="out" k2="-1" k3="1"/>
			<feColorMatrix type="matrix" values="0 0 0 0 0 0 0 0 0 0 0 0 0 0 0 0 0 0 0.5 0"/>
			<feBlend mode="normal" in2="BackgroundImageFix" result="effect_dropShadow_1"/>
			<feBlend mode="normal" in="SourceGraphic" in2="effect_dropShadow_1" result="shape"/>
		</filter>
	</defs>
	<rect id="fb" rx="22.967110" width="45.934223" height="45.934219" transform="translate(21.502563 24.127930) rotate(-0.000000)" fill="#1773EA" fill-opacity="1.000000"/>
	<g clip-path="url(#clip187_11677)">
		<path id="Vector" d="M40.75 46.41L40.75 57.75C40.75 57.94 40.85 58.04 41.04 58.04L45.54 58.04C45.74 58.04 45.83 57.94 45.83 57.75L45.83 46.21L49.16 46.21C49.35 46.21 49.45 46.11 49.45 45.92L49.74 42.4C49.74 42.2 49.65 42.1 49.45 42.1L45.83 42.1L45.83 39.66C45.83 39.07 46.32 38.58 47.01 38.58L49.55 38.58C49.84 38.58 49.94 38.49 49.94 38.29L49.94 34.87C49.94 34.67 49.84 34.57 49.65 34.57L45.34 34.57C42.8 34.57 40.75 36.43 40.75 38.78L40.75 42.1L38.5 42.1C38.3 42.1 38.21 42.2 38.21 42.4L38.21 45.92C38.21 46.11 38.3 46.21 38.5 46.21L40.75 46.21L40.75 46.41Z" fill="#FFFFFF" fill-opacity="1.000000" fill-rule="evenodd"/>
	</g>
	<rect id="fb" rx="22.967110" width="45.934223" height="45.934219" transform="translate(21.502563 24.127930) rotate(-0.000000)" stroke="#CDCCCC" stroke-opacity="1.000000" stroke-width="1.000000"/>
	<rect id="shield-antivirus-svgrepo-com 1" width="35.689922" height="35.689922" transform="matrix(-0.972708 0.232033 0.232033 0.972708 34.716 19.7012)" fill="#FFFFFF" fill-opacity="0"/>
	<g clip-path="url(#clip187_11679)">
		<g filter="url(#filter_187_11680_dd)">
			<path id="Vector" d="M22.99 55.22L23.6 54.44C26.95 50.14 31.12 44.79 29.41 37.61L27.78 30.78L26.58 31.07C22.22 32.11 18.48 30.99 17.88 28.47L15.47 29.04C16.07 31.56 13.24 34.25 8.89 35.29L7.68 35.57L9.31 42.41C11.02 49.58 17.16 52.48 22.09 54.8L22.99 55.22Z" fill="#D84025" fill-opacity="1.000000" fill-rule="nonzero"/>
		</g>
		<g filter="url(#filter_187_11681_dd)">
			<path id="Vector" d="M8.89 35.29C13.24 34.25 16.07 31.56 15.47 29.04L16.68 28.75L22.99 55.22L22.99 55.22L22.09 54.8C17.16 52.48 11.02 49.58 9.31 42.41L7.68 35.57L8.89 35.29Z" fill="#A13023" fill-opacity="1.000000" fill-rule="nonzero"/>
		</g>
	</g>
	<rect id="helmet_red" width="30.570757" height="31.864918" transform="translate(31.929443 0.000000)" fill="#FFFFFF" fill-opacity="0"/>
	<g clip-path="url(#clip187_11682)">
		<g filter="url(#filter_187_11684_dd)">
			<path id="Vector" d="M54.44 22.58C54.75 23.84 55.06 25.09 55.36 26.35C52.54 27.96 48.97 28.87 44.49 28.87L44.49 23.68L54.44 22.58Z" fill="#535353" fill-opacity="1.000000" fill-rule="evenodd"/>
			<path id="Vector" d="M34.55 22.58C34.24 23.84 33.93 25.09 33.62 26.35C36.45 27.96 40.01 28.87 44.49 28.87L44.49 23.68L34.55 22.58Z" fill="#676767" fill-opacity="1.000000" fill-rule="evenodd"/>
			<path id="Vector" d="M42.27 9.07C35.82 3.36 48.02 3.91 51.46 1.01C51.7 1.26 51.84 1.55 51.87 1.85C51.9 2.15 51.81 2.45 51.61 2.72C53.14 3.67 55.82 2.37 57.27 4.19C55.63 4.12 54.62 4.61 54.01 5.27C58.53 4.75 56.76 7.94 60.63 8.12C57.75 9.34 50.98 7 46.8 9.85C44.92 9.79 44.16 9.13 42.27 9.07Z" fill="#A23023" fill-opacity="1.000000" fill-rule="evenodd"/>
			<path id="Vector" d="M60.63 8.07C57.77 9.32 51.06 6.93 46.91 9.85C46.14 9.81 45.38 9.68 44.66 9.45C50.09 4.66 54.91 8.91 60.63 8.07L60.63 8.07Z" fill="#1A1A1A" fill-opacity="1.000000" fill-rule="evenodd"/>
			<path id="Vector" d="M42.65 8.59C43.39 8.64 44.12 8.78 44.82 8.98L44.87 9C44.62 8.72 44.39 8.45 44.15 8.18C42.02 6.37 46.51 4.22 49.23 3.78C50.22 4.41 51.73 4.11 52.5 4.56C51.83 5.09 51.42 6.03 50.75 6.57C58.4 5.79 54.92 7.64 58.59 7.99C58.34 7.87 58.12 7.72 57.92 7.55C56.69 6.51 56.87 5.37 54.19 5.67L52.7 5.84C52.97 5.57 53.23 5.3 53.5 5.02C54.1 4.39 55.01 3.96 56.04 3.82C55.8 3.72 55.53 3.65 55.26 3.62C55 3.59 54.73 3.57 54.47 3.57C53.27 3.55 52.14 3.62 51.19 3.05L50.83 2.83C50.9 2.74 50.98 2.64 51.04 2.55C51.2 2.34 51.27 2.1 51.23 1.86C50 2.56 48.3 3.02 46.84 3.41C45.69 3.72 44.48 4.02 43.38 4.4C42.61 4.67 41.74 5.05 41.33 5.56C40.59 6.53 41.74 7.77 42.65 8.59Z" fill="#EF4123" fill-opacity="1.000000" fill-rule="evenodd"/>
			<path id="Vector" d="M43.72 8.71C44.11 8.79 44.49 8.88 44.87 8.98L44.92 9C44.67 8.72 44.43 8.45 44.2 8.18C42.07 6.35 46.55 4.19 49.27 3.74C50.25 4.38 51.75 4.08 52.52 4.53C51.86 5.07 51.45 6.01 50.78 6.55C58.4 5.77 54.93 7.63 58.59 7.99C56.68 7.61 56.72 6.27 55.64 5.94C54.55 5.62 53.12 6.36 52.03 6.04C52.15 5.42 52.67 4.91 53.42 4.13C52.37 3.66 49.74 4.08 50.29 2.71C47.95 4.65 40.4 3.85 43.26 8.55L43.72 8.71Z" fill="#D03927" fill-opacity="1.000000" fill-rule="evenodd"/>
			<path id="Vector" d="M47.89 10.44C47.89 11.71 46.33 12.73 44.41 12.73C42.48 12.73 40.93 11.71 40.93 10.44C40.93 9.17 42.48 8.15 44.41 8.15C46.33 8.15 47.89 9.17 47.89 10.44Z" fill="#CDCCCC" fill-opacity="1.000000" fill-rule="evenodd"/>
			<path id="Vector" d="M44.42 10.52C48.79 10.52 52.52 12.26 54.01 14.7C54.81 14.95 55.36 15.48 55.36 16.09C55.36 16.29 55.3 16.49 55.18 16.67C55.07 16.86 54.91 17.02 54.7 17.15C54.63 20.72 50.05 23.6 44.42 23.6C38.79 23.6 34.23 20.73 34.15 17.17C33.93 17.03 33.76 16.87 33.64 16.68C33.52 16.5 33.46 16.29 33.45 16.08C33.45 15.47 34.02 14.93 34.84 14.68C36.34 12.24 40.06 10.52 44.42 10.52Z" fill="#8B8A8A" fill-opacity="1.000000" fill-rule="evenodd"/>
			<path id="Vector" d="M42.79 20.21C46.63 20.21 49.76 18.23 49.76 15.79C49.76 13.35 46.63 11.37 42.79 11.37C38.96 11.37 35.83 13.35 35.83 15.79C35.83 18.23 38.95 20.21 42.79 20.21Z" fill="#989898" fill-opacity="1.000000" fill-rule="evenodd"/>
			<path id="Vector" d="M40.67 15.28C42.12 15.28 43.3 14.52 43.3 13.58C43.3 12.65 42.12 11.88 40.67 11.88C39.22 11.88 38.04 12.65 38.04 13.58C38.04 14.52 39.23 15.28 40.67 15.28Z" fill="#ACACAC" fill-opacity="1.000000" fill-rule="evenodd"/>
			<path id="Vector" d="M44.49 14.26L44.39 14.26C43 14.26 41.63 14.44 40.33 14.82L32.77 16.96L32.77 23.35C36.08 26.27 39.93 28.56 44.49 30.06L44.49 14.26Z" fill="#CDCCCC" fill-opacity="1.000000" fill-rule="evenodd"/>
			<path id="Vector" d="M42.79 15.28C42.19 15.36 41.6 15.48 41.03 15.65L39.58 16.06L39.58 26.76C40.61 27.35 41.68 27.88 42.79 28.36L42.79 15.28L42.79 15.28ZM38.9 16.26L36.65 16.91L36.65 24.84C37.36 25.37 38.11 25.87 38.9 26.35L38.9 16.26ZM35.97 17.1L34.47 17.53L34.47 23.08C34.95 23.5 35.45 23.92 35.97 24.33L35.97 17.1Z" fill="#333333" fill-opacity="1.000000" fill-rule="evenodd"/>
			<path id="Vector" d="M44.49 14.26L44.59 14.26C45.98 14.26 47.35 14.44 48.65 14.82L56.21 16.96L56.21 23.35C52.9 26.27 49.05 28.56 44.49 30.06L44.49 14.26Z" fill="#B4B4B4" fill-opacity="1.000000" fill-rule="evenodd"/>
			<path id="Vector" d="M46.19 15.28C46.8 15.36 47.41 15.48 47.99 15.65L49.47 16.06L49.47 26.76C48.42 27.35 47.33 27.88 46.19 28.36L46.19 15.28L46.19 15.28ZM50.16 16.26L52.46 16.91L52.46 24.84C51.73 25.37 50.97 25.87 50.16 26.35L50.16 16.26ZM53.15 17.1L54.68 17.53L54.68 23.08C54.19 23.5 53.68 23.92 53.15 24.33L53.15 17.1Z" fill="#1A1A1A" fill-opacity="1.000000" fill-rule="evenodd"/>
			<path id="Vector" d="M43.53 8.66C44.18 8.66 44.49 8.96 44.23 9.34C44.06 9.54 43.82 9.7 43.53 9.82C43.24 9.94 42.91 10.01 42.57 10.02C41.92 10.02 41.6 9.71 41.87 9.34C42.04 9.14 42.28 8.97 42.57 8.85C42.86 8.73 43.19 8.66 43.53 8.66Z" fill="#E3E3E3" fill-opacity="1.000000" fill-rule="evenodd"/>
		</g>
	</g>
	<rect id="sword_red" width="28.884270" height="51.868378" transform="translate(59.612976 0.000000)" fill="#FFFFFF" fill-opacity="0"/>
	<g clip-path="url(#clip187_11700)">
		<g filter="url(#filter_187_11702_dd)">
			<path id="Vector" d="M60 47.28L60.14 47.35C60.29 47.43 60.47 47.48 60.64 47.48C60.82 47.48 60.99 47.45 61.15 47.37C61.31 47.3 61.45 47.19 61.56 47.06C61.67 46.92 61.74 46.76 61.78 46.59C62.09 45.22 62.72 43.55 63.61 41.83C64.5 40.11 65.5 38.63 66.42 37.58C66.54 37.45 66.62 37.3 66.67 37.13C66.72 36.96 66.72 36.79 66.69 36.61C66.66 36.44 66.59 36.28 66.49 36.14C66.38 36 66.25 35.89 66.09 35.81L65.96 35.74L66.52 34.64L69.18 36.01L71.84 37.38L71.27 38.47L71.13 38.4C70.98 38.32 70.81 38.28 70.63 38.27C70.46 38.27 70.28 38.31 70.12 38.38C69.96 38.45 69.82 38.56 69.71 38.7C69.6 38.84 69.52 39 69.49 39.17C69.17 40.53 68.55 42.2 67.66 43.93C66.77 45.65 65.77 47.13 64.85 48.17C64.73 48.3 64.64 48.46 64.6 48.63C64.55 48.79 64.54 48.97 64.58 49.14C64.61 49.31 64.68 49.48 64.78 49.62C64.89 49.76 65.02 49.87 65.18 49.95L65.31 50.02L64.75 51.12L62.09 49.75L59.44 48.37L60 47.28Z" fill="#CA3927" fill-opacity="1.000000" fill-rule="evenodd"/>
			<path id="Vector" d="M66.77 38.23C67.21 38.46 66.6 40.54 65.41 42.87C64.22 45.2 62.9 46.91 62.46 46.68C62.03 46.45 62.63 44.37 63.83 42.04C65.02 39.71 66.33 38 66.77 38.23Z" fill="#F04B23" fill-opacity="1.000000" fill-rule="evenodd"/>
			<path id="Vector" d="M86.1 3.39L84.68 11.44L71.39 37.19L67.08 34.96L80.37 9.22L86.1 3.39Z" fill="#D1D2D2" fill-opacity="1.000000" fill-rule="evenodd"/>
			<path id="Vector" d="M81.8 7.74L84.07 6.27L83.27 11.07L71.33 37.19L84.67 11.44L86.1 3.39L81.8 7.74Z" fill="#E6E6E5" fill-opacity="1.000000" fill-rule="evenodd"/>
			<path id="Vector" d="M82.37 10.69L76.09 23.52L69.81 36.34L69.12 35.99L68.44 35.64L75.4 23.17L82.37 10.69Z" fill="#818181" fill-opacity="1.000000" fill-rule="evenodd"/>
			<path id="Vector" d="M65.77 33.42L73.37 37.36C73.76 37.08 74.23 36.94 74.71 36.96C75.19 36.98 75.65 37.16 76.02 37.48C76.38 37.8 76.63 38.23 76.72 38.7C76.81 39.18 76.74 39.67 76.52 40.1C76.3 40.53 75.94 40.87 75.5 41.07C75.07 41.27 74.57 41.32 74.11 41.2C73.64 41.09 73.22 40.82 72.93 40.43C72.63 40.05 72.47 39.58 72.48 39.1L64.88 35.15C64.49 35.44 64.01 35.58 63.53 35.56C63.05 35.54 62.59 35.35 62.22 35.04C61.86 34.72 61.61 34.29 61.52 33.81C61.42 33.34 61.49 32.84 61.72 32.41C61.94 31.98 62.3 31.64 62.74 31.44C63.17 31.24 63.67 31.19 64.14 31.31C64.6 31.42 65.02 31.7 65.32 32.08C65.61 32.46 65.77 32.93 65.77 33.42Z" fill="#333333" fill-opacity="1.000000" fill-rule="evenodd"/>
		</g>
	</g>
	<g filter="url(#filter_187_11709_dd)">
		<path id="Facebook (FB)" d="M68.47 86.59C67.43 85.08 66.85 83.29 66.85 81.14C66.85 78.99 67.43 77.2 68.47 75.69L69.36 75.69C68.54 76.81 67.89 79.11 67.89 81.14C67.89 83.17 68.54 85.47 69.36 86.59L68.47 86.59ZM8.52 85.5L7.47 85.5L7.47 76.78L12.7 76.78L12.7 77.71L8.52 77.71L8.52 80.66L12.31 80.66L12.31 81.6L8.52 81.6L8.52 85.5ZM35.93 85.5L34.96 85.5L34.96 76.78L35.97 76.78L35.97 80L36.05 80C36.27 79.66 36.67 78.87 37.94 78.87C39.6 78.87 40.74 80.19 40.74 82.25C40.74 84.33 39.6 85.64 37.96 85.64C36.7 85.64 36.27 84.86 36.05 84.5L35.93 84.5L35.93 85.5ZM57.6 85.5L56.59 85.5L56.59 76.78L57.6 76.78L57.6 81.87L57.72 81.87L60.58 78.96L61.82 78.96L59.06 81.75L62.03 85.5L60.75 85.5L58.3 82.4L57.6 83.05L57.6 85.5ZM72.03 85.5L70.98 85.5L70.98 76.78L76.21 76.78L76.21 77.71L72.03 77.71L72.03 80.66L75.82 80.66L75.82 81.6L72.03 81.6L72.03 85.5ZM81.17 85.5L78.02 85.5L78.02 76.78L81.07 76.78C82.89 76.78 83.75 77.82 83.75 79.09C83.75 80.22 83.08 80.71 82.33 80.92L82.33 81C83.13 81.05 84.09 81.8 84.09 83.19C84.09 84.5 83.23 85.5 81.17 85.5ZM79.07 77.71L79.07 80.61L81.04 80.61C81.99 80.61 82.74 80.02 82.74 79.09C82.74 78.33 82.23 77.71 81.07 77.71L79.07 77.71ZM18.24 84.62C18.04 85.04 17.44 85.66 16.3 85.66C15.05 85.66 14.06 84.92 14.06 83.65C14.06 82.15 15.39 81.88 16.6 81.72C17.8 81.57 18.29 81.61 18.29 81.12L18.29 81.09C18.29 80.25 17.84 79.76 16.91 79.76C15.95 79.76 15.43 80.27 15.21 80.75L14.25 80.41C14.76 79.21 15.89 78.87 16.87 78.87C17.71 78.87 19.3 79.11 19.3 81.19L19.3 85.5L18.29 85.5L18.29 84.62L18.24 84.62ZM26.37 83.59C26.2 84.75 25.24 85.64 23.8 85.64C21.95 85.64 20.83 84.23 20.83 82.27C20.83 80.27 22.01 78.87 23.78 78.87C25.16 78.87 26.2 79.69 26.37 80.92L25.36 80.92C25.21 80.32 24.68 79.78 23.8 79.78C22.62 79.78 21.84 80.75 21.84 82.23C21.84 83.75 22.6 84.74 23.8 84.74C24.58 84.74 25.18 84.31 25.36 83.59L26.37 83.59ZM33.19 83.99C32.88 84.98 31.91 85.64 30.58 85.64C28.69 85.64 27.53 84.29 27.53 82.28C27.53 80.27 28.71 78.87 30.48 78.87C31.84 78.87 33.29 79.71 33.29 82.15L33.29 82.57L28.54 82.57C28.59 83.97 29.4 84.74 30.58 84.74C31.37 84.74 31.96 84.4 32.22 83.71L33.19 83.99ZM47.9 82.27C47.9 84.29 46.71 85.64 44.93 85.64C43.16 85.64 41.97 84.29 41.97 82.27C41.97 80.22 43.16 78.87 44.93 78.87C46.71 78.87 47.9 80.22 47.9 82.27ZM55.06 82.27C55.06 84.29 53.87 85.64 52.09 85.64C50.32 85.64 49.13 84.29 49.13 82.27C49.13 80.22 50.32 78.87 52.09 78.87C53.87 78.87 55.06 80.22 55.06 82.27ZM30.48 79.78C29.33 79.78 28.61 80.68 28.54 81.7L32.27 81.7C32.27 80.59 31.57 79.78 30.48 79.78ZM37.82 79.78C36.6 79.78 35.95 80.77 35.95 82.23C35.95 83.71 36.61 84.74 37.82 84.74C39.09 84.74 39.73 83.63 39.73 82.23C39.73 80.85 39.1 79.78 37.82 79.78ZM42.97 82.27C42.97 83.58 43.59 84.74 44.93 84.74C46.28 84.74 46.89 83.58 46.89 82.27C46.89 80.95 46.28 79.78 44.93 79.78C43.59 79.78 42.97 80.95 42.97 82.27ZM50.13 82.27C50.13 83.58 50.75 84.74 52.09 84.74C53.44 84.74 54.05 83.58 54.05 82.27C54.05 80.95 53.44 79.78 52.09 79.78C50.75 79.78 50.13 80.95 50.13 82.27ZM79.07 81.53L79.07 84.57L81.17 84.57C82.55 84.57 83.08 83.95 83.08 83.19C83.08 82.3 82.36 81.53 81.22 81.53L79.07 81.53ZM15.07 83.7C15.07 84.4 15.65 84.75 16.45 84.75C17.64 84.75 18.29 83.95 18.29 83.13L18.29 82.21C18.12 82.42 16.98 82.54 16.55 82.59C15.77 82.69 15.07 82.93 15.07 83.7ZM44.87 90.69C45.9 92.2 46.48 93.99 46.48 96.14C46.48 98.29 45.9 100.08 44.87 101.59L43.98 101.59C44.8 100.47 45.44 98.17 45.44 96.14C45.44 94.11 44.8 91.81 43.98 90.69L44.87 90.69Z" fill="#FFFFFF" fill-opacity="1.000000" fill-rule="evenodd"/>
	</g>
</svg>
