<svg width="89" height="100" viewBox="0 0 89 100" fill="none" xmlns="http://www.w3.org/2000/svg">
<rect x="21.5027" y="24.1279" width="45.9342" height="45.9342" rx="22.9671" fill="#2A007C"/>
<rect x="21.5027" y="24.1279" width="45.9342" height="45.9342" rx="22.9671" stroke="#CDCCCC"/>
<g clip-path="url(#clip0_459_98)">
<path d="M53.1292 43.1281L54.3278 44.4491L55.4817 43.1281L57.9458 43.1281L55.5377 45.8361L57.9788 48.5662L55.4153 48.5662L54.228 47.2348L53.0515 48.5662L50.5762 48.5662L52.9959 45.8474L50.5762 43.1281L53.1292 43.1281Z" fill="#FF5900"/>
<path d="M50.5764 43.1282L50.5764 44.9655L47.8358 44.9655L47.8358 46.6516L50.5764 46.6516L50.5764 48.5662L45.8218 48.5662L45.8218 40L50.5764 40L50.5764 41.9094L47.8358 41.9094L47.8358 43.1282L50.5764 43.1282Z" fill="#FF5900"/>
<path d="M43.8161 40L43.8161 43.5057L43.7939 43.5057C43.3496 42.9953 42.7949 42.8178 42.1514 42.8178C40.8328 42.8178 39.8395 43.7146 39.4909 44.8995C39.0928 43.5938 38.0673 42.7933 36.5467 42.7933C35.3118 42.7933 34.3366 43.3475 33.8279 44.2507L33.8279 43.1282L31.2753 43.1282L31.2753 41.9094L34.0609 41.9094L34.0609 40L29 40L29 48.5662L31.2753 48.5662L31.2753 44.9655L33.5433 44.9655C33.4757 45.23 33.4395 45.5133 33.4395 45.8124C33.4395 47.599 34.8047 48.8532 36.5467 48.8532C38.0118 48.8532 38.9773 48.1653 39.4877 46.9116L37.5376 46.9116C37.274 47.2887 37.074 47.4002 36.5467 47.4002C35.9353 47.4002 35.408 46.8669 35.408 46.2346L39.3786 46.2346C39.5509 47.6538 40.6565 48.8777 42.1735 48.8777C42.8279 48.8777 43.4273 48.5557 43.7935 48.0124L43.8157 48.0124L43.8157 48.567L45.8213 48.567L45.8213 40L43.8161 40ZM35.4716 44.9909C35.598 44.4467 36.0202 44.0913 36.5471 44.0913C37.1271 44.0913 37.5276 44.4358 37.633 44.9909C37.6773 44.9909 35.4716 44.9909 35.4716 44.9909ZM42.5985 47.2621C41.8592 47.2621 41.3995 46.5731 41.3995 45.8538C41.3995 45.0851 41.7992 44.3457 42.5985 44.3457C43.4273 44.3457 43.7573 45.0851 43.7573 45.8538C43.7573 46.5827 43.4075 47.2621 42.5985 47.2621Z" fill="white"/>
<path d="M45.822 52.8495L45.822 49.7797L47.5181 49.7797L47.5181 50.0087L46.1018 50.0087L46.1018 51.1405L47.4581 51.1405L47.4581 51.3695L46.1018 51.3695L46.1018 52.6197L47.5813 52.6197L47.5813 52.8491L45.822 52.8495Z" fill="#2A007C"/>
<path d="M47.7837 52.8495L48.6108 51.7471L47.8264 50.7042L48.1443 50.7042L48.7847 51.5563L49.4122 50.7042L49.7301 50.7042L48.9332 51.7471L49.7639 52.8495L49.442 52.8495L48.7549 51.9375L48.1021 52.8495L47.7837 52.8495Z" fill="#2A007C"/>
<path d="M50.3022 53.6545L50.0434 53.6545L50.0434 51.3446C50.0434 51.1325 50.0434 50.9167 50.0305 50.7042L50.2853 50.7042L50.2937 51.0266C50.4543 50.7718 50.6665 50.6535 50.9848 50.6535C51.6461 50.6535 51.9299 51.2001 51.9299 51.7765C51.9299 52.3536 51.6461 52.9002 50.9848 52.9002C50.6878 52.9002 50.4547 52.7859 50.3022 52.5396L50.3022 53.6545ZM51.6546 51.7765C51.6546 51.3188 51.4634 50.8692 50.955 50.8692C50.4761 50.8692 50.3022 51.2637 50.3022 51.7765C50.3022 52.2896 50.4761 52.6837 50.955 52.6837C51.4638 52.6837 51.6546 52.2345 51.6546 51.7765Z" fill="#2A007C"/>
<path d="M53.2596 50.903C52.8313 50.903 52.6824 51.2637 52.6824 51.6364L52.6824 52.8495L52.4236 52.8495L52.4236 51.3353C52.4236 51.1276 52.4196 50.9163 52.4111 50.7042L52.6663 50.7042L52.6828 51.0137C52.81 50.7682 53.0225 50.6535 53.3063 50.6535C53.3445 50.6535 53.3868 50.6575 53.425 50.662L53.425 50.9208C53.3654 50.9115 53.3187 50.903 53.2596 50.903Z" fill="#2A007C"/>
<path d="M53.7418 51.8231C53.7418 52.3061 53.9705 52.7046 54.441 52.7046C54.8052 52.7046 54.9751 52.4631 55.0387 52.2216L55.2846 52.2216C55.1699 52.6708 54.8942 52.9002 54.4068 52.9002C53.7539 52.9002 53.4653 52.4168 53.4653 51.8151C53.4653 51.2005 53.7664 50.6535 54.4406 50.6535C55.1232 50.6535 55.3055 51.2508 55.3055 51.8231L53.7418 51.8231ZM53.7499 51.6283L55.0302 51.6283C55.0302 51.2085 54.8314 50.8483 54.4241 50.8483C54.0554 50.8479 53.8006 51.1276 53.7499 51.6283Z" fill="#2A007C"/>
<path d="M56.3154 52.9002C55.8746 52.9002 55.5442 52.6921 55.5442 52.2216L55.803 52.2216C55.803 52.5436 56.0147 52.7046 56.3286 52.7046C56.6213 52.7046 56.8499 52.5645 56.8499 52.2771C56.8499 52.0183 56.583 51.9503 56.3033 51.8698C55.9644 51.7724 55.5953 51.6662 55.5953 51.2508C55.5953 50.7891 55.9809 50.6535 56.3415 50.6535C56.7565 50.6535 57.0664 50.8141 57.0789 51.2593L56.8201 51.2593C56.8076 51.0053 56.6253 50.8612 56.3496 50.8612C56.1334 50.8612 55.8706 50.9457 55.8706 51.2254C55.8706 51.4802 56.1334 51.5523 56.4132 51.6283C56.7529 51.7213 57.1256 51.8231 57.1256 52.2389C57.1252 52.7219 56.7525 52.9002 56.3154 52.9002Z" fill="#2A007C"/>
<path d="M58.109 52.9002C57.6678 52.9002 57.3374 52.6921 57.3374 52.2216L57.5962 52.2216C57.5962 52.5436 57.8079 52.7046 58.1223 52.7046C58.4149 52.7046 58.6435 52.5645 58.6435 52.2771C58.6435 52.0183 58.3762 51.9503 58.0965 51.8698C57.7576 51.7724 57.3889 51.6662 57.3889 51.2508C57.3889 50.7891 57.7745 50.6535 58.1351 50.6535C58.5501 50.6535 58.86 50.8141 58.8725 51.2593L58.6137 51.2593C58.6012 51.0053 58.4189 50.8612 58.1432 50.8612C57.927 50.8612 57.6642 50.9457 57.6642 51.2254C57.6642 51.4802 57.9271 51.5523 58.2072 51.6283C58.5465 51.7213 58.9196 51.8231 58.9196 52.2389C58.9188 52.7219 58.5457 52.9002 58.109 52.9002Z" fill="#2A007C"/>
</g>
<g filter="url(#filter0_d_459_98)">
<path d="M22.9946 55.2288L23.606 54.4472C26.9583 50.1445 31.129 44.7916 29.4179 37.6186L27.7876 30.7841L26.5815 31.0718C22.2268 32.1106 18.4894 30.9927 17.888 28.4716L15.4759 29.047C16.0773 31.5681 13.2469 34.2527 8.89223 35.2914L7.68612 35.5792L9.31645 42.4136C11.0275 49.5866 17.1655 52.4805 22.0973 54.8059L22.9946 55.2288Z" fill="#D84025"/>
</g>
<g filter="url(#filter1_d_459_98)">
<path d="M8.89215 35.2914C13.2469 34.2527 16.0772 31.5681 15.4758 29.047L16.6819 28.7593L22.9957 55.2274L22.9945 55.2288L22.0972 54.8058C17.1654 52.4805 11.0275 49.5867 9.31637 42.4136L7.68605 35.5791L8.89215 35.2914Z" fill="#A13023"/>
</g>
<g clip-path="url(#clip1_459_98)">
<g filter="url(#filter2_d_459_98)">
<path fill-rule="evenodd" clip-rule="evenodd" d="M54.4432 22.5884C54.7525 23.844 55.0604 25.0985 55.3669 26.3521C52.5427 27.9683 48.9768 28.8709 44.4973 28.8724V23.689L54.4432 22.5884Z" fill="#535353"/>
<path fill-rule="evenodd" clip-rule="evenodd" d="M34.5595 22.5884C34.2462 23.844 33.9356 25.0985 33.6277 26.3521C36.458 27.9683 40.0158 28.8709 44.4973 28.8724V23.689L34.5595 22.5884Z" fill="#676767"/>
<path fill-rule="evenodd" clip-rule="evenodd" d="M42.274 9.0759C35.8214 3.36948 48.0226 3.91021 51.4611 1.01904C51.7038 1.26047 51.8477 1.55073 51.8749 1.85375C51.9021 2.15677 51.8114 2.45917 51.6141 2.72338C53.1405 3.67161 55.824 2.37786 57.279 4.1953C55.6302 4.12403 54.6261 4.61829 54.0139 5.27988C58.5361 4.75618 56.7668 7.94329 60.6318 8.12302C57.7524 9.34239 50.9897 7.00126 46.8084 9.8506C44.9208 9.79792 44.1616 9.13323 42.274 9.0759Z" fill="#A23023"/>
<path fill-rule="evenodd" clip-rule="evenodd" d="M60.6299 8.07033C57.7798 9.32971 51.0665 6.93006 46.9158 9.85061C46.1434 9.81778 45.3835 9.68413 44.6672 9.45517C50.0962 4.66063 54.9134 8.9168 60.632 8.07033H60.6299Z" fill="#1A1A1A"/>
<path fill-rule="evenodd" clip-rule="evenodd" d="M42.651 8.59114C43.3961 8.64919 44.127 8.78313 44.8231 8.9892L44.8723 9.0014C44.6291 8.72992 44.3901 8.45845 44.1551 8.18697C42.0198 6.3705 46.5137 4.22155 49.2392 3.78078C50.2208 4.41524 51.7331 4.11479 52.5077 4.56013C51.8396 5.10004 51.4257 6.03344 50.7556 6.57335C58.4074 5.79857 54.9217 7.64096 58.5939 7.99785C58.3467 7.87286 58.1222 7.72472 57.9258 7.55708C56.6963 6.51234 56.8787 5.37152 54.1983 5.67655L52.7065 5.84585C52.9701 5.57335 53.2358 5.30136 53.5036 5.02988C54.1079 4.39931 55.0174 3.9679 56.0405 3.82653C55.8007 3.72209 55.5365 3.65224 55.2618 3.62064C55 3.59114 54.7357 3.57534 54.4708 3.57336C53.2782 3.552 52.1409 3.62216 51.1921 3.05175L50.8396 2.8367C50.9093 2.74214 50.981 2.64911 51.0446 2.55607C51.2032 2.34726 51.2698 2.1067 51.2351 1.86823C50.0056 2.56217 48.3048 3.02887 46.8478 3.41626C45.6941 3.7213 44.483 4.02633 43.3887 4.40609C42.6161 4.67757 41.7493 5.05429 41.3395 5.56979C40.5956 6.53064 41.7452 7.77975 42.651 8.59114Z" fill="#EF4123"/>
<path fill-rule="evenodd" clip-rule="evenodd" d="M43.7258 8.71744C44.1135 8.79334 44.4959 8.88402 44.8714 8.98912L44.9204 9.0014C44.6781 8.72818 44.4398 8.45496 44.2057 8.18175C42.0779 6.35365 46.5561 4.19094 49.272 3.74734C50.2501 4.38587 51.7571 4.08349 52.529 4.53169C51.8633 5.07505 51.4508 6.01443 50.7831 6.55779C58.4081 5.77805 54.9346 7.63224 58.5939 7.99142C56.6887 7.61843 56.7234 6.27076 55.6411 5.94689C54.5588 5.62302 53.1294 6.369 52.0389 6.04513C52.1533 5.42041 52.6699 4.91235 53.4214 4.13721C52.3779 3.66292 49.7457 4.08656 50.293 2.71741C47.9508 4.65909 40.4055 3.85479 43.2684 8.55013L43.7258 8.71744Z" fill="#D03927"/>
<path d="M44.4123 12.7378C46.3352 12.7378 47.894 11.7113 47.894 10.445C47.894 9.17875 46.3352 8.15222 44.4123 8.15222C42.4895 8.15222 40.9307 9.17875 40.9307 10.445C40.9307 11.7113 42.4895 12.7378 44.4123 12.7378Z" fill="#CDCCCC"/>
<path fill-rule="evenodd" clip-rule="evenodd" d="M44.4279 10.5299C48.7929 10.5299 52.5226 12.2605 54.0145 14.7017C54.8158 14.959 55.3671 15.4889 55.3671 16.0954C55.363 16.297 55.3022 16.4958 55.1885 16.6786C55.0748 16.8615 54.9108 17.0244 54.7072 17.1567C54.6334 20.7267 50.0594 23.6074 44.4279 23.6074C38.7964 23.6074 34.2388 20.7328 34.1527 17.1721C33.94 17.0393 33.7679 16.8739 33.648 16.6871C33.5282 16.5003 33.4634 16.2964 33.458 16.0893C33.458 15.4767 34.0277 14.9361 34.8474 14.6834C36.3455 12.2483 40.069 10.5299 44.4279 10.5299Z" fill="#8B8A8A"/>
<path fill-rule="evenodd" clip-rule="evenodd" d="M42.799 20.2107C46.6371 20.2107 49.7624 18.2312 49.7624 15.7949C49.7624 13.3586 46.6309 11.3792 42.799 11.3792C38.9671 11.3792 35.8357 13.3586 35.8357 15.7949C35.8357 18.2312 38.959 20.2107 42.799 20.2107Z" fill="#989898"/>
<path fill-rule="evenodd" clip-rule="evenodd" d="M40.6759 15.2854C42.1268 15.2854 43.3084 14.5219 43.3084 13.587C43.3084 12.6521 42.1268 11.8886 40.6759 11.8886C39.2251 11.8886 38.0435 12.6506 38.0435 13.587C38.0435 14.5235 39.2374 15.2854 40.6759 15.2854Z" fill="#ACACAC"/>
<path fill-rule="evenodd" clip-rule="evenodd" d="M44.4974 14.2665H44.3977C43.0092 14.2612 41.6311 14.4487 40.3308 14.8201L32.7786 16.9646V23.3548C36.0829 26.2793 39.9363 28.5696 44.4974 30.0613V14.2665Z" fill="#CDCCCC"/>
<path fill-rule="evenodd" clip-rule="evenodd" d="M42.7991 15.2854C42.1973 15.3616 41.6069 15.484 41.0364 15.651L39.5886 16.0678V26.7622C40.6103 27.3513 41.6823 27.8861 42.7971 28.3629V15.2854H42.7991ZM38.9088 16.2638L36.6568 16.9125V24.8458C37.3687 25.37 38.1187 25.8771 38.9088 26.3593V16.2638ZM35.979 17.1069L34.4771 17.5394V23.0865C34.9583 23.5096 35.459 23.9244 35.979 24.3309V17.1069Z" fill="#333333"/>
<path fill-rule="evenodd" clip-rule="evenodd" d="M44.4973 14.2665H44.597C45.982 14.2621 47.3566 14.4496 48.6537 14.82L56.2161 16.963V23.3532C52.9097 26.2793 49.0563 28.5696 44.4973 30.0613V14.2665Z" fill="#B4B4B4"/>
<path fill-rule="evenodd" clip-rule="evenodd" d="M46.1958 15.2854C46.8099 15.3618 47.4126 15.4842 47.9949 15.651L49.4726 16.0678V26.7622C48.4294 27.351 47.3354 27.8857 46.1978 28.3629V15.2854H46.1958ZM50.1665 16.2638L52.4629 16.9125V24.8458C51.7383 25.37 50.9729 25.8771 50.1665 26.3593V16.2638ZM53.1567 17.1069L54.6877 17.5394V23.0865C54.1978 23.5096 53.6875 23.9244 53.1567 24.3309V17.1069Z" fill="#1A1A1A"/>
<path fill-rule="evenodd" clip-rule="evenodd" d="M43.534 8.66174C44.1859 8.66174 44.4984 8.96662 44.2331 9.34109C44.0652 9.54109 43.8242 9.70857 43.5333 9.82751C43.2424 9.94646 42.9113 10.0129 42.5716 10.0204C41.9218 10.0204 41.6092 9.71696 41.8745 9.34109C42.0426 9.14147 42.2833 8.97426 42.5738 8.85535C42.8642 8.73645 43.1948 8.6698 43.534 8.66174Z" fill="#E3E3E3"/>
</g>
</g>
<g clip-path="url(#clip2_459_98)">
<g filter="url(#filter3_d_459_98)">
<path fill-rule="evenodd" clip-rule="evenodd" d="M60.009 47.2835L60.145 47.3539C60.2992 47.4366 60.4708 47.4817 60.6458 47.4855C60.8207 47.4893 60.9941 47.4517 61.1517 47.3757C61.3115 47.3045 61.4523 47.1966 61.5625 47.0608C61.6728 46.925 61.7495 46.7651 61.7864 46.5942C62.0991 45.2279 62.7244 43.5585 63.6139 41.8343C64.5034 40.1101 65.5023 38.6345 66.4277 37.5887C66.5437 37.4584 66.6283 37.3033 66.6751 37.1353C66.722 36.9673 66.7298 36.7908 66.6979 36.6193C66.6661 36.4478 66.5955 36.2859 66.4915 36.1459C66.3875 36.0058 66.2529 35.8914 66.0979 35.8114L65.9603 35.7411L66.5262 34.6469L69.1837 36.0162L71.8413 37.384L71.2754 38.4782L71.1394 38.4078C70.9837 38.3264 70.8113 38.2819 70.6357 38.2777C70.46 38.2736 70.2858 38.31 70.1264 38.3841C69.9671 38.4581 69.827 38.5679 69.7169 38.7049C69.6068 38.8418 69.5298 39.0023 69.4917 39.1738C69.179 40.5384 68.5537 42.2095 67.6643 43.9321C66.7748 45.6547 65.7758 47.1319 64.8504 48.1776C64.7344 48.3081 64.6498 48.4633 64.603 48.6314C64.5561 48.7996 64.5483 48.9762 64.5802 49.1478C64.612 49.3194 64.6826 49.4814 64.7866 49.6216C64.8906 49.7618 65.0252 49.8763 65.1802 49.9565L65.3178 50.0269L64.7519 51.1211L62.0944 49.7533L59.4431 48.3793L60.009 47.2835Z" fill="#CA3927"/>
<path fill-rule="evenodd" clip-rule="evenodd" d="M66.7737 38.234C67.212 38.4627 66.6033 40.5413 65.4123 42.8737C64.2212 45.2061 62.9 46.9135 62.4694 46.6848C62.0388 46.4561 62.6398 44.3775 63.8309 42.0451C65.022 39.7127 66.3354 38.0053 66.7737 38.234Z" fill="#F04B23"/>
<path fill-rule="evenodd" clip-rule="evenodd" d="M86.1075 3.39673L84.6832 11.4454L71.3962 37.1944L67.0857 34.9697L80.3726 9.22067L86.1075 3.39673Z" fill="#D1D2D2"/>
<path fill-rule="evenodd" clip-rule="evenodd" d="M81.808 7.74434L84.0703 6.27113L83.2748 11.0728L71.3318 37.1944L84.6771 11.4454L86.1077 3.39673L81.808 7.74434Z" fill="#E6E6E5"/>
<path fill-rule="evenodd" clip-rule="evenodd" d="M82.3713 10.6997L76.0934 23.5217L69.8139 36.3452L69.1284 35.9964L68.4446 35.6477L75.4079 23.1745L82.3713 10.6997Z" fill="#818181"/>
<path fill-rule="evenodd" clip-rule="evenodd" d="M65.7727 33.4233L73.3723 37.3669C73.7631 37.084 74.2371 36.9418 74.7181 36.9631C75.1991 36.9844 75.659 37.1679 76.0235 37.4842C76.3881 37.8005 76.6361 38.231 76.7275 38.7063C76.819 39.1817 76.7486 39.6742 76.5278 40.1044C76.3069 40.5346 75.9483 40.8774 75.51 41.0776C75.0716 41.2779 74.579 41.3238 74.1115 41.208C73.644 41.0922 73.2289 40.8214 72.9332 40.4394C72.6375 40.0573 72.4783 39.5862 72.4814 39.102L64.8818 35.1585C64.4905 35.4421 64.0157 35.5849 63.5338 35.5639C63.052 35.5428 62.5913 35.3591 62.226 35.0425C61.8607 34.7258 61.6121 34.2946 61.5204 33.8184C61.4286 33.3423 61.4991 32.8489 61.7204 32.4179C61.9417 31.987 62.3009 31.6436 62.74 31.4431C63.1792 31.2426 63.6727 31.1967 64.1409 31.3129C64.6092 31.4291 65.0249 31.7005 65.3209 32.0834C65.617 32.4663 65.7761 32.9383 65.7727 33.4233Z" fill="#333333"/>
</g>
</g>
<g filter="url(#filter4_d_459_98)">
<path d="M12.6965 76.116V79.26H16.8125V80.1H12.6965V84H11.7725V75.252H17.1965V76.116H12.6965ZM23.6211 81.288H18.7971C18.8291 81.872 19.0491 82.356 19.4571 82.74C19.8571 83.132 20.3491 83.328 20.9331 83.328C21.3891 83.328 21.7771 83.22 22.0971 83.004C22.4171 82.78 22.6451 82.464 22.7811 82.056L23.5491 82.296C23.3811 82.856 23.0571 83.3 22.5771 83.628C22.0811 83.948 21.5371 84.108 20.9451 84.108C20.3851 84.108 19.8691 83.968 19.3971 83.688C18.9251 83.408 18.5651 83.032 18.3171 82.56C18.0531 82.096 17.9211 81.58 17.9211 81.012C17.9211 80.468 18.0451 79.964 18.2931 79.5C18.5251 79.028 18.8731 78.648 19.3371 78.36C19.7851 78.072 20.2811 77.928 20.8251 77.928C21.4251 77.928 21.9371 78.064 22.3611 78.336C22.7931 78.6 23.1131 78.964 23.3211 79.428C23.5291 79.868 23.6331 80.392 23.6331 81C23.6331 81.104 23.6291 81.2 23.6211 81.288ZM18.8091 80.544H22.7571C22.7011 80 22.5011 79.552 22.1571 79.2C21.8211 78.864 21.3771 78.696 20.8251 78.696C20.3211 78.696 19.8771 78.876 19.4931 79.236C19.1091 79.612 18.8811 80.048 18.8091 80.544ZM24.7063 81.012C24.7063 80.212 24.9623 79.504 25.4743 78.888C25.9943 78.248 26.6703 77.928 27.5023 77.928C28.0543 77.928 28.5263 78.068 28.9183 78.348C29.2543 78.588 29.5543 78.9 29.8183 79.284V74.904H30.6823V84H29.8303V82.728C29.2863 83.632 28.5103 84.084 27.5023 84.084C26.6703 84.084 25.9903 83.776 25.4623 83.16C24.9583 82.552 24.7063 81.836 24.7063 81.012ZM27.6823 83.328C28.2823 83.336 28.7943 83.104 29.2183 82.632C29.6423 82.16 29.8463 81.616 29.8303 81C29.8303 80.608 29.7383 80.24 29.5543 79.896C29.3703 79.544 29.1143 79.256 28.7863 79.032C28.4503 78.816 28.0823 78.708 27.6823 78.708C27.0423 78.708 26.5383 78.928 26.1703 79.368C25.7863 79.816 25.5943 80.372 25.5943 81.036C25.5943 81.908 25.9183 82.564 26.5663 83.004C26.8943 83.22 27.2663 83.328 27.6823 83.328ZM32.878 84V75.252H38.35V76.104H33.802V79.128H37.966V79.98H33.802V83.148H38.398V84H32.878ZM44.004 84L42.156 81.576L40.308 84H39.288L41.652 80.964L39.384 78.036H40.404L42.168 80.352L43.932 78.036H44.94L42.684 80.952L45.036 84H44.004ZM48.9535 80.004V79.716C48.9535 78.564 49.2335 77.516 49.7935 76.572C50.3455 75.62 51.1255 74.856 52.1335 74.28L52.4935 74.844C50.7255 75.98 49.8415 77.608 49.8415 79.728V79.992C49.8415 82.096 50.7255 83.72 52.4935 84.864L52.1335 85.452C51.1255 84.868 50.3455 84.1 49.7935 83.148C49.2335 82.204 48.9535 81.156 48.9535 80.004ZM54.9309 76.116V79.26H59.0469V80.1H54.9309V84H54.0069V75.252H59.4309V76.116H54.9309ZM61.0968 84V75.252H63.7008C64.3808 75.252 65.0048 75.364 65.5728 75.588C66.1408 75.804 66.6288 76.108 67.0368 76.5C67.8928 77.332 68.3208 78.368 68.3208 79.608C68.3208 80.248 68.2008 80.844 67.9608 81.396C67.7288 81.924 67.4008 82.388 66.9768 82.788C66.0888 83.596 64.9968 84 63.7008 84H61.0968ZM62.0208 76.116V83.136H63.6648C64.3928 83.136 65.0368 82.984 65.5968 82.68C66.1728 82.376 66.6088 81.964 66.9048 81.444C67.2168 80.916 67.3728 80.312 67.3728 79.632C67.3728 78.624 67.0368 77.784 66.3648 77.112C65.7008 76.448 64.8008 76.116 63.6648 76.116H62.0208ZM74.8456 84L72.0016 80.172L69.1816 84H68.1016L71.4616 79.524L68.2576 75.252H69.3256L72.0256 78.852L74.7016 75.252H75.7696L72.5656 79.512L75.9136 84H74.8456ZM79.838 79.716V80.004C79.838 81.164 79.562 82.216 79.01 83.16C78.45 84.104 77.666 84.868 76.658 85.452L76.298 84.864C78.066 83.72 78.95 82.096 78.95 79.992V79.728C78.95 77.608 78.066 75.98 76.298 74.844L76.658 74.28C77.666 74.848 78.45 75.608 79.01 76.56C79.562 77.512 79.838 78.564 79.838 79.716Z" fill="white"/>
</g>
<defs>
<filter id="filter0_d_459_98" x="3.68604" y="28.4716" width="30.1289" height="34.7573" filterUnits="userSpaceOnUse" color-interpolation-filters="sRGB">
<feFlood flood-opacity="0" result="BackgroundImageFix"/>
<feColorMatrix in="SourceAlpha" type="matrix" values="0 0 0 0 0 0 0 0 0 0 0 0 0 0 0 0 0 0 127 0" result="hardAlpha"/>
<feOffset dy="4"/>
<feGaussianBlur stdDeviation="2"/>
<feComposite in2="hardAlpha" operator="out"/>
<feColorMatrix type="matrix" values="0 0 0 0 0 0 0 0 0 0 0 0 0 0 0 0 0 0 0.25 0"/>
<feBlend mode="normal" in2="BackgroundImageFix" result="effect1_dropShadow_459_98"/>
<feBlend mode="normal" in="SourceGraphic" in2="effect1_dropShadow_459_98" result="shape"/>
</filter>
<filter id="filter1_d_459_98" x="3.68604" y="28.7593" width="23.3096" height="34.4696" filterUnits="userSpaceOnUse" color-interpolation-filters="sRGB">
<feFlood flood-opacity="0" result="BackgroundImageFix"/>
<feColorMatrix in="SourceAlpha" type="matrix" values="0 0 0 0 0 0 0 0 0 0 0 0 0 0 0 0 0 0 127 0" result="hardAlpha"/>
<feOffset dy="4"/>
<feGaussianBlur stdDeviation="2"/>
<feComposite in2="hardAlpha" operator="out"/>
<feColorMatrix type="matrix" values="0 0 0 0 0 0 0 0 0 0 0 0 0 0 0 0 0 0 0.25 0"/>
<feBlend mode="normal" in2="BackgroundImageFix" result="effect1_dropShadow_459_98"/>
<feBlend mode="normal" in="SourceGraphic" in2="effect1_dropShadow_459_98" result="shape"/>
</filter>
<filter id="filter2_d_459_98" x="22.7786" y="-4.98096" width="47.8535" height="49.0422" filterUnits="userSpaceOnUse" color-interpolation-filters="sRGB">
<feFlood flood-opacity="0" result="BackgroundImageFix"/>
<feColorMatrix in="SourceAlpha" type="matrix" values="0 0 0 0 0 0 0 0 0 0 0 0 0 0 0 0 0 0 127 0" result="hardAlpha"/>
<feOffset dy="4"/>
<feGaussianBlur stdDeviation="5"/>
<feComposite in2="hardAlpha" operator="out"/>
<feColorMatrix type="matrix" values="0 0 0 0 0 0 0 0 0 0 0 0 0 0 0 0 0 0 0.5 0"/>
<feBlend mode="normal" in2="BackgroundImageFix" result="effect1_dropShadow_459_98"/>
<feBlend mode="normal" in="SourceGraphic" in2="effect1_dropShadow_459_98" result="shape"/>
</filter>
<filter id="filter3_d_459_98" x="49.4431" y="-2.60327" width="46.6646" height="67.7244" filterUnits="userSpaceOnUse" color-interpolation-filters="sRGB">
<feFlood flood-opacity="0" result="BackgroundImageFix"/>
<feColorMatrix in="SourceAlpha" type="matrix" values="0 0 0 0 0 0 0 0 0 0 0 0 0 0 0 0 0 0 127 0" result="hardAlpha"/>
<feOffset dy="4"/>
<feGaussianBlur stdDeviation="5"/>
<feComposite in2="hardAlpha" operator="out"/>
<feColorMatrix type="matrix" values="0 0 0 0 0 0 0 0 0 0 0 0 0 0 0 0 0 0 0.5 0"/>
<feBlend mode="normal" in2="BackgroundImageFix" result="effect1_dropShadow_459_98"/>
<feBlend mode="normal" in="SourceGraphic" in2="effect1_dropShadow_459_98" result="shape"/>
</filter>
<filter id="filter4_d_459_98" x="9.77246" y="74.28" width="72.0657" height="15.172" filterUnits="userSpaceOnUse" color-interpolation-filters="sRGB">
<feFlood flood-opacity="0" result="BackgroundImageFix"/>
<feColorMatrix in="SourceAlpha" type="matrix" values="0 0 0 0 0 0 0 0 0 0 0 0 0 0 0 0 0 0 127 0" result="hardAlpha"/>
<feOffset dy="2"/>
<feGaussianBlur stdDeviation="1"/>
<feComposite in2="hardAlpha" operator="out"/>
<feColorMatrix type="matrix" values="0 0 0 0 0 0 0 0 0 0 0 0 0 0 0 0 0 0 0.5 0"/>
<feBlend mode="normal" in2="BackgroundImageFix" result="effect1_dropShadow_459_98"/>
<feBlend mode="normal" in="SourceGraphic" in2="effect1_dropShadow_459_98" result="shape"/>
</filter>
<clipPath id="clip0_459_98">
<rect width="30" height="13.6545" fill="white" transform="translate(29 40)"/>
</clipPath>
<clipPath id="clip1_459_98">
<rect width="30.5708" height="31.8649" fill="white" transform="translate(31.9294)"/>
</clipPath>
<clipPath id="clip2_459_98">
<rect width="28.8843" height="51.8684" fill="white" transform="translate(59.613)"/>
</clipPath>
</defs>
</svg>
