<svg width="291" height="140" viewBox="0 0 291 140" fill="none" xmlns="http://www.w3.org/2000/svg">
<rect x="0.5" y="0.5" width="290" height="139" rx="9.5" fill="#260423"/>
<rect x="0.5" y="0.5" width="290" height="139" rx="9.5" stroke="#F8D05F"/>
<path d="M12.5301 52.252H15.8781C16.7261 52.252 17.4061 52.456 17.9181 52.864C18.4301 53.28 18.6861 53.844 18.6861 54.556C18.6861 54.852 18.6061 55.164 18.4461 55.492C18.2621 55.9 17.9221 56.216 17.4261 56.44C18.0501 56.64 18.4941 56.96 18.7581 57.4C18.9741 57.784 19.0821 58.168 19.0821 58.552C19.0821 59.28 18.8181 59.872 18.2901 60.328C17.7541 60.776 16.9821 61 15.9741 61H12.5301V52.252ZM13.8861 55.96H15.6141C16.1901 55.96 16.6141 55.84 16.8861 55.6C17.1741 55.36 17.3181 55.06 17.3181 54.7C17.3181 54.324 17.1821 54.028 16.9101 53.812C16.6381 53.596 16.2301 53.488 15.6861 53.488H13.8861V55.96ZM13.8981 59.764H15.9981C16.5421 59.764 16.9621 59.648 17.2581 59.416C17.5621 59.176 17.7141 58.852 17.7141 58.444C17.7141 58.052 17.5581 57.74 17.2461 57.508C16.9421 57.276 16.4981 57.16 15.9141 57.16H13.8981V59.764ZM25.2572 61H23.9612C23.9212 60.816 23.9012 60.544 23.9012 60.184C23.7012 60.512 23.4452 60.748 23.1332 60.892C22.8132 61.036 22.4852 61.108 22.1492 61.108C21.5652 61.108 21.0852 60.94 20.7092 60.604C20.3332 60.276 20.1452 59.856 20.1452 59.344V59.284C20.1532 58.524 20.5372 57.996 21.2972 57.7C21.7052 57.54 22.1452 57.46 22.6172 57.46H23.3612C23.7292 57.46 23.9132 57.292 23.9132 56.956C23.9132 56.7 23.8132 56.484 23.6132 56.308C23.3972 56.132 23.1052 56.044 22.7372 56.044C22.3852 56.044 22.0932 56.136 21.8612 56.32C21.6292 56.496 21.4892 56.736 21.4412 57.04L20.2292 56.764C20.2692 56.484 20.4052 56.184 20.6372 55.864C20.8852 55.544 21.1972 55.304 21.5732 55.144C21.9012 54.992 22.3052 54.916 22.7852 54.916C23.9052 54.916 24.6492 55.324 25.0172 56.14C25.1532 56.436 25.2212 56.788 25.2212 57.196V60.04C25.2212 60.44 25.2332 60.76 25.2572 61ZM23.9012 58.588V58.396H22.6172C22.3372 58.396 22.0772 58.468 21.8372 58.612C21.5972 58.764 21.4772 58.968 21.4772 59.224C21.4772 59.472 21.5652 59.672 21.7412 59.824C21.9172 59.968 22.1452 60.04 22.4252 60.04C22.8812 60.04 23.2412 59.908 23.5052 59.644C23.7692 59.38 23.9012 59.028 23.9012 58.588ZM30.9591 61V57.664C30.9591 57.2 30.8471 56.836 30.6231 56.572C30.3991 56.308 30.0711 56.176 29.6391 56.176C29.2151 56.176 28.8791 56.312 28.6311 56.584C28.3831 56.856 28.2591 57.22 28.2591 57.676V61H26.9271V55.036H28.2231V55.84C28.3991 55.608 28.6111 55.416 28.8591 55.264C29.1071 55.12 29.3191 55.024 29.4951 54.976C29.6951 54.936 29.8791 54.916 30.0471 54.916C30.7831 54.916 31.3391 55.14 31.7151 55.588C32.0911 56.02 32.2791 56.6 32.2791 57.328V61H30.9591ZM35.3255 58.084V61H33.9935V51.904H35.3255V57.388H35.3375L37.6535 55.036H39.4655L36.7655 57.736L39.6095 61H37.8455L35.3615 58.084H35.3255ZM12.5301 78.252H15.8781C16.7261 78.252 17.4061 78.456 17.9181 78.864C18.4301 79.28 18.6861 79.844 18.6861 80.556C18.6861 80.852 18.6061 81.164 18.4461 81.492C18.2621 81.9 17.9221 82.216 17.4261 82.44C18.0501 82.64 18.4941 82.96 18.7581 83.4C18.9741 83.784 19.0821 84.168 19.0821 84.552C19.0821 85.28 18.8181 85.872 18.2901 86.328C17.7541 86.776 16.9821 87 15.9741 87H12.5301V78.252ZM13.8861 81.96H15.6141C16.1901 81.96 16.6141 81.84 16.8861 81.6C17.1741 81.36 17.3181 81.06 17.3181 80.7C17.3181 80.324 17.1821 80.028 16.9101 79.812C16.6381 79.596 16.2301 79.488 15.6861 79.488H13.8861V81.96ZM13.8981 85.764H15.9981C16.5421 85.764 16.9621 85.648 17.2581 85.416C17.5621 85.176 17.7141 84.852 17.7141 84.444C17.7141 84.052 17.5581 83.74 17.2461 83.508C16.9421 83.276 16.4981 83.16 15.9141 83.16H13.8981V85.764ZM25.2572 87H23.9612C23.9212 86.816 23.9012 86.544 23.9012 86.184C23.7012 86.512 23.4452 86.748 23.1332 86.892C22.8132 87.036 22.4852 87.108 22.1492 87.108C21.5652 87.108 21.0852 86.94 20.7092 86.604C20.3332 86.276 20.1452 85.856 20.1452 85.344V85.284C20.1532 84.524 20.5372 83.996 21.2972 83.7C21.7052 83.54 22.1452 83.46 22.6172 83.46H23.3612C23.7292 83.46 23.9132 83.292 23.9132 82.956C23.9132 82.7 23.8132 82.484 23.6132 82.308C23.3972 82.132 23.1052 82.044 22.7372 82.044C22.3852 82.044 22.0932 82.136 21.8612 82.32C21.6292 82.496 21.4892 82.736 21.4412 83.04L20.2292 82.764C20.2692 82.484 20.4052 82.184 20.6372 81.864C20.8852 81.544 21.1972 81.304 21.5732 81.144C21.9012 80.992 22.3052 80.916 22.7852 80.916C23.9052 80.916 24.6492 81.324 25.0172 82.14C25.1532 82.436 25.2212 82.788 25.2212 83.196V86.04C25.2212 86.44 25.2332 86.76 25.2572 87ZM23.9012 84.588V84.396H22.6172C22.3372 84.396 22.0772 84.468 21.8372 84.612C21.5972 84.764 21.4772 84.968 21.4772 85.224C21.4772 85.472 21.5652 85.672 21.7412 85.824C21.9172 85.968 22.1452 86.04 22.4252 86.04C22.8812 86.04 23.2412 85.908 23.5052 85.644C23.7692 85.38 23.9012 85.028 23.9012 84.588ZM30.9591 87V83.664C30.9591 83.2 30.8471 82.836 30.6231 82.572C30.3991 82.308 30.0711 82.176 29.6391 82.176C29.2151 82.176 28.8791 82.312 28.6311 82.584C28.3831 82.856 28.2591 83.22 28.2591 83.676V87H26.9271V81.036H28.2231V81.84C28.3991 81.608 28.6111 81.416 28.8591 81.264C29.1071 81.12 29.3191 81.024 29.4951 80.976C29.6951 80.936 29.8791 80.916 30.0471 80.916C30.7831 80.916 31.3391 81.14 31.7151 81.588C32.0911 82.02 32.2791 82.6 32.2791 83.328V87H30.9591ZM35.3255 84.084V87H33.9935V77.904H35.3255V83.388H35.3375L37.6535 81.036H39.4655L36.7655 83.736L39.6095 87H37.8455L35.3615 84.084H35.3255Z" fill="#FEFFAB"/>
<path d="M26.1171 72.812H24.8811V70.52H22.5411V69.308H24.8811V67.052H26.1171V69.308H28.4571V70.52H26.1171V72.812Z" fill="#40FD3F"/>
<path d="M89.1663 57.794H93.0723C94.0616 57.794 94.8549 58.032 95.4523 58.508C96.0496 58.9933 96.3483 59.6513 96.3483 60.482C96.3483 60.8273 96.2549 61.1913 96.0683 61.574C95.8536 62.05 95.4569 62.4187 94.8783 62.68C95.6063 62.9133 96.1243 63.2867 96.4323 63.8C96.6843 64.248 96.8103 64.696 96.8103 65.144C96.8103 65.9933 96.5023 66.684 95.8863 67.216C95.2609 67.7387 94.3603 68 93.1843 68H89.1663V57.794ZM90.7483 62.12H92.7643C93.4363 62.12 93.9309 61.98 94.2483 61.7C94.5843 61.42 94.7523 61.07 94.7523 60.65C94.7523 60.2113 94.5936 59.866 94.2763 59.614C93.9589 59.362 93.4829 59.236 92.8483 59.236H90.7483V62.12ZM90.7623 66.558H93.2123C93.8469 66.558 94.3369 66.4227 94.6823 66.152C95.0369 65.872 95.2143 65.494 95.2143 65.018C95.2143 64.5607 95.0323 64.1967 94.6683 63.926C94.3136 63.6553 93.7956 63.52 93.1143 63.52H90.7623V66.558ZM104.883 64.976H99.5906C99.5999 65.48 99.8146 65.914 100.235 66.278C100.655 66.6327 101.121 66.8053 101.635 66.796C102.605 66.796 103.221 66.404 103.483 65.62L104.785 66.026C104.663 66.446 104.439 66.8193 104.113 67.146C103.795 67.4727 103.422 67.72 102.993 67.888C102.545 68.0467 102.097 68.126 101.649 68.126C100.641 68.1447 99.7772 67.7993 99.0586 67.09C98.3399 66.3807 97.9899 65.522 98.0086 64.514C98.0086 63.8607 98.1579 63.2587 98.4566 62.708C98.7646 62.1387 99.1846 61.7 99.7166 61.392C100.258 61.0653 100.855 60.902 101.509 60.902C102.573 60.902 103.403 61.2333 104.001 61.896C104.607 62.5587 104.911 63.4267 104.911 64.5C104.911 64.6307 104.901 64.7893 104.883 64.976ZM101.523 62.232C101.028 62.232 100.617 62.3767 100.291 62.666C99.9452 62.946 99.7399 63.324 99.6746 63.8H103.329C103.301 63.3333 103.119 62.9507 102.783 62.652C102.428 62.372 102.008 62.232 101.523 62.232ZM110.102 61.042V62.442H108.338V65.76C108.338 66.068 108.422 66.2967 108.59 66.446C108.758 66.586 109.029 66.656 109.402 66.656C109.589 66.656 109.799 66.6373 110.032 66.6V67.93C109.687 68.0233 109.318 68.07 108.926 68.07C108.207 68.07 107.671 67.902 107.316 67.566C106.961 67.23 106.784 66.656 106.784 65.844V62.442H105.44V61.042H106.784V58.886H108.338V61.042H110.102ZM113.987 68.126C112.951 68.1167 112.19 67.79 111.705 67.146C111.425 66.782 111.271 66.432 111.243 66.096L112.573 65.746C112.647 66.082 112.806 66.3527 113.049 66.558C113.291 66.754 113.599 66.852 113.973 66.852C114.281 66.852 114.519 66.782 114.687 66.642C114.864 66.4927 114.953 66.292 114.953 66.04C114.953 65.6573 114.677 65.4007 114.127 65.27L113.245 65.06C112.647 64.92 112.19 64.6773 111.873 64.332C111.555 63.9773 111.397 63.5573 111.397 63.072C111.397 62.4747 111.635 61.9613 112.111 61.532C112.587 61.1027 113.17 60.888 113.861 60.888C114.841 60.8973 115.555 61.2053 116.003 61.812C116.236 62.12 116.376 62.4327 116.423 62.75L115.121 63.114C115.055 62.8247 114.915 62.5913 114.701 62.414C114.495 62.2367 114.215 62.148 113.861 62.148C113.599 62.148 113.375 62.2227 113.189 62.372C113.002 62.5027 112.909 62.6893 112.909 62.932C112.909 63.324 113.142 63.5667 113.609 63.66L114.561 63.856C115.186 63.996 115.671 64.2527 116.017 64.626C116.362 65.018 116.535 65.4613 116.535 65.956C116.535 66.544 116.311 67.0527 115.863 67.482C115.424 67.9113 114.799 68.126 113.987 68.126ZM78.0611 83.91L77.3891 84.778C76.2318 84.1153 75.3405 83.2427 74.7151 82.16C74.0805 81.0587 73.7631 79.8033 73.7631 78.394V78.016C73.7631 76.6067 74.0805 75.3373 74.7151 74.208C75.3685 73.088 76.2598 72.2107 77.3891 71.576L78.0611 72.43C77.1931 73.0553 76.4978 73.8533 75.9751 74.824C75.4805 75.7853 75.2331 76.8493 75.2331 78.016V78.38C75.2331 80.6947 76.1758 82.538 78.0611 83.91ZM84.8482 80.97H84.8622L86.3322 76.042H87.9282L85.6882 83H84.0922L82.4822 78.114H82.4542L80.8302 83H79.2482L77.0222 76.042H78.6322L80.1022 80.956H80.1162L81.6982 76.042H83.2522L84.8482 80.97ZM90.0189 74.81C89.7482 74.81 89.5102 74.7073 89.3049 74.502C89.0996 74.2967 88.9969 74.0587 88.9969 73.788C88.9969 73.508 89.0996 73.2653 89.3049 73.06C89.5009 72.8547 89.7389 72.752 90.0189 72.752C90.3082 72.752 90.5509 72.8547 90.7469 73.06C90.9429 73.256 91.0409 73.4987 91.0409 73.788C91.0409 74.068 90.9429 74.306 90.7469 74.502C90.5416 74.7073 90.2989 74.81 90.0189 74.81ZM89.2489 83V76.042H90.8029V83H89.2489ZM97.5759 83V79.108C97.5759 78.5667 97.4453 78.142 97.1839 77.834C96.9226 77.526 96.5399 77.372 96.0359 77.372C95.5413 77.372 95.1493 77.5307 94.8599 77.848C94.5706 78.1653 94.4259 78.59 94.4259 79.122V83H92.8719V76.042H94.3839V76.98C94.5893 76.7093 94.8366 76.4853 95.1259 76.308C95.4153 76.14 95.6626 76.028 95.8679 75.972C96.1013 75.9253 96.3159 75.902 96.5119 75.902C97.3706 75.902 98.0193 76.1633 98.4579 76.686C98.8966 77.19 99.1159 77.8667 99.1159 78.716V83H97.5759ZM105.82 83V79.108C105.82 78.5667 105.689 78.142 105.428 77.834C105.167 77.526 104.784 77.372 104.28 77.372C103.785 77.372 103.393 77.5307 103.104 77.848C102.815 78.1653 102.67 78.59 102.67 79.122V83H101.116V76.042H102.628V76.98C102.833 76.7093 103.081 76.4853 103.37 76.308C103.659 76.14 103.907 76.028 104.112 75.972C104.345 75.9253 104.56 75.902 104.756 75.902C105.615 75.902 106.263 76.1633 106.702 76.686C107.141 77.19 107.36 77.8667 107.36 78.716V83H105.82ZM115.772 79.976H110.48C110.49 80.48 110.704 80.914 111.124 81.278C111.544 81.6327 112.011 81.8053 112.524 81.796C113.495 81.796 114.111 81.404 114.372 80.62L115.674 81.026C115.553 81.446 115.329 81.8193 115.002 82.146C114.685 82.4727 114.312 82.72 113.882 82.888C113.434 83.0467 112.986 83.126 112.538 83.126C111.53 83.1447 110.667 82.7993 109.948 82.09C109.23 81.3807 108.88 80.522 108.898 79.514C108.898 78.8607 109.048 78.2587 109.346 77.708C109.654 77.1387 110.074 76.7 110.606 76.392C111.148 76.0653 111.745 75.902 112.398 75.902C113.462 75.902 114.293 76.2333 114.89 76.896C115.497 77.5587 115.8 78.4267 115.8 79.5C115.8 79.6307 115.791 79.7893 115.772 79.976ZM112.412 77.232C111.918 77.232 111.507 77.3767 111.18 77.666C110.835 77.946 110.63 78.324 110.564 78.8H114.218C114.19 78.3333 114.008 77.9507 113.672 77.652C113.318 77.372 112.898 77.232 112.412 77.232ZM121.194 76.014V77.61C121.072 77.582 120.928 77.568 120.76 77.568C120.172 77.568 119.719 77.7313 119.402 78.058C119.094 78.3847 118.94 78.8513 118.94 79.458V83H117.386V76.042H118.912V77.12C119.108 76.756 119.374 76.476 119.71 76.28C120.055 76.084 120.424 75.986 120.816 75.986C120.918 75.986 121.044 75.9953 121.194 76.014ZM124.781 83.126C123.745 83.1167 122.984 82.79 122.499 82.146C122.219 81.782 122.065 81.432 122.037 81.096L123.367 80.746C123.441 81.082 123.6 81.3527 123.843 81.558C124.085 81.754 124.393 81.852 124.767 81.852C125.075 81.852 125.313 81.782 125.481 81.642C125.658 81.4927 125.747 81.292 125.747 81.04C125.747 80.6573 125.471 80.4007 124.921 80.27L124.039 80.06C123.441 79.92 122.984 79.6773 122.667 79.332C122.349 78.9773 122.191 78.5573 122.191 78.072C122.191 77.4747 122.429 76.9613 122.905 76.532C123.381 76.1027 123.964 75.888 124.655 75.888C125.635 75.8973 126.349 76.2053 126.797 76.812C127.03 77.12 127.17 77.4327 127.217 77.75L125.915 78.114C125.849 77.8247 125.709 77.5913 125.495 77.414C125.289 77.2367 125.009 77.148 124.655 77.148C124.393 77.148 124.169 77.2227 123.983 77.372C123.796 77.5027 123.703 77.6893 123.703 77.932C123.703 78.324 123.936 78.5667 124.403 78.66L125.355 78.856C125.98 78.996 126.465 79.2527 126.811 79.626C127.156 80.018 127.329 80.4613 127.329 80.956C127.329 81.544 127.105 82.0527 126.657 82.482C126.218 82.9113 125.593 83.126 124.781 83.126ZM127.61 84.778L126.952 83.91C128.828 82.538 129.766 80.6947 129.766 78.38V78.016C129.766 76.8493 129.519 75.7853 129.024 74.824C128.539 73.8813 127.848 73.0833 126.952 72.43L127.61 71.576C128.758 72.22 129.649 73.0973 130.284 74.208C130.919 75.3093 131.236 76.5787 131.236 78.016V78.394C131.236 79.822 130.923 81.0773 130.298 82.16C129.654 83.2613 128.758 84.134 127.61 84.778Z" fill="#FEFFAB"/>
<path d="M176.889 68V63.926L173.053 57.794H174.901L177.701 62.372L180.515 57.794H182.349L178.499 63.884V68H176.889ZM179.705 64.514C179.705 63.842 179.873 63.226 180.209 62.666C180.563 62.0873 181.011 61.6533 181.553 61.364C182.113 61.056 182.729 60.902 183.401 60.902C184.054 60.902 184.661 61.056 185.221 61.364C185.781 61.672 186.229 62.1013 186.565 62.652C186.891 63.2213 187.055 63.8327 187.055 64.486C187.073 65.4847 186.714 66.348 185.977 67.076C185.249 67.7947 184.385 68.1447 183.387 68.126C182.743 68.126 182.131 67.9673 181.553 67.65C181.011 67.3607 180.563 66.9267 180.209 66.348C179.873 65.788 179.705 65.1767 179.705 64.514ZM181.301 64.486C181.301 65.0927 181.497 65.6153 181.889 66.054C182.281 66.4927 182.785 66.712 183.401 66.712C184.007 66.712 184.507 66.4973 184.899 66.068C185.281 65.6387 185.473 65.1207 185.473 64.514C185.473 63.8887 185.277 63.366 184.885 62.946C184.511 62.5167 184.012 62.302 183.387 62.302C182.771 62.302 182.267 62.512 181.875 62.932C181.492 63.3427 181.301 63.8607 181.301 64.486ZM190.141 61.042V64.934C190.141 65.4753 190.272 65.9 190.533 66.208C190.794 66.516 191.172 66.67 191.667 66.67C192.162 66.67 192.554 66.5113 192.843 66.194C193.132 65.8767 193.277 65.452 193.277 64.92V61.042H194.831V68H193.319V67.062C193.104 67.3513 192.862 67.5753 192.591 67.734C192.348 67.8927 192.096 68.0047 191.835 68.07C191.658 68.1167 191.443 68.14 191.191 68.14C190.64 68.14 190.164 68.0187 189.763 67.776C189.362 67.524 189.063 67.1833 188.867 66.754C188.68 66.3527 188.587 65.8767 188.587 65.326V61.042H190.141ZM200.709 61.014V62.61C200.588 62.582 200.443 62.568 200.275 62.568C199.687 62.568 199.235 62.7313 198.917 63.058C198.609 63.3847 198.455 63.8513 198.455 64.458V68H196.901V61.042H198.427V62.12C198.623 61.756 198.889 61.476 199.225 61.28C199.571 61.084 199.939 60.986 200.331 60.986C200.434 60.986 200.56 60.9953 200.709 61.014ZM173.166 72.794H177.072C178.062 72.794 178.855 73.032 179.452 73.508C180.05 73.9933 180.348 74.6513 180.348 75.482C180.348 75.8273 180.255 76.1913 180.068 76.574C179.854 77.05 179.457 77.4187 178.878 77.68C179.606 77.9133 180.124 78.2867 180.432 78.8C180.684 79.248 180.81 79.696 180.81 80.144C180.81 80.9933 180.502 81.684 179.886 82.216C179.261 82.7387 178.36 83 177.184 83H173.166V72.794ZM174.748 77.12H176.764C177.436 77.12 177.931 76.98 178.248 76.7C178.584 76.42 178.752 76.07 178.752 75.65C178.752 75.2113 178.594 74.866 178.276 74.614C177.959 74.362 177.483 74.236 176.848 74.236H174.748V77.12ZM174.762 81.558H177.212C177.847 81.558 178.337 81.4227 178.682 81.152C179.037 80.872 179.214 80.494 179.214 80.018C179.214 79.5607 179.032 79.1967 178.668 78.926C178.314 78.6553 177.796 78.52 177.114 78.52H174.762V81.558ZM188.883 79.976H183.591C183.6 80.48 183.815 80.914 184.235 81.278C184.655 81.6327 185.121 81.8053 185.635 81.796C186.605 81.796 187.221 81.404 187.483 80.62L188.785 81.026C188.663 81.446 188.439 81.8193 188.113 82.146C187.795 82.4727 187.422 82.72 186.993 82.888C186.545 83.0467 186.097 83.126 185.649 83.126C184.641 83.1447 183.777 82.7993 183.059 82.09C182.34 81.3807 181.99 80.522 182.009 79.514C182.009 78.8607 182.158 78.2587 182.457 77.708C182.765 77.1387 183.185 76.7 183.717 76.392C184.258 76.0653 184.855 75.902 185.509 75.902C186.573 75.902 187.403 76.2333 188.001 76.896C188.607 77.5587 188.911 78.4267 188.911 79.5C188.911 79.6307 188.901 79.7893 188.883 79.976ZM185.523 77.232C185.028 77.232 184.617 77.3767 184.291 77.666C183.945 77.946 183.74 78.324 183.675 78.8H187.329C187.301 78.3333 187.119 77.9507 186.783 77.652C186.428 77.372 186.008 77.232 185.523 77.232ZM194.102 76.042V77.442H192.338V80.76C192.338 81.068 192.422 81.2967 192.59 81.446C192.758 81.586 193.029 81.656 193.402 81.656C193.589 81.656 193.799 81.6373 194.032 81.6V82.93C193.687 83.0233 193.318 83.07 192.926 83.07C192.207 83.07 191.671 82.902 191.316 82.566C190.961 82.23 190.784 81.656 190.784 80.844V77.442H189.44V76.042H190.784V73.886H192.338V76.042H194.102ZM197.987 83.126C196.951 83.1167 196.19 82.79 195.705 82.146C195.425 81.782 195.271 81.432 195.243 81.096L196.573 80.746C196.647 81.082 196.806 81.3527 197.049 81.558C197.291 81.754 197.599 81.852 197.973 81.852C198.281 81.852 198.519 81.782 198.687 81.642C198.864 81.4927 198.953 81.292 198.953 81.04C198.953 80.6573 198.677 80.4007 198.127 80.27L197.245 80.06C196.647 79.92 196.19 79.6773 195.873 79.332C195.555 78.9773 195.397 78.5573 195.397 78.072C195.397 77.4747 195.635 76.9613 196.111 76.532C196.587 76.1027 197.17 75.888 197.861 75.888C198.841 75.8973 199.555 76.2053 200.003 76.812C200.236 77.12 200.376 77.4327 200.423 77.75L199.121 78.114C199.055 77.8247 198.915 77.5913 198.701 77.414C198.495 77.2367 198.215 77.148 197.861 77.148C197.599 77.148 197.375 77.2227 197.189 77.372C197.002 77.5027 196.909 77.6893 196.909 77.932C196.909 78.324 197.142 78.5667 197.609 78.66L198.561 78.856C199.186 78.996 199.671 79.2527 200.017 79.626C200.362 80.018 200.535 80.4613 200.535 80.956C200.535 81.544 200.311 82.0527 199.863 82.482C199.424 82.9113 198.799 83.126 197.987 83.126Z" fill="#FEFFAB"/>
<path d="M60.6886 60.784H63.3526L55.3606 79.12H52.6966L60.6886 60.784Z" fill="#40FD3F"/>
<path d="M147.477 74.584L145.773 72.832L150.285 68.32L145.773 63.784L147.477 62.032L152.013 66.616L156.525 62.032L158.253 63.784L153.717 68.32L158.253 72.832L156.525 74.584L152.013 70.024L147.477 74.584Z" fill="#40FD3F"/>
<path d="M227.4 64.472V66.944H216.6V64.472H227.4ZM227.4 70.712V73.184H216.6V70.712H227.4Z" fill="#40FD3F"/>
<path d="M251.3 66.972C251.3 67.8773 250.983 68.638 250.348 69.254C249.686 69.898 248.748 70.22 247.534 70.22H245.714V74H244.118V63.794H247.73C249.168 63.794 250.185 64.2513 250.782 65.166C251.128 65.698 251.3 66.3 251.3 66.972ZM249.676 67C249.676 66.5333 249.518 66.132 249.2 65.796C248.883 65.4507 248.346 65.278 247.59 65.278H245.714V68.75H247.59C248.337 68.75 248.878 68.5587 249.214 68.176C249.522 67.8213 249.676 67.4293 249.676 67ZM256.547 67.014V68.61C256.426 68.582 256.281 68.568 256.113 68.568C255.525 68.568 255.072 68.7313 254.755 69.058C254.447 69.3847 254.293 69.8513 254.293 70.458V74H252.739V67.042H254.265V68.12C254.461 67.756 254.727 67.476 255.063 67.28C255.408 67.084 255.777 66.986 256.169 66.986C256.272 66.986 256.398 66.9953 256.547 67.014ZM257.048 70.514C257.048 69.842 257.216 69.226 257.552 68.666C257.907 68.0873 258.355 67.6533 258.896 67.364C259.456 67.056 260.072 66.902 260.744 66.902C261.398 66.902 262.004 67.056 262.564 67.364C263.124 67.672 263.572 68.1013 263.908 68.652C264.235 69.2213 264.398 69.8327 264.398 70.486C264.417 71.4847 264.058 72.348 263.32 73.076C262.592 73.7947 261.729 74.1447 260.73 74.126C260.086 74.126 259.475 73.9673 258.896 73.65C258.355 73.3607 257.907 72.9267 257.552 72.348C257.216 71.788 257.048 71.1767 257.048 70.514ZM258.644 70.486C258.644 71.0927 258.84 71.6153 259.232 72.054C259.624 72.4927 260.128 72.712 260.744 72.712C261.351 72.712 261.85 72.4973 262.242 72.068C262.625 71.6387 262.816 71.1207 262.816 70.514C262.816 69.8887 262.62 69.366 262.228 68.946C261.855 68.5167 261.356 68.302 260.73 68.302C260.114 68.302 259.61 68.512 259.218 68.932C258.836 69.3427 258.644 69.8607 258.644 70.486ZM271.047 68.414H267.939V74H266.385V68.414H265.055V67.042H266.385V66.23C266.385 65.2127 266.642 64.4707 267.155 64.004C267.64 63.5747 268.242 63.36 268.961 63.36C269.353 63.36 269.642 63.3973 269.829 63.472V64.788C269.68 64.7507 269.493 64.732 269.269 64.732C268.998 64.732 268.728 64.8113 268.457 64.97C268.112 65.194 267.939 65.6093 267.939 66.216V67.042H272.601V74H271.047V68.414ZM270.795 64.788C270.795 64.508 270.898 64.2653 271.103 64.06C271.299 63.8547 271.537 63.752 271.817 63.752C272.097 63.752 272.34 63.8547 272.545 64.06C272.741 64.256 272.839 64.4987 272.839 64.788C272.839 65.068 272.741 65.306 272.545 65.502C272.34 65.7073 272.097 65.81 271.817 65.81C271.546 65.81 271.308 65.7073 271.103 65.502C270.898 65.2967 270.795 65.0587 270.795 64.788ZM278.603 67.042V68.442H276.839V71.76C276.839 72.068 276.923 72.2967 277.091 72.446C277.259 72.586 277.529 72.656 277.903 72.656C278.089 72.656 278.299 72.6373 278.533 72.6V73.93C278.187 74.0233 277.819 74.07 277.427 74.07C276.708 74.07 276.171 73.902 275.817 73.566C275.462 73.23 275.285 72.656 275.285 71.844V68.442H273.941V67.042H275.285V64.886H276.839V67.042H278.603Z" fill="#FEFFAB"/>
</svg>
