<svg width="90" height="102" viewBox="0 0 90 102" fill="none" xmlns="http://www.w3.org/2000/svg">
<rect x="21.5801" y="24.1279" width="45.9342" height="45.9342" rx="22.9671" fill="#2962FF"/>
<rect x="21.5801" y="24.1279" width="45.9342" height="45.9342" rx="22.9671" stroke="#CDCCCC"/>
<path d="M31.5813 55.8511L57.8345 55.8511L57.8345 60.1109L31.5813 60.1109L31.5813 55.8511Z" fill="white"/>
<path d="M44.5981 33.8813L49.0338 33.8813L51.2043 48.305L53.4231 33.8813L57.8103 33.8813L57.8103 53.5888L54.8869 53.5888L54.8869 38.747L52.423 53.5888L49.8968 53.5888L47.5192 38.747L47.5192 53.5599L44.5981 53.5599L44.5981 33.8813Z" fill="white"/>
<path d="M38.5188 40.139L41.5165 40.139L41.5165 38.7472C41.5165 37.3839 41.5165 33.4729 36.5019 33.4729C31.5979 33.4729 31.5979 37.9395 31.5979 38.7472C31.5979 39.1774 31.5979 48.2065 31.5979 48.9902C31.5979 51.9806 32.6918 53.9399 35.5259 53.959C37.2016 53.9615 38.3699 52.9133 38.6174 52.5143L38.6174 53.56L41.5165 53.5887L41.5165 42.9105L36.8 42.9105L36.8 45.2808L38.5188 45.2808C38.5188 45.2808 38.5188 48.0429 38.5188 48.4012C38.5188 49.9831 38.0236 51.0599 36.55 51.0599C35.0739 51.0599 34.6051 49.9132 34.6051 48.4012C34.6051 47.4637 34.6051 39.3313 34.6051 38.7472C34.6051 37.9634 34.6051 36.1749 36.55 36.1749C38.5188 36.1749 38.5188 37.9923 38.5188 38.7472C38.5188 39.4033 38.5188 40.139 38.5188 40.139Z" fill="white"/>
<g clip-path="url(#clip0_183_3187)">
<g filter="url(#filter0_d_183_3187)">
<path d="M66.9175 55.4018L66.3039 54.6172C62.9388 50.2981 58.7522 44.9249 60.4698 37.7246L62.1064 30.8641L63.317 31.1529C67.6883 32.1956 71.4399 31.0735 72.0436 28.5428L74.4649 29.1204C73.8612 31.6511 76.7023 34.3459 81.0736 35.3886L82.2843 35.6774L80.6478 42.5379C78.9302 49.7382 72.7688 52.6431 67.8183 54.9772L66.9175 55.4018Z" fill="#7AB9E8"/>
</g>
<g filter="url(#filter1_d_183_3187)">
<path d="M81.0738 35.3886C76.7025 34.3459 73.8614 31.6511 74.4651 29.1204L73.2544 28.8316L66.9166 55.4004L66.9178 55.4019L67.8185 54.9772C72.769 52.6431 78.9303 49.7383 80.6479 42.5379L82.2845 35.6774L81.0738 35.3886Z" fill="#579ADF"/>
</g>
</g>
<g clip-path="url(#clip1_183_3187)">
<g filter="url(#filter2_d_183_3187)">
<path fill-rule="evenodd" clip-rule="evenodd" d="M35.1478 22.6743C34.8374 23.9347 34.5283 25.194 34.2206 26.4523C37.0556 28.0747 40.6351 28.9807 45.1316 28.9822V23.779L35.1478 22.6743Z" fill="#535353"/>
<path fill-rule="evenodd" clip-rule="evenodd" d="M55.1071 22.6743C55.4216 23.9347 55.7334 25.194 56.0425 26.4523C53.2014 28.0747 49.6301 28.9807 45.1315 28.9822V23.779L55.1071 22.6743Z" fill="#676767"/>
<path fill-rule="evenodd" clip-rule="evenodd" d="M47.3632 9.1104C53.8403 3.38226 41.5928 3.92506 38.1412 1.02289C37.8976 1.26523 37.7531 1.5566 37.7258 1.86077C37.6985 2.16494 37.7895 2.4685 37.9876 2.73371C36.4554 3.68554 33.7617 2.38688 32.3011 4.21123C33.9563 4.13969 34.9641 4.63583 35.5786 5.29994C31.0393 4.77425 32.8153 7.97348 28.9356 8.15389C31.8259 9.37791 38.6144 7.02786 42.8116 9.88804C44.7064 9.83516 45.4684 9.16794 47.3632 9.1104Z" fill="#1B2241"/>
<path fill-rule="evenodd" clip-rule="evenodd" d="M28.9377 8.10096C31.7988 9.36513 38.5376 6.95635 42.7041 9.88802C43.4794 9.85506 44.2422 9.7209 44.9612 9.49107C39.5116 4.67829 34.6761 8.95065 28.9357 8.10096H28.9377Z" fill="#1A1A1A"/>
<path fill-rule="evenodd" clip-rule="evenodd" d="M46.985 8.62379C46.237 8.68206 45.5034 8.81651 44.8045 9.02337L44.7552 9.03562C44.9993 8.76311 45.2393 8.4906 45.4751 8.21809C47.6185 6.39471 43.1075 4.23758 40.3717 3.79513C39.3864 4.43201 37.8683 4.13041 37.0908 4.57746C37.7613 5.11942 38.1769 6.05637 38.8495 6.59833C31.1686 5.8206 34.6676 7.67 30.9814 8.02825C31.2295 7.90278 31.4549 7.75408 31.652 7.5858C32.8862 6.53709 32.7032 5.39193 35.3937 5.69812L36.8912 5.86806C36.6266 5.59453 36.3598 5.3215 36.0911 5.04899C35.4845 4.41602 34.5715 3.98297 33.5445 3.84106C33.7853 3.73622 34.0504 3.6661 34.3261 3.63438C34.589 3.60477 34.8543 3.58891 35.1201 3.58692C36.3173 3.56549 37.459 3.63591 38.4114 3.06333L38.7652 2.84747C38.6952 2.75255 38.6232 2.65916 38.5595 2.56577C38.4003 2.35617 38.3333 2.11469 38.3682 1.87531C39.6024 2.57189 41.3097 3.04037 42.7722 3.42923C43.9303 3.73543 45.146 4.04162 46.2445 4.42283C47.02 4.69534 47.8901 5.07349 48.3015 5.59095C49.0482 6.55546 47.8942 7.80932 46.985 8.62379Z" fill="#4386BB"/>
<path fill-rule="evenodd" clip-rule="evenodd" d="M45.9063 8.75058C45.517 8.82677 45.1332 8.9178 44.7563 9.02329L44.7071 9.03562C44.9504 8.76136 45.1895 8.48711 45.4246 8.21285C47.5604 6.3778 43.0652 4.20686 40.339 3.76158C39.3571 4.40254 37.8444 4.099 37.0695 4.54891C37.7378 5.09434 38.1518 6.03729 38.8221 6.58272C31.1681 5.80001 34.6549 7.66126 30.9816 8.02179C32.8941 7.64739 32.8592 6.2946 33.9456 5.96949C35.032 5.64439 36.4669 6.3932 37.5615 6.0681C37.4467 5.44101 36.9281 4.93102 36.1738 4.15293C37.2212 3.67683 39.8634 4.10209 39.3141 2.72772C41.6652 4.67679 49.2392 3.86943 46.3654 8.58263L45.9063 8.75058Z" fill="#283A84"/>
<path d="M45.217 12.7863C43.2868 12.7863 41.7221 11.7559 41.7221 10.4848C41.7221 9.21366 43.2868 8.18323 45.217 8.18323C47.1472 8.18323 48.7119 9.21366 48.7119 10.4848C48.7119 11.7559 47.1472 12.7863 45.217 12.7863Z" fill="#CDCCCC"/>
<path fill-rule="evenodd" clip-rule="evenodd" d="M45.2015 10.5699C40.8199 10.5699 37.076 12.3071 35.5784 14.7576C34.7741 15.0159 34.2207 15.5478 34.2207 16.1566C34.2248 16.359 34.2859 16.5585 34.4 16.742C34.5141 16.9256 34.6787 17.0891 34.8831 17.222C34.9572 20.8055 39.5486 23.6972 45.2015 23.6972C50.8544 23.6972 55.4294 20.8116 55.5158 17.2373C55.7293 17.104 55.9021 16.938 56.0224 16.7505C56.1427 16.563 56.2078 16.3584 56.2131 16.1504C56.2131 15.5355 55.6413 14.9928 54.8184 14.7392C53.3147 12.2948 49.5769 10.5699 45.2015 10.5699Z" fill="#8B8A8A"/>
<path fill-rule="evenodd" clip-rule="evenodd" d="M46.8366 20.2875C42.984 20.2875 39.8468 18.3005 39.8468 15.8549C39.8468 13.4094 42.9901 11.4224 46.8366 11.4224C50.683 11.4224 53.8264 13.4094 53.8264 15.8549C53.8264 18.3005 50.6913 20.2875 46.8366 20.2875Z" fill="#989898"/>
<path fill-rule="evenodd" clip-rule="evenodd" d="M48.9676 15.3435C47.5112 15.3435 46.3251 14.5771 46.3251 13.6387C46.3251 12.7002 47.5112 11.9338 48.9676 11.9338C50.424 11.9338 51.6101 12.6987 51.6101 13.6387C51.6101 14.5787 50.4116 15.3435 48.9676 15.3435Z" fill="#ACACAC"/>
<path fill-rule="evenodd" clip-rule="evenodd" d="M45.1316 14.3207H45.2317C46.6254 14.3154 48.0088 14.5037 49.314 14.8764L56.895 17.0291V23.4436C53.5781 26.3792 49.71 28.6782 45.1316 30.1756V14.3207Z" fill="#CDCCCC"/>
<path fill-rule="evenodd" clip-rule="evenodd" d="M46.8365 15.3435C47.4405 15.4199 48.0332 15.5429 48.6059 15.7105L50.0592 16.1289V26.864C49.0336 27.4553 47.9575 27.9921 46.8385 28.4707V15.3435H46.8365ZM50.7416 16.3257L53.0021 16.9768V24.9403C52.2875 25.4665 51.5347 25.9755 50.7416 26.4596V16.3257ZM53.6825 17.172L55.1902 17.6061V23.1743C54.7071 23.599 54.2045 24.0154 53.6825 24.4234V17.172Z" fill="#333333"/>
<path fill-rule="evenodd" clip-rule="evenodd" d="M45.1316 14.3207H45.0316C43.6412 14.3163 42.2614 14.5046 40.9594 14.8764L33.3682 17.0275V23.442C36.6872 26.3792 40.5552 28.6782 45.1316 30.1756V14.3207Z" fill="#B4B4B4"/>
<path fill-rule="evenodd" clip-rule="evenodd" d="M43.4268 15.3435C42.8103 15.4202 42.2054 15.5431 41.6208 15.7105L40.1375 16.1289V26.864C41.1846 27.455 42.2828 27.9918 43.4247 28.4707V15.3435H43.4268ZM39.441 16.3257L37.1358 16.9768V24.9403C37.8631 25.4665 38.6315 25.9755 39.441 26.4596V16.3257ZM36.4394 17.172L34.9026 17.6061V23.1743C35.3943 23.599 35.9065 24.0154 36.4394 24.4234V17.172Z" fill="#1A1A1A"/>
<path fill-rule="evenodd" clip-rule="evenodd" d="M46.0987 8.69464C45.4444 8.69464 45.1306 9.00067 45.3969 9.37658C45.5655 9.57734 45.8074 9.74545 46.0994 9.86485C46.3915 9.98424 46.7238 10.0509 47.0648 10.0585C47.7171 10.0585 48.0308 9.75388 47.7645 9.37658C47.5958 9.17619 47.3542 9.00834 47.0626 8.88899C46.7711 8.76963 46.4393 8.70273 46.0987 8.69464Z" fill="#E3E3E3"/>
</g>
</g>
<g clip-path="url(#clip2_183_3187)">
<g filter="url(#filter3_d_183_3187)">
<path fill-rule="evenodd" clip-rule="evenodd" d="M29.5728 47.4634L29.4363 47.534C29.2815 47.6171 29.1093 47.6624 28.9337 47.6662C28.758 47.67 28.584 47.6323 28.4257 47.556C28.2654 47.4845 28.1241 47.3762 28.0134 47.2399C27.9027 47.1036 27.8257 46.9431 27.7886 46.7714C27.4748 45.4 26.8471 43.7242 25.9542 41.9935C25.0614 40.2628 24.0587 38.7815 23.1297 37.7318C23.0133 37.601 22.9284 37.4453 22.8813 37.2766C22.8343 37.108 22.8265 36.9308 22.8584 36.7587C22.8904 36.5865 22.9613 36.424 23.0657 36.2834C23.1701 36.1428 23.3052 36.028 23.4608 35.9477L23.5989 35.8771L23.0308 34.7787L20.3632 36.1532L17.6956 37.5262L18.2636 38.6246L18.4001 38.554C18.5564 38.4722 18.7294 38.4275 18.9057 38.4234C19.0821 38.4192 19.257 38.4558 19.4169 38.5301C19.5769 38.6045 19.7175 38.7147 19.828 38.8521C19.9385 38.9896 20.0159 39.1507 20.0541 39.3228C20.3679 40.6927 20.9956 42.3701 21.8885 44.0992C22.7813 45.8284 23.784 47.3112 24.713 48.361C24.8294 48.4919 24.9144 48.6477 24.9614 48.8165C25.0084 48.9852 25.0162 49.1625 24.9843 49.3348C24.9523 49.507 24.8815 49.6697 24.7771 49.8104C24.6727 49.9511 24.5375 50.0661 24.3819 50.1466L24.2438 50.2172L24.8119 51.3156L27.4795 49.9426L30.1409 48.5634L29.5728 47.4634Z" fill="#4592CF"/>
<path fill-rule="evenodd" clip-rule="evenodd" d="M22.7824 38.3794C22.3424 38.609 22.9534 40.6955 24.149 43.0368C25.3446 45.3781 26.6708 47.092 27.103 46.8624C27.5353 46.6328 26.932 44.5463 25.7364 42.205C24.5408 39.8638 23.2224 38.1499 22.7824 38.3794Z" fill="#283A84"/>
<path fill-rule="evenodd" clip-rule="evenodd" d="M3.37482 3.40967L4.80457 11.4889L18.142 37.3359L22.469 35.1028L9.13151 9.25577L3.37482 3.40967Z" fill="#D1D2D2"/>
<path fill-rule="evenodd" clip-rule="evenodd" d="M7.69091 7.77382L5.4201 6.295L6.21859 11.1149L18.207 37.3359L4.81097 11.4889L3.37495 3.40967L7.69091 7.77382Z" fill="#E6E6E5"/>
<path fill-rule="evenodd" clip-rule="evenodd" d="M7.12556 10.7405L13.4273 23.6112L19.7307 36.4835L20.4188 36.1334L21.1052 35.7833L14.1154 23.2627L7.12556 10.7405Z" fill="#818181"/>
<path fill-rule="evenodd" clip-rule="evenodd" d="M23.7872 33.5505L16.1586 37.5091C15.7664 37.2252 15.2905 37.0824 14.8077 37.1037C14.3249 37.1251 13.8633 37.3094 13.4973 37.6268C13.1314 37.9443 12.8825 38.3765 12.7906 38.8536C12.6988 39.3308 12.7694 39.8251 12.9912 40.257C13.2129 40.6888 13.5728 41.033 14.0128 41.234C14.4529 41.4349 14.9474 41.481 15.4166 41.3648C15.8859 41.2485 16.3025 40.9768 16.5994 40.5932C16.8963 40.2097 17.056 39.7368 17.053 39.2508L24.6815 35.2923C25.0742 35.577 25.5508 35.7203 26.0345 35.6992C26.5182 35.6781 26.9807 35.4937 27.3474 35.1758C27.7141 34.8579 27.9636 34.4251 28.0557 33.9471C28.1477 33.4691 28.077 32.9739 27.8549 32.5413C27.6328 32.1087 27.2722 31.764 26.8314 31.5627C26.3905 31.3615 25.8951 31.3155 25.4251 31.4321C24.9551 31.5487 24.5378 31.8212 24.2406 32.2055C23.9435 32.5899 23.7837 33.0637 23.7872 33.5505Z" fill="#333333"/>
</g>
</g>
<g filter="url(#filter4_d_183_3187)">
<path d="M33.8771 77.269L33.0011 77.581C32.8651 77.197 32.6651 76.853 32.4011 76.549C32.2011 76.341 32.0091 76.173 31.8251 76.045C31.3291 75.701 30.7171 75.529 29.9891 75.529C29.3171 75.529 28.7251 75.693 28.2131 76.021C27.6771 76.357 27.2691 76.797 26.9891 77.341C26.7011 77.885 26.5571 78.477 26.5571 79.117C26.5571 80.125 26.8611 80.977 27.4691 81.673C28.1011 82.385 28.9451 82.741 30.0011 82.741C30.8011 82.741 31.4971 82.513 32.0891 82.057C32.7051 81.585 33.0371 80.941 33.0851 80.125H29.4371V79.273H34.0691V79.609C34.0691 80.729 33.7091 81.669 32.9891 82.429C32.2371 83.205 31.2371 83.593 29.9891 83.593C28.6611 83.593 27.5971 83.169 26.7971 82.321C26.0051 81.481 25.6091 80.429 25.6091 79.165C25.6091 78.333 25.8011 77.573 26.1851 76.885C26.5691 76.197 27.0971 75.657 27.7691 75.265C28.4331 74.873 29.1811 74.677 30.0131 74.677C31.0691 74.677 31.9251 74.941 32.5811 75.469C33.1971 75.949 33.6291 76.549 33.8771 77.269ZM40.8353 80.797H36.0113C36.0433 81.381 36.2633 81.865 36.6713 82.249C37.0713 82.641 37.5633 82.837 38.1473 82.837C38.6033 82.837 38.9913 82.729 39.3113 82.513C39.6313 82.289 39.8593 81.973 39.9953 81.565L40.7633 81.805C40.5953 82.365 40.2713 82.809 39.7913 83.137C39.2953 83.457 38.7513 83.617 38.1593 83.617C37.5993 83.617 37.0833 83.477 36.6113 83.197C36.1393 82.917 35.7793 82.541 35.5313 82.069C35.2673 81.605 35.1353 81.089 35.1353 80.521C35.1353 79.977 35.2593 79.473 35.5073 79.009C35.7393 78.537 36.0873 78.157 36.5513 77.869C36.9993 77.581 37.4953 77.437 38.0393 77.437C38.6393 77.437 39.1513 77.573 39.5753 77.845C40.0073 78.109 40.3273 78.473 40.5353 78.937C40.7433 79.377 40.8473 79.901 40.8473 80.509C40.8473 80.613 40.8433 80.709 40.8353 80.797ZM36.0233 80.053H39.9713C39.9153 79.509 39.7153 79.061 39.3713 78.709C39.0353 78.373 38.5913 78.205 38.0393 78.205C37.5353 78.205 37.0913 78.385 36.7073 78.745C36.3233 79.121 36.0953 79.557 36.0233 80.053ZM47.5245 83.509H46.6485V80.041C46.6485 79.489 46.5085 79.049 46.2285 78.721C45.9485 78.393 45.5405 78.229 45.0045 78.229C44.4845 78.229 44.0565 78.409 43.7205 78.769C43.3925 79.137 43.2285 79.585 43.2285 80.113V83.509H42.3525V77.545H43.2045V78.637C43.6845 77.837 44.3725 77.437 45.2685 77.437C45.9725 77.437 46.5285 77.653 46.9365 78.085C47.3285 78.541 47.5245 79.121 47.5245 79.825V83.509ZM54.6869 80.797H49.8629C49.8949 81.381 50.1149 81.865 50.5229 82.249C50.9229 82.641 51.4149 82.837 51.9989 82.837C52.4549 82.837 52.8429 82.729 53.1629 82.513C53.4829 82.289 53.7109 81.973 53.8469 81.565L54.6149 81.805C54.4469 82.365 54.1229 82.809 53.6429 83.137C53.1469 83.457 52.6029 83.617 52.0109 83.617C51.4509 83.617 50.9349 83.477 50.4629 83.197C49.9909 82.917 49.6309 82.541 49.3829 82.069C49.1189 81.605 48.9869 81.089 48.9869 80.521C48.9869 79.977 49.1109 79.473 49.3589 79.009C49.5909 78.537 49.9389 78.157 50.4029 77.869C50.8509 77.581 51.3469 77.437 51.8909 77.437C52.4909 77.437 53.0029 77.573 53.4269 77.845C53.8589 78.109 54.1789 78.473 54.3869 78.937C54.5949 79.377 54.6989 79.901 54.6989 80.509C54.6989 80.613 54.6949 80.709 54.6869 80.797ZM49.8749 80.053H53.8229C53.7669 79.509 53.5669 79.061 53.2229 78.709C52.8869 78.373 52.4429 78.205 51.8909 78.205C51.3869 78.205 50.9429 78.385 50.5589 78.745C50.1749 79.121 49.9469 79.557 49.8749 80.053ZM56.204 77.545H57.056V78.721C57.336 78.153 57.744 77.769 58.28 77.569C58.496 77.489 58.732 77.449 58.988 77.449C59.14 77.449 59.236 77.457 59.276 77.473V78.397C59.212 78.381 59.1 78.373 58.94 78.373C58.292 78.373 57.82 78.589 57.524 79.021C57.228 79.453 57.08 79.977 57.08 80.593V83.509H56.204V77.545ZM62.0738 80.065H63.7298V79.669C63.7298 78.701 63.2218 78.217 62.2058 78.217C61.7178 78.217 61.3418 78.349 61.0778 78.613C60.8378 78.853 60.6938 79.125 60.6458 79.429L59.8058 79.249C59.8138 79.081 59.8938 78.869 60.0458 78.613C60.1978 78.357 60.3978 78.129 60.6458 77.929C61.0698 77.601 61.5978 77.437 62.2298 77.437C63.3178 77.437 64.0418 77.849 64.4018 78.673C64.5218 78.953 64.5818 79.281 64.5818 79.657V81.337C64.5818 82.313 64.6138 83.037 64.6778 83.509H63.8138C63.7578 83.205 63.7298 82.857 63.7298 82.465C63.2258 83.233 62.5538 83.617 61.7138 83.617C61.1138 83.617 60.6338 83.449 60.2738 83.113C59.8978 82.785 59.7098 82.365 59.7098 81.853V81.793C59.7098 81.201 59.9458 80.765 60.4178 80.485C60.8978 80.205 61.4498 80.065 62.0738 80.065ZM63.7298 80.989V80.785H62.0618C61.6938 80.785 61.3698 80.853 61.0898 80.989C60.7538 81.133 60.5858 81.397 60.5858 81.781C60.5858 82.109 60.7098 82.369 60.9578 82.561C61.1978 82.753 61.5018 82.849 61.8698 82.849C62.3898 82.849 62.8338 82.673 63.2018 82.321C63.5538 81.985 63.7298 81.541 63.7298 80.989ZM66.4814 83.509V74.401H67.3574V83.509H66.4814ZM20.0878 87.761H21.4078V96.509H20.4958V89.009L17.2438 96.509H16.4158L13.1878 89.069V96.509H12.2758V87.761H13.5838L16.8478 95.261L20.0878 87.761ZM26.2422 96.617C25.6902 96.617 25.1742 96.481 24.6942 96.209C24.2222 95.929 23.8542 95.557 23.5902 95.093C23.3182 94.629 23.1822 94.113 23.1822 93.545C23.1822 92.657 23.4782 91.921 24.0702 91.337C24.6622 90.737 25.3942 90.437 26.2662 90.437C27.1142 90.421 27.8422 90.721 28.4502 91.337C29.0662 91.945 29.3662 92.669 29.3502 93.509C29.3662 94.373 29.0662 95.113 28.4502 95.729C27.8342 96.337 27.0982 96.633 26.2422 96.617ZM26.2662 95.837C26.8902 95.837 27.4142 95.613 27.8382 95.165C28.2462 94.717 28.4502 94.177 28.4502 93.545C28.4502 92.905 28.2422 92.353 27.8262 91.889C27.4022 91.433 26.8742 91.205 26.2422 91.205C25.6102 91.205 25.0902 91.429 24.6822 91.877C24.2742 92.325 24.0702 92.869 24.0702 93.509C24.0542 94.141 24.2582 94.689 24.6822 95.153C25.1142 95.617 25.6422 95.845 26.2662 95.837ZM32.7686 96.557C31.6406 96.557 31.0766 96.025 31.0766 94.961V91.313H29.9726V90.545H31.0766V88.829H31.9406V90.545H33.4526V91.313H31.9406V94.949C31.9406 95.509 32.2646 95.789 32.9126 95.789C33.0646 95.789 33.2446 95.773 33.4526 95.741V96.461C33.2446 96.525 33.0166 96.557 32.7686 96.557ZM37.2812 96.617C36.7292 96.617 36.2132 96.481 35.7332 96.209C35.2612 95.929 34.8932 95.557 34.6292 95.093C34.3572 94.629 34.2212 94.113 34.2212 93.545C34.2212 92.657 34.5172 91.921 35.1092 91.337C35.7012 90.737 36.4332 90.437 37.3052 90.437C38.1532 90.421 38.8812 90.721 39.4892 91.337C40.1052 91.945 40.4052 92.669 40.3892 93.509C40.4052 94.373 40.1052 95.113 39.4892 95.729C38.8732 96.337 38.1372 96.633 37.2812 96.617ZM37.3052 95.837C37.9292 95.837 38.4532 95.613 38.8772 95.165C39.2852 94.717 39.4892 94.177 39.4892 93.545C39.4892 92.905 39.2812 92.353 38.8652 91.889C38.4412 91.433 37.9132 91.205 37.2812 91.205C36.6492 91.205 36.1292 91.429 35.7212 91.877C35.3132 92.325 35.1092 92.869 35.1092 93.509C35.0932 94.141 35.2972 94.689 35.7212 95.153C36.1532 95.617 36.6812 95.845 37.3052 95.837ZM41.9189 90.545H42.7709V91.721C43.0509 91.153 43.4589 90.769 43.9949 90.569C44.2109 90.489 44.4469 90.449 44.7029 90.449C44.8549 90.449 44.9509 90.457 44.9909 90.473V91.397C44.9269 91.381 44.8149 91.373 44.6549 91.373C44.0069 91.373 43.5349 91.589 43.2389 92.021C42.9429 92.453 42.7949 92.977 42.7949 93.593V96.509H41.9189V90.545ZM49.9447 94.817C49.9447 95.353 49.7407 95.781 49.3327 96.101C48.9247 96.437 48.4247 96.605 47.8327 96.605C46.9607 96.605 46.3247 96.317 45.9247 95.741C45.7247 95.469 45.6047 95.165 45.5647 94.829L46.3567 94.625C46.4127 94.953 46.5607 95.241 46.8007 95.489C47.0487 95.729 47.3887 95.849 47.8207 95.849C48.1487 95.849 48.4407 95.757 48.6967 95.573C48.9367 95.405 49.0567 95.169 49.0567 94.865C49.0567 94.625 48.9607 94.433 48.7687 94.289C48.5927 94.145 48.3647 94.041 48.0847 93.977L47.1727 93.773C46.1807 93.557 45.6847 93.037 45.6847 92.213C45.6847 91.597 45.9327 91.137 46.4287 90.833C46.8527 90.569 47.2807 90.437 47.7127 90.437C48.5287 90.445 49.1247 90.709 49.5007 91.229C49.6847 91.493 49.8047 91.761 49.8607 92.033L49.0687 92.261C49.0127 92.029 48.8967 91.805 48.7207 91.589C48.5047 91.333 48.1687 91.205 47.7127 91.205C47.3847 91.205 47.1127 91.297 46.8967 91.481C46.6727 91.657 46.5607 91.881 46.5607 92.153C46.5607 92.553 46.8487 92.825 47.4247 92.969L48.3847 93.185C48.8247 93.289 49.1927 93.477 49.4887 93.749C49.7927 94.021 49.9447 94.377 49.9447 94.817ZM54.2263 92.513V92.225C54.2263 91.073 54.5063 90.025 55.0663 89.081C55.6183 88.129 56.3983 87.365 57.4063 86.789L57.7663 87.353C55.9983 88.489 55.1143 90.117 55.1143 92.237V92.501C55.1143 94.605 55.9983 96.229 57.7663 97.373L57.4063 97.961C56.3983 97.377 55.6183 96.609 55.0663 95.657C54.5063 94.713 54.2263 93.665 54.2263 92.513ZM65.5763 90.269L64.7003 90.581C64.5643 90.197 64.3643 89.853 64.1003 89.549C63.9003 89.341 63.7083 89.173 63.5243 89.045C63.0283 88.701 62.4163 88.529 61.6883 88.529C61.0163 88.529 60.4243 88.693 59.9123 89.021C59.3763 89.357 58.9683 89.797 58.6883 90.341C58.4003 90.885 58.2563 91.477 58.2563 92.117C58.2563 93.125 58.5603 93.977 59.1683 94.673C59.8003 95.385 60.6443 95.741 61.7003 95.741C62.5003 95.741 63.1963 95.513 63.7883 95.057C64.4043 94.585 64.7363 93.941 64.7843 93.125H61.1363V92.273H65.7683V92.609C65.7683 93.729 65.4083 94.669 64.6883 95.429C63.9363 96.205 62.9363 96.593 61.6883 96.593C60.3603 96.593 59.2963 96.169 58.4963 95.321C57.7043 94.481 57.3083 93.429 57.3083 92.165C57.3083 91.333 57.5003 90.573 57.8843 89.885C58.2683 89.197 58.7963 88.657 59.4683 88.265C60.1323 87.873 60.8803 87.677 61.7123 87.677C62.7683 87.677 63.6243 87.941 64.2803 88.469C64.8963 88.949 65.3283 89.549 65.5763 90.269ZM75.3065 87.761H76.6265V96.509H75.7145V89.009L72.4625 96.509H71.6345L68.4065 89.069V96.509H67.4945V87.761H68.8025L72.0665 95.261L75.3065 87.761ZM81.6889 92.225V92.513C81.6889 93.673 81.4129 94.725 80.8609 95.669C80.3009 96.613 79.5169 97.377 78.5089 97.961L78.1489 97.373C79.9169 96.229 80.8009 94.605 80.8009 92.501V92.237C80.8009 90.117 79.9169 88.489 78.1489 87.353L78.5089 86.789C79.5169 87.357 80.3009 88.117 80.8609 89.069C81.4129 90.021 81.6889 91.073 81.6889 92.225Z" fill="white"/>
</g>
<defs>
<filter id="filter0_d_183_3187" x="52.0713" y="28.5428" width="30.2129" height="34.8591" filterUnits="userSpaceOnUse" color-interpolation-filters="sRGB">
<feFlood flood-opacity="0" result="BackgroundImageFix"/>
<feColorMatrix in="SourceAlpha" type="matrix" values="0 0 0 0 0 0 0 0 0 0 0 0 0 0 0 0 0 0 127 0" result="hardAlpha"/>
<feOffset dx="-4" dy="4"/>
<feGaussianBlur stdDeviation="2"/>
<feComposite in2="hardAlpha" operator="out"/>
<feColorMatrix type="matrix" values="0 0 0 0 0 0 0 0 0 0 0 0 0 0 0 0 0 0 0.25 0"/>
<feBlend mode="normal" in2="BackgroundImageFix" result="effect1_dropShadow_183_3187"/>
<feBlend mode="normal" in="SourceGraphic" in2="effect1_dropShadow_183_3187" result="shape"/>
</filter>
<filter id="filter1_d_183_3187" x="58.9165" y="28.8316" width="23.3679" height="34.5703" filterUnits="userSpaceOnUse" color-interpolation-filters="sRGB">
<feFlood flood-opacity="0" result="BackgroundImageFix"/>
<feColorMatrix in="SourceAlpha" type="matrix" values="0 0 0 0 0 0 0 0 0 0 0 0 0 0 0 0 0 0 127 0" result="hardAlpha"/>
<feOffset dx="-4" dy="4"/>
<feGaussianBlur stdDeviation="2"/>
<feComposite in2="hardAlpha" operator="out"/>
<feColorMatrix type="matrix" values="0 0 0 0 0 0 0 0 0 0 0 0 0 0 0 0 0 0 0.25 0"/>
<feBlend mode="normal" in2="BackgroundImageFix" result="effect1_dropShadow_183_3187"/>
<feBlend mode="normal" in="SourceGraphic" in2="effect1_dropShadow_183_3187" result="shape"/>
</filter>
<filter id="filter2_d_183_3187" x="18.9355" y="-4.97711" width="47.9595" height="49.1527" filterUnits="userSpaceOnUse" color-interpolation-filters="sRGB">
<feFlood flood-opacity="0" result="BackgroundImageFix"/>
<feColorMatrix in="SourceAlpha" type="matrix" values="0 0 0 0 0 0 0 0 0 0 0 0 0 0 0 0 0 0 127 0" result="hardAlpha"/>
<feOffset dy="4"/>
<feGaussianBlur stdDeviation="5"/>
<feComposite in2="hardAlpha" operator="out"/>
<feColorMatrix type="matrix" values="0 0 0 0 0 0 0 0 0 0 0 0 0 0 0 0 0 0 0.5 0"/>
<feBlend mode="normal" in2="BackgroundImageFix" result="effect1_dropShadow_183_3187"/>
<feBlend mode="normal" in="SourceGraphic" in2="effect1_dropShadow_183_3187" result="shape"/>
</filter>
<filter id="filter3_d_183_3187" x="-6.62524" y="-2.59033" width="46.7661" height="67.9059" filterUnits="userSpaceOnUse" color-interpolation-filters="sRGB">
<feFlood flood-opacity="0" result="BackgroundImageFix"/>
<feColorMatrix in="SourceAlpha" type="matrix" values="0 0 0 0 0 0 0 0 0 0 0 0 0 0 0 0 0 0 127 0" result="hardAlpha"/>
<feOffset dy="4"/>
<feGaussianBlur stdDeviation="5"/>
<feComposite in2="hardAlpha" operator="out"/>
<feColorMatrix type="matrix" values="0 0 0 0 0 0 0 0 0 0 0 0 0 0 0 0 0 0 0.5 0"/>
<feBlend mode="normal" in2="BackgroundImageFix" result="effect1_dropShadow_183_3187"/>
<feBlend mode="normal" in="SourceGraphic" in2="effect1_dropShadow_183_3187" result="shape"/>
</filter>
<filter id="filter4_d_183_3187" x="10.2759" y="74.4011" width="73.4131" height="27.56" filterUnits="userSpaceOnUse" color-interpolation-filters="sRGB">
<feFlood flood-opacity="0" result="BackgroundImageFix"/>
<feColorMatrix in="SourceAlpha" type="matrix" values="0 0 0 0 0 0 0 0 0 0 0 0 0 0 0 0 0 0 127 0" result="hardAlpha"/>
<feOffset dy="2"/>
<feGaussianBlur stdDeviation="1"/>
<feComposite in2="hardAlpha" operator="out"/>
<feColorMatrix type="matrix" values="0 0 0 0 0 0 0 0 0 0 0 0 0 0 0 0 0 0 0.5 0"/>
<feBlend mode="normal" in2="BackgroundImageFix" result="effect1_dropShadow_183_3187"/>
<feBlend mode="normal" in="SourceGraphic" in2="effect1_dropShadow_183_3187" result="shape"/>
</filter>
<clipPath id="clip0_183_3187">
<rect width="35.8257" height="35.8257" fill="white" transform="translate(55.1519 19.739) rotate(13.4168)"/>
</clipPath>
<clipPath id="clip1_183_3187">
<rect width="30.6871" height="31.9862" fill="white" transform="matrix(-1 0 0 1 57.7476 0)"/>
</clipPath>
<clipPath id="clip2_183_3187">
<rect width="28.9942" height="52.0657" fill="white" transform="matrix(-1 0 0 1 29.9705 0)"/>
</clipPath>
</defs>
</svg>
