<svg width="89" height="102" viewBox="0 0 89 102" fill="none" xmlns="http://www.w3.org/2000/svg">
<rect x="21.5027" y="24.1279" width="45.9342" height="45.9342" rx="22.9671" fill="#ED1C24"/>
<rect x="21.5027" y="24.1279" width="45.9342" height="45.9342" rx="22.9671" stroke="#CDCCCC"/>
<path d="M60.072 47.9545V45.5555H59.2692V44.7714H60.072V43.371H60.9308V44.7714H62.0509V45.5555H60.9308V47.8891C60.9308 48.4026 61.1455 48.636 61.5469 48.636C61.7055 48.636 61.8176 48.6173 61.939 48.5612L62.2376 49.2987C62.0416 49.3827 61.8362 49.4202 61.5469 49.4202C60.5854 49.4202 60.072 48.888 60.072 47.9545ZM54.5364 47.0583C54.5364 45.7607 55.4327 44.622 56.7769 44.622C58.1398 44.622 59.0173 45.5834 59.0173 47.0583C59.0173 47.1237 59.008 47.2171 59.008 47.2171H55.3954C55.442 48.1879 56.1421 48.7106 56.8516 48.7106C57.3556 48.7106 57.8596 48.5053 58.1025 47.9265L58.868 48.2438C58.5973 48.8973 57.925 49.4948 56.8703 49.4948C55.4701 49.4948 54.5364 48.4399 54.5364 47.0583ZM56.7582 45.4061C56.1235 45.4061 55.6194 45.8355 55.4513 46.5076H58.1025C58.0745 46.1062 57.7383 45.4061 56.7582 45.4061ZM50.3268 48.7106H50.2895V49.3453H49.4681V42.6615H50.3268V44.7713L50.2895 45.4061H50.3268C50.5882 44.986 51.1578 44.6219 51.8858 44.6219C53.0433 44.6219 54.0608 45.658 54.0608 47.0583C54.0608 48.4586 53.0433 49.4948 51.8858 49.4948C51.1578 49.4948 50.5882 49.1306 50.3268 48.7106ZM53.202 47.0583C53.202 46.0314 52.5113 45.4061 51.7458 45.4061C50.9803 45.4061 50.2895 46.0128 50.2895 47.0583C50.2895 48.1038 50.9803 48.7106 51.7458 48.7106C52.5113 48.7106 53.202 48.0852 53.202 47.0583ZM44.5209 47.9637C44.5209 46.9276 45.4544 46.3675 46.528 46.3675C47.1441 46.3675 47.5921 46.5448 47.7695 46.6476V46.517C47.7695 45.8261 47.2187 45.4061 46.5745 45.4061C46.0986 45.4061 45.6411 45.6394 45.4825 46.0688L44.6984 45.7328C44.857 45.3127 45.4077 44.6219 46.5559 44.6219C47.6762 44.6219 48.5909 45.2941 48.5909 46.5823V49.3454H47.7695V48.7107H47.7321C47.4801 49.0933 47.0134 49.4948 46.2292 49.4948C45.2956 49.4948 44.5209 48.916 44.5209 47.9637ZM47.7695 47.3757C47.7695 47.3757 47.4055 47.0769 46.6772 47.0769C45.7717 47.0769 45.4171 47.5625 45.4171 47.9824C45.4171 48.468 45.9211 48.7107 46.3692 48.7107C47.0507 48.7107 47.7695 48.1224 47.7695 47.3757ZM40.6285 44.7712L40.5912 45.4059H40.6285C40.8712 44.9859 41.45 44.6219 42.0755 44.6219C43.2423 44.6219 43.8211 45.4153 43.8211 46.5449V49.3454H42.9623V46.6756C42.9623 45.7234 42.4862 45.4059 41.8328 45.4059C41.0859 45.4059 40.6285 46.1155 40.6285 46.8156V49.3454H39.7697V42.6616H40.6285V44.7712ZM35.392 48.7106H35.3547L35.392 49.3453V51.3618H34.5332V44.7712H35.3547V45.4061H35.392C35.6534 44.986 36.2228 44.6219 36.951 44.6219C38.1085 44.6219 39.126 45.658 39.126 47.0583C39.126 48.4586 38.1085 49.4948 36.951 49.4948C36.2228 49.4948 35.6534 49.1306 35.392 48.7106ZM38.2672 47.0583C38.2672 46.0314 37.5763 45.4061 36.811 45.4061C36.0454 45.4061 35.3547 46.0128 35.3547 47.0583C35.3547 48.1038 36.0454 48.7106 36.811 48.7106C37.5763 48.7106 38.2672 48.0852 38.2672 47.0583ZM32.7597 49.3454H33.6185V42.6616H32.7597V49.3454ZM28.774 42.6615L26.2534 49.3454H27.2057L27.859 47.5344H30.6689L31.3131 49.3454H32.2652L29.7447 42.6615H28.774ZM29.2406 43.7164H29.278L30.3702 46.7315H28.1485L29.2406 43.7164Z" fill="white"/>
<g filter="url(#filter0_d_183_2693)">
<path d="M22.9946 55.2289L23.606 54.4472C26.9583 50.1446 31.129 44.7916 29.4179 37.6186L27.7876 30.7841L26.5815 31.0719C22.2268 32.1106 18.4894 30.9928 17.888 28.4717L15.4759 29.0471C16.0773 31.5682 13.2469 34.2527 8.89223 35.2915L7.68612 35.5792L9.31645 42.4137C11.0275 49.5867 17.1655 52.4806 22.0973 54.8059L22.9946 55.2289Z" fill="#D84025"/>
</g>
<g filter="url(#filter1_d_183_2693)">
<path d="M8.89215 35.2914C13.2469 34.2527 16.0772 31.5681 15.4758 29.047L16.6819 28.7593L22.9957 55.2274L22.9945 55.2288L22.0972 54.8058C17.1654 52.4805 11.0275 49.5867 9.31637 42.4136L7.68605 35.5791L8.89215 35.2914Z" fill="#A13023"/>
</g>
<g clip-path="url(#clip0_183_2693)">
<g filter="url(#filter2_d_183_2693)">
<path fill-rule="evenodd" clip-rule="evenodd" d="M54.4432 22.5884C54.7525 23.8439 55.0604 25.0985 55.3669 26.352C52.5427 27.9683 48.9768 28.8708 44.4973 28.8724V23.6889L54.4432 22.5884Z" fill="#535353"/>
<path fill-rule="evenodd" clip-rule="evenodd" d="M34.5595 22.5884C34.2462 23.8439 33.9356 25.0985 33.6277 26.352C36.458 27.9683 40.0158 28.8708 44.4973 28.8724V23.6889L34.5595 22.5884Z" fill="#676767"/>
<path fill-rule="evenodd" clip-rule="evenodd" d="M42.274 9.0759C35.8214 3.36948 48.0226 3.91021 51.4611 1.01904C51.7038 1.26047 51.8477 1.55073 51.8749 1.85375C51.9021 2.15677 51.8114 2.45917 51.6141 2.72338C53.1405 3.67161 55.824 2.37786 57.279 4.1953C55.6302 4.12403 54.6261 4.61829 54.0139 5.27988C58.5361 4.75618 56.7668 7.94329 60.6318 8.12302C57.7524 9.34239 50.9897 7.00126 46.8084 9.8506C44.9208 9.79792 44.1616 9.13323 42.274 9.0759Z" fill="#A23023"/>
<path fill-rule="evenodd" clip-rule="evenodd" d="M60.6299 8.0703C57.7798 9.32968 51.0665 6.93003 46.9158 9.85058C46.1434 9.81775 45.3835 9.6841 44.6672 9.45514C50.0962 4.6606 54.9134 8.91676 60.632 8.0703H60.6299Z" fill="#1A1A1A"/>
<path fill-rule="evenodd" clip-rule="evenodd" d="M42.651 8.5912C43.3961 8.64925 44.127 8.78319 44.8231 8.98926L44.8723 9.00146C44.6291 8.72999 44.3901 8.45851 44.1551 8.18703C42.0198 6.37056 46.5137 4.22161 49.2392 3.78084C50.2208 4.41531 51.7331 4.11485 52.5077 4.5602C51.8396 5.1001 51.4257 6.0335 50.7556 6.57341C58.4074 5.79863 54.9217 7.64102 58.5939 7.99791C58.3467 7.87292 58.1222 7.72478 57.9258 7.55714C56.6963 6.5124 56.8787 5.37158 54.1983 5.67661L52.7065 5.84591C52.9701 5.57341 53.2358 5.30142 53.5036 5.02995C54.1079 4.39937 55.0174 3.96796 56.0405 3.82659C55.8007 3.72215 55.5365 3.6523 55.2618 3.6207C55 3.5912 54.7357 3.5754 54.4708 3.57342C53.2782 3.55206 52.1409 3.62222 51.1921 3.05181L50.8396 2.83676C50.9093 2.7422 50.981 2.64917 51.0446 2.55613C51.2032 2.34732 51.2698 2.10676 51.2351 1.86829C50.0056 2.56223 48.3048 3.02893 46.8478 3.41632C45.6941 3.72136 44.483 4.02639 43.3887 4.40615C42.6161 4.67763 41.7493 5.05435 41.3395 5.56985C40.5956 6.5307 41.7452 7.77981 42.651 8.5912Z" fill="#EF4123"/>
<path fill-rule="evenodd" clip-rule="evenodd" d="M43.7258 8.71744C44.1135 8.79334 44.4959 8.88402 44.8714 8.98912L44.9204 9.0014C44.6781 8.72818 44.4398 8.45496 44.2057 8.18175C42.0779 6.35365 46.5561 4.19094 49.272 3.74734C50.2501 4.38587 51.7571 4.08349 52.529 4.53169C51.8633 5.07505 51.4508 6.01443 50.7831 6.55779C58.4081 5.77805 54.9346 7.63224 58.5939 7.99142C56.6887 7.61843 56.7234 6.27076 55.6411 5.94689C54.5588 5.62302 53.1294 6.369 52.0389 6.04513C52.1533 5.42041 52.6699 4.91235 53.4214 4.13721C52.3779 3.66292 49.7457 4.08656 50.293 2.71741C47.9508 4.65909 40.4055 3.85479 43.2684 8.55013L43.7258 8.71744Z" fill="#D03927"/>
<path d="M44.4123 12.7378C46.3352 12.7378 47.894 11.7113 47.894 10.445C47.894 9.17875 46.3352 8.15222 44.4123 8.15222C42.4895 8.15222 40.9307 9.17875 40.9307 10.445C40.9307 11.7113 42.4895 12.7378 44.4123 12.7378Z" fill="#CDCCCC"/>
<path fill-rule="evenodd" clip-rule="evenodd" d="M44.4279 10.5299C48.7929 10.5299 52.5226 12.2605 54.0145 14.7017C54.8158 14.959 55.3671 15.4889 55.3671 16.0954C55.363 16.297 55.3022 16.4957 55.1885 16.6786C55.0748 16.8615 54.9108 17.0244 54.7072 17.1567C54.6334 20.7266 50.0594 23.6074 44.4279 23.6074C38.7964 23.6074 34.2388 20.7328 34.1527 17.172C33.94 17.0392 33.7679 16.8738 33.648 16.687C33.5282 16.5002 33.4634 16.2964 33.458 16.0893C33.458 15.4767 34.0277 14.936 34.8474 14.6833C36.3455 12.2483 40.069 10.5299 44.4279 10.5299Z" fill="#8B8A8A"/>
<path fill-rule="evenodd" clip-rule="evenodd" d="M42.799 20.2107C46.6371 20.2107 49.7624 18.2312 49.7624 15.7949C49.7624 13.3586 46.6309 11.3792 42.799 11.3792C38.9671 11.3792 35.8357 13.3586 35.8357 15.7949C35.8357 18.2312 38.959 20.2107 42.799 20.2107Z" fill="#989898"/>
<path fill-rule="evenodd" clip-rule="evenodd" d="M40.6759 15.2854C42.1268 15.2854 43.3084 14.5219 43.3084 13.587C43.3084 12.6522 42.1268 11.8887 40.6759 11.8887C39.2251 11.8887 38.0435 12.6506 38.0435 13.587C38.0435 14.5235 39.2374 15.2854 40.6759 15.2854Z" fill="#ACACAC"/>
<path fill-rule="evenodd" clip-rule="evenodd" d="M44.4974 14.2665H44.3977C43.0092 14.2611 41.6311 14.4487 40.3308 14.82L32.7786 16.9646V23.3547C36.0829 26.2792 39.9363 28.5695 44.4974 30.0613V14.2665Z" fill="#CDCCCC"/>
<path fill-rule="evenodd" clip-rule="evenodd" d="M42.7991 15.2854C42.1973 15.3616 41.6069 15.484 41.0364 15.651L39.5886 16.0678V26.7622C40.6103 27.3513 41.6823 27.8861 42.7971 28.3629V15.2854H42.7991ZM38.9088 16.2638L36.6568 16.9125V24.8458C37.3687 25.37 38.1187 25.8771 38.9088 26.3593V16.2638ZM35.979 17.1069L34.4771 17.5394V23.0865C34.9583 23.5096 35.459 23.9244 35.979 24.3309V17.1069Z" fill="#333333"/>
<path fill-rule="evenodd" clip-rule="evenodd" d="M44.4973 14.2664H44.597C45.982 14.262 47.3566 14.4496 48.6537 14.82L56.2161 16.963V23.3532C52.9097 26.2792 49.0563 28.5695 44.4973 30.0613V14.2664Z" fill="#B4B4B4"/>
<path fill-rule="evenodd" clip-rule="evenodd" d="M46.1958 15.2854C46.8099 15.3618 47.4126 15.4842 47.9949 15.651L49.4726 16.0678V26.7622C48.4294 27.351 47.3354 27.8857 46.1978 28.3629V15.2854H46.1958ZM50.1665 16.2638L52.4629 16.9125V24.8458C51.7383 25.37 50.9729 25.8771 50.1665 26.3593V16.2638ZM53.1567 17.1069L54.6877 17.5394V23.0865C54.1978 23.5096 53.6875 23.9244 53.1567 24.3309V17.1069Z" fill="#1A1A1A"/>
<path fill-rule="evenodd" clip-rule="evenodd" d="M43.534 8.66174C44.1859 8.66174 44.4984 8.96662 44.2331 9.34109C44.0652 9.54109 43.8242 9.70857 43.5333 9.82751C43.2424 9.94646 42.9113 10.0129 42.5716 10.0204C41.9218 10.0204 41.6092 9.71696 41.8745 9.34109C42.0426 9.14147 42.2833 8.97426 42.5738 8.85535C42.8642 8.73645 43.1948 8.6698 43.534 8.66174Z" fill="#E3E3E3"/>
</g>
</g>
<g clip-path="url(#clip1_183_2693)">
<g filter="url(#filter3_d_183_2693)">
<path fill-rule="evenodd" clip-rule="evenodd" d="M60.009 47.2835L60.145 47.3539C60.2992 47.4366 60.4708 47.4817 60.6458 47.4855C60.8207 47.4893 60.9941 47.4517 61.1517 47.3757C61.3115 47.3045 61.4523 47.1966 61.5625 47.0608C61.6728 46.925 61.7495 46.7651 61.7864 46.5942C62.0991 45.2279 62.7244 43.5585 63.6139 41.8343C64.5034 40.1101 65.5023 38.6345 66.4277 37.5887C66.5437 37.4584 66.6283 37.3033 66.6751 37.1353C66.722 36.9673 66.7298 36.7908 66.6979 36.6193C66.6661 36.4478 66.5955 36.2859 66.4915 36.1459C66.3875 36.0058 66.2529 35.8914 66.0979 35.8114L65.9603 35.7411L66.5262 34.6469L69.1837 36.0162L71.8413 37.384L71.2754 38.4782L71.1394 38.4078C70.9837 38.3264 70.8113 38.2819 70.6357 38.2777C70.46 38.2736 70.2858 38.31 70.1264 38.3841C69.9671 38.4581 69.827 38.5679 69.7169 38.7049C69.6068 38.8418 69.5298 39.0023 69.4917 39.1738C69.179 40.5384 68.5537 42.2095 67.6643 43.9321C66.7748 45.6547 65.7758 47.1319 64.8504 48.1776C64.7344 48.3081 64.6498 48.4633 64.603 48.6314C64.5561 48.7996 64.5483 48.9762 64.5802 49.1478C64.612 49.3194 64.6826 49.4814 64.7866 49.6216C64.8906 49.7618 65.0252 49.8763 65.1802 49.9565L65.3178 50.0269L64.7519 51.1211L62.0944 49.7533L59.4431 48.3793L60.009 47.2835Z" fill="#CA3927"/>
<path fill-rule="evenodd" clip-rule="evenodd" d="M66.7737 38.2339C67.212 38.4626 66.6033 40.5412 65.4123 42.8736C64.2212 45.206 62.9 46.9134 62.4694 46.6847C62.0388 46.456 62.6398 44.3774 63.8309 42.045C65.022 39.7126 66.3354 38.0052 66.7737 38.2339Z" fill="#F04B23"/>
<path fill-rule="evenodd" clip-rule="evenodd" d="M86.1075 3.39673L84.6832 11.4454L71.3962 37.1944L67.0857 34.9697L80.3726 9.22067L86.1075 3.39673Z" fill="#D1D2D2"/>
<path fill-rule="evenodd" clip-rule="evenodd" d="M81.808 7.74434L84.0703 6.27113L83.2748 11.0728L71.3318 37.1944L84.6771 11.4454L86.1077 3.39673L81.808 7.74434Z" fill="#E6E6E5"/>
<path fill-rule="evenodd" clip-rule="evenodd" d="M82.3713 10.6997L76.0934 23.5217L69.8139 36.3452L69.1284 35.9964L68.4446 35.6476L75.4079 23.1745L82.3713 10.6997Z" fill="#818181"/>
<path fill-rule="evenodd" clip-rule="evenodd" d="M65.7727 33.4234L73.3723 37.3669C73.7631 37.0841 74.2371 36.9418 74.7181 36.9631C75.1991 36.9844 75.659 37.168 76.0235 37.4842C76.3881 37.8005 76.6361 38.231 76.7275 38.7064C76.819 39.1817 76.7486 39.6742 76.5278 40.1044C76.3069 40.5346 75.9483 40.8775 75.51 41.0777C75.0716 41.2779 74.579 41.3238 74.1115 41.208C73.644 41.0922 73.2289 40.8214 72.9332 40.4394C72.6375 40.0573 72.4783 39.5862 72.4814 39.1021L64.8818 35.1585C64.4905 35.4422 64.0157 35.585 63.5338 35.5639C63.052 35.5429 62.5913 35.3592 62.226 35.0425C61.8607 34.7258 61.6121 34.2946 61.5204 33.8185C61.4286 33.3423 61.4991 32.8489 61.7204 32.418C61.9417 31.987 62.3009 31.6436 62.74 31.4431C63.1792 31.2426 63.6727 31.1968 64.1409 31.3129C64.6092 31.4291 65.0249 31.7005 65.3209 32.0834C65.617 32.4663 65.7761 32.9384 65.7727 33.4234Z" fill="#333333"/>
</g>
</g>
<g filter="url(#filter4_d_183_2693)">
<path d="M27.5717 83.509L26.6117 81.277H21.8477L20.8877 83.509H19.9517L23.7197 74.761H24.7637L28.5437 83.509H27.5717ZM26.2637 80.437L24.2237 75.709L22.1957 80.437H26.2637ZM29.5598 83.509V74.401H30.4358V83.509H29.5598ZM38.3835 80.521C38.3835 81.065 38.2675 81.569 38.0355 82.033C37.8035 82.497 37.4755 82.873 37.0515 83.161C36.6195 83.449 36.1275 83.593 35.5755 83.593C34.5995 83.593 33.8355 83.157 33.2835 82.285V86.449H32.4075V77.545H33.2595V78.841C33.8755 77.905 34.6475 77.437 35.5755 77.437C36.4235 77.437 37.1075 77.757 37.6275 78.397C38.1315 79.021 38.3835 79.729 38.3835 80.521ZM35.4075 82.837C36.0315 82.837 36.5395 82.617 36.9315 82.177C37.3075 81.729 37.4955 81.185 37.4955 80.545C37.4955 79.641 37.1715 78.973 36.5235 78.541C36.2115 78.325 35.8395 78.217 35.4075 78.217C34.8155 78.209 34.3075 78.437 33.8835 78.901C33.4595 79.365 33.2555 79.901 33.2715 80.509C33.2715 81.149 33.4715 81.693 33.8715 82.141C34.2795 82.605 34.7915 82.837 35.4075 82.837ZM45.0912 83.509H44.2152V80.041C44.2152 79.489 44.0752 79.049 43.7952 78.721C43.5152 78.393 43.1072 78.229 42.5712 78.229C42.0512 78.229 41.6232 78.409 41.2872 78.769C40.9592 79.137 40.7952 79.585 40.7952 80.113V83.509H39.9192V74.413H40.7952V78.613C41.2592 77.829 41.9392 77.437 42.8352 77.437C43.5392 77.437 44.0952 77.653 44.5032 78.085C44.8952 78.541 45.0912 79.121 45.0912 79.825V83.509ZM48.9296 80.065H50.5856V79.669C50.5856 78.701 50.0776 78.217 49.0616 78.217C48.5736 78.217 48.1976 78.349 47.9336 78.613C47.6936 78.853 47.5496 79.125 47.5016 79.429L46.6616 79.249C46.6696 79.081 46.7496 78.869 46.9016 78.613C47.0536 78.357 47.2536 78.129 47.5016 77.929C47.9256 77.601 48.4536 77.437 49.0856 77.437C50.1736 77.437 50.8976 77.849 51.2576 78.673C51.3776 78.953 51.4376 79.281 51.4376 79.657V81.337C51.4376 82.313 51.4696 83.037 51.5336 83.509H50.6696C50.6136 83.205 50.5856 82.857 50.5856 82.465C50.0816 83.233 49.4096 83.617 48.5696 83.617C47.9696 83.617 47.4896 83.449 47.1296 83.113C46.7536 82.785 46.5656 82.365 46.5656 81.853V81.793C46.5656 81.201 46.8016 80.765 47.2736 80.485C47.7536 80.205 48.3056 80.065 48.9296 80.065ZM50.5856 80.989V80.785H48.9176C48.5496 80.785 48.2256 80.853 47.9456 80.989C47.6096 81.133 47.4416 81.397 47.4416 81.781C47.4416 82.109 47.5656 82.369 47.8136 82.561C48.0536 82.753 48.3576 82.849 48.7256 82.849C49.2456 82.849 49.6896 82.673 50.0576 82.321C50.4096 81.985 50.5856 81.541 50.5856 80.989ZM59.3132 80.521C59.3132 81.065 59.1972 81.569 58.9652 82.033C58.7332 82.497 58.4052 82.873 57.9812 83.161C57.5492 83.449 57.0572 83.593 56.5052 83.593C55.5212 83.593 54.7492 83.145 54.1892 82.249V83.509H53.3372V74.413H54.2132V78.829C54.8132 77.901 55.5772 77.437 56.5052 77.437C57.3532 77.437 58.0372 77.757 58.5572 78.397C59.0612 79.021 59.3132 79.729 59.3132 80.521ZM56.3372 82.837C56.9612 82.837 57.4692 82.617 57.8612 82.177C58.2372 81.729 58.4252 81.185 58.4252 80.545C58.4252 79.641 58.1012 78.973 57.4532 78.541C57.1412 78.325 56.7692 78.217 56.3372 78.217C55.7452 78.209 55.2372 78.437 54.8132 78.901C54.3892 79.365 54.1852 79.901 54.2012 80.509C54.2012 81.149 54.4012 81.693 54.8012 82.141C55.2092 82.605 55.7212 82.837 56.3372 82.837ZM66.1169 80.797H61.2929C61.3249 81.381 61.5449 81.865 61.9529 82.249C62.3529 82.641 62.8449 82.837 63.4289 82.837C63.8849 82.837 64.2729 82.729 64.5929 82.513C64.9129 82.289 65.1409 81.973 65.2769 81.565L66.0449 81.805C65.8769 82.365 65.5529 82.809 65.0729 83.137C64.5769 83.457 64.0329 83.617 63.4409 83.617C62.8809 83.617 62.3649 83.477 61.8929 83.197C61.4209 82.917 61.0609 82.541 60.8129 82.069C60.5489 81.605 60.4169 81.089 60.4169 80.521C60.4169 79.977 60.5409 79.473 60.7889 79.009C61.0209 78.537 61.3689 78.157 61.8329 77.869C62.2809 77.581 62.7769 77.437 63.3209 77.437C63.9209 77.437 64.4329 77.573 64.8569 77.845C65.2889 78.109 65.6089 78.473 65.8169 78.937C66.0249 79.377 66.1289 79.901 66.1289 80.509C66.1289 80.613 66.1249 80.709 66.1169 80.797ZM61.3049 80.053H65.2529C65.1969 79.509 64.9969 79.061 64.6529 78.709C64.3169 78.373 63.8729 78.205 63.3209 78.205C62.8169 78.205 62.3729 78.385 61.9889 78.745C61.6049 79.121 61.3769 79.557 61.3049 80.053ZM69.4877 83.557C68.3597 83.557 67.7957 83.025 67.7957 81.961V78.313H66.6917V77.545H67.7957V75.829H68.6597V77.545H70.1717V78.313H68.6597V81.949C68.6597 82.509 68.9837 82.789 69.6317 82.789C69.7837 82.789 69.9637 82.773 70.1717 82.741V83.461C69.9637 83.525 69.7357 83.557 69.4877 83.557ZM19.2969 92.513V92.225C19.2969 91.073 19.5769 90.025 20.1369 89.081C20.6889 88.129 21.4689 87.365 22.4769 86.789L22.8369 87.353C21.0689 88.489 20.1849 90.117 20.1849 92.237V92.501C20.1849 94.605 21.0689 96.229 22.8369 97.373L22.4769 97.961C21.4689 97.377 20.6889 96.609 20.1369 95.657C19.5769 94.713 19.2969 93.665 19.2969 92.513ZM30.6469 90.269L29.7709 90.581C29.6349 90.197 29.4349 89.853 29.1709 89.549C28.9709 89.341 28.7789 89.173 28.5949 89.045C28.0989 88.701 27.4869 88.529 26.7589 88.529C26.0869 88.529 25.4949 88.693 24.9829 89.021C24.4469 89.357 24.0389 89.797 23.7589 90.341C23.4709 90.885 23.3269 91.477 23.3269 92.117C23.3269 93.125 23.6309 93.977 24.2389 94.673C24.8709 95.385 25.7149 95.741 26.7709 95.741C27.5709 95.741 28.2669 95.513 28.8589 95.057C29.4749 94.585 29.8069 93.941 29.8549 93.125H26.2069V92.273H30.8389V92.609C30.8389 93.729 30.4789 94.669 29.7589 95.429C29.0069 96.205 28.0069 96.593 26.7589 96.593C25.4309 96.593 24.3669 96.169 23.5669 95.321C22.7749 94.481 22.3789 93.429 22.3789 92.165C22.3789 91.333 22.5709 90.573 22.9549 89.885C23.3389 89.197 23.8669 88.657 24.5389 88.265C25.2029 87.873 25.9509 87.677 26.7829 87.677C27.8389 87.677 28.6949 87.941 29.3509 88.469C29.9669 88.949 30.3989 89.549 30.6469 90.269ZM40.7492 92.117C40.7492 92.941 40.5612 93.697 40.1852 94.385C39.8012 95.065 39.2732 95.605 38.6012 96.005C37.9132 96.405 37.1572 96.605 36.3332 96.605C35.7332 96.605 35.1532 96.489 34.5932 96.257C34.0412 96.025 33.5772 95.709 33.2012 95.309C32.8252 94.933 32.5212 94.465 32.2892 93.905C32.0652 93.329 31.9532 92.749 31.9532 92.165C31.9532 91.333 32.1452 90.577 32.5292 89.897C32.9052 89.201 33.4332 88.657 34.1132 88.265C34.7772 87.873 35.5292 87.677 36.3692 87.677C36.9852 87.677 37.5652 87.789 38.1092 88.013C38.6532 88.253 39.1172 88.565 39.5012 88.949C39.9012 89.373 40.2052 89.845 40.4132 90.365C40.6372 90.909 40.7492 91.493 40.7492 92.117ZM39.8012 92.165C39.8012 91.165 39.4812 90.313 38.8412 89.609C38.1852 88.889 37.3492 88.529 36.3332 88.529C35.7012 88.529 35.1132 88.689 34.5692 89.009C34.0412 89.345 33.6332 89.781 33.3452 90.317C33.0572 90.869 32.9132 91.469 32.9132 92.117C32.9132 93.125 33.2332 93.973 33.8732 94.661C34.5292 95.381 35.3612 95.741 36.3692 95.741C37.0092 95.741 37.5972 95.577 38.1332 95.249C38.6612 94.945 39.0732 94.513 39.3692 93.953C39.6572 93.409 39.8012 92.813 39.8012 92.165ZM50.7453 92.117C50.7453 92.941 50.5573 93.697 50.1813 94.385C49.7973 95.065 49.2693 95.605 48.5973 96.005C47.9093 96.405 47.1533 96.605 46.3293 96.605C45.7293 96.605 45.1493 96.489 44.5893 96.257C44.0373 96.025 43.5733 95.709 43.1973 95.309C42.8213 94.933 42.5173 94.465 42.2853 93.905C42.0613 93.329 41.9493 92.749 41.9493 92.165C41.9493 91.333 42.1413 90.577 42.5253 89.897C42.9013 89.201 43.4293 88.657 44.1093 88.265C44.7733 87.873 45.5253 87.677 46.3653 87.677C46.9813 87.677 47.5613 87.789 48.1053 88.013C48.6493 88.253 49.1133 88.565 49.4973 88.949C49.8973 89.373 50.2013 89.845 50.4093 90.365C50.6333 90.909 50.7453 91.493 50.7453 92.117ZM49.7973 92.165C49.7973 91.165 49.4773 90.313 48.8373 89.609C48.1813 88.889 47.3453 88.529 46.3293 88.529C45.6973 88.529 45.1093 88.689 44.5653 89.009C44.0373 89.345 43.6293 89.781 43.3413 90.317C43.0533 90.869 42.9093 91.469 42.9093 92.117C42.9093 93.125 43.2293 93.973 43.8693 94.661C44.5253 95.381 45.3573 95.741 46.3653 95.741C47.0053 95.741 47.5933 95.577 48.1293 95.249C48.6573 94.945 49.0693 94.513 49.3653 93.953C49.6533 93.409 49.7973 92.813 49.7973 92.165ZM60.2133 90.269L59.3373 90.581C59.2013 90.197 59.0013 89.853 58.7373 89.549C58.5373 89.341 58.3453 89.173 58.1613 89.045C57.6653 88.701 57.0533 88.529 56.3253 88.529C55.6533 88.529 55.0613 88.693 54.5493 89.021C54.0133 89.357 53.6053 89.797 53.3253 90.341C53.0373 90.885 52.8933 91.477 52.8933 92.117C52.8933 93.125 53.1973 93.977 53.8053 94.673C54.4373 95.385 55.2813 95.741 56.3373 95.741C57.1373 95.741 57.8333 95.513 58.4253 95.057C59.0413 94.585 59.3733 93.941 59.4213 93.125H55.7733V92.273H60.4053V92.609C60.4053 93.729 60.0453 94.669 59.3253 95.429C58.5733 96.205 57.5733 96.593 56.3253 96.593C54.9973 96.593 53.9333 96.169 53.1333 95.321C52.3413 94.481 51.9453 93.429 51.9453 92.165C51.9453 91.333 52.1373 90.573 52.5213 89.885C52.9053 89.197 53.4333 88.657 54.1053 88.265C54.7693 87.873 55.5173 87.677 56.3493 87.677C57.4053 87.677 58.2613 87.941 58.9173 88.469C59.5333 88.949 59.9653 89.549 60.2133 90.269ZM62.1316 96.509V87.761H63.0556V95.645H67.2076V96.509H62.1316ZM71.2752 92.225V92.513C71.2752 93.673 70.9992 94.725 70.4472 95.669C69.8872 96.613 69.1032 97.377 68.0952 97.961L67.7352 97.373C69.5032 96.229 70.3872 94.605 70.3872 92.501V92.237C70.3872 90.117 69.5032 88.489 67.7352 87.353L68.0952 86.789C69.1032 87.357 69.8872 88.117 70.4472 89.069C70.9992 90.021 71.2752 91.073 71.2752 92.225Z" fill="white"/>
</g>
<defs>
<filter id="filter0_d_183_2693" x="3.68604" y="28.4717" width="30.1289" height="34.7572" filterUnits="userSpaceOnUse" color-interpolation-filters="sRGB">
<feFlood flood-opacity="0" result="BackgroundImageFix"/>
<feColorMatrix in="SourceAlpha" type="matrix" values="0 0 0 0 0 0 0 0 0 0 0 0 0 0 0 0 0 0 127 0" result="hardAlpha"/>
<feOffset dy="4"/>
<feGaussianBlur stdDeviation="2"/>
<feComposite in2="hardAlpha" operator="out"/>
<feColorMatrix type="matrix" values="0 0 0 0 0 0 0 0 0 0 0 0 0 0 0 0 0 0 0.25 0"/>
<feBlend mode="normal" in2="BackgroundImageFix" result="effect1_dropShadow_183_2693"/>
<feBlend mode="normal" in="SourceGraphic" in2="effect1_dropShadow_183_2693" result="shape"/>
</filter>
<filter id="filter1_d_183_2693" x="3.68604" y="28.7593" width="23.3096" height="34.4696" filterUnits="userSpaceOnUse" color-interpolation-filters="sRGB">
<feFlood flood-opacity="0" result="BackgroundImageFix"/>
<feColorMatrix in="SourceAlpha" type="matrix" values="0 0 0 0 0 0 0 0 0 0 0 0 0 0 0 0 0 0 127 0" result="hardAlpha"/>
<feOffset dy="4"/>
<feGaussianBlur stdDeviation="2"/>
<feComposite in2="hardAlpha" operator="out"/>
<feColorMatrix type="matrix" values="0 0 0 0 0 0 0 0 0 0 0 0 0 0 0 0 0 0 0.25 0"/>
<feBlend mode="normal" in2="BackgroundImageFix" result="effect1_dropShadow_183_2693"/>
<feBlend mode="normal" in="SourceGraphic" in2="effect1_dropShadow_183_2693" result="shape"/>
</filter>
<filter id="filter2_d_183_2693" x="22.7786" y="-4.98096" width="47.8535" height="49.0422" filterUnits="userSpaceOnUse" color-interpolation-filters="sRGB">
<feFlood flood-opacity="0" result="BackgroundImageFix"/>
<feColorMatrix in="SourceAlpha" type="matrix" values="0 0 0 0 0 0 0 0 0 0 0 0 0 0 0 0 0 0 127 0" result="hardAlpha"/>
<feOffset dy="4"/>
<feGaussianBlur stdDeviation="5"/>
<feComposite in2="hardAlpha" operator="out"/>
<feColorMatrix type="matrix" values="0 0 0 0 0 0 0 0 0 0 0 0 0 0 0 0 0 0 0.5 0"/>
<feBlend mode="normal" in2="BackgroundImageFix" result="effect1_dropShadow_183_2693"/>
<feBlend mode="normal" in="SourceGraphic" in2="effect1_dropShadow_183_2693" result="shape"/>
</filter>
<filter id="filter3_d_183_2693" x="49.4431" y="-2.60327" width="46.6646" height="67.7244" filterUnits="userSpaceOnUse" color-interpolation-filters="sRGB">
<feFlood flood-opacity="0" result="BackgroundImageFix"/>
<feColorMatrix in="SourceAlpha" type="matrix" values="0 0 0 0 0 0 0 0 0 0 0 0 0 0 0 0 0 0 127 0" result="hardAlpha"/>
<feOffset dy="4"/>
<feGaussianBlur stdDeviation="5"/>
<feComposite in2="hardAlpha" operator="out"/>
<feColorMatrix type="matrix" values="0 0 0 0 0 0 0 0 0 0 0 0 0 0 0 0 0 0 0.5 0"/>
<feBlend mode="normal" in2="BackgroundImageFix" result="effect1_dropShadow_183_2693"/>
<feBlend mode="normal" in="SourceGraphic" in2="effect1_dropShadow_183_2693" result="shape"/>
</filter>
<filter id="filter4_d_183_2693" x="17.2969" y="74.401" width="55.9783" height="27.5601" filterUnits="userSpaceOnUse" color-interpolation-filters="sRGB">
<feFlood flood-opacity="0" result="BackgroundImageFix"/>
<feColorMatrix in="SourceAlpha" type="matrix" values="0 0 0 0 0 0 0 0 0 0 0 0 0 0 0 0 0 0 127 0" result="hardAlpha"/>
<feOffset dy="2"/>
<feGaussianBlur stdDeviation="1"/>
<feComposite in2="hardAlpha" operator="out"/>
<feColorMatrix type="matrix" values="0 0 0 0 0 0 0 0 0 0 0 0 0 0 0 0 0 0 0.5 0"/>
<feBlend mode="normal" in2="BackgroundImageFix" result="effect1_dropShadow_183_2693"/>
<feBlend mode="normal" in="SourceGraphic" in2="effect1_dropShadow_183_2693" result="shape"/>
</filter>
<clipPath id="clip0_183_2693">
<rect width="30.5708" height="31.8649" fill="white" transform="translate(31.9294)"/>
</clipPath>
<clipPath id="clip1_183_2693">
<rect width="28.8843" height="51.8684" fill="white" transform="translate(59.613)"/>
</clipPath>
</defs>
</svg>
