<svg width="88.497360" height="105.598877" viewBox="0 0 88.4974 105.599" fill="none" xmlns="http://www.w3.org/2000/svg" xmlns:xlink="http://www.w3.org/1999/xlink">
	<desc>
			Created with Pixso.
	</desc>
	<defs>
		<clipPath id="clip187_11985">
			<rect id="Google__G__logo 1" width="30.847551" height="30.847549" transform="translate(28.878586 31.503906) rotate(-0.000000)" fill="white" fill-opacity="0"/>
		</clipPath>
		<clipPath id="clip187_11984">
			<rect id="google" rx="22.967110" width="45.934223" height="45.934219" transform="translate(21.502609 24.127930) rotate(-0.000000)" fill="white" fill-opacity="0"/>
		</clipPath>
		<filter id="filter_187_11992_dd" x="3.686295" y="28.471680" width="30.128822" height="34.757202" filterUnits="userSpaceOnUse" color-interpolation-filters="sRGB">
			<feFlood flood-opacity="0" result="BackgroundImageFix"/>
			<feColorMatrix in="SourceAlpha" type="matrix" values="0 0 0 0 0 0 0 0 0 0 0 0 0 0 0 0 0 0 127 0" result="hardAlpha"/>
			<feOffset dx="0" dy="4"/>
			<feGaussianBlur stdDeviation="1.33333"/>
			<feComposite in2="hardAlpha" operator="out" k2="-1" k3="1"/>
			<feColorMatrix type="matrix" values="0 0 0 0 0 0 0 0 0 0 0 0 0 0 0 0 0 0 0.25 0"/>
			<feBlend mode="normal" in2="BackgroundImageFix" result="effect_dropShadow_1"/>
			<feBlend mode="normal" in="SourceGraphic" in2="effect_dropShadow_1" result="shape"/>
		</filter>
		<filter id="filter_187_11993_dd" x="3.686211" y="28.759277" width="23.309639" height="34.469604" filterUnits="userSpaceOnUse" color-interpolation-filters="sRGB">
			<feFlood flood-opacity="0" result="BackgroundImageFix"/>
			<feColorMatrix in="SourceAlpha" type="matrix" values="0 0 0 0 0 0 0 0 0 0 0 0 0 0 0 0 0 0 127 0" result="hardAlpha"/>
			<feOffset dx="0" dy="4"/>
			<feGaussianBlur stdDeviation="1.33333"/>
			<feComposite in2="hardAlpha" operator="out" k2="-1" k3="1"/>
			<feColorMatrix type="matrix" values="0 0 0 0 0 0 0 0 0 0 0 0 0 0 0 0 0 0 0.25 0"/>
			<feBlend mode="normal" in2="BackgroundImageFix" result="effect_dropShadow_1"/>
			<feBlend mode="normal" in="SourceGraphic" in2="effect_dropShadow_1" result="shape"/>
		</filter>
		<clipPath id="clip187_11991">
			<rect id="shield-antivirus-svgrepo-com 1" width="35.689922" height="35.689922" transform="matrix(-0.972708 0.232033 0.232033 0.972708 34.7159 19.7012)" fill="white" fill-opacity="0"/>
		</clipPath>
		<filter id="filter_187_11996_dd" x="22.778732" y="-4.980957" width="47.853378" height="49.042236" filterUnits="userSpaceOnUse" color-interpolation-filters="sRGB">
			<feFlood flood-opacity="0" result="BackgroundImageFix"/>
			<feColorMatrix in="SourceAlpha" type="matrix" values="0 0 0 0 0 0 0 0 0 0 0 0 0 0 0 0 0 0 127 0" result="hardAlpha"/>
			<feOffset dx="0" dy="4"/>
			<feGaussianBlur stdDeviation="3.33333"/>
			<feComposite in2="hardAlpha" operator="out" k2="-1" k3="1"/>
			<feColorMatrix type="matrix" values="0 0 0 0 0 0 0 0 0 0 0 0 0 0 0 0 0 0 0.5 0"/>
			<feBlend mode="normal" in2="BackgroundImageFix" result="effect_dropShadow_1"/>
			<feBlend mode="normal" in="SourceGraphic" in2="effect_dropShadow_1" result="shape"/>
		</filter>
		<clipPath id="clip187_11994">
			<rect id="helmet_red" width="30.570757" height="31.864918" transform="translate(31.929489 0.000000)" fill="white" fill-opacity="0"/>
		</clipPath>
		<filter id="filter_187_12014_dd" x="49.443161" y="-2.603271" width="46.664536" height="67.724365" filterUnits="userSpaceOnUse" color-interpolation-filters="sRGB">
			<feFlood flood-opacity="0" result="BackgroundImageFix"/>
			<feColorMatrix in="SourceAlpha" type="matrix" values="0 0 0 0 0 0 0 0 0 0 0 0 0 0 0 0 0 0 127 0" result="hardAlpha"/>
			<feOffset dx="0" dy="4"/>
			<feGaussianBlur stdDeviation="3.33333"/>
			<feComposite in2="hardAlpha" operator="out" k2="-1" k3="1"/>
			<feColorMatrix type="matrix" values="0 0 0 0 0 0 0 0 0 0 0 0 0 0 0 0 0 0 0.5 0"/>
			<feBlend mode="normal" in2="BackgroundImageFix" result="effect_dropShadow_1"/>
			<feBlend mode="normal" in="SourceGraphic" in2="effect_dropShadow_1" result="shape"/>
		</filter>
		<clipPath id="clip187_12012">
			<rect id="sword_red" width="28.884270" height="51.868378" transform="translate(59.613083 0.000000)" fill="white" fill-opacity="0"/>
		</clipPath>
		<filter id="filter_187_12021_dd" x="20.258110" y="75.691650" width="50.825996" height="29.907227" filterUnits="userSpaceOnUse" color-interpolation-filters="sRGB">
			<feFlood flood-opacity="0" result="BackgroundImageFix"/>
			<feColorMatrix in="SourceAlpha" type="matrix" values="0 0 0 0 0 0 0 0 0 0 0 0 0 0 0 0 0 0 127 0" result="hardAlpha"/>
			<feOffset dx="0" dy="2"/>
			<feGaussianBlur stdDeviation="0.666667"/>
			<feComposite in2="hardAlpha" operator="out" k2="-1" k3="1"/>
			<feColorMatrix type="matrix" values="0 0 0 0 0 0 0 0 0 0 0 0 0 0 0 0 0 0 0.5 0"/>
			<feBlend mode="normal" in2="BackgroundImageFix" result="effect_dropShadow_1"/>
			<feBlend mode="normal" in="SourceGraphic" in2="effect_dropShadow_1" result="shape"/>
		</filter>
	</defs>
	<rect id="google" rx="22.967110" width="45.934223" height="45.934219" transform="translate(21.502609 24.127930) rotate(-0.000000)" fill="#FFFFFF" fill-opacity="1.000000"/>
	<g clip-path="url(#clip187_11984)">
		<rect id="Google__G__logo 1" width="30.847551" height="30.847549" transform="translate(28.878586 31.503906) rotate(-0.000000)" fill="#FFFFFF" fill-opacity="0"/>
		<g clip-path="url(#clip187_11985)">
			<path id="Vector" d="M57.87 47.24C57.87 46.24 57.78 45.28 57.61 44.35L44.3 44.35L44.3 49.83L51.91 49.83C51.57 51.59 50.57 53.08 49.07 54.08L49.07 57.64L53.65 57.64C56.33 55.17 57.87 51.55 57.87 47.24Z" fill="#4285F4" fill-opacity="1.000000" fill-rule="nonzero"/>
			<path id="Vector" d="M44.3 61.06C48.11 61.06 51.32 59.8 53.65 57.64L49.07 54.08C47.81 54.93 46.2 55.44 44.3 55.44C40.62 55.44 37.5 52.96 36.38 49.62L31.68 49.62L31.68 53.27C34 57.89 38.77 61.06 44.3 61.06Z" fill="#34A853" fill-opacity="1.000000" fill-rule="nonzero"/>
			<path id="Vector" d="M36.38 49.61C36.1 48.76 35.93 47.86 35.93 46.92C35.93 45.98 36.1 45.08 36.38 44.24L36.38 40.59L31.68 40.59C30.71 42.49 30.16 44.63 30.16 46.92C30.16 49.21 30.71 51.36 31.68 53.26L35.34 50.41L36.38 49.61Z" fill="#FBBC05" fill-opacity="1.000000" fill-rule="nonzero"/>
			<path id="Vector" d="M44.3 38.41C46.38 38.41 48.23 39.13 49.71 40.52L53.76 36.47C51.3 34.19 48.11 32.78 44.3 32.78C38.77 32.78 34 35.96 31.68 40.59L36.38 44.24C37.5 40.89 40.62 38.41 44.3 38.41Z" fill="#EA4335" fill-opacity="1.000000" fill-rule="nonzero"/>
		</g>
	</g>
	<rect id="google" rx="22.967110" width="45.934223" height="45.934219" transform="translate(21.502609 24.127930) rotate(-0.000000)" stroke="#CDCCCC" stroke-opacity="1.000000" stroke-width="1.000000"/>
	<rect id="shield-antivirus-svgrepo-com 1" width="35.689922" height="35.689922" transform="matrix(-0.972708 0.232033 0.232033 0.972708 34.7159 19.7012)" fill="#FFFFFF" fill-opacity="0"/>
	<g clip-path="url(#clip187_11991)">
		<g filter="url(#filter_187_11992_dd)">
			<path id="Vector" d="M22.99 55.22L23.6 54.44C26.95 50.14 31.12 44.79 29.41 37.61L27.78 30.78L26.58 31.07C22.22 32.11 18.48 30.99 17.88 28.47L15.47 29.04C16.07 31.56 13.24 34.25 8.89 35.29L7.68 35.57L9.31 42.41C11.02 49.58 17.16 52.48 22.09 54.8L22.99 55.22Z" fill="#D84025" fill-opacity="1.000000" fill-rule="nonzero"/>
		</g>
		<g filter="url(#filter_187_11993_dd)">
			<path id="Vector" d="M8.89 35.29C13.24 34.25 16.07 31.56 15.47 29.04L16.68 28.75L22.99 55.22L22.99 55.22L22.09 54.8C17.16 52.48 11.02 49.58 9.31 42.41L7.68 35.57L8.89 35.29Z" fill="#A13023" fill-opacity="1.000000" fill-rule="nonzero"/>
		</g>
	</g>
	<rect id="helmet_red" width="30.570757" height="31.864918" transform="translate(31.929489 0.000000)" fill="#FFFFFF" fill-opacity="0"/>
	<g clip-path="url(#clip187_11994)">
		<g filter="url(#filter_187_11996_dd)">
			<path id="Vector" d="M54.44 22.58C54.75 23.84 55.06 25.09 55.36 26.35C52.54 27.96 48.97 28.87 44.49 28.87L44.49 23.68L54.44 22.58Z" fill="#535353" fill-opacity="1.000000" fill-rule="evenodd"/>
			<path id="Vector" d="M34.55 22.58C34.24 23.84 33.93 25.09 33.62 26.35C36.45 27.96 40.01 28.87 44.49 28.87L44.49 23.68L34.55 22.58Z" fill="#676767" fill-opacity="1.000000" fill-rule="evenodd"/>
			<path id="Vector" d="M42.27 9.07C35.82 3.36 48.02 3.91 51.46 1.01C51.7 1.26 51.84 1.55 51.87 1.85C51.9 2.15 51.81 2.45 51.61 2.72C53.14 3.67 55.82 2.37 57.27 4.19C55.63 4.12 54.62 4.61 54.01 5.27C58.53 4.75 56.76 7.94 60.63 8.12C57.75 9.34 50.99 7 46.8 9.85C44.92 9.79 44.16 9.13 42.27 9.07Z" fill="#A23023" fill-opacity="1.000000" fill-rule="evenodd"/>
			<path id="Vector" d="M60.63 8.07C57.77 9.32 51.06 6.93 46.91 9.85C46.14 9.81 45.38 9.68 44.66 9.45C50.09 4.66 54.91 8.91 60.63 8.07L60.63 8.07Z" fill="#1A1A1A" fill-opacity="1.000000" fill-rule="evenodd"/>
			<path id="Vector" d="M42.65 8.59C43.39 8.64 44.12 8.78 44.82 8.98L44.87 9C44.62 8.72 44.39 8.45 44.15 8.18C42.02 6.37 46.51 4.22 49.23 3.78C50.22 4.41 51.73 4.11 52.5 4.56C51.83 5.09 51.42 6.03 50.75 6.57C58.4 5.79 54.92 7.64 58.59 7.99C58.34 7.87 58.12 7.72 57.92 7.55C56.69 6.51 56.87 5.37 54.19 5.67L52.7 5.84C52.97 5.57 53.23 5.3 53.5 5.02C54.1 4.39 55.01 3.96 56.04 3.82C55.8 3.72 55.53 3.65 55.26 3.62C55 3.59 54.73 3.57 54.47 3.57C53.27 3.55 52.14 3.62 51.19 3.05L50.83 2.83C50.9 2.74 50.98 2.64 51.04 2.55C51.2 2.34 51.27 2.1 51.23 1.86C50 2.56 48.3 3.02 46.84 3.41C45.69 3.72 44.48 4.02 43.38 4.4C42.61 4.67 41.74 5.05 41.33 5.56C40.59 6.53 41.74 7.77 42.65 8.59Z" fill="#EF4123" fill-opacity="1.000000" fill-rule="evenodd"/>
			<path id="Vector" d="M43.72 8.71C44.11 8.79 44.49 8.88 44.87 8.98L44.92 9C44.67 8.72 44.44 8.45 44.2 8.18C42.07 6.35 46.55 4.19 49.27 3.74C50.25 4.38 51.75 4.08 52.52 4.53C51.86 5.07 51.45 6.01 50.78 6.55C58.4 5.77 54.93 7.63 58.59 7.99C56.68 7.61 56.72 6.27 55.64 5.94C54.55 5.62 53.12 6.36 52.03 6.04C52.15 5.42 52.67 4.91 53.42 4.13C52.37 3.66 49.74 4.08 50.29 2.71C47.95 4.65 40.4 3.85 43.26 8.55L43.72 8.71Z" fill="#D03927" fill-opacity="1.000000" fill-rule="evenodd"/>
			<path id="Vector" d="M47.89 10.44C47.89 11.71 46.33 12.73 44.41 12.73C42.48 12.73 40.93 11.71 40.93 10.44C40.93 9.17 42.48 8.15 44.41 8.15C46.33 8.15 47.89 9.17 47.89 10.44Z" fill="#CDCCCC" fill-opacity="1.000000" fill-rule="evenodd"/>
			<path id="Vector" d="M44.42 10.52C48.79 10.52 52.52 12.26 54.01 14.7C54.81 14.95 55.36 15.48 55.36 16.09C55.36 16.29 55.3 16.49 55.18 16.67C55.07 16.86 54.91 17.02 54.7 17.15C54.63 20.72 50.05 23.6 44.42 23.6C38.79 23.6 34.23 20.73 34.15 17.17C33.93 17.03 33.76 16.87 33.64 16.68C33.52 16.5 33.46 16.29 33.45 16.08C33.45 15.47 34.02 14.93 34.84 14.68C36.34 12.24 40.06 10.52 44.42 10.52Z" fill="#8B8A8A" fill-opacity="1.000000" fill-rule="evenodd"/>
			<path id="Vector" d="M42.79 20.21C46.63 20.21 49.76 18.23 49.76 15.79C49.76 13.35 46.63 11.37 42.79 11.37C38.96 11.37 35.83 13.35 35.83 15.79C35.83 18.23 38.95 20.21 42.79 20.21Z" fill="#989898" fill-opacity="1.000000" fill-rule="evenodd"/>
			<path id="Vector" d="M40.67 15.28C42.12 15.28 43.3 14.52 43.3 13.58C43.3 12.65 42.12 11.88 40.67 11.88C39.22 11.88 38.04 12.65 38.04 13.58C38.04 14.52 39.23 15.28 40.67 15.28Z" fill="#ACACAC" fill-opacity="1.000000" fill-rule="evenodd"/>
			<path id="Vector" d="M44.49 14.26L44.39 14.26C43 14.26 41.63 14.44 40.33 14.82L32.77 16.96L32.77 23.35C36.08 26.27 39.93 28.56 44.49 30.06L44.49 14.26Z" fill="#CDCCCC" fill-opacity="1.000000" fill-rule="evenodd"/>
			<path id="Vector" d="M42.79 15.28C42.19 15.36 41.6 15.48 41.03 15.65L39.58 16.06L39.58 26.76C40.61 27.35 41.68 27.88 42.79 28.36L42.79 15.28L42.79 15.28ZM38.9 16.26L36.65 16.91L36.65 24.84C37.36 25.37 38.11 25.87 38.9 26.35L38.9 16.26ZM35.97 17.1L34.47 17.53L34.47 23.08C34.95 23.5 35.45 23.92 35.97 24.33L35.97 17.1Z" fill="#333333" fill-opacity="1.000000" fill-rule="evenodd"/>
			<path id="Vector" d="M44.49 14.26L44.59 14.26C45.98 14.26 47.35 14.44 48.65 14.82L56.21 16.96L56.21 23.35C52.9 26.27 49.05 28.56 44.49 30.06L44.49 14.26Z" fill="#B4B4B4" fill-opacity="1.000000" fill-rule="evenodd"/>
			<path id="Vector" d="M46.19 15.28C46.81 15.36 47.41 15.48 47.99 15.65L49.47 16.06L49.47 26.76C48.42 27.35 47.33 27.88 46.19 28.36L46.19 15.28L46.19 15.28ZM50.16 16.26L52.46 16.91L52.46 24.84C51.73 25.37 50.97 25.87 50.16 26.35L50.16 16.26ZM53.15 17.1L54.68 17.53L54.68 23.08C54.19 23.5 53.68 23.92 53.15 24.33L53.15 17.1Z" fill="#1A1A1A" fill-opacity="1.000000" fill-rule="evenodd"/>
			<path id="Vector" d="M43.53 8.66C44.18 8.66 44.49 8.96 44.23 9.34C44.06 9.54 43.82 9.7 43.53 9.82C43.24 9.94 42.91 10.01 42.57 10.02C41.92 10.02 41.6 9.71 41.87 9.34C42.04 9.14 42.28 8.97 42.57 8.85C42.86 8.73 43.19 8.66 43.53 8.66Z" fill="#E3E3E3" fill-opacity="1.000000" fill-rule="evenodd"/>
		</g>
	</g>
	<rect id="sword_red" width="28.884270" height="51.868378" transform="translate(59.613083 0.000000)" fill="#FFFFFF" fill-opacity="0"/>
	<g clip-path="url(#clip187_12012)">
		<g filter="url(#filter_187_12014_dd)">
			<path id="Vector" d="M60 47.28L60.14 47.35C60.29 47.43 60.47 47.48 60.64 47.48C60.82 47.48 60.99 47.45 61.15 47.37C61.31 47.3 61.45 47.19 61.56 47.06C61.67 46.92 61.74 46.76 61.78 46.59C62.09 45.22 62.72 43.55 63.61 41.83C64.5 40.11 65.5 38.63 66.42 37.58C66.54 37.45 66.62 37.3 66.67 37.13C66.72 36.96 66.72 36.79 66.69 36.61C66.66 36.44 66.59 36.28 66.49 36.14C66.38 36 66.25 35.89 66.09 35.81L65.96 35.74L66.52 34.64L69.18 36.01L71.84 37.38L71.27 38.47L71.13 38.4C70.98 38.32 70.81 38.28 70.63 38.27C70.46 38.27 70.28 38.31 70.12 38.38C69.96 38.45 69.82 38.56 69.71 38.7C69.6 38.84 69.52 39 69.49 39.17C69.17 40.53 68.55 42.2 67.66 43.93C66.77 45.65 65.77 47.13 64.85 48.17C64.73 48.3 64.64 48.46 64.6 48.63C64.55 48.79 64.54 48.97 64.58 49.14C64.61 49.31 64.68 49.48 64.78 49.62C64.89 49.76 65.02 49.87 65.18 49.95L65.31 50.02L64.75 51.12L62.09 49.75L59.44 48.37L60 47.28Z" fill="#CA3927" fill-opacity="1.000000" fill-rule="evenodd"/>
			<path id="Vector" d="M66.77 38.23C67.21 38.46 66.6 40.54 65.41 42.87C64.22 45.2 62.9 46.91 62.46 46.68C62.03 46.45 62.63 44.37 63.83 42.04C65.02 39.71 66.33 38 66.77 38.23Z" fill="#F04B23" fill-opacity="1.000000" fill-rule="evenodd"/>
			<path id="Vector" d="M86.1 3.39L84.68 11.44L71.39 37.19L67.08 34.96L80.37 9.22L86.1 3.39Z" fill="#D1D2D2" fill-opacity="1.000000" fill-rule="evenodd"/>
			<path id="Vector" d="M81.8 7.74L84.07 6.27L83.27 11.07L71.33 37.19L84.67 11.44L86.1 3.39L81.8 7.74Z" fill="#E6E6E5" fill-opacity="1.000000" fill-rule="evenodd"/>
			<path id="Vector" d="M82.37 10.69L76.09 23.52L69.81 36.34L69.12 35.99L68.44 35.64L75.4 23.17L82.37 10.69Z" fill="#818181" fill-opacity="1.000000" fill-rule="evenodd"/>
			<path id="Vector" d="M65.77 33.42L73.37 37.36C73.76 37.08 74.23 36.94 74.71 36.96C75.19 36.98 75.65 37.16 76.02 37.48C76.38 37.8 76.63 38.23 76.72 38.7C76.81 39.18 76.74 39.67 76.52 40.1C76.3 40.53 75.94 40.87 75.51 41.07C75.07 41.27 74.57 41.32 74.11 41.2C73.64 41.09 73.22 40.82 72.93 40.43C72.63 40.05 72.47 39.58 72.48 39.1L64.88 35.15C64.49 35.44 64.01 35.58 63.53 35.56C63.05 35.54 62.59 35.35 62.22 35.04C61.86 34.72 61.61 34.29 61.52 33.81C61.42 33.34 61.49 32.84 61.72 32.41C61.94 31.98 62.3 31.64 62.74 31.44C63.17 31.24 63.67 31.19 64.14 31.31C64.6 31.42 65.02 31.7 65.32 32.08C65.61 32.46 65.77 32.93 65.77 33.42Z" fill="#333333" fill-opacity="1.000000" fill-rule="evenodd"/>
		</g>
	</g>
	<g filter="url(#filter_187_12021_dd)">
		<path id="Google (GOOGL)" d="M68.19 86.59C67.15 85.08 66.57 83.29 66.57 81.14C66.57 78.99 67.15 77.2 68.19 75.69L69.08 75.69C68.26 76.81 67.61 79.11 67.61 81.14C67.61 83.17 68.26 85.47 69.08 86.59L68.19 86.59ZM29.65 79.5L28.56 79.5C28.19 78.36 27.33 77.65 26.07 77.65C24.52 77.65 23.28 78.87 23.28 81.14C23.28 83.41 24.52 84.63 26.14 84.63C27.62 84.63 28.65 83.65 28.68 82.08L26.38 82.08L26.38 81.14L29.7 81.14L29.7 82.08C29.7 84.24 28.22 85.62 26.14 85.62C23.82 85.62 22.25 83.9 22.25 81.14C22.25 78.38 23.84 76.66 26.07 76.66C27.91 76.66 29.33 77.82 29.65 79.5ZM53 76.78L54.01 76.78L54.01 85.5L53 85.5L53 76.78ZM37 82.27C37 84.29 35.81 85.64 34.03 85.64C32.26 85.64 31.07 84.29 31.07 82.27C31.07 80.22 32.26 78.87 34.03 78.87C35.81 78.87 37 80.22 37 82.27ZM44.16 82.27C44.16 84.29 42.96 85.64 41.19 85.64C39.42 85.64 38.22 84.29 38.22 82.27C38.22 80.22 39.42 78.87 41.19 78.87C42.96 78.87 44.16 80.22 44.16 82.27ZM51.16 85.69C51.16 87.38 49.9 88.09 48.33 88.09C46.87 88.09 46.07 87.47 45.66 86.78L46.46 86.22C46.73 86.58 47.14 87.21 48.33 87.21C49.39 87.21 50.16 86.71 50.16 85.62L50.16 84.29L50.07 84.29C49.85 84.65 49.44 85.4 48.16 85.4C46.58 85.4 45.38 84.24 45.38 82.2C45.38 80.19 46.53 78.87 48.18 78.87C49.46 78.87 49.87 79.66 50.09 80L50.19 80L50.19 78.96L51.16 78.96L51.16 85.69ZM61.2 83.99C60.9 84.98 59.93 85.64 58.6 85.64C56.7 85.64 55.54 84.29 55.54 82.28C55.54 80.27 56.72 78.87 58.49 78.87C59.86 78.87 61.31 79.71 61.31 82.15L61.31 82.57L56.55 82.57C56.6 83.97 57.41 84.74 58.6 84.74C59.38 84.74 59.98 84.4 60.23 83.71L61.2 83.99ZM32.07 82.27C32.07 83.58 32.69 84.74 34.03 84.74C35.38 84.74 35.99 83.58 35.99 82.27C35.99 80.95 35.38 79.78 34.03 79.78C32.69 79.78 32.07 80.95 32.07 82.27ZM39.23 82.27C39.23 83.58 39.84 84.74 41.19 84.74C42.54 84.74 43.15 83.58 43.15 82.27C43.15 80.95 42.54 79.78 41.19 79.78C39.84 79.78 39.23 80.95 39.23 82.27ZM46.39 82.18C46.39 83.54 47.04 84.5 48.3 84.5C49.51 84.5 50.17 83.63 50.17 82.18C50.17 80.77 49.53 79.78 48.3 79.78C47.02 79.78 46.39 80.85 46.39 82.18ZM58.49 79.78C57.34 79.78 56.62 80.68 56.55 81.7L60.28 81.7C60.28 80.59 59.58 79.78 58.49 79.78ZM66.29 90.69C67.33 92.2 67.91 93.99 67.91 96.14C67.91 98.29 67.33 100.08 66.29 101.59L65.4 101.59C66.22 100.47 66.87 98.17 66.87 96.14C66.87 94.11 66.22 91.81 65.4 90.69L66.29 90.69ZM30.1 94.5L29.01 94.5C28.64 93.36 27.78 92.65 26.53 92.65C24.97 92.65 23.73 93.87 23.73 96.14C23.73 98.41 24.97 99.63 26.59 99.63C28.07 99.63 29.1 98.65 29.13 97.08L26.83 97.08L26.83 96.14L30.16 96.14L30.16 97.08C30.16 99.24 28.67 100.62 26.59 100.62C24.28 100.62 22.7 98.9 22.7 96.14C22.7 93.38 24.29 91.66 26.53 91.66C28.37 91.66 29.78 92.82 30.1 94.5ZM35.47 91.66C37.7 91.66 39.32 93.38 39.32 96.14C39.32 98.9 37.7 100.62 35.47 100.62C33.24 100.62 31.62 98.9 31.62 96.14C31.62 93.38 33.24 91.66 35.47 91.66ZM44.61 91.66C46.84 91.66 48.46 93.38 48.46 96.14C48.46 98.9 46.84 100.62 44.61 100.62C42.38 100.62 40.76 98.9 40.76 96.14C40.76 93.38 42.38 91.66 44.61 91.66ZM57.29 94.5L56.2 94.5C55.83 93.36 54.97 92.65 53.71 92.65C52.16 92.65 50.91 93.87 50.91 96.14C50.91 98.41 52.16 99.63 53.78 99.63C55.26 99.63 56.29 98.65 56.32 97.08L54.02 97.08L54.02 96.14L57.34 96.14L57.34 97.08C57.34 99.24 55.86 100.62 53.78 100.62C51.46 100.62 49.89 98.9 49.89 96.14C49.89 93.38 51.47 91.66 53.71 91.66C55.55 91.66 56.97 92.82 57.29 94.5ZM64.26 100.5L59.15 100.5L59.15 91.78L60.2 91.78L60.2 99.57L64.26 99.57L64.26 100.5ZM35.47 99.63C37.06 99.63 38.3 98.41 38.3 96.14C38.3 93.87 37.06 92.65 35.47 92.65C33.89 92.65 32.64 93.87 32.64 96.14C32.64 98.41 33.89 99.63 35.47 99.63ZM44.61 99.63C46.19 99.63 47.44 98.41 47.44 96.14C47.44 93.87 46.19 92.65 44.61 92.65C43.02 92.65 41.78 93.87 41.78 96.14C41.78 98.41 43.02 99.63 44.61 99.63Z" fill="#FFFFFF" fill-opacity="1.000000" fill-rule="evenodd"/>
	</g>
</svg>
