<svg width="97" height="103" viewBox="0 0 97 103" fill="none" xmlns="http://www.w3.org/2000/svg">
<rect x="21.5024" y="24.1279" width="45.9342" height="45.9342" rx="22.9671" fill="#7399C6"/>
<rect x="21.5024" y="24.1279" width="45.9342" height="45.9342" rx="22.9671" stroke="#CDCCCC"/>
<g clip-path="url(#clip0_459_12)">
<path fill-rule="evenodd" clip-rule="evenodd" d="M30 62L59 62L59 33L30 33L30 62Z" fill="#7399C6"/>
<path fill-rule="evenodd" clip-rule="evenodd" d="M55.7559 39.6537L54.736 39.6537L54.736 35.9014L55.6966 35.9014L55.6966 36.3214C55.8162 36.069 56.1162 35.8456 56.5063 35.8171C57.167 35.789 57.6165 36.1533 57.6165 36.9372L57.6165 39.6537L56.5666 39.6537L56.5666 36.8253C56.5666 36.4895 56.5666 36.209 56.3264 36.1533C56.2362 36.1252 56.0863 36.1533 55.9662 36.2371C55.8162 36.3776 55.7559 36.5453 55.7559 36.8253L55.7559 39.6537ZM38.0193 37.7773C38.0193 38.4774 38.0193 39.0374 37.8992 39.3179C37.809 39.4575 37.7188 39.5418 37.5086 39.5418C37.3287 39.5418 37.2086 39.4575 37.1488 39.3175C36.9988 39.0374 36.9988 38.4774 36.9988 37.7773C36.9988 37.1053 36.9988 36.5176 37.1484 36.2371C37.2086 36.0971 37.3287 36.0133 37.5086 36.0133C37.7188 36.0133 37.809 36.0971 37.8992 36.2371C38.0492 36.5172 38.0193 37.1049 38.0193 37.7773ZM38.4089 36.1533C38.1688 35.9571 37.8688 35.8171 37.5086 35.8171C37.1488 35.8171 36.8787 35.9575 36.6087 36.1533C36.1882 36.4895 35.9181 37.1053 35.9181 37.7773C35.9181 38.4774 36.1882 39.0655 36.6087 39.4018C36.8787 39.5975 37.1488 39.7375 37.5086 39.7375C37.8688 39.7375 38.1692 39.5975 38.4094 39.4018C38.8594 39.0655 39.0995 38.4774 39.0995 37.7773C39.0995 37.1053 38.8589 36.4895 38.4089 36.1533ZM48.8834 41.0819L48.8834 42.0897L48.6736 42.0897C48.5535 41.6696 48.3732 41.3058 47.8929 41.2777C47.5929 41.25 47.3228 41.4182 47.2929 41.6696C47.263 41.922 47.3527 42.1454 47.8929 42.4264C48.5834 42.7898 49.1235 42.9579 49.1235 43.7141C49.1235 44.5261 48.3732 44.9185 47.7429 44.9185L46.5421 44.9185L46.5421 43.5184L46.7523 43.5184C46.9028 44.2461 47.1425 44.6943 47.713 44.7223C48.0732 44.7223 48.3428 44.5261 48.3428 44.1623C48.3428 43.798 48.1031 43.5741 47.5331 43.266C46.9028 42.9021 46.5126 42.6778 46.5126 42.174C46.5126 41.502 47.0229 41.0819 47.833 41.0819L48.8834 41.0819ZM50.2038 39.6537L50.2038 36.9372C50.2038 36.1533 49.7538 35.789 49.0936 35.8171C48.6432 35.8452 48.3732 36.1252 48.2531 36.349C48.1031 35.9571 47.7728 35.789 47.2925 35.8171C46.9028 35.8452 46.6024 36.069 46.4823 36.3214L46.4823 35.9014L45.552 35.9014L45.552 39.6532L46.5725 39.6532L46.5725 36.8257C46.5725 36.5457 46.6024 36.3776 46.7827 36.2376C46.9028 36.1538 47.0229 36.1257 47.1126 36.1538C47.3527 36.2095 47.3527 36.49 47.3527 36.8257L47.3527 39.6541L48.3732 39.6541L48.3732 36.7972C48.3732 36.5448 48.433 36.3767 48.5834 36.2367C48.7035 36.1528 48.8236 36.1248 48.9133 36.1528C49.1535 36.2086 49.1834 36.4891 49.1834 36.8248L49.1834 39.6532L50.2038 39.6532L50.2038 39.6537ZM39.7896 39.6537L40.84 39.6537L40.84 35.117L39.7896 35.117L39.7896 39.6537ZM43.3308 36.2095C43.541 36.4895 43.541 37.161 43.541 37.6935C43.541 38.2535 43.5714 38.9817 43.3312 39.2894C43.2411 39.4018 43.1509 39.4575 43.0009 39.4575C42.7911 39.4575 42.671 39.2336 42.6112 38.8693C42.5809 38.5336 42.5809 38.1135 42.5809 37.6654C42.5809 36.9096 42.6407 36.069 43.0313 36.069C43.1808 36.069 43.2406 36.1252 43.3308 36.2095ZM44.5619 39.6537L44.5619 35.117L43.5111 35.117L43.5111 36.1814C43.4214 35.9852 43.2112 35.8452 42.9112 35.8452C42.1608 35.8452 41.5609 36.5733 41.5305 37.6935C41.5006 38.4497 41.7707 39.7099 42.821 39.7099C43.2411 39.7099 43.4812 39.4856 43.5714 39.2894L43.5714 39.6537L44.5619 39.6537ZM52.725 37.4134L52.3947 37.6092C52.0648 37.8054 52.005 38.0578 51.9746 38.3374C51.9447 38.5617 51.9447 38.7574 51.9746 39.0936C52.0045 39.4018 52.2148 39.4575 52.3947 39.4018C52.6049 39.3175 52.725 38.9536 52.725 38.5617L52.725 37.4134ZM53.3249 36.0133C53.5954 36.1538 53.7753 36.3771 53.7753 36.8815L53.7753 39.6537L52.7848 39.6537L52.7848 39.2336C52.6652 39.5418 52.3348 39.7375 51.8844 39.7375C51.5247 39.7375 50.8944 39.5699 50.8944 38.7017C50.8944 37.8892 51.4644 37.7216 52.0951 37.4692C52.6652 37.2453 52.725 37.2172 52.725 36.9934L52.725 36.3771C52.725 36.1252 52.575 36.0133 52.2746 36.0133C52.1549 36.0414 51.9447 36.0971 51.9447 36.2371C51.9143 36.4052 52.1246 36.4052 52.1549 36.6572C52.1849 37.0496 51.8545 37.1891 51.5546 37.1615C51.3443 37.1615 51.1042 37.0496 51.0742 36.7415C51.0443 36.2371 51.6443 35.8171 52.4848 35.8171C52.875 35.8171 53.1151 35.9014 53.3249 36.0133ZM37.8688 42.6498L37.5389 42.846C37.2086 43.0422 37.1488 43.2941 37.1184 43.5741C37.089 43.798 37.089 44.0223 37.1184 44.3299C37.1184 44.6662 37.3287 44.7223 37.5086 44.6381C37.7487 44.5542 37.8688 44.2185 37.8688 43.798L37.8688 42.6498ZM38.4692 41.2496C38.7393 41.4177 38.8893 41.6139 38.8893 42.1178L38.8893 44.9181L37.9295 44.9181L37.9295 44.498C37.8095 44.7781 37.4796 44.9738 37.0292 44.9738C36.639 44.9738 36.0387 44.8343 36.0387 43.9661C36.0387 43.1541 36.6091 42.986 37.2091 42.7336C37.8095 42.4821 37.8693 42.454 37.8693 42.2578L37.8693 41.6415C37.8693 41.362 37.7193 41.25 37.4193 41.2777C37.2992 41.2777 37.0894 41.3339 37.0894 41.4739C37.0591 41.6701 37.2693 41.6701 37.2992 41.922C37.3292 42.2859 36.9993 42.4259 36.6989 42.4259C36.4891 42.3978 36.2489 42.2859 36.2185 41.9778C36.1886 41.502 36.789 41.0815 37.6291 41.0815C38.0197 41.0815 38.2594 41.1377 38.4697 41.25L38.4692 41.2496ZM45.7324 42.2021C45.7324 41.4182 45.2819 41.0258 44.6217 41.0819C44.2919 41.1096 44.0214 41.2496 43.8714 41.4458L43.8714 40.3538L42.8505 40.3538L42.8505 42.9302C42.8505 43.8818 42.13 44.7781 41.4095 44.75C40.8998 44.75 40.7797 44.3861 40.7194 43.9942C40.6297 43.4341 40.6297 42.7902 40.6895 42.0897C40.7498 41.642 40.8699 41.2777 41.2301 41.2777C41.5002 41.2777 41.5301 41.4458 41.41 41.5577C41.2899 41.6982 41.11 41.8378 41.1997 42.1459C41.2899 42.4821 41.8599 42.5378 42.1305 42.2863C42.3403 42.062 42.3104 41.6977 42.1604 41.4739C41.98 41.1939 41.6801 41.0819 41.2301 41.0819C40.6596 41.0819 39.5794 41.5577 39.5794 43.0698C39.5794 44.6943 40.6895 44.9743 41.3198 44.9743C42.0403 44.9743 42.6701 44.3861 42.8505 43.9099L42.8505 44.9181L43.8709 44.9181L43.8709 42.0897C43.8709 41.8101 43.9307 41.642 44.0812 41.5015C44.2012 41.4177 44.3512 41.3896 44.4414 41.4177C44.6816 41.4739 44.6816 41.7539 44.6816 42.0897L44.6816 44.9181L45.7319 44.9181L45.7324 42.2021ZM35.228 35.0332L35.228 36.6295L35.0178 36.6295C34.8379 35.8456 34.4477 35.257 33.9076 35.2294C33.5474 35.2013 33.3371 35.397 33.1572 35.6771C32.9773 36.0133 32.8872 36.7134 32.8872 37.553C32.8872 38.3374 32.9171 38.9255 33.0072 39.3456C33.0671 39.5418 33.217 39.8494 33.6072 39.8494C33.8174 39.8494 33.9674 39.7937 34.0576 39.6818C34.2071 39.5137 34.2375 39.1775 34.2375 38.9536L34.2375 38.1973C34.2375 37.9173 34.1478 37.7497 33.9973 37.6654C33.8777 37.6092 33.6974 37.6092 33.6076 37.5811L33.6076 37.3853L35.2878 37.3853L35.2878 41.3901L35.078 41.3901C34.9879 41.0819 34.928 40.8576 34.7776 40.6057C34.6281 40.3538 34.3576 40.0737 33.9076 40.0737C33.4273 40.0456 33.0671 40.3257 33.0671 40.7457C33.0671 41.3058 33.4273 41.4458 34.0875 41.782C34.7178 42.1178 35.5284 42.3983 35.5284 43.3779C35.5284 44.3299 34.6575 44.9185 33.6674 44.9185L32.077 44.9185L32.077 42.986L32.2868 42.986C32.5568 44.4423 33.217 44.6943 33.6674 44.6943C34.2375 44.6943 34.5075 44.358 34.5075 43.8823C34.4776 43.266 34.0272 43.0422 33.3974 42.734C32.497 42.2583 32.077 42.034 32.077 41.25C32.1069 40.5776 32.6769 40.158 33.3072 39.9899C31.9868 39.8494 31.5967 38.7298 31.6266 37.5254C31.6266 36.3214 32.3769 35.0332 33.8473 35.0332L35.228 35.0332Z" fill="white"/>
</g>
<g filter="url(#filter0_d_459_12)">
<path d="M22.9949 55.2288L23.6062 54.4472C26.9586 50.1445 31.1292 44.7916 29.4182 37.6186L27.7878 30.7841L26.5817 31.0718C22.227 32.1106 18.4897 30.9927 17.8883 28.4716L15.4761 29.047C16.0775 31.5681 13.2472 34.2527 8.89247 35.2914L7.68637 35.5792L9.31669 42.4136C11.0278 49.5866 17.1657 52.4805 22.0976 54.8059L22.9949 55.2288Z" fill="#D84025"/>
</g>
<g filter="url(#filter1_d_459_12)">
<path d="M8.8924 35.2914C13.2471 34.2527 16.0774 31.5681 15.476 29.047L16.6821 28.7593L22.9959 55.2274L22.9947 55.2288L22.0975 54.8058C17.1657 52.4805 11.0277 49.5867 9.31661 42.4136L7.68629 35.5791L8.8924 35.2914Z" fill="#A13023"/>
</g>
<g clip-path="url(#clip1_459_12)">
<g filter="url(#filter2_d_459_12)">
<path fill-rule="evenodd" clip-rule="evenodd" d="M54.4435 22.5884C54.7527 23.844 55.0606 25.0985 55.3672 26.3521C52.543 27.9683 48.977 28.8709 44.4976 28.8724V23.689L54.4435 22.5884Z" fill="#535353"/>
<path fill-rule="evenodd" clip-rule="evenodd" d="M34.5598 22.5884C34.2464 23.844 33.9358 25.0985 33.6279 26.3521C36.4582 27.9683 40.016 28.8709 44.4975 28.8724V23.689L34.5598 22.5884Z" fill="#676767"/>
<path fill-rule="evenodd" clip-rule="evenodd" d="M42.2743 9.0759C35.8217 3.36948 48.0228 3.91021 51.4613 1.01904C51.704 1.26047 51.8479 1.55073 51.8752 1.85375C51.9024 2.15677 51.8117 2.45917 51.6144 2.72338C53.1408 3.67161 55.8243 2.37786 57.2793 4.1953C55.6304 4.12403 54.6264 4.61829 54.0142 5.27988C58.5363 4.75618 56.767 7.94329 60.6321 8.12302C57.7527 9.34239 50.9899 7.00126 46.8086 9.8506C44.921 9.79792 44.1619 9.13323 42.2743 9.0759Z" fill="#A23023"/>
<path fill-rule="evenodd" clip-rule="evenodd" d="M60.6302 8.07033C57.78 9.32971 51.0667 6.93006 46.916 9.85061C46.1437 9.81778 45.3837 9.68413 44.6675 9.45517C50.0964 4.66063 54.9136 8.9168 60.6322 8.07033H60.6302Z" fill="#1A1A1A"/>
<path fill-rule="evenodd" clip-rule="evenodd" d="M42.6515 8.59114C43.3966 8.64919 44.1275 8.78313 44.8236 8.9892L44.8728 9.0014C44.6296 8.72992 44.3906 8.45845 44.1556 8.18697C42.0203 6.3705 46.5142 4.22155 49.2397 3.78078C50.2213 4.41524 51.7336 4.11479 52.5082 4.56013C51.8401 5.10004 51.4262 6.03344 50.7561 6.57335C58.4079 5.79857 54.9222 7.64096 58.5943 7.99785C58.3472 7.87286 58.1227 7.72472 57.9263 7.55708C56.6968 6.51234 56.8792 5.37152 54.1988 5.67655L52.707 5.84585C52.9706 5.57335 53.2363 5.30136 53.5041 5.02988C54.1084 4.39931 55.0179 3.9679 56.041 3.82653C55.8012 3.72209 55.537 3.65224 55.2623 3.62064C55.0005 3.59114 54.7362 3.57534 54.4713 3.57336C53.2787 3.552 52.1414 3.62216 51.1926 3.05175L50.8401 2.8367C50.9098 2.74214 50.9815 2.64911 51.045 2.55607C51.2036 2.34726 51.2703 2.1067 51.2356 1.86823C50.0061 2.56217 48.3052 3.02887 46.8482 3.41626C45.6945 3.7213 44.4835 4.02633 43.3892 4.40609C42.6166 4.67757 41.7498 5.05429 41.34 5.56979C40.5961 6.53064 41.7457 7.77975 42.6515 8.59114Z" fill="#EF4123"/>
<path fill-rule="evenodd" clip-rule="evenodd" d="M43.726 8.71744C44.1138 8.79334 44.4961 8.88402 44.8716 8.98912L44.9206 9.0014C44.6783 8.72818 44.4401 8.45496 44.2059 8.18175C42.0781 6.35365 46.5563 4.19094 49.2722 3.74734C50.2504 4.38587 51.7574 4.08349 52.5293 4.53169C51.8636 5.07506 51.4511 6.01443 50.7833 6.55779C58.4083 5.77805 54.9348 7.63224 58.5941 7.99142C56.6889 7.61843 56.7236 6.27076 55.6413 5.94689C54.5591 5.62302 53.1296 6.369 52.0392 6.04513C52.1535 5.42041 52.6702 4.91235 53.4216 4.13721C52.3782 3.66292 49.746 4.08656 50.2932 2.71741C47.951 4.65909 40.4057 3.85479 43.2686 8.55013L43.726 8.71744Z" fill="#D03927"/>
<path d="M44.4128 12.7378C46.3357 12.7378 47.8945 11.7113 47.8945 10.445C47.8945 9.17875 46.3357 8.15222 44.4128 8.15222C42.4899 8.15222 40.9312 9.17875 40.9312 10.445C40.9312 11.7113 42.4899 12.7378 44.4128 12.7378Z" fill="#CDCCCC"/>
<path fill-rule="evenodd" clip-rule="evenodd" d="M44.4279 10.5299C48.7929 10.5299 52.5226 12.2605 54.0145 14.7017C54.8158 14.959 55.3671 15.4889 55.3671 16.0954C55.363 16.297 55.3022 16.4958 55.1885 16.6786C55.0748 16.8615 54.9108 17.0244 54.7072 17.1567C54.6334 20.7267 50.0594 23.6074 44.4279 23.6074C38.7964 23.6074 34.2388 20.7328 34.1527 17.1721C33.94 17.0393 33.7679 16.8739 33.648 16.6871C33.5282 16.5003 33.4634 16.2964 33.458 16.0893C33.458 15.4767 34.0277 14.9361 34.8474 14.6834C36.3455 12.2483 40.069 10.5299 44.4279 10.5299Z" fill="#8B8A8A"/>
<path fill-rule="evenodd" clip-rule="evenodd" d="M42.7993 20.2107C46.6373 20.2107 49.7626 18.2312 49.7626 15.7949C49.7626 13.3586 46.6312 11.3792 42.7993 11.3792C38.9674 11.3792 35.8359 13.3586 35.8359 15.7949C35.8359 18.2312 38.9592 20.2107 42.7993 20.2107Z" fill="#989898"/>
<path fill-rule="evenodd" clip-rule="evenodd" d="M40.6764 15.2854C42.1273 15.2854 43.3089 14.5219 43.3089 13.587C43.3089 12.6521 42.1273 11.8886 40.6764 11.8886C39.2256 11.8886 38.0439 12.6506 38.0439 13.587C38.0439 14.5235 39.2379 15.2854 40.6764 15.2854Z" fill="#ACACAC"/>
<path fill-rule="evenodd" clip-rule="evenodd" d="M44.4976 14.2665H44.398C43.0095 14.2612 41.6314 14.4487 40.3311 14.8201L32.7788 16.9646V23.3548C36.0832 26.2793 39.9366 28.5696 44.4976 30.0613V14.2665Z" fill="#CDCCCC"/>
<path fill-rule="evenodd" clip-rule="evenodd" d="M42.7991 15.2854C42.1973 15.3616 41.6069 15.484 41.0364 15.651L39.5886 16.0678V26.7622C40.6103 27.3513 41.6823 27.8861 42.7971 28.3629V15.2854H42.7991ZM38.9088 16.2638L36.6568 16.9125V24.8458C37.3687 25.37 38.1187 25.8771 38.9088 26.3593V16.2638ZM35.979 17.1069L34.4771 17.5394V23.0865C34.9583 23.5096 35.459 23.9244 35.979 24.3309V17.1069Z" fill="#333333"/>
<path fill-rule="evenodd" clip-rule="evenodd" d="M44.4976 14.2665H44.5972C45.9823 14.2621 47.3568 14.4496 48.6539 14.82L56.2164 16.963V23.3532C52.91 26.2793 49.0566 28.5696 44.4976 30.0613V14.2665Z" fill="#B4B4B4"/>
<path fill-rule="evenodd" clip-rule="evenodd" d="M46.1958 15.2854C46.8099 15.3618 47.4126 15.4842 47.9949 15.651L49.4726 16.0678V26.7622C48.4294 27.351 47.3354 27.8857 46.1978 28.3629V15.2854H46.1958ZM50.1665 16.2638L52.4629 16.9125V24.8458C51.7383 25.37 50.9729 25.8771 50.1665 26.3593V16.2638ZM53.1567 17.1069L54.6877 17.5394V23.0865C54.1978 23.5096 53.6875 23.9244 53.1567 24.3309V17.1069Z" fill="#1A1A1A"/>
<path fill-rule="evenodd" clip-rule="evenodd" d="M43.5342 8.66174C44.1861 8.66174 44.4987 8.96662 44.2334 9.34109C44.0654 9.54109 43.8244 9.70857 43.5335 9.82751C43.2426 9.94646 42.9115 10.0129 42.5719 10.0204C41.922 10.0204 41.6095 9.71696 41.8747 9.34109C42.0429 9.14147 42.2836 8.97426 42.574 8.85535C42.8645 8.73645 43.195 8.6698 43.5342 8.66174Z" fill="#E3E3E3"/>
</g>
</g>
<g clip-path="url(#clip2_459_12)">
<g filter="url(#filter3_d_459_12)">
<path fill-rule="evenodd" clip-rule="evenodd" d="M60.0088 47.2835L60.1448 47.3539C60.299 47.4366 60.4706 47.4817 60.6455 47.4855C60.8205 47.4893 60.9939 47.4517 61.1515 47.3757C61.3113 47.3045 61.452 47.1966 61.5623 47.0608C61.6726 46.925 61.7493 46.7651 61.7862 46.5942C62.0988 45.2279 62.7241 43.5585 63.6136 41.8343C64.5031 40.1101 65.502 38.6345 66.4275 37.5887C66.5434 37.4584 66.6281 37.3033 66.6749 37.1353C66.7217 36.9673 66.7295 36.7908 66.6977 36.6193C66.6659 36.4478 66.5953 36.2859 66.4913 36.1459C66.3873 36.0058 66.2526 35.8914 66.0976 35.8114L65.9601 35.7411L66.526 34.6469L69.1835 36.0162L71.841 37.384L71.2751 38.4782L71.1391 38.4078C70.9834 38.3264 70.8111 38.2819 70.6354 38.2777C70.4598 38.2736 70.2855 38.31 70.1262 38.3841C69.9668 38.4581 69.8267 38.5679 69.7166 38.7049C69.6066 38.8418 69.5295 39.0023 69.4914 39.1738C69.1788 40.5384 68.5535 42.2095 67.664 43.9321C66.7745 45.6547 65.7756 47.1319 64.8502 48.1776C64.7342 48.3081 64.6496 48.4633 64.6027 48.6314C64.5559 48.7996 64.5481 48.9762 64.5799 49.1478C64.6117 49.3194 64.6823 49.4814 64.7863 49.6216C64.8903 49.7618 65.025 49.8763 65.18 49.9565L65.3176 50.0269L64.7517 51.1211L62.0941 49.7533L59.4429 48.3793L60.0088 47.2835Z" fill="#CA3927"/>
<path fill-rule="evenodd" clip-rule="evenodd" d="M66.7735 38.234C67.2118 38.4627 66.6031 40.5413 65.412 42.8737C64.221 45.2061 62.8998 46.9135 62.4692 46.6848C62.0386 46.4561 62.6396 44.3775 63.8306 42.0451C65.0217 39.7127 66.3351 38.0053 66.7735 38.234Z" fill="#F04B23"/>
<path fill-rule="evenodd" clip-rule="evenodd" d="M86.1073 3.39673L84.6829 11.4454L71.396 37.1944L67.0854 34.9697L80.3724 9.22068L86.1073 3.39673Z" fill="#D1D2D2"/>
<path fill-rule="evenodd" clip-rule="evenodd" d="M81.8078 7.74434L84.07 6.27113L83.2745 11.0728L71.3315 37.1944L84.6768 11.4454L86.1074 3.39673L81.8078 7.74434Z" fill="#E6E6E5"/>
<path fill-rule="evenodd" clip-rule="evenodd" d="M82.371 10.6997L76.0931 23.5217L69.8136 36.3452L69.1282 35.9964L68.4443 35.6477L75.4077 23.1745L82.371 10.6997Z" fill="#818181"/>
<path fill-rule="evenodd" clip-rule="evenodd" d="M65.7724 33.4233L73.372 37.3669C73.7628 37.084 74.2369 36.9418 74.7179 36.9631C75.1989 36.9844 75.6587 37.1679 76.0233 37.4842C76.3878 37.8005 76.6358 38.231 76.7273 38.7063C76.8188 39.1817 76.7484 39.6742 76.5275 40.1044C76.3066 40.5346 75.9481 40.8774 75.5097 41.0776C75.0714 41.2779 74.5787 41.3238 74.1113 41.208C73.6438 41.0922 73.2287 40.8214 72.933 40.4394C72.6372 40.0573 72.478 39.5862 72.4811 39.102L64.8815 35.1585C64.4903 35.4421 64.0154 35.5849 63.5336 35.5639C63.0518 35.5428 62.591 35.3591 62.2257 35.0425C61.8604 34.7258 61.6119 34.2946 61.5201 33.8184C61.4284 33.3423 61.4989 32.8489 61.7201 32.4179C61.9414 31.987 62.3006 31.6436 62.7398 31.4431C63.1789 31.2426 63.6724 31.1967 64.1407 31.3129C64.609 31.4291 65.0246 31.7005 65.3207 32.0834C65.6167 32.4663 65.7759 32.9383 65.7724 33.4233Z" fill="#333333"/>
</g>
</g>
<g filter="url(#filter4_d_459_12)">
<path d="M16.0926 77.76L15.2166 78.072C15.0806 77.688 14.8806 77.344 14.6166 77.04C14.4166 76.832 14.2246 76.664 14.0406 76.536C13.5446 76.192 12.9326 76.02 12.2046 76.02C11.5326 76.02 10.9406 76.184 10.4286 76.512C9.89261 76.848 9.48461 77.288 9.20461 77.832C8.91661 78.376 8.77261 78.968 8.77261 79.608C8.77261 80.616 9.07661 81.468 9.68461 82.164C10.3166 82.876 11.1606 83.232 12.2166 83.232C13.0166 83.232 13.7126 83.004 14.3046 82.548C14.9206 82.076 15.2526 81.432 15.3006 80.616H11.6526V79.764H16.2846V80.1C16.2846 81.22 15.9246 82.16 15.2046 82.92C14.4526 83.696 13.4526 84.084 12.2046 84.084C10.8766 84.084 9.81261 83.66 9.01261 82.812C8.22061 81.972 7.82461 80.92 7.82461 79.656C7.82461 78.824 8.01661 78.064 8.40061 77.376C8.78461 76.688 9.31261 76.148 9.98461 75.756C10.6486 75.364 11.3966 75.168 12.2286 75.168C13.2846 75.168 14.1406 75.432 14.7966 75.96C15.4126 76.44 15.8446 77.04 16.0926 77.76ZM20.4108 84.108C19.8588 84.108 19.3428 83.972 18.8628 83.7C18.3908 83.42 18.0228 83.048 17.7588 82.584C17.4868 82.12 17.3508 81.604 17.3508 81.036C17.3508 80.148 17.6468 79.412 18.2388 78.828C18.8308 78.228 19.5628 77.928 20.4348 77.928C21.2828 77.912 22.0108 78.212 22.6188 78.828C23.2348 79.436 23.5348 80.16 23.5188 81C23.5348 81.864 23.2348 82.604 22.6188 83.22C22.0028 83.828 21.2668 84.124 20.4108 84.108ZM20.4348 83.328C21.0588 83.328 21.5828 83.104 22.0068 82.656C22.4148 82.208 22.6188 81.668 22.6188 81.036C22.6188 80.396 22.4108 79.844 21.9948 79.38C21.5708 78.924 21.0428 78.696 20.4108 78.696C19.7788 78.696 19.2588 78.92 18.8508 79.368C18.4428 79.816 18.2388 80.36 18.2388 81C18.2228 81.632 18.4268 82.18 18.8508 82.644C19.2828 83.108 19.8108 83.336 20.4348 83.328ZM25.0485 84V74.892H25.9245V84H25.0485ZM27.4641 81.012C27.4641 80.212 27.7201 79.504 28.2321 78.888C28.7521 78.248 29.4281 77.928 30.2601 77.928C30.8121 77.928 31.2841 78.068 31.6761 78.348C32.0121 78.588 32.3121 78.9 32.5761 79.284V74.904H33.4401V84H32.5881V82.728C32.0441 83.632 31.2681 84.084 30.2601 84.084C29.4281 84.084 28.7481 83.776 28.2201 83.16C27.7161 82.552 27.4641 81.836 27.4641 81.012ZM30.4401 83.328C31.0401 83.336 31.5521 83.104 31.9761 82.632C32.4001 82.16 32.6041 81.616 32.5881 81C32.5881 80.608 32.4961 80.24 32.3121 79.896C32.1281 79.544 31.8721 79.256 31.5441 79.032C31.2081 78.816 30.8401 78.708 30.4401 78.708C29.8001 78.708 29.2961 78.928 28.9281 79.368C28.5441 79.816 28.3521 80.372 28.3521 81.036C28.3521 81.908 28.6761 82.564 29.3241 83.004C29.6521 83.22 30.0241 83.328 30.4401 83.328ZM40.3278 84H39.4758V80.496C39.4758 79.984 39.3478 79.556 39.0918 79.212C38.8278 78.884 38.4438 78.72 37.9398 78.72C37.4278 78.72 37.0238 78.904 36.7278 79.272C36.4318 79.64 36.2838 80.084 36.2838 80.604V84H35.4078V78.036H36.2598V79.068C36.5238 78.676 36.8078 78.388 37.1118 78.204C37.4158 78.02 37.7758 77.928 38.1918 77.928C39.0958 77.928 39.7318 78.328 40.0998 79.128C40.6038 78.328 41.3038 77.928 42.1998 77.928C42.8958 77.928 43.4398 78.148 43.8318 78.588C44.2078 79.028 44.3958 79.604 44.3958 80.316V84H43.5318V80.532C43.5318 79.988 43.4038 79.552 43.1478 79.224C42.8838 78.888 42.4958 78.72 41.9838 78.72C41.4878 78.72 41.0878 78.9 40.7838 79.26C40.4798 79.612 40.3278 80.048 40.3278 80.568V84ZM48.2385 80.556H49.8945V80.16C49.8945 79.192 49.3865 78.708 48.3705 78.708C47.8825 78.708 47.5065 78.84 47.2425 79.104C47.0025 79.344 46.8585 79.616 46.8105 79.92L45.9705 79.74C45.9785 79.572 46.0585 79.36 46.2105 79.104C46.3625 78.848 46.5625 78.62 46.8105 78.42C47.2345 78.092 47.7625 77.928 48.3945 77.928C49.4825 77.928 50.2065 78.34 50.5665 79.164C50.6865 79.444 50.7465 79.772 50.7465 80.148V81.828C50.7465 82.804 50.7785 83.528 50.8425 84H49.9785C49.9225 83.696 49.8945 83.348 49.8945 82.956C49.3905 83.724 48.7185 84.108 47.8785 84.108C47.2785 84.108 46.7985 83.94 46.4385 83.604C46.0625 83.276 45.8745 82.856 45.8745 82.344V82.284C45.8745 81.692 46.1105 81.256 46.5825 80.976C47.0625 80.696 47.6145 80.556 48.2385 80.556ZM49.8945 81.48V81.276H48.2265C47.8585 81.276 47.5345 81.344 47.2545 81.48C46.9185 81.624 46.7505 81.888 46.7505 82.272C46.7505 82.6 46.8745 82.86 47.1225 83.052C47.3625 83.244 47.6665 83.34 48.0345 83.34C48.5545 83.34 48.9985 83.164 49.3665 82.812C49.7185 82.476 49.8945 82.032 49.8945 81.48ZM57.8181 84H56.9421V80.532C56.9421 79.98 56.8021 79.54 56.5221 79.212C56.2421 78.884 55.8341 78.72 55.2981 78.72C54.7781 78.72 54.3501 78.9 54.0141 79.26C53.6861 79.628 53.5221 80.076 53.5221 80.604V84H52.6461V78.036H53.4981V79.128C53.9781 78.328 54.6661 77.928 55.5621 77.928C56.2661 77.928 56.8221 78.144 57.2301 78.576C57.6221 79.032 57.8181 79.612 57.8181 80.316V84ZM65.4817 84.084C64.6337 84.084 63.9217 83.828 63.3457 83.316C62.7857 82.828 62.4657 82.26 62.3857 81.612L63.2497 81.372C63.3457 81.884 63.6097 82.32 64.0417 82.68C64.4657 83.04 64.9457 83.22 65.4817 83.22C66.0177 83.22 66.4657 83.092 66.8257 82.836C67.2337 82.556 67.4377 82.152 67.4377 81.624C67.4377 81.08 67.1937 80.664 66.7057 80.376C66.4817 80.24 66.2057 80.14 65.8777 80.076L64.7257 79.848C64.4937 79.8 64.2377 79.716 63.9577 79.596C63.6697 79.46 63.4297 79.296 63.2377 79.104C62.8297 78.704 62.6257 78.2 62.6257 77.592C62.6257 77.112 62.7577 76.684 63.0217 76.308C63.2777 75.94 63.6177 75.652 64.0417 75.444C64.4577 75.252 64.9097 75.156 65.3977 75.156C66.2537 75.156 66.9217 75.368 67.4017 75.792C67.8897 76.216 68.1857 76.704 68.2897 77.256L67.4497 77.52C67.3617 77.128 67.1457 76.78 66.8017 76.476C66.4657 76.164 65.9937 76.008 65.3857 76.008C64.9057 75.992 64.4777 76.136 64.1017 76.44C63.7257 76.744 63.5417 77.116 63.5497 77.556C63.5497 77.9 63.6577 78.196 63.8737 78.444C64.0897 78.692 64.4057 78.856 64.8217 78.936L65.9257 79.152C66.6857 79.296 67.2537 79.552 67.6297 79.92C67.8857 80.152 68.0777 80.42 68.2057 80.724C68.3257 81.02 68.3857 81.288 68.3857 81.528C68.3937 82.288 68.1177 82.908 67.5577 83.388C66.9977 83.868 66.3057 84.1 65.4817 84.084ZM71.9339 80.556H73.5899V80.16C73.5899 79.192 73.0819 78.708 72.0659 78.708C71.5779 78.708 71.2019 78.84 70.9379 79.104C70.6979 79.344 70.5539 79.616 70.5059 79.92L69.6659 79.74C69.6739 79.572 69.7539 79.36 69.9059 79.104C70.0579 78.848 70.2579 78.62 70.5059 78.42C70.9299 78.092 71.4579 77.928 72.0899 77.928C73.1779 77.928 73.9019 78.34 74.2619 79.164C74.3819 79.444 74.4419 79.772 74.4419 80.148V81.828C74.4419 82.804 74.4739 83.528 74.5379 84H73.6739C73.6179 83.696 73.5899 83.348 73.5899 82.956C73.0859 83.724 72.4139 84.108 71.5739 84.108C70.9739 84.108 70.4939 83.94 70.1339 83.604C69.7579 83.276 69.5699 82.856 69.5699 82.344V82.284C69.5699 81.692 69.8059 81.256 70.2779 80.976C70.7579 80.696 71.3099 80.556 71.9339 80.556ZM73.5899 81.48V81.276H71.9219C71.5539 81.276 71.2299 81.344 70.9499 81.48C70.6139 81.624 70.4459 81.888 70.4459 82.272C70.4459 82.6 70.5699 82.86 70.8179 83.052C71.0579 83.244 71.3619 83.34 71.7299 83.34C72.2499 83.34 72.6939 83.164 73.0619 82.812C73.4139 82.476 73.5899 82.032 73.5899 81.48ZM76.7974 80.988C76.7974 81.884 77.1334 82.552 77.8054 82.992C78.1334 83.216 78.5174 83.328 78.9574 83.328C79.4374 83.328 79.8454 83.204 80.1814 82.956C80.3014 82.868 80.4254 82.748 80.5534 82.596C80.7294 82.364 80.8614 82.132 80.9494 81.9L81.7534 82.164C81.6174 82.644 81.3134 83.076 80.8414 83.46C80.3294 83.892 79.6974 84.108 78.9454 84.108C78.0894 84.124 77.3654 83.836 76.7734 83.244C76.1894 82.652 75.9014 81.916 75.9094 81.036C75.9094 80.46 76.0494 79.928 76.3294 79.44C76.6094 78.96 76.9814 78.588 77.4454 78.324C77.9094 78.06 78.4214 77.928 78.9814 77.928C79.6534 77.928 80.2454 78.112 80.7574 78.48C81.2774 78.872 81.5974 79.324 81.7174 79.836L80.9254 80.1C80.8374 79.78 80.6214 79.468 80.2774 79.164C79.9414 78.86 79.5014 78.708 78.9574 78.708C78.3334 78.708 77.8174 78.928 77.4094 79.368C77.0014 79.816 76.7974 80.356 76.7974 80.988ZM88.3806 84H87.5046V80.532C87.5046 79.98 87.3646 79.54 87.0846 79.212C86.8046 78.884 86.3966 78.72 85.8606 78.72C85.3406 78.72 84.9126 78.9 84.5766 79.26C84.2486 79.628 84.0846 80.076 84.0846 80.604V84H83.2086V74.904H84.0846V79.104C84.5486 78.32 85.2286 77.928 86.1246 77.928C86.8286 77.928 87.3846 78.144 87.7926 78.576C88.1846 79.032 88.3806 79.612 88.3806 80.316V84ZM94.211 82.308C94.211 82.844 94.007 83.272 93.599 83.592C93.191 83.928 92.691 84.096 92.099 84.096C91.227 84.096 90.591 83.808 90.191 83.232C89.991 82.96 89.871 82.656 89.831 82.32L90.623 82.116C90.679 82.444 90.827 82.732 91.067 82.98C91.315 83.22 91.655 83.34 92.087 83.34C92.415 83.34 92.707 83.248 92.963 83.064C93.203 82.896 93.323 82.66 93.323 82.356C93.323 82.116 93.227 81.924 93.035 81.78C92.859 81.636 92.631 81.532 92.351 81.468L91.439 81.264C90.447 81.048 89.951 80.528 89.951 79.704C89.951 79.088 90.199 78.628 90.695 78.324C91.119 78.06 91.547 77.928 91.979 77.928C92.795 77.936 93.391 78.2 93.767 78.72C93.951 78.984 94.071 79.252 94.127 79.524L93.335 79.752C93.279 79.52 93.163 79.296 92.987 79.08C92.771 78.824 92.435 78.696 91.979 78.696C91.651 78.696 91.379 78.788 91.163 78.972C90.939 79.148 90.827 79.372 90.827 79.644C90.827 80.044 91.115 80.316 91.691 80.46L92.651 80.676C93.091 80.78 93.459 80.968 93.755 81.24C94.059 81.512 94.211 81.868 94.211 82.308ZM39.852 93.004V92.716C39.852 91.564 40.132 90.516 40.692 89.572C41.244 88.62 42.024 87.856 43.032 87.28L43.392 87.844C41.624 88.98 40.74 90.608 40.74 92.728V92.992C40.74 95.096 41.624 96.72 43.392 97.864L43.032 98.452C42.024 97.868 41.244 97.1 40.692 96.148C40.132 95.204 39.852 94.156 39.852 93.004ZM51.202 90.76L50.326 91.072C50.19 90.688 49.99 90.344 49.726 90.04C49.526 89.832 49.334 89.664 49.15 89.536C48.654 89.192 48.042 89.02 47.314 89.02C46.642 89.02 46.05 89.184 45.538 89.512C45.002 89.848 44.594 90.288 44.314 90.832C44.026 91.376 43.882 91.968 43.882 92.608C43.882 93.616 44.186 94.468 44.794 95.164C45.426 95.876 46.27 96.232 47.326 96.232C48.126 96.232 48.822 96.004 49.414 95.548C50.03 95.076 50.362 94.432 50.41 93.616H46.762V92.764H51.394V93.1C51.394 94.22 51.034 95.16 50.314 95.92C49.562 96.696 48.562 97.084 47.314 97.084C45.986 97.084 44.922 96.66 44.122 95.812C43.33 94.972 42.934 93.92 42.934 92.656C42.934 91.824 43.126 91.064 43.51 90.376C43.894 89.688 44.422 89.148 45.094 88.756C45.758 88.364 46.506 88.168 47.338 88.168C48.394 88.168 49.25 88.432 49.906 88.96C50.522 89.44 50.954 90.04 51.202 90.76ZM55.5442 97.084C54.6962 97.084 53.9842 96.828 53.4082 96.316C52.8482 95.828 52.5282 95.26 52.4482 94.612L53.3122 94.372C53.4082 94.884 53.6722 95.32 54.1042 95.68C54.5282 96.04 55.0082 96.22 55.5442 96.22C56.0802 96.22 56.5282 96.092 56.8882 95.836C57.2962 95.556 57.5002 95.152 57.5002 94.624C57.5002 94.08 57.2562 93.664 56.7682 93.376C56.5442 93.24 56.2682 93.14 55.9402 93.076L54.7882 92.848C54.5562 92.8 54.3002 92.716 54.0202 92.596C53.7322 92.46 53.4922 92.296 53.3002 92.104C52.8922 91.704 52.6882 91.2 52.6882 90.592C52.6882 90.112 52.8202 89.684 53.0842 89.308C53.3402 88.94 53.6802 88.652 54.1042 88.444C54.5202 88.252 54.9722 88.156 55.4602 88.156C56.3162 88.156 56.9842 88.368 57.4642 88.792C57.9522 89.216 58.2482 89.704 58.3522 90.256L57.5122 90.52C57.4242 90.128 57.2082 89.78 56.8642 89.476C56.5282 89.164 56.0562 89.008 55.4482 89.008C54.9682 88.992 54.5402 89.136 54.1642 89.44C53.7882 89.744 53.6042 90.116 53.6122 90.556C53.6122 90.9 53.7202 91.196 53.9362 91.444C54.1522 91.692 54.4682 91.856 54.8842 91.936L55.9882 92.152C56.7482 92.296 57.3162 92.552 57.6922 92.92C57.9482 93.152 58.1402 93.42 58.2682 93.724C58.3882 94.02 58.4482 94.288 58.4482 94.528C58.4562 95.288 58.1802 95.908 57.6202 96.388C57.0602 96.868 56.3682 97.1 55.5442 97.084ZM62.1466 92.716V93.004C62.1466 94.164 61.8706 95.216 61.3186 96.16C60.7586 97.104 59.9746 97.868 58.9666 98.452L58.6066 97.864C60.3746 96.72 61.2586 95.096 61.2586 92.992V92.728C61.2586 90.608 60.3746 88.98 58.6066 87.844L58.9666 87.28C59.9746 87.848 60.7586 88.608 61.3186 89.56C61.8706 90.512 62.1466 91.564 62.1466 92.716Z" fill="white"/>
</g>
<defs>
<filter id="filter0_d_459_12" x="3.68652" y="28.4716" width="30.1289" height="34.7573" filterUnits="userSpaceOnUse" color-interpolation-filters="sRGB">
<feFlood flood-opacity="0" result="BackgroundImageFix"/>
<feColorMatrix in="SourceAlpha" type="matrix" values="0 0 0 0 0 0 0 0 0 0 0 0 0 0 0 0 0 0 127 0" result="hardAlpha"/>
<feOffset dy="4"/>
<feGaussianBlur stdDeviation="2"/>
<feComposite in2="hardAlpha" operator="out"/>
<feColorMatrix type="matrix" values="0 0 0 0 0 0 0 0 0 0 0 0 0 0 0 0 0 0 0.25 0"/>
<feBlend mode="normal" in2="BackgroundImageFix" result="effect1_dropShadow_459_12"/>
<feBlend mode="normal" in="SourceGraphic" in2="effect1_dropShadow_459_12" result="shape"/>
</filter>
<filter id="filter1_d_459_12" x="3.68652" y="28.7593" width="23.3096" height="34.4696" filterUnits="userSpaceOnUse" color-interpolation-filters="sRGB">
<feFlood flood-opacity="0" result="BackgroundImageFix"/>
<feColorMatrix in="SourceAlpha" type="matrix" values="0 0 0 0 0 0 0 0 0 0 0 0 0 0 0 0 0 0 127 0" result="hardAlpha"/>
<feOffset dy="4"/>
<feGaussianBlur stdDeviation="2"/>
<feComposite in2="hardAlpha" operator="out"/>
<feColorMatrix type="matrix" values="0 0 0 0 0 0 0 0 0 0 0 0 0 0 0 0 0 0 0.25 0"/>
<feBlend mode="normal" in2="BackgroundImageFix" result="effect1_dropShadow_459_12"/>
<feBlend mode="normal" in="SourceGraphic" in2="effect1_dropShadow_459_12" result="shape"/>
</filter>
<filter id="filter2_d_459_12" x="22.7788" y="-4.98096" width="47.8535" height="49.0422" filterUnits="userSpaceOnUse" color-interpolation-filters="sRGB">
<feFlood flood-opacity="0" result="BackgroundImageFix"/>
<feColorMatrix in="SourceAlpha" type="matrix" values="0 0 0 0 0 0 0 0 0 0 0 0 0 0 0 0 0 0 127 0" result="hardAlpha"/>
<feOffset dy="4"/>
<feGaussianBlur stdDeviation="5"/>
<feComposite in2="hardAlpha" operator="out"/>
<feColorMatrix type="matrix" values="0 0 0 0 0 0 0 0 0 0 0 0 0 0 0 0 0 0 0.5 0"/>
<feBlend mode="normal" in2="BackgroundImageFix" result="effect1_dropShadow_459_12"/>
<feBlend mode="normal" in="SourceGraphic" in2="effect1_dropShadow_459_12" result="shape"/>
</filter>
<filter id="filter3_d_459_12" x="49.4429" y="-2.60327" width="46.6646" height="67.7244" filterUnits="userSpaceOnUse" color-interpolation-filters="sRGB">
<feFlood flood-opacity="0" result="BackgroundImageFix"/>
<feColorMatrix in="SourceAlpha" type="matrix" values="0 0 0 0 0 0 0 0 0 0 0 0 0 0 0 0 0 0 127 0" result="hardAlpha"/>
<feOffset dy="4"/>
<feGaussianBlur stdDeviation="5"/>
<feComposite in2="hardAlpha" operator="out"/>
<feColorMatrix type="matrix" values="0 0 0 0 0 0 0 0 0 0 0 0 0 0 0 0 0 0 0.5 0"/>
<feBlend mode="normal" in2="BackgroundImageFix" result="effect1_dropShadow_459_12"/>
<feBlend mode="normal" in="SourceGraphic" in2="effect1_dropShadow_459_12" result="shape"/>
</filter>
<filter id="filter4_d_459_12" x="5.82471" y="74.892" width="90.3862" height="27.56" filterUnits="userSpaceOnUse" color-interpolation-filters="sRGB">
<feFlood flood-opacity="0" result="BackgroundImageFix"/>
<feColorMatrix in="SourceAlpha" type="matrix" values="0 0 0 0 0 0 0 0 0 0 0 0 0 0 0 0 0 0 127 0" result="hardAlpha"/>
<feOffset dy="2"/>
<feGaussianBlur stdDeviation="1"/>
<feComposite in2="hardAlpha" operator="out"/>
<feColorMatrix type="matrix" values="0 0 0 0 0 0 0 0 0 0 0 0 0 0 0 0 0 0 0.5 0"/>
<feBlend mode="normal" in2="BackgroundImageFix" result="effect1_dropShadow_459_12"/>
<feBlend mode="normal" in="SourceGraphic" in2="effect1_dropShadow_459_12" result="shape"/>
</filter>
<clipPath id="clip0_459_12">
<rect width="29" height="29" fill="white" transform="translate(30 33)"/>
</clipPath>
<clipPath id="clip1_459_12">
<rect width="30.5708" height="31.8649" fill="white" transform="translate(31.9297)"/>
</clipPath>
<clipPath id="clip2_459_12">
<rect width="28.8843" height="51.8684" fill="white" transform="translate(59.6128)"/>
</clipPath>
</defs>
</svg>
