<svg width="89" height="100" viewBox="0 0 89 100" fill="none" xmlns="http://www.w3.org/2000/svg">
<rect x="21.5027" y="24.1279" width="45.9342" height="45.9342" rx="22.9671" fill="#1F70C1"/>
<rect x="21.5027" y="24.1279" width="45.9342" height="45.9342" rx="22.9671" stroke="#CDCCCC"/>
<g clip-path="url(#clip0_462_609)">
<path d="M29 52.1965L34.833 52.1965L34.833 53.0315L29 53.0315L29 52.1965Z" fill="white"/>
<path d="M29 50.5949L34.833 50.5949L34.833 51.4328L29 51.4328L29 50.5949Z" fill="white"/>
<path d="M30.6641 48.9962L33.166 48.9962L33.166 49.8342L30.6641 49.8342L30.6641 48.9962Z" fill="white"/>
<path d="M30.6641 47.3976L33.166 47.3976L33.166 48.2355L30.6641 48.2355L30.6641 47.3976Z" fill="white"/>
<path d="M30.6641 45.7989L33.166 45.7989L33.166 46.6369L30.6641 46.6369L30.6641 45.7989Z" fill="white"/>
<path d="M30.6641 44.1973L33.166 44.1973L33.166 45.0353L30.6641 45.0353L30.6641 44.1973Z" fill="white"/>
<path d="M34.833 42.5986L29 42.5986L29 43.4366L34.833 43.4366L34.833 42.5986Z" fill="white"/>
<path d="M34.833 41L29 41L29 41.838L34.833 41.838L34.833 41Z" fill="white"/>
<path d="M35.665 51.4328L44.6359 51.4328C44.7874 51.1743 44.9004 50.892 44.9687 50.5949L35.665 50.5949L35.665 51.4328Z" fill="white"/>
<path d="M43.9376 47.3976L37.332 47.3976L37.332 48.2355L44.6359 48.2355C44.4457 47.9146 44.211 47.6323 43.9376 47.3976Z" fill="white"/>
<path d="M37.332 45.7989L37.332 46.6369L43.9376 46.6369C44.2169 46.4021 44.4517 46.1198 44.6359 45.7989L37.332 45.7989Z" fill="white"/>
<path d="M44.6359 42.5986L35.665 42.5986L35.665 43.4366L44.9687 43.4366C44.8915 43.1394 44.7786 42.8572 44.6359 42.5986Z" fill="white"/>
<path d="M41.8784 41L35.665 41L35.665 41.838L44.0208 41.838C43.4622 41.3209 42.7045 41 41.8784 41Z" fill="white"/>
<path d="M39.831 44.1973L37.332 44.1973L37.332 45.0353L39.831 45.0353L39.831 44.1973Z" fill="white"/>
<path d="M42.333 45.0353L44.9479 45.0353C45.0222 44.7679 45.0608 44.4856 45.0608 44.1973L42.333 44.1973L42.333 45.0353Z" fill="white"/>
<path d="M37.332 48.9962L39.831 48.9962L39.831 49.8342L37.332 49.8342L37.332 48.9962Z" fill="white"/>
<path d="M42.333 48.9962L42.333 49.8342L45.0608 49.8342C45.0608 49.546 45.0222 49.2637 44.9479 48.9962L42.333 48.9962Z" fill="white"/>
<path d="M35.665 53.0256L41.8784 53.0345C42.7104 53.0345 43.4622 52.7136 44.0238 52.1965L35.665 52.1965L35.665 53.0256Z" fill="white"/>
<path d="M45.667 52.1965L49.833 52.1965L49.833 53.0315L45.667 53.0315L45.667 52.1965Z" fill="white"/>
<path d="M45.667 50.5949L49.833 50.5949L49.833 51.4328L45.667 51.4328L45.667 50.5949Z" fill="white"/>
<path d="M47.3311 48.9962L49.833 48.9962L49.833 49.8342L47.3311 49.8342L47.3311 48.9962Z" fill="white"/>
<path d="M47.3311 47.3976L49.833 47.3976L49.833 48.2355L47.3311 48.2355L47.3311 47.3976Z" fill="white"/>
<path d="M50.9919 42.5986L45.667 42.5986L45.667 43.4366L51.2801 43.4366L50.9919 42.5986Z" fill="white"/>
<path d="M50.4392 41L45.667 41L45.667 41.838L50.7274 41.838L50.4392 41Z" fill="white"/>
<path d="M54.8311 52.1965L59 52.1965L59 53.0315L54.8311 53.0315L54.8311 52.1965Z" fill="white"/>
<path d="M54.8311 50.5949L59 50.5949L59 51.4328L54.8311 51.4328L54.8311 50.5949Z" fill="white"/>
<path d="M54.8311 48.9962L57.333 48.9962L57.333 49.8342L54.8311 49.8342L54.8311 48.9962Z" fill="white"/>
<path d="M54.8311 47.3976L57.333 47.3976L57.333 48.2355L54.8311 48.2355L54.8311 47.3976Z" fill="white"/>
<path d="M54.8311 46.6369L57.333 46.6369L57.333 45.7989L54.8311 45.7989L52.5668 45.7989L52.3321 46.4764L52.0973 45.7989L49.833 45.7989L47.3311 45.7989L47.3311 46.6369L49.833 46.6369L49.833 45.8673L50.0975 46.6369L54.5666 46.6369L54.8311 45.8673L54.8311 46.6369Z" fill="white"/>
<path d="M57.3331 44.1973L53.1195 44.1973L52.8313 45.0353L57.3331 45.0353L57.3331 44.1973Z" fill="white"/>
<path d="M54.2277 41L53.9395 41.838L58.9999 41.838L58.9999 41L54.2277 41Z" fill="white"/>
<path d="M52.3319 53.0256L52.6202 52.1965L52.0437 52.1965L52.3319 53.0256Z" fill="white"/>
<path d="M51.7793 51.4328L52.8847 51.4328L53.1818 50.5949L51.4851 50.5949L51.7793 51.4328Z" fill="white"/>
<path d="M51.2178 49.8342L53.4464 49.8342L53.7406 48.9962L50.9236 48.9962L51.2178 49.8342Z" fill="white"/>
<path d="M50.6591 48.2355L54.0079 48.2355L54.2932 47.3976L50.3708 47.3976L50.6591 48.2355Z" fill="white"/>
<path d="M47.3311 45.0353L51.8328 45.0353L51.5446 44.1973L47.3311 44.1973L47.3311 45.0353Z" fill="white"/>
<path d="M53.387 43.4366L59.0001 43.4366L59.0001 42.5986L53.6722 42.5986L53.387 43.4366Z" fill="white"/>
</g>
<g filter="url(#filter0_d_462_609)">
<path d="M22.9946 55.2288L23.606 54.4472C26.9583 50.1445 31.129 44.7916 29.4179 37.6186L27.7876 30.7841L26.5815 31.0718C22.2268 32.1106 18.4894 30.9927 17.888 28.4716L15.4759 29.047C16.0773 31.5681 13.2469 34.2526 8.89223 35.2914L7.68612 35.5791L9.31645 42.4136C11.0275 49.5866 17.1655 52.4805 22.0973 54.8058L22.9946 55.2288Z" fill="#D84025"/>
</g>
<g filter="url(#filter1_d_462_609)">
<path d="M8.89215 35.2915C13.2469 34.2527 16.0772 31.5681 15.4758 29.047L16.6819 28.7593L22.9957 55.2274L22.9945 55.2289L22.0972 54.8058C17.1654 52.4805 11.0275 49.5867 9.31637 42.4137L7.68605 35.5792L8.89215 35.2915Z" fill="#A13023"/>
</g>
<g clip-path="url(#clip1_462_609)">
<g filter="url(#filter2_d_462_609)">
<path fill-rule="evenodd" clip-rule="evenodd" d="M54.4432 22.5884C54.7525 23.844 55.0604 25.0985 55.3669 26.3521C52.5427 27.9683 48.9768 28.8709 44.4973 28.8724V23.689L54.4432 22.5884Z" fill="#535353"/>
<path fill-rule="evenodd" clip-rule="evenodd" d="M34.5595 22.5884C34.2462 23.844 33.9356 25.0985 33.6277 26.3521C36.458 27.9683 40.0158 28.8709 44.4973 28.8724V23.689L34.5595 22.5884Z" fill="#676767"/>
<path fill-rule="evenodd" clip-rule="evenodd" d="M42.274 9.07588C35.8214 3.36946 48.0226 3.9102 51.4611 1.01903C51.7038 1.26045 51.8477 1.55072 51.8749 1.85373C51.9021 2.15675 51.8114 2.45916 51.6141 2.72336C53.1405 3.67159 55.824 2.37785 57.279 4.19529C55.6302 4.12402 54.6261 4.61827 54.0139 5.27986C58.5361 4.75617 56.7668 7.94327 60.6318 8.123C57.7524 9.34238 50.9897 7.00124 46.8084 9.85058C44.9208 9.7979 44.1616 9.13321 42.274 9.07588Z" fill="#A23023"/>
<path fill-rule="evenodd" clip-rule="evenodd" d="M60.6299 8.0703C57.7798 9.32968 51.0665 6.93003 46.9158 9.85058C46.1434 9.81775 45.3835 9.6841 44.6672 9.45514C50.0962 4.6606 54.9134 8.91676 60.632 8.0703H60.6299Z" fill="#1A1A1A"/>
<path fill-rule="evenodd" clip-rule="evenodd" d="M42.651 8.59112C43.3961 8.64917 44.127 8.78311 44.8231 8.98919L44.8723 9.00139C44.6291 8.72991 44.3901 8.45843 44.1551 8.18695C42.0198 6.37049 46.5137 4.22153 49.2392 3.78076C50.2208 4.41523 51.7331 4.11477 52.5077 4.56012C51.8396 5.10003 51.4257 6.03342 50.7556 6.57333C58.4074 5.79855 54.9217 7.64094 58.5939 7.99783C58.3467 7.87284 58.1222 7.7247 57.9258 7.55706C56.6963 6.51233 56.8787 5.3715 54.1983 5.67654L52.7065 5.84583C52.9701 5.57333 53.2358 5.30135 53.5036 5.02987C54.1079 4.39929 55.0174 3.96788 56.0405 3.82652C55.8007 3.72207 55.5365 3.65222 55.2618 3.62062C55 3.59112 54.7357 3.57532 54.4708 3.57334C53.2782 3.55199 52.1409 3.62215 51.1921 3.05173L50.8396 2.83669C50.9093 2.74213 50.981 2.64909 51.0446 2.55606C51.2032 2.34725 51.2698 2.10668 51.2351 1.86821C50.0056 2.56216 48.3048 3.02886 46.8478 3.41625C45.6941 3.72128 44.483 4.02631 43.3887 4.40608C42.6161 4.67756 41.7493 5.05427 41.3395 5.56978C40.5956 6.53063 41.7452 7.77973 42.651 8.59112Z" fill="#EF4123"/>
<path fill-rule="evenodd" clip-rule="evenodd" d="M43.7258 8.71744C44.1135 8.79334 44.4959 8.88402 44.8714 8.98912L44.9204 9.0014C44.6781 8.72818 44.4398 8.45496 44.2057 8.18175C42.0779 6.35365 46.5561 4.19094 49.272 3.74734C50.2501 4.38587 51.7571 4.08349 52.529 4.53169C51.8633 5.07505 51.4508 6.01443 50.7831 6.55779C58.4081 5.77805 54.9346 7.63224 58.5939 7.99142C56.6887 7.61843 56.7234 6.27076 55.6411 5.94689C54.5588 5.62302 53.1294 6.369 52.0389 6.04513C52.1533 5.42041 52.6699 4.91235 53.4214 4.13721C52.3779 3.66292 49.7457 4.08656 50.293 2.71741C47.9508 4.65909 40.4055 3.85479 43.2684 8.55013L43.7258 8.71744Z" fill="#D03927"/>
<path d="M44.4123 12.7378C46.3352 12.7378 47.894 11.7113 47.894 10.445C47.894 9.17873 46.3352 8.15221 44.4123 8.15221C42.4895 8.15221 40.9307 9.17873 40.9307 10.445C40.9307 11.7113 42.4895 12.7378 44.4123 12.7378Z" fill="#CDCCCC"/>
<path fill-rule="evenodd" clip-rule="evenodd" d="M44.4279 10.5299C48.7929 10.5299 52.5226 12.2605 54.0145 14.7017C54.8158 14.959 55.3671 15.4889 55.3671 16.0954C55.363 16.297 55.3022 16.4958 55.1885 16.6786C55.0748 16.8615 54.9108 17.0244 54.7072 17.1567C54.6334 20.7267 50.0594 23.6074 44.4279 23.6074C38.7964 23.6074 34.2388 20.7328 34.1527 17.1721C33.94 17.0393 33.7679 16.8739 33.648 16.6871C33.5282 16.5003 33.4634 16.2964 33.458 16.0893C33.458 15.4767 34.0277 14.9361 34.8474 14.6834C36.3455 12.2483 40.069 10.5299 44.4279 10.5299Z" fill="#8B8A8A"/>
<path fill-rule="evenodd" clip-rule="evenodd" d="M42.799 20.2107C46.6371 20.2107 49.7624 18.2312 49.7624 15.7949C49.7624 13.3586 46.6309 11.3791 42.799 11.3791C38.9671 11.3791 35.8357 13.3586 35.8357 15.7949C35.8357 18.2312 38.959 20.2107 42.799 20.2107Z" fill="#989898"/>
<path fill-rule="evenodd" clip-rule="evenodd" d="M40.6759 15.2854C42.1268 15.2854 43.3084 14.5219 43.3084 13.587C43.3084 12.6521 42.1268 11.8886 40.6759 11.8886C39.2251 11.8886 38.0435 12.6506 38.0435 13.587C38.0435 14.5234 39.2374 15.2854 40.6759 15.2854Z" fill="#ACACAC"/>
<path fill-rule="evenodd" clip-rule="evenodd" d="M44.4974 14.2665H44.3977C43.0092 14.2611 41.6311 14.4487 40.3308 14.82L32.7786 16.9646V23.3547C36.0829 26.2792 39.9363 28.5695 44.4974 30.0613V14.2665Z" fill="#CDCCCC"/>
<path fill-rule="evenodd" clip-rule="evenodd" d="M42.7991 15.2854C42.1973 15.3615 41.6069 15.484 41.0364 15.6509L39.5886 16.0678V26.7622C40.6103 27.3513 41.6823 27.8861 42.7971 28.3629V15.2854H42.7991ZM38.9088 16.2638L36.6568 16.9125V24.8458C37.3687 25.37 38.1187 25.8771 38.9088 26.3593V16.2638ZM35.979 17.1069L34.4771 17.5394V23.0865C34.9583 23.5096 35.459 23.9244 35.979 24.3309V17.1069Z" fill="#333333"/>
<path fill-rule="evenodd" clip-rule="evenodd" d="M44.4973 14.2664H44.597C45.982 14.262 47.3566 14.4496 48.6537 14.82L56.2161 16.963V23.3532C52.9097 26.2792 49.0563 28.5695 44.4973 30.0613V14.2664Z" fill="#B4B4B4"/>
<path fill-rule="evenodd" clip-rule="evenodd" d="M46.1958 15.2854C46.8099 15.3618 47.4126 15.4842 47.9949 15.6509L49.4726 16.0678V26.7622C48.4294 27.3509 47.3354 27.8857 46.1978 28.3629V15.2854H46.1958ZM50.1665 16.2638L52.4629 16.9125V24.8458C51.7383 25.37 50.9729 25.8771 50.1665 26.3593V16.2638ZM53.1567 17.1069L54.6877 17.5394V23.0865C54.1978 23.5096 53.6875 23.9244 53.1567 24.3309V17.1069Z" fill="#1A1A1A"/>
<path fill-rule="evenodd" clip-rule="evenodd" d="M43.534 8.66171C44.1859 8.66171 44.4984 8.96658 44.2331 9.34106C44.0652 9.54106 43.8242 9.70854 43.5333 9.82748C43.2424 9.94643 42.9113 10.0129 42.5716 10.0204C41.9218 10.0204 41.6092 9.71693 41.8745 9.34106C42.0426 9.14144 42.2833 8.97423 42.5738 8.85532C42.8642 8.73642 43.1948 8.66977 43.534 8.66171Z" fill="#E3E3E3"/>
</g>
</g>
<g clip-path="url(#clip2_462_609)">
<g filter="url(#filter3_d_462_609)">
<path fill-rule="evenodd" clip-rule="evenodd" d="M60.009 47.2835L60.145 47.3539C60.2992 47.4366 60.4708 47.4817 60.6458 47.4855C60.8207 47.4894 60.9941 47.4517 61.1517 47.3758C61.3115 47.3045 61.4523 47.1966 61.5625 47.0608C61.6728 46.925 61.7495 46.7652 61.7864 46.5942C62.0991 45.228 62.7244 43.5585 63.6139 41.8343C64.5034 40.1101 65.5023 38.6345 66.4277 37.5888C66.5437 37.4584 66.6283 37.3034 66.6751 37.1353C66.722 36.9673 66.7298 36.7908 66.6979 36.6193C66.6661 36.4478 66.5955 36.2859 66.4915 36.1459C66.3875 36.0059 66.2529 35.8915 66.0979 35.8114L65.9603 35.7411L66.5262 34.6469L69.1837 36.0162L71.8413 37.384L71.2754 38.4782L71.1394 38.4079C70.9837 38.3264 70.8113 38.2819 70.6357 38.2778C70.46 38.2736 70.2858 38.31 70.1264 38.3841C69.9671 38.4582 69.827 38.5679 69.7169 38.7049C69.6068 38.8418 69.5298 39.0023 69.4917 39.1738C69.179 40.5385 68.5537 42.2095 67.6643 43.9321C66.7748 45.6547 65.7758 47.1319 64.8504 48.1777C64.7344 48.3081 64.6498 48.4633 64.603 48.6314C64.5561 48.7996 64.5483 48.9762 64.5802 49.1478C64.612 49.3194 64.6826 49.4815 64.7866 49.6216C64.8906 49.7618 65.0252 49.8763 65.1802 49.9566L65.3178 50.0269L64.7519 51.1211L62.0944 49.7533L59.4431 48.3793L60.009 47.2835Z" fill="#CA3927"/>
<path fill-rule="evenodd" clip-rule="evenodd" d="M66.7737 38.234C67.212 38.4627 66.6033 40.5413 65.4123 42.8737C64.2212 45.2061 62.9 46.9135 62.4694 46.6848C62.0388 46.4561 62.6398 44.3775 63.8309 42.0451C65.022 39.7127 66.3354 38.0053 66.7737 38.234Z" fill="#F04B23"/>
<path fill-rule="evenodd" clip-rule="evenodd" d="M86.1075 3.39676L84.6832 11.4454L71.3962 37.1944L67.0857 34.9697L80.3726 9.22071L86.1075 3.39676Z" fill="#D1D2D2"/>
<path fill-rule="evenodd" clip-rule="evenodd" d="M81.808 7.74437L84.0703 6.27116L83.2748 11.0728L71.3318 37.1944L84.6771 11.4454L86.1077 3.39676L81.808 7.74437Z" fill="#E6E6E5"/>
<path fill-rule="evenodd" clip-rule="evenodd" d="M82.3713 10.6998L76.0934 23.5217L69.8139 36.3452L69.1284 35.9965L68.4446 35.6477L75.4079 23.1745L82.3713 10.6998Z" fill="#818181"/>
<path fill-rule="evenodd" clip-rule="evenodd" d="M65.7727 33.4234L73.3723 37.3669C73.7631 37.0841 74.2371 36.9418 74.7181 36.9631C75.1991 36.9844 75.659 37.168 76.0235 37.4842C76.3881 37.8005 76.6361 38.231 76.7275 38.7064C76.819 39.1817 76.7486 39.6742 76.5278 40.1044C76.3069 40.5346 75.9483 40.8775 75.51 41.0777C75.0716 41.2779 74.579 41.3238 74.1115 41.208C73.644 41.0922 73.2289 40.8214 72.9332 40.4394C72.6375 40.0573 72.4783 39.5862 72.4814 39.1021L64.8818 35.1585C64.4905 35.4422 64.0157 35.585 63.5338 35.5639C63.052 35.5429 62.5913 35.3592 62.226 35.0425C61.8607 34.7258 61.6121 34.2946 61.5204 33.8185C61.4286 33.3423 61.4991 32.8489 61.7204 32.418C61.9417 31.987 62.3009 31.6436 62.74 31.4431C63.1792 31.2426 63.6727 31.1968 64.1409 31.3129C64.6092 31.4291 65.0249 31.7005 65.3209 32.0834C65.617 32.4663 65.7761 32.9384 65.7727 33.4234Z" fill="#333333"/>
</g>
</g>
<g filter="url(#filter4_d_462_609)">
<path d="M17.6143 84V75.252H18.5383V84H17.6143ZM24.2299 84H20.9659V75.252H24.1099C24.9259 75.236 25.5979 75.428 26.1259 75.828C26.6619 76.22 26.9299 76.76 26.9299 77.448C26.9299 77.68 26.8899 77.92 26.8099 78.168C26.7619 78.32 26.6899 78.472 26.5939 78.624C26.3699 78.976 26.0379 79.252 25.5979 79.452C26.2139 79.612 26.6659 79.928 26.9539 80.4C27.1939 80.8 27.3139 81.2 27.3139 81.6C27.3139 82.416 27.0059 83.028 26.3899 83.436C25.8059 83.812 25.0859 84 24.2299 84ZM24.0379 76.092H21.8779V79.14H23.9659C24.6539 79.14 25.1619 78.992 25.4899 78.696C25.8259 78.4 25.9939 78.02 25.9939 77.556C25.9939 77.06 25.8059 76.692 25.4299 76.452C25.0539 76.212 24.5899 76.092 24.0379 76.092ZM24.0739 79.956H21.8779V83.16H24.2539C24.8219 83.16 25.3179 83.032 25.7419 82.776C26.1659 82.512 26.3779 82.1 26.3779 81.54C26.3779 80.868 26.0259 80.408 25.3219 80.16C24.9699 80.024 24.5539 79.956 24.0739 79.956ZM36.9576 75.252H38.2776V84H37.3656V76.5L34.1136 84H33.2856L30.0576 76.56V84H29.1456V75.252H30.4536L33.7176 82.752L36.9576 75.252ZM43.2172 80.004V79.716C43.2172 78.564 43.4972 77.516 44.0572 76.572C44.6092 75.62 45.3892 74.856 46.3972 74.28L46.7572 74.844C44.9892 75.98 44.1052 77.608 44.1052 79.728V79.992C44.1052 82.096 44.9892 83.72 46.7572 84.864L46.3972 85.452C45.3892 84.868 44.6092 84.1 44.0572 83.148C43.4972 82.204 43.2172 81.156 43.2172 80.004ZM48.2706 84V75.252H49.1946V84H48.2706ZM54.8862 84H51.6222V75.252H54.7662C55.5822 75.236 56.2542 75.428 56.7822 75.828C57.3182 76.22 57.5862 76.76 57.5862 77.448C57.5862 77.68 57.5462 77.92 57.4662 78.168C57.4182 78.32 57.3462 78.472 57.2502 78.624C57.0262 78.976 56.6942 79.252 56.2542 79.452C56.8702 79.612 57.3222 79.928 57.6102 80.4C57.8502 80.8 57.9702 81.2 57.9702 81.6C57.9702 82.416 57.6622 83.028 57.0462 83.436C56.4622 83.812 55.7422 84 54.8862 84ZM54.6942 76.092H52.5342V79.14H54.6222C55.3102 79.14 55.8182 78.992 56.1462 78.696C56.4822 78.4 56.6502 78.02 56.6502 77.556C56.6502 77.06 56.4622 76.692 56.0862 76.452C55.7102 76.212 55.2462 76.092 54.6942 76.092ZM54.7302 79.956H52.5342V83.16H54.9102C55.4782 83.16 55.9742 83.032 56.3982 82.776C56.8222 82.512 57.0342 82.1 57.0342 81.54C57.0342 80.868 56.6822 80.408 55.9782 80.16C55.6262 80.024 55.2102 79.956 54.7302 79.956ZM67.6138 75.252H68.9338V84H68.0218V76.5L64.7698 84H63.9418L60.7138 76.56V84H59.8018V75.252H61.1098L64.3738 82.752L67.6138 75.252ZM73.9963 79.716V80.004C73.9963 81.164 73.7203 82.216 73.1683 83.16C72.6083 84.104 71.8243 84.868 70.8163 85.452L70.4563 84.864C72.2243 83.72 73.1083 82.096 73.1083 79.992V79.728C73.1083 77.608 72.2243 75.98 70.4563 74.844L70.8163 74.28C71.8243 74.848 72.6083 75.608 73.1683 76.56C73.7203 77.512 73.9963 78.564 73.9963 79.716Z" fill="white"/>
</g>
<defs>
<filter id="filter0_d_462_609" x="3.68604" y="28.4716" width="30.1289" height="34.7572" filterUnits="userSpaceOnUse" color-interpolation-filters="sRGB">
<feFlood flood-opacity="0" result="BackgroundImageFix"/>
<feColorMatrix in="SourceAlpha" type="matrix" values="0 0 0 0 0 0 0 0 0 0 0 0 0 0 0 0 0 0 127 0" result="hardAlpha"/>
<feOffset dy="4"/>
<feGaussianBlur stdDeviation="2"/>
<feComposite in2="hardAlpha" operator="out"/>
<feColorMatrix type="matrix" values="0 0 0 0 0 0 0 0 0 0 0 0 0 0 0 0 0 0 0.25 0"/>
<feBlend mode="normal" in2="BackgroundImageFix" result="effect1_dropShadow_462_609"/>
<feBlend mode="normal" in="SourceGraphic" in2="effect1_dropShadow_462_609" result="shape"/>
</filter>
<filter id="filter1_d_462_609" x="3.68604" y="28.7593" width="23.3096" height="34.4696" filterUnits="userSpaceOnUse" color-interpolation-filters="sRGB">
<feFlood flood-opacity="0" result="BackgroundImageFix"/>
<feColorMatrix in="SourceAlpha" type="matrix" values="0 0 0 0 0 0 0 0 0 0 0 0 0 0 0 0 0 0 127 0" result="hardAlpha"/>
<feOffset dy="4"/>
<feGaussianBlur stdDeviation="2"/>
<feComposite in2="hardAlpha" operator="out"/>
<feColorMatrix type="matrix" values="0 0 0 0 0 0 0 0 0 0 0 0 0 0 0 0 0 0 0.25 0"/>
<feBlend mode="normal" in2="BackgroundImageFix" result="effect1_dropShadow_462_609"/>
<feBlend mode="normal" in="SourceGraphic" in2="effect1_dropShadow_462_609" result="shape"/>
</filter>
<filter id="filter2_d_462_609" x="22.7786" y="-4.98097" width="47.8535" height="49.0422" filterUnits="userSpaceOnUse" color-interpolation-filters="sRGB">
<feFlood flood-opacity="0" result="BackgroundImageFix"/>
<feColorMatrix in="SourceAlpha" type="matrix" values="0 0 0 0 0 0 0 0 0 0 0 0 0 0 0 0 0 0 127 0" result="hardAlpha"/>
<feOffset dy="4"/>
<feGaussianBlur stdDeviation="5"/>
<feComposite in2="hardAlpha" operator="out"/>
<feColorMatrix type="matrix" values="0 0 0 0 0 0 0 0 0 0 0 0 0 0 0 0 0 0 0.5 0"/>
<feBlend mode="normal" in2="BackgroundImageFix" result="effect1_dropShadow_462_609"/>
<feBlend mode="normal" in="SourceGraphic" in2="effect1_dropShadow_462_609" result="shape"/>
</filter>
<filter id="filter3_d_462_609" x="49.4431" y="-2.60324" width="46.6646" height="67.7243" filterUnits="userSpaceOnUse" color-interpolation-filters="sRGB">
<feFlood flood-opacity="0" result="BackgroundImageFix"/>
<feColorMatrix in="SourceAlpha" type="matrix" values="0 0 0 0 0 0 0 0 0 0 0 0 0 0 0 0 0 0 127 0" result="hardAlpha"/>
<feOffset dy="4"/>
<feGaussianBlur stdDeviation="5"/>
<feComposite in2="hardAlpha" operator="out"/>
<feColorMatrix type="matrix" values="0 0 0 0 0 0 0 0 0 0 0 0 0 0 0 0 0 0 0.5 0"/>
<feBlend mode="normal" in2="BackgroundImageFix" result="effect1_dropShadow_462_609"/>
<feBlend mode="normal" in="SourceGraphic" in2="effect1_dropShadow_462_609" result="shape"/>
</filter>
<filter id="filter4_d_462_609" x="15.6143" y="74.28" width="60.3821" height="15.172" filterUnits="userSpaceOnUse" color-interpolation-filters="sRGB">
<feFlood flood-opacity="0" result="BackgroundImageFix"/>
<feColorMatrix in="SourceAlpha" type="matrix" values="0 0 0 0 0 0 0 0 0 0 0 0 0 0 0 0 0 0 127 0" result="hardAlpha"/>
<feOffset dy="2"/>
<feGaussianBlur stdDeviation="1"/>
<feComposite in2="hardAlpha" operator="out"/>
<feColorMatrix type="matrix" values="0 0 0 0 0 0 0 0 0 0 0 0 0 0 0 0 0 0 0.5 0"/>
<feBlend mode="normal" in2="BackgroundImageFix" result="effect1_dropShadow_462_609"/>
<feBlend mode="normal" in="SourceGraphic" in2="effect1_dropShadow_462_609" result="shape"/>
</filter>
<clipPath id="clip0_462_609">
<rect width="30" height="12.0345" fill="white" transform="translate(29 41)"/>
</clipPath>
<clipPath id="clip1_462_609">
<rect width="30.5708" height="31.8649" fill="white" transform="translate(31.9294)"/>
</clipPath>
<clipPath id="clip2_462_609">
<rect width="28.8843" height="51.8684" fill="white" transform="translate(59.613)"/>
</clipPath>
</defs>
</svg>
