<svg width="90" height="89" viewBox="0 0 90 89" fill="none" xmlns="http://www.w3.org/2000/svg">
<rect x="21.5801" y="24.1279" width="45.9342" height="45.9342" rx="22.9671" fill="#0065AF"/>
<rect x="21.5801" y="24.1279" width="45.9342" height="45.9342" rx="22.9671" stroke="#CDCCCC"/>
<path d="M37.9528 45.3107V50.6136H36.2422V43.9422H39.749C41.203 43.9422 41.7162 44.9685 41.7162 45.9094V50.6136H40.0911V45.9094C40.0911 45.5673 39.8345 45.3107 39.3213 45.3107H37.9528ZM49.3285 45.2251C48.3877 45.2251 48.0455 45.8239 48.0455 46.6792H50.697C50.6115 45.9094 50.3549 45.2251 49.3285 45.2251ZM48.0455 47.7911C48.0455 48.6464 48.6443 49.2451 49.5851 49.2451C50.3549 49.2451 50.697 49.0741 51.1247 48.6464L52.1511 49.6728C51.4668 50.2715 50.7826 50.6992 49.5851 50.6992C47.96 50.6992 46.4204 49.8438 46.4204 47.2779C46.4204 45.0541 47.1047 43.8566 49.4996 43.8566C51.8945 43.8566 52.3221 45.5673 52.3221 47.7911H48.0455ZM44.9664 50.6136C43.5979 50.6136 42.9992 49.6728 42.9992 48.6464V42.146H44.7098V43.9422H45.9928V45.3107H44.7098V48.5609C44.7098 48.9885 44.8809 49.1596 45.3085 49.1596H45.9928V50.6136H44.9664ZM34.7882 43.0013H33.0775V41.3762H34.7882V43.0013ZM34.7882 50.6992C33.5052 50.5281 33.0775 49.7583 33.0775 48.903V43.9422H34.7882V50.6992ZM55.0591 50.5281C53.7762 50.4426 53.3485 49.6728 53.3485 48.7319V41.2052H55.0591V50.5281ZM60.9608 42.2315C59.4212 34.7048 44.8809 34.2771 35.4724 40.0077V40.6064C44.8809 35.8167 58.1383 35.8167 59.4212 42.7447C59.7634 45.0541 58.4804 47.449 56.171 48.8175V50.6136C58.9936 49.5872 61.8161 46.2515 60.9608 42.2315ZM43.8545 55.4034C37.4396 56.0021 30.5971 55.0613 29.6563 50.0149C29.2286 47.5345 30.3405 44.883 31.8801 43.1724V42.3171C29.1431 44.7119 27.689 47.7056 28.5443 51.2979C29.5707 55.831 35.3869 58.4825 44.2822 57.6272C47.7889 57.2851 52.4077 56.0876 55.5723 54.377V51.8966C52.6642 53.6072 47.8745 55.0613 43.8545 55.4034Z" fill="white"/>
<g clip-path="url(#clip0_183_2800)">
<g filter="url(#filter0_d_183_2800)">
<path d="M66.9175 55.4018L66.3039 54.6172C62.9388 50.2981 58.7522 44.9249 60.4698 37.7246L62.1064 30.8641L63.317 31.1529C67.6883 32.1956 71.4399 31.0735 72.0436 28.5428L74.4649 29.1204C73.8612 31.6511 76.7023 34.3459 81.0736 35.3886L82.2843 35.6774L80.6478 42.5379C78.9302 49.7382 72.7688 52.6431 67.8183 54.9772L66.9175 55.4018Z" fill="#7AB9E8"/>
</g>
<g filter="url(#filter1_d_183_2800)">
<path d="M81.0738 35.3887C76.7025 34.3459 73.8614 31.6512 74.4651 29.1205L73.2544 28.8317L66.9166 55.4004L66.9178 55.4019L67.8185 54.9773C72.769 52.6431 78.9303 49.7383 80.6479 42.538L82.2845 35.6775L81.0738 35.3887Z" fill="#579ADF"/>
</g>
</g>
<g clip-path="url(#clip1_183_2800)">
<g filter="url(#filter2_d_183_2800)">
<path fill-rule="evenodd" clip-rule="evenodd" d="M35.1478 22.6743C34.8374 23.9347 34.5283 25.194 34.2206 26.4523C37.0556 28.0747 40.6351 28.9807 45.1316 28.9822V23.779L35.1478 22.6743Z" fill="#535353"/>
<path fill-rule="evenodd" clip-rule="evenodd" d="M55.1071 22.6743C55.4216 23.9347 55.7334 25.194 56.0425 26.4523C53.2014 28.0747 49.6301 28.9807 45.1315 28.9822V23.779L55.1071 22.6743Z" fill="#676767"/>
<path fill-rule="evenodd" clip-rule="evenodd" d="M47.3632 9.11046C53.8403 3.38232 41.5928 3.92512 38.1412 1.02295C37.8976 1.26529 37.7531 1.55666 37.7258 1.86083C37.6985 2.165 37.7895 2.46856 37.9876 2.73377C36.4554 3.68561 33.7617 2.38694 32.3011 4.21129C33.9563 4.13975 34.9641 4.63589 35.5786 5.3C31.0393 4.77431 32.8153 7.97354 28.9356 8.15395C31.8259 9.37797 38.6144 7.02792 42.8116 9.8881C44.7064 9.83522 45.4684 9.168 47.3632 9.11046Z" fill="#1B2241"/>
<path fill-rule="evenodd" clip-rule="evenodd" d="M28.9377 8.10108C31.7988 9.36525 38.5376 6.95647 42.7041 9.88814C43.4794 9.85518 44.2422 9.72102 44.9612 9.49119C39.5116 4.67842 34.6761 8.95077 28.9357 8.10108H28.9377Z" fill="#1A1A1A"/>
<path fill-rule="evenodd" clip-rule="evenodd" d="M46.985 8.62385C46.237 8.68213 45.5034 8.81658 44.8045 9.02344L44.7552 9.03568C44.9993 8.76317 45.2393 8.49066 45.4751 8.21815C47.6185 6.39477 43.1075 4.23764 40.3717 3.79519C39.3864 4.43208 37.8683 4.13048 37.0908 4.57752C37.7613 5.11948 38.1769 6.05643 38.8495 6.59839C31.1686 5.82066 34.6676 7.67006 30.9814 8.02831C31.2295 7.90284 31.4549 7.75414 31.652 7.58586C32.8862 6.53715 32.7032 5.39199 35.3937 5.69818L36.8912 5.86812C36.6266 5.59459 36.3598 5.32156 36.0911 5.04905C35.4845 4.41608 34.5715 3.98303 33.5445 3.84112C33.7853 3.73628 34.0504 3.66616 34.3261 3.63444C34.589 3.60483 34.8543 3.58897 35.1201 3.58698C36.3173 3.56555 37.459 3.63597 38.4114 3.06339L38.7652 2.84753C38.6952 2.75261 38.6232 2.65922 38.5595 2.56583C38.4003 2.35623 38.3333 2.11475 38.3682 1.87537C39.6024 2.57195 41.3097 3.04043 42.7722 3.42929C43.9303 3.73549 45.146 4.04168 46.2445 4.42289C47.02 4.6954 47.8901 5.07355 48.3015 5.59101C49.0482 6.55552 47.8942 7.80938 46.985 8.62385Z" fill="#4386BB"/>
<path fill-rule="evenodd" clip-rule="evenodd" d="M45.9063 8.75064C45.517 8.82683 45.1332 8.91786 44.7563 9.02335L44.7071 9.03568C44.9504 8.76142 45.1895 8.48717 45.4246 8.21291C47.5604 6.37786 43.0652 4.20692 40.339 3.76164C39.3571 4.4026 37.8444 4.09907 37.0695 4.54897C37.7378 5.0944 38.1518 6.03735 38.8221 6.58278C31.1681 5.80007 34.6549 7.66132 30.9816 8.02186C32.8941 7.64745 32.8592 6.29466 33.9456 5.96956C35.032 5.64445 36.4669 6.39327 37.5615 6.06816C37.4467 5.44107 36.9281 4.93108 36.1738 4.15299C37.2212 3.6769 39.8634 4.10215 39.3141 2.72778C41.6652 4.67685 49.2392 3.86949 46.3654 8.5827L45.9063 8.75064Z" fill="#283A84"/>
<path d="M45.217 12.7863C43.2868 12.7863 41.7221 11.7559 41.7221 10.4848C41.7221 9.21366 43.2868 8.18323 45.217 8.18323C47.1472 8.18323 48.7119 9.21366 48.7119 10.4848C48.7119 11.7559 47.1472 12.7863 45.217 12.7863Z" fill="#CDCCCC"/>
<path fill-rule="evenodd" clip-rule="evenodd" d="M45.2015 10.5701C40.8199 10.5701 37.076 12.3072 35.5784 14.7577C34.7741 15.016 34.2207 15.5479 34.2207 16.1567C34.2248 16.3591 34.2859 16.5586 34.4 16.7422C34.5141 16.9257 34.6787 17.0893 34.8831 17.2221C34.9572 20.8056 39.5486 23.6973 45.2015 23.6973C50.8544 23.6973 55.4294 20.8117 55.5158 17.2375C55.7293 17.1041 55.9021 16.9381 56.0224 16.7506C56.1427 16.5631 56.2078 16.3585 56.2131 16.1506C56.2131 15.5356 55.6413 14.993 54.8184 14.7393C53.3147 12.295 49.5769 10.5701 45.2015 10.5701Z" fill="#8B8A8A"/>
<path fill-rule="evenodd" clip-rule="evenodd" d="M46.8366 20.2876C42.984 20.2876 39.8468 18.3006 39.8468 15.8551C39.8468 13.4095 42.9901 11.4225 46.8366 11.4225C50.683 11.4225 53.8264 13.4095 53.8264 15.8551C53.8264 18.3006 50.6913 20.2876 46.8366 20.2876Z" fill="#989898"/>
<path fill-rule="evenodd" clip-rule="evenodd" d="M48.9676 15.3436C47.5112 15.3436 46.3251 14.5772 46.3251 13.6388C46.3251 12.7004 47.5112 11.934 48.9676 11.934C50.424 11.934 51.6101 12.6988 51.6101 13.6388C51.6101 14.5788 50.4116 15.3436 48.9676 15.3436Z" fill="#ACACAC"/>
<path fill-rule="evenodd" clip-rule="evenodd" d="M45.1316 14.3208H45.2317C46.6254 14.3154 48.0088 14.5037 49.314 14.8765L56.895 17.0292V23.4436C53.5781 26.3793 49.71 28.6783 45.1316 30.1757V14.3208Z" fill="#CDCCCC"/>
<path fill-rule="evenodd" clip-rule="evenodd" d="M46.8365 15.3436C47.4405 15.4201 48.0332 15.543 48.6059 15.7106L50.0592 16.129V26.8641C49.0336 27.4554 47.9575 27.9922 46.8385 28.4709V15.3436H46.8365ZM50.7416 16.3258L53.0021 16.9769V24.9404C52.2875 25.4666 51.5347 25.9756 50.7416 26.4597V16.3258ZM53.6825 17.1721L55.1902 17.6062V23.1744C54.7071 23.5991 54.2045 24.0155 53.6825 24.4236V17.1721Z" fill="#333333"/>
<path fill-rule="evenodd" clip-rule="evenodd" d="M45.1316 14.3208H45.0316C43.6412 14.3163 42.2614 14.5046 40.9594 14.8764L33.3682 17.0276V23.4421C36.6872 26.3793 40.5552 28.6783 45.1316 30.1757V14.3208Z" fill="#B4B4B4"/>
<path fill-rule="evenodd" clip-rule="evenodd" d="M43.4268 15.3436C42.8103 15.4203 42.2054 15.5432 41.6208 15.7106L40.1375 16.129V26.8641C41.1846 27.4551 42.2828 27.9919 43.4247 28.4709V15.3436H43.4268ZM39.441 16.3258L37.1358 16.9769V24.9404C37.8631 25.4666 38.6315 25.9756 39.441 26.4597V16.3258ZM36.4394 17.1721L34.9026 17.6062V23.1744C35.3943 23.5991 35.9065 24.0155 36.4394 24.4236V17.1721Z" fill="#1A1A1A"/>
<path fill-rule="evenodd" clip-rule="evenodd" d="M46.0987 8.6947C45.4444 8.6947 45.1306 9.00073 45.3969 9.37664C45.5655 9.5774 45.8074 9.74551 46.0994 9.86491C46.3915 9.9843 46.7238 10.051 47.0648 10.0586C47.7171 10.0586 48.0308 9.75394 47.7645 9.37664C47.5958 9.17625 47.3542 9.00841 47.0626 8.88905C46.7711 8.76969 46.4393 8.70279 46.0987 8.6947Z" fill="#E3E3E3"/>
</g>
</g>
<g clip-path="url(#clip2_183_2800)">
<g filter="url(#filter3_d_183_2800)">
<path fill-rule="evenodd" clip-rule="evenodd" d="M29.5728 47.4634L29.4363 47.534C29.2815 47.6171 29.1093 47.6624 28.9337 47.6662C28.758 47.67 28.584 47.6323 28.4257 47.556C28.2654 47.4845 28.1241 47.3762 28.0134 47.2399C27.9027 47.1036 27.8257 46.9431 27.7886 46.7714C27.4748 45.4 26.8471 43.7242 25.9542 41.9935C25.0614 40.2628 24.0587 38.7815 23.1297 37.7318C23.0133 37.601 22.9284 37.4453 22.8813 37.2766C22.8343 37.108 22.8265 36.9308 22.8584 36.7587C22.8904 36.5865 22.9613 36.424 23.0657 36.2834C23.1701 36.1428 23.3052 36.028 23.4608 35.9477L23.5989 35.8771L23.0308 34.7787L20.3632 36.1532L17.6956 37.5262L18.2636 38.6246L18.4001 38.554C18.5564 38.4722 18.7294 38.4275 18.9057 38.4234C19.0821 38.4192 19.257 38.4558 19.4169 38.5301C19.5769 38.6045 19.7175 38.7147 19.828 38.8521C19.9385 38.9896 20.0159 39.1507 20.0541 39.3228C20.3679 40.6927 20.9956 42.3701 21.8885 44.0992C22.7813 45.8284 23.784 47.3112 24.713 48.361C24.8294 48.4919 24.9144 48.6477 24.9614 48.8165C25.0084 48.9852 25.0162 49.1625 24.9843 49.3348C24.9523 49.507 24.8815 49.6697 24.7771 49.8104C24.6727 49.9511 24.5375 50.0661 24.3819 50.1466L24.2438 50.2172L24.8119 51.3156L27.4795 49.9426L30.1409 48.5634L29.5728 47.4634Z" fill="#4592CF"/>
<path fill-rule="evenodd" clip-rule="evenodd" d="M22.7824 38.3795C22.3424 38.6091 22.9534 40.6956 24.149 43.0369C25.3446 45.3781 26.6708 47.092 27.103 46.8625C27.5353 46.6329 26.932 44.5463 25.7364 42.2051C24.5408 39.8638 23.2224 38.1499 22.7824 38.3795Z" fill="#283A84"/>
<path fill-rule="evenodd" clip-rule="evenodd" d="M3.37482 3.40967L4.80457 11.4889L18.142 37.3359L22.469 35.1028L9.13151 9.25577L3.37482 3.40967Z" fill="#D1D2D2"/>
<path fill-rule="evenodd" clip-rule="evenodd" d="M7.69091 7.77382L5.4201 6.295L6.21859 11.1149L18.207 37.3359L4.81097 11.4889L3.37495 3.40967L7.69091 7.77382Z" fill="#E6E6E5"/>
<path fill-rule="evenodd" clip-rule="evenodd" d="M7.12556 10.7405L13.4273 23.6112L19.7307 36.4835L20.4188 36.1334L21.1052 35.7833L14.1154 23.2627L7.12556 10.7405Z" fill="#818181"/>
<path fill-rule="evenodd" clip-rule="evenodd" d="M23.7872 33.5505L16.1586 37.5091C15.7664 37.2252 15.2905 37.0824 14.8077 37.1037C14.3249 37.1251 13.8633 37.3094 13.4973 37.6268C13.1314 37.9443 12.8825 38.3765 12.7906 38.8536C12.6988 39.3308 12.7694 39.8251 12.9912 40.257C13.2129 40.6888 13.5728 41.033 14.0128 41.234C14.4529 41.4349 14.9474 41.481 15.4166 41.3648C15.8859 41.2485 16.3025 40.9768 16.5994 40.5932C16.8963 40.2097 17.056 39.7368 17.053 39.2508L24.6815 35.2923C25.0742 35.577 25.5508 35.7203 26.0345 35.6992C26.5182 35.6781 26.9807 35.4937 27.3474 35.1758C27.7141 34.8579 27.9636 34.4251 28.0557 33.9471C28.1477 33.4691 28.077 32.9739 27.8549 32.5413C27.6328 32.1087 27.2722 31.764 26.8314 31.5627C26.3905 31.3615 25.8951 31.3155 25.4251 31.4321C24.9551 31.5487 24.5378 31.8212 24.2406 32.2055C23.9435 32.5899 23.7837 33.0637 23.7872 33.5505Z" fill="#333333"/>
</g>
</g>
<g filter="url(#filter4_d_183_2800)">
<path d="M16.2484 83.509V74.761H17.1724V83.509H16.2484ZM24.544 83.509H23.668V80.041C23.668 79.489 23.528 79.049 23.248 78.721C22.968 78.393 22.56 78.229 22.024 78.229C21.504 78.229 21.076 78.409 20.74 78.769C20.412 79.137 20.248 79.585 20.248 80.113V83.509H19.372V77.545H20.224V78.637C20.704 77.837 21.392 77.437 22.288 77.437C22.992 77.437 23.548 77.653 23.956 78.085C24.348 78.541 24.544 79.121 24.544 79.825V83.509ZM28.3975 83.557C27.2695 83.557 26.7055 83.025 26.7055 81.961V78.313H25.6015V77.545H26.7055V75.829H27.5695V77.545H29.0815V78.313H27.5695V81.949C27.5695 82.509 27.8935 82.789 28.5415 82.789C28.6935 82.789 28.8735 82.773 29.0815 82.741V83.461C28.8735 83.525 28.6455 83.557 28.3975 83.557ZM35.5501 80.797H30.7261C30.7581 81.381 30.9781 81.865 31.3861 82.249C31.7861 82.641 32.2781 82.837 32.8621 82.837C33.3181 82.837 33.7061 82.729 34.0261 82.513C34.3461 82.289 34.5741 81.973 34.7101 81.565L35.4781 81.805C35.3101 82.365 34.9861 82.809 34.5061 83.137C34.0101 83.457 33.4661 83.617 32.8741 83.617C32.3141 83.617 31.7981 83.477 31.3261 83.197C30.8541 82.917 30.4941 82.541 30.2461 82.069C29.9821 81.605 29.8501 81.089 29.8501 80.521C29.8501 79.977 29.9741 79.473 30.2221 79.009C30.4541 78.537 30.8021 78.157 31.2661 77.869C31.7141 77.581 32.2101 77.437 32.7541 77.437C33.3541 77.437 33.8661 77.573 34.2901 77.845C34.7221 78.109 35.0421 78.473 35.2501 78.937C35.4581 79.377 35.5621 79.901 35.5621 80.509C35.5621 80.613 35.5581 80.709 35.5501 80.797ZM30.7381 80.053H34.6861C34.6301 79.509 34.4301 79.061 34.0861 78.709C33.7501 78.373 33.3061 78.205 32.7541 78.205C32.2501 78.205 31.8061 78.385 31.4221 78.745C31.0381 79.121 30.8101 79.557 30.7381 80.053ZM37.0673 83.509V74.401H37.9433V83.509H37.0673ZM42.6481 79.513V79.225C42.6481 78.073 42.9281 77.025 43.4881 76.081C44.0401 75.129 44.8201 74.365 45.8281 73.789L46.1881 74.353C44.4201 75.489 43.5361 77.117 43.5361 79.237V79.501C43.5361 81.605 44.4201 83.229 46.1881 84.373L45.8281 84.961C44.8201 84.377 44.0401 83.609 43.4881 82.657C42.9281 81.713 42.6481 80.665 42.6481 79.513ZM47.7016 83.509V74.761H48.6256V83.509H47.7016ZM57.2811 74.761H58.1811V83.509H57.1851L51.9651 76.069V83.509H51.0531V74.761H52.1211L57.2811 82.117V74.761ZM63.4836 75.625V83.509H62.5716V75.625H59.6436V74.761H66.4116V75.625H63.4836ZM70.4888 83.605C69.2648 83.605 68.2328 83.193 67.3928 82.369C67.0008 81.977 66.6928 81.509 66.4688 80.965C66.2368 80.389 66.1208 79.789 66.1208 79.165C66.1208 78.509 66.2408 77.901 66.4808 77.341C66.7288 76.765 67.0448 76.289 67.4288 75.913C68.2848 75.081 69.3168 74.665 70.5248 74.665C71.4368 74.665 72.2128 74.889 72.8528 75.337C73.1248 75.513 73.3808 75.737 73.6208 76.009C74.0208 76.473 74.2928 76.985 74.4368 77.545L73.5608 77.857C73.4728 77.521 73.3008 77.169 73.0448 76.801C72.8608 76.553 72.6728 76.349 72.4808 76.189C72.2568 75.997 71.9768 75.845 71.6408 75.733C71.3048 75.605 70.9248 75.541 70.5008 75.541C69.5568 75.541 68.7568 75.869 68.1008 76.525C67.4208 77.205 67.0808 78.065 67.0808 79.105C67.0808 79.801 67.2288 80.421 67.5248 80.965C67.8128 81.517 68.2248 81.949 68.7608 82.261C69.2728 82.573 69.8568 82.729 70.5128 82.729C71.2808 82.729 71.9208 82.525 72.4328 82.117C72.6648 81.941 72.8568 81.741 73.0088 81.517C73.1608 81.317 73.2848 81.117 73.3808 80.917C73.4608 80.725 73.5288 80.549 73.5848 80.389L74.4608 80.701C74.3168 81.221 74.0488 81.717 73.6568 82.189C73.4488 82.437 73.1968 82.673 72.9008 82.897C72.2368 83.369 71.4328 83.605 70.4888 83.605ZM77.7163 79.225V79.513C77.7163 80.673 77.4403 81.725 76.8883 82.669C76.3283 83.613 75.5443 84.377 74.5363 84.961L74.1763 84.373C75.9443 83.229 76.8283 81.605 76.8283 79.501V79.237C76.8283 77.117 75.9443 75.489 74.1763 74.353L74.5363 73.789C75.5443 74.357 76.3283 75.117 76.8883 76.069C77.4403 77.021 77.7163 78.073 77.7163 79.225Z" fill="white"/>
</g>
<defs>
<filter id="filter0_d_183_2800" x="52.0713" y="28.5428" width="30.2129" height="34.859" filterUnits="userSpaceOnUse" color-interpolation-filters="sRGB">
<feFlood flood-opacity="0" result="BackgroundImageFix"/>
<feColorMatrix in="SourceAlpha" type="matrix" values="0 0 0 0 0 0 0 0 0 0 0 0 0 0 0 0 0 0 127 0" result="hardAlpha"/>
<feOffset dx="-4" dy="4"/>
<feGaussianBlur stdDeviation="2"/>
<feComposite in2="hardAlpha" operator="out"/>
<feColorMatrix type="matrix" values="0 0 0 0 0 0 0 0 0 0 0 0 0 0 0 0 0 0 0.25 0"/>
<feBlend mode="normal" in2="BackgroundImageFix" result="effect1_dropShadow_183_2800"/>
<feBlend mode="normal" in="SourceGraphic" in2="effect1_dropShadow_183_2800" result="shape"/>
</filter>
<filter id="filter1_d_183_2800" x="58.9165" y="28.8317" width="23.3679" height="34.5703" filterUnits="userSpaceOnUse" color-interpolation-filters="sRGB">
<feFlood flood-opacity="0" result="BackgroundImageFix"/>
<feColorMatrix in="SourceAlpha" type="matrix" values="0 0 0 0 0 0 0 0 0 0 0 0 0 0 0 0 0 0 127 0" result="hardAlpha"/>
<feOffset dx="-4" dy="4"/>
<feGaussianBlur stdDeviation="2"/>
<feComposite in2="hardAlpha" operator="out"/>
<feColorMatrix type="matrix" values="0 0 0 0 0 0 0 0 0 0 0 0 0 0 0 0 0 0 0.25 0"/>
<feBlend mode="normal" in2="BackgroundImageFix" result="effect1_dropShadow_183_2800"/>
<feBlend mode="normal" in="SourceGraphic" in2="effect1_dropShadow_183_2800" result="shape"/>
</filter>
<filter id="filter2_d_183_2800" x="18.9355" y="-4.97705" width="47.9595" height="49.1527" filterUnits="userSpaceOnUse" color-interpolation-filters="sRGB">
<feFlood flood-opacity="0" result="BackgroundImageFix"/>
<feColorMatrix in="SourceAlpha" type="matrix" values="0 0 0 0 0 0 0 0 0 0 0 0 0 0 0 0 0 0 127 0" result="hardAlpha"/>
<feOffset dy="4"/>
<feGaussianBlur stdDeviation="5"/>
<feComposite in2="hardAlpha" operator="out"/>
<feColorMatrix type="matrix" values="0 0 0 0 0 0 0 0 0 0 0 0 0 0 0 0 0 0 0.5 0"/>
<feBlend mode="normal" in2="BackgroundImageFix" result="effect1_dropShadow_183_2800"/>
<feBlend mode="normal" in="SourceGraphic" in2="effect1_dropShadow_183_2800" result="shape"/>
</filter>
<filter id="filter3_d_183_2800" x="-6.62524" y="-2.59033" width="46.7661" height="67.9059" filterUnits="userSpaceOnUse" color-interpolation-filters="sRGB">
<feFlood flood-opacity="0" result="BackgroundImageFix"/>
<feColorMatrix in="SourceAlpha" type="matrix" values="0 0 0 0 0 0 0 0 0 0 0 0 0 0 0 0 0 0 127 0" result="hardAlpha"/>
<feOffset dy="4"/>
<feGaussianBlur stdDeviation="5"/>
<feComposite in2="hardAlpha" operator="out"/>
<feColorMatrix type="matrix" values="0 0 0 0 0 0 0 0 0 0 0 0 0 0 0 0 0 0 0.5 0"/>
<feBlend mode="normal" in2="BackgroundImageFix" result="effect1_dropShadow_183_2800"/>
<feBlend mode="normal" in="SourceGraphic" in2="effect1_dropShadow_183_2800" result="shape"/>
</filter>
<filter id="filter4_d_183_2800" x="14.2485" y="73.7891" width="65.4678" height="15.172" filterUnits="userSpaceOnUse" color-interpolation-filters="sRGB">
<feFlood flood-opacity="0" result="BackgroundImageFix"/>
<feColorMatrix in="SourceAlpha" type="matrix" values="0 0 0 0 0 0 0 0 0 0 0 0 0 0 0 0 0 0 127 0" result="hardAlpha"/>
<feOffset dy="2"/>
<feGaussianBlur stdDeviation="1"/>
<feComposite in2="hardAlpha" operator="out"/>
<feColorMatrix type="matrix" values="0 0 0 0 0 0 0 0 0 0 0 0 0 0 0 0 0 0 0.5 0"/>
<feBlend mode="normal" in2="BackgroundImageFix" result="effect1_dropShadow_183_2800"/>
<feBlend mode="normal" in="SourceGraphic" in2="effect1_dropShadow_183_2800" result="shape"/>
</filter>
<clipPath id="clip0_183_2800">
<rect width="35.8257" height="35.8257" fill="white" transform="translate(55.1519 19.739) rotate(13.4168)"/>
</clipPath>
<clipPath id="clip1_183_2800">
<rect width="30.6871" height="31.9862" fill="white" transform="matrix(-1 0 0 1 57.7476 0)"/>
</clipPath>
<clipPath id="clip2_183_2800">
<rect width="28.9942" height="52.0657" fill="white" transform="matrix(-1 0 0 1 29.9705 0)"/>
</clipPath>
</defs>
</svg>
