<svg width="90" height="102" viewBox="0 0 90 102" fill="none" xmlns="http://www.w3.org/2000/svg">
<rect x="21.5801" y="24.1279" width="45.9342" height="45.9342" rx="22.9671" fill="#EB1700"/>
<rect x="21.5801" y="24.1279" width="45.9342" height="45.9342" rx="22.9671" stroke="#CDCCCC"/>
<path d="M37.1419 40.34H34.7799V50.1917C34.7799 51.7923 34.169 52.7431 32.7209 52.7431C31.2917 52.7431 30.6628 51.7325 30.6628 49.9994V48.1686L28.2998 48.7596V49.5778C28.2998 52.0734 29.5396 53.9809 32.7209 53.9809C35.9031 53.9809 37.1429 52.0754 37.1429 49.5778V40.34M61.1163 40.34H58.7533V50.1917C58.7533 51.7923 58.1424 52.7431 56.6943 52.7431C55.2651 52.7431 54.6362 51.7325 54.6362 49.9994V48.1686L52.2732 48.7586V49.5768C52.2732 52.0724 53.513 53.9799 56.6943 53.9799C59.8765 53.9799 61.1163 52.0744 61.1163 49.5768V40.34ZM44.1166 52.5936C42.2868 52.5936 41.1636 51.1076 41.1636 49.527C41.1636 48.5363 41.6031 47.6214 42.3256 47.1071L46.6331 51.8143C45.8318 52.2897 44.9358 52.5936 44.1166 52.5936ZM48.3094 50.2495L44.574 46.1324C45.1616 45.8962 45.7886 45.7735 46.4218 45.7708C47.9666 45.7708 48.9174 46.6678 48.9174 48.2126C48.9177 48.9363 48.7064 49.6444 48.3094 50.2497M44.0588 45.5805L43.2396 44.6655C42.514 43.8652 42.3067 43.3689 42.3067 42.7779C42.3067 41.6736 43.0113 41.0438 44.1156 41.0438C45.2418 41.0438 45.9065 41.6916 45.9065 42.8746C45.9065 43.9609 45.3734 44.9905 44.0588 45.5805ZM44.1734 40.0362C41.5433 40.0362 40.2487 41.5052 40.2487 43.332C40.2487 44.3227 40.6672 45.3153 41.7745 46.5133L41.7926 46.5532C39.9269 47.4502 39.0688 48.8973 39.0688 50.3843C39.0688 52.3467 40.5737 53.9861 42.8998 53.9861C44.2333 53.9861 45.796 53.433 47.2073 52.4424L48.3504 53.6822H51.3423V53.5865L48.9044 50.8986C49.9339 49.6797 50.5239 48.3462 50.5239 47.1811C50.5239 45.734 49.5512 44.7613 48.0283 44.7613C47.228 44.7613 46.3311 44.9907 45.7411 45.2197L45.7011 45.144C47.1502 44.3616 47.7602 43.6391 47.7602 42.6275C47.7565 41.1804 46.4606 40.0363 44.1733 40.0363" fill="white"/>
<g clip-path="url(#clip0_186_6807)">
<g filter="url(#filter0_d_186_6807)">
<path d="M66.9178 55.4019L66.3041 54.6173C62.939 50.2982 58.7525 44.9249 60.4701 37.7246L62.1066 30.8641L63.3173 31.1529C67.6886 32.1957 71.4401 31.0736 72.0438 28.5429L74.4652 29.1204C73.8615 31.6512 76.7026 34.3459 81.0738 35.3887L82.2845 35.6775L80.648 42.5379C78.9304 49.7382 72.7691 52.6431 67.8185 54.9773L66.9178 55.4019Z" fill="#7AB9E8"/>
</g>
<g filter="url(#filter1_d_186_6807)">
<path d="M81.0738 35.3887C76.7025 34.3459 73.8614 31.6512 74.4651 29.1205L73.2544 28.8317L66.9166 55.4004L66.9178 55.4019L67.8185 54.9773C72.769 52.6431 78.9303 49.7383 80.6479 42.538L82.2845 35.6775L81.0738 35.3887Z" fill="#579ADF"/>
</g>
</g>
<g clip-path="url(#clip1_186_6807)">
<g filter="url(#filter2_d_186_6807)">
<path fill-rule="evenodd" clip-rule="evenodd" d="M35.1481 22.6743C34.8376 23.9347 34.5286 25.194 34.2209 26.4523C37.0558 28.0747 40.6353 28.9807 45.1318 28.9822V23.779L35.1481 22.6743Z" fill="#535353"/>
<path fill-rule="evenodd" clip-rule="evenodd" d="M55.1071 22.6743C55.4216 23.9347 55.7334 25.194 56.0425 26.4523C53.2014 28.0747 49.6301 28.9807 45.1315 28.9822V23.779L55.1071 22.6743Z" fill="#676767"/>
<path fill-rule="evenodd" clip-rule="evenodd" d="M47.3632 9.1104C53.8403 3.38226 41.5928 3.92506 38.1412 1.02289C37.8976 1.26523 37.7531 1.5566 37.7258 1.86077C37.6985 2.16494 37.7895 2.4685 37.9876 2.73371C36.4554 3.68554 33.7617 2.38688 32.3011 4.21123C33.9563 4.13969 34.9641 4.63583 35.5786 5.29994C31.0393 4.77425 32.8153 7.97348 28.9356 8.15389C31.8259 9.37791 38.6144 7.02786 42.8116 9.88804C44.7064 9.83516 45.4684 9.16794 47.3632 9.1104Z" fill="#1B2241"/>
<path fill-rule="evenodd" clip-rule="evenodd" d="M28.9375 8.10099C31.7985 9.36516 38.5373 6.95638 42.7038 9.88805C43.4791 9.85509 44.242 9.72093 44.9609 9.4911C39.5113 4.67832 34.6758 8.95068 28.9355 8.10099H28.9375Z" fill="#1A1A1A"/>
<path fill-rule="evenodd" clip-rule="evenodd" d="M46.9852 8.62379C46.2373 8.68207 45.5036 8.81652 44.8048 9.02337L44.7554 9.03562C44.9995 8.76311 45.2395 8.4906 45.4754 8.21809C47.6188 6.39471 43.1078 4.23758 40.3719 3.79513C39.3866 4.43201 37.8686 4.13041 37.091 4.57746C37.7616 5.11942 38.1771 6.05637 38.8497 6.59833C31.1689 5.8206 34.6678 7.67 30.9817 8.02825C31.2298 7.90278 31.4552 7.75408 31.6523 7.5858C32.8865 6.53709 32.7034 5.39193 35.394 5.69812L36.8915 5.86806C36.6268 5.59453 36.3601 5.3215 36.0913 5.04899C35.4847 4.41602 34.5718 3.98297 33.5447 3.84106C33.7855 3.73622 34.0507 3.6661 34.3264 3.63438C34.5892 3.60477 34.8546 3.58891 35.1204 3.58692C36.3176 3.56549 37.4592 3.63591 38.4116 3.06333L38.7654 2.84747C38.6955 2.75255 38.6235 2.65916 38.5597 2.56577C38.4005 2.35617 38.3336 2.11469 38.3684 1.87531C39.6026 2.57189 41.3099 3.04037 42.7725 3.42923C43.9306 3.73543 45.1463 4.04162 46.2447 4.42283C47.0202 4.69534 47.8903 5.07349 48.3017 5.59095C49.0484 6.55546 47.8944 7.80932 46.9852 8.62379Z" fill="#4386BB"/>
<path fill-rule="evenodd" clip-rule="evenodd" d="M45.906 8.75058C45.5168 8.82677 45.133 8.9178 44.7561 9.02329L44.7069 9.03562C44.9501 8.76136 45.1893 8.48711 45.4243 8.21285C47.5602 6.3778 43.065 4.20686 40.3387 3.76158C39.3569 4.40254 37.8441 4.099 37.0693 4.54891C37.7375 5.09434 38.1516 6.03729 38.8219 6.58272C31.1679 5.80001 34.6546 7.66126 30.9814 8.0218C32.8938 7.64739 32.859 6.2946 33.9454 5.9695C35.0318 5.64439 36.4667 6.39321 37.5612 6.0681C37.4465 5.44101 36.9279 4.93102 36.1735 4.15293C37.221 3.67683 39.8632 4.10209 39.3138 2.72772C41.665 4.67679 49.239 3.86943 46.3652 8.58263L45.906 8.75058Z" fill="#283A84"/>
<path d="M45.217 12.7863C43.2868 12.7863 41.7221 11.7558 41.7221 10.4847C41.7221 9.21363 43.2868 8.1832 45.217 8.1832C47.1472 8.1832 48.7119 9.21363 48.7119 10.4847C48.7119 11.7558 47.1472 12.7863 45.217 12.7863Z" fill="#CDCCCC"/>
<path fill-rule="evenodd" clip-rule="evenodd" d="M45.2013 10.57C40.8197 10.57 37.0757 12.3072 35.5782 14.7577C34.7739 15.0159 34.2205 15.5478 34.2205 16.1566C34.2245 16.359 34.2856 16.5585 34.3998 16.7421C34.5139 16.9256 34.6785 17.0892 34.8829 17.222C34.9569 20.8055 39.5484 23.6972 45.2013 23.6972C50.8542 23.6972 55.4291 20.8117 55.5155 17.2374C55.7291 17.1041 55.9019 16.938 56.0222 16.7505C56.1425 16.563 56.2075 16.3584 56.2129 16.1505C56.2129 15.5355 55.641 14.9929 54.8182 14.7392C53.3144 12.2949 49.5767 10.57 45.2013 10.57Z" fill="#8B8A8A"/>
<path fill-rule="evenodd" clip-rule="evenodd" d="M46.8363 20.2875C42.9837 20.2875 39.8465 18.3005 39.8465 15.855C39.8465 13.4094 42.9899 11.4224 46.8363 11.4224C50.6828 11.4224 53.8262 13.4094 53.8262 15.855C53.8262 18.3005 50.691 20.2875 46.8363 20.2875Z" fill="#989898"/>
<path fill-rule="evenodd" clip-rule="evenodd" d="M48.9674 15.3435C47.511 15.3435 46.3249 14.5771 46.3249 13.6387C46.3249 12.7002 47.511 11.9338 48.9674 11.9338C50.4237 11.9338 51.6099 12.6987 51.6099 13.6387C51.6099 14.5787 50.4114 15.3435 48.9674 15.3435Z" fill="#ACACAC"/>
<path fill-rule="evenodd" clip-rule="evenodd" d="M45.1316 14.3207H45.2317C46.6254 14.3154 48.0088 14.5037 49.314 14.8764L56.895 17.0291V23.4436C53.5781 26.3792 49.71 28.6782 45.1316 30.1756V14.3207Z" fill="#CDCCCC"/>
<path fill-rule="evenodd" clip-rule="evenodd" d="M46.8362 15.3435C47.4403 15.4199 48.033 15.5429 48.6056 15.7105L50.059 16.1289V26.864C49.0333 27.4553 47.9573 27.9921 46.8383 28.4708V15.3435H46.8362ZM50.7413 16.3257L53.0019 16.9768V24.9403C52.2873 25.4665 51.5344 25.9755 50.7413 26.4596V16.3257ZM53.6822 17.172L55.1899 17.6061V23.1743C54.7068 23.599 54.2043 24.0154 53.6822 24.4234V17.172Z" fill="#333333"/>
<path fill-rule="evenodd" clip-rule="evenodd" d="M45.1318 14.3207H45.0318C43.6415 14.3163 42.2617 14.5046 40.9596 14.8764L33.3685 17.0275V23.442C36.6874 26.3792 40.5555 28.6782 45.1318 30.1756V14.3207Z" fill="#B4B4B4"/>
<path fill-rule="evenodd" clip-rule="evenodd" d="M43.4268 15.3435C42.8103 15.4202 42.2054 15.5431 41.6208 15.7105L40.1375 16.1289V26.864C41.1846 27.455 42.2828 27.9918 43.4247 28.4708V15.3435H43.4268ZM39.441 16.3257L37.1358 16.9768V24.9403C37.8631 25.4665 38.6315 25.9755 39.441 26.4596V16.3257ZM36.4394 17.172L34.9026 17.6061V23.1743C35.3943 23.599 35.9065 24.0154 36.4394 24.4234V17.172Z" fill="#1A1A1A"/>
<path fill-rule="evenodd" clip-rule="evenodd" d="M46.0987 8.69464C45.4444 8.69464 45.1306 9.00067 45.3969 9.37658C45.5655 9.57734 45.8074 9.74545 46.0994 9.86485C46.3915 9.98424 46.7238 10.0509 47.0648 10.0585C47.7171 10.0585 48.0308 9.75388 47.7645 9.37658C47.5958 9.17619 47.3542 9.00834 47.0626 8.88899C46.7711 8.76963 46.4393 8.70273 46.0987 8.69464Z" fill="#E3E3E3"/>
</g>
</g>
<g clip-path="url(#clip2_186_6807)">
<g filter="url(#filter3_d_186_6807)">
<path fill-rule="evenodd" clip-rule="evenodd" d="M29.5726 47.4634L29.4361 47.534C29.2813 47.6171 29.109 47.6624 28.9334 47.6662C28.7578 47.67 28.5837 47.6323 28.4255 47.556C28.2651 47.4845 28.1238 47.3762 28.0132 47.2399C27.9025 47.1036 27.8255 46.9431 27.7884 46.7714C27.4746 45.4 26.8469 43.7242 25.954 41.9935C25.0611 40.2628 24.0584 38.7815 23.1294 37.7318C23.0131 37.601 22.9281 37.4453 22.8811 37.2766C22.8341 37.108 22.8263 36.9308 22.8582 36.7587C22.8901 36.5865 22.961 36.424 23.0654 36.2834C23.1698 36.1428 23.305 36.028 23.4605 35.9477L23.5986 35.8771L23.0306 34.7787L20.363 36.1532L17.6953 37.5262L18.2634 38.6246L18.3999 38.554C18.5562 38.4722 18.7292 38.4275 18.9055 38.4234C19.0818 38.4193 19.2567 38.4558 19.4167 38.5301C19.5766 38.6045 19.7173 38.7147 19.8278 38.8521C19.9383 38.9896 20.0156 39.1507 20.0538 39.3228C20.3677 40.6927 20.9953 42.3701 21.8882 44.0992C22.7811 45.8284 23.7838 47.3112 24.7128 48.361C24.8292 48.4919 24.9141 48.6477 24.9611 48.8165C25.0081 48.9852 25.016 49.1625 24.984 49.3348C24.9521 49.507 24.8812 49.6697 24.7768 49.8104C24.6724 49.9511 24.5373 50.0661 24.3817 50.1466L24.2436 50.2172L24.8116 51.3156L27.4793 49.9426L30.1406 48.5634L29.5726 47.4634Z" fill="#4592CF"/>
<path fill-rule="evenodd" clip-rule="evenodd" d="M22.7819 38.3794C22.3419 38.609 22.9529 40.6955 24.1485 43.0368C25.3441 45.3781 26.6703 47.092 27.1025 46.8624C27.5348 46.6328 26.9315 44.5463 25.7359 42.205C24.5403 39.8638 23.2219 38.1499 22.7819 38.3794Z" fill="#283A84"/>
<path fill-rule="evenodd" clip-rule="evenodd" d="M3.37457 3.40967L4.80432 11.4889L18.1418 37.3359L22.4688 35.1028L9.13127 9.25577L3.37457 3.40967Z" fill="#D1D2D2"/>
<path fill-rule="evenodd" clip-rule="evenodd" d="M7.69042 7.77382L5.41961 6.295L6.2181 11.1149L18.2065 37.3359L4.81048 11.4889L3.37446 3.40967L7.69042 7.77382Z" fill="#E6E6E5"/>
<path fill-rule="evenodd" clip-rule="evenodd" d="M7.12532 10.7405L13.4271 23.6112L19.7305 36.4835L20.4185 36.1334L21.105 35.7833L14.1151 23.2627L7.12532 10.7405Z" fill="#818181"/>
<path fill-rule="evenodd" clip-rule="evenodd" d="M23.7869 33.5505L16.1584 37.5091C15.7662 37.2251 15.2903 37.0823 14.8074 37.1037C14.3246 37.1251 13.863 37.3093 13.4971 37.6268C13.1312 37.9443 12.8822 38.3764 12.7904 38.8536C12.6986 39.3308 12.7692 39.8251 12.9909 40.257C13.2127 40.6888 13.5726 41.033 14.0126 41.2339C14.4526 41.4349 14.9471 41.481 15.4164 41.3648C15.8856 41.2485 16.3023 40.9767 16.5992 40.5932C16.896 40.2097 17.0558 39.7368 17.0527 39.2508L24.6812 35.2923C25.074 35.577 25.5506 35.7203 26.0343 35.6992C26.5179 35.6781 26.9804 35.4937 27.3471 35.1758C27.7138 34.8579 27.9633 34.4251 28.0554 33.9471C28.1475 33.4691 28.0768 32.9739 27.8546 32.5413C27.6325 32.1087 27.272 31.764 26.8311 31.5627C26.3903 31.3615 25.8949 31.3154 25.4249 31.432C24.9548 31.5487 24.5376 31.8211 24.2404 32.2055C23.9432 32.5898 23.7835 33.0636 23.7869 33.5505Z" fill="#333333"/>
</g>
</g>
<g filter="url(#filter4_d_186_6807)">
<path d="M21.9545 74.7611H22.8665V80.7851C22.8665 81.5931 22.6185 82.2651 22.1225 82.8011C21.6265 83.3291 20.9905 83.5931 20.2145 83.5931C19.3825 83.5931 18.7185 83.3411 18.2225 82.8371C17.7265 82.3251 17.4785 81.6491 17.4785 80.8091V79.9451H18.3905V80.7731C18.3905 81.4371 18.5785 81.9371 18.9545 82.2731C19.3065 82.5771 19.7145 82.7291 20.1785 82.7291C20.6905 82.7291 21.1145 82.5451 21.4505 82.1771C21.7865 81.8171 21.9545 81.3611 21.9545 80.8091V74.7611ZM27.6074 83.6171C27.0554 83.6171 26.5394 83.4811 26.0594 83.2091C25.5874 82.9291 25.2194 82.5571 24.9554 82.0931C24.6834 81.6291 24.5474 81.1131 24.5474 80.5451C24.5474 79.6571 24.8434 78.9211 25.4354 78.3371C26.0274 77.7371 26.7594 77.4371 27.6314 77.4371C28.4794 77.4211 29.2074 77.7211 29.8154 78.3371C30.4314 78.9451 30.7314 79.6691 30.7154 80.5091C30.7314 81.3731 30.4314 82.1131 29.8154 82.7291C29.1994 83.3371 28.4634 83.6331 27.6074 83.6171ZM27.6314 82.8371C28.2554 82.8371 28.7794 82.6131 29.2034 82.1651C29.6114 81.7171 29.8154 81.1771 29.8154 80.5451C29.8154 79.9051 29.6074 79.3531 29.1914 78.8891C28.7674 78.4331 28.2394 78.2051 27.6074 78.2051C26.9754 78.2051 26.4554 78.4291 26.0474 78.8771C25.6394 79.3251 25.4354 79.8691 25.4354 80.5091C25.4194 81.1411 25.6234 81.6891 26.0474 82.1531C26.4794 82.6171 27.0074 82.8451 27.6314 82.8371ZM37.417 83.5091H36.541V80.0411C36.541 79.4891 36.401 79.0491 36.121 78.7211C35.841 78.3931 35.433 78.2291 34.897 78.2291C34.377 78.2291 33.949 78.4091 33.613 78.7691C33.285 79.1371 33.121 79.5851 33.121 80.1131V83.5091H32.245V74.4131H33.121V78.6131C33.585 77.8291 34.265 77.4371 35.161 77.4371C35.865 77.4371 36.421 77.6531 36.829 78.0851C37.221 78.5411 37.417 79.1211 37.417 79.8251V83.5091ZM44.4834 83.5091H43.6074V80.0411C43.6074 79.4891 43.4674 79.0491 43.1874 78.7211C42.9074 78.3931 42.4994 78.2291 41.9634 78.2291C41.4434 78.2291 41.0154 78.4091 40.6794 78.7691C40.3514 79.1371 40.1874 79.5851 40.1874 80.1131V83.5091H39.3114V77.5451H40.1634V78.6371C40.6434 77.8371 41.3314 77.4371 42.2274 77.4371C42.9314 77.4371 43.4874 77.6531 43.8954 78.0851C44.2874 78.5411 44.4834 79.1211 44.4834 79.8251V83.5091ZM50.3138 81.8171C50.3138 82.3531 50.1098 82.7811 49.7018 83.1011C49.2938 83.4371 48.7938 83.6051 48.2018 83.6051C47.3298 83.6051 46.6938 83.3171 46.2938 82.7411C46.0938 82.4691 45.9738 82.1651 45.9338 81.8291L46.7258 81.6251C46.7818 81.9531 46.9298 82.2411 47.1698 82.4891C47.4178 82.7291 47.7578 82.8491 48.1898 82.8491C48.5178 82.8491 48.8098 82.7571 49.0658 82.5731C49.3058 82.4051 49.4258 82.1691 49.4258 81.8651C49.4258 81.6251 49.3298 81.4331 49.1378 81.2891C48.9618 81.1451 48.7338 81.0411 48.4538 80.9771L47.5418 80.7731C46.5498 80.5571 46.0538 80.0371 46.0538 79.2131C46.0538 78.5971 46.3018 78.1371 46.7978 77.8331C47.2218 77.5691 47.6498 77.4371 48.0818 77.4371C48.8978 77.4451 49.4938 77.7091 49.8698 78.2291C50.0538 78.4931 50.1738 78.7611 50.2298 79.0331L49.4378 79.2611C49.3818 79.0291 49.2658 78.8051 49.0898 78.5891C48.8738 78.3331 48.5378 78.2051 48.0818 78.2051C47.7538 78.2051 47.4818 78.2971 47.2658 78.4811C47.0418 78.6571 46.9298 78.8811 46.9298 79.1531C46.9298 79.5531 47.2178 79.8251 47.7938 79.9691L48.7538 80.1851C49.1938 80.2891 49.5618 80.4771 49.8578 80.7491C50.1618 81.0211 50.3138 81.3771 50.3138 81.8171ZM54.4902 83.6171C53.9382 83.6171 53.4222 83.4811 52.9422 83.2091C52.4702 82.9291 52.1022 82.5571 51.8382 82.0931C51.5662 81.6291 51.4302 81.1131 51.4302 80.5451C51.4302 79.6571 51.7262 78.9211 52.3182 78.3371C52.9102 77.7371 53.6422 77.4371 54.5142 77.4371C55.3622 77.4211 56.0902 77.7211 56.6982 78.3371C57.3142 78.9451 57.6142 79.6691 57.5982 80.5091C57.6142 81.3731 57.3142 82.1131 56.6982 82.7291C56.0822 83.3371 55.3462 83.6331 54.4902 83.6171ZM54.5142 82.8371C55.1382 82.8371 55.6622 82.6131 56.0862 82.1651C56.4942 81.7171 56.6982 81.1771 56.6982 80.5451C56.6982 79.9051 56.4902 79.3531 56.0742 78.8891C55.6502 78.4331 55.1222 78.2051 54.4902 78.2051C53.8582 78.2051 53.3382 78.4291 52.9302 78.8771C52.5222 79.3251 52.3182 79.8691 52.3182 80.5091C52.3022 81.1411 52.5062 81.6891 52.9302 82.1531C53.3622 82.6171 53.8902 82.8451 54.5142 82.8371ZM64.2998 83.5091H63.4238V80.0411C63.4238 79.4891 63.2838 79.0491 63.0038 78.7211C62.7238 78.3931 62.3158 78.2291 61.7798 78.2291C61.2598 78.2291 60.8318 78.4091 60.4958 78.7691C60.1678 79.1371 60.0038 79.5851 60.0038 80.1131V83.5091H59.1278V77.5451H59.9798V78.6371C60.4598 77.8371 61.1478 77.4371 62.0438 77.4371C62.7478 77.4371 63.3038 77.6531 63.7118 78.0851C64.1038 78.5411 64.2998 79.1211 64.2998 79.8251V83.5091ZM75.0354 79.6571H75.9354C75.8154 80.0171 75.6234 80.4011 75.3594 80.8091C75.0874 81.2331 74.7954 81.6131 74.4834 81.9491L75.8394 83.5091H74.7354L73.8834 82.5251C73.0514 83.2291 72.2234 83.5811 71.3994 83.5811C70.7034 83.5971 70.1114 83.4051 69.6234 83.0051C69.1434 82.5971 68.9074 82.0771 68.9154 81.4451C68.9154 81.0211 69.0514 80.6171 69.3234 80.2331C69.4674 80.0491 69.6154 79.8851 69.7674 79.7411C70.0234 79.5171 70.3754 79.2611 70.8234 78.9731L70.1874 78.2411C69.7794 77.7771 69.5754 77.2931 69.5754 76.7891C69.5674 76.1891 69.7954 75.6851 70.2594 75.2771C70.7314 74.8611 71.2674 74.6611 71.8674 74.6771C72.4274 74.6611 72.9354 74.8611 73.3914 75.2771C73.8554 75.6851 74.0834 76.1691 74.0754 76.7291C74.0754 77.3051 73.8834 77.7651 73.4994 78.1091C73.3074 78.2851 73.0834 78.4491 72.8274 78.6011L72.0234 79.1051L73.9674 81.3491C74.4554 80.7731 74.8114 80.2091 75.0354 79.6571ZM72.8154 75.8411C72.5434 75.5931 72.2194 75.4691 71.8434 75.4691C71.4674 75.4691 71.1434 75.5931 70.8714 75.8411C70.5914 76.1051 70.4514 76.4211 70.4514 76.7891C70.4514 77.0291 70.5314 77.2731 70.6914 77.5211C70.7314 77.5771 70.8034 77.6811 70.9074 77.8331C70.9794 77.9211 71.0754 78.0291 71.1954 78.1571C71.3554 78.3331 71.4394 78.4251 71.4474 78.4331L71.5434 78.5411L72.4194 78.0131C72.9474 77.6931 73.2114 77.2811 73.2114 76.7771C73.2114 76.4171 73.0794 76.1051 72.8154 75.8411ZM71.5074 82.7771C72.1074 82.7771 72.7274 82.4971 73.3674 81.9371L71.3154 79.5491C71.2594 79.5811 71.1834 79.6291 71.0874 79.6931C70.9994 79.7491 70.9354 79.7891 70.8954 79.8131C70.7674 79.9011 70.6394 79.9971 70.5114 80.1011C70.3354 80.2611 70.2194 80.3811 70.1634 80.4611C69.9474 80.7331 69.8394 81.0291 69.8394 81.3491C69.8394 81.7731 69.9914 82.1171 70.2954 82.3811C70.6074 82.6451 71.0114 82.7771 71.5074 82.7771ZM10.9857 87.7611H11.8977V93.7851C11.8977 94.5931 11.6497 95.2651 11.1537 95.8011C10.6577 96.3291 10.0217 96.5931 9.24572 96.5931C8.41372 96.5931 7.74972 96.3411 7.25372 95.8371C6.75772 95.3251 6.50972 94.6491 6.50972 93.8091V92.9451H7.42172V93.7731C7.42172 94.4371 7.60972 94.9371 7.98572 95.2731C8.33772 95.5771 8.74572 95.7291 9.20972 95.7291C9.72172 95.7291 10.1457 95.5451 10.4817 95.1771C10.8177 94.8171 10.9857 94.3611 10.9857 93.8091V87.7611ZM16.6387 96.6171C16.0867 96.6171 15.5707 96.4811 15.0907 96.2091C14.6187 95.9291 14.2507 95.5571 13.9867 95.0931C13.7147 94.6291 13.5787 94.1131 13.5787 93.5451C13.5787 92.6571 13.8747 91.9211 14.4667 91.3371C15.0587 90.7371 15.7907 90.4371 16.6627 90.4371C17.5107 90.4211 18.2387 90.7211 18.8467 91.3371C19.4627 91.9451 19.7627 92.6691 19.7467 93.5091C19.7627 94.3731 19.4627 95.1131 18.8467 95.7291C18.2307 96.3371 17.4947 96.6331 16.6387 96.6171ZM16.6627 95.8371C17.2867 95.8371 17.8107 95.6131 18.2347 95.1651C18.6427 94.7171 18.8467 94.1771 18.8467 93.5451C18.8467 92.9051 18.6387 92.3531 18.2227 91.8891C17.7987 91.4331 17.2707 91.2051 16.6387 91.2051C16.0067 91.2051 15.4867 91.4291 15.0787 91.8771C14.6707 92.3251 14.4667 92.8691 14.4667 93.5091C14.4507 94.1411 14.6547 94.6891 15.0787 95.1531C15.5107 95.6171 16.0387 95.8451 16.6627 95.8371ZM26.4483 96.5091H25.5723V93.0411C25.5723 92.4891 25.4323 92.0491 25.1523 91.7211C24.8723 91.3931 24.4643 91.2291 23.9283 91.2291C23.4083 91.2291 22.9803 91.4091 22.6443 91.7691C22.3163 92.1371 22.1523 92.5851 22.1523 93.1131V96.5091H21.2763V87.4131H22.1523V91.6131C22.6163 90.8291 23.2963 90.4371 24.1923 90.4371C24.8963 90.4371 25.4523 90.6531 25.8603 91.0851C26.2523 91.5411 26.4483 92.1211 26.4483 92.8251V96.5091ZM33.5147 96.5091H32.6387V93.0411C32.6387 92.4891 32.4987 92.0491 32.2187 91.7211C31.9387 91.3931 31.5307 91.2291 30.9947 91.2291C30.4747 91.2291 30.0467 91.4091 29.7107 91.7691C29.3827 92.1371 29.2187 92.5851 29.2187 93.1131V96.5091H28.3427V90.5451H29.1947V91.6371C29.6747 90.8371 30.3627 90.4371 31.2587 90.4371C31.9627 90.4371 32.5187 90.6531 32.9267 91.0851C33.3187 91.5411 33.5147 92.1211 33.5147 92.8251V96.5091ZM39.3451 94.8171C39.3451 95.3531 39.1411 95.7811 38.7331 96.1011C38.3251 96.4371 37.8251 96.6051 37.2331 96.6051C36.3611 96.6051 35.7251 96.3171 35.3251 95.7411C35.1251 95.4691 35.0051 95.1651 34.9651 94.8291L35.7571 94.6251C35.8131 94.9531 35.9611 95.2411 36.2011 95.4891C36.4491 95.7291 36.7891 95.8491 37.2211 95.8491C37.5491 95.8491 37.8411 95.7571 38.0971 95.5731C38.3371 95.4051 38.4571 95.1691 38.4571 94.8651C38.4571 94.6251 38.3611 94.4331 38.1691 94.2891C37.9931 94.1451 37.7651 94.0411 37.4851 93.9771L36.5731 93.7731C35.5811 93.5571 35.0851 93.0371 35.0851 92.2131C35.0851 91.5971 35.3331 91.1371 35.8291 90.8331C36.2531 90.5691 36.6811 90.4371 37.1131 90.4371C37.9291 90.4451 38.5251 90.7091 38.9011 91.2291C39.0851 91.4931 39.2051 91.7611 39.2611 92.0331L38.4691 92.2611C38.4131 92.0291 38.2971 91.8051 38.1211 91.5891C37.9051 91.3331 37.5691 91.2051 37.1131 91.2051C36.7851 91.2051 36.5131 91.2971 36.2971 91.4811C36.0731 91.6571 35.9611 91.8811 35.9611 92.1531C35.9611 92.5531 36.2491 92.8251 36.8251 92.9691L37.7851 93.1851C38.2251 93.2891 38.5931 93.4771 38.8891 93.7491C39.1931 94.0211 39.3451 94.3771 39.3451 94.8171ZM43.5215 96.6171C42.9695 96.6171 42.4535 96.4811 41.9735 96.2091C41.5015 95.9291 41.1335 95.5571 40.8695 95.0931C40.5975 94.6291 40.4615 94.1131 40.4615 93.5451C40.4615 92.6571 40.7575 91.9211 41.3495 91.3371C41.9415 90.7371 42.6735 90.4371 43.5455 90.4371C44.3935 90.4211 45.1215 90.7211 45.7295 91.3371C46.3455 91.9451 46.6455 92.6691 46.6295 93.5091C46.6455 94.3731 46.3455 95.1131 45.7295 95.7291C45.1135 96.3371 44.3775 96.6331 43.5215 96.6171ZM43.5455 95.8371C44.1695 95.8371 44.6935 95.6131 45.1175 95.1651C45.5255 94.7171 45.7295 94.1771 45.7295 93.5451C45.7295 92.9051 45.5215 92.3531 45.1055 91.8891C44.6815 91.4331 44.1535 91.2051 43.5215 91.2051C42.8895 91.2051 42.3695 91.4291 41.9615 91.8771C41.5535 92.3251 41.3495 92.8691 41.3495 93.5091C41.3335 94.1411 41.5375 94.6891 41.9615 95.1531C42.3935 95.6171 42.9215 95.8451 43.5455 95.8371ZM53.3311 96.5091H52.4551V93.0411C52.4551 92.4891 52.3151 92.0491 52.0351 91.7211C51.7551 91.3931 51.3471 91.2291 50.8111 91.2291C50.2911 91.2291 49.8631 91.4091 49.5271 91.7691C49.1991 92.1371 49.0351 92.5851 49.0351 93.1131V96.5091H48.1591V90.5451H49.0111V91.6371C49.4911 90.8371 50.1791 90.4371 51.0751 90.4371C51.7791 90.4371 52.3351 90.6531 52.7431 91.0851C53.1351 91.5411 53.3311 92.1211 53.3311 92.8251V96.5091ZM57.9587 92.5131V92.2251C57.9587 91.0731 58.2387 90.0251 58.7987 89.0811C59.3507 88.1291 60.1307 87.3651 61.1387 86.7891L61.4987 87.3531C59.7307 88.4891 58.8467 90.1171 58.8467 92.2371V92.5011C58.8467 94.6051 59.7307 96.2291 61.4987 97.3731L61.1387 97.9611C60.1307 97.3771 59.3507 96.6091 58.7987 95.6571C58.2387 94.7131 57.9587 93.6651 57.9587 92.5131ZM64.2826 87.7611H65.1946V93.7851C65.1946 94.5931 64.9466 95.2651 64.4506 95.8011C63.9546 96.3291 63.3186 96.5931 62.5426 96.5931C61.7106 96.5931 61.0466 96.3411 60.5506 95.8371C60.0546 95.3251 59.8066 94.6491 59.8066 93.8091V92.9451H60.7186V93.7731C60.7186 94.4371 60.9066 94.9371 61.2826 95.2731C61.6346 95.5771 62.0426 95.7291 62.5066 95.7291C63.0186 95.7291 63.4426 95.5451 63.7786 95.1771C64.1146 94.8171 64.2826 94.3611 64.2826 93.8091V87.7611ZM73.7635 87.7611H74.6635V96.5091H73.6675L68.4475 89.0691V96.5091H67.5355V87.7611H68.6035L73.7635 95.1171V87.7611ZM80.806 87.7611H81.718V93.7851C81.718 94.5931 81.47 95.2651 80.974 95.8011C80.478 96.3291 79.842 96.5931 79.066 96.5931C78.234 96.5931 77.57 96.3411 77.074 95.8371C76.578 95.3251 76.33 94.6491 76.33 93.8091V92.9451H77.242V93.7731C77.242 94.4371 77.43 94.9371 77.806 95.2731C78.158 95.5771 78.566 95.7291 79.03 95.7291C79.542 95.7291 79.966 95.5451 80.302 95.1771C80.638 94.8171 80.806 94.3611 80.806 93.8091V87.7611ZM86.687 92.2251V92.5131C86.687 93.6731 86.411 94.7251 85.859 95.6691C85.299 96.6131 84.515 97.3771 83.507 97.9611L83.147 97.3731C84.915 96.2291 85.799 94.6051 85.799 92.5011V92.2371C85.799 90.1171 84.915 88.4891 83.147 87.3531L83.507 86.7891C84.515 87.3571 85.299 88.1171 85.859 89.0691C86.411 90.0211 86.687 91.0731 86.687 92.2251Z" fill="white"/>
</g>
<defs>
<filter id="filter0_d_186_6807" x="52.0713" y="28.5428" width="30.2134" height="34.859" filterUnits="userSpaceOnUse" color-interpolation-filters="sRGB">
<feFlood flood-opacity="0" result="BackgroundImageFix"/>
<feColorMatrix in="SourceAlpha" type="matrix" values="0 0 0 0 0 0 0 0 0 0 0 0 0 0 0 0 0 0 127 0" result="hardAlpha"/>
<feOffset dx="-4" dy="4"/>
<feGaussianBlur stdDeviation="2"/>
<feComposite in2="hardAlpha" operator="out"/>
<feColorMatrix type="matrix" values="0 0 0 0 0 0 0 0 0 0 0 0 0 0 0 0 0 0 0.25 0"/>
<feBlend mode="normal" in2="BackgroundImageFix" result="effect1_dropShadow_186_6807"/>
<feBlend mode="normal" in="SourceGraphic" in2="effect1_dropShadow_186_6807" result="shape"/>
</filter>
<filter id="filter1_d_186_6807" x="58.9165" y="28.8317" width="23.3682" height="34.5703" filterUnits="userSpaceOnUse" color-interpolation-filters="sRGB">
<feFlood flood-opacity="0" result="BackgroundImageFix"/>
<feColorMatrix in="SourceAlpha" type="matrix" values="0 0 0 0 0 0 0 0 0 0 0 0 0 0 0 0 0 0 127 0" result="hardAlpha"/>
<feOffset dx="-4" dy="4"/>
<feGaussianBlur stdDeviation="2"/>
<feComposite in2="hardAlpha" operator="out"/>
<feColorMatrix type="matrix" values="0 0 0 0 0 0 0 0 0 0 0 0 0 0 0 0 0 0 0.25 0"/>
<feBlend mode="normal" in2="BackgroundImageFix" result="effect1_dropShadow_186_6807"/>
<feBlend mode="normal" in="SourceGraphic" in2="effect1_dropShadow_186_6807" result="shape"/>
</filter>
<filter id="filter2_d_186_6807" x="18.9355" y="-4.97711" width="47.9595" height="49.1527" filterUnits="userSpaceOnUse" color-interpolation-filters="sRGB">
<feFlood flood-opacity="0" result="BackgroundImageFix"/>
<feColorMatrix in="SourceAlpha" type="matrix" values="0 0 0 0 0 0 0 0 0 0 0 0 0 0 0 0 0 0 127 0" result="hardAlpha"/>
<feOffset dy="4"/>
<feGaussianBlur stdDeviation="5"/>
<feComposite in2="hardAlpha" operator="out"/>
<feColorMatrix type="matrix" values="0 0 0 0 0 0 0 0 0 0 0 0 0 0 0 0 0 0 0.5 0"/>
<feBlend mode="normal" in2="BackgroundImageFix" result="effect1_dropShadow_186_6807"/>
<feBlend mode="normal" in="SourceGraphic" in2="effect1_dropShadow_186_6807" result="shape"/>
</filter>
<filter id="filter3_d_186_6807" x="-6.62549" y="-2.59033" width="46.7661" height="67.9059" filterUnits="userSpaceOnUse" color-interpolation-filters="sRGB">
<feFlood flood-opacity="0" result="BackgroundImageFix"/>
<feColorMatrix in="SourceAlpha" type="matrix" values="0 0 0 0 0 0 0 0 0 0 0 0 0 0 0 0 0 0 127 0" result="hardAlpha"/>
<feOffset dy="4"/>
<feGaussianBlur stdDeviation="5"/>
<feComposite in2="hardAlpha" operator="out"/>
<feColorMatrix type="matrix" values="0 0 0 0 0 0 0 0 0 0 0 0 0 0 0 0 0 0 0.5 0"/>
<feBlend mode="normal" in2="BackgroundImageFix" result="effect1_dropShadow_186_6807"/>
<feBlend mode="normal" in="SourceGraphic" in2="effect1_dropShadow_186_6807" result="shape"/>
</filter>
<filter id="filter4_d_186_6807" x="4.50977" y="74.4131" width="84.1772" height="27.548" filterUnits="userSpaceOnUse" color-interpolation-filters="sRGB">
<feFlood flood-opacity="0" result="BackgroundImageFix"/>
<feColorMatrix in="SourceAlpha" type="matrix" values="0 0 0 0 0 0 0 0 0 0 0 0 0 0 0 0 0 0 127 0" result="hardAlpha"/>
<feOffset dy="2"/>
<feGaussianBlur stdDeviation="1"/>
<feComposite in2="hardAlpha" operator="out"/>
<feColorMatrix type="matrix" values="0 0 0 0 0 0 0 0 0 0 0 0 0 0 0 0 0 0 0.5 0"/>
<feBlend mode="normal" in2="BackgroundImageFix" result="effect1_dropShadow_186_6807"/>
<feBlend mode="normal" in="SourceGraphic" in2="effect1_dropShadow_186_6807" result="shape"/>
</filter>
<clipPath id="clip0_186_6807">
<rect width="35.8257" height="35.8257" fill="white" transform="translate(55.1519 19.739) rotate(13.4168)"/>
</clipPath>
<clipPath id="clip1_186_6807">
<rect width="30.6871" height="31.9862" fill="white" transform="matrix(-1 0 0 1 57.7476 0)"/>
</clipPath>
<clipPath id="clip2_186_6807">
<rect width="28.9942" height="52.0657" fill="white" transform="matrix(-1 0 0 1 29.9702 0)"/>
</clipPath>
</defs>
</svg>
