<svg width="90" height="103" viewBox="0 0 90 103" fill="none" xmlns="http://www.w3.org/2000/svg">
<rect x="21.5801" y="24.1279" width="45.9342" height="45.9342" rx="22.9671" fill="white"/>
<rect x="21.5801" y="24.1279" width="45.9342" height="45.9342" rx="22.9671" stroke="#CDCCCC"/>
<path fill-rule="evenodd" clip-rule="evenodd" d="M57 43.5199H49.9151V60.0038L57 52.9201V43.5199ZM40.5174 35.0013V42.0924H57L49.9151 35.0013H40.5174ZM48.4864 60.0038V52.9201H32L39.0899 60.0038H48.4864ZM32.005 51.4926H39.0899V35L32.005 42.0862V51.4926Z" fill="#28539C"/>
<g clip-path="url(#clip0_459_46)">
<g filter="url(#filter0_d_459_46)">
<path d="M66.9178 55.4019L66.3041 54.6172C62.939 50.2982 58.7525 44.9249 60.4701 37.7246L62.1066 30.8641L63.3173 31.1529C67.6886 32.1956 71.4401 31.0736 72.0438 28.5428L74.4652 29.1204C73.8615 31.6511 76.7026 34.3459 81.0738 35.3886L82.2845 35.6774L80.648 42.5379C78.9304 49.7382 72.7691 52.6431 67.8185 54.9773L66.9178 55.4019Z" fill="#7AB9E8"/>
</g>
<g filter="url(#filter1_d_459_46)">
<path d="M81.0738 35.3886C76.7025 34.3459 73.8614 31.6512 74.4651 29.1204L73.2544 28.8316L66.9166 55.4004L66.9178 55.4019L67.8185 54.9772C72.769 52.6431 78.9303 49.7383 80.6479 42.5379L82.2845 35.6774L81.0738 35.3886Z" fill="#579ADF"/>
</g>
</g>
<g clip-path="url(#clip1_459_46)">
<g filter="url(#filter2_d_459_46)">
<path fill-rule="evenodd" clip-rule="evenodd" d="M35.1481 22.6743C34.8376 23.9347 34.5286 25.194 34.2209 26.4523C37.0558 28.0747 40.6353 28.9807 45.1318 28.9822V23.779L35.1481 22.6743Z" fill="#535353"/>
<path fill-rule="evenodd" clip-rule="evenodd" d="M55.1071 22.6743C55.4216 23.9347 55.7334 25.194 56.0425 26.4523C53.2014 28.0747 49.6301 28.9807 45.1315 28.9822V23.779L55.1071 22.6743Z" fill="#676767"/>
<path fill-rule="evenodd" clip-rule="evenodd" d="M47.3632 9.1104C53.8403 3.38226 41.5928 3.92506 38.1412 1.02289C37.8976 1.26523 37.7531 1.5566 37.7258 1.86077C37.6985 2.16494 37.7895 2.4685 37.9876 2.73371C36.4554 3.68554 33.7617 2.38688 32.3011 4.21123C33.9563 4.13969 34.9641 4.63583 35.5786 5.29994C31.0393 4.77425 32.8153 7.97348 28.9356 8.15389C31.8259 9.37791 38.6144 7.02786 42.8116 9.88804C44.7064 9.83516 45.4684 9.16794 47.3632 9.1104Z" fill="#1B2241"/>
<path fill-rule="evenodd" clip-rule="evenodd" d="M28.9375 8.10099C31.7985 9.36516 38.5373 6.95638 42.7038 9.88805C43.4791 9.85509 44.242 9.72093 44.9609 9.4911C39.5113 4.67832 34.6758 8.95068 28.9355 8.10099H28.9375Z" fill="#1A1A1A"/>
<path fill-rule="evenodd" clip-rule="evenodd" d="M46.9852 8.62379C46.2373 8.68207 45.5036 8.81652 44.8048 9.02337L44.7554 9.03562C44.9995 8.76311 45.2395 8.4906 45.4754 8.21809C47.6188 6.39471 43.1078 4.23758 40.3719 3.79513C39.3866 4.43201 37.8686 4.13041 37.091 4.57746C37.7616 5.11942 38.1771 6.05637 38.8497 6.59833C31.1689 5.8206 34.6678 7.67 30.9817 8.02825C31.2298 7.90278 31.4552 7.75408 31.6523 7.5858C32.8865 6.53709 32.7034 5.39193 35.394 5.69812L36.8915 5.86806C36.6268 5.59453 36.3601 5.3215 36.0913 5.04899C35.4847 4.41602 34.5718 3.98297 33.5447 3.84106C33.7855 3.73622 34.0507 3.6661 34.3264 3.63438C34.5892 3.60477 34.8546 3.58891 35.1204 3.58692C36.3176 3.56549 37.4592 3.63591 38.4116 3.06333L38.7654 2.84747C38.6955 2.75255 38.6235 2.65916 38.5597 2.56577C38.4005 2.35617 38.3336 2.11469 38.3684 1.87531C39.6026 2.57189 41.3099 3.04037 42.7725 3.42923C43.9306 3.73543 45.1463 4.04162 46.2447 4.42283C47.0202 4.69534 47.8903 5.07349 48.3017 5.59095C49.0484 6.55546 47.8944 7.80932 46.9852 8.62379Z" fill="#4386BB"/>
<path fill-rule="evenodd" clip-rule="evenodd" d="M45.906 8.75058C45.5168 8.82677 45.133 8.9178 44.7561 9.02329L44.7069 9.03562C44.9501 8.76136 45.1893 8.48711 45.4243 8.21285C47.5602 6.3778 43.065 4.20686 40.3387 3.76158C39.3569 4.40254 37.8441 4.099 37.0693 4.54891C37.7375 5.09434 38.1516 6.03729 38.8219 6.58272C31.1679 5.80001 34.6546 7.66126 30.9814 8.0218C32.8938 7.64739 32.859 6.2946 33.9454 5.9695C35.0318 5.64439 36.4667 6.39321 37.5612 6.0681C37.4465 5.44101 36.9279 4.93102 36.1735 4.15293C37.221 3.67683 39.8632 4.10209 39.3138 2.72772C41.665 4.67679 49.239 3.86943 46.3652 8.58263L45.906 8.75058Z" fill="#283A84"/>
<path d="M45.217 12.7863C43.2868 12.7863 41.7221 11.7558 41.7221 10.4847C41.7221 9.21363 43.2868 8.1832 45.217 8.1832C47.1472 8.1832 48.7119 9.21363 48.7119 10.4847C48.7119 11.7558 47.1472 12.7863 45.217 12.7863Z" fill="#CDCCCC"/>
<path fill-rule="evenodd" clip-rule="evenodd" d="M45.2013 10.57C40.8197 10.57 37.0757 12.3072 35.5782 14.7577C34.7739 15.0159 34.2205 15.5478 34.2205 16.1566C34.2245 16.359 34.2856 16.5585 34.3998 16.7421C34.5139 16.9256 34.6785 17.0892 34.8829 17.222C34.9569 20.8055 39.5484 23.6972 45.2013 23.6972C50.8542 23.6972 55.4291 20.8117 55.5155 17.2374C55.7291 17.1041 55.9019 16.938 56.0222 16.7505C56.1425 16.563 56.2075 16.3584 56.2129 16.1505C56.2129 15.5355 55.641 14.9929 54.8182 14.7392C53.3144 12.2949 49.5767 10.57 45.2013 10.57Z" fill="#8B8A8A"/>
<path fill-rule="evenodd" clip-rule="evenodd" d="M46.8363 20.2875C42.9837 20.2875 39.8465 18.3005 39.8465 15.855C39.8465 13.4094 42.9899 11.4224 46.8363 11.4224C50.6828 11.4224 53.8262 13.4094 53.8262 15.855C53.8262 18.3005 50.691 20.2875 46.8363 20.2875Z" fill="#989898"/>
<path fill-rule="evenodd" clip-rule="evenodd" d="M48.9674 15.3435C47.511 15.3435 46.3249 14.5771 46.3249 13.6387C46.3249 12.7002 47.511 11.9338 48.9674 11.9338C50.4237 11.9338 51.6099 12.6987 51.6099 13.6387C51.6099 14.5787 50.4114 15.3435 48.9674 15.3435Z" fill="#ACACAC"/>
<path fill-rule="evenodd" clip-rule="evenodd" d="M45.1316 14.3207H45.2317C46.6254 14.3154 48.0088 14.5037 49.314 14.8764L56.895 17.0291V23.4436C53.5781 26.3792 49.71 28.6782 45.1316 30.1756V14.3207Z" fill="#CDCCCC"/>
<path fill-rule="evenodd" clip-rule="evenodd" d="M46.8362 15.3435C47.4403 15.4199 48.033 15.5429 48.6056 15.7105L50.059 16.1289V26.864C49.0333 27.4553 47.9573 27.9921 46.8383 28.4708V15.3435H46.8362ZM50.7413 16.3257L53.0019 16.9768V24.9403C52.2873 25.4665 51.5344 25.9755 50.7413 26.4596V16.3257ZM53.6822 17.172L55.1899 17.6061V23.1743C54.7068 23.599 54.2043 24.0154 53.6822 24.4234V17.172Z" fill="#333333"/>
<path fill-rule="evenodd" clip-rule="evenodd" d="M45.1318 14.3207H45.0318C43.6415 14.3163 42.2617 14.5046 40.9596 14.8764L33.3685 17.0275V23.442C36.6874 26.3792 40.5555 28.6782 45.1318 30.1756V14.3207Z" fill="#B4B4B4"/>
<path fill-rule="evenodd" clip-rule="evenodd" d="M43.4268 15.3435C42.8103 15.4202 42.2054 15.5431 41.6208 15.7105L40.1375 16.1289V26.864C41.1846 27.455 42.2828 27.9918 43.4247 28.4708V15.3435H43.4268ZM39.441 16.3257L37.1358 16.9768V24.9403C37.8631 25.4665 38.6315 25.9755 39.441 26.4596V16.3257ZM36.4394 17.172L34.9026 17.6061V23.1743C35.3943 23.599 35.9065 24.0154 36.4394 24.4234V17.172Z" fill="#1A1A1A"/>
<path fill-rule="evenodd" clip-rule="evenodd" d="M46.0987 8.69464C45.4444 8.69464 45.1306 9.00067 45.3969 9.37658C45.5655 9.57734 45.8074 9.74545 46.0994 9.86485C46.3915 9.98424 46.7238 10.0509 47.0648 10.0585C47.7171 10.0585 48.0308 9.75388 47.7645 9.37658C47.5958 9.17619 47.3542 9.00834 47.0626 8.88899C46.7711 8.76963 46.4393 8.70273 46.0987 8.69464Z" fill="#E3E3E3"/>
</g>
</g>
<g clip-path="url(#clip2_459_46)">
<g filter="url(#filter3_d_459_46)">
<path fill-rule="evenodd" clip-rule="evenodd" d="M29.5731 47.4634L29.4365 47.534C29.2818 47.6171 29.1095 47.6624 28.9339 47.6662C28.7583 47.67 28.5842 47.6323 28.426 47.556C28.2656 47.4845 28.1243 47.3762 28.0136 47.2399C27.903 47.1036 27.8259 46.9431 27.7889 46.7714C27.475 45.4 26.8474 43.7242 25.9545 41.9935C25.0616 40.2628 24.0589 38.7815 23.1299 37.7318C23.0135 37.601 22.9286 37.4453 22.8816 37.2766C22.8346 37.108 22.8267 36.9308 22.8587 36.7587C22.8906 36.5865 22.9615 36.424 23.0659 36.2834C23.1703 36.1428 23.3055 36.028 23.461 35.9477L23.5991 35.8771L23.0311 34.7787L20.3634 36.1532L17.6958 37.5262L18.2639 38.6246L18.4004 38.554C18.5566 38.4722 18.7297 38.4275 18.906 38.4234C19.0823 38.4193 19.2572 38.4558 19.4172 38.5301C19.5771 38.6045 19.7178 38.7147 19.8283 38.8521C19.9388 38.9896 20.0161 39.1507 20.0543 39.3228C20.3681 40.6927 20.9958 42.3701 21.8887 44.0992C22.7816 45.8284 23.7843 47.3112 24.7133 48.361C24.8297 48.4919 24.9146 48.6477 24.9616 48.8165C25.0086 48.9852 25.0165 49.1625 24.9845 49.3348C24.9526 49.507 24.8817 49.6697 24.7773 49.8104C24.6729 49.9511 24.5378 50.0661 24.3822 50.1466L24.2441 50.2172L24.8121 51.3156L27.4798 49.9426L30.1411 48.5634L29.5731 47.4634Z" fill="#4592CF"/>
<path fill-rule="evenodd" clip-rule="evenodd" d="M22.7824 38.3794C22.3424 38.609 22.9534 40.6955 24.149 43.0368C25.3446 45.3781 26.6708 47.092 27.103 46.8624C27.5353 46.6328 26.932 44.5463 25.7364 42.205C24.5408 39.8638 23.2224 38.1499 22.7824 38.3794Z" fill="#283A84"/>
<path fill-rule="evenodd" clip-rule="evenodd" d="M3.37506 3.40967L4.80481 11.4889L18.1423 37.3359L22.4692 35.1028L9.13175 9.25577L3.37506 3.40967Z" fill="#D1D2D2"/>
<path fill-rule="evenodd" clip-rule="evenodd" d="M7.69091 7.77382L5.4201 6.295L6.21859 11.1149L18.207 37.3359L4.81097 11.4889L3.37495 3.40967L7.69091 7.77382Z" fill="#E6E6E5"/>
<path fill-rule="evenodd" clip-rule="evenodd" d="M7.1258 10.7405L13.4276 23.6112L19.731 36.4835L20.419 36.1334L21.1055 35.7833L14.1156 23.2627L7.1258 10.7405Z" fill="#818181"/>
<path fill-rule="evenodd" clip-rule="evenodd" d="M23.7874 33.5505L16.1589 37.5091C15.7666 37.2251 15.2907 37.0823 14.8079 37.1037C14.3251 37.1251 13.8635 37.3093 13.4976 37.6268C13.1316 37.9443 12.8827 38.3764 12.7909 38.8536C12.699 39.3308 12.7697 39.8251 12.9914 40.257C13.2132 40.6888 13.573 41.033 14.0131 41.2339C14.4531 41.4349 14.9476 41.481 15.4169 41.3648C15.8861 41.2485 16.3028 40.9767 16.5996 40.5932C16.8965 40.2097 17.0563 39.7368 17.0532 39.2508L24.6817 35.2923C25.0744 35.577 25.5511 35.7203 26.0348 35.6992C26.5184 35.6781 26.9809 35.4937 27.3476 35.1758C27.7143 34.8579 27.9638 34.4251 28.0559 33.9471C28.148 33.4691 28.0772 32.9739 27.8551 32.5413C27.633 32.1087 27.2724 31.764 26.8316 31.5627C26.3908 31.3615 25.8954 31.3154 25.4254 31.432C24.9553 31.5487 24.5381 31.8211 24.2409 32.2055C23.9437 32.5898 23.784 33.0636 23.7874 33.5505Z" fill="#333333"/>
</g>
</g>
<g filter="url(#filter4_d_459_46)">
<path d="M22.8575 75.252H23.7695V81.276C23.7695 82.084 23.5215 82.756 23.0255 83.292C22.5295 83.82 21.8935 84.084 21.1175 84.084C20.2855 84.084 19.6215 83.832 19.1255 83.328C18.6295 82.816 18.3815 82.14 18.3815 81.3V80.436H19.2935V81.264C19.2935 81.928 19.4815 82.428 19.8575 82.764C20.2095 83.068 20.6175 83.22 21.0815 83.22C21.5935 83.22 22.0175 83.036 22.3535 82.668C22.6895 82.308 22.8575 81.852 22.8575 81.3V75.252ZM28.8944 80.58H27.0344V84H26.1104V75.252H29.0384C30.0464 75.244 30.8104 75.496 31.3304 76.008C31.8504 76.52 32.1104 77.144 32.1104 77.88C32.1104 78.64 31.8424 79.276 31.3064 79.788C30.7384 80.316 29.9344 80.58 28.8944 80.58ZM28.9664 76.116H27.0344V79.728H28.9184C29.7024 79.728 30.2824 79.532 30.6584 79.14C31.0024 78.796 31.1744 78.384 31.1744 77.904C31.1744 77.408 31.0024 76.988 30.6584 76.644C30.3144 76.292 29.7504 76.116 28.9664 76.116ZM41.5279 75.252H42.8479V84H41.9359V76.5L38.6839 84H37.8559L34.6279 76.56V84H33.7159V75.252H35.0239L38.2879 82.752L41.5279 75.252ZM47.6823 84.108C47.1303 84.108 46.6143 83.972 46.1343 83.7C45.6623 83.42 45.2943 83.048 45.0303 82.584C44.7583 82.12 44.6223 81.604 44.6223 81.036C44.6223 80.148 44.9183 79.412 45.5103 78.828C46.1023 78.228 46.8343 77.928 47.7063 77.928C48.5543 77.912 49.2823 78.212 49.8903 78.828C50.5063 79.436 50.8063 80.16 50.7903 81C50.8063 81.864 50.5063 82.604 49.8903 83.22C49.2743 83.828 48.5383 84.124 47.6823 84.108ZM47.7063 83.328C48.3303 83.328 48.8543 83.104 49.2783 82.656C49.6863 82.208 49.8903 81.668 49.8903 81.036C49.8903 80.396 49.6823 79.844 49.2663 79.38C48.8423 78.924 48.3143 78.696 47.6823 78.696C47.0503 78.696 46.5303 78.92 46.1223 79.368C45.7143 79.816 45.5103 80.36 45.5103 81C45.4943 81.632 45.6983 82.18 46.1223 82.644C46.5543 83.108 47.0823 83.336 47.7063 83.328ZM52.3199 78.036H53.1719V79.212C53.4519 78.644 53.8599 78.26 54.3959 78.06C54.6119 77.98 54.8479 77.94 55.1039 77.94C55.2559 77.94 55.3519 77.948 55.3919 77.964V78.888C55.3279 78.872 55.2159 78.864 55.0559 78.864C54.4079 78.864 53.9359 79.08 53.6399 79.512C53.3439 79.944 53.1959 80.468 53.1959 81.084V84H52.3199V78.036ZM60.7851 83.916V82.668C60.2491 83.572 59.4811 84.024 58.4811 84.024C57.9371 84.024 57.4451 83.884 57.0051 83.604C56.5811 83.332 56.2531 82.964 56.0211 82.5C55.7971 82.044 55.6851 81.54 55.6851 80.988C55.6851 80.452 55.7971 79.956 56.0211 79.5C56.2531 79.036 56.5851 78.66 57.0171 78.372C57.4411 78.076 57.9291 77.928 58.4811 77.928C59.0251 77.928 59.5011 78.068 59.9091 78.348C60.2291 78.572 60.5251 78.884 60.7971 79.284V78.036H61.6611V83.856C61.6611 84.872 61.3811 85.648 60.8211 86.184C60.2451 86.72 59.4891 86.988 58.5531 86.988C57.8171 86.988 57.1851 86.792 56.6571 86.4C56.1291 85.992 55.8131 85.504 55.7091 84.936L56.5011 84.672C56.5971 85.064 56.8091 85.42 57.1371 85.74C57.4731 86.06 57.9411 86.22 58.5411 86.22C59.1811 86.22 59.7051 86.044 60.1131 85.692C60.5611 85.324 60.7851 84.732 60.7851 83.916ZM58.6611 83.256C59.2771 83.256 59.7851 83.032 60.1851 82.584C60.5931 82.136 60.7971 81.6 60.7971 80.976C60.8131 80.384 60.6091 79.856 60.1851 79.392C59.7611 78.928 59.2531 78.7 58.6611 78.708C58.0131 78.708 57.5051 78.924 57.1371 79.356C56.7611 79.78 56.5731 80.328 56.5731 81C56.5571 81.632 56.7451 82.168 57.1371 82.608C57.5291 83.048 58.0371 83.264 58.6611 83.256ZM65.5725 80.556H67.2285V80.16C67.2285 79.192 66.7205 78.708 65.7045 78.708C65.2165 78.708 64.8405 78.84 64.5765 79.104C64.3365 79.344 64.1925 79.616 64.1445 79.92L63.3045 79.74C63.3125 79.572 63.3925 79.36 63.5445 79.104C63.6965 78.848 63.8965 78.62 64.1445 78.42C64.5685 78.092 65.0965 77.928 65.7285 77.928C66.8165 77.928 67.5405 78.34 67.9005 79.164C68.0205 79.444 68.0805 79.772 68.0805 80.148V81.828C68.0805 82.804 68.1125 83.528 68.1765 84H67.3125C67.2565 83.696 67.2285 83.348 67.2285 82.956C66.7245 83.724 66.0525 84.108 65.2125 84.108C64.6125 84.108 64.1325 83.94 63.7725 83.604C63.3965 83.276 63.2085 82.856 63.2085 82.344V82.284C63.2085 81.692 63.4445 81.256 63.9165 80.976C64.3965 80.696 64.9485 80.556 65.5725 80.556ZM67.2285 81.48V81.276H65.5605C65.1925 81.276 64.8685 81.344 64.5885 81.48C64.2525 81.624 64.0845 81.888 64.0845 82.272C64.0845 82.6 64.2085 82.86 64.4565 83.052C64.6965 83.244 65.0005 83.34 65.3685 83.34C65.8885 83.34 66.3325 83.164 66.7005 82.812C67.0525 82.476 67.2285 82.032 67.2285 81.48ZM75.1521 84H74.2761V80.532C74.2761 79.98 74.1361 79.54 73.8561 79.212C73.5761 78.884 73.1681 78.72 72.6321 78.72C72.1121 78.72 71.6841 78.9 71.3481 79.26C71.0201 79.628 70.8561 80.076 70.8561 80.604V84H69.9801V78.036H70.8321V79.128C71.3121 78.328 72.0001 77.928 72.8961 77.928C73.6001 77.928 74.1561 78.144 74.5641 78.576C74.9561 79.032 75.1521 79.612 75.1521 80.316V84ZM16.5891 97.096C15.3651 97.096 14.3331 96.684 13.4931 95.86C13.1011 95.468 12.7931 95 12.5691 94.456C12.3371 93.88 12.2211 93.28 12.2211 92.656C12.2211 92 12.3411 91.392 12.5811 90.832C12.8291 90.256 13.1451 89.78 13.5291 89.404C14.3851 88.572 15.4171 88.156 16.6251 88.156C17.5371 88.156 18.3131 88.38 18.9531 88.828C19.2251 89.004 19.4811 89.228 19.7211 89.5C20.1211 89.964 20.3931 90.476 20.5371 91.036L19.6611 91.348C19.5731 91.012 19.4011 90.66 19.1451 90.292C18.9611 90.044 18.7731 89.84 18.5811 89.68C18.3571 89.488 18.0771 89.336 17.7411 89.224C17.4051 89.096 17.0251 89.032 16.6011 89.032C15.6571 89.032 14.8571 89.36 14.2011 90.016C13.5211 90.696 13.1811 91.556 13.1811 92.596C13.1811 93.292 13.3291 93.912 13.6251 94.456C13.9131 95.008 14.3251 95.44 14.8611 95.752C15.3731 96.064 15.9571 96.22 16.6131 96.22C17.3811 96.22 18.0211 96.016 18.5331 95.608C18.7651 95.432 18.9571 95.232 19.1091 95.008C19.2611 94.808 19.3851 94.608 19.4811 94.408C19.5611 94.216 19.6291 94.04 19.6851 93.88L20.5611 94.192C20.4171 94.712 20.1491 95.208 19.7571 95.68C19.5491 95.928 19.2971 96.164 19.0011 96.388C18.3371 96.86 17.5331 97.096 16.5891 97.096ZM27.1521 97H26.2761V93.532C26.2761 92.98 26.1361 92.54 25.8561 92.212C25.5761 91.884 25.1681 91.72 24.6321 91.72C24.1121 91.72 23.6841 91.9 23.3481 92.26C23.0201 92.628 22.8561 93.076 22.8561 93.604V97H21.9801V87.904H22.8561V92.104C23.3201 91.32 24.0001 90.928 24.8961 90.928C25.6001 90.928 26.1561 91.144 26.5641 91.576C26.9561 92.032 27.1521 92.612 27.1521 93.316V97ZM30.9905 93.556H32.6465V93.16C32.6465 92.192 32.1385 91.708 31.1225 91.708C30.6345 91.708 30.2585 91.84 29.9945 92.104C29.7545 92.344 29.6105 92.616 29.5625 92.92L28.7225 92.74C28.7305 92.572 28.8105 92.36 28.9625 92.104C29.1145 91.848 29.3145 91.62 29.5625 91.42C29.9865 91.092 30.5145 90.928 31.1465 90.928C32.2345 90.928 32.9585 91.34 33.3185 92.164C33.4385 92.444 33.4985 92.772 33.4985 93.148V94.828C33.4985 95.804 33.5305 96.528 33.5945 97H32.7305C32.6745 96.696 32.6465 96.348 32.6465 95.956C32.1425 96.724 31.4705 97.108 30.6305 97.108C30.0305 97.108 29.5505 96.94 29.1905 96.604C28.8145 96.276 28.6265 95.856 28.6265 95.344V95.284C28.6265 94.692 28.8625 94.256 29.3345 93.976C29.8145 93.696 30.3665 93.556 30.9905 93.556ZM32.6465 94.48V94.276H30.9785C30.6105 94.276 30.2865 94.344 30.0065 94.48C29.6705 94.624 29.5025 94.888 29.5025 95.272C29.5025 95.6 29.6265 95.86 29.8745 96.052C30.1145 96.244 30.4185 96.34 30.7865 96.34C31.3065 96.34 31.7505 96.164 32.1185 95.812C32.4705 95.476 32.6465 95.032 32.6465 94.48ZM39.3341 95.308C39.3341 95.844 39.1301 96.272 38.7221 96.592C38.3141 96.928 37.8141 97.096 37.2221 97.096C36.3501 97.096 35.7141 96.808 35.3141 96.232C35.1141 95.96 34.9941 95.656 34.9541 95.32L35.7461 95.116C35.8021 95.444 35.9501 95.732 36.1901 95.98C36.4381 96.22 36.7781 96.34 37.2101 96.34C37.5381 96.34 37.8301 96.248 38.0861 96.064C38.3261 95.896 38.4461 95.66 38.4461 95.356C38.4461 95.116 38.3501 94.924 38.1581 94.78C37.9821 94.636 37.7541 94.532 37.4741 94.468L36.5621 94.264C35.5701 94.048 35.0741 93.528 35.0741 92.704C35.0741 92.088 35.3221 91.628 35.8181 91.324C36.2421 91.06 36.6701 90.928 37.1021 90.928C37.9181 90.936 38.5141 91.2 38.8901 91.72C39.0741 91.984 39.1941 92.252 39.2501 92.524L38.4581 92.752C38.4021 92.52 38.2861 92.296 38.1101 92.08C37.8941 91.824 37.5581 91.696 37.1021 91.696C36.7741 91.696 36.5021 91.788 36.2861 91.972C36.0621 92.148 35.9501 92.372 35.9501 92.644C35.9501 93.044 36.2381 93.316 36.8141 93.46L37.7741 93.676C38.2141 93.78 38.5821 93.968 38.8781 94.24C39.1821 94.512 39.3341 94.868 39.3341 95.308ZM46.1504 94.288H41.3264C41.3584 94.872 41.5784 95.356 41.9864 95.74C42.3864 96.132 42.8784 96.328 43.4624 96.328C43.9184 96.328 44.3064 96.22 44.6264 96.004C44.9464 95.78 45.1744 95.464 45.3104 95.056L46.0784 95.296C45.9104 95.856 45.5864 96.3 45.1064 96.628C44.6104 96.948 44.0664 97.108 43.4744 97.108C42.9144 97.108 42.3984 96.968 41.9264 96.688C41.4544 96.408 41.0944 96.032 40.8464 95.56C40.5824 95.096 40.4504 94.58 40.4504 94.012C40.4504 93.468 40.5744 92.964 40.8224 92.5C41.0544 92.028 41.4024 91.648 41.8664 91.36C42.3144 91.072 42.8104 90.928 43.3544 90.928C43.9544 90.928 44.4664 91.064 44.8904 91.336C45.3224 91.6 45.6424 91.964 45.8504 92.428C46.0584 92.868 46.1624 93.392 46.1624 94C46.1624 94.104 46.1584 94.2 46.1504 94.288ZM41.3384 93.544H45.2864C45.2304 93 45.0304 92.552 44.6864 92.2C44.3504 91.864 43.9064 91.696 43.3544 91.696C42.8504 91.696 42.4064 91.876 42.0224 92.236C41.6384 92.612 41.4104 93.048 41.3384 93.544ZM50.4008 93.004V92.716C50.4008 91.564 50.6808 90.516 51.2408 89.572C51.7928 88.62 52.5728 87.856 53.5808 87.28L53.9408 87.844C52.1728 88.98 51.2888 90.608 51.2888 92.728V92.992C51.2888 95.096 52.1728 96.72 53.9408 97.864L53.5808 98.452C52.5728 97.868 51.7928 97.1 51.2408 96.148C50.6808 95.204 50.4008 94.156 50.4008 93.004ZM56.7247 88.252H57.6367V94.276C57.6367 95.084 57.3887 95.756 56.8927 96.292C56.3967 96.82 55.7607 97.084 54.9847 97.084C54.1527 97.084 53.4887 96.832 52.9927 96.328C52.4967 95.816 52.2487 95.14 52.2487 94.3V93.436H53.1607V94.264C53.1607 94.928 53.3487 95.428 53.7247 95.764C54.0767 96.068 54.4847 96.22 54.9487 96.22C55.4607 96.22 55.8847 96.036 56.2207 95.668C56.5567 95.308 56.7247 94.852 56.7247 94.3V88.252ZM62.7616 93.58H60.9016V97H59.9776V88.252H62.9056C63.9136 88.244 64.6776 88.496 65.1976 89.008C65.7176 89.52 65.9776 90.144 65.9776 90.88C65.9776 91.64 65.7096 92.276 65.1736 92.788C64.6056 93.316 63.8016 93.58 62.7616 93.58ZM62.8336 89.116H60.9016V92.728H62.7856C63.5696 92.728 64.1496 92.532 64.5256 92.14C64.8696 91.796 65.0416 91.384 65.0416 90.904C65.0416 90.408 64.8696 89.988 64.5256 89.644C64.1816 89.292 63.6176 89.116 62.8336 89.116ZM75.3951 88.252H76.7151V97H75.8031V89.5L72.5511 97H71.7231L68.4951 89.56V97H67.5831V88.252H68.8911L72.1551 95.752L75.3951 88.252ZM81.7775 92.716V93.004C81.7775 94.164 81.5015 95.216 80.9495 96.16C80.3895 97.104 79.6055 97.868 78.5975 98.452L78.2375 97.864C80.0055 96.72 80.8895 95.096 80.8895 92.992V92.728C80.8895 90.608 80.0055 88.98 78.2375 87.844L78.5975 87.28C79.6055 87.848 80.3895 88.608 80.9495 89.56C81.5015 90.512 81.7775 91.564 81.7775 92.716Z" fill="white"/>
</g>
<defs>
<filter id="filter0_d_459_46" x="52.0713" y="28.5428" width="30.2134" height="34.859" filterUnits="userSpaceOnUse" color-interpolation-filters="sRGB">
<feFlood flood-opacity="0" result="BackgroundImageFix"/>
<feColorMatrix in="SourceAlpha" type="matrix" values="0 0 0 0 0 0 0 0 0 0 0 0 0 0 0 0 0 0 127 0" result="hardAlpha"/>
<feOffset dx="-4" dy="4"/>
<feGaussianBlur stdDeviation="2"/>
<feComposite in2="hardAlpha" operator="out"/>
<feColorMatrix type="matrix" values="0 0 0 0 0 0 0 0 0 0 0 0 0 0 0 0 0 0 0.25 0"/>
<feBlend mode="normal" in2="BackgroundImageFix" result="effect1_dropShadow_459_46"/>
<feBlend mode="normal" in="SourceGraphic" in2="effect1_dropShadow_459_46" result="shape"/>
</filter>
<filter id="filter1_d_459_46" x="58.9165" y="28.8316" width="23.3682" height="34.5703" filterUnits="userSpaceOnUse" color-interpolation-filters="sRGB">
<feFlood flood-opacity="0" result="BackgroundImageFix"/>
<feColorMatrix in="SourceAlpha" type="matrix" values="0 0 0 0 0 0 0 0 0 0 0 0 0 0 0 0 0 0 127 0" result="hardAlpha"/>
<feOffset dx="-4" dy="4"/>
<feGaussianBlur stdDeviation="2"/>
<feComposite in2="hardAlpha" operator="out"/>
<feColorMatrix type="matrix" values="0 0 0 0 0 0 0 0 0 0 0 0 0 0 0 0 0 0 0.25 0"/>
<feBlend mode="normal" in2="BackgroundImageFix" result="effect1_dropShadow_459_46"/>
<feBlend mode="normal" in="SourceGraphic" in2="effect1_dropShadow_459_46" result="shape"/>
</filter>
<filter id="filter2_d_459_46" x="18.9355" y="-4.97711" width="47.9595" height="49.1527" filterUnits="userSpaceOnUse" color-interpolation-filters="sRGB">
<feFlood flood-opacity="0" result="BackgroundImageFix"/>
<feColorMatrix in="SourceAlpha" type="matrix" values="0 0 0 0 0 0 0 0 0 0 0 0 0 0 0 0 0 0 127 0" result="hardAlpha"/>
<feOffset dy="4"/>
<feGaussianBlur stdDeviation="5"/>
<feComposite in2="hardAlpha" operator="out"/>
<feColorMatrix type="matrix" values="0 0 0 0 0 0 0 0 0 0 0 0 0 0 0 0 0 0 0.5 0"/>
<feBlend mode="normal" in2="BackgroundImageFix" result="effect1_dropShadow_459_46"/>
<feBlend mode="normal" in="SourceGraphic" in2="effect1_dropShadow_459_46" result="shape"/>
</filter>
<filter id="filter3_d_459_46" x="-6.625" y="-2.59033" width="46.7661" height="67.9059" filterUnits="userSpaceOnUse" color-interpolation-filters="sRGB">
<feFlood flood-opacity="0" result="BackgroundImageFix"/>
<feColorMatrix in="SourceAlpha" type="matrix" values="0 0 0 0 0 0 0 0 0 0 0 0 0 0 0 0 0 0 127 0" result="hardAlpha"/>
<feOffset dy="4"/>
<feGaussianBlur stdDeviation="5"/>
<feComposite in2="hardAlpha" operator="out"/>
<feColorMatrix type="matrix" values="0 0 0 0 0 0 0 0 0 0 0 0 0 0 0 0 0 0 0.5 0"/>
<feBlend mode="normal" in2="BackgroundImageFix" result="effect1_dropShadow_459_46"/>
<feBlend mode="normal" in="SourceGraphic" in2="effect1_dropShadow_459_46" result="shape"/>
</filter>
<filter id="filter4_d_459_46" x="10.2212" y="75.24" width="73.5562" height="27.212" filterUnits="userSpaceOnUse" color-interpolation-filters="sRGB">
<feFlood flood-opacity="0" result="BackgroundImageFix"/>
<feColorMatrix in="SourceAlpha" type="matrix" values="0 0 0 0 0 0 0 0 0 0 0 0 0 0 0 0 0 0 127 0" result="hardAlpha"/>
<feOffset dy="2"/>
<feGaussianBlur stdDeviation="1"/>
<feComposite in2="hardAlpha" operator="out"/>
<feColorMatrix type="matrix" values="0 0 0 0 0 0 0 0 0 0 0 0 0 0 0 0 0 0 0.5 0"/>
<feBlend mode="normal" in2="BackgroundImageFix" result="effect1_dropShadow_459_46"/>
<feBlend mode="normal" in="SourceGraphic" in2="effect1_dropShadow_459_46" result="shape"/>
</filter>
<clipPath id="clip0_459_46">
<rect width="35.8257" height="35.8257" fill="white" transform="translate(55.1519 19.739) rotate(13.4168)"/>
</clipPath>
<clipPath id="clip1_459_46">
<rect width="30.6871" height="31.9862" fill="white" transform="matrix(-1 0 0 1 57.7476 0)"/>
</clipPath>
<clipPath id="clip2_459_46">
<rect width="28.9942" height="52.0657" fill="white" transform="matrix(-1 0 0 1 29.9707 0)"/>
</clipPath>
</defs>
</svg>
