<svg width="97" height="103" viewBox="0 0 97 103" fill="none" xmlns="http://www.w3.org/2000/svg">
<rect x="21.5024" y="24.1279" width="45.9342" height="45.9342" rx="22.9671" fill="#E61D2B"/>
<rect x="21.5024" y="24.1279" width="45.9342" height="45.9342" rx="22.9671" stroke="#CDCCCC"/>
<g clip-path="url(#clip0_462_523)">
<path d="M50.8178 42.8187C50.8178 42.8187 50.1804 43.0724 49.4392 43.8894C48.6979 44.7064 48.2662 45.6251 48.5857 45.8694C48.7084 45.9623 48.9914 45.98 49.5049 45.5157C49.9789 45.1042 50.3509 44.5884 50.5917 44.0088C50.9234 43.2001 50.8178 42.8286 50.8178 42.8198M54.8746 44.2885C54.051 43.8662 53.449 43.3488 52.8227 43.0287C52.2251 42.7219 51.8388 42.5937 51.3556 42.6584C51.2882 42.6704 51.2217 42.687 51.1566 42.7081C51.1566 42.7081 51.4054 43.5577 50.4154 44.985C49.4126 46.4322 48.5028 46.4222 48.2441 46.0248C47.9732 45.6052 48.3231 44.7501 48.9074 43.9889C49.5193 43.1929 50.5939 42.5329 50.5939 42.5329C50.5939 42.5329 50.2512 42.3234 49.4099 42.8004C48.589 43.2637 47.1761 44.3692 45.8649 46.2337C44.5537 48.0982 44.2939 49.1242 44.106 49.9318C43.9181 50.7394 44.0889 51.6045 44.9844 51.6045C45.8799 51.6045 46.9224 50.2386 47.2165 49.7637C47.7632 48.8793 48.1197 47.5228 47.3757 47.7091C47.0092 47.8008 46.7123 48.2066 46.5249 48.5974C46.4066 48.8484 46.3162 49.1116 46.2552 49.3823C45.9952 49.4895 45.751 49.6316 45.5294 49.8046C45.2828 49.9873 45.0524 50.1907 44.8406 50.4127C44.8406 50.4127 44.844 49.767 45.3586 48.7223C45.8732 47.6776 46.8179 47.2005 47.353 47.1557C47.835 47.1171 48.4624 47.5261 47.9306 49.0352C47.3989 50.5442 45.8301 52.3789 44.1823 52.4016C42.6616 52.4226 41.6666 50.4818 43.7832 47.0949C46.1258 43.3532 48.8737 42.2051 49.7659 42.0774C50.658 41.9497 50.9482 42.3433 50.9482 42.3433C51.4853 42.123 52.0653 42.0273 52.6447 42.0636C53.7342 42.1371 54.5766 42.9082 55.6888 43.45C55.3997 43.7263 55.1239 44.0165 54.8751 44.2885M59.7694 43.0287C59.0143 43.513 57.9696 43.9519 56.9657 43.8579C56.7115 44.1205 56.4395 44.4245 56.167 44.7562C57.9077 45.1005 59.4328 44.0221 60.2437 43.1039C60.5393 42.7738 60.7933 42.4086 60.9999 42.0166C60.6307 42.4011 60.2175 42.7409 59.7688 43.0287M57.4511 47.9329C57.4642 47.91 57.475 47.8857 57.4831 47.8605C57.478 47.8207 57.4593 47.7838 57.4302 47.756C57.4011 47.7283 57.3634 47.7113 57.3234 47.708C57.1575 47.7002 56.9315 47.7317 56.3383 48.3884C55.8463 48.9307 55.4228 49.5315 55.0775 50.1772C54.738 50.7974 54.6004 51.2595 54.7955 51.3789C54.8589 51.4118 54.9324 51.4193 55.0012 51.3999C55.1333 51.3684 55.2831 51.2446 55.5108 50.9809C55.6175 50.8571 55.7358 50.6819 55.8773 50.4879C56.2698 49.9539 57.2559 48.2729 57.4511 47.9329ZM51.2898 48.6471C51.3888 48.3884 51.5148 47.8804 51.2528 47.6809C50.9714 47.4692 50.2539 47.9661 50.2501 48.4758C50.2451 48.9976 50.7553 49.2336 50.8775 49.2668C50.9471 49.2856 50.9714 49.2828 51.0052 49.227C51.1134 49.0405 51.2085 48.8468 51.2898 48.6471ZM50.747 49.5962C50.5692 49.5141 50.4034 49.4083 50.2539 49.2817C50.1041 49.156 49.9789 49.0037 49.8847 48.8323C49.8747 48.8157 49.8648 48.8284 49.8537 48.8434C49.8427 48.8583 49.7985 48.8986 49.4159 49.4592C49.0334 50.0197 48.4458 51.181 48.9776 51.3789C49.3181 51.5055 49.8847 50.9091 50.1937 50.5138C50.4042 50.238 50.595 49.9476 50.7647 49.6449C50.7807 49.6112 50.7647 49.6034 50.7476 49.5962M56.7794 50.9378C56.6352 51.1689 56.4704 51.6122 56.9453 51.3364C57.5262 51.0008 58.3537 49.7455 58.3537 49.7455H58.7291C58.3876 50.2706 58.0073 50.7695 57.5915 51.238C57.0028 51.8903 56.2847 52.4828 55.7789 52.4242C55.188 52.3551 55.3732 51.5796 55.3732 51.5796C55.3732 51.5796 54.528 52.4795 53.9432 52.4148C53.1532 52.3275 53.3943 51.3513 53.3943 51.3513C53.3943 51.3513 52.501 52.4474 51.8924 52.4137C50.9383 52.3585 51.1782 51.1976 51.4435 50.3801C51.5856 49.9428 51.7171 49.5996 51.7171 49.5996C51.7171 49.5996 51.6226 49.6244 51.4192 49.6548C51.3131 49.6698 51.1196 49.6808 51.1196 49.6808C51.1196 49.6808 50.7221 50.3817 50.4043 50.8029C50.0865 51.2242 48.7355 52.6763 47.9406 52.3855C47.2054 52.1169 47.4486 50.9914 47.8765 50.0971C48.5011 48.7931 50.2578 46.9197 51.2711 47.1674C52.3213 47.4222 51.2948 49.3386 51.2948 49.3386C51.2948 49.3386 51.2948 49.3458 51.3059 49.3508C51.3269 49.3585 51.3816 49.3646 51.5082 49.3398C51.6394 49.313 51.7679 49.2747 51.8924 49.2253C51.8924 49.2253 52.9482 47.0142 54.1145 45.5676C55.2809 44.121 57.6075 41.6297 58.5207 42.2322C58.7418 42.3803 58.6423 42.8905 58.3416 43.5097C58.2061 43.5536 58.0685 43.5905 57.9292 43.6202C58.1304 43.2548 58.2636 42.9469 58.3034 42.7319C58.4411 41.9845 56.696 43.5611 55.4489 45.2548C54.6978 46.2758 54.0304 47.356 53.4534 48.4846C53.6787 48.3472 53.8937 48.1937 54.0968 48.0253C54.6531 47.564 55.1817 47.0705 55.68 46.5471C56.1598 46.0559 56.6098 45.5365 57.0276 44.9916C57.1604 44.9852 57.2927 44.9716 57.424 44.9507C56.9684 45.5691 56.4716 46.156 55.937 46.7074C55.4395 47.2105 54.9011 47.7516 54.4335 48.1447C54.0158 48.4999 53.5752 48.8273 53.1146 49.1247C53.1146 49.1247 52.0239 51.3242 52.6171 51.4652C52.9659 51.5492 53.6546 50.4884 53.6546 50.4884C53.6546 50.4884 54.5534 49.117 55.0951 48.4984C55.8342 47.6582 56.4704 47.1718 57.1061 47.1629C57.4765 47.1563 57.6948 47.5499 57.6948 47.5499L57.869 47.2801H58.9413C58.9413 47.2801 56.9386 50.6786 56.7783 50.9345M59.7688 43.0287C59.0138 43.513 57.969 43.9519 56.9652 43.8579C56.7109 44.1205 56.4389 44.4245 56.1664 44.7562C57.9071 45.1005 59.4322 44.0221 60.2431 43.1039C60.5389 42.7738 60.7931 42.4087 60.9999 42.0166C60.6307 42.4011 60.2175 42.7409 59.7688 43.0287ZM44.7085 44.6959H43.6887L43.1121 45.6273H44.132L44.7085 44.6959ZM39.8795 47.9213C40.3134 47.3266 41.5107 45.242 41.5107 45.242C41.5057 45.2022 41.4871 45.1654 41.4581 45.1376C41.4292 45.1098 41.3915 45.0928 41.3515 45.0895C41.1857 45.0817 40.9093 45.1376 40.3604 45.8247C39.8115 46.5118 39.3853 47.0585 39.0747 47.6273C38.7341 48.248 38.5855 48.6858 38.7811 48.8047C38.8446 48.8365 38.9176 48.844 38.9862 48.8257C39.1134 48.7936 39.2797 48.6659 39.508 48.4034C39.6153 48.2806 39.7369 48.1154 39.8795 47.9213ZM34.407 45.1022C34.1251 44.8894 33.4082 45.3874 33.4043 45.896C33.3999 46.4183 34.0494 46.5781 34.1334 46.582C34.1581 46.584 34.1829 46.5788 34.2047 46.567C34.2197 46.5583 34.2317 46.5452 34.239 46.5295C34.3154 46.3794 34.384 46.2255 34.4446 46.0684C34.5436 45.8097 34.6691 45.3017 34.407 45.1022ZM33.982 46.9004C33.7876 46.8396 33.6018 46.7542 33.4292 46.6461C33.2619 46.537 33.1259 46.3864 33.0345 46.2088C33.0245 46.1923 33.0135 46.205 33.0035 46.2199C32.9936 46.2348 32.9361 46.3067 32.5525 46.8694C32.1689 47.4321 31.6006 48.583 32.1329 48.7809C32.4723 48.9097 33.0456 48.3083 33.3568 47.9147C33.5897 47.6054 33.8048 47.2832 34.0013 46.9496C34.014 46.9158 34.0013 46.9081 33.9825 46.902M42.3117 47.247H42.6854C42.6854 47.247 40.8131 49.9555 39.7557 49.8295C39.1653 49.7604 39.3405 49.0319 39.3405 49.0319C39.3405 49.0319 38.5114 50.0025 37.7497 49.8057C37.0587 49.6283 37.5048 48.4791 37.5048 48.4791C37.4263 48.5106 35.931 50.196 34.8802 49.7919C33.7807 49.3674 34.3518 47.9562 34.5607 47.5316C34.7381 47.174 34.9344 46.8257 34.9344 46.8257C34.9344 46.8257 34.7658 46.8733 34.658 46.8976C34.5502 46.9219 34.3943 46.9529 34.3943 46.9529C34.3943 46.9529 33.8742 47.7981 33.5563 48.2198C33.2385 48.6416 31.8875 50.091 31.0915 49.8024C30.2955 49.5139 30.4928 48.4 30.94 47.5156C31.6653 46.0812 33.3861 44.3184 34.4225 44.5859C35.4695 44.8529 34.6027 46.551 34.6027 46.551C34.6027 46.551 34.8111 46.5781 35.3103 46.2376C36.0289 45.7473 36.9774 44.4284 38.0045 44.5831C38.4887 44.6561 38.9398 45.1508 38.3229 46.0906C38.1261 46.3924 37.7961 46.6621 37.5435 46.3951C37.3859 46.2293 37.5236 45.9269 37.6889 45.7202C37.7532 45.6359 37.8372 45.5688 37.9336 45.5246C38.03 45.4805 38.1358 45.4607 38.2416 45.467C38.2416 45.467 38.4113 45.0801 37.9796 45.0856C37.6303 45.0922 36.7458 45.9065 36.2467 46.729C35.789 47.4841 35.0952 48.7704 35.7917 49.0507C36.4302 49.3082 37.6452 47.8661 38.2079 47.1104C38.7706 46.3548 40.0531 44.6423 41.1288 44.5737C41.4991 44.5494 41.7197 44.8872 41.7197 44.8872L41.8441 44.6904H42.9197C42.9197 44.6904 40.8938 48.0711 40.7357 48.3271C40.6114 48.5272 40.4461 48.9771 40.9016 48.7251C41.3571 48.473 42.3117 47.247 42.3117 47.247ZM41.7263 52.6641C40.9343 52.1159 39.9859 51.8391 39.0232 51.8753C38.7627 51.8824 38.5075 51.9509 38.2784 52.075C38.0492 52.1992 37.8525 52.3757 37.7043 52.5901C37.2942 51.8742 36.4833 51.4348 35.2296 51.4447C33.2036 51.4679 31.1943 52.4021 29.6023 52.401C28.0767 52.401 26.9639 51.442 26.9999 49.7389C27.0668 46.75 29.5924 44.0586 31.4773 42.8474C32.5641 42.1515 33.4728 41.9447 34.0671 42.0116C34.5005 42.0597 35.0217 42.5605 34.6928 43.2985C34.2097 44.377 33.5425 44.2885 33.5674 43.7728C33.5812 43.4372 33.8045 43.2261 33.9726 43.1094C34.0792 43.0359 34.2677 43.0149 34.3661 43.0127C34.4618 42.932 34.532 42.3416 33.7581 42.5357C32.9842 42.7297 32.0445 43.4925 31.1523 44.4781C30.2601 45.4637 28.871 47.3266 28.5277 49.2828C28.3674 50.1899 28.4725 51.8444 30.6233 51.8256C32.4475 51.8107 35.1361 50.6095 37.607 50.6344C38.5661 50.6437 39.4008 50.9024 40.0514 51.3038C40.6904 51.6973 41.4566 52.2722 41.7285 52.6647" fill="white"/>
</g>
<g filter="url(#filter0_d_462_523)">
<path d="M22.9949 55.2288L23.6062 54.4472C26.9586 50.1445 31.1292 44.7916 29.4182 37.6186L27.7878 30.7841L26.5817 31.0718C22.227 32.1106 18.4897 30.9927 17.8883 28.4716L15.4761 29.047C16.0775 31.5681 13.2472 34.2526 8.89247 35.2914L7.68637 35.5791L9.31669 42.4136C11.0278 49.5866 17.1657 52.4805 22.0976 54.8058L22.9949 55.2288Z" fill="#D84025"/>
</g>
<g filter="url(#filter1_d_462_523)">
<path d="M8.8924 35.2915C13.2471 34.2527 16.0774 31.5681 15.476 29.047L16.6821 28.7593L22.9959 55.2274L22.9947 55.2289L22.0975 54.8058C17.1657 52.4805 11.0277 49.5867 9.31661 42.4137L7.68629 35.5792L8.8924 35.2915Z" fill="#A13023"/>
</g>
<g clip-path="url(#clip1_462_523)">
<g filter="url(#filter2_d_462_523)">
<path fill-rule="evenodd" clip-rule="evenodd" d="M54.4435 22.5884C54.7527 23.844 55.0606 25.0985 55.3672 26.3521C52.543 27.9683 48.977 28.8709 44.4976 28.8724V23.689L54.4435 22.5884Z" fill="#535353"/>
<path fill-rule="evenodd" clip-rule="evenodd" d="M34.5598 22.5884C34.2464 23.844 33.9358 25.0985 33.6279 26.3521C36.4582 27.9683 40.016 28.8709 44.4975 28.8724V23.689L34.5598 22.5884Z" fill="#676767"/>
<path fill-rule="evenodd" clip-rule="evenodd" d="M42.2743 9.07588C35.8217 3.36946 48.0228 3.9102 51.4613 1.01903C51.704 1.26045 51.8479 1.55072 51.8752 1.85373C51.9024 2.15675 51.8117 2.45916 51.6144 2.72336C53.1408 3.67159 55.8243 2.37785 57.2793 4.19529C55.6304 4.12402 54.6264 4.61827 54.0142 5.27986C58.5363 4.75617 56.767 7.94327 60.6321 8.123C57.7527 9.34238 50.9899 7.00124 46.8086 9.85058C44.921 9.7979 44.1619 9.13321 42.2743 9.07588Z" fill="#A23023"/>
<path fill-rule="evenodd" clip-rule="evenodd" d="M60.6302 8.0703C57.78 9.32968 51.0667 6.93003 46.916 9.85058C46.1437 9.81775 45.3837 9.6841 44.6675 9.45514C50.0964 4.6606 54.9136 8.91676 60.6322 8.0703H60.6302Z" fill="#1A1A1A"/>
<path fill-rule="evenodd" clip-rule="evenodd" d="M42.6515 8.59112C43.3966 8.64917 44.1275 8.78311 44.8236 8.98919L44.8728 9.00139C44.6296 8.72991 44.3906 8.45843 44.1556 8.18695C42.0203 6.37049 46.5142 4.22153 49.2397 3.78076C50.2213 4.41523 51.7336 4.11477 52.5082 4.56012C51.8401 5.10003 51.4262 6.03342 50.7561 6.57333C58.4079 5.79855 54.9222 7.64094 58.5943 7.99783C58.3472 7.87284 58.1227 7.7247 57.9263 7.55706C56.6968 6.51233 56.8792 5.3715 54.1988 5.67654L52.707 5.84583C52.9706 5.57333 53.2363 5.30135 53.5041 5.02987C54.1084 4.39929 55.0179 3.96788 56.041 3.82652C55.8012 3.72207 55.537 3.65222 55.2623 3.62062C55.0005 3.59112 54.7362 3.57532 54.4713 3.57334C53.2787 3.55199 52.1414 3.62215 51.1926 3.05173L50.8401 2.83669C50.9098 2.74213 50.9815 2.64909 51.045 2.55606C51.2036 2.34725 51.2703 2.10668 51.2356 1.86821C50.0061 2.56216 48.3052 3.02886 46.8482 3.41625C45.6945 3.72128 44.4835 4.02631 43.3892 4.40608C42.6166 4.67756 41.7498 5.05427 41.34 5.56978C40.5961 6.53063 41.7457 7.77973 42.6515 8.59112Z" fill="#EF4123"/>
<path fill-rule="evenodd" clip-rule="evenodd" d="M43.726 8.71744C44.1138 8.79334 44.4961 8.88402 44.8716 8.98912L44.9206 9.0014C44.6783 8.72818 44.4401 8.45496 44.2059 8.18175C42.0781 6.35365 46.5563 4.19094 49.2722 3.74734C50.2504 4.38587 51.7574 4.08349 52.5293 4.53169C51.8636 5.07506 51.4511 6.01443 50.7833 6.55779C58.4083 5.77805 54.9348 7.63224 58.5941 7.99142C56.6889 7.61843 56.7236 6.27076 55.6413 5.94689C54.5591 5.62302 53.1296 6.369 52.0392 6.04513C52.1535 5.42041 52.6702 4.91235 53.4216 4.13721C52.3782 3.66292 49.746 4.08656 50.2932 2.71741C47.951 4.65909 40.4057 3.85479 43.2686 8.55013L43.726 8.71744Z" fill="#D03927"/>
<path d="M44.4128 12.7378C46.3357 12.7378 47.8945 11.7113 47.8945 10.445C47.8945 9.17873 46.3357 8.15221 44.4128 8.15221C42.4899 8.15221 40.9312 9.17873 40.9312 10.445C40.9312 11.7113 42.4899 12.7378 44.4128 12.7378Z" fill="#CDCCCC"/>
<path fill-rule="evenodd" clip-rule="evenodd" d="M44.4279 10.5299C48.7929 10.5299 52.5226 12.2605 54.0145 14.7017C54.8158 14.959 55.3671 15.4889 55.3671 16.0954C55.363 16.297 55.3022 16.4958 55.1885 16.6786C55.0748 16.8615 54.9108 17.0244 54.7072 17.1567C54.6334 20.7267 50.0594 23.6074 44.4279 23.6074C38.7964 23.6074 34.2388 20.7328 34.1527 17.1721C33.94 17.0393 33.7679 16.8739 33.648 16.6871C33.5282 16.5003 33.4634 16.2964 33.458 16.0893C33.458 15.4767 34.0277 14.9361 34.8474 14.6834C36.3455 12.2483 40.069 10.5299 44.4279 10.5299Z" fill="#8B8A8A"/>
<path fill-rule="evenodd" clip-rule="evenodd" d="M42.7993 20.2107C46.6373 20.2107 49.7626 18.2312 49.7626 15.7949C49.7626 13.3586 46.6312 11.3791 42.7993 11.3791C38.9674 11.3791 35.8359 13.3586 35.8359 15.7949C35.8359 18.2312 38.9592 20.2107 42.7993 20.2107Z" fill="#989898"/>
<path fill-rule="evenodd" clip-rule="evenodd" d="M40.6764 15.2854C42.1273 15.2854 43.3089 14.5219 43.3089 13.587C43.3089 12.6521 42.1273 11.8886 40.6764 11.8886C39.2256 11.8886 38.0439 12.6506 38.0439 13.587C38.0439 14.5234 39.2379 15.2854 40.6764 15.2854Z" fill="#ACACAC"/>
<path fill-rule="evenodd" clip-rule="evenodd" d="M44.4976 14.2665H44.398C43.0095 14.2611 41.6314 14.4487 40.3311 14.82L32.7788 16.9646V23.3547C36.0832 26.2792 39.9366 28.5695 44.4976 30.0613V14.2665Z" fill="#CDCCCC"/>
<path fill-rule="evenodd" clip-rule="evenodd" d="M42.7991 15.2854C42.1973 15.3615 41.6069 15.484 41.0364 15.6509L39.5886 16.0678V26.7622C40.6103 27.3513 41.6823 27.8861 42.7971 28.3629V15.2854H42.7991ZM38.9088 16.2638L36.6568 16.9125V24.8458C37.3687 25.37 38.1187 25.8771 38.9088 26.3593V16.2638ZM35.979 17.1069L34.4771 17.5394V23.0865C34.9583 23.5096 35.459 23.9244 35.979 24.3309V17.1069Z" fill="#333333"/>
<path fill-rule="evenodd" clip-rule="evenodd" d="M44.4976 14.2664H44.5972C45.9823 14.262 47.3568 14.4496 48.6539 14.82L56.2164 16.963V23.3532C52.91 26.2792 49.0566 28.5695 44.4976 30.0613V14.2664Z" fill="#B4B4B4"/>
<path fill-rule="evenodd" clip-rule="evenodd" d="M46.1958 15.2854C46.8099 15.3618 47.4126 15.4842 47.9949 15.6509L49.4726 16.0678V26.7622C48.4294 27.3509 47.3354 27.8857 46.1978 28.3629V15.2854H46.1958ZM50.1665 16.2638L52.4629 16.9125V24.8458C51.7383 25.37 50.9729 25.8771 50.1665 26.3593V16.2638ZM53.1567 17.1069L54.6877 17.5394V23.0865C54.1978 23.5096 53.6875 23.9244 53.1567 24.3309V17.1069Z" fill="#1A1A1A"/>
<path fill-rule="evenodd" clip-rule="evenodd" d="M43.5342 8.66171C44.1861 8.66171 44.4987 8.96658 44.2334 9.34106C44.0654 9.54106 43.8244 9.70854 43.5335 9.82748C43.2426 9.94643 42.9115 10.0129 42.5719 10.0204C41.922 10.0204 41.6095 9.71693 41.8747 9.34106C42.0429 9.14144 42.2836 8.97423 42.574 8.85532C42.8645 8.73642 43.195 8.66977 43.5342 8.66171Z" fill="#E3E3E3"/>
</g>
</g>
<g clip-path="url(#clip2_462_523)">
<g filter="url(#filter3_d_462_523)">
<path fill-rule="evenodd" clip-rule="evenodd" d="M60.0088 47.2835L60.1448 47.3539C60.299 47.4366 60.4706 47.4818 60.6455 47.4856C60.8205 47.4894 60.9939 47.4517 61.1515 47.3758C61.3113 47.3045 61.452 47.1966 61.5623 47.0608C61.6726 46.925 61.7493 46.7652 61.7862 46.5942C62.0988 45.228 62.7241 43.5585 63.6136 41.8343C64.5031 40.1102 65.502 38.6345 66.4275 37.5888C66.5434 37.4585 66.6281 37.3034 66.6749 37.1354C66.7217 36.9673 66.7295 36.7908 66.6977 36.6194C66.6659 36.4479 66.5953 36.2859 66.4913 36.1459C66.3873 36.0059 66.2526 35.8915 66.0976 35.8114L65.9601 35.7411L66.526 34.6469L69.1835 36.0162L71.841 37.384L71.2751 38.4782L71.1391 38.4079C70.9834 38.3264 70.8111 38.2819 70.6354 38.2778C70.4598 38.2736 70.2855 38.31 70.1262 38.3841C69.9668 38.4582 69.8267 38.5679 69.7166 38.7049C69.6066 38.8418 69.5295 39.0023 69.4914 39.1738C69.1788 40.5385 68.5535 42.2095 67.664 43.9321C66.7745 45.6547 65.7756 47.1319 64.8502 48.1777C64.7342 48.3081 64.6496 48.4633 64.6027 48.6315C64.5559 48.7996 64.5481 48.9762 64.5799 49.1478C64.6117 49.3194 64.6823 49.4815 64.7863 49.6216C64.8903 49.7618 65.025 49.8764 65.18 49.9566L65.3176 50.0269L64.7517 51.1211L62.0941 49.7534L59.4429 48.3793L60.0088 47.2835Z" fill="#CA3927"/>
<path fill-rule="evenodd" clip-rule="evenodd" d="M66.7735 38.234C67.2118 38.4627 66.6031 40.5413 65.412 42.8737C64.221 45.2061 62.8998 46.9135 62.4692 46.6848C62.0386 46.4561 62.6396 44.3775 63.8306 42.0451C65.0217 39.7127 66.3351 38.0053 66.7735 38.234Z" fill="#F04B23"/>
<path fill-rule="evenodd" clip-rule="evenodd" d="M86.1073 3.39676L84.6829 11.4454L71.396 37.1944L67.0854 34.9698L80.3724 9.22071L86.1073 3.39676Z" fill="#D1D2D2"/>
<path fill-rule="evenodd" clip-rule="evenodd" d="M81.8078 7.74437L84.07 6.27116L83.2745 11.0728L71.3315 37.1944L84.6768 11.4454L86.1074 3.39676L81.8078 7.74437Z" fill="#E6E6E5"/>
<path fill-rule="evenodd" clip-rule="evenodd" d="M82.371 10.6998L76.0931 23.5217L69.8136 36.3452L69.1282 35.9965L68.4443 35.6477L75.4077 23.1745L82.371 10.6998Z" fill="#818181"/>
<path fill-rule="evenodd" clip-rule="evenodd" d="M65.7724 33.4234L73.372 37.3669C73.7628 37.0841 74.2369 36.9418 74.7179 36.9631C75.1989 36.9844 75.6587 37.168 76.0233 37.4842C76.3878 37.8005 76.6358 38.231 76.7273 38.7064C76.8188 39.1817 76.7484 39.6742 76.5275 40.1044C76.3066 40.5346 75.9481 40.8775 75.5097 41.0777C75.0714 41.2779 74.5787 41.3238 74.1113 41.208C73.6438 41.0922 73.2287 40.8214 72.933 40.4394C72.6372 40.0573 72.478 39.5862 72.4811 39.1021L64.8815 35.1585C64.4903 35.4422 64.0154 35.585 63.5336 35.5639C63.0518 35.5429 62.591 35.3592 62.2257 35.0425C61.8604 34.7258 61.6119 34.2946 61.5201 33.8185C61.4284 33.3423 61.4989 32.8489 61.7201 32.418C61.9414 31.987 62.3006 31.6436 62.7398 31.4431C63.1789 31.2426 63.6724 31.1968 64.1407 31.3129C64.609 31.4291 65.0246 31.7005 65.3207 32.0834C65.6167 32.4663 65.7759 32.9384 65.7724 33.4234Z" fill="#333333"/>
</g>
</g>
<g filter="url(#filter4_d_462_523)">
<path d="M12.6874 76.116V84H11.7754V76.116H8.84742V75.252H15.6154V76.116H12.6874ZM22.0056 84H21.1296V80.532C21.1296 79.98 20.9896 79.54 20.7096 79.212C20.4296 78.884 20.0216 78.72 19.4856 78.72C18.9656 78.72 18.5376 78.9 18.2016 79.26C17.8736 79.628 17.7096 80.076 17.7096 80.604V84H16.8336V74.904H17.7096V79.104C18.1736 78.32 18.8536 77.928 19.7496 77.928C20.4536 77.928 21.0096 78.144 21.4176 78.576C21.8096 79.032 22.0056 79.612 22.0056 80.316V84ZM29.168 81.288H24.344C24.376 81.872 24.596 82.356 25.004 82.74C25.404 83.132 25.896 83.328 26.48 83.328C26.936 83.328 27.324 83.22 27.644 83.004C27.964 82.78 28.192 82.464 28.328 82.056L29.096 82.296C28.928 82.856 28.604 83.3 28.124 83.628C27.628 83.948 27.084 84.108 26.492 84.108C25.932 84.108 25.416 83.968 24.944 83.688C24.472 83.408 24.112 83.032 23.864 82.56C23.6 82.096 23.468 81.58 23.468 81.012C23.468 80.468 23.592 79.964 23.84 79.5C24.072 79.028 24.42 78.648 24.884 78.36C25.332 78.072 25.828 77.928 26.372 77.928C26.972 77.928 27.484 78.064 27.908 78.336C28.34 78.6 28.66 78.964 28.868 79.428C29.076 79.868 29.18 80.392 29.18 81C29.18 81.104 29.176 81.2 29.168 81.288ZM24.356 80.544H28.304C28.248 80 28.048 79.552 27.704 79.2C27.368 78.864 26.924 78.696 26.372 78.696C25.868 78.696 25.424 78.876 25.04 79.236C24.656 79.612 24.428 80.048 24.356 80.544ZM37.7864 84.096C36.5624 84.096 35.5304 83.684 34.6904 82.86C34.2984 82.468 33.9904 82 33.7664 81.456C33.5344 80.88 33.4184 80.28 33.4184 79.656C33.4184 79 33.5384 78.392 33.7784 77.832C34.0264 77.256 34.3424 76.78 34.7264 76.404C35.5824 75.572 36.6144 75.156 37.8224 75.156C38.7344 75.156 39.5104 75.38 40.1504 75.828C40.4224 76.004 40.6784 76.228 40.9184 76.5C41.3184 76.964 41.5904 77.476 41.7344 78.036L40.8584 78.348C40.7704 78.012 40.5984 77.66 40.3424 77.292C40.1584 77.044 39.9704 76.84 39.7784 76.68C39.5544 76.488 39.2744 76.336 38.9384 76.224C38.6024 76.096 38.2224 76.032 37.7984 76.032C36.8544 76.032 36.0544 76.36 35.3984 77.016C34.7184 77.696 34.3784 78.556 34.3784 79.596C34.3784 80.292 34.5264 80.912 34.8224 81.456C35.1104 82.008 35.5224 82.44 36.0584 82.752C36.5704 83.064 37.1544 83.22 37.8104 83.22C38.5784 83.22 39.2184 83.016 39.7304 82.608C39.9624 82.432 40.1544 82.232 40.3064 82.008C40.4584 81.808 40.5824 81.608 40.6784 81.408C40.7584 81.216 40.8264 81.04 40.8824 80.88L41.7584 81.192C41.6144 81.712 41.3464 82.208 40.9544 82.68C40.7464 82.928 40.4944 83.164 40.1984 83.388C39.5344 83.86 38.7304 84.096 37.7864 84.096ZM45.8054 84.108C45.2534 84.108 44.7374 83.972 44.2574 83.7C43.7854 83.42 43.4174 83.048 43.1534 82.584C42.8814 82.12 42.7454 81.604 42.7454 81.036C42.7454 80.148 43.0414 79.412 43.6334 78.828C44.2254 78.228 44.9574 77.928 45.8294 77.928C46.6774 77.912 47.4054 78.212 48.0134 78.828C48.6294 79.436 48.9294 80.16 48.9134 81C48.9294 81.864 48.6294 82.604 48.0134 83.22C47.3974 83.828 46.6614 84.124 45.8054 84.108ZM45.8294 83.328C46.4534 83.328 46.9774 83.104 47.4014 82.656C47.8094 82.208 48.0134 81.668 48.0134 81.036C48.0134 80.396 47.8054 79.844 47.3894 79.38C46.9654 78.924 46.4374 78.696 45.8054 78.696C45.1734 78.696 44.6534 78.92 44.2454 79.368C43.8374 79.816 43.6334 80.36 43.6334 81C43.6174 81.632 43.8214 82.18 44.2454 82.644C44.6774 83.108 45.2054 83.336 45.8294 83.328ZM50.899 80.988C50.899 81.884 51.235 82.552 51.907 82.992C52.235 83.216 52.619 83.328 53.059 83.328C53.539 83.328 53.947 83.204 54.283 82.956C54.403 82.868 54.527 82.748 54.655 82.596C54.831 82.364 54.963 82.132 55.051 81.9L55.855 82.164C55.719 82.644 55.415 83.076 54.943 83.46C54.431 83.892 53.799 84.108 53.047 84.108C52.191 84.124 51.467 83.836 50.875 83.244C50.291 82.652 50.003 81.916 50.011 81.036C50.011 80.46 50.151 79.928 50.431 79.44C50.711 78.96 51.083 78.588 51.547 78.324C52.011 78.06 52.523 77.928 53.083 77.928C53.755 77.928 54.347 78.112 54.859 78.48C55.379 78.872 55.699 79.324 55.819 79.836L55.027 80.1C54.939 79.78 54.723 79.468 54.379 79.164C54.043 78.86 53.603 78.708 53.059 78.708C52.435 78.708 51.919 78.928 51.511 79.368C51.103 79.816 50.899 80.356 50.899 80.988ZM59.2542 80.556H60.9102V80.16C60.9102 79.192 60.4022 78.708 59.3862 78.708C58.8982 78.708 58.5222 78.84 58.2582 79.104C58.0182 79.344 57.8742 79.616 57.8262 79.92L56.9862 79.74C56.9942 79.572 57.0742 79.36 57.2262 79.104C57.3782 78.848 57.5782 78.62 57.8262 78.42C58.2502 78.092 58.7782 77.928 59.4102 77.928C60.4982 77.928 61.2222 78.34 61.5822 79.164C61.7022 79.444 61.7622 79.772 61.7622 80.148V81.828C61.7622 82.804 61.7942 83.528 61.8582 84H60.9942C60.9382 83.696 60.9102 83.348 60.9102 82.956C60.4062 83.724 59.7342 84.108 58.8942 84.108C58.2942 84.108 57.8142 83.94 57.4542 83.604C57.0782 83.276 56.8902 82.856 56.8902 82.344V82.284C56.8902 81.692 57.1262 81.256 57.5982 80.976C58.0782 80.696 58.6302 80.556 59.2542 80.556ZM60.9102 81.48V81.276H59.2422C58.8742 81.276 58.5502 81.344 58.2702 81.48C57.9342 81.624 57.7662 81.888 57.7662 82.272C57.7662 82.6 57.8902 82.86 58.1382 83.052C58.3782 83.244 58.6822 83.34 59.0502 83.34C59.5702 83.34 60.0142 83.164 60.3822 82.812C60.7342 82.476 60.9102 82.032 60.9102 81.48ZM63.5177 80.964V80.04H66.7097V80.964H63.5177ZM72.5207 84.096C71.2967 84.096 70.2647 83.684 69.4247 82.86C69.0327 82.468 68.7247 82 68.5007 81.456C68.2687 80.88 68.1527 80.28 68.1527 79.656C68.1527 79 68.2727 78.392 68.5127 77.832C68.7607 77.256 69.0767 76.78 69.4607 76.404C70.3167 75.572 71.3487 75.156 72.5567 75.156C73.4687 75.156 74.2447 75.38 74.8847 75.828C75.1567 76.004 75.4127 76.228 75.6527 76.5C76.0527 76.964 76.3247 77.476 76.4687 78.036L75.5927 78.348C75.5047 78.012 75.3327 77.66 75.0767 77.292C74.8927 77.044 74.7047 76.84 74.5127 76.68C74.2887 76.488 74.0087 76.336 73.6727 76.224C73.3367 76.096 72.9567 76.032 72.5327 76.032C71.5887 76.032 70.7887 76.36 70.1327 77.016C69.4527 77.696 69.1127 78.556 69.1127 79.596C69.1127 80.292 69.2607 80.912 69.5567 81.456C69.8447 82.008 70.2567 82.44 70.7927 82.752C71.3047 83.064 71.8887 83.22 72.5447 83.22C73.3127 83.22 73.9527 83.016 74.4647 82.608C74.6967 82.432 74.8887 82.232 75.0407 82.008C75.1927 81.808 75.3167 81.608 75.4127 81.408C75.4927 81.216 75.5607 81.04 75.6167 80.88L76.4927 81.192C76.3487 81.712 76.0807 82.208 75.6887 82.68C75.4807 82.928 75.2287 83.164 74.9327 83.388C74.2687 83.86 73.4647 84.096 72.5207 84.096ZM80.5397 84.108C79.9877 84.108 79.4717 83.972 78.9917 83.7C78.5197 83.42 78.1517 83.048 77.8877 82.584C77.6157 82.12 77.4797 81.604 77.4797 81.036C77.4797 80.148 77.7757 79.412 78.3677 78.828C78.9597 78.228 79.6917 77.928 80.5637 77.928C81.4117 77.912 82.1397 78.212 82.7477 78.828C83.3637 79.436 83.6637 80.16 83.6477 81C83.6637 81.864 83.3637 82.604 82.7477 83.22C82.1317 83.828 81.3957 84.124 80.5397 84.108ZM80.5637 83.328C81.1877 83.328 81.7117 83.104 82.1357 82.656C82.5437 82.208 82.7477 81.668 82.7477 81.036C82.7477 80.396 82.5397 79.844 82.1237 79.38C81.6997 78.924 81.1717 78.696 80.5397 78.696C79.9077 78.696 79.3877 78.92 78.9797 79.368C78.5717 79.816 78.3677 80.36 78.3677 81C78.3517 81.632 78.5557 82.18 78.9797 82.644C79.4117 83.108 79.9397 83.336 80.5637 83.328ZM85.1774 84V74.892H86.0534V84H85.1774ZM89.969 80.556H91.625V80.16C91.625 79.192 91.117 78.708 90.101 78.708C89.613 78.708 89.237 78.84 88.973 79.104C88.733 79.344 88.589 79.616 88.541 79.92L87.701 79.74C87.709 79.572 87.789 79.36 87.941 79.104C88.093 78.848 88.293 78.62 88.541 78.42C88.965 78.092 89.493 77.928 90.125 77.928C91.213 77.928 91.937 78.34 92.297 79.164C92.417 79.444 92.477 79.772 92.477 80.148V81.828C92.477 82.804 92.509 83.528 92.573 84H91.709C91.653 83.696 91.625 83.348 91.625 82.956C91.121 83.724 90.449 84.108 89.609 84.108C89.009 84.108 88.529 83.94 88.169 83.604C87.793 83.276 87.605 82.856 87.605 82.344V82.284C87.605 81.692 87.841 81.256 88.313 80.976C88.793 80.696 89.345 80.556 89.969 80.556ZM91.625 81.48V81.276H89.957C89.589 81.276 89.265 81.344 88.985 81.48C88.649 81.624 88.481 81.888 88.481 82.272C88.481 82.6 88.605 82.86 88.853 83.052C89.093 83.244 89.397 83.34 89.765 83.34C90.285 83.34 90.729 83.164 91.097 82.812C91.449 82.476 91.625 82.032 91.625 81.48ZM39.7113 93.004V92.716C39.7113 91.564 39.9913 90.516 40.5513 89.572C41.1033 88.62 41.8833 87.856 42.8913 87.28L43.2513 87.844C41.4833 88.98 40.5993 90.608 40.5993 92.728V92.992C40.5993 95.096 41.4833 96.72 43.2513 97.864L42.8913 98.452C41.8833 97.868 41.1033 97.1 40.5513 96.148C39.9913 95.204 39.7113 94.156 39.7113 93.004ZM45.6887 97H44.7647V88.252H45.6887V92.116H45.7487L49.6727 88.252H50.9447L46.6607 92.44L51.1487 97H49.8527L45.7487 92.788H45.6887V97ZM59.1948 92.608C59.1948 93.432 59.0068 94.188 58.6308 94.876C58.2468 95.556 57.7188 96.096 57.0468 96.496C56.3588 96.896 55.6028 97.096 54.7788 97.096C54.1788 97.096 53.5988 96.98 53.0388 96.748C52.4868 96.516 52.0228 96.2 51.6468 95.8C51.2708 95.424 50.9668 94.956 50.7348 94.396C50.5108 93.82 50.3988 93.24 50.3988 92.656C50.3988 91.824 50.5908 91.068 50.9748 90.388C51.3508 89.692 51.8788 89.148 52.5588 88.756C53.2228 88.364 53.9748 88.168 54.8148 88.168C55.4308 88.168 56.0108 88.28 56.5548 88.504C57.0988 88.744 57.5628 89.056 57.9468 89.44C58.3468 89.864 58.6508 90.336 58.8588 90.856C59.0828 91.4 59.1948 91.984 59.1948 92.608ZM58.2468 92.656C58.2468 91.656 57.9268 90.804 57.2868 90.1C56.6308 89.38 55.7948 89.02 54.7788 89.02C54.1468 89.02 53.5588 89.18 53.0148 89.5C52.4868 89.836 52.0788 90.272 51.7908 90.808C51.5028 91.36 51.3588 91.96 51.3588 92.608C51.3588 93.616 51.6788 94.464 52.3188 95.152C52.9748 95.872 53.8068 96.232 54.8148 96.232C55.4548 96.232 56.0428 96.068 56.5788 95.74C57.1068 95.436 57.5188 95.004 57.8148 94.444C58.1028 93.9 58.2468 93.304 58.2468 92.656ZM62.2873 92.716V93.004C62.2873 94.164 62.0113 95.216 61.4593 96.16C60.8993 97.104 60.1153 97.868 59.1073 98.452L58.7473 97.864C60.5153 96.72 61.3993 95.096 61.3993 92.992V92.728C61.3993 90.608 60.5153 88.98 58.7473 87.844L59.1073 87.28C60.1153 87.848 60.8993 88.608 61.4593 89.56C62.0113 90.512 62.2873 91.564 62.2873 92.716Z" fill="white"/>
</g>
<defs>
<filter id="filter0_d_462_523" x="3.68652" y="28.4716" width="30.1289" height="34.7573" filterUnits="userSpaceOnUse" color-interpolation-filters="sRGB">
<feFlood flood-opacity="0" result="BackgroundImageFix"/>
<feColorMatrix in="SourceAlpha" type="matrix" values="0 0 0 0 0 0 0 0 0 0 0 0 0 0 0 0 0 0 127 0" result="hardAlpha"/>
<feOffset dy="4"/>
<feGaussianBlur stdDeviation="2"/>
<feComposite in2="hardAlpha" operator="out"/>
<feColorMatrix type="matrix" values="0 0 0 0 0 0 0 0 0 0 0 0 0 0 0 0 0 0 0.25 0"/>
<feBlend mode="normal" in2="BackgroundImageFix" result="effect1_dropShadow_462_523"/>
<feBlend mode="normal" in="SourceGraphic" in2="effect1_dropShadow_462_523" result="shape"/>
</filter>
<filter id="filter1_d_462_523" x="3.68652" y="28.7593" width="23.3096" height="34.4696" filterUnits="userSpaceOnUse" color-interpolation-filters="sRGB">
<feFlood flood-opacity="0" result="BackgroundImageFix"/>
<feColorMatrix in="SourceAlpha" type="matrix" values="0 0 0 0 0 0 0 0 0 0 0 0 0 0 0 0 0 0 127 0" result="hardAlpha"/>
<feOffset dy="4"/>
<feGaussianBlur stdDeviation="2"/>
<feComposite in2="hardAlpha" operator="out"/>
<feColorMatrix type="matrix" values="0 0 0 0 0 0 0 0 0 0 0 0 0 0 0 0 0 0 0.25 0"/>
<feBlend mode="normal" in2="BackgroundImageFix" result="effect1_dropShadow_462_523"/>
<feBlend mode="normal" in="SourceGraphic" in2="effect1_dropShadow_462_523" result="shape"/>
</filter>
<filter id="filter2_d_462_523" x="22.7788" y="-4.98097" width="47.8535" height="49.0422" filterUnits="userSpaceOnUse" color-interpolation-filters="sRGB">
<feFlood flood-opacity="0" result="BackgroundImageFix"/>
<feColorMatrix in="SourceAlpha" type="matrix" values="0 0 0 0 0 0 0 0 0 0 0 0 0 0 0 0 0 0 127 0" result="hardAlpha"/>
<feOffset dy="4"/>
<feGaussianBlur stdDeviation="5"/>
<feComposite in2="hardAlpha" operator="out"/>
<feColorMatrix type="matrix" values="0 0 0 0 0 0 0 0 0 0 0 0 0 0 0 0 0 0 0.5 0"/>
<feBlend mode="normal" in2="BackgroundImageFix" result="effect1_dropShadow_462_523"/>
<feBlend mode="normal" in="SourceGraphic" in2="effect1_dropShadow_462_523" result="shape"/>
</filter>
<filter id="filter3_d_462_523" x="49.4429" y="-2.60324" width="46.6646" height="67.7244" filterUnits="userSpaceOnUse" color-interpolation-filters="sRGB">
<feFlood flood-opacity="0" result="BackgroundImageFix"/>
<feColorMatrix in="SourceAlpha" type="matrix" values="0 0 0 0 0 0 0 0 0 0 0 0 0 0 0 0 0 0 127 0" result="hardAlpha"/>
<feOffset dy="4"/>
<feGaussianBlur stdDeviation="5"/>
<feComposite in2="hardAlpha" operator="out"/>
<feColorMatrix type="matrix" values="0 0 0 0 0 0 0 0 0 0 0 0 0 0 0 0 0 0 0.5 0"/>
<feBlend mode="normal" in2="BackgroundImageFix" result="effect1_dropShadow_462_523"/>
<feBlend mode="normal" in="SourceGraphic" in2="effect1_dropShadow_462_523" result="shape"/>
</filter>
<filter id="filter4_d_462_523" x="6.84766" y="74.892" width="87.7256" height="27.56" filterUnits="userSpaceOnUse" color-interpolation-filters="sRGB">
<feFlood flood-opacity="0" result="BackgroundImageFix"/>
<feColorMatrix in="SourceAlpha" type="matrix" values="0 0 0 0 0 0 0 0 0 0 0 0 0 0 0 0 0 0 127 0" result="hardAlpha"/>
<feOffset dy="2"/>
<feGaussianBlur stdDeviation="1"/>
<feComposite in2="hardAlpha" operator="out"/>
<feColorMatrix type="matrix" values="0 0 0 0 0 0 0 0 0 0 0 0 0 0 0 0 0 0 0.5 0"/>
<feBlend mode="normal" in2="BackgroundImageFix" result="effect1_dropShadow_462_523"/>
<feBlend mode="normal" in="SourceGraphic" in2="effect1_dropShadow_462_523" result="shape"/>
</filter>
<clipPath id="clip0_462_523">
<rect width="34" height="10.6652" fill="white" transform="translate(27 42)"/>
</clipPath>
<clipPath id="clip1_462_523">
<rect width="30.5708" height="31.8649" fill="white" transform="translate(31.9297)"/>
</clipPath>
<clipPath id="clip2_462_523">
<rect width="28.8843" height="51.8684" fill="white" transform="translate(59.6128)"/>
</clipPath>
</defs>
</svg>
