<svg width="90" height="88" viewBox="0 0 90 88" fill="none" xmlns="http://www.w3.org/2000/svg">
<rect x="21.5801" y="22.5757" width="45.9342" height="44.8879" rx="22.444" fill="#3CBFB8"/>
<rect x="21.5801" y="22.5757" width="45.9342" height="44.8879" rx="22.444" stroke="#CDCCCC"/>
<path d="M40.5087 44.5619C40.5087 45.301 40.4294 45.6701 39.8811 45.6701C39.3087 45.6701 39.2183 45.3345 39.2183 44.6637V38.7634H34.7736V45.6932C34.7736 46.8987 35.0705 47.8915 35.7663 48.6719C36.462 49.4513 37.3218 49.8414 38.3959 49.8414C39.1223 49.8414 39.8517 49.6235 40.609 49.1859C40.1918 50.731 39.254 51.5036 37.8469 51.5036C37.4066 51.5036 36.9861 51.3828 36.2915 51.1409C36.2915 51.1409 35.6341 50.9368 34.7736 50.4474V54.0478C34.7736 54.0478 35.6295 54.572 36.2915 54.8159C37.1024 55.1171 37.9006 55.2681 38.7044 55.2681C40.5365 55.2681 42.0687 54.582 43.3595 53.2105C44.4414 52.0574 44.9536 50.5423 44.9536 48.6662V38.7634H40.5087V44.5619ZM50.5862 34.321C45.3114 34.7855 45.6701 40.3001 45.6701 40.3001V49.9437C48.5378 49.9437 49.9713 48.5978 49.9713 46.7341V45.4746H52.0866V41.28H49.9713V40.7186C49.9713 40.063 50.1488 39.5583 50.4464 39.2037C50.7378 38.8578 51.1633 38.6819 51.6938 38.674C52.0475 38.6779 52.6977 38.7925 52.8291 39.2912L52.8388 39.3308V43.7027C52.8388 45.3084 53.1482 46.5972 53.8132 47.5696C54.3384 48.3307 55.0242 48.9335 55.8938 49.3787C56.7633 49.823 57.6778 50.0444 58.6599 50.0444C58.7682 50.0444 58.965 50.0414 59.1472 50.0334V45.591C58.2381 45.591 57.8481 45.4267 57.5586 45.087C57.2685 44.7479 57.1283 44.0765 57.1283 43.2374H58.6764V38.7634H57.2104C56.9345 37.0857 55.9041 34.5584 52.0817 34.2769C52.0817 34.2769 51.6292 34.2602 51.2745 34.2724C50.9979 34.2821 50.5862 34.321 50.5862 34.321ZM35.5592 49.5946L35.5624 49.6013C35.0677 49.8973 34.4868 50.1027 34.0569 50.2114V50.2342L34.042 50.2135C33.7788 50.27 33.5178 50.3009 33.2667 50.3009C32.1833 50.3009 31.3153 49.9076 30.6139 49.121C29.9125 48.334 29.6123 47.3326 29.6123 46.1167V34.5586H34.0569V46.1168C34.0569 47.3329 34.3535 48.3343 35.0555 49.121C35.2085 49.2934 35.3771 49.4519 35.5592 49.5946Z" fill="white"/>
<g clip-path="url(#clip0_182_2576)">
<g filter="url(#filter0_d_182_2576)">
<path d="M66.9178 55.4018L66.3041 54.6172C62.939 50.2981 58.7525 44.9249 60.4701 37.7246L62.1066 30.8641L63.3173 31.1529C67.6886 32.1956 71.4401 31.0735 72.0438 28.5428L74.4652 29.1204C73.8615 31.6511 76.7026 34.3459 81.0738 35.3886L82.2845 35.6774L80.648 42.5379C78.9304 49.7382 72.7691 52.6431 67.8185 54.9772L66.9178 55.4018Z" fill="#7AB9E8"/>
</g>
<g filter="url(#filter1_d_182_2576)">
<path d="M81.0738 35.3887C76.7025 34.3459 73.8614 31.6512 74.4651 29.1205L73.2544 28.8317L66.9166 55.4004L66.9178 55.4019L67.8185 54.9773C72.769 52.6431 78.9303 49.7383 80.6479 42.538L82.2845 35.6775L81.0738 35.3887Z" fill="#579ADF"/>
</g>
</g>
<g clip-path="url(#clip1_182_2576)">
<g filter="url(#filter2_d_182_2576)">
<path fill-rule="evenodd" clip-rule="evenodd" d="M35.1481 22.6743C34.8376 23.9347 34.5286 25.194 34.2209 26.4523C37.0558 28.0747 40.6353 28.9807 45.1318 28.9822V23.779L35.1481 22.6743Z" fill="#535353"/>
<path fill-rule="evenodd" clip-rule="evenodd" d="M55.1071 22.6743C55.4216 23.9347 55.7334 25.194 56.0425 26.4523C53.2014 28.0747 49.6301 28.9807 45.1315 28.9822V23.779L55.1071 22.6743Z" fill="#676767"/>
<path fill-rule="evenodd" clip-rule="evenodd" d="M47.3632 9.11046C53.8403 3.38232 41.5928 3.92512 38.1412 1.02295C37.8976 1.26529 37.7531 1.55666 37.7258 1.86083C37.6985 2.165 37.7895 2.46856 37.9876 2.73377C36.4554 3.68561 33.7617 2.38694 32.3011 4.21129C33.9563 4.13975 34.9641 4.63589 35.5786 5.3C31.0393 4.77431 32.8153 7.97354 28.9356 8.15395C31.8259 9.37797 38.6144 7.02792 42.8116 9.8881C44.7064 9.83522 45.4684 9.168 47.3632 9.11046Z" fill="#1B2241"/>
<path fill-rule="evenodd" clip-rule="evenodd" d="M28.9375 8.10108C31.7985 9.36525 38.5373 6.95647 42.7038 9.88814C43.4791 9.85518 44.242 9.72102 44.9609 9.49119C39.5113 4.67842 34.6758 8.95077 28.9355 8.10108H28.9375Z" fill="#1A1A1A"/>
<path fill-rule="evenodd" clip-rule="evenodd" d="M46.9852 8.62385C46.2373 8.68213 45.5036 8.81658 44.8048 9.02344L44.7554 9.03568C44.9995 8.76317 45.2395 8.49066 45.4754 8.21815C47.6188 6.39477 43.1078 4.23764 40.3719 3.79519C39.3866 4.43208 37.8686 4.13048 37.091 4.57752C37.7616 5.11948 38.1771 6.05643 38.8497 6.59839C31.1689 5.82066 34.6678 7.67006 30.9817 8.02831C31.2298 7.90284 31.4552 7.75414 31.6523 7.58586C32.8865 6.53715 32.7034 5.39199 35.394 5.69818L36.8915 5.86812C36.6268 5.59459 36.3601 5.32156 36.0913 5.04905C35.4847 4.41608 34.5718 3.98303 33.5447 3.84112C33.7855 3.73628 34.0507 3.66616 34.3264 3.63444C34.5892 3.60483 34.8546 3.58897 35.1204 3.58698C36.3176 3.56555 37.4592 3.63597 38.4116 3.06339L38.7654 2.84753C38.6955 2.75261 38.6235 2.65922 38.5597 2.56583C38.4005 2.35623 38.3336 2.11475 38.3684 1.87537C39.6026 2.57195 41.3099 3.04043 42.7725 3.42929C43.9306 3.73549 45.1463 4.04168 46.2447 4.42289C47.0202 4.6954 47.8903 5.07355 48.3017 5.59101C49.0484 6.55552 47.8944 7.80938 46.9852 8.62385Z" fill="#4386BB"/>
<path fill-rule="evenodd" clip-rule="evenodd" d="M45.906 8.75064C45.5168 8.82683 45.133 8.91786 44.7561 9.02335L44.7069 9.03568C44.9501 8.76142 45.1893 8.48717 45.4243 8.21291C47.5602 6.37786 43.065 4.20692 40.3387 3.76164C39.3569 4.4026 37.8441 4.09907 37.0693 4.54897C37.7375 5.0944 38.1516 6.03735 38.8219 6.58278C31.1679 5.80007 34.6546 7.66132 30.9814 8.02186C32.8938 7.64745 32.859 6.29466 33.9454 5.96956C35.0318 5.64445 36.4667 6.39327 37.5612 6.06816C37.4465 5.44107 36.9279 4.93108 36.1735 4.15299C37.221 3.6769 39.8632 4.10215 39.3138 2.72778C41.665 4.67685 49.239 3.86949 46.3652 8.5827L45.906 8.75064Z" fill="#283A84"/>
<path d="M45.217 12.7863C43.2868 12.7863 41.7221 11.7559 41.7221 10.4848C41.7221 9.21366 43.2868 8.18323 45.217 8.18323C47.1472 8.18323 48.7119 9.21366 48.7119 10.4848C48.7119 11.7559 47.1472 12.7863 45.217 12.7863Z" fill="#CDCCCC"/>
<path fill-rule="evenodd" clip-rule="evenodd" d="M45.2013 10.5701C40.8197 10.5701 37.0757 12.3072 35.5782 14.7577C34.7739 15.016 34.2205 15.5479 34.2205 16.1567C34.2245 16.3591 34.2856 16.5586 34.3998 16.7422C34.5139 16.9257 34.6785 17.0893 34.8829 17.2221C34.9569 20.8056 39.5484 23.6973 45.2013 23.6973C50.8542 23.6973 55.4291 20.8117 55.5155 17.2375C55.7291 17.1041 55.9019 16.9381 56.0222 16.7506C56.1425 16.5631 56.2075 16.3585 56.2129 16.1506C56.2129 15.5356 55.641 14.993 54.8182 14.7393C53.3144 12.295 49.5767 10.5701 45.2013 10.5701Z" fill="#8B8A8A"/>
<path fill-rule="evenodd" clip-rule="evenodd" d="M46.8363 20.2876C42.9837 20.2876 39.8465 18.3006 39.8465 15.8551C39.8465 13.4095 42.9899 11.4225 46.8363 11.4225C50.6828 11.4225 53.8262 13.4095 53.8262 15.8551C53.8262 18.3006 50.691 20.2876 46.8363 20.2876Z" fill="#989898"/>
<path fill-rule="evenodd" clip-rule="evenodd" d="M48.9674 15.3436C47.511 15.3436 46.3249 14.5772 46.3249 13.6388C46.3249 12.7004 47.511 11.934 48.9674 11.934C50.4237 11.934 51.6099 12.6988 51.6099 13.6388C51.6099 14.5788 50.4114 15.3436 48.9674 15.3436Z" fill="#ACACAC"/>
<path fill-rule="evenodd" clip-rule="evenodd" d="M45.1316 14.3208H45.2317C46.6254 14.3154 48.0088 14.5037 49.314 14.8765L56.895 17.0292V23.4436C53.5781 26.3793 49.71 28.6783 45.1316 30.1757V14.3208Z" fill="#CDCCCC"/>
<path fill-rule="evenodd" clip-rule="evenodd" d="M46.8362 15.3436C47.4403 15.4201 48.033 15.543 48.6056 15.7106L50.059 16.129V26.8641C49.0333 27.4554 47.9573 27.9922 46.8383 28.4709V15.3436H46.8362ZM50.7413 16.3258L53.0019 16.9769V24.9404C52.2873 25.4666 51.5344 25.9756 50.7413 26.4597V16.3258ZM53.6822 17.1721L55.1899 17.6062V23.1744C54.7068 23.5991 54.2043 24.0155 53.6822 24.4236V17.1721Z" fill="#333333"/>
<path fill-rule="evenodd" clip-rule="evenodd" d="M45.1318 14.3208H45.0318C43.6415 14.3163 42.2617 14.5046 40.9596 14.8764L33.3685 17.0276V23.4421C36.6874 26.3793 40.5555 28.6783 45.1318 30.1757V14.3208Z" fill="#B4B4B4"/>
<path fill-rule="evenodd" clip-rule="evenodd" d="M43.4268 15.3436C42.8103 15.4203 42.2054 15.5432 41.6208 15.7106L40.1375 16.129V26.8641C41.1846 27.4551 42.2828 27.9919 43.4247 28.4709V15.3436H43.4268ZM39.441 16.3258L37.1358 16.9769V24.9404C37.8631 25.4666 38.6315 25.9756 39.441 26.4597V16.3258ZM36.4394 17.1721L34.9026 17.6062V23.1744C35.3943 23.5991 35.9065 24.0155 36.4394 24.4236V17.1721Z" fill="#1A1A1A"/>
<path fill-rule="evenodd" clip-rule="evenodd" d="M46.0987 8.6947C45.4444 8.6947 45.1306 9.00073 45.3969 9.37664C45.5655 9.5774 45.8074 9.74551 46.0994 9.86491C46.3915 9.9843 46.7238 10.051 47.0648 10.0586C47.7171 10.0586 48.0308 9.75394 47.7645 9.37664C47.5958 9.17625 47.3542 9.00841 47.0626 8.88905C46.7711 8.76969 46.4393 8.70279 46.0987 8.6947Z" fill="#E3E3E3"/>
</g>
</g>
<g clip-path="url(#clip2_182_2576)">
<g filter="url(#filter3_d_182_2576)">
<path fill-rule="evenodd" clip-rule="evenodd" d="M29.5726 47.4634L29.4361 47.534C29.2813 47.6171 29.109 47.6624 28.9334 47.6662C28.7578 47.67 28.5837 47.6323 28.4255 47.556C28.2651 47.4845 28.1238 47.3762 28.0132 47.2399C27.9025 47.1036 27.8255 46.9431 27.7884 46.7714C27.4746 45.4 26.8469 43.7242 25.954 41.9935C25.0611 40.2628 24.0584 38.7815 23.1294 37.7318C23.0131 37.601 22.9281 37.4453 22.8811 37.2766C22.8341 37.108 22.8263 36.9308 22.8582 36.7587C22.8901 36.5865 22.961 36.424 23.0654 36.2834C23.1698 36.1428 23.305 36.028 23.4605 35.9477L23.5986 35.8771L23.0306 34.7787L20.363 36.1532L17.6953 37.5262L18.2634 38.6246L18.3999 38.554C18.5562 38.4722 18.7292 38.4275 18.9055 38.4234C19.0818 38.4192 19.2567 38.4558 19.4167 38.5301C19.5766 38.6045 19.7173 38.7147 19.8278 38.8521C19.9383 38.9896 20.0156 39.1507 20.0538 39.3228C20.3677 40.6927 20.9953 42.3701 21.8882 44.0992C22.7811 45.8284 23.7838 47.3112 24.7128 48.361C24.8292 48.4919 24.9141 48.6477 24.9611 48.8165C25.0081 48.9852 25.016 49.1625 24.984 49.3348C24.9521 49.507 24.8812 49.6697 24.7768 49.8104C24.6724 49.9511 24.5373 50.0661 24.3817 50.1466L24.2436 50.2172L24.8116 51.3156L27.4793 49.9426L30.1406 48.5634L29.5726 47.4634Z" fill="#4592CF"/>
<path fill-rule="evenodd" clip-rule="evenodd" d="M22.7819 38.3795C22.3419 38.6091 22.9529 40.6956 24.1485 43.0369C25.3441 45.3781 26.6703 47.092 27.1025 46.8625C27.5348 46.6329 26.9315 44.5463 25.7359 42.2051C24.5403 39.8638 23.2219 38.1499 22.7819 38.3795Z" fill="#283A84"/>
<path fill-rule="evenodd" clip-rule="evenodd" d="M3.37457 3.40967L4.80432 11.4889L18.1418 37.3359L22.4688 35.1028L9.13127 9.25577L3.37457 3.40967Z" fill="#D1D2D2"/>
<path fill-rule="evenodd" clip-rule="evenodd" d="M7.69042 7.77382L5.41961 6.295L6.2181 11.1149L18.2065 37.3359L4.81048 11.4889L3.37446 3.40967L7.69042 7.77382Z" fill="#E6E6E5"/>
<path fill-rule="evenodd" clip-rule="evenodd" d="M7.12532 10.7405L13.4271 23.6112L19.7305 36.4835L20.4185 36.1334L21.105 35.7833L14.1151 23.2627L7.12532 10.7405Z" fill="#818181"/>
<path fill-rule="evenodd" clip-rule="evenodd" d="M23.7869 33.5505L16.1584 37.5091C15.7662 37.2252 15.2903 37.0824 14.8074 37.1037C14.3246 37.1251 13.863 37.3094 13.4971 37.6268C13.1312 37.9443 12.8822 38.3765 12.7904 38.8536C12.6986 39.3308 12.7692 39.8251 12.9909 40.257C13.2127 40.6888 13.5726 41.033 14.0126 41.234C14.4526 41.4349 14.9471 41.481 15.4164 41.3648C15.8856 41.2485 16.3023 40.9768 16.5992 40.5932C16.896 40.2097 17.0558 39.7368 17.0527 39.2508L24.6812 35.2923C25.074 35.577 25.5506 35.7203 26.0343 35.6992C26.5179 35.6781 26.9804 35.4937 27.3471 35.1758C27.7138 34.8579 27.9633 34.4251 28.0554 33.9471C28.1475 33.4691 28.0768 32.9739 27.8546 32.5413C27.6325 32.1087 27.272 31.764 26.8311 31.5627C26.3903 31.3615 25.8949 31.3155 25.4249 31.4321C24.9548 31.5487 24.5376 31.8212 24.2404 32.2055C23.9432 32.5899 23.7835 33.0637 23.7869 33.5505Z" fill="#333333"/>
</g>
</g>
<g filter="url(#filter4_d_182_2576)">
<path d="M18.9789 80.8448V72.0968H19.9029V79.9808H24.0549V80.8448H18.9789ZM24.5955 83.7848H23.6475L25.1955 80.4368L22.4835 74.8808H23.4795L25.6635 79.4888L27.7395 74.8808H28.6755L24.5955 83.7848ZM32.1643 72.4928C31.9163 72.4928 31.6963 72.5728 31.5043 72.7328C31.2803 72.9328 31.1683 73.2728 31.1683 73.7528V74.8808H32.7283V75.6368H31.1683V80.8448H30.3043V75.6368H29.1523V74.8808H30.3043V73.7768C30.3043 73.1208 30.4683 72.6088 30.7963 72.2408C31.1323 71.8968 31.5763 71.7248 32.1283 71.7248C32.3603 71.7248 32.5763 71.7608 32.7763 71.8328V72.5648C32.6323 72.5168 32.4283 72.4928 32.1643 72.4928ZM35.9912 80.8928C34.8632 80.8928 34.2992 80.3608 34.2992 79.2968V75.6488H33.1952V74.8808H34.2992V73.1648H35.1632V74.8808H36.6752V75.6488H35.1632V79.2848C35.1632 79.8448 35.4872 80.1248 36.1352 80.1248C36.2872 80.1248 36.4672 80.1088 36.6752 80.0768V80.7968C36.4672 80.8608 36.2392 80.8928 35.9912 80.8928ZM40.8786 76.8488V76.5608C40.8786 75.4088 41.1586 74.3608 41.7186 73.4168C42.2706 72.4648 43.0506 71.7008 44.0586 71.1248L44.4186 71.6888C42.6506 72.8248 41.7666 74.4528 41.7666 76.5728V76.8368C41.7666 78.9408 42.6506 80.5648 44.4186 81.7088L44.0586 82.2968C43.0506 81.7128 42.2706 80.9448 41.7186 79.9928C41.1586 79.0488 40.8786 78.0008 40.8786 76.8488ZM45.932 80.8448V72.0968H46.856V79.9808H51.008V80.8448H45.932ZM52.6806 76.2848L55.4766 72.0968H56.5206L53.1366 77.1488V80.8448H52.2006V77.1608L48.8166 72.0968H49.9206L52.6806 76.2848ZM58.9498 72.9608V76.1048H63.0658V76.9448H58.9498V80.8448H58.0258V72.0968H63.4498V72.9608H58.9498ZM67.9836 72.9608V80.8448H67.0716V72.9608H64.1436V72.0968H70.9116V72.9608H67.9836ZM74.9858 76.5608V76.8488C74.9858 78.0088 74.7098 79.0608 74.1578 80.0048C73.5978 80.9488 72.8138 81.7128 71.8058 82.2968L71.4458 81.7088C73.2138 80.5648 74.0978 78.9408 74.0978 76.8368V76.5728C74.0978 74.4528 73.2138 72.8248 71.4458 71.6888L71.8058 71.1248C72.8138 71.6928 73.5978 72.4528 74.1578 73.4048C74.7098 74.3568 74.9858 75.4088 74.9858 76.5608Z" fill="white"/>
</g>
<defs>
<filter id="filter0_d_182_2576" x="52.0713" y="28.5428" width="30.2134" height="34.859" filterUnits="userSpaceOnUse" color-interpolation-filters="sRGB">
<feFlood flood-opacity="0" result="BackgroundImageFix"/>
<feColorMatrix in="SourceAlpha" type="matrix" values="0 0 0 0 0 0 0 0 0 0 0 0 0 0 0 0 0 0 127 0" result="hardAlpha"/>
<feOffset dx="-4" dy="4"/>
<feGaussianBlur stdDeviation="2"/>
<feComposite in2="hardAlpha" operator="out"/>
<feColorMatrix type="matrix" values="0 0 0 0 0 0 0 0 0 0 0 0 0 0 0 0 0 0 0.25 0"/>
<feBlend mode="normal" in2="BackgroundImageFix" result="effect1_dropShadow_182_2576"/>
<feBlend mode="normal" in="SourceGraphic" in2="effect1_dropShadow_182_2576" result="shape"/>
</filter>
<filter id="filter1_d_182_2576" x="58.9165" y="28.8317" width="23.3682" height="34.5703" filterUnits="userSpaceOnUse" color-interpolation-filters="sRGB">
<feFlood flood-opacity="0" result="BackgroundImageFix"/>
<feColorMatrix in="SourceAlpha" type="matrix" values="0 0 0 0 0 0 0 0 0 0 0 0 0 0 0 0 0 0 127 0" result="hardAlpha"/>
<feOffset dx="-4" dy="4"/>
<feGaussianBlur stdDeviation="2"/>
<feComposite in2="hardAlpha" operator="out"/>
<feColorMatrix type="matrix" values="0 0 0 0 0 0 0 0 0 0 0 0 0 0 0 0 0 0 0.25 0"/>
<feBlend mode="normal" in2="BackgroundImageFix" result="effect1_dropShadow_182_2576"/>
<feBlend mode="normal" in="SourceGraphic" in2="effect1_dropShadow_182_2576" result="shape"/>
</filter>
<filter id="filter2_d_182_2576" x="18.9355" y="-4.97705" width="47.9595" height="49.1527" filterUnits="userSpaceOnUse" color-interpolation-filters="sRGB">
<feFlood flood-opacity="0" result="BackgroundImageFix"/>
<feColorMatrix in="SourceAlpha" type="matrix" values="0 0 0 0 0 0 0 0 0 0 0 0 0 0 0 0 0 0 127 0" result="hardAlpha"/>
<feOffset dy="4"/>
<feGaussianBlur stdDeviation="5"/>
<feComposite in2="hardAlpha" operator="out"/>
<feColorMatrix type="matrix" values="0 0 0 0 0 0 0 0 0 0 0 0 0 0 0 0 0 0 0.5 0"/>
<feBlend mode="normal" in2="BackgroundImageFix" result="effect1_dropShadow_182_2576"/>
<feBlend mode="normal" in="SourceGraphic" in2="effect1_dropShadow_182_2576" result="shape"/>
</filter>
<filter id="filter3_d_182_2576" x="-6.62549" y="-2.59033" width="46.7661" height="67.9059" filterUnits="userSpaceOnUse" color-interpolation-filters="sRGB">
<feFlood flood-opacity="0" result="BackgroundImageFix"/>
<feColorMatrix in="SourceAlpha" type="matrix" values="0 0 0 0 0 0 0 0 0 0 0 0 0 0 0 0 0 0 127 0" result="hardAlpha"/>
<feOffset dy="4"/>
<feGaussianBlur stdDeviation="5"/>
<feComposite in2="hardAlpha" operator="out"/>
<feColorMatrix type="matrix" values="0 0 0 0 0 0 0 0 0 0 0 0 0 0 0 0 0 0 0.5 0"/>
<feBlend mode="normal" in2="BackgroundImageFix" result="effect1_dropShadow_182_2576"/>
<feBlend mode="normal" in="SourceGraphic" in2="effect1_dropShadow_182_2576" result="shape"/>
</filter>
<filter id="filter4_d_182_2576" x="16.979" y="71.1249" width="60.0068" height="16.6599" filterUnits="userSpaceOnUse" color-interpolation-filters="sRGB">
<feFlood flood-opacity="0" result="BackgroundImageFix"/>
<feColorMatrix in="SourceAlpha" type="matrix" values="0 0 0 0 0 0 0 0 0 0 0 0 0 0 0 0 0 0 127 0" result="hardAlpha"/>
<feOffset dy="2"/>
<feGaussianBlur stdDeviation="1"/>
<feComposite in2="hardAlpha" operator="out"/>
<feColorMatrix type="matrix" values="0 0 0 0 0 0 0 0 0 0 0 0 0 0 0 0 0 0 0.5 0"/>
<feBlend mode="normal" in2="BackgroundImageFix" result="effect1_dropShadow_182_2576"/>
<feBlend mode="normal" in="SourceGraphic" in2="effect1_dropShadow_182_2576" result="shape"/>
</filter>
<clipPath id="clip0_182_2576">
<rect width="35.8257" height="35.8257" fill="white" transform="translate(55.1519 19.739) rotate(13.4168)"/>
</clipPath>
<clipPath id="clip1_182_2576">
<rect width="30.6871" height="31.9862" fill="white" transform="matrix(-1 0 0 1 57.7476 0)"/>
</clipPath>
<clipPath id="clip2_182_2576">
<rect width="28.9942" height="52.0657" fill="white" transform="matrix(-1 0 0 1 29.9702 0)"/>
</clipPath>
</defs>
</svg>
