<svg width="90" height="102" viewBox="0 0 90 102" fill="none" xmlns="http://www.w3.org/2000/svg">
<rect x="21.5801" y="24.1279" width="45.9342" height="45.9342" rx="22.9671" fill="white"/>
<rect x="21.5801" y="24.1279" width="45.9342" height="45.9342" rx="22.9671" stroke="#CDCCCC"/>
<path d="M44.0518 34.1292L31.5815 34.1292L31.5815 46.5995L44.0518 46.5995L44.0518 34.1292Z" fill="#F25022"/>
<path d="M57.8345 34.1292L45.3643 34.1292L45.3643 46.5995L57.8345 46.5995L57.8345 34.1292Z" fill="#7FBA00"/>
<path d="M44.0518 47.9122L31.5815 47.9122L31.5815 60.3824L44.0518 60.3824L44.0518 47.9122Z" fill="#00A4EF"/>
<path d="M57.8345 47.9122L45.3643 47.9122L45.3643 60.3824L57.8345 60.3824L57.8345 47.9122Z" fill="#FFB900"/>
<g clip-path="url(#clip0_186_6647)">
<g filter="url(#filter0_d_186_6647)">
<path d="M66.9178 55.4018L66.3041 54.6172C62.939 50.2981 58.7525 44.9249 60.4701 37.7246L62.1066 30.8641L63.3173 31.1529C67.6886 32.1956 71.4401 31.0735 72.0438 28.5428L74.4652 29.1204C73.8615 31.6511 76.7026 34.3459 81.0738 35.3886L82.2845 35.6774L80.648 42.5379C78.9304 49.7382 72.7691 52.6431 67.8185 54.9772L66.9178 55.4018Z" fill="#7AB9E8"/>
</g>
<g filter="url(#filter1_d_186_6647)">
<path d="M81.0738 35.3886C76.7025 34.3459 73.8614 31.6511 74.4651 29.1204L73.2544 28.8316L66.9166 55.4004L66.9178 55.4019L67.8185 54.9772C72.769 52.6431 78.9303 49.7383 80.6479 42.5379L82.2845 35.6774L81.0738 35.3886Z" fill="#579ADF"/>
</g>
</g>
<g clip-path="url(#clip1_186_6647)">
<g filter="url(#filter2_d_186_6647)">
<path fill-rule="evenodd" clip-rule="evenodd" d="M35.1481 22.6743C34.8376 23.9347 34.5286 25.194 34.2209 26.4523C37.0558 28.0747 40.6353 28.9807 45.1318 28.9822V23.779L35.1481 22.6743Z" fill="#535353"/>
<path fill-rule="evenodd" clip-rule="evenodd" d="M55.1071 22.6743C55.4216 23.9347 55.7334 25.194 56.0425 26.4523C53.2014 28.0747 49.6301 28.9807 45.1315 28.9822V23.779L55.1071 22.6743Z" fill="#676767"/>
<path fill-rule="evenodd" clip-rule="evenodd" d="M47.3632 9.1104C53.8403 3.38226 41.5928 3.92506 38.1412 1.02289C37.8976 1.26523 37.7531 1.5566 37.7258 1.86077C37.6985 2.16494 37.7895 2.4685 37.9876 2.73371C36.4554 3.68554 33.7617 2.38688 32.3011 4.21123C33.9563 4.13969 34.9641 4.63583 35.5786 5.29994C31.0393 4.77425 32.8153 7.97348 28.9356 8.15389C31.8259 9.37791 38.6144 7.02786 42.8116 9.88804C44.7064 9.83516 45.4684 9.16794 47.3632 9.1104Z" fill="#1B2241"/>
<path fill-rule="evenodd" clip-rule="evenodd" d="M28.9375 8.10096C31.7985 9.36513 38.5373 6.95635 42.7038 9.88802C43.4791 9.85506 44.242 9.7209 44.9609 9.49107C39.5113 4.67829 34.6758 8.95065 28.9355 8.10096H28.9375Z" fill="#1A1A1A"/>
<path fill-rule="evenodd" clip-rule="evenodd" d="M46.9852 8.62379C46.2373 8.68207 45.5036 8.81652 44.8048 9.02337L44.7554 9.03562C44.9995 8.76311 45.2395 8.4906 45.4754 8.21809C47.6188 6.39471 43.1078 4.23758 40.3719 3.79513C39.3866 4.43201 37.8686 4.13041 37.091 4.57746C37.7616 5.11942 38.1771 6.05637 38.8497 6.59833C31.1689 5.8206 34.6678 7.67 30.9817 8.02825C31.2298 7.90278 31.4552 7.75408 31.6523 7.5858C32.8865 6.53709 32.7034 5.39193 35.394 5.69812L36.8915 5.86806C36.6268 5.59453 36.3601 5.3215 36.0913 5.04899C35.4847 4.41602 34.5718 3.98297 33.5447 3.84106C33.7855 3.73622 34.0507 3.6661 34.3264 3.63438C34.5892 3.60477 34.8546 3.58891 35.1204 3.58692C36.3176 3.56549 37.4592 3.63591 38.4116 3.06333L38.7654 2.84747C38.6955 2.75255 38.6235 2.65916 38.5597 2.56577C38.4005 2.35617 38.3336 2.11469 38.3684 1.87531C39.6026 2.57189 41.3099 3.04037 42.7725 3.42923C43.9306 3.73543 45.1463 4.04162 46.2447 4.42283C47.0202 4.69534 47.8903 5.07349 48.3017 5.59095C49.0484 6.55546 47.8944 7.80932 46.9852 8.62379Z" fill="#4386BB"/>
<path fill-rule="evenodd" clip-rule="evenodd" d="M45.906 8.75058C45.5168 8.82677 45.133 8.9178 44.7561 9.02329L44.7069 9.03562C44.9501 8.76136 45.1893 8.48711 45.4243 8.21285C47.5602 6.3778 43.065 4.20686 40.3387 3.76158C39.3569 4.40254 37.8441 4.099 37.0693 4.54891C37.7375 5.09434 38.1516 6.03729 38.8219 6.58272C31.1679 5.80001 34.6546 7.66126 30.9814 8.0218C32.8938 7.64739 32.859 6.2946 33.9454 5.9695C35.0318 5.64439 36.4667 6.39321 37.5612 6.0681C37.4465 5.44101 36.9279 4.93102 36.1735 4.15293C37.221 3.67683 39.8632 4.10209 39.3138 2.72772C41.665 4.67679 49.239 3.86943 46.3652 8.58263L45.906 8.75058Z" fill="#283A84"/>
<path d="M45.217 12.7863C43.2868 12.7863 41.7221 11.7559 41.7221 10.4848C41.7221 9.21366 43.2868 8.18323 45.217 8.18323C47.1472 8.18323 48.7119 9.21366 48.7119 10.4848C48.7119 11.7559 47.1472 12.7863 45.217 12.7863Z" fill="#CDCCCC"/>
<path fill-rule="evenodd" clip-rule="evenodd" d="M45.2013 10.5699C40.8197 10.5699 37.0757 12.3071 35.5782 14.7576C34.7739 15.0159 34.2205 15.5478 34.2205 16.1566C34.2245 16.359 34.2856 16.5585 34.3998 16.742C34.5139 16.9256 34.6785 17.0891 34.8829 17.222C34.9569 20.8055 39.5484 23.6972 45.2013 23.6972C50.8542 23.6972 55.4291 20.8116 55.5155 17.2373C55.7291 17.104 55.9019 16.938 56.0222 16.7505C56.1425 16.563 56.2075 16.3584 56.2129 16.1504C56.2129 15.5355 55.641 14.9928 54.8182 14.7392C53.3144 12.2948 49.5767 10.5699 45.2013 10.5699Z" fill="#8B8A8A"/>
<path fill-rule="evenodd" clip-rule="evenodd" d="M46.8363 20.2876C42.9837 20.2876 39.8465 18.3006 39.8465 15.855C39.8465 13.4094 42.9899 11.4224 46.8363 11.4224C50.6828 11.4224 53.8262 13.4094 53.8262 15.855C53.8262 18.3006 50.691 20.2876 46.8363 20.2876Z" fill="#989898"/>
<path fill-rule="evenodd" clip-rule="evenodd" d="M48.9674 15.3435C47.511 15.3435 46.3249 14.5771 46.3249 13.6387C46.3249 12.7002 47.511 11.9338 48.9674 11.9338C50.4237 11.9338 51.6099 12.6987 51.6099 13.6387C51.6099 14.5787 50.4114 15.3435 48.9674 15.3435Z" fill="#ACACAC"/>
<path fill-rule="evenodd" clip-rule="evenodd" d="M45.1316 14.3207H45.2317C46.6254 14.3154 48.0088 14.5037 49.314 14.8764L56.895 17.0291V23.4436C53.5781 26.3792 49.71 28.6782 45.1316 30.1756V14.3207Z" fill="#CDCCCC"/>
<path fill-rule="evenodd" clip-rule="evenodd" d="M46.8362 15.3435C47.4403 15.4199 48.033 15.5429 48.6056 15.7105L50.059 16.1289V26.864C49.0333 27.4553 47.9573 27.9921 46.8383 28.4708V15.3435H46.8362ZM50.7413 16.3257L53.0019 16.9768V24.9403C52.2873 25.4665 51.5344 25.9755 50.7413 26.4596V16.3257ZM53.6822 17.172L55.1899 17.6061V23.1743C54.7068 23.599 54.2043 24.0154 53.6822 24.4234V17.172Z" fill="#333333"/>
<path fill-rule="evenodd" clip-rule="evenodd" d="M45.1318 14.3207H45.0318C43.6415 14.3163 42.2617 14.5046 40.9596 14.8764L33.3685 17.0275V23.442C36.6874 26.3792 40.5555 28.6782 45.1318 30.1756V14.3207Z" fill="#B4B4B4"/>
<path fill-rule="evenodd" clip-rule="evenodd" d="M43.4268 15.3435C42.8103 15.4202 42.2054 15.5431 41.6208 15.7105L40.1375 16.1289V26.864C41.1846 27.455 42.2828 27.9918 43.4247 28.4708V15.3435H43.4268ZM39.441 16.3257L37.1358 16.9768V24.9403C37.8631 25.4665 38.6315 25.9755 39.441 26.4596V16.3257ZM36.4394 17.172L34.9026 17.6061V23.1743C35.3943 23.599 35.9065 24.0154 36.4394 24.4234V17.172Z" fill="#1A1A1A"/>
<path fill-rule="evenodd" clip-rule="evenodd" d="M46.0987 8.69464C45.4444 8.69464 45.1306 9.00067 45.3969 9.37658C45.5655 9.57734 45.8074 9.74545 46.0994 9.86485C46.3915 9.98424 46.7238 10.0509 47.0648 10.0585C47.7171 10.0585 48.0308 9.75388 47.7645 9.37658C47.5958 9.17619 47.3542 9.00834 47.0626 8.88899C46.7711 8.76963 46.4393 8.70273 46.0987 8.69464Z" fill="#E3E3E3"/>
</g>
</g>
<g clip-path="url(#clip2_186_6647)">
<g filter="url(#filter3_d_186_6647)">
<path fill-rule="evenodd" clip-rule="evenodd" d="M29.5726 47.4634L29.4361 47.534C29.2813 47.6171 29.109 47.6624 28.9334 47.6662C28.7578 47.67 28.5837 47.6323 28.4255 47.556C28.2651 47.4845 28.1238 47.3762 28.0132 47.2399C27.9025 47.1036 27.8255 46.9431 27.7884 46.7714C27.4746 45.4 26.8469 43.7242 25.954 41.9935C25.0611 40.2628 24.0584 38.7815 23.1294 37.7318C23.0131 37.601 22.9281 37.4453 22.8811 37.2766C22.8341 37.108 22.8263 36.9308 22.8582 36.7587C22.8901 36.5865 22.961 36.424 23.0654 36.2834C23.1698 36.1428 23.305 36.028 23.4605 35.9477L23.5986 35.8771L23.0306 34.7787L20.363 36.1532L17.6953 37.5262L18.2634 38.6246L18.3999 38.554C18.5562 38.4722 18.7292 38.4275 18.9055 38.4234C19.0818 38.4193 19.2567 38.4558 19.4167 38.5301C19.5766 38.6045 19.7173 38.7147 19.8278 38.8521C19.9383 38.9896 20.0156 39.1507 20.0538 39.3228C20.3677 40.6927 20.9953 42.3701 21.8882 44.0992C22.7811 45.8284 23.7838 47.3112 24.7128 48.361C24.8292 48.4919 24.9141 48.6477 24.9611 48.8165C25.0081 48.9852 25.016 49.1625 24.984 49.3348C24.9521 49.507 24.8812 49.6697 24.7768 49.8104C24.6724 49.9511 24.5373 50.0661 24.3817 50.1466L24.2436 50.2172L24.8116 51.3156L27.4793 49.9426L30.1406 48.5634L29.5726 47.4634Z" fill="#4592CF"/>
<path fill-rule="evenodd" clip-rule="evenodd" d="M22.7819 38.3794C22.3419 38.609 22.9529 40.6955 24.1485 43.0368C25.3441 45.3781 26.6703 47.092 27.1025 46.8624C27.5348 46.6328 26.9315 44.5463 25.7359 42.205C24.5403 39.8638 23.2219 38.1499 22.7819 38.3794Z" fill="#283A84"/>
<path fill-rule="evenodd" clip-rule="evenodd" d="M3.37457 3.40967L4.80432 11.4889L18.1418 37.3359L22.4688 35.1028L9.13127 9.25577L3.37457 3.40967Z" fill="#D1D2D2"/>
<path fill-rule="evenodd" clip-rule="evenodd" d="M7.69042 7.77382L5.41961 6.295L6.2181 11.1149L18.2065 37.3359L4.81048 11.4889L3.37446 3.40967L7.69042 7.77382Z" fill="#E6E6E5"/>
<path fill-rule="evenodd" clip-rule="evenodd" d="M7.12532 10.7405L13.4271 23.6112L19.7305 36.4835L20.4185 36.1334L21.105 35.7833L14.1151 23.2627L7.12532 10.7405Z" fill="#818181"/>
<path fill-rule="evenodd" clip-rule="evenodd" d="M23.7869 33.5505L16.1584 37.5091C15.7662 37.2252 15.2903 37.0824 14.8074 37.1037C14.3246 37.1251 13.863 37.3094 13.4971 37.6268C13.1312 37.9443 12.8822 38.3765 12.7904 38.8536C12.6986 39.3308 12.7692 39.8251 12.9909 40.257C13.2127 40.6888 13.5726 41.033 14.0126 41.234C14.4526 41.4349 14.9471 41.481 15.4164 41.3648C15.8856 41.2485 16.3023 40.9768 16.5992 40.5932C16.896 40.2097 17.0558 39.7368 17.0527 39.2508L24.6812 35.2923C25.074 35.577 25.5506 35.7203 26.0343 35.6992C26.5179 35.6781 26.9804 35.4937 27.3471 35.1758C27.7138 34.8579 27.9633 34.4251 28.0554 33.9471C28.1475 33.4691 28.0768 32.9739 27.8546 32.5413C27.6325 32.1087 27.272 31.764 26.8311 31.5627C26.3903 31.3615 25.8949 31.3155 25.4249 31.4321C24.9548 31.5487 24.5376 31.8212 24.2404 32.2055C23.9432 32.5899 23.7835 33.0637 23.7869 33.5505Z" fill="#333333"/>
</g>
</g>
<g filter="url(#filter4_d_186_6647)">
<path d="M29.1346 74.761H30.4546V83.509H29.5426V76.009L26.2906 83.509H25.4626L22.2346 76.069V83.509H21.3226V74.761H22.6306L25.8946 82.261L29.1346 74.761ZM32.6371 75.877C32.5091 75.733 32.4451 75.577 32.4451 75.409C32.4451 75.241 32.5091 75.085 32.6371 74.941C32.7651 74.813 32.9211 74.749 33.1051 74.749C33.2811 74.749 33.4331 74.813 33.5611 74.941C33.6891 75.069 33.7531 75.225 33.7531 75.409C33.7531 75.593 33.6891 75.749 33.5611 75.877C33.4331 76.005 33.2811 76.069 33.1051 76.069C32.9211 76.069 32.7651 76.005 32.6371 75.877ZM32.6611 83.509V77.545H33.5371V83.509H32.6611ZM35.9647 80.497C35.9647 81.393 36.3007 82.061 36.9727 82.501C37.3007 82.725 37.6847 82.837 38.1247 82.837C38.6047 82.837 39.0127 82.713 39.3487 82.465C39.4687 82.377 39.5927 82.257 39.7207 82.105C39.8967 81.873 40.0287 81.641 40.1167 81.409L40.9207 81.673C40.7847 82.153 40.4807 82.585 40.0087 82.969C39.4967 83.401 38.8647 83.617 38.1127 83.617C37.2567 83.633 36.5327 83.345 35.9407 82.753C35.3567 82.161 35.0687 81.425 35.0767 80.545C35.0767 79.969 35.2167 79.437 35.4967 78.949C35.7767 78.469 36.1487 78.097 36.6127 77.833C37.0767 77.569 37.5887 77.437 38.1487 77.437C38.8207 77.437 39.4127 77.621 39.9247 77.989C40.4447 78.381 40.7647 78.833 40.8847 79.345L40.0927 79.609C40.0047 79.289 39.7887 78.977 39.4447 78.673C39.1087 78.369 38.6687 78.217 38.1247 78.217C37.5007 78.217 36.9847 78.437 36.5767 78.877C36.1687 79.325 35.9647 79.865 35.9647 80.497ZM42.3759 77.545H43.2279V78.721C43.5079 78.153 43.9159 77.769 44.4519 77.569C44.6679 77.489 44.9039 77.449 45.1599 77.449C45.3119 77.449 45.4079 77.457 45.4479 77.473V78.397C45.3839 78.381 45.2719 78.373 45.1119 78.373C44.4639 78.373 43.9919 78.589 43.6959 79.021C43.3999 79.453 43.2519 79.977 43.2519 80.593V83.509H42.3759V77.545ZM48.7891 83.617C48.2371 83.617 47.7211 83.481 47.2411 83.209C46.7691 82.929 46.4011 82.557 46.1371 82.093C45.8651 81.629 45.7291 81.113 45.7291 80.545C45.7291 79.657 46.0251 78.921 46.6171 78.337C47.2091 77.737 47.9411 77.437 48.8131 77.437C49.6611 77.421 50.3891 77.721 50.9971 78.337C51.6131 78.945 51.9131 79.669 51.8971 80.509C51.9131 81.373 51.6131 82.113 50.9971 82.729C50.3811 83.337 49.6451 83.633 48.7891 83.617ZM48.8131 82.837C49.4371 82.837 49.9611 82.613 50.3851 82.165C50.7931 81.717 50.9971 81.177 50.9971 80.545C50.9971 79.905 50.7891 79.353 50.3731 78.889C49.9491 78.433 49.4211 78.205 48.7891 78.205C48.1571 78.205 47.6371 78.429 47.2291 78.877C46.8211 79.325 46.6171 79.869 46.6171 80.509C46.6011 81.141 46.8051 81.689 47.2291 82.153C47.6611 82.617 48.1891 82.845 48.8131 82.837ZM57.3627 81.817C57.3627 82.353 57.1587 82.781 56.7507 83.101C56.3427 83.437 55.8427 83.605 55.2507 83.605C54.3787 83.605 53.7427 83.317 53.3427 82.741C53.1427 82.469 53.0227 82.165 52.9827 81.829L53.7747 81.625C53.8307 81.953 53.9787 82.241 54.2187 82.489C54.4667 82.729 54.8067 82.849 55.2387 82.849C55.5667 82.849 55.8587 82.757 56.1147 82.573C56.3547 82.405 56.4747 82.169 56.4747 81.865C56.4747 81.625 56.3787 81.433 56.1867 81.289C56.0107 81.145 55.7827 81.041 55.5027 80.977L54.5907 80.773C53.5987 80.557 53.1027 80.037 53.1027 79.213C53.1027 78.597 53.3507 78.137 53.8467 77.833C54.2707 77.569 54.6987 77.437 55.1307 77.437C55.9467 77.445 56.5427 77.709 56.9187 78.229C57.1027 78.493 57.2227 78.761 57.2787 79.033L56.4867 79.261C56.4307 79.029 56.3147 78.805 56.1387 78.589C55.9227 78.333 55.5867 78.205 55.1307 78.205C54.8027 78.205 54.5307 78.297 54.3147 78.481C54.0907 78.657 53.9787 78.881 53.9787 79.153C53.9787 79.553 54.2667 79.825 54.8427 79.969L55.8027 80.185C56.2427 80.289 56.6107 80.477 56.9067 80.749C57.2107 81.021 57.3627 81.377 57.3627 81.817ZM61.5391 83.617C60.9871 83.617 60.4711 83.481 59.9911 83.209C59.5191 82.929 59.1511 82.557 58.8871 82.093C58.6151 81.629 58.4791 81.113 58.4791 80.545C58.4791 79.657 58.7751 78.921 59.3671 78.337C59.9591 77.737 60.6911 77.437 61.5631 77.437C62.4111 77.421 63.1391 77.721 63.7471 78.337C64.3631 78.945 64.6631 79.669 64.6471 80.509C64.6631 81.373 64.3631 82.113 63.7471 82.729C63.1311 83.337 62.3951 83.633 61.5391 83.617ZM61.5631 82.837C62.1871 82.837 62.7111 82.613 63.1351 82.165C63.5431 81.717 63.7471 81.177 63.7471 80.545C63.7471 79.905 63.5391 79.353 63.1231 78.889C62.6991 78.433 62.1711 78.205 61.5391 78.205C60.9071 78.205 60.3871 78.429 59.9791 78.877C59.5711 79.325 59.3671 79.869 59.3671 80.509C59.3511 81.141 59.5551 81.689 59.9791 82.153C60.4111 82.617 60.9391 82.845 61.5631 82.837ZM68.2463 75.157C67.9983 75.157 67.7783 75.237 67.5863 75.397C67.3623 75.597 67.2503 75.937 67.2503 76.417V77.545H68.8103V78.301H67.2503V83.509H66.3863V78.301H65.2343V77.545H66.3863V76.441C66.3863 75.785 66.5503 75.273 66.8783 74.905C67.2143 74.561 67.6583 74.389 68.2103 74.389C68.4423 74.389 68.6583 74.425 68.8583 74.497V75.229C68.7143 75.181 68.5103 75.157 68.2463 75.157ZM72.0733 83.557C70.9453 83.557 70.3813 83.025 70.3813 81.961V78.313H69.2773V77.545H70.3813V75.829H71.2453V77.545H72.7573V78.313H71.2453V81.949C71.2453 82.509 71.5693 82.789 72.2173 82.789C72.3693 82.789 72.5493 82.773 72.7573 82.741V83.461C72.5493 83.525 72.3213 83.557 72.0733 83.557ZM26.3063 92.513V92.225C26.3063 91.073 26.5863 90.025 27.1463 89.081C27.6983 88.129 28.4783 87.365 29.4863 86.789L29.8463 87.353C28.0783 88.489 27.1943 90.117 27.1943 92.237V92.501C27.1943 94.605 28.0783 96.229 29.8463 97.373L29.4863 97.961C28.4783 97.377 27.6983 96.609 27.1463 95.657C26.5863 94.713 26.3063 93.665 26.3063 92.513ZM39.1718 87.761H40.4918V96.509H39.5798V89.009L36.3278 96.509H35.4998L32.2718 89.069V96.509H31.3598V87.761H32.6678L35.9318 95.261L39.1718 87.761ZM45.3502 96.593C44.5022 96.593 43.7902 96.337 43.2142 95.825C42.6542 95.337 42.3342 94.769 42.2542 94.121L43.1182 93.881C43.2142 94.393 43.4782 94.829 43.9102 95.189C44.3342 95.549 44.8142 95.729 45.3502 95.729C45.8862 95.729 46.3342 95.601 46.6942 95.345C47.1022 95.065 47.3062 94.661 47.3062 94.133C47.3062 93.589 47.0622 93.173 46.5742 92.885C46.3502 92.749 46.0742 92.649 45.7462 92.585L44.5942 92.357C44.3622 92.309 44.1062 92.225 43.8262 92.105C43.5382 91.969 43.2982 91.805 43.1062 91.613C42.6982 91.213 42.4942 90.709 42.4942 90.101C42.4942 89.621 42.6262 89.193 42.8902 88.817C43.1462 88.449 43.4862 88.161 43.9102 87.953C44.3262 87.761 44.7782 87.665 45.2662 87.665C46.1222 87.665 46.7902 87.877 47.2702 88.301C47.7582 88.725 48.0542 89.213 48.1582 89.765L47.3182 90.029C47.2302 89.637 47.0142 89.289 46.6702 88.985C46.3342 88.673 45.8622 88.517 45.2542 88.517C44.7742 88.501 44.3462 88.645 43.9702 88.949C43.5942 89.253 43.4102 89.625 43.4182 90.065C43.4182 90.409 43.5262 90.705 43.7422 90.953C43.9582 91.201 44.2742 91.365 44.6902 91.445L45.7942 91.661C46.5542 91.805 47.1222 92.061 47.4982 92.429C47.7542 92.661 47.9462 92.929 48.0742 93.233C48.1942 93.529 48.2542 93.797 48.2542 94.037C48.2622 94.797 47.9862 95.417 47.4262 95.897C46.8662 96.377 46.1742 96.609 45.3502 96.593ZM51.0103 88.625V91.769H55.1263V92.609H51.0103V96.509H50.0863V87.761H55.5103V88.625H51.0103ZM60.0442 88.625V96.509H59.1322V88.625H56.2042V87.761H62.9722V88.625H60.0442ZM67.0463 92.225V92.513C67.0463 93.673 66.7703 94.725 66.2183 95.669C65.6583 96.613 64.8743 97.377 63.8663 97.961L63.5063 97.373C65.2743 96.229 66.1583 94.605 66.1583 92.501V92.237C66.1583 90.117 65.2743 88.489 63.5063 87.353L63.8663 86.789C64.8743 87.357 65.6583 88.117 66.2183 89.069C66.7703 90.021 67.0463 91.073 67.0463 92.225Z" fill="white"/>
</g>
<defs>
<filter id="filter0_d_186_6647" x="52.0713" y="28.5428" width="30.2134" height="34.8591" filterUnits="userSpaceOnUse" color-interpolation-filters="sRGB">
<feFlood flood-opacity="0" result="BackgroundImageFix"/>
<feColorMatrix in="SourceAlpha" type="matrix" values="0 0 0 0 0 0 0 0 0 0 0 0 0 0 0 0 0 0 127 0" result="hardAlpha"/>
<feOffset dx="-4" dy="4"/>
<feGaussianBlur stdDeviation="2"/>
<feComposite in2="hardAlpha" operator="out"/>
<feColorMatrix type="matrix" values="0 0 0 0 0 0 0 0 0 0 0 0 0 0 0 0 0 0 0.25 0"/>
<feBlend mode="normal" in2="BackgroundImageFix" result="effect1_dropShadow_186_6647"/>
<feBlend mode="normal" in="SourceGraphic" in2="effect1_dropShadow_186_6647" result="shape"/>
</filter>
<filter id="filter1_d_186_6647" x="58.9165" y="28.8316" width="23.3682" height="34.5703" filterUnits="userSpaceOnUse" color-interpolation-filters="sRGB">
<feFlood flood-opacity="0" result="BackgroundImageFix"/>
<feColorMatrix in="SourceAlpha" type="matrix" values="0 0 0 0 0 0 0 0 0 0 0 0 0 0 0 0 0 0 127 0" result="hardAlpha"/>
<feOffset dx="-4" dy="4"/>
<feGaussianBlur stdDeviation="2"/>
<feComposite in2="hardAlpha" operator="out"/>
<feColorMatrix type="matrix" values="0 0 0 0 0 0 0 0 0 0 0 0 0 0 0 0 0 0 0.25 0"/>
<feBlend mode="normal" in2="BackgroundImageFix" result="effect1_dropShadow_186_6647"/>
<feBlend mode="normal" in="SourceGraphic" in2="effect1_dropShadow_186_6647" result="shape"/>
</filter>
<filter id="filter2_d_186_6647" x="18.9355" y="-4.97711" width="47.9595" height="49.1527" filterUnits="userSpaceOnUse" color-interpolation-filters="sRGB">
<feFlood flood-opacity="0" result="BackgroundImageFix"/>
<feColorMatrix in="SourceAlpha" type="matrix" values="0 0 0 0 0 0 0 0 0 0 0 0 0 0 0 0 0 0 127 0" result="hardAlpha"/>
<feOffset dy="4"/>
<feGaussianBlur stdDeviation="5"/>
<feComposite in2="hardAlpha" operator="out"/>
<feColorMatrix type="matrix" values="0 0 0 0 0 0 0 0 0 0 0 0 0 0 0 0 0 0 0.5 0"/>
<feBlend mode="normal" in2="BackgroundImageFix" result="effect1_dropShadow_186_6647"/>
<feBlend mode="normal" in="SourceGraphic" in2="effect1_dropShadow_186_6647" result="shape"/>
</filter>
<filter id="filter3_d_186_6647" x="-6.62549" y="-2.59033" width="46.7661" height="67.9059" filterUnits="userSpaceOnUse" color-interpolation-filters="sRGB">
<feFlood flood-opacity="0" result="BackgroundImageFix"/>
<feColorMatrix in="SourceAlpha" type="matrix" values="0 0 0 0 0 0 0 0 0 0 0 0 0 0 0 0 0 0 127 0" result="hardAlpha"/>
<feOffset dy="4"/>
<feGaussianBlur stdDeviation="5"/>
<feComposite in2="hardAlpha" operator="out"/>
<feColorMatrix type="matrix" values="0 0 0 0 0 0 0 0 0 0 0 0 0 0 0 0 0 0 0.5 0"/>
<feBlend mode="normal" in2="BackgroundImageFix" result="effect1_dropShadow_186_6647"/>
<feBlend mode="normal" in="SourceGraphic" in2="effect1_dropShadow_186_6647" result="shape"/>
</filter>
<filter id="filter4_d_186_6647" x="19.3228" y="74.389" width="55.4346" height="27.572" filterUnits="userSpaceOnUse" color-interpolation-filters="sRGB">
<feFlood flood-opacity="0" result="BackgroundImageFix"/>
<feColorMatrix in="SourceAlpha" type="matrix" values="0 0 0 0 0 0 0 0 0 0 0 0 0 0 0 0 0 0 127 0" result="hardAlpha"/>
<feOffset dy="2"/>
<feGaussianBlur stdDeviation="1"/>
<feComposite in2="hardAlpha" operator="out"/>
<feColorMatrix type="matrix" values="0 0 0 0 0 0 0 0 0 0 0 0 0 0 0 0 0 0 0.5 0"/>
<feBlend mode="normal" in2="BackgroundImageFix" result="effect1_dropShadow_186_6647"/>
<feBlend mode="normal" in="SourceGraphic" in2="effect1_dropShadow_186_6647" result="shape"/>
</filter>
<clipPath id="clip0_186_6647">
<rect width="35.8257" height="35.8257" fill="white" transform="translate(55.1519 19.739) rotate(13.4168)"/>
</clipPath>
<clipPath id="clip1_186_6647">
<rect width="30.6871" height="31.9862" fill="white" transform="matrix(-1 0 0 1 57.7476 0)"/>
</clipPath>
<clipPath id="clip2_186_6647">
<rect width="28.9942" height="52.0657" fill="white" transform="matrix(-1 0 0 1 29.9702 0)"/>
</clipPath>
</defs>
</svg>
