<svg width="200.000000" height="183.926636" viewBox="0 0 200 183.927" fill="none" xmlns="http://www.w3.org/2000/svg" xmlns:xlink="http://www.w3.org/1999/xlink">
	<desc>
			Created with Pixso.
	</desc>
	<defs>
		<clipPath id="clip187_10219">
			<rect id="nflx" rx="47" ry="47" width="105.069283" height="105.069283" transform="translate(47.965332 53.897949) rotate(-0.000000)" fill="white" fill-opacity="0"/>
		</clipPath>
		<filter id="filter_187_10230_dd" x="13.370605" y="64.344604" width="58.010254" height="68.470215" filterUnits="userSpaceOnUse" color-interpolation-filters="sRGB">
			<feFlood flood-opacity="0" result="BackgroundImageFix"/>
			<feColorMatrix in="SourceAlpha" type="matrix" values="0 0 0 0 0 0 0 0 0 0 0 0 0 0 0 0 0 0 127 0" result="hardAlpha"/>
			<feOffset dx="0" dy="4"/>
			<feGaussianBlur stdDeviation="1.33333"/>
			<feComposite in2="hardAlpha" operator="out" k2="-1" k3="1"/>
			<feColorMatrix type="matrix" values="0 0 0 0 0 0 0 0 0 0 0 0 0 0 0 0 0 0 0.25 0"/>
			<feBlend mode="normal" in2="BackgroundImageFix" result="effect_dropShadow_1"/>
			<feBlend mode="normal" in="SourceGraphic" in2="effect_dropShadow_1" result="shape"/>
		</filter>
		<filter id="filter_187_10231_dd" x="13.370605" y="64.994873" width="42.599121" height="67.820068" filterUnits="userSpaceOnUse" color-interpolation-filters="sRGB">
			<feFlood flood-opacity="0" result="BackgroundImageFix"/>
			<feColorMatrix in="SourceAlpha" type="matrix" values="0 0 0 0 0 0 0 0 0 0 0 0 0 0 0 0 0 0 127 0" result="hardAlpha"/>
			<feOffset dx="0" dy="4"/>
			<feGaussianBlur stdDeviation="1.33333"/>
			<feComposite in2="hardAlpha" operator="out" k2="-1" k3="1"/>
			<feColorMatrix type="matrix" values="0 0 0 0 0 0 0 0 0 0 0 0 0 0 0 0 0 0 0.25 0"/>
			<feBlend mode="normal" in2="BackgroundImageFix" result="effect_dropShadow_1"/>
			<feBlend mode="normal" in="SourceGraphic" in2="effect_dropShadow_1" result="shape"/>
		</filter>
		<clipPath id="clip187_10229">
			<rect id="shield-antivirus-svgrepo-com 1" width="80.657661" height="80.657661" transform="matrix(-0.972708 0.232033 0.232033 0.972708 78.4565 44.5238)" fill="white" fill-opacity="0"/>
		</clipPath>
		<filter id="filter_187_10234_dd" x="64.078125" y="-3.697021" width="82.947754" height="85.634155" filterUnits="userSpaceOnUse" color-interpolation-filters="sRGB">
			<feFlood flood-opacity="0" result="BackgroundImageFix"/>
			<feColorMatrix in="SourceAlpha" type="matrix" values="0 0 0 0 0 0 0 0 0 0 0 0 0 0 0 0 0 0 127 0" result="hardAlpha"/>
			<feOffset dx="0" dy="4"/>
			<feGaussianBlur stdDeviation="3.33333"/>
			<feComposite in2="hardAlpha" operator="out" k2="-1" k3="1"/>
			<feColorMatrix type="matrix" values="0 0 0 0 0 0 0 0 0 0 0 0 0 0 0 0 0 0 0.5 0"/>
			<feBlend mode="normal" in2="BackgroundImageFix" result="effect_dropShadow_1"/>
			<feBlend mode="normal" in="SourceGraphic" in2="effect_dropShadow_1" result="shape"/>
		</filter>
		<clipPath id="clip187_10232">
			<rect id="helmet_red" width="69.088570" height="72.013313" transform="translate(72.159180 0.000000)" fill="white" fill-opacity="0"/>
		</clipPath>
		<filter id="filter_187_10252_dd" x="124.338867" y="1.676514" width="80.260742" height="127.854980" filterUnits="userSpaceOnUse" color-interpolation-filters="sRGB">
			<feFlood flood-opacity="0" result="BackgroundImageFix"/>
			<feColorMatrix in="SourceAlpha" type="matrix" values="0 0 0 0 0 0 0 0 0 0 0 0 0 0 0 0 0 0 127 0" result="hardAlpha"/>
			<feOffset dx="0" dy="4"/>
			<feGaussianBlur stdDeviation="3.33333"/>
			<feComposite in2="hardAlpha" operator="out" k2="-1" k3="1"/>
			<feColorMatrix type="matrix" values="0 0 0 0 0 0 0 0 0 0 0 0 0 0 0 0 0 0 0.5 0"/>
			<feBlend mode="normal" in2="BackgroundImageFix" result="effect_dropShadow_1"/>
			<feBlend mode="normal" in="SourceGraphic" in2="effect_dropShadow_1" result="shape"/>
		</filter>
		<clipPath id="clip187_10250">
			<rect id="sword_red" width="65.277176" height="117.220261" transform="translate(134.722656 0.000000)" fill="white" fill-opacity="0"/>
		</clipPath>
		<filter id="filter_187_10259_dd" x="61.698730" y="168.309814" width="81.146484" height="14.907227" filterUnits="userSpaceOnUse" color-interpolation-filters="sRGB">
			<feFlood flood-opacity="0" result="BackgroundImageFix"/>
			<feColorMatrix in="SourceAlpha" type="matrix" values="0 0 0 0 0 0 0 0 0 0 0 0 0 0 0 0 0 0 127 0" result="hardAlpha"/>
			<feOffset dx="0" dy="2"/>
			<feGaussianBlur stdDeviation="0.666667"/>
			<feComposite in2="hardAlpha" operator="out" k2="-1" k3="1"/>
			<feColorMatrix type="matrix" values="0 0 0 0 0 0 0 0 0 0 0 0 0 0 0 0 0 0 0.5 0"/>
			<feBlend mode="normal" in2="BackgroundImageFix" result="effect_dropShadow_1"/>
			<feBlend mode="normal" in="SourceGraphic" in2="effect_dropShadow_1" result="shape"/>
		</filter>
		<radialGradient id="paint_radial_187_10227_0" cx="0.000000" cy="0.000000" r="1.000000" gradientUnits="userSpaceOnUse" gradientTransform="translate(101.56 105.87) rotate(-19.1009) scale(2.55552 93.6117)">
			<stop stop-color="#000000"/>
			<stop offset="1.000000" stop-color="#000000" stop-opacity="0.000000"/>
		</radialGradient>
	</defs>
	<rect id="nflx" rx="47" ry="47" width="105.069283" height="105.069283" transform="translate(47.965332 53.897949) rotate(-0.000000)" fill="#F8F9FC" fill-opacity="1.000000"/>
	<g clip-path="url(#clip187_10219)">
		<path id="path4155" d="M107.779 71.1317L107.751 86.6899L107.724 102.248L106.446 98.6364L106.446 98.6271L104.788 133.263C106.418 137.856 107.289 140.31 107.298 140.319C107.307 140.329 108.233 140.384 109.354 140.44C112.743 140.606 116.948 140.968 120.143 141.366C120.883 141.458 121.513 141.505 121.56 141.468C121.606 141.431 121.615 125.595 121.606 106.267L121.578 71.1317L107.779 71.1317Z" fill="#B1060F" fill-opacity="1.000000" fill-rule="nonzero"/>
		<path id="path4157" d="M82.8218 71.0854L82.8218 106.258C82.8218 125.604 82.8403 141.449 82.8682 141.477C82.896 141.505 84.0903 141.384 85.5352 141.227C86.98 141.07 88.9712 140.866 89.9619 140.782C91.4805 140.653 96.0371 140.366 96.5557 140.356C96.7129 140.356 96.7222 139.569 96.7407 125.456L96.7686 110.555L97.8706 113.667C98.0371 114.148 98.0928 114.297 98.2598 114.769L99.9175 80.1426C99.5654 79.1516 99.7505 79.6703 99.3525 78.5404C98.0005 74.7157 96.8521 71.4836 96.8057 71.3354L96.7129 71.0762L82.8218 71.0762L82.8218 71.0854Z" fill="#B1060F" fill-opacity="1.000000" fill-rule="nonzero"/>
		<path id="path5715" d="M107.779 71.1317L107.751 86.6899L107.724 102.248L106.446 98.6364L106.446 98.6271L104.788 133.263C106.418 137.856 107.289 140.31 107.298 140.319C107.307 140.329 108.233 140.384 109.354 140.44C112.743 140.606 116.948 140.968 120.143 141.366C120.883 141.458 121.513 141.505 121.56 141.468C121.606 141.431 121.615 125.595 121.606 106.267L121.578 71.1317L107.779 71.1317Z" fill="#B1060F" fill-opacity="1.000000" fill-rule="nonzero"/>
		<path id="path5717" d="M82.8218 71.0854L82.8218 106.258C82.8218 125.604 82.8403 141.449 82.8682 141.477C82.896 141.505 84.0903 141.384 85.5352 141.227C86.98 141.07 88.9712 140.866 89.9619 140.782C91.4805 140.653 96.0371 140.366 96.5557 140.356C96.7129 140.356 96.7222 139.569 96.7407 125.456L96.7686 110.555L97.8706 113.667C98.0371 114.148 98.0928 114.297 98.2598 114.769L99.9175 80.1426C99.5654 79.1516 99.7505 79.6703 99.3525 78.5404C98.0005 74.7157 96.8521 71.4836 96.8057 71.3354L96.7129 71.0762L82.8218 71.0762L82.8218 71.0854Z" fill="#B1060F" fill-opacity="1.000000" fill-rule="nonzero"/>
		<path id="path5719" d="M82.8218 71.0854L82.8218 90.8296L96.7314 127.725C96.7314 126.882 96.7314 126.419 96.7407 125.456L96.7686 110.555L97.8706 113.667C103.983 131.003 107.271 140.301 107.289 140.319C107.298 140.329 108.224 140.384 109.345 140.44C112.734 140.607 116.938 140.968 120.134 141.366C120.875 141.458 121.504 141.505 121.551 141.468C121.579 141.44 121.597 133.679 121.597 122.724L107.761 82.9208L107.752 86.6899L107.724 102.248L106.446 98.6365C105.196 95.108 104.362 92.7466 99.334 78.5404C97.9819 74.7157 96.8335 71.4836 96.7871 71.3354L96.6943 71.0762L82.8218 71.0762L82.8218 71.0854Z" fill="url(#paint_radial_187_10227_0)" fill-opacity="1.000000" fill-rule="nonzero"/>
		<path id="path5721" d="M82.8218 71.0854L96.7593 110.583L96.7593 110.564L97.8613 113.676C103.983 131.003 107.271 140.301 107.289 140.319C107.298 140.329 108.224 140.384 109.345 140.44C112.734 140.607 116.938 140.968 120.134 141.366C120.865 141.458 121.504 141.505 121.542 141.468L107.724 102.239L107.724 102.248L106.446 98.6365C105.196 95.108 104.362 92.7466 99.334 78.5404C97.9819 74.7157 96.8335 71.4836 96.7871 71.3354L96.6943 71.0762L89.7583 71.0762L82.8218 71.0854Z" fill="#E50914" fill-opacity="1.000000" fill-rule="nonzero"/>
	</g>
	<rect id="nflx" rx="47" ry="47" width="105.069283" height="105.069283" transform="translate(47.965332 53.897949) rotate(-0.000000)" stroke="#CDCCCC" stroke-opacity="1.000000" stroke-width="1.000000"/>
	<rect id="shield-antivirus-svgrepo-com 1" width="80.657661" height="80.657661" transform="matrix(-0.972708 0.232033 0.232033 0.972708 78.4565 44.5238)" fill="#FFFFFF" fill-opacity="0"/>
	<g clip-path="url(#clip187_10229)">
		<g filter="url(#filter_187_10230_dd)">
			<path id="Vector" d="M51.9673 124.815L53.3486 123.048C60.9248 113.324 70.3506 101.227 66.4834 85.0164L62.7993 69.5707L60.0732 70.2209C50.2319 72.5685 41.7856 70.0422 40.4268 64.3446L34.9751 65.6449C36.3345 71.3427 29.938 77.4095 20.0962 79.7571L17.3706 80.4073L21.0552 95.853C24.9219 112.064 38.7935 118.604 49.9395 123.859L51.9673 124.815Z" fill="#D84025" fill-opacity="1.000000" fill-rule="nonzero"/>
		</g>
		<g filter="url(#filter_187_10231_dd)">
			<path id="Vector" d="M20.0962 79.7573C29.9375 77.4097 36.334 71.3428 34.9751 65.6451L37.7007 64.9949L51.9697 124.812L51.9668 124.815L49.939 123.859C38.7935 118.604 24.9219 112.064 21.0552 95.8531L17.3706 80.4075L20.0962 79.7573Z" fill="#A13023" fill-opacity="1.000000" fill-rule="nonzero"/>
		</g>
	</g>
	<rect id="helmet_red" width="69.088570" height="72.013313" transform="translate(72.159180 0.000000)" fill="#FFFFFF" fill-opacity="0"/>
	<g clip-path="url(#clip187_10232)">
		<g filter="url(#filter_187_10234_dd)">
			<path id="Vector" d="M123.04 51.0488C123.739 53.8864 124.435 56.7216 125.127 59.5544C118.745 63.2072 110.686 65.2469 100.562 65.2504L100.562 53.536L123.04 51.0488Z" fill="#535353" fill-opacity="1.000000" fill-rule="evenodd"/>
			<path id="Vector" d="M78.1035 51.0488C77.3955 53.8864 76.6934 56.7216 75.9976 59.5544C82.394 63.2072 90.4346 65.2469 100.562 65.2504L100.562 53.536L78.1035 51.0488Z" fill="#676767" fill-opacity="1.000000" fill-rule="evenodd"/>
			<path id="Vector" d="M95.5381 20.5111C80.9556 7.61487 108.529 8.83691 116.3 2.30298C116.849 2.84863 117.174 3.50452 117.236 4.18933C117.297 4.87415 117.092 5.55762 116.646 6.15466C120.096 8.29761 126.161 5.3739 129.449 9.4812C125.722 9.32007 123.453 10.4371 122.07 11.9323C132.29 10.7488 128.291 17.9514 137.026 18.3577C130.519 21.1134 115.235 15.8225 105.786 22.2618C101.52 22.1428 99.8037 20.6406 95.5381 20.5111Z" fill="#A23023" fill-opacity="1.000000" fill-rule="evenodd"/>
			<path id="Vector" d="M137.021 18.2384C130.58 21.0846 115.408 15.6615 106.028 22.2618C104.282 22.1876 102.565 21.8856 100.946 21.3682C113.215 10.5327 124.102 20.1515 137.026 18.2384L137.021 18.2384Z" fill="#1A1A1A" fill-opacity="1.000000" fill-rule="evenodd"/>
			<path id="Vector" d="M96.3896 19.4155C98.0737 19.5468 99.7251 19.8494 101.298 20.3152L101.41 20.3428C100.86 19.7291 100.32 19.1156 99.7886 18.5021C94.9634 14.397 105.119 9.54041 111.279 8.54431C113.497 9.97815 116.915 9.29919 118.666 10.3057C117.156 11.5258 116.22 13.6353 114.706 14.8555C131.999 13.1045 124.121 17.2682 132.42 18.0747C131.861 17.7922 131.354 17.4575 130.91 17.0786C128.131 14.7175 128.543 12.1393 122.486 12.8287L119.115 13.2113C119.71 12.5955 120.311 11.9808 120.916 11.3673C122.282 9.94214 124.337 8.96716 126.649 8.64771C126.107 8.41174 125.51 8.25378 124.89 8.18237C124.298 8.11572 123.7 8.08008 123.102 8.07556C120.407 8.02734 117.836 8.18591 115.692 6.89673L114.896 6.41077C115.053 6.19702 115.215 5.98682 115.359 5.77661C115.717 5.30469 115.868 4.76099 115.79 4.22205C113.011 5.79028 109.167 6.84509 105.874 7.72058C103.267 8.40991 100.53 9.09924 98.0566 9.95752C96.311 10.571 94.3521 11.4224 93.4258 12.5874C91.7446 14.7589 94.3428 17.5818 96.3896 19.4155Z" fill="#EF4123" fill-opacity="1.000000" fill-rule="evenodd"/>
			<path id="Vector" d="M98.8188 19.701C99.6948 19.8726 100.559 20.0775 101.408 20.3151L101.519 20.3428C100.971 19.7253 100.433 19.1079 99.9033 18.4904C95.0947 14.359 105.215 9.47131 111.353 8.46887C113.563 9.91187 116.969 9.22852 118.714 10.2415C117.209 11.4694 116.277 13.5924 114.768 14.8203C132 13.0581 124.15 17.2485 132.42 18.0603C128.114 17.2173 128.193 14.1716 125.747 13.4397C123.301 12.7078 120.07 14.3937 117.606 13.6617C117.864 12.2499 119.032 11.1017 120.73 9.34998C118.372 8.27808 112.423 9.23547 113.66 6.14124C108.367 10.5293 91.3149 8.71167 97.7852 19.3229L98.8188 19.701Z" fill="#D03927" fill-opacity="1.000000" fill-rule="evenodd"/>
			<path id="Vector" d="M108.239 23.6052C108.239 26.4669 104.716 28.7869 100.371 28.7869C96.0249 28.7869 92.502 26.4669 92.502 23.6052C92.502 20.7435 96.0249 18.4236 100.371 18.4236C104.716 18.4236 108.239 20.7435 108.239 23.6052Z" fill="#CDCCCC" fill-opacity="1.000000" fill-rule="evenodd"/>
			<path id="Vector" d="M100.405 23.7971C110.27 23.7971 118.699 27.7083 122.071 33.2252C123.881 33.8066 125.127 35.0043 125.127 36.3749C125.118 36.8306 124.98 37.2797 124.724 37.6929C124.467 38.1062 124.096 38.4744 123.636 38.7734C123.469 46.8413 113.132 53.3517 100.405 53.3517C87.6782 53.3517 77.3784 46.8551 77.1836 38.808C76.7031 38.5079 76.314 38.1342 76.043 37.7119C75.7725 37.2898 75.626 36.8291 75.6138 36.361C75.6138 34.9766 76.9014 33.7548 78.7539 33.1837C82.1392 27.6805 90.5542 23.7971 100.405 23.7971Z" fill="#8B8A8A" fill-opacity="1.000000" fill-rule="evenodd"/>
			<path id="Vector" d="M96.7241 45.6752C105.398 45.6752 112.461 41.2017 112.461 35.6958C112.461 30.1898 105.384 25.7163 96.7241 25.7163C88.0645 25.7163 80.9873 30.1898 80.9873 35.6958C80.9873 41.2017 88.0459 45.6752 96.7241 45.6752Z" fill="#989898" fill-opacity="1.000000" fill-rule="evenodd"/>
			<path id="Vector" d="M91.9263 34.5443C95.2051 34.5443 97.8755 32.8188 97.8755 30.7061C97.8755 28.5933 95.2051 26.8678 91.9263 26.8678C88.6475 26.8678 85.9771 28.5897 85.9771 30.7061C85.9771 32.8224 88.6753 34.5443 91.9263 34.5443Z" fill="#ACACAC" fill-opacity="1.000000" fill-rule="evenodd"/>
			<path id="Vector" d="M100.562 32.2416L100.337 32.2416C97.1992 32.2295 94.0845 32.6534 91.146 33.4927L74.0781 38.3392L74.0781 52.7806C81.5459 59.3899 90.2544 64.5659 100.562 67.9371L100.562 32.2416Z" fill="#CDCCCC" fill-opacity="1.000000" fill-rule="evenodd"/>
			<path id="Vector" d="M96.7241 34.5443C95.3643 34.7164 94.0298 34.9932 92.7402 35.3705L89.4683 36.3126L89.4683 60.4814C91.7773 61.8127 94.2002 63.0212 96.7192 64.0989L96.7192 34.5443L96.7241 34.5443ZM87.9321 36.7555L82.8428 38.2214L82.8428 56.1504C84.4517 57.3351 86.1465 58.4812 87.9321 59.5709L87.9321 36.7555ZM81.311 38.6609L77.9165 39.6382L77.9165 52.1744C79.0044 53.1306 80.1357 54.0681 81.311 54.9868L81.311 38.6609Z" fill="#333333" fill-opacity="1.000000" fill-rule="evenodd"/>
			<path id="Vector" d="M100.562 32.2415L100.788 32.2415C103.918 32.2316 107.024 32.6555 109.956 33.4926L127.046 38.3356L127.046 52.7771C119.574 59.3899 110.866 64.5659 100.562 67.9371L100.562 32.2415Z" fill="#B4B4B4" fill-opacity="1.000000" fill-rule="evenodd"/>
			<path id="Vector" d="M104.4 34.5443C105.788 34.7169 107.15 34.9937 108.466 35.3705L111.806 36.3126L111.806 60.4814C109.448 61.8119 106.976 63.0205 104.405 64.0989L104.405 34.5443L104.4 34.5443ZM113.374 36.7555L118.564 38.2214L118.564 56.1504C116.926 57.3351 115.196 58.4812 113.374 59.5709L113.374 36.7555ZM120.132 38.6609L123.592 39.6382L123.592 52.1744C122.485 53.1306 121.332 54.0681 120.132 54.9868L120.132 38.6609Z" fill="#1A1A1A" fill-opacity="1.000000" fill-rule="evenodd"/>
			<path id="Vector" d="M98.3848 19.5751C99.8579 19.5751 100.564 20.264 99.9648 21.1104C99.5854 21.5624 99.0405 21.9409 98.3833 22.2097C97.7256 22.4785 96.9775 22.6285 96.21 22.6456C94.7412 22.6456 94.0347 21.9598 94.6343 21.1104C95.0142 20.6592 95.5581 20.2814 96.2148 20.0126C96.8711 19.7439 97.6182 19.5933 98.3848 19.5751Z" fill="#E3E3E3" fill-opacity="1.000000" fill-rule="evenodd"/>
		</g>
	</g>
	<rect id="sword_red" width="65.277176" height="117.220261" transform="translate(134.722656 0.000000)" fill="#FFFFFF" fill-opacity="0"/>
	<g clip-path="url(#clip187_10250)">
		<g filter="url(#filter_187_10252_dd)">
			<path id="Vector" d="M135.618 106.859L135.925 107.018C136.273 107.205 136.662 107.307 137.057 107.315C137.452 107.324 137.844 107.239 138.2 107.067C138.562 106.906 138.879 106.662 139.128 106.355C139.378 106.049 139.551 105.687 139.635 105.301C140.341 102.213 141.754 98.4403 143.765 94.5437C145.775 90.6472 148.032 87.3124 150.124 84.949C150.386 84.6544 150.577 84.304 150.683 83.9243C150.789 83.5446 150.806 83.1456 150.734 82.7582C150.663 82.3706 150.503 82.0045 150.268 81.6881C150.033 81.3717 149.729 81.1132 149.378 80.9323L149.067 80.7733L150.346 78.3004L156.352 81.395L162.358 84.4862L161.079 86.9591L160.772 86.8C160.42 86.616 160.03 86.5154 159.633 86.5061C159.236 86.4967 158.843 86.579 158.482 86.7463C158.123 86.9138 157.806 87.1619 157.557 87.4713C157.309 87.7809 157.134 88.1434 157.048 88.5311C156.342 91.6151 154.929 95.3916 152.918 99.2847C150.908 103.178 148.65 106.516 146.559 108.879C146.297 109.174 146.106 109.525 146 109.905C145.894 110.285 145.876 110.684 145.948 111.072C146.021 111.46 146.18 111.826 146.415 112.143C146.65 112.459 146.954 112.718 147.305 112.9L147.615 113.059L146.336 115.531L140.331 112.44L134.339 109.335L135.618 106.859Z" fill="#CA3927" fill-opacity="1.000000" fill-rule="evenodd"/>
			<path id="Vector" d="M150.906 86.4071C151.896 86.924 150.521 91.6216 147.829 96.8927C145.137 102.164 142.151 106.022 141.178 105.506C140.205 104.989 141.563 100.291 144.255 95.02C146.947 89.7489 149.915 85.8903 150.906 86.4071Z" fill="#F04B23" fill-opacity="1.000000" fill-rule="evenodd"/>
			<path id="Vector" d="M194.6 7.67651L191.381 25.8661L161.353 84.0577L151.611 79.03L181.639 20.8384L194.6 7.67651Z" fill="#D1D2D2" fill-opacity="1.000000" fill-rule="evenodd"/>
			<path id="Vector" d="M184.882 17.502L189.995 14.1725L188.197 25.024L161.207 84.0577L191.366 25.8661L194.599 7.67651L184.882 17.502Z" fill="#E6E6E5" fill-opacity="1.000000" fill-rule="evenodd"/>
			<path id="Vector" d="M186.155 24.181L171.968 53.1581L157.776 82.1387L156.227 81.3505L154.682 80.5623L170.418 52.3734L186.155 24.181Z" fill="#818181" fill-opacity="1.000000" fill-rule="evenodd"/>
			<path id="Vector" d="M148.644 75.5353L165.818 84.4476C166.701 83.8083 167.772 83.4869 168.86 83.535C169.947 83.5831 170.986 83.9979 171.81 84.7126C172.634 85.4275 173.194 86.4004 173.401 87.4746C173.607 88.549 173.449 89.662 172.949 90.6342C172.45 91.6064 171.64 92.3812 170.649 92.8337C169.659 93.2863 168.545 93.39 167.489 93.1283C166.432 92.8666 165.494 92.2546 164.826 91.3912C164.158 90.5278 163.798 89.4631 163.805 88.369L146.63 79.4567C145.746 80.0977 144.673 80.4204 143.583 80.3729C142.495 80.3253 141.454 79.9102 140.628 79.1945C139.802 78.4789 139.241 77.5043 139.033 76.4282C138.826 75.3521 138.985 74.2372 139.485 73.2632C139.985 72.2892 140.797 71.5131 141.79 71.0601C142.782 70.6069 143.897 70.5033 144.956 70.7659C146.014 71.0284 146.954 71.6418 147.623 72.5072C148.292 73.3724 148.651 74.4392 148.644 75.5353Z" fill="#333333" fill-opacity="1.000000" fill-rule="evenodd"/>
		</g>
	</g>
	<g filter="url(#filter_187_10259_dd)">
		<path id="Netflix (NFLX)" d="M105.8 179.217C104.76 177.702 104.18 175.912 104.18 173.765C104.18 171.615 104.76 169.827 105.8 168.31L106.688 168.31C105.868 169.435 105.22 171.735 105.22 173.765C105.22 175.792 105.868 178.092 106.688 179.217L105.8 179.217ZM139.228 168.31C140.265 169.827 140.845 171.615 140.845 173.765C140.845 175.912 140.265 177.702 139.228 179.217L138.34 179.217C139.158 178.092 139.805 175.792 139.805 173.765C139.805 171.735 139.158 169.435 138.34 168.31L139.228 168.31ZM85.3978 171.582L86.8627 171.582L86.8627 172.435L85.3978 172.435L85.3978 178.127L84.39 178.127L84.39 172.435L83.3353 172.435L83.3353 171.582L84.39 171.582L84.39 170.677C84.39 169.552 85.2953 168.99 86.2328 168.99C86.7279 168.99 87.0326 169.092 87.1879 169.162L86.8978 170.03C86.7953 169.997 86.6254 169.927 86.3353 169.927C85.6703 169.927 85.3978 170.27 85.3978 170.917L85.3978 171.582ZM92.3513 169.81C92.3513 170.185 92.029 170.49 91.6365 170.49C91.2439 170.49 90.9187 170.185 90.9187 169.81C90.9187 169.435 91.2439 169.127 91.6365 169.127C92.029 169.127 92.3513 169.435 92.3513 169.81ZM69.5788 169.4L70.6189 169.4L70.6189 178.127L69.5964 178.127L64.8415 171.275L64.7536 171.275L64.7536 178.127L63.699 178.127L63.699 169.4L64.7214 169.4L69.4939 176.27L69.5788 176.27L69.5788 169.4ZM88.2772 169.4L89.2821 169.4L89.2821 178.127L88.2772 178.127L88.2772 169.4ZM114.187 169.4L115.227 169.4L115.227 178.127L114.204 178.127L109.449 171.275L109.362 171.275L109.362 178.127L108.307 178.127L108.307 169.4L109.329 169.4L114.102 176.27L114.187 176.27L114.187 169.4ZM118.396 178.127L117.341 178.127L117.341 169.4L122.573 169.4L122.573 170.337L118.396 170.337L118.396 173.287L122.181 173.287L122.181 174.225L118.396 174.225L118.396 178.127ZM129.493 178.127L124.381 178.127L124.381 169.4L125.435 169.4L125.435 177.19L129.493 177.19L129.493 178.127ZM130.398 169.4L131.641 169.4L133.891 173.03L133.961 173.03L136.211 169.4L137.453 169.4L134.711 173.765L137.453 178.127L136.211 178.127L133.961 174.565L133.891 174.565L131.641 178.127L130.398 178.127L133.211 173.765L130.398 169.4ZM81.0342 171.582L82.4316 171.582L82.4316 172.435L81.0342 172.435L81.0342 176.252C81.0342 177.105 81.459 177.24 81.9014 177.24C82.124 177.24 82.2617 177.207 82.3467 177.19L82.5518 178.092C82.4141 178.145 82.1768 178.212 81.8018 178.212C80.9492 178.212 80.0264 177.667 80.0264 176.525L80.0264 172.435L79.0391 172.435L79.0391 171.582L80.0264 171.582L80.0264 170.015L81.0342 170.015L81.0342 171.582ZM77.9479 176.61C77.6403 177.6 76.6705 178.265 75.3405 178.265C73.4479 178.265 72.2877 176.917 72.2877 174.905C72.2877 172.895 73.4655 171.497 75.2379 171.497C76.6002 171.497 78.0504 172.332 78.0504 174.77L78.0504 175.195L73.2985 175.195C73.3454 176.598 74.1598 177.36 75.3405 177.36C76.1286 177.36 76.7204 177.02 76.9752 176.337L77.9479 176.61ZM92.1286 178.127L91.1238 178.127L91.1238 171.582L92.1286 171.582L92.1286 178.127ZM93.5631 171.582L94.7204 171.582L96.2877 174.257L97.858 171.582L99.0153 171.582L96.903 174.855L99.0153 178.127L97.858 178.127L96.2877 175.587L94.7204 178.127L93.5631 178.127L95.6403 174.855L93.5631 171.582ZM75.2379 172.4C74.0866 172.4 73.3659 173.308 73.2985 174.327L77.028 174.327C77.028 173.217 76.3278 172.4 75.2379 172.4Z" fill="#FFFFFF" fill-opacity="1.000000" fill-rule="evenodd"/>
	</g>
</svg>
