<svg width="89" height="90" viewBox="0 0 89 90" fill="none" xmlns="http://www.w3.org/2000/svg">
<rect x="21.5024" y="24.1279" width="45.9342" height="45.9342" rx="22.9671" fill="black"/>
<rect x="21.5024" y="24.1279" width="45.9342" height="45.9342" rx="22.9671" stroke="#CDCCCC"/>
<g clip-path="url(#clip0_462_945)">
<path d="M32.3092 52.6873C31.4153 52.6518 30.684 52.4072 30.1122 51.9529C30.0031 51.8661 29.743 51.6059 29.6558 51.4962C29.4239 51.2046 29.2662 50.9208 29.1611 50.606C28.8375 49.6368 29.004 48.365 29.6374 46.9693C30.1797 45.7743 31.0165 44.5892 32.4764 42.9477C32.6914 42.7062 33.3318 41.9998 33.336 41.9998C33.3375 41.9998 33.3026 42.0603 33.2587 42.1339C32.8791 42.7697 32.5543 43.5187 32.3773 44.167C32.0931 45.2074 32.1274 46.1002 32.4777 46.7925C32.7194 47.2694 33.1338 47.6825 33.5997 47.9109C34.4153 48.3105 35.6095 48.3436 37.0679 48.0076C37.1683 47.9844 42.1437 46.6636 48.1244 45.0725C54.1051 43.4813 58.9992 42.1804 59 42.1815C59.0017 42.1829 45.1051 48.1293 37.8912 51.2143C36.7488 51.7027 36.4433 51.826 35.9062 52.0146C34.5332 52.4968 33.3034 52.7268 32.3092 52.6873Z" fill="white"/>
</g>
<g filter="url(#filter0_d_462_945)">
<path d="M22.9949 55.2288L23.6062 54.4472C26.9586 50.1445 31.1292 44.7916 29.4182 37.6186L27.7878 30.7841L26.5817 31.0718C22.227 32.1106 18.4897 30.9927 17.8883 28.4716L15.4761 29.047C16.0775 31.5681 13.2472 34.2526 8.89247 35.2914L7.68637 35.5791L9.31669 42.4136C11.0278 49.5866 17.1657 52.4805 22.0976 54.8058L22.9949 55.2288Z" fill="#D84025"/>
</g>
<g filter="url(#filter1_d_462_945)">
<path d="M8.8924 35.2915C13.2471 34.2527 16.0774 31.5681 15.476 29.047L16.6821 28.7593L22.9959 55.2274L22.9947 55.2289L22.0975 54.8058C17.1657 52.4805 11.0277 49.5867 9.31661 42.4137L7.68629 35.5792L8.8924 35.2915Z" fill="#A13023"/>
</g>
<g clip-path="url(#clip1_462_945)">
<g filter="url(#filter2_d_462_945)">
<path fill-rule="evenodd" clip-rule="evenodd" d="M54.4435 22.5884C54.7527 23.844 55.0606 25.0985 55.3672 26.3521C52.543 27.9683 48.977 28.8709 44.4976 28.8724V23.689L54.4435 22.5884Z" fill="#535353"/>
<path fill-rule="evenodd" clip-rule="evenodd" d="M34.5598 22.5884C34.2464 23.844 33.9358 25.0985 33.6279 26.3521C36.4582 27.9683 40.016 28.8709 44.4975 28.8724V23.689L34.5598 22.5884Z" fill="#676767"/>
<path fill-rule="evenodd" clip-rule="evenodd" d="M42.2743 9.07588C35.8217 3.36946 48.0228 3.9102 51.4613 1.01903C51.704 1.26045 51.8479 1.55072 51.8752 1.85373C51.9024 2.15675 51.8117 2.45916 51.6144 2.72336C53.1408 3.67159 55.8243 2.37785 57.2793 4.19529C55.6304 4.12402 54.6264 4.61827 54.0142 5.27986C58.5363 4.75617 56.767 7.94327 60.6321 8.123C57.7527 9.34238 50.9899 7.00124 46.8086 9.85058C44.921 9.7979 44.1619 9.13321 42.2743 9.07588Z" fill="#A23023"/>
<path fill-rule="evenodd" clip-rule="evenodd" d="M60.6302 8.0703C57.78 9.32968 51.0667 6.93003 46.916 9.85058C46.1437 9.81775 45.3837 9.6841 44.6675 9.45514C50.0964 4.6606 54.9136 8.91676 60.6322 8.0703H60.6302Z" fill="#1A1A1A"/>
<path fill-rule="evenodd" clip-rule="evenodd" d="M42.6515 8.59112C43.3966 8.64917 44.1275 8.78311 44.8236 8.98919L44.8728 9.00139C44.6296 8.72991 44.3906 8.45843 44.1556 8.18695C42.0203 6.37049 46.5142 4.22153 49.2397 3.78076C50.2213 4.41523 51.7336 4.11477 52.5082 4.56012C51.8401 5.10003 51.4262 6.03342 50.7561 6.57333C58.4079 5.79855 54.9222 7.64094 58.5943 7.99783C58.3472 7.87284 58.1227 7.7247 57.9263 7.55706C56.6968 6.51233 56.8792 5.3715 54.1988 5.67654L52.707 5.84583C52.9706 5.57333 53.2363 5.30135 53.5041 5.02987C54.1084 4.39929 55.0179 3.96788 56.041 3.82652C55.8012 3.72207 55.537 3.65222 55.2623 3.62062C55.0005 3.59112 54.7362 3.57532 54.4713 3.57334C53.2787 3.55199 52.1414 3.62215 51.1926 3.05173L50.8401 2.83669C50.9098 2.74213 50.9815 2.64909 51.045 2.55606C51.2036 2.34725 51.2703 2.10668 51.2356 1.86821C50.0061 2.56216 48.3052 3.02886 46.8482 3.41625C45.6945 3.72128 44.4835 4.02631 43.3892 4.40608C42.6166 4.67756 41.7498 5.05427 41.34 5.56978C40.5961 6.53063 41.7457 7.77973 42.6515 8.59112Z" fill="#EF4123"/>
<path fill-rule="evenodd" clip-rule="evenodd" d="M43.726 8.71744C44.1138 8.79334 44.4961 8.88402 44.8716 8.98912L44.9206 9.0014C44.6783 8.72818 44.4401 8.45496 44.2059 8.18175C42.0781 6.35365 46.5563 4.19094 49.2722 3.74734C50.2504 4.38587 51.7574 4.08349 52.5293 4.53169C51.8636 5.07506 51.4511 6.01443 50.7833 6.55779C58.4083 5.77805 54.9348 7.63224 58.5941 7.99142C56.6889 7.61843 56.7236 6.27076 55.6413 5.94689C54.5591 5.62302 53.1296 6.369 52.0392 6.04513C52.1535 5.42041 52.6702 4.91235 53.4216 4.13721C52.3782 3.66292 49.746 4.08656 50.2932 2.71741C47.951 4.65909 40.4057 3.85479 43.2686 8.55013L43.726 8.71744Z" fill="#D03927"/>
<path d="M44.4128 12.7378C46.3357 12.7378 47.8945 11.7113 47.8945 10.445C47.8945 9.17873 46.3357 8.15221 44.4128 8.15221C42.4899 8.15221 40.9312 9.17873 40.9312 10.445C40.9312 11.7113 42.4899 12.7378 44.4128 12.7378Z" fill="#CDCCCC"/>
<path fill-rule="evenodd" clip-rule="evenodd" d="M44.4279 10.5299C48.7929 10.5299 52.5226 12.2605 54.0145 14.7017C54.8158 14.959 55.3671 15.4889 55.3671 16.0954C55.363 16.297 55.3022 16.4958 55.1885 16.6786C55.0748 16.8615 54.9108 17.0244 54.7072 17.1567C54.6334 20.7267 50.0594 23.6074 44.4279 23.6074C38.7964 23.6074 34.2388 20.7328 34.1527 17.1721C33.94 17.0393 33.7679 16.8739 33.648 16.6871C33.5282 16.5003 33.4634 16.2964 33.458 16.0893C33.458 15.4767 34.0277 14.9361 34.8474 14.6834C36.3455 12.2483 40.069 10.5299 44.4279 10.5299Z" fill="#8B8A8A"/>
<path fill-rule="evenodd" clip-rule="evenodd" d="M42.7993 20.2107C46.6373 20.2107 49.7626 18.2312 49.7626 15.7949C49.7626 13.3586 46.6312 11.3791 42.7993 11.3791C38.9674 11.3791 35.8359 13.3586 35.8359 15.7949C35.8359 18.2312 38.9592 20.2107 42.7993 20.2107Z" fill="#989898"/>
<path fill-rule="evenodd" clip-rule="evenodd" d="M40.6764 15.2854C42.1273 15.2854 43.3089 14.5219 43.3089 13.587C43.3089 12.6521 42.1273 11.8886 40.6764 11.8886C39.2256 11.8886 38.0439 12.6506 38.0439 13.587C38.0439 14.5234 39.2379 15.2854 40.6764 15.2854Z" fill="#ACACAC"/>
<path fill-rule="evenodd" clip-rule="evenodd" d="M44.4976 14.2665H44.398C43.0095 14.2611 41.6314 14.4487 40.3311 14.82L32.7788 16.9646V23.3547C36.0832 26.2792 39.9366 28.5695 44.4976 30.0613V14.2665Z" fill="#CDCCCC"/>
<path fill-rule="evenodd" clip-rule="evenodd" d="M42.7991 15.2854C42.1973 15.3615 41.6069 15.484 41.0364 15.6509L39.5886 16.0678V26.7622C40.6103 27.3513 41.6823 27.8861 42.7971 28.3629V15.2854H42.7991ZM38.9088 16.2638L36.6568 16.9125V24.8458C37.3687 25.37 38.1187 25.8771 38.9088 26.3593V16.2638ZM35.979 17.1069L34.4771 17.5394V23.0865C34.9583 23.5096 35.459 23.9244 35.979 24.3309V17.1069Z" fill="#333333"/>
<path fill-rule="evenodd" clip-rule="evenodd" d="M44.4976 14.2664H44.5972C45.9823 14.262 47.3568 14.4496 48.6539 14.82L56.2164 16.963V23.3532C52.91 26.2792 49.0566 28.5695 44.4976 30.0613V14.2664Z" fill="#B4B4B4"/>
<path fill-rule="evenodd" clip-rule="evenodd" d="M46.1958 15.2854C46.8099 15.3618 47.4126 15.4842 47.9949 15.6509L49.4726 16.0678V26.7622C48.4294 27.3509 47.3354 27.8857 46.1978 28.3629V15.2854H46.1958ZM50.1665 16.2638L52.4629 16.9125V24.8458C51.7383 25.37 50.9729 25.8771 50.1665 26.3593V16.2638ZM53.1567 17.1069L54.6877 17.5394V23.0865C54.1978 23.5096 53.6875 23.9244 53.1567 24.3309V17.1069Z" fill="#1A1A1A"/>
<path fill-rule="evenodd" clip-rule="evenodd" d="M43.5342 8.66171C44.1861 8.66171 44.4987 8.96658 44.2334 9.34106C44.0654 9.54106 43.8244 9.70854 43.5335 9.82748C43.2426 9.94643 42.9115 10.0129 42.5719 10.0204C41.922 10.0204 41.6095 9.71693 41.8747 9.34106C42.0429 9.14144 42.2836 8.97423 42.574 8.85532C42.8645 8.73642 43.195 8.66977 43.5342 8.66171Z" fill="#E3E3E3"/>
</g>
</g>
<g clip-path="url(#clip2_462_945)">
<g filter="url(#filter3_d_462_945)">
<path fill-rule="evenodd" clip-rule="evenodd" d="M60.0088 47.2835L60.1448 47.3539C60.299 47.4366 60.4706 47.4818 60.6455 47.4856C60.8205 47.4894 60.9939 47.4517 61.1515 47.3758C61.3113 47.3045 61.452 47.1966 61.5623 47.0608C61.6726 46.925 61.7493 46.7652 61.7862 46.5942C62.0988 45.228 62.7241 43.5585 63.6136 41.8343C64.5031 40.1102 65.502 38.6345 66.4275 37.5888C66.5434 37.4585 66.6281 37.3034 66.6749 37.1354C66.7217 36.9673 66.7295 36.7908 66.6977 36.6194C66.6659 36.4479 66.5953 36.2859 66.4913 36.1459C66.3873 36.0059 66.2526 35.8915 66.0976 35.8114L65.9601 35.7411L66.526 34.6469L69.1835 36.0162L71.841 37.384L71.2751 38.4782L71.1391 38.4079C70.9834 38.3264 70.8111 38.2819 70.6354 38.2778C70.4598 38.2736 70.2855 38.31 70.1262 38.3841C69.9668 38.4582 69.8267 38.5679 69.7166 38.7049C69.6066 38.8418 69.5295 39.0023 69.4914 39.1738C69.1788 40.5385 68.5535 42.2095 67.664 43.9321C66.7745 45.6547 65.7756 47.1319 64.8502 48.1777C64.7342 48.3081 64.6496 48.4633 64.6027 48.6315C64.5559 48.7996 64.5481 48.9762 64.5799 49.1478C64.6117 49.3194 64.6823 49.4815 64.7863 49.6216C64.8903 49.7618 65.025 49.8764 65.18 49.9566L65.3176 50.0269L64.7517 51.1211L62.0941 49.7534L59.4429 48.3793L60.0088 47.2835Z" fill="#CA3927"/>
<path fill-rule="evenodd" clip-rule="evenodd" d="M66.7735 38.234C67.2118 38.4627 66.6031 40.5413 65.412 42.8737C64.221 45.2061 62.8998 46.9135 62.4692 46.6848C62.0386 46.4561 62.6396 44.3775 63.8306 42.0451C65.0217 39.7127 66.3351 38.0053 66.7735 38.234Z" fill="#F04B23"/>
<path fill-rule="evenodd" clip-rule="evenodd" d="M86.1073 3.39676L84.6829 11.4454L71.396 37.1944L67.0854 34.9698L80.3724 9.22071L86.1073 3.39676Z" fill="#D1D2D2"/>
<path fill-rule="evenodd" clip-rule="evenodd" d="M81.8078 7.74437L84.07 6.27116L83.2745 11.0728L71.3315 37.1944L84.6768 11.4454L86.1074 3.39676L81.8078 7.74437Z" fill="#E6E6E5"/>
<path fill-rule="evenodd" clip-rule="evenodd" d="M82.371 10.6998L76.0931 23.5217L69.8136 36.3452L69.1282 35.9965L68.4443 35.6477L75.4077 23.1745L82.371 10.6998Z" fill="#818181"/>
<path fill-rule="evenodd" clip-rule="evenodd" d="M65.7724 33.4234L73.372 37.3669C73.7628 37.0841 74.2369 36.9418 74.7179 36.9631C75.1989 36.9844 75.6587 37.168 76.0233 37.4842C76.3878 37.8005 76.6358 38.231 76.7273 38.7064C76.8188 39.1817 76.7484 39.6742 76.5275 40.1044C76.3066 40.5346 75.9481 40.8775 75.5097 41.0777C75.0714 41.2779 74.5787 41.3238 74.1113 41.208C73.6438 41.0922 73.2287 40.8214 72.933 40.4394C72.6372 40.0573 72.478 39.5862 72.4811 39.1021L64.8815 35.1585C64.4903 35.4422 64.0154 35.585 63.5336 35.5639C63.0518 35.5429 62.591 35.3592 62.2257 35.0425C61.8604 34.7258 61.6119 34.2946 61.5201 33.8185C61.4284 33.3423 61.4989 32.8489 61.7201 32.418C61.9414 31.987 62.3006 31.6436 62.7398 31.4431C63.1789 31.2426 63.6724 31.1968 64.1407 31.3129C64.609 31.4291 65.0246 31.7005 65.3207 32.0834C65.6167 32.4663 65.7759 32.9384 65.7724 33.4234Z" fill="#333333"/>
</g>
</g>
<g filter="url(#filter4_d_462_945)">
<path d="M22.4537 75.252H23.3537V84H22.3577L17.1377 76.56V84H16.2257V75.252H17.2937L22.4537 82.608V75.252ZM25.5362 76.368C25.4082 76.224 25.3442 76.068 25.3442 75.9C25.3442 75.732 25.4082 75.576 25.5362 75.432C25.6642 75.304 25.8202 75.24 26.0042 75.24C26.1802 75.24 26.3322 75.304 26.4602 75.432C26.5882 75.56 26.6522 75.716 26.6522 75.9C26.6522 76.084 26.5882 76.24 26.4602 76.368C26.3322 76.496 26.1802 76.56 26.0042 76.56C25.8202 76.56 25.6642 76.496 25.5362 76.368ZM25.5602 84V78.036H26.4362V84H25.5602ZM29.3198 81.012H29.2838V84H28.4078V74.892H29.2838V80.46L32.1158 78.036H33.3518L30.2078 80.712L33.4958 84H32.2838L29.3198 81.012ZM38.9141 81.288H34.0901C34.1221 81.872 34.3421 82.356 34.7501 82.74C35.1501 83.132 35.6421 83.328 36.2261 83.328C36.6821 83.328 37.0701 83.22 37.3901 83.004C37.7101 82.78 37.9381 82.464 38.0741 82.056L38.8421 82.296C38.6741 82.856 38.3501 83.3 37.8701 83.628C37.3741 83.948 36.8301 84.108 36.2381 84.108C35.6781 84.108 35.1621 83.968 34.6901 83.688C34.2181 83.408 33.8581 83.032 33.6101 82.56C33.3461 82.096 33.2141 81.58 33.2141 81.012C33.2141 80.468 33.3381 79.964 33.5861 79.5C33.8181 79.028 34.1661 78.648 34.6301 78.36C35.0781 78.072 35.5741 77.928 36.1181 77.928C36.7181 77.928 37.2301 78.064 37.6541 78.336C38.0861 78.6 38.4061 78.964 38.6141 79.428C38.8221 79.868 38.9261 80.392 38.9261 81C38.9261 81.104 38.9221 81.2 38.9141 81.288ZM34.1021 80.544H38.0501C37.9941 80 37.7941 79.552 37.4501 79.2C37.1141 78.864 36.6701 78.696 36.1181 78.696C35.6141 78.696 35.1701 78.876 34.7861 79.236C34.4021 79.612 34.1741 80.048 34.1021 80.544ZM43.1645 80.004V79.716C43.1645 78.564 43.4445 77.516 44.0045 76.572C44.5565 75.62 45.3365 74.856 46.3445 74.28L46.7045 74.844C44.9365 75.98 44.0525 77.608 44.0525 79.728V79.992C44.0525 82.096 44.9365 83.72 46.7045 84.864L46.3445 85.452C45.3365 84.868 44.5565 84.1 44.0045 83.148C43.4445 82.204 43.1645 81.156 43.1645 80.004ZM54.4459 75.252H55.3459V84H54.3499L49.1299 76.56V84H48.2179V75.252H49.2859L54.4459 82.608V75.252ZM58.7044 84H57.7804V75.252H58.7044V79.116H58.7644L62.6884 75.252H63.9604L59.6764 79.44L64.1644 84H62.8684L58.7644 79.788H58.7044V84ZM65.339 84V75.252H70.811V76.104H66.263V79.128H70.427V79.98H66.263V83.148H70.859V84H65.339ZM75.3849 79.716V80.004C75.3849 81.164 75.1089 82.216 74.5569 83.16C73.9969 84.104 73.2129 84.868 72.2049 85.452L71.8449 84.864C73.6129 83.72 74.4969 82.096 74.4969 79.992V79.728C74.4969 77.608 73.6129 75.98 71.8449 74.844L72.2049 74.28C73.2129 74.848 73.9969 75.608 74.5569 76.56C75.1089 77.512 75.3849 78.564 75.3849 79.716Z" fill="white"/>
</g>
<defs>
<filter id="filter0_d_462_945" x="3.68652" y="28.4716" width="30.1289" height="34.7573" filterUnits="userSpaceOnUse" color-interpolation-filters="sRGB">
<feFlood flood-opacity="0" result="BackgroundImageFix"/>
<feColorMatrix in="SourceAlpha" type="matrix" values="0 0 0 0 0 0 0 0 0 0 0 0 0 0 0 0 0 0 127 0" result="hardAlpha"/>
<feOffset dy="4"/>
<feGaussianBlur stdDeviation="2"/>
<feComposite in2="hardAlpha" operator="out"/>
<feColorMatrix type="matrix" values="0 0 0 0 0 0 0 0 0 0 0 0 0 0 0 0 0 0 0.25 0"/>
<feBlend mode="normal" in2="BackgroundImageFix" result="effect1_dropShadow_462_945"/>
<feBlend mode="normal" in="SourceGraphic" in2="effect1_dropShadow_462_945" result="shape"/>
</filter>
<filter id="filter1_d_462_945" x="3.68652" y="28.7593" width="23.3096" height="34.4696" filterUnits="userSpaceOnUse" color-interpolation-filters="sRGB">
<feFlood flood-opacity="0" result="BackgroundImageFix"/>
<feColorMatrix in="SourceAlpha" type="matrix" values="0 0 0 0 0 0 0 0 0 0 0 0 0 0 0 0 0 0 127 0" result="hardAlpha"/>
<feOffset dy="4"/>
<feGaussianBlur stdDeviation="2"/>
<feComposite in2="hardAlpha" operator="out"/>
<feColorMatrix type="matrix" values="0 0 0 0 0 0 0 0 0 0 0 0 0 0 0 0 0 0 0.25 0"/>
<feBlend mode="normal" in2="BackgroundImageFix" result="effect1_dropShadow_462_945"/>
<feBlend mode="normal" in="SourceGraphic" in2="effect1_dropShadow_462_945" result="shape"/>
</filter>
<filter id="filter2_d_462_945" x="22.7788" y="-4.98097" width="47.8535" height="49.0422" filterUnits="userSpaceOnUse" color-interpolation-filters="sRGB">
<feFlood flood-opacity="0" result="BackgroundImageFix"/>
<feColorMatrix in="SourceAlpha" type="matrix" values="0 0 0 0 0 0 0 0 0 0 0 0 0 0 0 0 0 0 127 0" result="hardAlpha"/>
<feOffset dy="4"/>
<feGaussianBlur stdDeviation="5"/>
<feComposite in2="hardAlpha" operator="out"/>
<feColorMatrix type="matrix" values="0 0 0 0 0 0 0 0 0 0 0 0 0 0 0 0 0 0 0.5 0"/>
<feBlend mode="normal" in2="BackgroundImageFix" result="effect1_dropShadow_462_945"/>
<feBlend mode="normal" in="SourceGraphic" in2="effect1_dropShadow_462_945" result="shape"/>
</filter>
<filter id="filter3_d_462_945" x="49.4429" y="-2.60324" width="46.6646" height="67.7244" filterUnits="userSpaceOnUse" color-interpolation-filters="sRGB">
<feFlood flood-opacity="0" result="BackgroundImageFix"/>
<feColorMatrix in="SourceAlpha" type="matrix" values="0 0 0 0 0 0 0 0 0 0 0 0 0 0 0 0 0 0 127 0" result="hardAlpha"/>
<feOffset dy="4"/>
<feGaussianBlur stdDeviation="5"/>
<feComposite in2="hardAlpha" operator="out"/>
<feColorMatrix type="matrix" values="0 0 0 0 0 0 0 0 0 0 0 0 0 0 0 0 0 0 0.5 0"/>
<feBlend mode="normal" in2="BackgroundImageFix" result="effect1_dropShadow_462_945"/>
<feBlend mode="normal" in="SourceGraphic" in2="effect1_dropShadow_462_945" result="shape"/>
</filter>
<filter id="filter4_d_462_945" x="14.2256" y="74.28" width="63.1592" height="15.172" filterUnits="userSpaceOnUse" color-interpolation-filters="sRGB">
<feFlood flood-opacity="0" result="BackgroundImageFix"/>
<feColorMatrix in="SourceAlpha" type="matrix" values="0 0 0 0 0 0 0 0 0 0 0 0 0 0 0 0 0 0 127 0" result="hardAlpha"/>
<feOffset dy="2"/>
<feGaussianBlur stdDeviation="1"/>
<feComposite in2="hardAlpha" operator="out"/>
<feColorMatrix type="matrix" values="0 0 0 0 0 0 0 0 0 0 0 0 0 0 0 0 0 0 0.5 0"/>
<feBlend mode="normal" in2="BackgroundImageFix" result="effect1_dropShadow_462_945"/>
<feBlend mode="normal" in="SourceGraphic" in2="effect1_dropShadow_462_945" result="shape"/>
</filter>
<clipPath id="clip0_462_945">
<rect width="30" height="10.6917" fill="white" transform="translate(29 42)"/>
</clipPath>
<clipPath id="clip1_462_945">
<rect width="30.5708" height="31.8649" fill="white" transform="translate(31.9297)"/>
</clipPath>
<clipPath id="clip2_462_945">
<rect width="28.8843" height="51.8684" fill="white" transform="translate(59.6128)"/>
</clipPath>
</defs>
</svg>
