<svg width="90" height="100" viewBox="0 0 90 100" fill="none" xmlns="http://www.w3.org/2000/svg">
<rect x="21.5801" y="24.1279" width="45.9342" height="45.9342" rx="22.9671" fill="#F70000"/>
<rect x="21.5801" y="24.1279" width="45.9342" height="45.9342" rx="22.9671" stroke="#CDCCCC"/>
<path d="M39.7332 56.9711H50.759C53.2317 56.9069 55.5815 55.8795 57.3077 54.108C59.0339 52.3364 60 49.9607 60 47.4871C60 45.0136 59.0339 42.6379 57.3077 40.8663C55.5815 39.0947 53.2317 38.0674 50.759 38.0032H39.7332C38.4671 37.9703 37.2071 38.1913 36.0278 38.6532C34.8484 39.115 33.7734 39.8084 32.8663 40.6923C31.9591 41.5762 31.2382 42.6328 30.7459 43.7998C30.2536 44.9668 30 46.2205 30 47.4871C30 48.7537 30.2536 50.0075 30.7459 51.1745C31.2382 52.3415 31.9591 53.3981 32.8663 54.282C33.7734 55.1659 34.8484 55.8592 36.0278 56.3211C37.2071 56.7829 38.4671 57.0039 39.7332 56.9711ZM50.51 53.632H39.9758C38.382 53.5806 36.8707 52.9114 35.7615 51.7658C34.6523 50.6202 34.0321 49.0881 34.0321 47.4935C34.0321 45.8989 34.6523 44.3668 35.7615 43.2212C36.8707 42.0756 38.382 41.4064 39.9758 41.355H50.51C51.3328 41.3284 52.1525 41.4676 52.9204 41.7641C53.6884 42.0607 54.3888 42.5086 54.9802 43.0812C55.5717 43.6538 56.0419 44.3395 56.3631 45.0975C56.6842 45.8555 56.8497 46.6703 56.8497 47.4935C56.8497 48.3167 56.6842 49.1315 56.3631 49.8895C56.0419 50.6475 55.5717 51.3332 54.9802 51.9058C54.3888 52.4785 53.6884 52.9264 52.9204 53.2229C52.1525 53.5194 51.3328 53.6586 50.51 53.632Z" fill="white"/>
<g clip-path="url(#clip0_462_654)">
<g filter="url(#filter0_d_462_654)">
<path d="M66.9175 55.4019L66.3039 54.6173C62.9388 50.2982 58.7522 44.9249 60.4698 37.7246L62.1064 30.8641L63.317 31.1529C67.6883 32.1957 71.4399 31.0736 72.0436 28.5428L74.4649 29.1204C73.8612 31.6512 76.7023 34.3459 81.0736 35.3887L82.2843 35.6775L80.6478 42.5379C78.9302 49.7382 72.7688 52.6431 67.8183 54.9773L66.9175 55.4019Z" fill="#7AB9E8"/>
</g>
<g filter="url(#filter1_d_462_654)">
<path d="M81.0738 35.3887C76.7025 34.3459 73.8614 31.6512 74.4651 29.1205L73.2544 28.8316L66.9166 55.4004L66.9178 55.4019L67.8185 54.9773C72.769 52.6431 78.9303 49.7383 80.6479 42.538L82.2845 35.6775L81.0738 35.3887Z" fill="#579ADF"/>
</g>
</g>
<g clip-path="url(#clip1_462_654)">
<g filter="url(#filter2_d_462_654)">
<path fill-rule="evenodd" clip-rule="evenodd" d="M35.1478 22.6743C34.8374 23.9347 34.5283 25.194 34.2206 26.4523C37.0556 28.0747 40.6351 28.9807 45.1316 28.9822V23.7791L35.1478 22.6743Z" fill="#535353"/>
<path fill-rule="evenodd" clip-rule="evenodd" d="M55.1071 22.6743C55.4216 23.9347 55.7334 25.194 56.0425 26.4523C53.2014 28.0747 49.6301 28.9807 45.1315 28.9822V23.7791L55.1071 22.6743Z" fill="#676767"/>
<path fill-rule="evenodd" clip-rule="evenodd" d="M47.3632 9.11041C53.8403 3.38228 41.5928 3.92507 38.1412 1.0229C37.8976 1.26525 37.7531 1.55661 37.7258 1.86078C37.6985 2.16496 37.7895 2.46851 37.9876 2.73372C36.4554 3.68556 33.7617 2.38689 32.3011 4.21125C33.9563 4.1397 34.9641 4.63584 35.5786 5.29995C31.0393 4.77426 32.8153 7.97349 28.9356 8.15391C31.8259 9.37792 38.6144 7.02788 42.8116 9.88806C44.7064 9.83518 45.4684 9.16796 47.3632 9.11041Z" fill="#1B2241"/>
<path fill-rule="evenodd" clip-rule="evenodd" d="M28.9377 8.10101C31.7988 9.36518 38.5376 6.9564 42.7041 9.88806C43.4794 9.85511 44.2422 9.72095 44.9612 9.49112C39.5116 4.67834 34.6761 8.9507 28.9357 8.10101H28.9377Z" fill="#1A1A1A"/>
<path fill-rule="evenodd" clip-rule="evenodd" d="M46.985 8.62381C46.237 8.68208 45.5034 8.81653 44.8045 9.02339L44.7552 9.03564C44.9993 8.76312 45.2393 8.49061 45.4751 8.2181C47.6185 6.39472 43.1075 4.2376 40.3717 3.79515C39.3864 4.43203 37.8683 4.13043 37.0908 4.57747C37.7613 5.11943 38.1769 6.05638 38.8495 6.59834C31.1686 5.82061 34.6676 7.67002 30.9814 8.02826C31.2295 7.9028 31.4549 7.75409 31.652 7.58581C32.8862 6.5371 32.7032 5.39194 35.3937 5.69814L36.8912 5.86807C36.6266 5.59454 36.3598 5.32152 36.0911 5.04901C35.4845 4.41603 34.5715 3.98298 33.5445 3.84108C33.7853 3.73624 34.0504 3.66612 34.3261 3.6344C34.589 3.60479 34.8543 3.58893 35.1201 3.58694C36.3173 3.5655 37.459 3.63593 38.4114 3.06335L38.7652 2.84748C38.6952 2.75256 38.6232 2.65917 38.5595 2.56578C38.4003 2.35618 38.3333 2.1147 38.3682 1.87532C39.6024 2.57191 41.3097 3.04038 42.7722 3.42925C43.9303 3.73544 45.146 4.04163 46.2445 4.42284C47.02 4.69536 47.8901 5.0735 48.3015 5.59097C49.0482 6.55548 47.8942 7.80934 46.985 8.62381Z" fill="#4386BB"/>
<path fill-rule="evenodd" clip-rule="evenodd" d="M45.9063 8.75059C45.517 8.82679 45.1332 8.91781 44.7563 9.02331L44.7071 9.03563C44.9504 8.76138 45.1895 8.48712 45.4246 8.21286C47.5604 6.37781 43.0652 4.20687 40.339 3.76159C39.3571 4.40255 37.8444 4.09902 37.0695 4.54892C37.7378 5.09435 38.1518 6.0373 38.8221 6.58273C31.1681 5.80003 34.6549 7.66127 30.9816 8.02181C32.8941 7.6474 32.8592 6.29461 33.9456 5.96951C35.032 5.64441 36.4669 6.39322 37.5615 6.06812C37.4467 5.44103 36.9281 4.93103 36.1738 4.15295C37.2212 3.67685 39.8634 4.1021 39.3141 2.72774C41.6652 4.67681 49.2392 3.86945 46.3654 8.58265L45.9063 8.75059Z" fill="#283A84"/>
<path d="M45.217 12.7863C43.2868 12.7863 41.7221 11.7558 41.7221 10.4847C41.7221 9.21364 43.2868 8.18321 45.217 8.18321C47.1472 8.18321 48.7119 9.21364 48.7119 10.4847C48.7119 11.7558 47.1472 12.7863 45.217 12.7863Z" fill="#CDCCCC"/>
<path fill-rule="evenodd" clip-rule="evenodd" d="M45.2015 10.57C40.8199 10.57 37.076 12.3072 35.5784 14.7577C34.7741 15.0159 34.2207 15.5479 34.2207 16.1566C34.2248 16.359 34.2859 16.5585 34.4 16.7421C34.5141 16.9256 34.6787 17.0892 34.8831 17.222C34.9572 20.8055 39.5486 23.6972 45.2015 23.6972C50.8544 23.6972 55.4294 20.8117 55.5158 17.2374C55.7293 17.1041 55.9021 16.938 56.0224 16.7505C56.1427 16.563 56.2078 16.3584 56.2131 16.1505C56.2131 15.5356 55.6413 14.9929 54.8184 14.7392C53.3147 12.2949 49.5769 10.57 45.2015 10.57Z" fill="#8B8A8A"/>
<path fill-rule="evenodd" clip-rule="evenodd" d="M46.8366 20.2876C42.984 20.2876 39.8468 18.3005 39.8468 15.855C39.8468 13.4094 42.9901 11.4224 46.8366 11.4224C50.683 11.4224 53.8264 13.4094 53.8264 15.855C53.8264 18.3005 50.6913 20.2876 46.8366 20.2876Z" fill="#989898"/>
<path fill-rule="evenodd" clip-rule="evenodd" d="M48.9676 15.3435C47.5112 15.3435 46.3251 14.5771 46.3251 13.6387C46.3251 12.7002 47.5112 11.9339 48.9676 11.9339C50.424 11.9339 51.6101 12.6987 51.6101 13.6387C51.6101 14.5787 50.4116 15.3435 48.9676 15.3435Z" fill="#ACACAC"/>
<path fill-rule="evenodd" clip-rule="evenodd" d="M45.1316 14.3207H45.2317C46.6254 14.3154 48.0088 14.5037 49.314 14.8764L56.895 17.0291V23.4436C53.5781 26.3792 49.71 28.6782 45.1316 30.1756V14.3207Z" fill="#CDCCCC"/>
<path fill-rule="evenodd" clip-rule="evenodd" d="M46.8365 15.3435C47.4405 15.42 48.0332 15.5429 48.6059 15.7105L50.0592 16.129V26.864C49.0336 27.4553 47.9575 27.9921 46.8385 28.4708V15.3435H46.8365ZM50.7416 16.3257L53.0021 16.9768V24.9403C52.2875 25.4665 51.5347 25.9756 50.7416 26.4596V16.3257ZM53.6825 17.172L55.1902 17.6061V23.1743C54.7071 23.599 54.2045 24.0154 53.6825 24.4235V17.172Z" fill="#333333"/>
<path fill-rule="evenodd" clip-rule="evenodd" d="M45.1316 14.3207H45.0316C43.6412 14.3163 42.2614 14.5046 40.9594 14.8764L33.3682 17.0275V23.442C36.6872 26.3792 40.5552 28.6782 45.1316 30.1756V14.3207Z" fill="#B4B4B4"/>
<path fill-rule="evenodd" clip-rule="evenodd" d="M43.4268 15.3435C42.8103 15.4202 42.2054 15.5431 41.6208 15.7105L40.1375 16.129V26.864C41.1846 27.455 42.2828 27.9918 43.4247 28.4708V15.3435H43.4268ZM39.441 16.3257L37.1358 16.9768V24.9403C37.8631 25.4665 38.6315 25.9756 39.441 26.4596V16.3257ZM36.4394 17.172L34.9026 17.6061V23.1743C35.3943 23.599 35.9065 24.0154 36.4394 24.4235V17.172Z" fill="#1A1A1A"/>
<path fill-rule="evenodd" clip-rule="evenodd" d="M46.0987 8.69467C45.4444 8.69467 45.1306 9.0007 45.3969 9.37661C45.5655 9.57737 45.8074 9.74548 46.0994 9.86488C46.3915 9.98427 46.7238 10.051 47.0648 10.0585C47.7171 10.0585 48.0308 9.75391 47.7645 9.37661C47.5958 9.17622 47.3542 9.00838 47.0626 8.88902C46.7711 8.76966 46.4393 8.70276 46.0987 8.69467Z" fill="#E3E3E3"/>
</g>
</g>
<g clip-path="url(#clip2_462_654)">
<g filter="url(#filter3_d_462_654)">
<path fill-rule="evenodd" clip-rule="evenodd" d="M29.5728 47.4634L29.4363 47.534C29.2815 47.6171 29.1093 47.6624 28.9337 47.6662C28.758 47.67 28.584 47.6323 28.4257 47.556C28.2654 47.4845 28.1241 47.3762 28.0134 47.2399C27.9027 47.1035 27.8257 46.9431 27.7886 46.7714C27.4748 45.4 26.8471 43.7242 25.9542 41.9935C25.0614 40.2627 24.0587 38.7815 23.1297 37.7317C23.0133 37.601 22.9284 37.4453 22.8813 37.2766C22.8343 37.108 22.8265 36.9308 22.8584 36.7587C22.8904 36.5865 22.9613 36.4239 23.0657 36.2834C23.1701 36.1428 23.3052 36.028 23.4608 35.9477L23.5989 35.8771L23.0308 34.7787L20.3632 36.1532L17.6956 37.5262L18.2636 38.6246L18.4001 38.554C18.5564 38.4722 18.7294 38.4275 18.9057 38.4234C19.0821 38.4192 19.257 38.4558 19.4169 38.5301C19.5769 38.6045 19.7175 38.7146 19.828 38.8521C19.9385 38.9896 20.0159 39.1507 20.0541 39.3228C20.3679 40.6927 20.9956 42.3701 21.8885 44.0992C22.7813 45.8284 23.784 47.3112 24.713 48.3609C24.8294 48.4919 24.9144 48.6477 24.9614 48.8165C25.0084 48.9852 25.0162 49.1625 24.9843 49.3348C24.9523 49.507 24.8815 49.6697 24.7771 49.8104C24.6727 49.9511 24.5375 50.0661 24.3819 50.1466L24.2438 50.2172L24.8119 51.3156L27.4795 49.9426L30.1409 48.5634L29.5728 47.4634Z" fill="#4592CF"/>
<path fill-rule="evenodd" clip-rule="evenodd" d="M22.7824 38.3794C22.3424 38.609 22.9534 40.6955 24.149 43.0368C25.3446 45.3781 26.6708 47.092 27.103 46.8624C27.5353 46.6328 26.932 44.5463 25.7364 42.205C24.5408 39.8638 23.2224 38.1499 22.7824 38.3794Z" fill="#283A84"/>
<path fill-rule="evenodd" clip-rule="evenodd" d="M3.37482 3.40967L4.80457 11.4889L18.142 37.3359L22.469 35.1028L9.13151 9.25577L3.37482 3.40967Z" fill="#D1D2D2"/>
<path fill-rule="evenodd" clip-rule="evenodd" d="M7.69091 7.77382L5.4201 6.295L6.21859 11.1149L18.207 37.3359L4.81097 11.4889L3.37495 3.40967L7.69091 7.77382Z" fill="#E6E6E5"/>
<path fill-rule="evenodd" clip-rule="evenodd" d="M7.12556 10.7405L13.4273 23.6112L19.7307 36.4835L20.4188 36.1334L21.1052 35.7833L14.1154 23.2627L7.12556 10.7405Z" fill="#818181"/>
<path fill-rule="evenodd" clip-rule="evenodd" d="M23.7872 33.5505L16.1586 37.509C15.7664 37.2251 15.2905 37.0823 14.8077 37.1037C14.3249 37.1251 13.8633 37.3093 13.4973 37.6268C13.1314 37.9443 12.8825 38.3764 12.7906 38.8536C12.6988 39.3308 12.7694 39.8251 12.9912 40.257C13.2129 40.6888 13.5728 41.033 14.0128 41.2339C14.4529 41.4349 14.9474 41.481 15.4166 41.3648C15.8859 41.2485 16.3025 40.9767 16.5994 40.5932C16.8963 40.2097 17.056 39.7368 17.053 39.2508L24.6815 35.2923C25.0742 35.577 25.5508 35.7203 26.0345 35.6992C26.5182 35.6781 26.9807 35.4937 27.3474 35.1758C27.7141 34.8579 27.9636 34.4251 28.0557 33.9471C28.1477 33.4691 28.077 32.9739 27.8549 32.5413C27.6328 32.1087 27.2722 31.764 26.8314 31.5627C26.3905 31.3615 25.8951 31.3154 25.4251 31.432C24.9551 31.5487 24.5378 31.8211 24.2406 32.2055C23.9435 32.5898 23.7837 33.0636 23.7872 33.5505Z" fill="#333333"/>
</g>
</g>
<g filter="url(#filter4_d_462_654)">
<path d="M15.7905 79.608C15.7905 80.432 15.6025 81.188 15.2265 81.876C14.8425 82.556 14.3145 83.096 13.6425 83.496C12.9545 83.896 12.1985 84.096 11.3745 84.096C10.7745 84.096 10.1945 83.98 9.63453 83.748C9.08253 83.516 8.61853 83.2 8.24253 82.8C7.86653 82.424 7.56253 81.956 7.33053 81.396C7.10653 80.82 6.99453 80.24 6.99453 79.656C6.99453 78.824 7.18653 78.068 7.57053 77.388C7.94653 76.692 8.47453 76.148 9.15453 75.756C9.81853 75.364 10.5705 75.168 11.4105 75.168C12.0265 75.168 12.6065 75.28 13.1505 75.504C13.6945 75.744 14.1585 76.056 14.5425 76.44C14.9425 76.864 15.2465 77.336 15.4545 77.856C15.6785 78.4 15.7905 78.984 15.7905 79.608ZM14.8425 79.656C14.8425 78.656 14.5225 77.804 13.8825 77.1C13.2265 76.38 12.3905 76.02 11.3745 76.02C10.7425 76.02 10.1545 76.18 9.61053 76.5C9.08253 76.836 8.67453 77.272 8.38653 77.808C8.09853 78.36 7.95453 78.96 7.95453 79.608C7.95453 80.616 8.27453 81.464 8.91453 82.152C9.57053 82.872 10.4025 83.232 11.4105 83.232C12.0505 83.232 12.6385 83.068 13.1745 82.74C13.7025 82.436 14.1145 82.004 14.4105 81.444C14.6985 80.9 14.8425 80.304 14.8425 79.656ZM17.3746 78.036H18.2266V79.212C18.5066 78.644 18.9146 78.26 19.4506 78.06C19.6666 77.98 19.9026 77.94 20.1586 77.94C20.3106 77.94 20.4066 77.948 20.4466 77.964V78.888C20.3826 78.872 20.2706 78.864 20.1106 78.864C19.4626 78.864 18.9906 79.08 18.6946 79.512C18.3986 79.944 18.2506 80.468 18.2506 81.084V84H17.3746V78.036ZM23.2444 80.556H24.9004V80.16C24.9004 79.192 24.3924 78.708 23.3764 78.708C22.8884 78.708 22.5124 78.84 22.2484 79.104C22.0084 79.344 21.8644 79.616 21.8164 79.92L20.9764 79.74C20.9844 79.572 21.0644 79.36 21.2164 79.104C21.3684 78.848 21.5684 78.62 21.8164 78.42C22.2404 78.092 22.7684 77.928 23.4004 77.928C24.4884 77.928 25.2124 78.34 25.5724 79.164C25.6924 79.444 25.7524 79.772 25.7524 80.148V81.828C25.7524 82.804 25.7844 83.528 25.8484 84H24.9844C24.9284 83.696 24.9004 83.348 24.9004 82.956C24.3964 83.724 23.7244 84.108 22.8844 84.108C22.2844 84.108 21.8044 83.94 21.4444 83.604C21.0684 83.276 20.8804 82.856 20.8804 82.344V82.284C20.8804 81.692 21.1164 81.256 21.5884 80.976C22.0684 80.696 22.6204 80.556 23.2444 80.556ZM24.9004 81.48V81.276H23.2324C22.8644 81.276 22.5404 81.344 22.2604 81.48C21.9244 81.624 21.7564 81.888 21.7564 82.272C21.7564 82.6 21.8804 82.86 22.1284 83.052C22.3684 83.244 22.6724 83.34 23.0404 83.34C23.5604 83.34 24.0044 83.164 24.3724 82.812C24.7244 82.476 24.9004 82.032 24.9004 81.48ZM28.108 80.988C28.108 81.884 28.444 82.552 29.116 82.992C29.444 83.216 29.828 83.328 30.268 83.328C30.748 83.328 31.156 83.204 31.492 82.956C31.612 82.868 31.736 82.748 31.864 82.596C32.04 82.364 32.172 82.132 32.26 81.9L33.064 82.164C32.928 82.644 32.624 83.076 32.152 83.46C31.64 83.892 31.008 84.108 30.256 84.108C29.4 84.124 28.676 83.836 28.084 83.244C27.5 82.652 27.212 81.916 27.22 81.036C27.22 80.46 27.36 79.928 27.64 79.44C27.92 78.96 28.292 78.588 28.756 78.324C29.22 78.06 29.732 77.928 30.292 77.928C30.964 77.928 31.556 78.112 32.068 78.48C32.588 78.872 32.908 79.324 33.028 79.836L32.236 80.1C32.148 79.78 31.932 79.468 31.588 79.164C31.252 78.86 30.812 78.708 30.268 78.708C29.644 78.708 29.128 78.928 28.72 79.368C28.312 79.816 28.108 80.356 28.108 80.988ZM34.5192 84V74.892H35.3952V84H34.5192ZM42.6348 81.288H37.8108C37.8428 81.872 38.0628 82.356 38.4708 82.74C38.8708 83.132 39.3628 83.328 39.9468 83.328C40.4028 83.328 40.7908 83.22 41.1108 83.004C41.4308 82.78 41.6588 82.464 41.7948 82.056L42.5628 82.296C42.3948 82.856 42.0708 83.3 41.5908 83.628C41.0948 83.948 40.5508 84.108 39.9588 84.108C39.3988 84.108 38.8828 83.968 38.4108 83.688C37.9388 83.408 37.5788 83.032 37.3308 82.56C37.0668 82.096 36.9348 81.58 36.9348 81.012C36.9348 80.468 37.0588 79.964 37.3068 79.5C37.5388 79.028 37.8868 78.648 38.3508 78.36C38.7988 78.072 39.2948 77.928 39.8388 77.928C40.4388 77.928 40.9508 78.064 41.3748 78.336C41.8068 78.6 42.1268 78.964 42.3348 79.428C42.5428 79.868 42.6468 80.392 42.6468 81C42.6468 81.104 42.6428 81.2 42.6348 81.288ZM37.8228 80.544H41.7708C41.7148 80 41.5148 79.552 41.1708 79.2C40.8348 78.864 40.3908 78.696 39.8388 78.696C39.3348 78.696 38.8908 78.876 38.5068 79.236C38.1228 79.612 37.8948 80.048 37.8228 80.544ZM46.8852 80.004V79.716C46.8852 78.564 47.1652 77.516 47.7252 76.572C48.2772 75.62 49.0572 74.856 50.0652 74.28L50.4252 74.844C48.6572 75.98 47.7732 77.608 47.7732 79.728V79.992C47.7732 82.096 48.6572 83.72 50.4252 84.864L50.0652 85.452C49.0572 84.868 48.2772 84.1 47.7252 83.148C47.1652 82.204 46.8852 81.156 46.8852 80.004ZM58.7632 79.608C58.7632 80.432 58.5752 81.188 58.1992 81.876C57.8152 82.556 57.2872 83.096 56.6152 83.496C55.9272 83.896 55.1712 84.096 54.3472 84.096C53.7472 84.096 53.1672 83.98 52.6072 83.748C52.0552 83.516 51.5912 83.2 51.2152 82.8C50.8392 82.424 50.5352 81.956 50.3032 81.396C50.0792 80.82 49.9672 80.24 49.9672 79.656C49.9672 78.824 50.1592 78.068 50.5432 77.388C50.9192 76.692 51.4472 76.148 52.1272 75.756C52.7912 75.364 53.5432 75.168 54.3832 75.168C54.9992 75.168 55.5792 75.28 56.1232 75.504C56.6672 75.744 57.1312 76.056 57.5152 76.44C57.9152 76.864 58.2192 77.336 58.4272 77.856C58.6512 78.4 58.7632 78.984 58.7632 79.608ZM57.8152 79.656C57.8152 78.656 57.4952 77.804 56.8552 77.1C56.1992 76.38 55.3632 76.02 54.3472 76.02C53.7152 76.02 53.1272 76.18 52.5832 76.5C52.0552 76.836 51.6472 77.272 51.3592 77.808C51.0712 78.36 50.9272 78.96 50.9272 79.608C50.9272 80.616 51.2472 81.464 51.8872 82.152C52.5432 82.872 53.3752 83.232 54.3832 83.232C55.0232 83.232 55.6112 83.068 56.1472 82.74C56.6752 82.436 57.0872 82.004 57.3832 81.444C57.6712 80.9 57.8152 80.304 57.8152 79.656ZM66.9833 84H65.8673L63.2753 80.46H61.4993V84H60.5753V75.252H63.6113C64.6593 75.252 65.4393 75.508 65.9513 76.02C66.4393 76.508 66.6833 77.104 66.6833 77.808C66.6833 78.512 66.4553 79.084 65.9993 79.524C65.5433 79.956 64.9713 80.216 64.2833 80.304L66.9833 84ZM61.4993 76.116V79.62H63.5273C64.2953 79.62 64.8673 79.432 65.2433 79.056C65.5793 78.72 65.7473 78.312 65.7473 77.832C65.7473 77.344 65.5713 76.936 65.2193 76.608C64.8753 76.28 64.3193 76.116 63.5513 76.116H61.4993ZM72.2414 84.096C71.0174 84.096 69.9854 83.684 69.1454 82.86C68.7534 82.468 68.4454 82 68.2214 81.456C67.9894 80.88 67.8734 80.28 67.8734 79.656C67.8734 79 67.9934 78.392 68.2334 77.832C68.4814 77.256 68.7974 76.78 69.1814 76.404C70.0374 75.572 71.0694 75.156 72.2774 75.156C73.1894 75.156 73.9654 75.38 74.6054 75.828C74.8774 76.004 75.1334 76.228 75.3734 76.5C75.7734 76.964 76.0454 77.476 76.1894 78.036L75.3134 78.348C75.2254 78.012 75.0534 77.66 74.7974 77.292C74.6134 77.044 74.4254 76.84 74.2334 76.68C74.0094 76.488 73.7294 76.336 73.3934 76.224C73.0574 76.096 72.6774 76.032 72.2534 76.032C71.3094 76.032 70.5094 76.36 69.8534 77.016C69.1734 77.696 68.8334 78.556 68.8334 79.596C68.8334 80.292 68.9814 80.912 69.2774 81.456C69.5654 82.008 69.9774 82.44 70.5134 82.752C71.0254 83.064 71.6094 83.22 72.2654 83.22C73.0334 83.22 73.6734 83.016 74.1854 82.608C74.4174 82.432 74.6094 82.232 74.7614 82.008C74.9134 81.808 75.0374 81.608 75.1334 81.408C75.2134 81.216 75.2814 81.04 75.3374 80.88L76.2134 81.192C76.0694 81.712 75.8014 82.208 75.4094 82.68C75.2014 82.928 74.9494 83.164 74.6534 83.388C73.9894 83.86 73.1854 84.096 72.2414 84.096ZM77.8604 84V75.252H78.7844V83.136H82.9364V84H77.8604ZM87.0041 79.716V80.004C87.0041 81.164 86.7281 82.216 86.1761 83.16C85.6161 84.104 84.8321 84.868 83.8241 85.452L83.4641 84.864C85.2321 83.72 86.1161 82.096 86.1161 79.992V79.728C86.1161 77.608 85.2321 75.98 83.4641 74.844L83.8241 74.28C84.8321 74.848 85.6161 75.608 86.1761 76.56C86.7281 77.512 87.0041 78.564 87.0041 79.716Z" fill="white"/>
</g>
<defs>
<filter id="filter0_d_462_654" x="52.0713" y="28.5428" width="30.2129" height="34.8591" filterUnits="userSpaceOnUse" color-interpolation-filters="sRGB">
<feFlood flood-opacity="0" result="BackgroundImageFix"/>
<feColorMatrix in="SourceAlpha" type="matrix" values="0 0 0 0 0 0 0 0 0 0 0 0 0 0 0 0 0 0 127 0" result="hardAlpha"/>
<feOffset dx="-4" dy="4"/>
<feGaussianBlur stdDeviation="2"/>
<feComposite in2="hardAlpha" operator="out"/>
<feColorMatrix type="matrix" values="0 0 0 0 0 0 0 0 0 0 0 0 0 0 0 0 0 0 0.25 0"/>
<feBlend mode="normal" in2="BackgroundImageFix" result="effect1_dropShadow_462_654"/>
<feBlend mode="normal" in="SourceGraphic" in2="effect1_dropShadow_462_654" result="shape"/>
</filter>
<filter id="filter1_d_462_654" x="58.9165" y="28.8316" width="23.3679" height="34.5703" filterUnits="userSpaceOnUse" color-interpolation-filters="sRGB">
<feFlood flood-opacity="0" result="BackgroundImageFix"/>
<feColorMatrix in="SourceAlpha" type="matrix" values="0 0 0 0 0 0 0 0 0 0 0 0 0 0 0 0 0 0 127 0" result="hardAlpha"/>
<feOffset dx="-4" dy="4"/>
<feGaussianBlur stdDeviation="2"/>
<feComposite in2="hardAlpha" operator="out"/>
<feColorMatrix type="matrix" values="0 0 0 0 0 0 0 0 0 0 0 0 0 0 0 0 0 0 0.25 0"/>
<feBlend mode="normal" in2="BackgroundImageFix" result="effect1_dropShadow_462_654"/>
<feBlend mode="normal" in="SourceGraphic" in2="effect1_dropShadow_462_654" result="shape"/>
</filter>
<filter id="filter2_d_462_654" x="18.9355" y="-4.9771" width="47.9595" height="49.1527" filterUnits="userSpaceOnUse" color-interpolation-filters="sRGB">
<feFlood flood-opacity="0" result="BackgroundImageFix"/>
<feColorMatrix in="SourceAlpha" type="matrix" values="0 0 0 0 0 0 0 0 0 0 0 0 0 0 0 0 0 0 127 0" result="hardAlpha"/>
<feOffset dy="4"/>
<feGaussianBlur stdDeviation="5"/>
<feComposite in2="hardAlpha" operator="out"/>
<feColorMatrix type="matrix" values="0 0 0 0 0 0 0 0 0 0 0 0 0 0 0 0 0 0 0.5 0"/>
<feBlend mode="normal" in2="BackgroundImageFix" result="effect1_dropShadow_462_654"/>
<feBlend mode="normal" in="SourceGraphic" in2="effect1_dropShadow_462_654" result="shape"/>
</filter>
<filter id="filter3_d_462_654" x="-6.62524" y="-2.59033" width="46.7661" height="67.9059" filterUnits="userSpaceOnUse" color-interpolation-filters="sRGB">
<feFlood flood-opacity="0" result="BackgroundImageFix"/>
<feColorMatrix in="SourceAlpha" type="matrix" values="0 0 0 0 0 0 0 0 0 0 0 0 0 0 0 0 0 0 127 0" result="hardAlpha"/>
<feOffset dy="4"/>
<feGaussianBlur stdDeviation="5"/>
<feComposite in2="hardAlpha" operator="out"/>
<feColorMatrix type="matrix" values="0 0 0 0 0 0 0 0 0 0 0 0 0 0 0 0 0 0 0.5 0"/>
<feBlend mode="normal" in2="BackgroundImageFix" result="effect1_dropShadow_462_654"/>
<feBlend mode="normal" in="SourceGraphic" in2="effect1_dropShadow_462_654" result="shape"/>
</filter>
<filter id="filter4_d_462_654" x="4.99463" y="74.28" width="84.0095" height="15.172" filterUnits="userSpaceOnUse" color-interpolation-filters="sRGB">
<feFlood flood-opacity="0" result="BackgroundImageFix"/>
<feColorMatrix in="SourceAlpha" type="matrix" values="0 0 0 0 0 0 0 0 0 0 0 0 0 0 0 0 0 0 127 0" result="hardAlpha"/>
<feOffset dy="2"/>
<feGaussianBlur stdDeviation="1"/>
<feComposite in2="hardAlpha" operator="out"/>
<feColorMatrix type="matrix" values="0 0 0 0 0 0 0 0 0 0 0 0 0 0 0 0 0 0 0.5 0"/>
<feBlend mode="normal" in2="BackgroundImageFix" result="effect1_dropShadow_462_654"/>
<feBlend mode="normal" in="SourceGraphic" in2="effect1_dropShadow_462_654" result="shape"/>
</filter>
<clipPath id="clip0_462_654">
<rect width="35.8257" height="35.8257" fill="white" transform="translate(55.1519 19.739) rotate(13.4168)"/>
</clipPath>
<clipPath id="clip1_462_654">
<rect width="30.6871" height="31.9862" fill="white" transform="matrix(-1 0 0 1 57.7476 0)"/>
</clipPath>
<clipPath id="clip2_462_654">
<rect width="28.9942" height="52.0657" fill="white" transform="matrix(-1 0 0 1 29.9705 0)"/>
</clipPath>
</defs>
</svg>
