<svg width="90" height="100" viewBox="0 0 90 100" fill="none" xmlns="http://www.w3.org/2000/svg">
<rect x="21.5801" y="24.1279" width="45.9342" height="45.9342" rx="22.9671" fill="white"/>
<rect x="21.5801" y="24.1279" width="45.9342" height="45.9342" rx="22.9671" stroke="#CDCCCC"/>
<path fill-rule="evenodd" clip-rule="evenodd" d="M58.5315 53.8264C58.928 45.5347 51.7774 36.1971 42.0291 35.0429L42.0457 34.9296C51.6561 34.9296 59.0234 43.8265 59.0234 50.8453C59.0142 52.3064 58.8988 53.2117 58.693 53.8689L58.5315 53.8264ZM57.9492 54.8804C57.3098 55.6616 56.5057 56.4483 55.5635 57.195C53.8303 47.2266 46.5052 38.51 41.3263 35.9658L41.2154 36.0431C46.4237 40.3175 52.6357 48.6193 55.0514 57.5861C53.8192 58.4913 52.4882 59.2535 51.0839 59.8582C46.1691 54.2535 41.5872 43.4444 40.1106 36.5852L39.9604 36.6304C39.9937 43.2885 44.7208 54.5913 50.4855 60.1065C49.1633 60.6297 47.7888 61.0095 46.3856 61.2393C40.8597 59.0502 36.9264 52.0388 36.9264 44.8564C36.9264 40.1677 38.356 37.2672 38.6325 36.6736L38.5148 36.6269C38.1802 37.133 36.0859 40.032 36.0859 45.094C36.0859 53.2126 40.0898 59.418 45.4054 61.3722C43.5045 61.5813 41.5826 61.4911 39.7097 61.1049L39.6701 61.2286C40.2388 61.438 42.168 62.2478 45.111 62.2478C51.7676 62.2478 56.2675 58.1119 58.0789 54.9681L57.9492 54.8804Z" fill="#28458E"/>
<path fill-rule="evenodd" clip-rule="evenodd" d="M44.4456 32C39.3994 32 33.4824 35.6419 33.4824 38.9709C33.4824 40.2587 34.6604 41.3465 37.0984 41.3465C42.7582 41.3465 48.0164 37.4581 48.0164 34.4345C48.0164 32.8434 46.4884 32 44.4456 32ZM46.4601 34.3405C46.4601 36.8892 41.5659 40.0047 37.4747 40.0047C35.6671 40.0047 34.6904 39.2933 34.6904 38.1195C34.6904 35.5342 39.6403 32.4717 43.4779 32.4717C45.9799 32.4717 46.4601 33.7448 46.4601 34.3405Z" fill="#0096D6"/>
<path fill-rule="evenodd" clip-rule="evenodd" d="M31.4721 40.5123C31.3302 40.7577 30.7622 41.8699 30.7622 43.0096C30.7622 45.1232 32.8978 47.0854 36.8258 47.0854C44.3823 47.0854 53.1126 41.5232 53.1126 36.3601C53.1126 34.0425 50.9188 32.7824 49.3955 32.5219L49.3669 32.6123C49.8407 32.7622 51.5763 33.5691 51.5763 35.6336C51.5763 39.7474 43.8681 45.3527 36.19 45.3527C33.2505 45.3527 31.3986 43.9017 31.3986 41.7882C31.3986 41.1196 31.5378 40.6792 31.5747 40.5516L31.4721 40.5123Z" fill="#EB7B30"/>
<path fill-rule="evenodd" clip-rule="evenodd" d="M56.2281 36.7461C56.4354 36.9034 57.68 37.9408 57.68 39.9024C57.68 46.5908 47.2004 53.1677 37.9357 53.1677C32.4107 53.1677 29.892 50.4397 30.0035 48.0174H30.1026C30.3191 49.2754 32.113 51.5264 36.9486 51.5264C46.225 51.5264 56.5823 44.7211 56.5823 38.7586C56.5823 37.7359 56.3046 37.0985 56.1475 36.8151L56.2281 36.7461Z" fill="#00984A"/>
<path fill-rule="evenodd" clip-rule="evenodd" d="M59.7307 42.9902C59.7741 43.1327 59.9998 43.773 59.9998 44.7758C59.9998 52.216 49.3944 58.5856 40.1707 58.5856C35.4234 58.5856 32.9443 56.2796 32.4209 55.3431L32.5054 55.2807C33.819 56.4295 36.4063 57.3024 39.4257 57.3024C47.572 57.3024 59.7274 51.1047 59.6189 43.0173L59.7307 42.9902Z" fill="#DF002C"/>
<g clip-path="url(#clip0_462_561)">
<g filter="url(#filter0_d_462_561)">
<path d="M66.9178 55.4019L66.3041 54.6172C62.939 50.2982 58.7525 44.9249 60.4701 37.7246L62.1066 30.8641L63.3173 31.1529C67.6886 32.1956 71.4401 31.0736 72.0438 28.5428L74.4652 29.1204C73.8615 31.6511 76.7026 34.3459 81.0738 35.3886L82.2845 35.6774L80.648 42.5379C78.9304 49.7382 72.7691 52.6431 67.8185 54.9773L66.9178 55.4019Z" fill="#7AB9E8"/>
</g>
<g filter="url(#filter1_d_462_561)">
<path d="M81.0738 35.3886C76.7025 34.3459 73.8614 31.6512 74.4651 29.1204L73.2544 28.8316L66.9166 55.4004L66.9178 55.4019L67.8185 54.9772C72.769 52.6431 78.9303 49.7383 80.6479 42.5379L82.2845 35.6774L81.0738 35.3886Z" fill="#579ADF"/>
</g>
</g>
<g clip-path="url(#clip1_462_561)">
<g filter="url(#filter2_d_462_561)">
<path fill-rule="evenodd" clip-rule="evenodd" d="M35.1481 22.6743C34.8376 23.9347 34.5286 25.194 34.2209 26.4523C37.0558 28.0747 40.6353 28.9807 45.1318 28.9822V23.7791L35.1481 22.6743Z" fill="#535353"/>
<path fill-rule="evenodd" clip-rule="evenodd" d="M55.1071 22.6743C55.4216 23.9347 55.7334 25.194 56.0425 26.4523C53.2014 28.0747 49.6301 28.9807 45.1315 28.9822V23.7791L55.1071 22.6743Z" fill="#676767"/>
<path fill-rule="evenodd" clip-rule="evenodd" d="M47.3632 9.11041C53.8403 3.38228 41.5928 3.92507 38.1412 1.0229C37.8976 1.26525 37.7531 1.55661 37.7258 1.86078C37.6985 2.16496 37.7895 2.46851 37.9876 2.73372C36.4554 3.68556 33.7617 2.38689 32.3011 4.21125C33.9563 4.1397 34.9641 4.63584 35.5786 5.29995C31.0393 4.77426 32.8153 7.97349 28.9356 8.15391C31.8259 9.37792 38.6144 7.02788 42.8116 9.88806C44.7064 9.83518 45.4684 9.16796 47.3632 9.11041Z" fill="#1B2241"/>
<path fill-rule="evenodd" clip-rule="evenodd" d="M28.9375 8.10101C31.7985 9.36518 38.5373 6.9564 42.7038 9.88806C43.4791 9.85511 44.242 9.72095 44.9609 9.49112C39.5113 4.67834 34.6758 8.9507 28.9355 8.10101H28.9375Z" fill="#1A1A1A"/>
<path fill-rule="evenodd" clip-rule="evenodd" d="M46.9852 8.62381C46.2373 8.68208 45.5036 8.81653 44.8048 9.02339L44.7554 9.03564C44.9995 8.76313 45.2395 8.49061 45.4754 8.2181C47.6188 6.39473 43.1078 4.2376 40.3719 3.79515C39.3866 4.43203 37.8686 4.13043 37.091 4.57747C37.7616 5.11943 38.1771 6.05638 38.8497 6.59834C31.1689 5.82061 34.6678 7.67002 30.9817 8.02826C31.2298 7.9028 31.4552 7.75409 31.6523 7.58582C32.8865 6.53711 32.7034 5.39194 35.394 5.69814L36.8915 5.86807C36.6268 5.59454 36.3601 5.32152 36.0913 5.04901C35.4847 4.41603 34.5718 3.98298 33.5447 3.84108C33.7855 3.73624 34.0507 3.66612 34.3264 3.6344C34.5892 3.60479 34.8546 3.58893 35.1204 3.58694C36.3176 3.5655 37.4592 3.63593 38.4116 3.06335L38.7654 2.84748C38.6955 2.75256 38.6235 2.65917 38.5597 2.56579C38.4005 2.35618 38.3336 2.1147 38.3684 1.87532C39.6026 2.57191 41.3099 3.04038 42.7725 3.42925C43.9306 3.73544 45.1463 4.04163 46.2447 4.42284C47.0202 4.69536 47.8903 5.0735 48.3017 5.59097C49.0484 6.55548 47.8944 7.80934 46.9852 8.62381Z" fill="#4386BB"/>
<path fill-rule="evenodd" clip-rule="evenodd" d="M45.906 8.75059C45.5168 8.82679 45.133 8.91781 44.7561 9.02331L44.7069 9.03564C44.9501 8.76138 45.1893 8.48712 45.4243 8.21287C47.5602 6.37781 43.065 4.20687 40.3387 3.76159C39.3569 4.40255 37.8441 4.09902 37.0693 4.54892C37.7375 5.09435 38.1516 6.0373 38.8219 6.58274C31.1679 5.80003 34.6546 7.66127 30.9814 8.02181C32.8938 7.64741 32.859 6.29461 33.9454 5.96951C35.0318 5.64441 36.4667 6.39322 37.5612 6.06812C37.4465 5.44103 36.9279 4.93103 36.1735 4.15295C37.221 3.67685 39.8632 4.1021 39.3138 2.72774C41.665 4.67681 49.239 3.86945 46.3652 8.58265L45.906 8.75059Z" fill="#283A84"/>
<path d="M45.217 12.7863C43.2868 12.7863 41.7221 11.7559 41.7221 10.4848C41.7221 9.21366 43.2868 8.18323 45.217 8.18323C47.1472 8.18323 48.7119 9.21366 48.7119 10.4848C48.7119 11.7559 47.1472 12.7863 45.217 12.7863Z" fill="#CDCCCC"/>
<path fill-rule="evenodd" clip-rule="evenodd" d="M45.2013 10.57C40.8197 10.57 37.0757 12.3072 35.5782 14.7577C34.7739 15.0159 34.2205 15.5479 34.2205 16.1566C34.2245 16.359 34.2856 16.5585 34.3998 16.7421C34.5139 16.9256 34.6785 17.0892 34.8829 17.222C34.9569 20.8055 39.5484 23.6972 45.2013 23.6972C50.8542 23.6972 55.4291 20.8117 55.5155 17.2374C55.7291 17.1041 55.9019 16.938 56.0222 16.7505C56.1425 16.563 56.2075 16.3584 56.2129 16.1505C56.2129 15.5356 55.641 14.9929 54.8182 14.7392C53.3144 12.2949 49.5767 10.57 45.2013 10.57Z" fill="#8B8A8A"/>
<path fill-rule="evenodd" clip-rule="evenodd" d="M46.8363 20.2876C42.9837 20.2876 39.8465 18.3005 39.8465 15.855C39.8465 13.4094 42.9899 11.4224 46.8363 11.4224C50.6828 11.4224 53.8262 13.4094 53.8262 15.855C53.8262 18.3005 50.691 20.2876 46.8363 20.2876Z" fill="#989898"/>
<path fill-rule="evenodd" clip-rule="evenodd" d="M48.9674 15.3435C47.511 15.3435 46.3249 14.5771 46.3249 13.6387C46.3249 12.7003 47.511 11.9339 48.9674 11.9339C50.4237 11.9339 51.6099 12.6987 51.6099 13.6387C51.6099 14.5787 50.4114 15.3435 48.9674 15.3435Z" fill="#ACACAC"/>
<path fill-rule="evenodd" clip-rule="evenodd" d="M45.1316 14.3207H45.2317C46.6254 14.3154 48.0088 14.5037 49.314 14.8764L56.895 17.0291V23.4436C53.5781 26.3792 49.71 28.6782 45.1316 30.1756V14.3207Z" fill="#CDCCCC"/>
<path fill-rule="evenodd" clip-rule="evenodd" d="M46.8362 15.3435C47.4403 15.42 48.033 15.5429 48.6056 15.7105L50.059 16.129V26.864C49.0333 27.4553 47.9573 27.9921 46.8383 28.4708V15.3435H46.8362ZM50.7413 16.3257L53.0019 16.9768V24.9403C52.2873 25.4665 51.5344 25.9756 50.7413 26.4596V16.3257ZM53.6822 17.172L55.1899 17.6061V23.1743C54.7068 23.599 54.2043 24.0154 53.6822 24.4235V17.172Z" fill="#333333"/>
<path fill-rule="evenodd" clip-rule="evenodd" d="M45.1318 14.3207H45.0318C43.6415 14.3163 42.2617 14.5046 40.9596 14.8764L33.3685 17.0275V23.442C36.6874 26.3792 40.5555 28.6782 45.1318 30.1756V14.3207Z" fill="#B4B4B4"/>
<path fill-rule="evenodd" clip-rule="evenodd" d="M43.4268 15.3435C42.8103 15.4202 42.2054 15.5431 41.6208 15.7105L40.1375 16.129V26.864C41.1846 27.455 42.2828 27.9918 43.4247 28.4708V15.3435H43.4268ZM39.441 16.3257L37.1358 16.9768V24.9403C37.8631 25.4665 38.6315 25.9756 39.441 26.4596V16.3257ZM36.4394 17.172L34.9026 17.6061V23.1743C35.3943 23.599 35.9065 24.0154 36.4394 24.4235V17.172Z" fill="#1A1A1A"/>
<path fill-rule="evenodd" clip-rule="evenodd" d="M46.0987 8.69467C45.4444 8.69467 45.1306 9.0007 45.3969 9.37661C45.5655 9.57737 45.8074 9.74548 46.0994 9.86488C46.3915 9.98427 46.7238 10.051 47.0648 10.0585C47.7171 10.0585 48.0308 9.75391 47.7645 9.37661C47.5958 9.17622 47.3542 9.00838 47.0626 8.88902C46.7711 8.76966 46.4393 8.70276 46.0987 8.69467Z" fill="#E3E3E3"/>
</g>
</g>
<g clip-path="url(#clip2_462_561)">
<g filter="url(#filter3_d_462_561)">
<path fill-rule="evenodd" clip-rule="evenodd" d="M29.5731 47.4634L29.4365 47.534C29.2818 47.6171 29.1095 47.6624 28.9339 47.6662C28.7583 47.67 28.5842 47.6323 28.426 47.556C28.2656 47.4845 28.1243 47.3762 28.0136 47.2399C27.903 47.1036 27.8259 46.9431 27.7889 46.7714C27.475 45.4 26.8474 43.7242 25.9545 41.9935C25.0616 40.2627 24.0589 38.7815 23.1299 37.7318C23.0135 37.601 22.9286 37.4453 22.8816 37.2766C22.8346 37.108 22.8267 36.9308 22.8587 36.7587C22.8906 36.5865 22.9615 36.4239 23.0659 36.2834C23.1703 36.1428 23.3055 36.028 23.461 35.9477L23.5991 35.8771L23.0311 34.7787L20.3634 36.1532L17.6958 37.5262L18.2639 38.6246L18.4004 38.554C18.5566 38.4722 18.7297 38.4275 18.906 38.4234C19.0823 38.4192 19.2572 38.4558 19.4172 38.5301C19.5771 38.6045 19.7178 38.7146 19.8283 38.8521C19.9388 38.9896 20.0161 39.1507 20.0543 39.3228C20.3681 40.6927 20.9958 42.3701 21.8887 44.0992C22.7816 45.8284 23.7843 47.3112 24.7133 48.3609C24.8297 48.4919 24.9146 48.6477 24.9616 48.8165C25.0086 48.9852 25.0165 49.1625 24.9845 49.3348C24.9526 49.507 24.8817 49.6697 24.7773 49.8104C24.6729 49.9511 24.5378 50.0661 24.3822 50.1466L24.2441 50.2172L24.8121 51.3156L27.4798 49.9426L30.1411 48.5634L29.5731 47.4634Z" fill="#4592CF"/>
<path fill-rule="evenodd" clip-rule="evenodd" d="M22.7824 38.3794C22.3424 38.609 22.9534 40.6955 24.149 43.0368C25.3446 45.3781 26.6708 47.092 27.103 46.8624C27.5353 46.6328 26.932 44.5463 25.7364 42.205C24.5408 39.8638 23.2224 38.1499 22.7824 38.3794Z" fill="#283A84"/>
<path fill-rule="evenodd" clip-rule="evenodd" d="M3.37506 3.40967L4.80481 11.4889L18.1423 37.3359L22.4692 35.1028L9.13175 9.25577L3.37506 3.40967Z" fill="#D1D2D2"/>
<path fill-rule="evenodd" clip-rule="evenodd" d="M7.69091 7.77382L5.4201 6.295L6.21859 11.1149L18.207 37.3359L4.81097 11.4889L3.37495 3.40967L7.69091 7.77382Z" fill="#E6E6E5"/>
<path fill-rule="evenodd" clip-rule="evenodd" d="M7.1258 10.7405L13.4276 23.6112L19.731 36.4835L20.419 36.1334L21.1055 35.7833L14.1156 23.2627L7.1258 10.7405Z" fill="#818181"/>
<path fill-rule="evenodd" clip-rule="evenodd" d="M23.7874 33.5505L16.1589 37.5091C15.7666 37.2252 15.2907 37.0824 14.8079 37.1037C14.3251 37.1251 13.8635 37.3094 13.4976 37.6268C13.1316 37.9443 12.8827 38.3764 12.7909 38.8536C12.699 39.3308 12.7697 39.8251 12.9914 40.257C13.2132 40.6888 13.573 41.033 14.0131 41.2339C14.4531 41.4349 14.9476 41.481 15.4169 41.3648C15.8861 41.2485 16.3028 40.9767 16.5996 40.5932C16.8965 40.2097 17.0563 39.7368 17.0532 39.2508L24.6817 35.2923C25.0744 35.577 25.5511 35.7203 26.0348 35.6992C26.5184 35.6781 26.9809 35.4937 27.3476 35.1758C27.7143 34.8579 27.9638 34.4251 28.0559 33.9471C28.148 33.4691 28.0772 32.9739 27.8551 32.5413C27.633 32.1087 27.2724 31.764 26.8316 31.5627C26.3908 31.3615 25.8954 31.3154 25.4254 31.4321C24.9553 31.5487 24.5381 31.8211 24.2409 32.2055C23.9437 32.5898 23.784 33.0637 23.7874 33.5505Z" fill="#333333"/>
</g>
</g>
<g filter="url(#filter4_d_462_561)">
<path d="M10.9413 80.58H9.08131V84H8.15731V75.252H11.0853C12.0933 75.244 12.8573 75.496 13.3773 76.008C13.8973 76.52 14.1573 77.144 14.1573 77.88C14.1573 78.64 13.8893 79.276 13.3533 79.788C12.7853 80.316 11.9813 80.58 10.9413 80.58ZM11.0133 76.116H9.08131V79.728H10.9653C11.7493 79.728 12.3293 79.532 12.7053 79.14C13.0493 78.796 13.2213 78.384 13.2213 77.904C13.2213 77.408 13.0493 76.988 12.7053 76.644C12.3613 76.292 11.7973 76.116 11.0133 76.116ZM20.334 81.288H15.51C15.542 81.872 15.762 82.356 16.17 82.74C16.57 83.132 17.062 83.328 17.646 83.328C18.102 83.328 18.49 83.22 18.81 83.004C19.13 82.78 19.358 82.464 19.494 82.056L20.262 82.296C20.094 82.856 19.77 83.3 19.29 83.628C18.794 83.948 18.25 84.108 17.658 84.108C17.098 84.108 16.582 83.968 16.11 83.688C15.638 83.408 15.278 83.032 15.03 82.56C14.766 82.096 14.634 81.58 14.634 81.012C14.634 80.468 14.758 79.964 15.006 79.5C15.238 79.028 15.586 78.648 16.05 78.36C16.498 78.072 16.994 77.928 17.538 77.928C18.138 77.928 18.65 78.064 19.074 78.336C19.506 78.6 19.826 78.964 20.034 79.428C20.242 79.868 20.346 80.392 20.346 81C20.346 81.104 20.342 81.2 20.334 81.288ZM15.522 80.544H19.47C19.414 80 19.214 79.552 18.87 79.2C18.534 78.864 18.09 78.696 17.538 78.696C17.034 78.696 16.59 78.876 16.206 79.236C15.822 79.612 15.594 80.048 15.522 80.544ZM27.8272 81.012C27.8272 81.556 27.7112 82.06 27.4792 82.524C27.2472 82.988 26.9192 83.364 26.4952 83.652C26.0632 83.94 25.5712 84.084 25.0192 84.084C24.0432 84.084 23.2792 83.648 22.7272 82.776V86.94H21.8512V78.036H22.7032V79.332C23.3192 78.396 24.0912 77.928 25.0192 77.928C25.8672 77.928 26.5512 78.248 27.0712 78.888C27.5752 79.512 27.8272 80.22 27.8272 81.012ZM24.8512 83.328C25.4752 83.328 25.9832 83.108 26.3752 82.668C26.7512 82.22 26.9392 81.676 26.9392 81.036C26.9392 80.132 26.6152 79.464 25.9672 79.032C25.6552 78.816 25.2832 78.708 24.8512 78.708C24.2592 78.7 23.7512 78.928 23.3272 79.392C22.9032 79.856 22.6992 80.392 22.7152 81C22.7152 81.64 22.9152 82.184 23.3152 82.632C23.7232 83.096 24.2352 83.328 24.8512 83.328ZM33.2989 82.308C33.2989 82.844 33.0949 83.272 32.6869 83.592C32.2789 83.928 31.7789 84.096 31.1869 84.096C30.3149 84.096 29.6789 83.808 29.2789 83.232C29.0789 82.96 28.9589 82.656 28.9189 82.32L29.7109 82.116C29.7669 82.444 29.9149 82.732 30.1549 82.98C30.4029 83.22 30.7429 83.34 31.1749 83.34C31.5029 83.34 31.7949 83.248 32.0509 83.064C32.2909 82.896 32.4109 82.66 32.4109 82.356C32.4109 82.116 32.3149 81.924 32.1229 81.78C31.9469 81.636 31.7189 81.532 31.4389 81.468L30.5269 81.264C29.5349 81.048 29.0389 80.528 29.0389 79.704C29.0389 79.088 29.2869 78.628 29.7829 78.324C30.2069 78.06 30.6349 77.928 31.0669 77.928C31.8829 77.936 32.4789 78.2 32.8549 78.72C33.0389 78.984 33.1589 79.252 33.2149 79.524L32.4229 79.752C32.3669 79.52 32.2509 79.296 32.0749 79.08C31.8589 78.824 31.5229 78.696 31.0669 78.696C30.7389 78.696 30.4669 78.788 30.2509 78.972C30.0269 79.148 29.9149 79.372 29.9149 79.644C29.9149 80.044 30.2029 80.316 30.7789 80.46L31.7389 80.676C32.1789 80.78 32.5469 80.968 32.8429 81.24C33.1469 81.512 33.2989 81.868 33.2989 82.308ZM34.8233 76.368C34.6953 76.224 34.6313 76.068 34.6313 75.9C34.6313 75.732 34.6953 75.576 34.8233 75.432C34.9513 75.304 35.1073 75.24 35.2913 75.24C35.4673 75.24 35.6193 75.304 35.7473 75.432C35.8753 75.56 35.9393 75.716 35.9393 75.9C35.9393 76.084 35.8753 76.24 35.7473 76.368C35.6193 76.496 35.4673 76.56 35.2913 76.56C35.1073 76.56 34.9513 76.496 34.8233 76.368ZM34.8473 84V78.036H35.7233V84H34.8473ZM41.6789 84.096C40.4549 84.096 39.4229 83.684 38.5829 82.86C38.1909 82.468 37.8829 82 37.6589 81.456C37.4269 80.88 37.3109 80.28 37.3109 79.656C37.3109 79 37.4309 78.392 37.6709 77.832C37.9189 77.256 38.2349 76.78 38.6189 76.404C39.4749 75.572 40.5069 75.156 41.7149 75.156C42.6269 75.156 43.4029 75.38 44.0429 75.828C44.3149 76.004 44.5709 76.228 44.8109 76.5C45.2109 76.964 45.4829 77.476 45.6269 78.036L44.7509 78.348C44.6629 78.012 44.4909 77.66 44.2349 77.292C44.0509 77.044 43.8629 76.84 43.6709 76.68C43.4469 76.488 43.1669 76.336 42.8309 76.224C42.4949 76.096 42.1149 76.032 41.6909 76.032C40.7469 76.032 39.9469 76.36 39.2909 77.016C38.6109 77.696 38.2709 78.556 38.2709 79.596C38.2709 80.292 38.4189 80.912 38.7149 81.456C39.0029 82.008 39.4149 82.44 39.9509 82.752C40.4629 83.064 41.0469 83.22 41.7029 83.22C42.4709 83.22 43.1109 83.016 43.6229 82.608C43.8549 82.432 44.0469 82.232 44.1989 82.008C44.3509 81.808 44.4749 81.608 44.5709 81.408C44.6509 81.216 44.7189 81.04 44.7749 80.88L45.6509 81.192C45.5069 81.712 45.2389 82.208 44.8469 82.68C44.6389 82.928 44.3869 83.164 44.0909 83.388C43.4269 83.86 42.6229 84.096 41.6789 84.096ZM49.6979 84.108C49.1459 84.108 48.6299 83.972 48.1499 83.7C47.6779 83.42 47.3099 83.048 47.0459 82.584C46.7739 82.12 46.6379 81.604 46.6379 81.036C46.6379 80.148 46.9339 79.412 47.5259 78.828C48.1179 78.228 48.8499 77.928 49.7219 77.928C50.5699 77.912 51.2979 78.212 51.9059 78.828C52.5219 79.436 52.8219 80.16 52.8059 81C52.8219 81.864 52.5219 82.604 51.9059 83.22C51.2899 83.828 50.5539 84.124 49.6979 84.108ZM49.7219 83.328C50.3459 83.328 50.8699 83.104 51.2939 82.656C51.7019 82.208 51.9059 81.668 51.9059 81.036C51.9059 80.396 51.6979 79.844 51.2819 79.38C50.8579 78.924 50.3299 78.696 49.6979 78.696C49.0659 78.696 48.5459 78.92 48.1379 79.368C47.7299 79.816 47.5259 80.36 47.5259 81C47.5099 81.632 47.7139 82.18 48.1379 82.644C48.5699 83.108 49.0979 83.336 49.7219 83.328ZM57.0688 80.004V79.716C57.0688 78.564 57.3488 77.516 57.9088 76.572C58.4608 75.62 59.2408 74.856 60.2488 74.28L60.6088 74.844C58.8408 75.98 57.9568 77.608 57.9568 79.728V79.992C57.9568 82.096 58.8408 83.72 60.6088 84.864L60.2488 85.452C59.2408 84.868 58.4608 84.1 57.9088 83.148C57.3488 82.204 57.0688 81.156 57.0688 80.004ZM64.9062 80.58H63.0462V84H62.1222V75.252H65.0502C66.0582 75.244 66.8222 75.496 67.3422 76.008C67.8622 76.52 68.1222 77.144 68.1222 77.88C68.1222 78.64 67.8542 79.276 67.3182 79.788C66.7502 80.316 65.9462 80.58 64.9062 80.58ZM64.9782 76.116H63.0462V79.728H64.9302C65.7142 79.728 66.2942 79.532 66.6702 79.14C67.0142 78.796 67.1862 78.384 67.1862 77.904C67.1862 77.408 67.0142 76.988 66.6702 76.644C66.3262 76.292 65.7622 76.116 64.9782 76.116ZM69.7276 84V75.252H75.1996V76.104H70.6516V79.128H74.8156V79.98H70.6516V83.148H75.2476V84H69.7276ZM79.9296 80.58H78.0696V84H77.1456V75.252H80.0736C81.0816 75.244 81.8456 75.496 82.3656 76.008C82.8856 76.52 83.1456 77.144 83.1456 77.88C83.1456 78.64 82.8776 79.276 82.3416 79.788C81.7736 80.316 80.9696 80.58 79.9296 80.58ZM80.0016 76.116H78.0696V79.728H79.9536C80.7376 79.728 81.3176 79.532 81.6936 79.14C82.0376 78.796 82.2096 78.384 82.2096 77.904C82.2096 77.408 82.0376 76.988 81.6936 76.644C81.3496 76.292 80.7856 76.116 80.0016 76.116ZM86.4533 79.716V80.004C86.4533 81.164 86.1773 82.216 85.6253 83.16C85.0653 84.104 84.2813 84.868 83.2733 85.452L82.9133 84.864C84.6813 83.72 85.5653 82.096 85.5653 79.992V79.728C85.5653 77.608 84.6813 75.98 82.9133 74.844L83.2733 74.28C84.2813 74.848 85.0653 75.608 85.6253 76.56C86.1773 77.512 86.4533 78.564 86.4533 79.716Z" fill="white"/>
</g>
<defs>
<filter id="filter0_d_462_561" x="52.0713" y="28.5428" width="30.2134" height="34.8591" filterUnits="userSpaceOnUse" color-interpolation-filters="sRGB">
<feFlood flood-opacity="0" result="BackgroundImageFix"/>
<feColorMatrix in="SourceAlpha" type="matrix" values="0 0 0 0 0 0 0 0 0 0 0 0 0 0 0 0 0 0 127 0" result="hardAlpha"/>
<feOffset dx="-4" dy="4"/>
<feGaussianBlur stdDeviation="2"/>
<feComposite in2="hardAlpha" operator="out"/>
<feColorMatrix type="matrix" values="0 0 0 0 0 0 0 0 0 0 0 0 0 0 0 0 0 0 0.25 0"/>
<feBlend mode="normal" in2="BackgroundImageFix" result="effect1_dropShadow_462_561"/>
<feBlend mode="normal" in="SourceGraphic" in2="effect1_dropShadow_462_561" result="shape"/>
</filter>
<filter id="filter1_d_462_561" x="58.9165" y="28.8316" width="23.3682" height="34.5703" filterUnits="userSpaceOnUse" color-interpolation-filters="sRGB">
<feFlood flood-opacity="0" result="BackgroundImageFix"/>
<feColorMatrix in="SourceAlpha" type="matrix" values="0 0 0 0 0 0 0 0 0 0 0 0 0 0 0 0 0 0 127 0" result="hardAlpha"/>
<feOffset dx="-4" dy="4"/>
<feGaussianBlur stdDeviation="2"/>
<feComposite in2="hardAlpha" operator="out"/>
<feColorMatrix type="matrix" values="0 0 0 0 0 0 0 0 0 0 0 0 0 0 0 0 0 0 0.25 0"/>
<feBlend mode="normal" in2="BackgroundImageFix" result="effect1_dropShadow_462_561"/>
<feBlend mode="normal" in="SourceGraphic" in2="effect1_dropShadow_462_561" result="shape"/>
</filter>
<filter id="filter2_d_462_561" x="18.9355" y="-4.9771" width="47.9595" height="49.1527" filterUnits="userSpaceOnUse" color-interpolation-filters="sRGB">
<feFlood flood-opacity="0" result="BackgroundImageFix"/>
<feColorMatrix in="SourceAlpha" type="matrix" values="0 0 0 0 0 0 0 0 0 0 0 0 0 0 0 0 0 0 127 0" result="hardAlpha"/>
<feOffset dy="4"/>
<feGaussianBlur stdDeviation="5"/>
<feComposite in2="hardAlpha" operator="out"/>
<feColorMatrix type="matrix" values="0 0 0 0 0 0 0 0 0 0 0 0 0 0 0 0 0 0 0.5 0"/>
<feBlend mode="normal" in2="BackgroundImageFix" result="effect1_dropShadow_462_561"/>
<feBlend mode="normal" in="SourceGraphic" in2="effect1_dropShadow_462_561" result="shape"/>
</filter>
<filter id="filter3_d_462_561" x="-6.625" y="-2.59033" width="46.7661" height="67.9059" filterUnits="userSpaceOnUse" color-interpolation-filters="sRGB">
<feFlood flood-opacity="0" result="BackgroundImageFix"/>
<feColorMatrix in="SourceAlpha" type="matrix" values="0 0 0 0 0 0 0 0 0 0 0 0 0 0 0 0 0 0 127 0" result="hardAlpha"/>
<feOffset dy="4"/>
<feGaussianBlur stdDeviation="5"/>
<feComposite in2="hardAlpha" operator="out"/>
<feColorMatrix type="matrix" values="0 0 0 0 0 0 0 0 0 0 0 0 0 0 0 0 0 0 0.5 0"/>
<feBlend mode="normal" in2="BackgroundImageFix" result="effect1_dropShadow_462_561"/>
<feBlend mode="normal" in="SourceGraphic" in2="effect1_dropShadow_462_561" result="shape"/>
</filter>
<filter id="filter4_d_462_561" x="6.15723" y="74.28" width="82.2959" height="16.66" filterUnits="userSpaceOnUse" color-interpolation-filters="sRGB">
<feFlood flood-opacity="0" result="BackgroundImageFix"/>
<feColorMatrix in="SourceAlpha" type="matrix" values="0 0 0 0 0 0 0 0 0 0 0 0 0 0 0 0 0 0 127 0" result="hardAlpha"/>
<feOffset dy="2"/>
<feGaussianBlur stdDeviation="1"/>
<feComposite in2="hardAlpha" operator="out"/>
<feColorMatrix type="matrix" values="0 0 0 0 0 0 0 0 0 0 0 0 0 0 0 0 0 0 0.5 0"/>
<feBlend mode="normal" in2="BackgroundImageFix" result="effect1_dropShadow_462_561"/>
<feBlend mode="normal" in="SourceGraphic" in2="effect1_dropShadow_462_561" result="shape"/>
</filter>
<clipPath id="clip0_462_561">
<rect width="35.8257" height="35.8257" fill="white" transform="translate(55.1519 19.739) rotate(13.4168)"/>
</clipPath>
<clipPath id="clip1_462_561">
<rect width="30.6871" height="31.9862" fill="white" transform="matrix(-1 0 0 1 57.7476 0)"/>
</clipPath>
<clipPath id="clip2_462_561">
<rect width="28.9942" height="52.0657" fill="white" transform="matrix(-1 0 0 1 29.9707 0)"/>
</clipPath>
</defs>
</svg>
