<svg width="89" height="89" viewBox="0 0 89 89" fill="none" xmlns="http://www.w3.org/2000/svg">
<rect x="21.5024" y="24.1279" width="45.9342" height="45.9342" rx="22.9671" fill="#2962FF"/>
<rect x="21.5024" y="24.1279" width="45.9342" height="45.9342" rx="22.9671" stroke="#CDCCCC"/>
<path d="M42.0043 38.7235C38.8054 38.7235 37.9859 41.8195 37.5272 43.4963L34.1101 55.9873H36.1037L39.1334 44.9116H41.204L39.8256 49.9514H41.8192L43.4723 43.9074H39.4082C39.6164 43.1457 39.8385 42.3341 40.0195 41.6724C40.3538 40.4503 40.8998 39.5628 41.6938 39.5927C42.5714 39.6256 42.1248 40.2019 42.0046 40.6413C41.8384 41.2491 42.2872 41.8603 43.0737 41.8603C44.782 41.8603 45.2032 38.7235 42.0043 38.7235ZM30.6953 40.9092V40.9093L28.2222 49.9514H30.3005L31.2163 46.603H33.0217C35.0137 46.603 36.3357 45.5035 36.6931 43.9753C37.0269 42.5484 36.1935 40.9092 33.9613 40.9092C32.8726 40.9092 31.7841 40.9092 30.6953 40.9092ZM32.4827 41.9732H33.2818C34.1184 41.9732 34.7822 42.6429 34.6219 43.8084C34.4733 44.8888 33.3002 45.5364 32.2772 45.5364H31.5081L32.4827 41.9732ZM52.1913 43.7244C50.4438 43.7244 49.1832 45.2278 48.8807 46.7302C48.59 48.174 49.4179 50.0926 51.6974 50.0926C53.3175 50.0926 54.1323 49.3792 54.1323 49.3792L53.7594 48.4588C53.7594 48.4588 53.0783 49.0131 52.1292 49.0131C51.1802 49.0131 50.5848 48.264 50.7165 47.0702H54.592C54.8691 46.3672 55.0208 43.7244 52.1913 43.7244ZM59.9163 43.8057C58.6165 43.8057 57.8502 45.1479 57.8502 45.1479L58.1894 43.9075H56.1958L54.5427 49.9514H56.5363C56.5363 49.9514 57.0164 48.1856 57.2607 47.304C57.6379 45.9259 58.4071 45.063 58.7769 45.0277C59.2043 44.9869 59.1634 46.0167 59.997 46.0167C61.2614 46.0167 61.5341 43.8057 59.9165 43.8057H59.9163ZM44.2234 43.9075L43.9487 44.9118H46.4757L42.5031 49.9514H48.113L48.3876 48.9471H45.537L49.5095 43.9075H44.2234ZM52.1839 44.7224V44.7225C53.2678 44.7225 53.0211 46.1536 53.0211 46.1536L50.8497 46.1486C50.8497 46.1486 51.2099 44.7224 52.1839 44.7224Z" fill="white"/>
<g filter="url(#filter0_d_186_6773)">
<path d="M22.9949 55.2288L23.6062 54.4472C26.9586 50.1445 31.1292 44.7916 29.4182 37.6186L27.7878 30.7841L26.5817 31.0718C22.227 32.1106 18.4897 30.9927 17.8883 28.4716L15.4761 29.047C16.0775 31.5681 13.2472 34.2527 8.89247 35.2914L7.68637 35.5792L9.31669 42.4136C11.0278 49.5866 17.1657 52.4805 22.0976 54.8059L22.9949 55.2288Z" fill="#D84025"/>
</g>
<g filter="url(#filter1_d_186_6773)">
<path d="M8.8924 35.2914C13.2471 34.2527 16.0774 31.5681 15.476 29.047L16.6821 28.7593L22.9959 55.2274L22.9947 55.2288L22.0975 54.8058C17.1657 52.4805 11.0277 49.5867 9.31661 42.4136L7.68629 35.5791L8.8924 35.2914Z" fill="#A13023"/>
</g>
<g clip-path="url(#clip0_186_6773)">
<g filter="url(#filter2_d_186_6773)">
<path fill-rule="evenodd" clip-rule="evenodd" d="M54.4435 22.5884C54.7527 23.844 55.0606 25.0985 55.3672 26.3521C52.543 27.9683 48.977 28.8709 44.4976 28.8724V23.689L54.4435 22.5884Z" fill="#535353"/>
<path fill-rule="evenodd" clip-rule="evenodd" d="M34.5598 22.5884C34.2464 23.844 33.9358 25.0985 33.6279 26.3521C36.4582 27.9683 40.016 28.8709 44.4975 28.8724V23.689L34.5598 22.5884Z" fill="#676767"/>
<path fill-rule="evenodd" clip-rule="evenodd" d="M42.2743 9.0759C35.8217 3.36948 48.0228 3.91021 51.4613 1.01904C51.704 1.26047 51.8479 1.55073 51.8752 1.85375C51.9024 2.15677 51.8117 2.45917 51.6144 2.72338C53.1408 3.67161 55.8243 2.37786 57.2793 4.1953C55.6304 4.12403 54.6264 4.61829 54.0142 5.27988C58.5363 4.75618 56.767 7.94329 60.6321 8.12302C57.7527 9.34239 50.9899 7.00126 46.8086 9.8506C44.921 9.79792 44.1619 9.13323 42.2743 9.0759Z" fill="#A23023"/>
<path fill-rule="evenodd" clip-rule="evenodd" d="M60.6302 8.07033C57.78 9.32971 51.0667 6.93006 46.916 9.85061C46.1437 9.81778 45.3837 9.68413 44.6675 9.45517C50.0964 4.66063 54.9136 8.9168 60.6322 8.07033H60.6302Z" fill="#1A1A1A"/>
<path fill-rule="evenodd" clip-rule="evenodd" d="M42.6515 8.59114C43.3966 8.64919 44.1275 8.78313 44.8236 8.9892L44.8728 9.0014C44.6296 8.72992 44.3906 8.45845 44.1556 8.18697C42.0203 6.3705 46.5142 4.22155 49.2397 3.78078C50.2213 4.41524 51.7336 4.11479 52.5082 4.56013C51.8401 5.10004 51.4262 6.03344 50.7561 6.57335C58.4079 5.79857 54.9222 7.64096 58.5943 7.99785C58.3472 7.87286 58.1227 7.72472 57.9263 7.55708C56.6968 6.51234 56.8792 5.37152 54.1988 5.67655L52.707 5.84585C52.9706 5.57335 53.2363 5.30136 53.5041 5.02988C54.1084 4.39931 55.0179 3.9679 56.041 3.82653C55.8012 3.72209 55.537 3.65224 55.2623 3.62064C55.0005 3.59114 54.7362 3.57534 54.4713 3.57336C53.2787 3.552 52.1414 3.62216 51.1926 3.05175L50.8401 2.8367C50.9098 2.74214 50.9815 2.64911 51.045 2.55607C51.2036 2.34726 51.2703 2.1067 51.2356 1.86823C50.0061 2.56217 48.3052 3.02887 46.8482 3.41626C45.6945 3.7213 44.4835 4.02633 43.3892 4.40609C42.6166 4.67757 41.7498 5.05429 41.34 5.56979C40.5961 6.53064 41.7457 7.77975 42.6515 8.59114Z" fill="#EF4123"/>
<path fill-rule="evenodd" clip-rule="evenodd" d="M43.726 8.71744C44.1138 8.79334 44.4961 8.88402 44.8716 8.98912L44.9206 9.0014C44.6783 8.72818 44.4401 8.45496 44.2059 8.18175C42.0781 6.35365 46.5563 4.19094 49.2722 3.74734C50.2504 4.38587 51.7574 4.08349 52.5293 4.53169C51.8636 5.07506 51.4511 6.01443 50.7833 6.55779C58.4083 5.77805 54.9348 7.63224 58.5941 7.99142C56.6889 7.61843 56.7236 6.27076 55.6413 5.94689C54.5591 5.62302 53.1296 6.369 52.0392 6.04513C52.1535 5.42041 52.6702 4.91235 53.4216 4.13721C52.3782 3.66292 49.746 4.08656 50.2932 2.71741C47.951 4.65909 40.4057 3.85479 43.2686 8.55013L43.726 8.71744Z" fill="#D03927"/>
<path d="M44.4128 12.7378C46.3357 12.7378 47.8945 11.7113 47.8945 10.445C47.8945 9.17875 46.3357 8.15222 44.4128 8.15222C42.4899 8.15222 40.9312 9.17875 40.9312 10.445C40.9312 11.7113 42.4899 12.7378 44.4128 12.7378Z" fill="#CDCCCC"/>
<path fill-rule="evenodd" clip-rule="evenodd" d="M44.4279 10.5299C48.7929 10.5299 52.5226 12.2605 54.0145 14.7017C54.8158 14.959 55.3671 15.4889 55.3671 16.0954C55.363 16.297 55.3022 16.4958 55.1885 16.6786C55.0748 16.8615 54.9108 17.0244 54.7072 17.1567C54.6334 20.7267 50.0594 23.6074 44.4279 23.6074C38.7964 23.6074 34.2388 20.7328 34.1527 17.1721C33.94 17.0393 33.7679 16.8739 33.648 16.6871C33.5282 16.5003 33.4634 16.2964 33.458 16.0893C33.458 15.4767 34.0277 14.9361 34.8474 14.6834C36.3455 12.2483 40.069 10.5299 44.4279 10.5299Z" fill="#8B8A8A"/>
<path fill-rule="evenodd" clip-rule="evenodd" d="M42.7993 20.2107C46.6373 20.2107 49.7626 18.2312 49.7626 15.7949C49.7626 13.3586 46.6312 11.3792 42.7993 11.3792C38.9674 11.3792 35.8359 13.3586 35.8359 15.7949C35.8359 18.2312 38.9592 20.2107 42.7993 20.2107Z" fill="#989898"/>
<path fill-rule="evenodd" clip-rule="evenodd" d="M40.6764 15.2854C42.1273 15.2854 43.3089 14.5219 43.3089 13.587C43.3089 12.6521 42.1273 11.8886 40.6764 11.8886C39.2256 11.8886 38.0439 12.6506 38.0439 13.587C38.0439 14.5235 39.2379 15.2854 40.6764 15.2854Z" fill="#ACACAC"/>
<path fill-rule="evenodd" clip-rule="evenodd" d="M44.4976 14.2665H44.398C43.0095 14.2612 41.6314 14.4487 40.3311 14.8201L32.7788 16.9646V23.3548C36.0832 26.2793 39.9366 28.5696 44.4976 30.0613V14.2665Z" fill="#CDCCCC"/>
<path fill-rule="evenodd" clip-rule="evenodd" d="M42.7991 15.2854C42.1973 15.3616 41.6069 15.484 41.0364 15.651L39.5886 16.0678V26.7622C40.6103 27.3513 41.6823 27.8861 42.7971 28.3629V15.2854H42.7991ZM38.9088 16.2638L36.6568 16.9125V24.8458C37.3687 25.37 38.1187 25.8771 38.9088 26.3593V16.2638ZM35.979 17.1069L34.4771 17.5394V23.0865C34.9583 23.5096 35.459 23.9244 35.979 24.3309V17.1069Z" fill="#333333"/>
<path fill-rule="evenodd" clip-rule="evenodd" d="M44.4976 14.2665H44.5972C45.9823 14.2621 47.3568 14.4496 48.6539 14.82L56.2164 16.963V23.3532C52.91 26.2793 49.0566 28.5696 44.4976 30.0613V14.2665Z" fill="#B4B4B4"/>
<path fill-rule="evenodd" clip-rule="evenodd" d="M46.1958 15.2854C46.8099 15.3618 47.4126 15.4842 47.9949 15.651L49.4726 16.0678V26.7622C48.4294 27.351 47.3354 27.8857 46.1978 28.3629V15.2854H46.1958ZM50.1665 16.2638L52.4629 16.9125V24.8458C51.7383 25.37 50.9729 25.8771 50.1665 26.3593V16.2638ZM53.1567 17.1069L54.6877 17.5394V23.0865C54.1978 23.5096 53.6875 23.9244 53.1567 24.3309V17.1069Z" fill="#1A1A1A"/>
<path fill-rule="evenodd" clip-rule="evenodd" d="M43.5342 8.66174C44.1861 8.66174 44.4987 8.96662 44.2334 9.34109C44.0654 9.54109 43.8244 9.70857 43.5335 9.82751C43.2426 9.94646 42.9115 10.0129 42.5719 10.0204C41.922 10.0204 41.6095 9.71696 41.8747 9.34109C42.0429 9.14147 42.2836 8.97426 42.574 8.85535C42.8645 8.73645 43.195 8.6698 43.5342 8.66174Z" fill="#E3E3E3"/>
</g>
</g>
<g clip-path="url(#clip1_186_6773)">
<g filter="url(#filter3_d_186_6773)">
<path fill-rule="evenodd" clip-rule="evenodd" d="M60.0088 47.2835L60.1448 47.3539C60.299 47.4366 60.4706 47.4817 60.6455 47.4855C60.8205 47.4893 60.9939 47.4517 61.1515 47.3757C61.3113 47.3045 61.452 47.1966 61.5623 47.0608C61.6726 46.925 61.7493 46.7651 61.7862 46.5942C62.0988 45.2279 62.7241 43.5585 63.6136 41.8343C64.5031 40.1101 65.502 38.6345 66.4275 37.5887C66.5434 37.4584 66.6281 37.3033 66.6749 37.1353C66.7217 36.9673 66.7295 36.7908 66.6977 36.6193C66.6659 36.4478 66.5953 36.2859 66.4913 36.1459C66.3873 36.0058 66.2526 35.8914 66.0976 35.8114L65.9601 35.7411L66.526 34.6469L69.1835 36.0162L71.841 37.384L71.2751 38.4782L71.1391 38.4078C70.9834 38.3264 70.8111 38.2819 70.6354 38.2777C70.4598 38.2736 70.2855 38.31 70.1262 38.3841C69.9668 38.4581 69.8267 38.5679 69.7166 38.7049C69.6066 38.8418 69.5295 39.0023 69.4914 39.1738C69.1788 40.5384 68.5535 42.2095 67.664 43.9321C66.7745 45.6547 65.7756 47.1319 64.8502 48.1776C64.7342 48.3081 64.6496 48.4633 64.6027 48.6314C64.5559 48.7996 64.5481 48.9762 64.5799 49.1478C64.6117 49.3194 64.6823 49.4814 64.7863 49.6216C64.8903 49.7618 65.025 49.8763 65.18 49.9565L65.3176 50.0269L64.7517 51.1211L62.0941 49.7533L59.4429 48.3793L60.0088 47.2835Z" fill="#CA3927"/>
<path fill-rule="evenodd" clip-rule="evenodd" d="M66.7735 38.234C67.2118 38.4627 66.6031 40.5413 65.412 42.8737C64.221 45.2061 62.8998 46.9135 62.4692 46.6848C62.0386 46.4561 62.6396 44.3775 63.8306 42.0451C65.0217 39.7127 66.3351 38.0053 66.7735 38.234Z" fill="#F04B23"/>
<path fill-rule="evenodd" clip-rule="evenodd" d="M86.1073 3.39673L84.6829 11.4454L71.396 37.1944L67.0854 34.9697L80.3724 9.22068L86.1073 3.39673Z" fill="#D1D2D2"/>
<path fill-rule="evenodd" clip-rule="evenodd" d="M81.8078 7.74434L84.07 6.27113L83.2745 11.0728L71.3315 37.1944L84.6768 11.4454L86.1074 3.39673L81.8078 7.74434Z" fill="#E6E6E5"/>
<path fill-rule="evenodd" clip-rule="evenodd" d="M82.371 10.6997L76.0931 23.5217L69.8136 36.3452L69.1282 35.9964L68.4443 35.6477L75.4077 23.1745L82.371 10.6997Z" fill="#818181"/>
<path fill-rule="evenodd" clip-rule="evenodd" d="M65.7724 33.4233L73.372 37.3669C73.7628 37.084 74.2369 36.9418 74.7179 36.9631C75.1989 36.9844 75.6587 37.1679 76.0233 37.4842C76.3878 37.8005 76.6358 38.231 76.7273 38.7063C76.8188 39.1817 76.7484 39.6742 76.5275 40.1044C76.3066 40.5346 75.9481 40.8774 75.5097 41.0776C75.0714 41.2779 74.5787 41.3238 74.1113 41.208C73.6438 41.0922 73.2287 40.8214 72.933 40.4394C72.6372 40.0573 72.478 39.5862 72.4811 39.102L64.8815 35.1585C64.4903 35.4421 64.0154 35.5849 63.5336 35.5639C63.0518 35.5428 62.591 35.3591 62.2257 35.0425C61.8604 34.7258 61.6119 34.2946 61.5201 33.8184C61.4284 33.3423 61.4989 32.8489 61.7201 32.4179C61.9414 31.987 62.3006 31.6436 62.7398 31.4431C63.1789 31.2426 63.6724 31.1967 64.1407 31.3129C64.609 31.4291 65.0246 31.7005 65.3207 32.0834C65.6167 32.4663 65.7759 32.9383 65.7724 33.4233Z" fill="#333333"/>
</g>
</g>
<g filter="url(#filter4_d_186_6773)">
<path d="M17.0855 80.0891H15.2255V83.5091H14.3015V74.7611H17.2295C18.2375 74.7531 19.0015 75.0051 19.5215 75.5171C20.0415 76.0291 20.3015 76.6531 20.3015 77.3891C20.3015 78.1491 20.0335 78.7851 19.4975 79.2971C18.9295 79.8251 18.1255 80.0891 17.0855 80.0891ZM17.1575 75.6251H15.2255V79.2371H17.1095C17.8935 79.2371 18.4735 79.0411 18.8495 78.6491C19.1935 78.3051 19.3655 77.8931 19.3655 77.4131C19.3655 76.9171 19.1935 76.4971 18.8495 76.1531C18.5055 75.8011 17.9415 75.6251 17.1575 75.6251ZM22.123 78.3011H20.971V77.5451H22.123V76.4411C22.123 75.7851 22.287 75.2731 22.615 74.9051C22.951 74.5611 23.395 74.3891 23.947 74.3891C24.179 74.3891 24.395 74.4251 24.595 74.4971V75.2291C24.451 75.1811 24.247 75.1571 23.983 75.1571C23.735 75.1571 23.515 75.2371 23.323 75.3971C23.099 75.5971 22.987 75.9371 22.987 76.4171V77.5451H26.611V83.5091H25.735V78.3011H22.987V83.5091H22.123V78.3011ZM26.167 76.0691C25.991 76.0691 25.839 76.0051 25.711 75.8771C25.583 75.7491 25.519 75.5931 25.519 75.4091C25.519 75.2251 25.583 75.0691 25.711 74.9411C25.839 74.8131 25.991 74.7491 26.167 74.7491C26.351 74.7491 26.507 74.8131 26.635 74.9411C26.763 75.0851 26.827 75.2411 26.827 75.4091C26.827 75.5771 26.763 75.7331 26.635 75.8771C26.507 76.0051 26.351 76.0691 26.167 76.0691ZM29.0973 82.7651H32.8413V83.5091H28.0653V82.7651L31.7853 78.2891H28.1493V77.5451H32.8293V78.2891L29.0973 82.7651ZM39.3337 80.7971H34.5097C34.5417 81.3811 34.7617 81.8651 35.1697 82.2491C35.5697 82.6411 36.0617 82.8371 36.6457 82.8371C37.1017 82.8371 37.4897 82.7291 37.8097 82.5131C38.1297 82.2891 38.3577 81.9731 38.4937 81.5651L39.2617 81.8051C39.0937 82.3651 38.7697 82.8091 38.2897 83.1371C37.7937 83.4571 37.2497 83.6171 36.6577 83.6171C36.0977 83.6171 35.5817 83.4771 35.1097 83.1971C34.6377 82.9171 34.2777 82.5411 34.0297 82.0691C33.7657 81.6051 33.6337 81.0891 33.6337 80.5211C33.6337 79.9771 33.7577 79.4731 34.0057 79.0091C34.2377 78.5371 34.5857 78.1571 35.0497 77.8691C35.4977 77.5811 35.9937 77.4371 36.5377 77.4371C37.1377 77.4371 37.6497 77.5731 38.0737 77.8451C38.5057 78.1091 38.8257 78.4731 39.0337 78.9371C39.2417 79.3771 39.3457 79.9011 39.3457 80.5091C39.3457 80.6131 39.3417 80.7091 39.3337 80.7971ZM34.5217 80.0531H38.4697C38.4137 79.5091 38.2137 79.0611 37.8697 78.7091C37.5337 78.3731 37.0897 78.2051 36.5377 78.2051C36.0337 78.2051 35.5897 78.3851 35.2057 78.7451C34.8217 79.1211 34.5937 79.5571 34.5217 80.0531ZM40.8508 77.5451H41.7028V78.7211C41.9828 78.1531 42.3908 77.7691 42.9268 77.5691C43.1428 77.4891 43.3788 77.4491 43.6348 77.4491C43.7868 77.4491 43.8828 77.4571 43.9228 77.4731V78.3971C43.8588 78.3811 43.7468 78.3731 43.5868 78.3731C42.9388 78.3731 42.4668 78.5891 42.1708 79.0211C41.8748 79.4531 41.7268 79.9771 41.7268 80.5931V83.5091H40.8508V77.5451ZM47.0879 79.5131V79.2251C47.0879 78.0731 47.3679 77.0251 47.9279 76.0811C48.4799 75.1291 49.2599 74.3651 50.2679 73.7891L50.6279 74.3531C48.8599 75.4891 47.9759 77.1171 47.9759 79.2371V79.5011C47.9759 81.6051 48.8599 83.2291 50.6279 84.3731L50.2679 84.9611C49.2599 84.3771 48.4799 83.6091 47.9279 82.6571C47.3679 81.7131 47.0879 80.6651 47.0879 79.5131ZM54.9253 80.0891H53.0653V83.5091H52.1413V74.7611H55.0693C56.0773 74.7531 56.8413 75.0051 57.3613 75.5171C57.8813 76.0291 58.1413 76.6531 58.1413 77.3891C58.1413 78.1491 57.8733 78.7851 57.3373 79.2971C56.7693 79.8251 55.9653 80.0891 54.9253 80.0891ZM54.9973 75.6251H53.0653V79.2371H54.9493C55.7333 79.2371 56.3133 79.0411 56.6893 78.6491C57.0333 78.3051 57.2053 77.8931 57.2053 77.4131C57.2053 76.9171 57.0333 76.4971 56.6893 76.1531C56.3453 75.8011 55.7813 75.6251 54.9973 75.6251ZM60.6708 75.6251V78.7691H64.7868V79.6091H60.6708V83.5091H59.7468V74.7611H65.1708V75.6251H60.6708ZM66.8366 83.5091V74.7611H72.3086V75.6131H67.7606V78.6371H71.9246V79.4891H67.7606V82.6571H72.3566V83.5091H66.8366ZM76.8826 79.2251V79.5131C76.8826 80.6731 76.6066 81.7251 76.0546 82.6691C75.4946 83.6131 74.7106 84.3771 73.7026 84.9611L73.3426 84.3731C75.1106 83.2291 75.9946 81.6051 75.9946 79.5011V79.2371C75.9946 77.1171 75.1106 75.4891 73.3426 74.3531L73.7026 73.7891C74.7106 74.3571 75.4946 75.1171 76.0546 76.0691C76.6066 77.0211 76.8826 78.0731 76.8826 79.2251Z" fill="white"/>
</g>
<defs>
<filter id="filter0_d_186_6773" x="3.68652" y="28.4716" width="30.1289" height="34.7573" filterUnits="userSpaceOnUse" color-interpolation-filters="sRGB">
<feFlood flood-opacity="0" result="BackgroundImageFix"/>
<feColorMatrix in="SourceAlpha" type="matrix" values="0 0 0 0 0 0 0 0 0 0 0 0 0 0 0 0 0 0 127 0" result="hardAlpha"/>
<feOffset dy="4"/>
<feGaussianBlur stdDeviation="2"/>
<feComposite in2="hardAlpha" operator="out"/>
<feColorMatrix type="matrix" values="0 0 0 0 0 0 0 0 0 0 0 0 0 0 0 0 0 0 0.25 0"/>
<feBlend mode="normal" in2="BackgroundImageFix" result="effect1_dropShadow_186_6773"/>
<feBlend mode="normal" in="SourceGraphic" in2="effect1_dropShadow_186_6773" result="shape"/>
</filter>
<filter id="filter1_d_186_6773" x="3.68652" y="28.7593" width="23.3096" height="34.4696" filterUnits="userSpaceOnUse" color-interpolation-filters="sRGB">
<feFlood flood-opacity="0" result="BackgroundImageFix"/>
<feColorMatrix in="SourceAlpha" type="matrix" values="0 0 0 0 0 0 0 0 0 0 0 0 0 0 0 0 0 0 127 0" result="hardAlpha"/>
<feOffset dy="4"/>
<feGaussianBlur stdDeviation="2"/>
<feComposite in2="hardAlpha" operator="out"/>
<feColorMatrix type="matrix" values="0 0 0 0 0 0 0 0 0 0 0 0 0 0 0 0 0 0 0.25 0"/>
<feBlend mode="normal" in2="BackgroundImageFix" result="effect1_dropShadow_186_6773"/>
<feBlend mode="normal" in="SourceGraphic" in2="effect1_dropShadow_186_6773" result="shape"/>
</filter>
<filter id="filter2_d_186_6773" x="22.7788" y="-4.98096" width="47.8535" height="49.0422" filterUnits="userSpaceOnUse" color-interpolation-filters="sRGB">
<feFlood flood-opacity="0" result="BackgroundImageFix"/>
<feColorMatrix in="SourceAlpha" type="matrix" values="0 0 0 0 0 0 0 0 0 0 0 0 0 0 0 0 0 0 127 0" result="hardAlpha"/>
<feOffset dy="4"/>
<feGaussianBlur stdDeviation="5"/>
<feComposite in2="hardAlpha" operator="out"/>
<feColorMatrix type="matrix" values="0 0 0 0 0 0 0 0 0 0 0 0 0 0 0 0 0 0 0.5 0"/>
<feBlend mode="normal" in2="BackgroundImageFix" result="effect1_dropShadow_186_6773"/>
<feBlend mode="normal" in="SourceGraphic" in2="effect1_dropShadow_186_6773" result="shape"/>
</filter>
<filter id="filter3_d_186_6773" x="49.4429" y="-2.60327" width="46.6646" height="67.7244" filterUnits="userSpaceOnUse" color-interpolation-filters="sRGB">
<feFlood flood-opacity="0" result="BackgroundImageFix"/>
<feColorMatrix in="SourceAlpha" type="matrix" values="0 0 0 0 0 0 0 0 0 0 0 0 0 0 0 0 0 0 127 0" result="hardAlpha"/>
<feOffset dy="4"/>
<feGaussianBlur stdDeviation="5"/>
<feComposite in2="hardAlpha" operator="out"/>
<feColorMatrix type="matrix" values="0 0 0 0 0 0 0 0 0 0 0 0 0 0 0 0 0 0 0.5 0"/>
<feBlend mode="normal" in2="BackgroundImageFix" result="effect1_dropShadow_186_6773"/>
<feBlend mode="normal" in="SourceGraphic" in2="effect1_dropShadow_186_6773" result="shape"/>
</filter>
<filter id="filter4_d_186_6773" x="12.3013" y="73.7891" width="66.5815" height="15.172" filterUnits="userSpaceOnUse" color-interpolation-filters="sRGB">
<feFlood flood-opacity="0" result="BackgroundImageFix"/>
<feColorMatrix in="SourceAlpha" type="matrix" values="0 0 0 0 0 0 0 0 0 0 0 0 0 0 0 0 0 0 127 0" result="hardAlpha"/>
<feOffset dy="2"/>
<feGaussianBlur stdDeviation="1"/>
<feComposite in2="hardAlpha" operator="out"/>
<feColorMatrix type="matrix" values="0 0 0 0 0 0 0 0 0 0 0 0 0 0 0 0 0 0 0.5 0"/>
<feBlend mode="normal" in2="BackgroundImageFix" result="effect1_dropShadow_186_6773"/>
<feBlend mode="normal" in="SourceGraphic" in2="effect1_dropShadow_186_6773" result="shape"/>
</filter>
<clipPath id="clip0_186_6773">
<rect width="30.5708" height="31.8649" fill="white" transform="translate(31.9297)"/>
</clipPath>
<clipPath id="clip1_186_6773">
<rect width="28.8843" height="51.8684" fill="white" transform="translate(59.6128)"/>
</clipPath>
</defs>
</svg>
