<svg width="90" height="91" viewBox="0 0 90 91" fill="none" xmlns="http://www.w3.org/2000/svg">
<rect x="21.5801" y="24.1279" width="45.9342" height="45.9342" rx="22.9671" fill="#0070BA"/>
<rect x="21.5801" y="24.1279" width="45.9342" height="45.9342" rx="22.9671" stroke="#CDCCCC"/>
<path d="M53.6018 40.7994C53.5774 40.9551 53.5496 41.1144 53.5183 41.2779C52.4422 46.8031 48.7604 48.7118 44.0582 48.7118H41.664C41.0889 48.7118 40.6044 49.1294 40.5148 49.6967L39.289 57.4707L38.9419 59.6744C38.8836 60.0467 39.1706 60.3825 39.5465 60.3825H43.7928C44.2957 60.3825 44.7228 60.0171 44.802 59.5213L44.8437 59.3055L45.6432 54.2318L45.6945 53.9534C45.7729 53.4558 46.2009 53.0904 46.7037 53.0904H47.3389C51.453 53.0904 54.6736 51.4201 55.6149 46.5864C56.0081 44.5672 55.8045 42.8812 54.764 41.6954C54.4491 41.338 54.0585 41.0413 53.6018 40.7994Z" fill="white" fill-opacity="0.6"/>
<path d="M52.4755 40.3504C52.3111 40.3026 52.1414 40.259 51.9674 40.2199C51.7926 40.1816 51.6133 40.1477 51.4288 40.1181C50.7833 40.0137 50.076 39.9641 49.3183 39.9641H42.9222C42.7648 39.9641 42.6152 39.9998 42.4812 40.0641C42.1863 40.206 41.9671 40.4852 41.914 40.8271L40.5533 49.4451L40.5142 49.6965C40.6037 49.1293 41.0883 48.7117 41.6634 48.7117H44.0576C48.7598 48.7117 52.4416 46.8021 53.5177 41.2778C53.5499 41.1142 53.5769 40.955 53.6012 40.7993C53.3289 40.6549 53.034 40.5313 52.7164 40.4261C52.6381 40.3999 52.5573 40.3748 52.4755 40.3504Z" fill="white" fill-opacity="0.8"/>
<path d="M41.9143 40.8272C41.9673 40.4853 42.1866 40.206 42.4815 40.0651C42.6163 40.0007 42.7651 39.965 42.9225 39.965H49.3186C50.0764 39.965 50.7836 40.0147 51.4292 40.1191C51.6137 40.1486 51.7928 40.1826 51.9677 40.2208C52.1417 40.26 52.3113 40.3035 52.4757 40.3513C52.5576 40.3757 52.6384 40.401 52.7176 40.4261C53.0352 40.5315 53.3301 40.6558 53.6023 40.7993C53.9225 38.7575 53.5998 37.3673 52.4958 36.1084C51.2787 34.7226 49.082 34.1293 46.2711 34.1293H38.1107C37.5366 34.1293 37.0467 34.5468 36.958 35.115L33.559 56.6599C33.492 57.0862 33.8208 57.4707 34.2506 57.4707H39.2886L40.5536 49.4452L41.9143 40.8272Z" fill="white"/>
<g clip-path="url(#clip0_182_2651)">
<g filter="url(#filter0_d_182_2651)">
<path d="M66.9175 55.4018L66.3039 54.6172C62.9388 50.2981 58.7522 44.9249 60.4698 37.7246L62.1064 30.8641L63.317 31.1529C67.6883 32.1956 71.4399 31.0735 72.0436 28.5428L74.4649 29.1204C73.8612 31.6511 76.7023 34.3459 81.0736 35.3886L82.2843 35.6774L80.6478 42.5379C78.9302 49.7382 72.7688 52.6431 67.8183 54.9772L66.9175 55.4018Z" fill="#7AB9E8"/>
</g>
<g filter="url(#filter1_d_182_2651)">
<path d="M81.0738 35.3887C76.7025 34.3459 73.8614 31.6512 74.4651 29.1205L73.2544 28.8317L66.9166 55.4004L66.9178 55.4019L67.8185 54.9773C72.769 52.6431 78.9303 49.7383 80.6479 42.538L82.2845 35.6775L81.0738 35.3887Z" fill="#579ADF"/>
</g>
</g>
<g clip-path="url(#clip1_182_2651)">
<g filter="url(#filter2_d_182_2651)">
<path fill-rule="evenodd" clip-rule="evenodd" d="M35.1478 22.6744C34.8374 23.9348 34.5283 25.1941 34.2206 26.4524C37.0556 28.0748 40.6351 28.9808 45.1316 28.9823V23.7792L35.1478 22.6744Z" fill="#535353"/>
<path fill-rule="evenodd" clip-rule="evenodd" d="M55.1071 22.6744C55.4216 23.9348 55.7334 25.1941 56.0425 26.4524C53.2014 28.0748 49.6301 28.9808 45.1315 28.9823V23.7792L55.1071 22.6744Z" fill="#676767"/>
<path fill-rule="evenodd" clip-rule="evenodd" d="M47.3632 9.11046C53.8403 3.38232 41.5928 3.92512 38.1412 1.02295C37.8976 1.26529 37.7531 1.55666 37.7258 1.86083C37.6985 2.165 37.7895 2.46856 37.9876 2.73377C36.4554 3.68561 33.7617 2.38694 32.3011 4.21129C33.9563 4.13975 34.9641 4.63589 35.5786 5.3C31.0393 4.77431 32.8153 7.97354 28.9356 8.15395C31.8259 9.37797 38.6144 7.02792 42.8116 9.8881C44.7064 9.83522 45.4684 9.168 47.3632 9.11046Z" fill="#1B2241"/>
<path fill-rule="evenodd" clip-rule="evenodd" d="M28.9377 8.10108C31.7988 9.36525 38.5376 6.95647 42.7041 9.88814C43.4794 9.85518 44.2422 9.72102 44.9612 9.49119C39.5116 4.67842 34.6761 8.95077 28.9357 8.10108H28.9377Z" fill="#1A1A1A"/>
<path fill-rule="evenodd" clip-rule="evenodd" d="M46.985 8.62385C46.237 8.68213 45.5034 8.81658 44.8045 9.02344L44.7552 9.03568C44.9993 8.76317 45.2393 8.49066 45.4751 8.21815C47.6185 6.39477 43.1075 4.23764 40.3717 3.79519C39.3864 4.43208 37.8683 4.13048 37.0908 4.57752C37.7613 5.11948 38.1769 6.05643 38.8495 6.59839C31.1686 5.82066 34.6676 7.67006 30.9814 8.02831C31.2295 7.90284 31.4549 7.75414 31.652 7.58586C32.8862 6.53715 32.7032 5.39199 35.3937 5.69818L36.8912 5.86812C36.6266 5.59459 36.3598 5.32156 36.0911 5.04905C35.4845 4.41608 34.5715 3.98303 33.5445 3.84112C33.7853 3.73628 34.0504 3.66616 34.3261 3.63444C34.589 3.60483 34.8543 3.58897 35.1201 3.58698C36.3173 3.56555 37.459 3.63597 38.4114 3.06339L38.7652 2.84753C38.6952 2.75261 38.6232 2.65922 38.5595 2.56583C38.4003 2.35623 38.3333 2.11475 38.3682 1.87537C39.6024 2.57195 41.3097 3.04043 42.7722 3.42929C43.9303 3.73549 45.146 4.04168 46.2445 4.42289C47.02 4.6954 47.8901 5.07355 48.3015 5.59101C49.0482 6.55552 47.8942 7.80938 46.985 8.62385Z" fill="#4386BB"/>
<path fill-rule="evenodd" clip-rule="evenodd" d="M45.9063 8.75064C45.517 8.82683 45.1332 8.91786 44.7563 9.02335L44.7071 9.03568C44.9504 8.76142 45.1895 8.48717 45.4246 8.21291C47.5604 6.37786 43.0652 4.20692 40.339 3.76164C39.3571 4.4026 37.8444 4.09907 37.0695 4.54897C37.7378 5.0944 38.1518 6.03735 38.8221 6.58278C31.1681 5.80007 34.6549 7.66132 30.9816 8.02186C32.8941 7.64745 32.8592 6.29466 33.9456 5.96956C35.032 5.64445 36.4669 6.39327 37.5615 6.06816C37.4467 5.44107 36.9281 4.93108 36.1738 4.15299C37.2212 3.6769 39.8634 4.10215 39.3141 2.72778C41.6652 4.67685 49.2392 3.86949 46.3654 8.5827L45.9063 8.75064Z" fill="#283A84"/>
<path d="M45.217 12.7863C43.2868 12.7863 41.7221 11.7559 41.7221 10.4848C41.7221 9.21366 43.2868 8.18323 45.217 8.18323C47.1472 8.18323 48.7119 9.21366 48.7119 10.4848C48.7119 11.7559 47.1472 12.7863 45.217 12.7863Z" fill="#CDCCCC"/>
<path fill-rule="evenodd" clip-rule="evenodd" d="M45.2015 10.5701C40.8199 10.5701 37.076 12.3072 35.5784 14.7578C34.7741 15.016 34.2207 15.5479 34.2207 16.1567C34.2248 16.3591 34.2859 16.5586 34.4 16.7422C34.5141 16.9257 34.6787 17.0893 34.8831 17.2221C34.9572 20.8056 39.5486 23.6973 45.2015 23.6973C50.8544 23.6973 55.4294 20.8117 55.5158 17.2375C55.7293 17.1041 55.9021 16.9381 56.0224 16.7506C56.1427 16.5631 56.2078 16.3585 56.2131 16.1506C56.2131 15.5356 55.6413 14.993 54.8184 14.7393C53.3147 12.295 49.5769 10.5701 45.2015 10.5701Z" fill="#8B8A8A"/>
<path fill-rule="evenodd" clip-rule="evenodd" d="M46.8366 20.2876C42.984 20.2876 39.8468 18.3006 39.8468 15.8551C39.8468 13.4095 42.9901 11.4225 46.8366 11.4225C50.683 11.4225 53.8264 13.4095 53.8264 15.8551C53.8264 18.3006 50.6913 20.2876 46.8366 20.2876Z" fill="#989898"/>
<path fill-rule="evenodd" clip-rule="evenodd" d="M48.9676 15.3436C47.5112 15.3436 46.3251 14.5772 46.3251 13.6388C46.3251 12.7004 47.5112 11.934 48.9676 11.934C50.424 11.934 51.6101 12.6988 51.6101 13.6388C51.6101 14.5788 50.4116 15.3436 48.9676 15.3436Z" fill="#ACACAC"/>
<path fill-rule="evenodd" clip-rule="evenodd" d="M45.1316 14.3208H45.2317C46.6254 14.3154 48.0088 14.5037 49.314 14.8765L56.895 17.0292V23.4436C53.5781 26.3793 49.71 28.6783 45.1316 30.1757V14.3208Z" fill="#CDCCCC"/>
<path fill-rule="evenodd" clip-rule="evenodd" d="M46.8365 15.3436C47.4405 15.4201 48.0332 15.543 48.6059 15.7106L50.0592 16.129V26.8641C49.0336 27.4554 47.9575 27.9922 46.8385 28.4709V15.3436H46.8365ZM50.7416 16.3258L53.0021 16.9769V24.9404C52.2875 25.4666 51.5347 25.9756 50.7416 26.4597V16.3258ZM53.6825 17.1721L55.1902 17.6062V23.1744C54.7071 23.5991 54.2045 24.0155 53.6825 24.4236V17.1721Z" fill="#333333"/>
<path fill-rule="evenodd" clip-rule="evenodd" d="M45.1316 14.3208H45.0316C43.6412 14.3163 42.2614 14.5046 40.9594 14.8764L33.3682 17.0276V23.4421C36.6872 26.3793 40.5552 28.6783 45.1316 30.1757V14.3208Z" fill="#B4B4B4"/>
<path fill-rule="evenodd" clip-rule="evenodd" d="M43.4268 15.3436C42.8103 15.4203 42.2054 15.5432 41.6208 15.7106L40.1375 16.129V26.8641C41.1846 27.4551 42.2828 27.9919 43.4247 28.4709V15.3436H43.4268ZM39.441 16.3258L37.1358 16.9769V24.9404C37.8631 25.4666 38.6315 25.9756 39.441 26.4597V16.3258ZM36.4394 17.1721L34.9026 17.6062V23.1744C35.3943 23.5991 35.9065 24.0155 36.4394 24.4236V17.1721Z" fill="#1A1A1A"/>
<path fill-rule="evenodd" clip-rule="evenodd" d="M46.0987 8.6947C45.4444 8.6947 45.1306 9.00073 45.3969 9.37664C45.5655 9.5774 45.8074 9.74551 46.0994 9.86491C46.3915 9.9843 46.7238 10.051 47.0648 10.0586C47.7171 10.0586 48.0308 9.75394 47.7645 9.37664C47.5958 9.17625 47.3542 9.00841 47.0626 8.88905C46.7711 8.76969 46.4393 8.70279 46.0987 8.6947Z" fill="#E3E3E3"/>
</g>
</g>
<g clip-path="url(#clip2_182_2651)">
<g filter="url(#filter3_d_182_2651)">
<path fill-rule="evenodd" clip-rule="evenodd" d="M29.5728 47.4634L29.4363 47.534C29.2815 47.6171 29.1093 47.6624 28.9337 47.6662C28.758 47.67 28.584 47.6323 28.4257 47.556C28.2654 47.4845 28.1241 47.3762 28.0134 47.2399C27.9027 47.1036 27.8257 46.9431 27.7886 46.7714C27.4748 45.4 26.8471 43.7242 25.9542 41.9935C25.0614 40.2628 24.0587 38.7815 23.1297 37.7318C23.0133 37.601 22.9284 37.4453 22.8813 37.2766C22.8343 37.108 22.8265 36.9308 22.8584 36.7587C22.8904 36.5865 22.9613 36.424 23.0657 36.2834C23.1701 36.1428 23.3052 36.028 23.4608 35.9477L23.5989 35.8771L23.0308 34.7787L20.3632 36.1532L17.6956 37.5262L18.2636 38.6246L18.4001 38.554C18.5564 38.4722 18.7294 38.4275 18.9057 38.4234C19.0821 38.4193 19.257 38.4558 19.4169 38.5301C19.5769 38.6045 19.7175 38.7147 19.828 38.8521C19.9385 38.9896 20.0159 39.1507 20.0541 39.3228C20.3679 40.6927 20.9956 42.3701 21.8885 44.0992C22.7813 45.8284 23.784 47.3112 24.713 48.361C24.8294 48.4919 24.9144 48.6477 24.9614 48.8165C25.0084 48.9852 25.0162 49.1625 24.9843 49.3348C24.9523 49.507 24.8815 49.6697 24.7771 49.8104C24.6727 49.9511 24.5375 50.0661 24.3819 50.1466L24.2438 50.2172L24.8119 51.3156L27.4795 49.9426L30.1409 48.5634L29.5728 47.4634Z" fill="#4592CF"/>
<path fill-rule="evenodd" clip-rule="evenodd" d="M22.7824 38.3795C22.3424 38.6091 22.9534 40.6956 24.149 43.0369C25.3446 45.3781 26.6708 47.092 27.103 46.8625C27.5353 46.6329 26.932 44.5463 25.7364 42.2051C24.5408 39.8638 23.2224 38.1499 22.7824 38.3795Z" fill="#283A84"/>
<path fill-rule="evenodd" clip-rule="evenodd" d="M3.37482 3.40967L4.80457 11.4889L18.142 37.3359L22.469 35.1028L9.13151 9.25577L3.37482 3.40967Z" fill="#D1D2D2"/>
<path fill-rule="evenodd" clip-rule="evenodd" d="M7.69091 7.77382L5.4201 6.295L6.21859 11.1149L18.207 37.3359L4.81097 11.4889L3.37495 3.40967L7.69091 7.77382Z" fill="#E6E6E5"/>
<path fill-rule="evenodd" clip-rule="evenodd" d="M7.12556 10.7405L13.4273 23.6112L19.7307 36.4835L20.4188 36.1334L21.1052 35.7833L14.1154 23.2627L7.12556 10.7405Z" fill="#818181"/>
<path fill-rule="evenodd" clip-rule="evenodd" d="M23.7872 33.5505L16.1586 37.5091C15.7664 37.2252 15.2905 37.0824 14.8077 37.1037C14.3249 37.1251 13.8633 37.3094 13.4973 37.6268C13.1314 37.9443 12.8825 38.3765 12.7906 38.8536C12.6988 39.3308 12.7694 39.8251 12.9912 40.257C13.2129 40.6888 13.5728 41.033 14.0128 41.234C14.4529 41.4349 14.9474 41.481 15.4166 41.3648C15.8859 41.2485 16.3025 40.9768 16.5994 40.5932C16.8963 40.2097 17.056 39.7368 17.053 39.2508L24.6815 35.2923C25.0742 35.577 25.5508 35.7203 26.0345 35.6992C26.5182 35.6781 26.9807 35.4937 27.3474 35.1758C27.7141 34.8579 27.9636 34.4251 28.0557 33.9471C28.1477 33.4691 28.077 32.9739 27.8549 32.5413C27.6328 32.1087 27.2722 31.764 26.8314 31.5627C26.3905 31.3615 25.8951 31.3155 25.4251 31.4321C24.9551 31.5487 24.5378 31.8212 24.2406 32.2055C23.9435 32.5899 23.7837 33.0637 23.7872 33.5505Z" fill="#333333"/>
</g>
</g>
<g filter="url(#filter4_d_182_2651)">
<path d="M11.7668 80.089H9.9068V83.509H8.9828V74.761H11.9108C12.9188 74.753 13.6828 75.005 14.2028 75.517C14.7228 76.029 14.9828 76.653 14.9828 77.389C14.9828 78.149 14.7148 78.785 14.1788 79.297C13.6108 79.825 12.8068 80.089 11.7668 80.089ZM11.8388 75.625H9.9068V79.237H11.7908C12.5748 79.237 13.1548 79.041 13.5308 78.649C13.8748 78.305 14.0468 77.893 14.0468 77.413C14.0468 76.917 13.8748 76.497 13.5308 76.153C13.1868 75.801 12.6228 75.625 11.8388 75.625ZM17.9644 80.065H19.6204V79.669C19.6204 78.701 19.1124 78.217 18.0964 78.217C17.6084 78.217 17.2324 78.349 16.9684 78.613C16.7284 78.853 16.5844 79.125 16.5364 79.429L15.6964 79.249C15.7044 79.081 15.7844 78.869 15.9364 78.613C16.0884 78.357 16.2884 78.129 16.5364 77.929C16.9604 77.601 17.4884 77.437 18.1204 77.437C19.2084 77.437 19.9324 77.849 20.2924 78.673C20.4124 78.953 20.4724 79.281 20.4724 79.657V81.337C20.4724 82.313 20.5044 83.037 20.5684 83.509H19.7044C19.6484 83.205 19.6204 82.857 19.6204 82.465C19.1164 83.233 18.4444 83.617 17.6044 83.617C17.0044 83.617 16.5244 83.449 16.1644 83.113C15.7884 82.785 15.6004 82.365 15.6004 81.853V81.793C15.6004 81.201 15.8364 80.765 16.3084 80.485C16.7884 80.205 17.3404 80.065 17.9644 80.065ZM19.6204 80.989V80.785H17.9524C17.5844 80.785 17.2604 80.853 16.9804 80.989C16.6444 81.133 16.4764 81.397 16.4764 81.781C16.4764 82.109 16.6004 82.369 16.8484 82.561C17.0884 82.753 17.3924 82.849 17.7604 82.849C18.2804 82.849 18.7244 82.673 19.0924 82.321C19.4444 81.985 19.6204 81.541 19.6204 80.989ZM23.3181 86.449H22.3701L23.9181 83.101L21.2061 77.545H22.2021L24.3861 82.153L26.4621 77.545H27.3981L23.3181 86.449ZM31.5949 80.089H29.7349V83.509H28.8109V74.761H31.7389C32.7469 74.753 33.5109 75.005 34.0309 75.517C34.5509 76.029 34.8109 76.653 34.8109 77.389C34.8109 78.149 34.5429 78.785 34.0069 79.297C33.4389 79.825 32.6349 80.089 31.5949 80.089ZM31.6669 75.625H29.7349V79.237H31.6189C32.4029 79.237 32.9829 79.041 33.3589 78.649C33.7029 78.305 33.8749 77.893 33.8749 77.413C33.8749 76.917 33.7029 76.497 33.3589 76.153C33.0149 75.801 32.4509 75.625 31.6669 75.625ZM37.7926 80.065H39.4486V79.669C39.4486 78.701 38.9406 78.217 37.9246 78.217C37.4366 78.217 37.0606 78.349 36.7966 78.613C36.5566 78.853 36.4126 79.125 36.3646 79.429L35.5246 79.249C35.5326 79.081 35.6126 78.869 35.7646 78.613C35.9166 78.357 36.1166 78.129 36.3646 77.929C36.7886 77.601 37.3166 77.437 37.9486 77.437C39.0366 77.437 39.7606 77.849 40.1206 78.673C40.2406 78.953 40.3006 79.281 40.3006 79.657V81.337C40.3006 82.313 40.3326 83.037 40.3966 83.509H39.5326C39.4766 83.205 39.4486 82.857 39.4486 82.465C38.9446 83.233 38.2726 83.617 37.4326 83.617C36.8326 83.617 36.3526 83.449 35.9926 83.113C35.6166 82.785 35.4286 82.365 35.4286 81.853V81.793C35.4286 81.201 35.6646 80.765 36.1366 80.485C36.6166 80.205 37.1686 80.065 37.7926 80.065ZM39.4486 80.989V80.785H37.7806C37.4126 80.785 37.0886 80.853 36.8086 80.989C36.4726 81.133 36.3046 81.397 36.3046 81.781C36.3046 82.109 36.4286 82.369 36.6766 82.561C36.9166 82.753 37.2206 82.849 37.5886 82.849C38.1086 82.849 38.5526 82.673 38.9206 82.321C39.2726 81.985 39.4486 81.541 39.4486 80.989ZM42.2001 83.509V74.401H43.0761V83.509H42.2001ZM47.781 79.513V79.225C47.781 78.073 48.061 77.025 48.621 76.081C49.173 75.129 49.953 74.365 50.961 73.789L51.321 74.353C49.553 75.489 48.669 77.117 48.669 79.237V79.501C48.669 81.605 49.553 83.229 51.321 84.373L50.961 84.961C49.953 84.377 49.173 83.609 48.621 82.657C48.061 81.713 47.781 80.665 47.781 79.513ZM55.6184 80.089H53.7584V83.509H52.8344V74.761H55.7624C56.7704 74.753 57.5344 75.005 58.0544 75.517C58.5744 76.029 58.8344 76.653 58.8344 77.389C58.8344 78.149 58.5664 78.785 58.0304 79.297C57.4624 79.825 56.6584 80.089 55.6184 80.089ZM55.6904 75.625H53.7584V79.237H55.6424C56.4264 79.237 57.0064 79.041 57.3824 78.649C57.7264 78.305 57.8984 77.893 57.8984 77.413C57.8984 76.917 57.7264 76.497 57.3824 76.153C57.0384 75.801 56.4744 75.625 55.6904 75.625ZM62.8876 78.949L65.6836 74.761H66.7276L63.3436 79.813V83.509H62.4076V79.825L59.0236 74.761H60.1276L62.8876 78.949ZM71.0168 80.089H69.1568V83.509H68.2328V74.761H71.1608C72.1688 74.753 72.9328 75.005 73.4528 75.517C73.9728 76.029 74.2328 76.653 74.2328 77.389C74.2328 78.149 73.9648 78.785 73.4288 79.297C72.8608 79.825 72.0568 80.089 71.0168 80.089ZM71.0888 75.625H69.1568V79.237H71.0408C71.8248 79.237 72.4048 79.041 72.7808 78.649C73.1248 78.305 73.2968 77.893 73.2968 77.413C73.2968 76.917 73.1248 76.497 72.7808 76.153C72.4368 75.801 71.8728 75.625 71.0888 75.625ZM75.8383 83.509V74.761H76.7623V82.645H80.9143V83.509H75.8383ZM84.9819 79.225V79.513C84.9819 80.673 84.7059 81.725 84.1539 82.669C83.5939 83.613 82.8099 84.377 81.8019 84.961L81.4419 84.373C83.2099 83.229 84.0939 81.605 84.0939 79.501V79.237C84.0939 77.117 83.2099 75.489 81.4419 74.353L81.8019 73.789C82.8099 74.357 83.5939 75.117 84.1539 76.069C84.7059 77.021 84.9819 78.073 84.9819 79.225Z" fill="white"/>
</g>
<defs>
<filter id="filter0_d_182_2651" x="52.0713" y="28.5428" width="30.2129" height="34.859" filterUnits="userSpaceOnUse" color-interpolation-filters="sRGB">
<feFlood flood-opacity="0" result="BackgroundImageFix"/>
<feColorMatrix in="SourceAlpha" type="matrix" values="0 0 0 0 0 0 0 0 0 0 0 0 0 0 0 0 0 0 127 0" result="hardAlpha"/>
<feOffset dx="-4" dy="4"/>
<feGaussianBlur stdDeviation="2"/>
<feComposite in2="hardAlpha" operator="out"/>
<feColorMatrix type="matrix" values="0 0 0 0 0 0 0 0 0 0 0 0 0 0 0 0 0 0 0.25 0"/>
<feBlend mode="normal" in2="BackgroundImageFix" result="effect1_dropShadow_182_2651"/>
<feBlend mode="normal" in="SourceGraphic" in2="effect1_dropShadow_182_2651" result="shape"/>
</filter>
<filter id="filter1_d_182_2651" x="58.9165" y="28.8317" width="23.3679" height="34.5703" filterUnits="userSpaceOnUse" color-interpolation-filters="sRGB">
<feFlood flood-opacity="0" result="BackgroundImageFix"/>
<feColorMatrix in="SourceAlpha" type="matrix" values="0 0 0 0 0 0 0 0 0 0 0 0 0 0 0 0 0 0 127 0" result="hardAlpha"/>
<feOffset dx="-4" dy="4"/>
<feGaussianBlur stdDeviation="2"/>
<feComposite in2="hardAlpha" operator="out"/>
<feColorMatrix type="matrix" values="0 0 0 0 0 0 0 0 0 0 0 0 0 0 0 0 0 0 0.25 0"/>
<feBlend mode="normal" in2="BackgroundImageFix" result="effect1_dropShadow_182_2651"/>
<feBlend mode="normal" in="SourceGraphic" in2="effect1_dropShadow_182_2651" result="shape"/>
</filter>
<filter id="filter2_d_182_2651" x="18.9355" y="-4.97705" width="47.9595" height="49.1527" filterUnits="userSpaceOnUse" color-interpolation-filters="sRGB">
<feFlood flood-opacity="0" result="BackgroundImageFix"/>
<feColorMatrix in="SourceAlpha" type="matrix" values="0 0 0 0 0 0 0 0 0 0 0 0 0 0 0 0 0 0 127 0" result="hardAlpha"/>
<feOffset dy="4"/>
<feGaussianBlur stdDeviation="5"/>
<feComposite in2="hardAlpha" operator="out"/>
<feColorMatrix type="matrix" values="0 0 0 0 0 0 0 0 0 0 0 0 0 0 0 0 0 0 0.5 0"/>
<feBlend mode="normal" in2="BackgroundImageFix" result="effect1_dropShadow_182_2651"/>
<feBlend mode="normal" in="SourceGraphic" in2="effect1_dropShadow_182_2651" result="shape"/>
</filter>
<filter id="filter3_d_182_2651" x="-6.62524" y="-2.59033" width="46.7661" height="67.9059" filterUnits="userSpaceOnUse" color-interpolation-filters="sRGB">
<feFlood flood-opacity="0" result="BackgroundImageFix"/>
<feColorMatrix in="SourceAlpha" type="matrix" values="0 0 0 0 0 0 0 0 0 0 0 0 0 0 0 0 0 0 127 0" result="hardAlpha"/>
<feOffset dy="4"/>
<feGaussianBlur stdDeviation="5"/>
<feComposite in2="hardAlpha" operator="out"/>
<feColorMatrix type="matrix" values="0 0 0 0 0 0 0 0 0 0 0 0 0 0 0 0 0 0 0.5 0"/>
<feBlend mode="normal" in2="BackgroundImageFix" result="effect1_dropShadow_182_2651"/>
<feBlend mode="normal" in="SourceGraphic" in2="effect1_dropShadow_182_2651" result="shape"/>
</filter>
<filter id="filter4_d_182_2651" x="6.98291" y="73.7891" width="79.999" height="16.6599" filterUnits="userSpaceOnUse" color-interpolation-filters="sRGB">
<feFlood flood-opacity="0" result="BackgroundImageFix"/>
<feColorMatrix in="SourceAlpha" type="matrix" values="0 0 0 0 0 0 0 0 0 0 0 0 0 0 0 0 0 0 127 0" result="hardAlpha"/>
<feOffset dy="2"/>
<feGaussianBlur stdDeviation="1"/>
<feComposite in2="hardAlpha" operator="out"/>
<feColorMatrix type="matrix" values="0 0 0 0 0 0 0 0 0 0 0 0 0 0 0 0 0 0 0.5 0"/>
<feBlend mode="normal" in2="BackgroundImageFix" result="effect1_dropShadow_182_2651"/>
<feBlend mode="normal" in="SourceGraphic" in2="effect1_dropShadow_182_2651" result="shape"/>
</filter>
<clipPath id="clip0_182_2651">
<rect width="35.8257" height="35.8257" fill="white" transform="translate(55.1519 19.739) rotate(13.4168)"/>
</clipPath>
<clipPath id="clip1_182_2651">
<rect width="30.6871" height="31.9862" fill="white" transform="matrix(-1 0 0 1 57.7476 0)"/>
</clipPath>
<clipPath id="clip2_182_2651">
<rect width="28.9942" height="52.0657" fill="white" transform="matrix(-1 0 0 1 29.9705 0)"/>
</clipPath>
</defs>
</svg>
