<svg width="89" height="91" viewBox="0 0 89 91" fill="none" xmlns="http://www.w3.org/2000/svg">
<rect x="21.5027" y="24.1279" width="45.9342" height="45.9342" rx="22.9671" fill="#3E4348"/>
<rect x="21.5027" y="24.1279" width="45.9342" height="45.9342" rx="22.9671" stroke="#CDCCCC"/>
<path d="M53.3806 34.1293L35.8799 34.1293C33.4738 34.1293 31.5039 36.0982 31.5039 38.5053L31.5039 56.0065C31.5039 58.4116 33.4738 60.381 35.8799 60.381L53.3811 60.381C55.7872 60.381 57.7571 58.4121 57.7571 56.0065L57.7571 38.5053C57.7566 36.0982 55.7867 34.1293 53.3806 34.1293ZM52.9829 54.2172C52.9829 54.982 52.3567 55.6063 51.5913 55.6063L37.6682 55.6063C36.9034 55.6063 36.2767 54.9816 36.2767 54.2172L36.2767 40.2946C36.2767 39.5297 36.9034 38.903 37.6682 38.903L51.5913 38.903C52.3567 38.903 52.9829 39.5297 52.9829 40.2946L52.9829 54.2172ZM48.2111 50.0395C48.2111 50.4782 47.8528 50.835 47.4166 50.835L41.8479 50.835C41.4102 50.835 41.0534 50.4777 41.0534 50.0395L41.0534 44.4713C41.0534 44.0336 41.4102 43.6763 41.8479 43.6763L47.4161 43.6763C47.8528 43.6763 48.2106 44.0341 48.2106 44.4713L48.2111 50.0395Z" fill="white"/>
<g filter="url(#filter0_d_182_2615)">
<path d="M22.9946 55.2289L23.606 54.4472C26.9583 50.1446 31.129 44.7916 29.4179 37.6186L27.7876 30.7841L26.5815 31.0719C22.2268 32.1106 18.4894 30.9928 17.888 28.4717L15.4759 29.0471C16.0773 31.5682 13.2469 34.2527 8.89223 35.2915L7.68612 35.5792L9.31645 42.4137C11.0275 49.5867 17.1655 52.4806 22.0973 54.8059L22.9946 55.2289Z" fill="#D84025"/>
</g>
<g filter="url(#filter1_d_182_2615)">
<path d="M8.89215 35.2914C13.2469 34.2527 16.0772 31.5681 15.4758 29.047L16.6819 28.7593L22.9957 55.2274L22.9945 55.2288L22.0972 54.8058C17.1654 52.4805 11.0275 49.5867 9.31637 42.4136L7.68605 35.5791L8.89215 35.2914Z" fill="#A13023"/>
</g>
<g clip-path="url(#clip0_182_2615)">
<g filter="url(#filter2_d_182_2615)">
<path fill-rule="evenodd" clip-rule="evenodd" d="M54.4432 22.5884C54.7525 23.8439 55.0604 25.0985 55.3669 26.352C52.5427 27.9683 48.9768 28.8708 44.4973 28.8724V23.6889L54.4432 22.5884Z" fill="#535353"/>
<path fill-rule="evenodd" clip-rule="evenodd" d="M34.5595 22.5884C34.2462 23.8439 33.9356 25.0985 33.6277 26.352C36.458 27.9683 40.0158 28.8708 44.4973 28.8724V23.6889L34.5595 22.5884Z" fill="#676767"/>
<path fill-rule="evenodd" clip-rule="evenodd" d="M42.274 9.0759C35.8214 3.36948 48.0226 3.91021 51.4611 1.01904C51.7038 1.26047 51.8477 1.55073 51.8749 1.85375C51.9021 2.15677 51.8114 2.45917 51.6141 2.72338C53.1405 3.67161 55.824 2.37786 57.279 4.1953C55.6302 4.12403 54.6261 4.61829 54.0139 5.27988C58.5361 4.75618 56.7668 7.94329 60.6318 8.12302C57.7524 9.34239 50.9897 7.00126 46.8084 9.8506C44.9208 9.79792 44.1616 9.13323 42.274 9.0759Z" fill="#A23023"/>
<path fill-rule="evenodd" clip-rule="evenodd" d="M60.6299 8.0703C57.7798 9.32968 51.0665 6.93003 46.9158 9.85058C46.1434 9.81775 45.3835 9.6841 44.6672 9.45514C50.0962 4.6606 54.9134 8.91676 60.632 8.0703H60.6299Z" fill="#1A1A1A"/>
<path fill-rule="evenodd" clip-rule="evenodd" d="M42.651 8.5912C43.3961 8.64925 44.127 8.78319 44.8231 8.98926L44.8723 9.00146C44.6291 8.72999 44.3901 8.45851 44.1551 8.18703C42.0198 6.37056 46.5137 4.22161 49.2392 3.78084C50.2208 4.41531 51.7331 4.11485 52.5077 4.5602C51.8396 5.1001 51.4257 6.0335 50.7556 6.57341C58.4074 5.79863 54.9217 7.64102 58.5939 7.99791C58.3467 7.87292 58.1222 7.72478 57.9258 7.55714C56.6963 6.5124 56.8787 5.37158 54.1983 5.67661L52.7065 5.84591C52.9701 5.57341 53.2358 5.30142 53.5036 5.02995C54.1079 4.39937 55.0174 3.96796 56.0405 3.82659C55.8007 3.72215 55.5365 3.6523 55.2618 3.6207C55 3.5912 54.7357 3.5754 54.4708 3.57342C53.2782 3.55206 52.1409 3.62222 51.1921 3.05181L50.8396 2.83676C50.9093 2.7422 50.981 2.64917 51.0446 2.55613C51.2032 2.34732 51.2698 2.10676 51.2351 1.86829C50.0056 2.56223 48.3048 3.02893 46.8478 3.41632C45.6941 3.72136 44.483 4.02639 43.3887 4.40615C42.6161 4.67763 41.7493 5.05435 41.3395 5.56985C40.5956 6.5307 41.7452 7.77981 42.651 8.5912Z" fill="#EF4123"/>
<path fill-rule="evenodd" clip-rule="evenodd" d="M43.7258 8.71744C44.1135 8.79334 44.4959 8.88402 44.8714 8.98912L44.9204 9.0014C44.6781 8.72818 44.4398 8.45496 44.2057 8.18175C42.0779 6.35365 46.5561 4.19094 49.272 3.74734C50.2501 4.38587 51.7571 4.08349 52.529 4.53169C51.8633 5.07505 51.4508 6.01443 50.7831 6.55779C58.4081 5.77805 54.9346 7.63224 58.5939 7.99142C56.6887 7.61843 56.7234 6.27076 55.6411 5.94689C54.5588 5.62302 53.1294 6.369 52.0389 6.04513C52.1533 5.42041 52.6699 4.91235 53.4214 4.13721C52.3779 3.66292 49.7457 4.08656 50.293 2.71741C47.9508 4.65909 40.4055 3.85479 43.2684 8.55013L43.7258 8.71744Z" fill="#D03927"/>
<path d="M44.4123 12.7378C46.3352 12.7378 47.894 11.7113 47.894 10.445C47.894 9.17875 46.3352 8.15222 44.4123 8.15222C42.4895 8.15222 40.9307 9.17875 40.9307 10.445C40.9307 11.7113 42.4895 12.7378 44.4123 12.7378Z" fill="#CDCCCC"/>
<path fill-rule="evenodd" clip-rule="evenodd" d="M44.4279 10.5299C48.7929 10.5299 52.5226 12.2605 54.0145 14.7017C54.8158 14.959 55.3671 15.4889 55.3671 16.0954C55.363 16.297 55.3022 16.4957 55.1885 16.6786C55.0748 16.8615 54.9108 17.0244 54.7072 17.1567C54.6334 20.7266 50.0594 23.6074 44.4279 23.6074C38.7964 23.6074 34.2388 20.7328 34.1527 17.172C33.94 17.0392 33.7679 16.8738 33.648 16.687C33.5282 16.5002 33.4634 16.2964 33.458 16.0893C33.458 15.4767 34.0277 14.936 34.8474 14.6833C36.3455 12.2483 40.069 10.5299 44.4279 10.5299Z" fill="#8B8A8A"/>
<path fill-rule="evenodd" clip-rule="evenodd" d="M42.799 20.2107C46.6371 20.2107 49.7624 18.2312 49.7624 15.7949C49.7624 13.3586 46.6309 11.3792 42.799 11.3792C38.9671 11.3792 35.8357 13.3586 35.8357 15.7949C35.8357 18.2312 38.959 20.2107 42.799 20.2107Z" fill="#989898"/>
<path fill-rule="evenodd" clip-rule="evenodd" d="M40.6759 15.2854C42.1268 15.2854 43.3084 14.5219 43.3084 13.587C43.3084 12.6522 42.1268 11.8887 40.6759 11.8887C39.2251 11.8887 38.0435 12.6506 38.0435 13.587C38.0435 14.5235 39.2374 15.2854 40.6759 15.2854Z" fill="#ACACAC"/>
<path fill-rule="evenodd" clip-rule="evenodd" d="M44.4974 14.2665H44.3977C43.0092 14.2611 41.6311 14.4487 40.3308 14.82L32.7786 16.9646V23.3547C36.0829 26.2792 39.9363 28.5695 44.4974 30.0613V14.2665Z" fill="#CDCCCC"/>
<path fill-rule="evenodd" clip-rule="evenodd" d="M42.7991 15.2854C42.1973 15.3616 41.6069 15.484 41.0364 15.651L39.5886 16.0678V26.7622C40.6103 27.3513 41.6823 27.8861 42.7971 28.3629V15.2854H42.7991ZM38.9088 16.2638L36.6568 16.9125V24.8458C37.3687 25.37 38.1187 25.8771 38.9088 26.3593V16.2638ZM35.979 17.1069L34.4771 17.5394V23.0865C34.9583 23.5096 35.459 23.9244 35.979 24.3309V17.1069Z" fill="#333333"/>
<path fill-rule="evenodd" clip-rule="evenodd" d="M44.4973 14.2664H44.597C45.982 14.262 47.3566 14.4496 48.6537 14.82L56.2161 16.963V23.3532C52.9097 26.2792 49.0563 28.5695 44.4973 30.0613V14.2664Z" fill="#B4B4B4"/>
<path fill-rule="evenodd" clip-rule="evenodd" d="M46.1958 15.2854C46.8099 15.3618 47.4126 15.4842 47.9949 15.651L49.4726 16.0678V26.7622C48.4294 27.351 47.3354 27.8857 46.1978 28.3629V15.2854H46.1958ZM50.1665 16.2638L52.4629 16.9125V24.8458C51.7383 25.37 50.9729 25.8771 50.1665 26.3593V16.2638ZM53.1567 17.1069L54.6877 17.5394V23.0865C54.1978 23.5096 53.6875 23.9244 53.1567 24.3309V17.1069Z" fill="#1A1A1A"/>
<path fill-rule="evenodd" clip-rule="evenodd" d="M43.534 8.66174C44.1859 8.66174 44.4984 8.96662 44.2331 9.34109C44.0652 9.54109 43.8242 9.70857 43.5333 9.82751C43.2424 9.94646 42.9113 10.0129 42.5716 10.0204C41.9218 10.0204 41.6092 9.71696 41.8745 9.34109C42.0426 9.14147 42.2833 8.97426 42.5738 8.85535C42.8642 8.73645 43.1948 8.6698 43.534 8.66174Z" fill="#E3E3E3"/>
</g>
</g>
<g clip-path="url(#clip1_182_2615)">
<g filter="url(#filter3_d_182_2615)">
<path fill-rule="evenodd" clip-rule="evenodd" d="M60.009 47.2835L60.145 47.3539C60.2992 47.4366 60.4708 47.4817 60.6458 47.4855C60.8207 47.4893 60.9941 47.4517 61.1517 47.3757C61.3115 47.3045 61.4523 47.1966 61.5625 47.0608C61.6728 46.925 61.7495 46.7651 61.7864 46.5942C62.0991 45.2279 62.7244 43.5585 63.6139 41.8343C64.5034 40.1101 65.5023 38.6345 66.4277 37.5887C66.5437 37.4584 66.6283 37.3033 66.6751 37.1353C66.722 36.9673 66.7298 36.7908 66.6979 36.6193C66.6661 36.4478 66.5955 36.2859 66.4915 36.1459C66.3875 36.0058 66.2529 35.8914 66.0979 35.8114L65.9603 35.7411L66.5262 34.6469L69.1837 36.0162L71.8413 37.384L71.2754 38.4782L71.1394 38.4078C70.9837 38.3264 70.8113 38.2819 70.6357 38.2777C70.46 38.2736 70.2858 38.31 70.1264 38.3841C69.9671 38.4581 69.827 38.5679 69.7169 38.7049C69.6068 38.8418 69.5298 39.0023 69.4917 39.1738C69.179 40.5384 68.5537 42.2095 67.6643 43.9321C66.7748 45.6547 65.7758 47.1319 64.8504 48.1776C64.7344 48.3081 64.6498 48.4633 64.603 48.6314C64.5561 48.7996 64.5483 48.9762 64.5802 49.1478C64.612 49.3194 64.6826 49.4814 64.7866 49.6216C64.8906 49.7618 65.0252 49.8763 65.1802 49.9565L65.3178 50.0269L64.7519 51.1211L62.0944 49.7533L59.4431 48.3793L60.009 47.2835Z" fill="#CA3927"/>
<path fill-rule="evenodd" clip-rule="evenodd" d="M66.7737 38.2339C67.212 38.4626 66.6033 40.5412 65.4123 42.8736C64.2212 45.206 62.9 46.9134 62.4694 46.6847C62.0388 46.456 62.6398 44.3774 63.8309 42.045C65.022 39.7126 66.3354 38.0052 66.7737 38.2339Z" fill="#F04B23"/>
<path fill-rule="evenodd" clip-rule="evenodd" d="M86.1075 3.39673L84.6832 11.4454L71.3962 37.1944L67.0857 34.9697L80.3726 9.22068L86.1075 3.39673Z" fill="#D1D2D2"/>
<path fill-rule="evenodd" clip-rule="evenodd" d="M81.808 7.74434L84.0703 6.27113L83.2748 11.0728L71.3318 37.1944L84.6771 11.4454L86.1077 3.39673L81.808 7.74434Z" fill="#E6E6E5"/>
<path fill-rule="evenodd" clip-rule="evenodd" d="M82.3713 10.6997L76.0934 23.5217L69.8139 36.3452L69.1284 35.9964L68.4446 35.6476L75.4079 23.1745L82.3713 10.6997Z" fill="#818181"/>
<path fill-rule="evenodd" clip-rule="evenodd" d="M65.7727 33.4234L73.3723 37.3669C73.7631 37.0841 74.2371 36.9418 74.7181 36.9631C75.1991 36.9844 75.659 37.168 76.0235 37.4842C76.3881 37.8005 76.6361 38.231 76.7275 38.7064C76.819 39.1817 76.7486 39.6742 76.5278 40.1044C76.3069 40.5346 75.9483 40.8775 75.51 41.0777C75.0716 41.2779 74.579 41.3238 74.1115 41.208C73.644 41.0922 73.2289 40.8214 72.9332 40.4394C72.6375 40.0573 72.4783 39.5862 72.4814 39.1021L64.8818 35.1585C64.4905 35.4422 64.0157 35.585 63.5338 35.5639C63.052 35.5429 62.5913 35.3592 62.226 35.0425C61.8607 34.7258 61.6121 34.2946 61.5204 33.8185C61.4286 33.3423 61.4991 32.8489 61.7204 32.418C61.9417 31.987 62.3009 31.6436 62.74 31.4431C63.1792 31.2426 63.6727 31.1968 64.1409 31.3129C64.6092 31.4291 65.0249 31.7005 65.3209 32.0834C65.617 32.4663 65.7761 32.9384 65.7727 33.4234Z" fill="#333333"/>
</g>
</g>
<g filter="url(#filter4_d_182_2615)">
<path d="M15.4306 83.593C14.5826 83.593 13.8706 83.337 13.2946 82.825C12.7346 82.337 12.4146 81.769 12.3346 81.121L13.1986 80.881C13.2946 81.393 13.5586 81.829 13.9906 82.189C14.4146 82.549 14.8946 82.729 15.4306 82.729C15.9666 82.729 16.4146 82.601 16.7746 82.345C17.1826 82.065 17.3866 81.661 17.3866 81.133C17.3866 80.589 17.1426 80.173 16.6546 79.885C16.4306 79.749 16.1546 79.649 15.8266 79.585L14.6746 79.357C14.4426 79.309 14.1866 79.225 13.9066 79.105C13.6186 78.969 13.3786 78.805 13.1866 78.613C12.7786 78.213 12.5746 77.709 12.5746 77.101C12.5746 76.621 12.7066 76.193 12.9706 75.817C13.2266 75.449 13.5666 75.161 13.9906 74.953C14.4066 74.761 14.8586 74.665 15.3466 74.665C16.2026 74.665 16.8706 74.877 17.3506 75.301C17.8386 75.725 18.1346 76.213 18.2386 76.765L17.3986 77.029C17.3106 76.637 17.0946 76.289 16.7506 75.985C16.4146 75.673 15.9426 75.517 15.3346 75.517C14.8546 75.501 14.4266 75.645 14.0506 75.949C13.6746 76.253 13.4906 76.625 13.4986 77.065C13.4986 77.409 13.6066 77.705 13.8226 77.953C14.0386 78.201 14.3546 78.365 14.7706 78.445L15.8746 78.661C16.6346 78.805 17.2026 79.061 17.5786 79.429C17.8346 79.661 18.0266 79.929 18.1546 80.233C18.2746 80.529 18.3346 80.797 18.3346 81.037C18.3426 81.797 18.0666 82.417 17.5066 82.897C16.9466 83.377 16.2546 83.609 15.4306 83.593ZM19.5068 80.521C19.5068 79.721 19.7628 79.013 20.2748 78.397C20.7948 77.757 21.4708 77.437 22.3028 77.437C22.8628 77.437 23.3428 77.581 23.7428 77.869C24.0788 78.117 24.3748 78.433 24.6308 78.817V77.545H25.4828V86.449H24.6188V82.249C24.0828 83.145 23.3108 83.593 22.3028 83.593C21.4708 83.593 20.7908 83.285 20.2628 82.669C19.7588 82.061 19.5068 81.345 19.5068 80.521ZM22.4828 82.837C23.0828 82.845 23.5948 82.613 24.0188 82.141C24.4428 81.669 24.6468 81.125 24.6308 80.509C24.6308 80.117 24.5388 79.749 24.3548 79.405C24.1708 79.053 23.9148 78.765 23.5868 78.541C23.2508 78.325 22.8828 78.217 22.4828 78.217C21.8428 78.217 21.3388 78.437 20.9708 78.877C20.5868 79.325 20.3948 79.881 20.3948 80.545C20.3948 81.417 20.7188 82.073 21.3668 82.513C21.6948 82.729 22.0668 82.837 22.4828 82.837ZM27.3785 77.545H28.2425V81.013C28.2425 81.573 28.3865 82.013 28.6745 82.333C28.9465 82.661 29.3545 82.825 29.8985 82.825C30.4105 82.825 30.8345 82.645 31.1705 82.285C31.5065 81.925 31.6745 81.477 31.6745 80.941V77.545H32.5385V83.509H31.6865V82.417C31.2065 83.225 30.5225 83.629 29.6345 83.629C28.9385 83.629 28.3825 83.409 27.9665 82.969C27.5745 82.529 27.3785 81.949 27.3785 81.229V77.545ZM36.4492 80.065H38.1052V79.669C38.1052 78.701 37.5972 78.217 36.5812 78.217C36.0932 78.217 35.7172 78.349 35.4532 78.613C35.2132 78.853 35.0692 79.125 35.0212 79.429L34.1812 79.249C34.1892 79.081 34.2692 78.869 34.4212 78.613C34.5732 78.357 34.7732 78.129 35.0212 77.929C35.4452 77.601 35.9732 77.437 36.6052 77.437C37.6932 77.437 38.4172 77.849 38.7772 78.673C38.8972 78.953 38.9572 79.281 38.9572 79.657V81.337C38.9572 82.313 38.9892 83.037 39.0532 83.509H38.1892C38.1332 83.205 38.1052 82.857 38.1052 82.465C37.6012 83.233 36.9292 83.617 36.0892 83.617C35.4892 83.617 35.0092 83.449 34.6492 83.113C34.2732 82.785 34.0852 82.365 34.0852 81.853V81.793C34.0852 81.201 34.3212 80.765 34.7932 80.485C35.2732 80.205 35.8252 80.065 36.4492 80.065ZM38.1052 80.989V80.785H36.4372C36.0692 80.785 35.7452 80.853 35.4652 80.989C35.1292 81.133 34.9612 81.397 34.9612 81.781C34.9612 82.109 35.0852 82.369 35.3332 82.561C35.5732 82.753 35.8772 82.849 36.2452 82.849C36.7652 82.849 37.2092 82.673 37.5772 82.321C37.9292 81.985 38.1052 81.541 38.1052 80.989ZM40.8568 77.545H41.7088V78.721C41.9888 78.153 42.3968 77.769 42.9328 77.569C43.1488 77.489 43.3848 77.449 43.6408 77.449C43.7928 77.449 43.8888 77.457 43.9288 77.473V78.397C43.8648 78.381 43.7528 78.373 43.5928 78.373C42.9448 78.373 42.4728 78.589 42.1768 79.021C41.8808 79.453 41.7328 79.977 41.7328 80.593V83.509H40.8568V77.545ZM49.9099 80.797H45.0859C45.1179 81.381 45.3379 81.865 45.7459 82.249C46.1459 82.641 46.6379 82.837 47.2219 82.837C47.6779 82.837 48.0659 82.729 48.3859 82.513C48.7059 82.289 48.9339 81.973 49.0699 81.565L49.8379 81.805C49.6699 82.365 49.3459 82.809 48.8659 83.137C48.3699 83.457 47.8259 83.617 47.2339 83.617C46.6739 83.617 46.1579 83.477 45.6859 83.197C45.2139 82.917 44.8539 82.541 44.6059 82.069C44.3419 81.605 44.2099 81.089 44.2099 80.521C44.2099 79.977 44.3339 79.473 44.5819 79.009C44.8139 78.537 45.1619 78.157 45.6259 77.869C46.0739 77.581 46.5699 77.437 47.1139 77.437C47.7139 77.437 48.2259 77.573 48.6499 77.845C49.0819 78.109 49.4019 78.473 49.6099 78.937C49.8179 79.377 49.9219 79.901 49.9219 80.509C49.9219 80.613 49.9179 80.709 49.9099 80.797ZM45.0979 80.053H49.0459C48.9899 79.509 48.7899 79.061 48.4459 78.709C48.1099 78.373 47.6659 78.205 47.1139 78.205C46.6099 78.205 46.1659 78.385 45.7819 78.745C45.3979 79.121 45.1699 79.557 45.0979 80.053ZM54.1603 79.513V79.225C54.1603 78.073 54.4403 77.025 55.0003 76.081C55.5523 75.129 56.3323 74.365 57.3403 73.789L57.7003 74.353C55.9323 75.489 55.0483 77.117 55.0483 79.237V79.501C55.0483 81.605 55.9323 83.229 57.7003 84.373L57.3403 84.961C56.3323 84.377 55.5523 83.609 55.0003 82.657C54.4403 81.713 54.1603 80.665 54.1603 79.513ZM60.8291 83.593C59.9811 83.593 59.2691 83.337 58.6931 82.825C58.1331 82.337 57.8131 81.769 57.7331 81.121L58.5971 80.881C58.6931 81.393 58.9571 81.829 59.3891 82.189C59.8131 82.549 60.2931 82.729 60.8291 82.729C61.3651 82.729 61.8131 82.601 62.1731 82.345C62.5811 82.065 62.7851 81.661 62.7851 81.133C62.7851 80.589 62.5411 80.173 62.0531 79.885C61.8291 79.749 61.5531 79.649 61.2251 79.585L60.0731 79.357C59.8411 79.309 59.5851 79.225 59.3051 79.105C59.0171 78.969 58.7771 78.805 58.5851 78.613C58.1771 78.213 57.9731 77.709 57.9731 77.101C57.9731 76.621 58.1051 76.193 58.3691 75.817C58.6251 75.449 58.9651 75.161 59.3891 74.953C59.8051 74.761 60.2571 74.665 60.7451 74.665C61.6011 74.665 62.2691 74.877 62.7491 75.301C63.2371 75.725 63.5331 76.213 63.6371 76.765L62.7971 77.029C62.7091 76.637 62.4931 76.289 62.1491 75.985C61.8131 75.673 61.3411 75.517 60.7331 75.517C60.2531 75.501 59.8251 75.645 59.4491 75.949C59.0731 76.253 58.8891 76.625 58.8971 77.065C58.8971 77.409 59.0051 77.705 59.2211 77.953C59.4371 78.201 59.7531 78.365 60.1691 78.445L61.2731 78.661C62.0331 78.805 62.6011 79.061 62.9771 79.429C63.2331 79.661 63.4251 79.929 63.5531 80.233C63.6731 80.529 63.7331 80.797 63.7331 81.037C63.7411 81.797 63.4651 82.417 62.9051 82.897C62.3451 83.377 61.6531 83.609 60.8291 83.593ZM73.7852 83.029L73.1852 83.725L72.0452 82.693C71.2532 83.301 70.3492 83.605 69.3332 83.605C68.7252 83.605 68.1452 83.489 67.5932 83.257C67.0412 83.025 66.5772 82.709 66.2012 82.309C65.8252 81.933 65.5212 81.465 65.2892 80.905C65.0652 80.329 64.9532 79.749 64.9532 79.165C64.9532 78.325 65.1452 77.569 65.5292 76.897C65.9052 76.201 66.4332 75.657 67.1132 75.265C67.7692 74.873 68.5172 74.677 69.3572 74.677C69.9812 74.677 70.5652 74.789 71.1092 75.013C71.6372 75.245 72.1012 75.557 72.5012 75.949C72.8772 76.349 73.1812 76.821 73.4132 77.365C73.6372 77.909 73.7492 78.493 73.7492 79.117C73.7492 80.253 73.3932 81.241 72.6812 82.081L73.7852 83.029ZM66.3452 77.317C66.0572 77.869 65.9132 78.469 65.9132 79.117C65.9132 79.765 66.0572 80.365 66.3452 80.917C66.6332 81.469 67.0412 81.913 67.5692 82.249C68.1052 82.577 68.7012 82.741 69.3572 82.741C70.1252 82.741 70.7972 82.525 71.3732 82.093L69.7052 80.629L70.3172 79.957L72.0092 81.493C72.5372 80.837 72.8012 80.061 72.8012 79.165C72.8012 78.165 72.4812 77.313 71.8412 76.609C71.1852 75.889 70.3492 75.529 69.3332 75.529C68.7012 75.529 68.1132 75.689 67.5692 76.009C67.0412 76.345 66.6332 76.781 66.3452 77.317ZM76.8651 79.225V79.513C76.8651 80.673 76.5891 81.725 76.0371 82.669C75.4771 83.613 74.6931 84.377 73.6851 84.961L73.3251 84.373C75.0931 83.229 75.9771 81.605 75.9771 79.501V79.237C75.9771 77.117 75.0931 75.489 73.3251 74.353L73.6851 73.789C74.6931 74.357 75.4771 75.117 76.0371 76.069C76.5891 77.021 76.8651 78.073 76.8651 79.225Z" fill="white"/>
</g>
<defs>
<filter id="filter0_d_182_2615" x="3.68604" y="28.4717" width="30.1289" height="34.7572" filterUnits="userSpaceOnUse" color-interpolation-filters="sRGB">
<feFlood flood-opacity="0" result="BackgroundImageFix"/>
<feColorMatrix in="SourceAlpha" type="matrix" values="0 0 0 0 0 0 0 0 0 0 0 0 0 0 0 0 0 0 127 0" result="hardAlpha"/>
<feOffset dy="4"/>
<feGaussianBlur stdDeviation="2"/>
<feComposite in2="hardAlpha" operator="out"/>
<feColorMatrix type="matrix" values="0 0 0 0 0 0 0 0 0 0 0 0 0 0 0 0 0 0 0.25 0"/>
<feBlend mode="normal" in2="BackgroundImageFix" result="effect1_dropShadow_182_2615"/>
<feBlend mode="normal" in="SourceGraphic" in2="effect1_dropShadow_182_2615" result="shape"/>
</filter>
<filter id="filter1_d_182_2615" x="3.68604" y="28.7593" width="23.3096" height="34.4696" filterUnits="userSpaceOnUse" color-interpolation-filters="sRGB">
<feFlood flood-opacity="0" result="BackgroundImageFix"/>
<feColorMatrix in="SourceAlpha" type="matrix" values="0 0 0 0 0 0 0 0 0 0 0 0 0 0 0 0 0 0 127 0" result="hardAlpha"/>
<feOffset dy="4"/>
<feGaussianBlur stdDeviation="2"/>
<feComposite in2="hardAlpha" operator="out"/>
<feColorMatrix type="matrix" values="0 0 0 0 0 0 0 0 0 0 0 0 0 0 0 0 0 0 0.25 0"/>
<feBlend mode="normal" in2="BackgroundImageFix" result="effect1_dropShadow_182_2615"/>
<feBlend mode="normal" in="SourceGraphic" in2="effect1_dropShadow_182_2615" result="shape"/>
</filter>
<filter id="filter2_d_182_2615" x="22.7786" y="-4.98096" width="47.8535" height="49.0422" filterUnits="userSpaceOnUse" color-interpolation-filters="sRGB">
<feFlood flood-opacity="0" result="BackgroundImageFix"/>
<feColorMatrix in="SourceAlpha" type="matrix" values="0 0 0 0 0 0 0 0 0 0 0 0 0 0 0 0 0 0 127 0" result="hardAlpha"/>
<feOffset dy="4"/>
<feGaussianBlur stdDeviation="5"/>
<feComposite in2="hardAlpha" operator="out"/>
<feColorMatrix type="matrix" values="0 0 0 0 0 0 0 0 0 0 0 0 0 0 0 0 0 0 0.5 0"/>
<feBlend mode="normal" in2="BackgroundImageFix" result="effect1_dropShadow_182_2615"/>
<feBlend mode="normal" in="SourceGraphic" in2="effect1_dropShadow_182_2615" result="shape"/>
</filter>
<filter id="filter3_d_182_2615" x="49.4431" y="-2.60327" width="46.6646" height="67.7244" filterUnits="userSpaceOnUse" color-interpolation-filters="sRGB">
<feFlood flood-opacity="0" result="BackgroundImageFix"/>
<feColorMatrix in="SourceAlpha" type="matrix" values="0 0 0 0 0 0 0 0 0 0 0 0 0 0 0 0 0 0 127 0" result="hardAlpha"/>
<feOffset dy="4"/>
<feGaussianBlur stdDeviation="5"/>
<feComposite in2="hardAlpha" operator="out"/>
<feColorMatrix type="matrix" values="0 0 0 0 0 0 0 0 0 0 0 0 0 0 0 0 0 0 0.5 0"/>
<feBlend mode="normal" in2="BackgroundImageFix" result="effect1_dropShadow_182_2615"/>
<feBlend mode="normal" in="SourceGraphic" in2="effect1_dropShadow_182_2615" result="shape"/>
</filter>
<filter id="filter4_d_182_2615" x="10.3345" y="73.7891" width="68.5308" height="16.6599" filterUnits="userSpaceOnUse" color-interpolation-filters="sRGB">
<feFlood flood-opacity="0" result="BackgroundImageFix"/>
<feColorMatrix in="SourceAlpha" type="matrix" values="0 0 0 0 0 0 0 0 0 0 0 0 0 0 0 0 0 0 127 0" result="hardAlpha"/>
<feOffset dy="2"/>
<feGaussianBlur stdDeviation="1"/>
<feComposite in2="hardAlpha" operator="out"/>
<feColorMatrix type="matrix" values="0 0 0 0 0 0 0 0 0 0 0 0 0 0 0 0 0 0 0.5 0"/>
<feBlend mode="normal" in2="BackgroundImageFix" result="effect1_dropShadow_182_2615"/>
<feBlend mode="normal" in="SourceGraphic" in2="effect1_dropShadow_182_2615" result="shape"/>
</filter>
<clipPath id="clip0_182_2615">
<rect width="30.5708" height="31.8649" fill="white" transform="translate(31.9294)"/>
</clipPath>
<clipPath id="clip1_182_2615">
<rect width="28.8843" height="51.8684" fill="white" transform="translate(59.613)"/>
</clipPath>
</defs>
</svg>
