<svg width="89" height="100" viewBox="0 0 89 100" fill="none" xmlns="http://www.w3.org/2000/svg">
<rect x="21.5027" y="24.1279" width="45.9342" height="45.9342" rx="22.9671" fill="white"/>
<rect x="21.5027" y="24.1279" width="45.9342" height="45.9342" rx="22.9671" stroke="#CDCCCC"/>
<path d="M37.5328 50.8602C39.4148 52.317 41.777 53.1923 44.3399 53.1923C47.1445 53.1923 49.7014 52.1511 51.6527 50.4418C51.6764 50.4209 51.6647 50.4071 51.6414 50.4209C50.7657 51.0057 48.2701 52.2822 44.34 52.2822C40.9246 52.2822 38.7662 51.5202 37.5473 50.8398C37.5239 50.8283 37.5153 50.8458 37.5328 50.8602ZM45.0934 51.4274C47.8251 51.4274 50.8269 50.6827 52.6222 49.2087C53.1135 48.8071 53.5815 48.2725 54.0006 47.5542C54.2419 47.1408 54.4779 46.6497 54.6701 46.167C54.6786 46.1435 54.6641 46.132 54.6464 46.1585C52.9768 48.6154 48.1422 50.1479 43.1502 50.1479C39.6217 50.1479 35.8251 49.0195 34.3387 46.865C34.324 46.8451 34.3094 46.8536 34.3183 46.8765C35.703 49.8196 39.9039 51.4274 45.0934 51.4274ZM42.1087 46.5449C36.4273 46.5449 33.7484 43.8988 33.2625 42.0931C33.2565 42.0669 33.2393 42.0726 33.2393 42.0961C33.2393 42.704 33.3001 43.4886 33.4048 44.0093C33.4547 44.2627 33.661 44.6605 33.9635 44.9776C35.3392 46.4116 38.7691 48.4209 44.7091 48.4209C52.8021 48.4209 54.6526 45.7251 55.0304 44.8385C55.3007 44.2045 55.4407 43.0587 55.4407 42.0962C55.4407 41.8633 55.4348 41.6772 55.426 41.4946C55.426 41.465 55.4089 41.4625 55.4029 41.4914C54.9985 43.6607 48.0839 46.5449 42.1087 46.5449ZM34.3094 37.3359C33.9839 37.9819 33.623 39.0719 33.5157 39.636C33.4687 39.8778 33.4887 39.9938 33.5735 40.1742C34.2545 41.619 37.6989 43.9307 45.7333 43.9307C50.6349 43.9307 54.4426 42.7264 55.0595 40.529C55.1731 40.1244 55.1792 39.6973 55.0333 39.1218C54.8702 38.4787 54.5649 37.7287 54.3064 37.2021C54.2979 37.185 54.2828 37.1875 54.2859 37.2078C54.3819 40.09 46.3442 41.9476 42.2888 41.9476C37.896 41.9476 34.2312 40.1974 34.2312 37.9875C34.2312 37.7751 34.2752 37.5627 34.33 37.3417C34.3355 37.3215 34.3183 37.3182 34.3094 37.3359ZM51.6707 33.7971C51.7173 33.8702 51.7406 33.9482 51.7406 34.0532C51.7406 35.2861 47.9673 37.4671 41.9607 37.4671C37.5473 37.4671 36.721 35.8299 36.721 34.7886C36.721 34.4164 36.8637 34.0356 37.1781 33.6488C37.1953 33.6258 37.1807 33.617 37.1609 33.6341C36.5875 34.12 36.0607 34.6667 35.5986 35.2569C35.3777 35.5361 35.2407 35.7833 35.2407 35.9315C35.2407 38.0892 40.6512 39.6537 45.7102 39.6537C51.1006 39.6537 53.5063 37.894 53.5063 36.3476C53.5063 35.7949 53.2912 35.4722 52.7408 34.8467C52.3836 34.4398 52.0456 34.1085 51.688 33.7823C51.6707 33.7681 51.6587 33.7797 51.6707 33.7971ZM50.0182 32.5645C48.3546 31.5673 46.4227 31 44.34 31C42.2427 31 40.2527 31.5871 38.5831 32.6107C38.0823 32.9189 37.8004 33.1659 37.8004 33.4834C37.8004 34.4194 39.9878 35.4257 43.8684 35.4257C47.7088 35.4257 50.6874 34.3234 50.6874 33.2624C50.6874 33.0091 50.466 32.8319 50.0182 32.5645Z" fill="#00A8E0"/>
<path d="M53.961 63.6668C53.8165 63.6668 53.717 63.5667 53.717 63.4226V56.2676H51.2864C51.1418 56.2676 51.0422 56.1679 51.0422 56.0237V55.0367C51.0422 54.8922 51.1419 54.7922 51.2864 54.7922H57.7562C57.9006 54.7922 58 54.8923 58 55.0367V56.0236C58 56.1677 57.9006 56.2676 57.7562 56.2676H55.3258V63.4225C55.3258 63.5667 55.2258 63.6668 55.0818 63.6668H53.961ZM35.3421 60.0946L34.0662 56.4342L32.7788 60.0946H35.3421ZM38.1719 63.3777C38.2277 63.5223 38.1387 63.6668 37.9834 63.6668H36.8295C36.6629 63.6668 36.5629 63.5894 36.5073 63.4334L35.8528 61.5482H32.2687L31.6132 63.4334C31.5581 63.5895 31.4578 63.6668 31.2917 63.6668H30.2045C30.0601 63.6668 29.96 63.5222 30.0156 63.3777L33.0228 55.0145C33.0785 54.8587 33.1783 54.7926 33.3445 54.7926H34.8315C34.9981 54.7926 35.1091 54.8588 35.1646 55.0145L38.1719 63.3777ZM46.7919 62.4685C47.5018 62.4685 47.9793 62.1252 48.3678 61.537L46.5703 59.6066C45.882 59.9952 45.4379 60.3829 45.4379 61.1596C45.438 61.9252 46.0591 62.4685 46.7919 62.4685ZM47.2912 55.968C46.7144 55.968 46.3815 56.3344 46.3815 56.8224C46.3815 57.1995 46.5808 57.5324 47.036 58.0206C47.8238 57.5655 48.1569 57.2883 48.1569 56.8004C48.1569 56.3452 47.8685 55.968 47.2912 55.968ZM52.2077 63.3562C52.3518 63.5116 52.2632 63.6668 52.0851 63.6668H50.6758C50.4872 63.6668 50.3874 63.6222 50.2653 63.4779L49.422 62.5465C48.8561 63.3008 48.0676 63.8664 46.7584 63.8664C45.1383 63.8664 43.8618 62.8903 43.8618 61.2156C43.8618 59.9284 44.5502 59.2405 45.5935 58.6638C45.0826 58.0759 44.85 57.4546 44.85 56.9114C44.85 55.5355 45.8153 54.5927 47.2688 54.5927C48.7559 54.5927 49.666 55.4694 49.666 56.767C49.666 57.8763 48.8672 58.4969 48.0235 58.9632L49.2666 60.3059L49.9656 59.0852C50.0543 58.9412 50.1542 58.8855 50.3315 58.8855H51.4077C51.5856 58.8855 51.6855 59.0079 51.5748 59.1964L50.3317 61.3259L52.2077 63.3562ZM41.133 63.6668C41.2772 63.6668 41.3776 63.5667 41.3776 63.4226V56.2676H43.8075C43.9518 56.2676 44.0515 56.1679 44.0515 56.0237V55.0367C44.0515 54.8922 43.9518 54.7922 43.8075 54.7922H37.3377C37.1932 54.7922 37.0935 54.8923 37.0935 55.0367V56.0236C37.0935 56.1677 37.1932 56.2676 37.3377 56.2676H39.7676V63.4225C39.7676 63.5667 39.8678 63.6668 40.0119 63.6668H41.133Z" fill="black"/>
<g filter="url(#filter0_d_459_189)">
<path d="M22.9946 55.2288L23.606 54.4472C26.9583 50.1445 31.129 44.7916 29.4179 37.6186L27.7876 30.7841L26.5815 31.0718C22.2268 32.1106 18.4894 30.9927 17.888 28.4716L15.4759 29.047C16.0773 31.5681 13.2469 34.2527 8.89223 35.2914L7.68612 35.5792L9.31645 42.4136C11.0275 49.5866 17.1655 52.4805 22.0973 54.8059L22.9946 55.2288Z" fill="#D84025"/>
</g>
<g filter="url(#filter1_d_459_189)">
<path d="M8.8924 35.2914C13.2471 34.2527 16.0774 31.5681 15.476 29.047L16.6821 28.7593L22.9959 55.2274L22.9947 55.2288L22.0975 54.8058C17.1657 52.4805 11.0277 49.5867 9.31661 42.4136L7.68629 35.5791L8.8924 35.2914Z" fill="#A13023"/>
</g>
<g clip-path="url(#clip0_459_189)">
<g filter="url(#filter2_d_459_189)">
<path fill-rule="evenodd" clip-rule="evenodd" d="M54.4432 22.5884C54.7525 23.844 55.0604 25.0985 55.3669 26.3521C52.5427 27.9683 48.9768 28.8709 44.4973 28.8724V23.689L54.4432 22.5884Z" fill="#535353"/>
<path fill-rule="evenodd" clip-rule="evenodd" d="M34.5595 22.5884C34.2462 23.844 33.9356 25.0985 33.6277 26.3521C36.458 27.9683 40.0158 28.8709 44.4973 28.8724V23.689L34.5595 22.5884Z" fill="#676767"/>
<path fill-rule="evenodd" clip-rule="evenodd" d="M42.274 9.0759C35.8214 3.36948 48.0226 3.91021 51.4611 1.01904C51.7038 1.26047 51.8477 1.55073 51.8749 1.85375C51.9021 2.15677 51.8114 2.45917 51.6141 2.72338C53.1405 3.67161 55.824 2.37786 57.279 4.1953C55.6302 4.12403 54.6261 4.61829 54.0139 5.27988C58.5361 4.75618 56.7668 7.94329 60.6318 8.12302C57.7524 9.34239 50.9897 7.00126 46.8084 9.8506C44.9208 9.79792 44.1616 9.13323 42.274 9.0759Z" fill="#A23023"/>
<path fill-rule="evenodd" clip-rule="evenodd" d="M60.6299 8.07033C57.7798 9.32971 51.0665 6.93006 46.9158 9.85061C46.1434 9.81778 45.3835 9.68413 44.6672 9.45517C50.0962 4.66063 54.9134 8.9168 60.632 8.07033H60.6299Z" fill="#1A1A1A"/>
<path fill-rule="evenodd" clip-rule="evenodd" d="M42.651 8.59114C43.3961 8.64919 44.127 8.78313 44.8231 8.9892L44.8723 9.0014C44.6291 8.72992 44.3901 8.45845 44.1551 8.18697C42.0198 6.3705 46.5137 4.22155 49.2392 3.78078C50.2208 4.41524 51.7331 4.11479 52.5077 4.56013C51.8396 5.10004 51.4257 6.03344 50.7556 6.57335C58.4074 5.79857 54.9217 7.64096 58.5939 7.99785C58.3467 7.87286 58.1222 7.72472 57.9258 7.55708C56.6963 6.51234 56.8787 5.37152 54.1983 5.67655L52.7065 5.84585C52.9701 5.57335 53.2358 5.30136 53.5036 5.02988C54.1079 4.39931 55.0174 3.9679 56.0405 3.82653C55.8007 3.72209 55.5365 3.65224 55.2618 3.62064C55 3.59114 54.7357 3.57534 54.4708 3.57336C53.2782 3.552 52.1409 3.62216 51.1921 3.05175L50.8396 2.8367C50.9093 2.74214 50.981 2.64911 51.0446 2.55607C51.2032 2.34726 51.2698 2.1067 51.2351 1.86823C50.0056 2.56217 48.3048 3.02887 46.8478 3.41626C45.6941 3.7213 44.483 4.02633 43.3887 4.40609C42.6161 4.67757 41.7493 5.05429 41.3395 5.56979C40.5956 6.53064 41.7452 7.77975 42.651 8.59114Z" fill="#EF4123"/>
<path fill-rule="evenodd" clip-rule="evenodd" d="M43.7258 8.71744C44.1135 8.79334 44.4959 8.88402 44.8714 8.98912L44.9204 9.0014C44.6781 8.72818 44.4398 8.45496 44.2057 8.18175C42.0779 6.35365 46.5561 4.19094 49.272 3.74734C50.2501 4.38587 51.7571 4.08349 52.529 4.53169C51.8633 5.07505 51.4508 6.01443 50.7831 6.55779C58.4081 5.77805 54.9346 7.63224 58.5939 7.99142C56.6887 7.61843 56.7234 6.27076 55.6411 5.94689C54.5588 5.62302 53.1294 6.369 52.0389 6.04513C52.1533 5.42041 52.6699 4.91235 53.4214 4.13721C52.3779 3.66292 49.7457 4.08656 50.293 2.71741C47.9508 4.65909 40.4055 3.85479 43.2684 8.55013L43.7258 8.71744Z" fill="#D03927"/>
<path d="M44.4123 12.7378C46.3352 12.7378 47.894 11.7113 47.894 10.445C47.894 9.17875 46.3352 8.15222 44.4123 8.15222C42.4895 8.15222 40.9307 9.17875 40.9307 10.445C40.9307 11.7113 42.4895 12.7378 44.4123 12.7378Z" fill="#CDCCCC"/>
<path fill-rule="evenodd" clip-rule="evenodd" d="M44.4279 10.5299C48.7929 10.5299 52.5226 12.2605 54.0145 14.7017C54.8158 14.959 55.3671 15.4889 55.3671 16.0954C55.363 16.297 55.3022 16.4958 55.1885 16.6786C55.0748 16.8615 54.9108 17.0244 54.7072 17.1567C54.6334 20.7267 50.0594 23.6074 44.4279 23.6074C38.7964 23.6074 34.2388 20.7328 34.1527 17.1721C33.94 17.0393 33.7679 16.8739 33.648 16.6871C33.5282 16.5003 33.4634 16.2964 33.458 16.0893C33.458 15.4767 34.0277 14.9361 34.8474 14.6834C36.3455 12.2483 40.069 10.5299 44.4279 10.5299Z" fill="#8B8A8A"/>
<path fill-rule="evenodd" clip-rule="evenodd" d="M42.799 20.2107C46.6371 20.2107 49.7624 18.2312 49.7624 15.7949C49.7624 13.3586 46.6309 11.3792 42.799 11.3792C38.9671 11.3792 35.8357 13.3586 35.8357 15.7949C35.8357 18.2312 38.959 20.2107 42.799 20.2107Z" fill="#989898"/>
<path fill-rule="evenodd" clip-rule="evenodd" d="M40.6759 15.2854C42.1268 15.2854 43.3084 14.5219 43.3084 13.587C43.3084 12.6521 42.1268 11.8886 40.6759 11.8886C39.2251 11.8886 38.0435 12.6506 38.0435 13.587C38.0435 14.5235 39.2374 15.2854 40.6759 15.2854Z" fill="#ACACAC"/>
<path fill-rule="evenodd" clip-rule="evenodd" d="M44.4974 14.2665H44.3977C43.0092 14.2612 41.6311 14.4487 40.3308 14.8201L32.7786 16.9646V23.3548C36.0829 26.2793 39.9363 28.5696 44.4974 30.0613V14.2665Z" fill="#CDCCCC"/>
<path fill-rule="evenodd" clip-rule="evenodd" d="M42.7991 15.2854C42.1973 15.3616 41.6069 15.484 41.0364 15.651L39.5886 16.0678V26.7622C40.6103 27.3513 41.6823 27.8861 42.7971 28.3629V15.2854H42.7991ZM38.9088 16.2638L36.6568 16.9125V24.8458C37.3687 25.37 38.1187 25.8771 38.9088 26.3593V16.2638ZM35.979 17.1069L34.4771 17.5394V23.0865C34.9583 23.5096 35.459 23.9244 35.979 24.3309V17.1069Z" fill="#333333"/>
<path fill-rule="evenodd" clip-rule="evenodd" d="M44.4973 14.2665H44.597C45.982 14.2621 47.3566 14.4496 48.6537 14.82L56.2161 16.963V23.3532C52.9097 26.2793 49.0563 28.5696 44.4973 30.0613V14.2665Z" fill="#B4B4B4"/>
<path fill-rule="evenodd" clip-rule="evenodd" d="M46.1958 15.2854C46.8099 15.3618 47.4126 15.4842 47.9949 15.651L49.4726 16.0678V26.7622C48.4294 27.351 47.3354 27.8857 46.1978 28.3629V15.2854H46.1958ZM50.1665 16.2638L52.4629 16.9125V24.8458C51.7383 25.37 50.9729 25.8771 50.1665 26.3593V16.2638ZM53.1567 17.1069L54.6877 17.5394V23.0865C54.1978 23.5096 53.6875 23.9244 53.1567 24.3309V17.1069Z" fill="#1A1A1A"/>
<path fill-rule="evenodd" clip-rule="evenodd" d="M43.534 8.66174C44.1859 8.66174 44.4984 8.96662 44.2331 9.34109C44.0652 9.54109 43.8242 9.70857 43.5333 9.82751C43.2424 9.94646 42.9113 10.0129 42.5716 10.0204C41.9218 10.0204 41.6092 9.71696 41.8745 9.34109C42.0426 9.14147 42.2833 8.97426 42.5738 8.85535C42.8642 8.73645 43.1948 8.6698 43.534 8.66174Z" fill="#E3E3E3"/>
</g>
</g>
<g clip-path="url(#clip1_459_189)">
<g filter="url(#filter3_d_459_189)">
<path fill-rule="evenodd" clip-rule="evenodd" d="M60.009 47.2835L60.145 47.3539C60.2992 47.4366 60.4708 47.4817 60.6458 47.4855C60.8207 47.4893 60.9941 47.4517 61.1517 47.3757C61.3115 47.3045 61.4523 47.1966 61.5625 47.0608C61.6728 46.925 61.7495 46.7651 61.7864 46.5942C62.0991 45.2279 62.7244 43.5585 63.6139 41.8343C64.5034 40.1101 65.5023 38.6345 66.4277 37.5887C66.5437 37.4584 66.6283 37.3033 66.6751 37.1353C66.722 36.9673 66.7298 36.7908 66.6979 36.6193C66.6661 36.4478 66.5955 36.2859 66.4915 36.1459C66.3875 36.0058 66.2529 35.8914 66.0979 35.8114L65.9603 35.7411L66.5262 34.6469L69.1837 36.0162L71.8413 37.384L71.2754 38.4782L71.1394 38.4078C70.9837 38.3264 70.8113 38.2819 70.6357 38.2777C70.46 38.2736 70.2858 38.31 70.1264 38.3841C69.9671 38.4581 69.827 38.5679 69.7169 38.7049C69.6068 38.8418 69.5298 39.0023 69.4917 39.1738C69.179 40.5384 68.5537 42.2095 67.6643 43.9321C66.7748 45.6547 65.7758 47.1319 64.8504 48.1776C64.7344 48.3081 64.6498 48.4633 64.603 48.6314C64.5561 48.7996 64.5483 48.9762 64.5802 49.1478C64.612 49.3194 64.6826 49.4814 64.7866 49.6216C64.8906 49.7618 65.0252 49.8763 65.1802 49.9565L65.3178 50.0269L64.7519 51.1211L62.0944 49.7533L59.4431 48.3793L60.009 47.2835Z" fill="#CA3927"/>
<path fill-rule="evenodd" clip-rule="evenodd" d="M66.7737 38.234C67.212 38.4627 66.6033 40.5413 65.4123 42.8737C64.2212 45.2061 62.9 46.9135 62.4694 46.6848C62.0388 46.4561 62.6398 44.3775 63.8309 42.0451C65.022 39.7127 66.3354 38.0053 66.7737 38.234Z" fill="#F04B23"/>
<path fill-rule="evenodd" clip-rule="evenodd" d="M86.1075 3.39673L84.6832 11.4454L71.3962 37.1944L67.0857 34.9697L80.3726 9.22067L86.1075 3.39673Z" fill="#D1D2D2"/>
<path fill-rule="evenodd" clip-rule="evenodd" d="M81.808 7.74434L84.0703 6.27113L83.2748 11.0728L71.3318 37.1944L84.6771 11.4454L86.1077 3.39673L81.808 7.74434Z" fill="#E6E6E5"/>
<path fill-rule="evenodd" clip-rule="evenodd" d="M82.3713 10.6997L76.0934 23.5217L69.8139 36.3452L69.1284 35.9964L68.4446 35.6477L75.4079 23.1745L82.3713 10.6997Z" fill="#818181"/>
<path fill-rule="evenodd" clip-rule="evenodd" d="M65.7727 33.4233L73.3723 37.3669C73.7631 37.084 74.2371 36.9418 74.7181 36.9631C75.1991 36.9844 75.659 37.1679 76.0235 37.4842C76.3881 37.8005 76.6361 38.231 76.7275 38.7063C76.819 39.1817 76.7486 39.6742 76.5278 40.1044C76.3069 40.5346 75.9483 40.8774 75.51 41.0776C75.0716 41.2779 74.579 41.3238 74.1115 41.208C73.644 41.0922 73.2289 40.8214 72.9332 40.4394C72.6375 40.0573 72.4783 39.5862 72.4814 39.102L64.8818 35.1585C64.4905 35.4421 64.0157 35.5849 63.5338 35.5639C63.052 35.5428 62.5913 35.3591 62.226 35.0425C61.8607 34.7258 61.6121 34.2946 61.5204 33.8184C61.4286 33.3423 61.4991 32.8489 61.7204 32.4179C61.9417 31.987 62.3009 31.6436 62.74 31.4431C63.1792 31.2426 63.6727 31.1967 64.1409 31.3129C64.6092 31.4291 65.0249 31.7005 65.3209 32.0834C65.617 32.4663 65.7761 32.9383 65.7727 33.4233Z" fill="#333333"/>
</g>
</g>
<g filter="url(#filter4_d_459_189)">
<path d="M29.865 84L28.905 81.768H24.141L23.181 84H22.245L26.013 75.252H27.057L30.837 84H29.865ZM28.557 80.928L26.517 76.2L24.489 80.928H28.557ZM33.1327 76.116V84H32.2207V76.116H29.2927V75.252H36.0607V76.116H33.1327ZM43.0029 80.148H43.9029C43.7829 80.508 43.5909 80.892 43.3269 81.3C43.0549 81.724 42.7629 82.104 42.4509 82.44L43.8069 84H42.7029L41.8509 83.016C41.0189 83.72 40.1909 84.072 39.3669 84.072C38.6709 84.088 38.0789 83.896 37.5909 83.496C37.1109 83.088 36.8749 82.568 36.8829 81.936C36.8829 81.512 37.0189 81.108 37.2909 80.724C37.4349 80.54 37.5829 80.376 37.7349 80.232C37.9909 80.008 38.3429 79.752 38.7909 79.464L38.1549 78.732C37.7469 78.268 37.5429 77.784 37.5429 77.28C37.5349 76.68 37.7629 76.176 38.2269 75.768C38.6989 75.352 39.2349 75.152 39.8349 75.168C40.3949 75.152 40.9029 75.352 41.3589 75.768C41.8229 76.176 42.0509 76.66 42.0429 77.22C42.0429 77.796 41.8509 78.256 41.4669 78.6C41.2749 78.776 41.0509 78.94 40.7949 79.092L39.9909 79.596L41.9349 81.84C42.4229 81.264 42.7789 80.7 43.0029 80.148ZM40.7829 76.332C40.5109 76.084 40.1869 75.96 39.8109 75.96C39.4349 75.96 39.1109 76.084 38.8389 76.332C38.5589 76.596 38.4189 76.912 38.4189 77.28C38.4189 77.52 38.4989 77.764 38.6589 78.012C38.6989 78.068 38.7709 78.172 38.8749 78.324C38.9469 78.412 39.0429 78.52 39.1629 78.648C39.3229 78.824 39.4069 78.916 39.4149 78.924L39.5109 79.032L40.3869 78.504C40.9149 78.184 41.1789 77.772 41.1789 77.268C41.1789 76.908 41.0469 76.596 40.7829 76.332ZM39.4749 83.268C40.0749 83.268 40.6949 82.988 41.3349 82.428L39.2829 80.04C39.2269 80.072 39.1509 80.12 39.0549 80.184C38.9669 80.24 38.9029 80.28 38.8629 80.304C38.7349 80.392 38.6069 80.488 38.4789 80.592C38.3029 80.752 38.1869 80.872 38.1309 80.952C37.9149 81.224 37.8069 81.52 37.8069 81.84C37.8069 82.264 37.9589 82.608 38.2629 82.872C38.5749 83.136 38.9789 83.268 39.4749 83.268ZM47.2773 76.116V84H46.3653V76.116H43.4373V75.252H50.2053V76.116H47.2773ZM53.266 80.004V79.716C53.266 78.564 53.546 77.516 54.106 76.572C54.658 75.62 55.438 74.856 56.446 74.28L56.806 74.844C55.038 75.98 54.154 77.608 54.154 79.728V79.992C54.154 82.096 55.038 83.72 56.806 84.864L56.446 85.452C55.438 84.868 54.658 84.1 54.106 83.148C53.546 82.204 53.266 81.156 53.266 80.004ZM61.1874 76.116V84H60.2754V76.116H57.3474V75.252H64.1154V76.116H61.1874ZM68.1896 79.716V80.004C68.1896 81.164 67.9136 82.216 67.3616 83.16C66.8016 84.104 66.0176 84.868 65.0096 85.452L64.6496 84.864C66.4176 83.72 67.3016 82.096 67.3016 79.992V79.728C67.3016 77.608 66.4176 75.98 64.6496 74.844L65.0096 74.28C66.0176 74.848 66.8016 75.608 67.3616 76.56C67.9136 77.512 68.1896 78.564 68.1896 79.716Z" fill="white"/>
</g>
<defs>
<filter id="filter0_d_459_189" x="3.68604" y="28.4716" width="30.1289" height="34.7573" filterUnits="userSpaceOnUse" color-interpolation-filters="sRGB">
<feFlood flood-opacity="0" result="BackgroundImageFix"/>
<feColorMatrix in="SourceAlpha" type="matrix" values="0 0 0 0 0 0 0 0 0 0 0 0 0 0 0 0 0 0 127 0" result="hardAlpha"/>
<feOffset dy="4"/>
<feGaussianBlur stdDeviation="2"/>
<feComposite in2="hardAlpha" operator="out"/>
<feColorMatrix type="matrix" values="0 0 0 0 0 0 0 0 0 0 0 0 0 0 0 0 0 0 0.25 0"/>
<feBlend mode="normal" in2="BackgroundImageFix" result="effect1_dropShadow_459_189"/>
<feBlend mode="normal" in="SourceGraphic" in2="effect1_dropShadow_459_189" result="shape"/>
</filter>
<filter id="filter1_d_459_189" x="3.68652" y="28.7593" width="23.3093" height="34.4696" filterUnits="userSpaceOnUse" color-interpolation-filters="sRGB">
<feFlood flood-opacity="0" result="BackgroundImageFix"/>
<feColorMatrix in="SourceAlpha" type="matrix" values="0 0 0 0 0 0 0 0 0 0 0 0 0 0 0 0 0 0 127 0" result="hardAlpha"/>
<feOffset dy="4"/>
<feGaussianBlur stdDeviation="2"/>
<feComposite in2="hardAlpha" operator="out"/>
<feColorMatrix type="matrix" values="0 0 0 0 0 0 0 0 0 0 0 0 0 0 0 0 0 0 0.25 0"/>
<feBlend mode="normal" in2="BackgroundImageFix" result="effect1_dropShadow_459_189"/>
<feBlend mode="normal" in="SourceGraphic" in2="effect1_dropShadow_459_189" result="shape"/>
</filter>
<filter id="filter2_d_459_189" x="22.7786" y="-4.98096" width="47.8535" height="49.0422" filterUnits="userSpaceOnUse" color-interpolation-filters="sRGB">
<feFlood flood-opacity="0" result="BackgroundImageFix"/>
<feColorMatrix in="SourceAlpha" type="matrix" values="0 0 0 0 0 0 0 0 0 0 0 0 0 0 0 0 0 0 127 0" result="hardAlpha"/>
<feOffset dy="4"/>
<feGaussianBlur stdDeviation="5"/>
<feComposite in2="hardAlpha" operator="out"/>
<feColorMatrix type="matrix" values="0 0 0 0 0 0 0 0 0 0 0 0 0 0 0 0 0 0 0.5 0"/>
<feBlend mode="normal" in2="BackgroundImageFix" result="effect1_dropShadow_459_189"/>
<feBlend mode="normal" in="SourceGraphic" in2="effect1_dropShadow_459_189" result="shape"/>
</filter>
<filter id="filter3_d_459_189" x="49.4431" y="-2.60327" width="46.6646" height="67.7244" filterUnits="userSpaceOnUse" color-interpolation-filters="sRGB">
<feFlood flood-opacity="0" result="BackgroundImageFix"/>
<feColorMatrix in="SourceAlpha" type="matrix" values="0 0 0 0 0 0 0 0 0 0 0 0 0 0 0 0 0 0 127 0" result="hardAlpha"/>
<feOffset dy="4"/>
<feGaussianBlur stdDeviation="5"/>
<feComposite in2="hardAlpha" operator="out"/>
<feColorMatrix type="matrix" values="0 0 0 0 0 0 0 0 0 0 0 0 0 0 0 0 0 0 0.5 0"/>
<feBlend mode="normal" in2="BackgroundImageFix" result="effect1_dropShadow_459_189"/>
<feBlend mode="normal" in="SourceGraphic" in2="effect1_dropShadow_459_189" result="shape"/>
</filter>
<filter id="filter4_d_459_189" x="20.2449" y="74.28" width="49.9448" height="15.172" filterUnits="userSpaceOnUse" color-interpolation-filters="sRGB">
<feFlood flood-opacity="0" result="BackgroundImageFix"/>
<feColorMatrix in="SourceAlpha" type="matrix" values="0 0 0 0 0 0 0 0 0 0 0 0 0 0 0 0 0 0 127 0" result="hardAlpha"/>
<feOffset dy="2"/>
<feGaussianBlur stdDeviation="1"/>
<feComposite in2="hardAlpha" operator="out"/>
<feColorMatrix type="matrix" values="0 0 0 0 0 0 0 0 0 0 0 0 0 0 0 0 0 0 0.5 0"/>
<feBlend mode="normal" in2="BackgroundImageFix" result="effect1_dropShadow_459_189"/>
<feBlend mode="normal" in="SourceGraphic" in2="effect1_dropShadow_459_189" result="shape"/>
</filter>
<clipPath id="clip0_459_189">
<rect width="30.5708" height="31.8649" fill="white" transform="translate(31.9294)"/>
</clipPath>
<clipPath id="clip1_459_189">
<rect width="28.8843" height="51.8684" fill="white" transform="translate(59.613)"/>
</clipPath>
</defs>
</svg>
