<svg width="89" height="89" viewBox="0 0 89 89" fill="none" xmlns="http://www.w3.org/2000/svg">
<rect x="21.5027" y="24.1279" width="45.9342" height="45.9342" rx="22.9671" fill="#DC1835"/>
<rect x="21.5027" y="24.1279" width="45.9342" height="45.9342" rx="22.9671" stroke="#CDCCCC"/>
<path d="M44.4716 61.0552L48.4112 38.8986C52.1663 38.8986 53.3508 39.3104 53.5218 40.9911C53.5218 40.9911 56.0409 40.0519 57.3114 38.1442C52.3535 35.8468 47.3719 35.7432 47.3719 35.7432L44.465 39.2837L44.4716 39.2833L41.5647 35.7427C41.5647 35.7427 36.583 35.8464 31.6257 38.1438C32.8951 40.0514 35.4152 40.9907 35.4152 40.9907C35.5872 39.3098 36.7702 38.8981 40.5002 38.8954L44.4716 61.0552Z" fill="white"/>
<path d="M44.4699 34.7205C48.4777 34.6899 53.0651 35.3405 57.7612 37.3873C58.3888 36.2575 58.5502 35.7583 58.5502 35.7583C53.4167 33.7273 48.6092 33.0322 44.4694 33.0148C40.3297 33.0322 35.5225 33.7274 30.3896 35.7583C30.3896 35.7583 30.6186 36.3733 31.1781 37.3873C35.8733 35.3405 40.4614 34.6899 44.4694 34.7205H44.4699Z" fill="white"/>
<g filter="url(#filter0_d_183_3151)">
<path d="M22.9946 55.2288L23.606 54.4472C26.9583 50.1445 31.129 44.7916 29.4179 37.6186L27.7876 30.7841L26.5815 31.0718C22.2268 32.1106 18.4894 30.9927 17.888 28.4716L15.4759 29.047C16.0773 31.5681 13.2469 34.2527 8.89223 35.2914L7.68612 35.5792L9.31645 42.4136C11.0275 49.5866 17.1655 52.4805 22.0973 54.8059L22.9946 55.2288Z" fill="#D84025"/>
</g>
<g filter="url(#filter1_d_183_3151)">
<path d="M8.89215 35.2915C13.2469 34.2527 16.0772 31.5682 15.4758 29.047L16.6819 28.7593L22.9957 55.2274L22.9945 55.2289L22.0972 54.8059C17.1654 52.4806 11.0275 49.5868 9.31637 42.4137L7.68605 35.5792L8.89215 35.2915Z" fill="#A13023"/>
</g>
<g clip-path="url(#clip0_183_3151)">
<g filter="url(#filter2_d_183_3151)">
<path fill-rule="evenodd" clip-rule="evenodd" d="M54.4432 22.5884C54.7525 23.844 55.0604 25.0986 55.3669 26.3521C52.5427 27.9684 48.9768 28.8709 44.4973 28.8724V23.689L54.4432 22.5884Z" fill="#535353"/>
<path fill-rule="evenodd" clip-rule="evenodd" d="M34.5595 22.5884C34.2462 23.844 33.9356 25.0986 33.6277 26.3521C36.458 27.9684 40.0158 28.8709 44.4973 28.8724V23.689L34.5595 22.5884Z" fill="#676767"/>
<path fill-rule="evenodd" clip-rule="evenodd" d="M42.274 9.0759C35.8214 3.36948 48.0226 3.91021 51.4611 1.01904C51.7038 1.26047 51.8477 1.55073 51.8749 1.85375C51.9021 2.15677 51.8114 2.45917 51.6141 2.72338C53.1405 3.67161 55.824 2.37786 57.279 4.1953C55.6302 4.12403 54.6261 4.61829 54.0139 5.27988C58.5361 4.75618 56.7668 7.94329 60.6318 8.12302C57.7524 9.34239 50.9897 7.00126 46.8084 9.8506C44.9208 9.79792 44.1616 9.13323 42.274 9.0759Z" fill="#A23023"/>
<path fill-rule="evenodd" clip-rule="evenodd" d="M60.6299 8.0703C57.7798 9.32968 51.0665 6.93003 46.9158 9.85058C46.1434 9.81775 45.3835 9.6841 44.6672 9.45514C50.0962 4.6606 54.9134 8.91676 60.632 8.0703H60.6299Z" fill="#1A1A1A"/>
<path fill-rule="evenodd" clip-rule="evenodd" d="M42.651 8.59114C43.3961 8.64919 44.127 8.78313 44.8231 8.9892L44.8723 9.0014C44.6291 8.72992 44.3901 8.45845 44.1551 8.18697C42.0198 6.3705 46.5137 4.22155 49.2392 3.78078C50.2208 4.41524 51.7331 4.11479 52.5077 4.56013C51.8396 5.10004 51.4257 6.03344 50.7556 6.57335C58.4074 5.79857 54.9217 7.64096 58.5939 7.99785C58.3467 7.87286 58.1222 7.72472 57.9258 7.55708C56.6963 6.51234 56.8787 5.37152 54.1983 5.67655L52.7065 5.84585C52.9701 5.57335 53.2358 5.30136 53.5036 5.02988C54.1079 4.39931 55.0174 3.9679 56.0405 3.82653C55.8007 3.72209 55.5365 3.65224 55.2618 3.62064C55 3.59114 54.7357 3.57534 54.4708 3.57336C53.2782 3.552 52.1409 3.62216 51.1921 3.05175L50.8396 2.8367C50.9093 2.74214 50.981 2.64911 51.0446 2.55607C51.2032 2.34726 51.2698 2.1067 51.2351 1.86823C50.0056 2.56217 48.3048 3.02887 46.8478 3.41626C45.6941 3.7213 44.483 4.02633 43.3887 4.40609C42.6161 4.67757 41.7493 5.05429 41.3395 5.56979C40.5956 6.53064 41.7452 7.77975 42.651 8.59114Z" fill="#EF4123"/>
<path fill-rule="evenodd" clip-rule="evenodd" d="M43.7258 8.71744C44.1135 8.79334 44.4959 8.88402 44.8714 8.98912L44.9204 9.0014C44.6781 8.72818 44.4398 8.45496 44.2057 8.18175C42.0779 6.35365 46.5561 4.19094 49.272 3.74734C50.2501 4.38587 51.7571 4.08349 52.529 4.53169C51.8633 5.07505 51.4508 6.01443 50.7831 6.55779C58.4081 5.77805 54.9346 7.63224 58.5939 7.99142C56.6887 7.61843 56.7234 6.27076 55.6411 5.94689C54.5588 5.62302 53.1294 6.369 52.0389 6.04513C52.1533 5.42041 52.6699 4.91235 53.4214 4.13721C52.3779 3.66292 49.7457 4.08656 50.293 2.71741C47.9508 4.65909 40.4055 3.85479 43.2684 8.55013L43.7258 8.71744Z" fill="#D03927"/>
<path d="M44.4123 12.7378C46.3352 12.7378 47.894 11.7113 47.894 10.445C47.894 9.17875 46.3352 8.15222 44.4123 8.15222C42.4895 8.15222 40.9307 9.17875 40.9307 10.445C40.9307 11.7113 42.4895 12.7378 44.4123 12.7378Z" fill="#CDCCCC"/>
<path fill-rule="evenodd" clip-rule="evenodd" d="M44.4279 10.53C48.7929 10.53 52.5226 12.2606 54.0145 14.7018C54.8158 14.9591 55.3671 15.489 55.3671 16.0954C55.363 16.2971 55.3022 16.4958 55.1885 16.6787C55.0748 16.8615 54.9108 17.0244 54.7072 17.1568C54.6334 20.7267 50.0594 23.6075 44.4279 23.6075C38.7964 23.6075 34.2388 20.7328 34.1527 17.1721C33.94 17.0393 33.7679 16.8739 33.648 16.6871C33.5282 16.5003 33.4634 16.2964 33.458 16.0893C33.458 15.4767 34.0277 14.9361 34.8474 14.6834C36.3455 12.2483 40.069 10.53 44.4279 10.53Z" fill="#8B8A8A"/>
<path fill-rule="evenodd" clip-rule="evenodd" d="M42.799 20.2107C46.6371 20.2107 49.7624 18.2312 49.7624 15.7949C49.7624 13.3586 46.6309 11.3792 42.799 11.3792C38.9671 11.3792 35.8357 13.3586 35.8357 15.7949C35.8357 18.2312 38.959 20.2107 42.799 20.2107Z" fill="#989898"/>
<path fill-rule="evenodd" clip-rule="evenodd" d="M40.6759 15.2854C42.1268 15.2854 43.3084 14.5219 43.3084 13.587C43.3084 12.6522 42.1268 11.8887 40.6759 11.8887C39.2251 11.8887 38.0435 12.6506 38.0435 13.587C38.0435 14.5235 39.2374 15.2854 40.6759 15.2854Z" fill="#ACACAC"/>
<path fill-rule="evenodd" clip-rule="evenodd" d="M44.4974 14.2665H44.3977C43.0092 14.2611 41.6311 14.4487 40.3308 14.82L32.7786 16.9646V23.3547C36.0829 26.2792 39.9363 28.5695 44.4974 30.0613V14.2665Z" fill="#CDCCCC"/>
<path fill-rule="evenodd" clip-rule="evenodd" d="M42.7991 15.2854C42.1973 15.3616 41.6069 15.484 41.0364 15.651L39.5886 16.0678V26.7622C40.6103 27.3513 41.6823 27.8861 42.7971 28.3629V15.2854H42.7991ZM38.9088 16.2638L36.6568 16.9125V24.8458C37.3687 25.37 38.1187 25.8771 38.9088 26.3593V16.2638ZM35.979 17.1069L34.4771 17.5394V23.0865C34.9583 23.5096 35.459 23.9244 35.979 24.3309V17.1069Z" fill="#333333"/>
<path fill-rule="evenodd" clip-rule="evenodd" d="M44.4973 14.2664H44.597C45.982 14.262 47.3566 14.4496 48.6537 14.82L56.2161 16.963V23.3532C52.9097 26.2792 49.0563 28.5695 44.4973 30.0613V14.2664Z" fill="#B4B4B4"/>
<path fill-rule="evenodd" clip-rule="evenodd" d="M46.1958 15.2854C46.8099 15.3618 47.4126 15.4842 47.9949 15.651L49.4726 16.0678V26.7622C48.4294 27.351 47.3354 27.8857 46.1978 28.3629V15.2854H46.1958ZM50.1665 16.2638L52.4629 16.9125V24.8458C51.7383 25.37 50.9729 25.8771 50.1665 26.3593V16.2638ZM53.1567 17.1069L54.6877 17.5394V23.0865C54.1978 23.5096 53.6875 23.9244 53.1567 24.3309V17.1069Z" fill="#1A1A1A"/>
<path fill-rule="evenodd" clip-rule="evenodd" d="M43.534 8.66174C44.1859 8.66174 44.4984 8.96662 44.2331 9.34109C44.0652 9.54109 43.8242 9.70857 43.5333 9.82751C43.2424 9.94646 42.9113 10.0129 42.5716 10.0204C41.9218 10.0204 41.6092 9.71696 41.8745 9.34109C42.0426 9.14147 42.2833 8.97426 42.5738 8.85535C42.8642 8.73645 43.1948 8.6698 43.534 8.66174Z" fill="#E3E3E3"/>
</g>
</g>
<g clip-path="url(#clip1_183_3151)">
<g filter="url(#filter3_d_183_3151)">
<path fill-rule="evenodd" clip-rule="evenodd" d="M60.009 47.2835L60.145 47.3539C60.2992 47.4366 60.4708 47.4817 60.6458 47.4855C60.8207 47.4893 60.9941 47.4517 61.1517 47.3757C61.3115 47.3045 61.4523 47.1966 61.5625 47.0608C61.6728 46.925 61.7495 46.7651 61.7864 46.5942C62.0991 45.2279 62.7244 43.5585 63.6139 41.8343C64.5034 40.1101 65.5023 38.6345 66.4277 37.5887C66.5437 37.4584 66.6283 37.3033 66.6751 37.1353C66.722 36.9673 66.7298 36.7908 66.6979 36.6193C66.6661 36.4478 66.5955 36.2859 66.4915 36.1459C66.3875 36.0058 66.2529 35.8914 66.0979 35.8114L65.9603 35.7411L66.5262 34.6469L69.1837 36.0162L71.8413 37.384L71.2754 38.4782L71.1394 38.4078C70.9837 38.3264 70.8113 38.2819 70.6357 38.2777C70.46 38.2736 70.2858 38.31 70.1264 38.3841C69.9671 38.4581 69.827 38.5679 69.7169 38.7049C69.6068 38.8418 69.5298 39.0023 69.4917 39.1738C69.179 40.5384 68.5537 42.2095 67.6643 43.9321C66.7748 45.6547 65.7758 47.1319 64.8504 48.1776C64.7344 48.3081 64.6498 48.4633 64.603 48.6314C64.5561 48.7996 64.5483 48.9762 64.5802 49.1478C64.612 49.3194 64.6826 49.4814 64.7866 49.6216C64.8906 49.7618 65.0252 49.8763 65.1802 49.9565L65.3178 50.0269L64.7519 51.1211L62.0944 49.7533L59.4431 48.3793L60.009 47.2835Z" fill="#CA3927"/>
<path fill-rule="evenodd" clip-rule="evenodd" d="M66.7737 38.234C67.212 38.4627 66.6033 40.5413 65.4123 42.8737C64.2212 45.2061 62.9 46.9135 62.4694 46.6848C62.0388 46.4561 62.6398 44.3775 63.8309 42.0451C65.022 39.7127 66.3354 38.0053 66.7737 38.234Z" fill="#F04B23"/>
<path fill-rule="evenodd" clip-rule="evenodd" d="M86.1075 3.39673L84.6832 11.4454L71.3962 37.1944L67.0857 34.9697L80.3726 9.22067L86.1075 3.39673Z" fill="#D1D2D2"/>
<path fill-rule="evenodd" clip-rule="evenodd" d="M81.808 7.74434L84.0703 6.27113L83.2748 11.0728L71.3318 37.1944L84.6771 11.4454L86.1077 3.39673L81.808 7.74434Z" fill="#E6E6E5"/>
<path fill-rule="evenodd" clip-rule="evenodd" d="M82.3713 10.6998L76.0934 23.5217L69.8139 36.3452L69.1284 35.9965L68.4446 35.6477L75.4079 23.1745L82.3713 10.6998Z" fill="#818181"/>
<path fill-rule="evenodd" clip-rule="evenodd" d="M65.7727 33.4234L73.3723 37.3669C73.7631 37.0841 74.2371 36.9418 74.7181 36.9631C75.1991 36.9844 75.659 37.168 76.0235 37.4842C76.3881 37.8005 76.6361 38.231 76.7275 38.7064C76.819 39.1817 76.7486 39.6742 76.5278 40.1044C76.3069 40.5346 75.9483 40.8775 75.51 41.0777C75.0716 41.2779 74.579 41.3238 74.1115 41.208C73.644 41.0922 73.2289 40.8214 72.9332 40.4394C72.6375 40.0573 72.4783 39.5862 72.4814 39.1021L64.8818 35.1585C64.4905 35.4422 64.0157 35.585 63.5338 35.5639C63.052 35.5429 62.5913 35.3592 62.226 35.0425C61.8607 34.7258 61.6121 34.2946 61.5204 33.8185C61.4286 33.3423 61.4991 32.8489 61.7204 32.418C61.9417 31.987 62.3009 31.6436 62.74 31.4431C63.1792 31.2426 63.6727 31.1968 64.1409 31.3129C64.6092 31.4291 65.0249 31.7005 65.3209 32.0834C65.617 32.4663 65.7761 32.9384 65.7727 33.4234Z" fill="#333333"/>
</g>
</g>
<g filter="url(#filter4_d_183_3151)">
<path d="M15.6109 75.625V83.509H14.6989V75.625H11.7709V74.761H18.5389V75.625H15.6109ZM22.5055 80.797H17.6815C17.7135 81.381 17.9335 81.865 18.3415 82.249C18.7415 82.641 19.2335 82.837 19.8175 82.837C20.2735 82.837 20.6615 82.729 20.9815 82.513C21.3015 82.289 21.5295 81.973 21.6655 81.565L22.4335 81.805C22.2655 82.365 21.9415 82.809 21.4615 83.137C20.9655 83.457 20.4215 83.617 19.8295 83.617C19.2695 83.617 18.7535 83.477 18.2815 83.197C17.8095 82.917 17.4495 82.541 17.2015 82.069C16.9375 81.605 16.8055 81.089 16.8055 80.521C16.8055 79.977 16.9295 79.473 17.1775 79.009C17.4095 78.537 17.7575 78.157 18.2215 77.869C18.6695 77.581 19.1655 77.437 19.7095 77.437C20.3095 77.437 20.8215 77.573 21.2455 77.845C21.6775 78.109 21.9975 78.473 22.2055 78.937C22.4135 79.377 22.5175 79.901 22.5175 80.509C22.5175 80.613 22.5135 80.709 22.5055 80.797ZM17.6935 80.053H21.6415C21.5855 79.509 21.3855 79.061 21.0415 78.709C20.7055 78.373 20.2615 78.205 19.7095 78.205C19.2055 78.205 18.7615 78.385 18.3775 78.745C17.9935 79.121 17.7655 79.557 17.6935 80.053ZM27.9587 81.817C27.9587 82.353 27.7547 82.781 27.3467 83.101C26.9387 83.437 26.4387 83.605 25.8467 83.605C24.9747 83.605 24.3387 83.317 23.9387 82.741C23.7387 82.469 23.6187 82.165 23.5787 81.829L24.3707 81.625C24.4267 81.953 24.5747 82.241 24.8147 82.489C25.0627 82.729 25.4027 82.849 25.8347 82.849C26.1627 82.849 26.4547 82.757 26.7107 82.573C26.9507 82.405 27.0707 82.169 27.0707 81.865C27.0707 81.625 26.9747 81.433 26.7827 81.289C26.6067 81.145 26.3787 81.041 26.0987 80.977L25.1867 80.773C24.1947 80.557 23.6987 80.037 23.6987 79.213C23.6987 78.597 23.9467 78.137 24.4427 77.833C24.8667 77.569 25.2947 77.437 25.7267 77.437C26.5427 77.445 27.1387 77.709 27.5147 78.229C27.6987 78.493 27.8187 78.761 27.8747 79.033L27.0827 79.261C27.0267 79.029 26.9107 78.805 26.7347 78.589C26.5187 78.333 26.1827 78.205 25.7267 78.205C25.3987 78.205 25.1267 78.297 24.9107 78.481C24.6867 78.657 24.5747 78.881 24.5747 79.153C24.5747 79.553 24.8627 79.825 25.4387 79.969L26.3987 80.185C26.8387 80.289 27.2067 80.477 27.5027 80.749C27.8067 81.021 27.9587 81.377 27.9587 81.817ZM29.5071 83.509V74.401H30.3831V83.509H29.5071ZM34.2987 80.065H35.9547V79.669C35.9547 78.701 35.4467 78.217 34.4307 78.217C33.9427 78.217 33.5667 78.349 33.3027 78.613C33.0627 78.853 32.9187 79.125 32.8707 79.429L32.0307 79.249C32.0387 79.081 32.1187 78.869 32.2707 78.613C32.4227 78.357 32.6227 78.129 32.8707 77.929C33.2947 77.601 33.8227 77.437 34.4547 77.437C35.5427 77.437 36.2667 77.849 36.6267 78.673C36.7467 78.953 36.8067 79.281 36.8067 79.657V81.337C36.8067 82.313 36.8387 83.037 36.9027 83.509H36.0387C35.9827 83.205 35.9547 82.857 35.9547 82.465C35.4507 83.233 34.7787 83.617 33.9387 83.617C33.3387 83.617 32.8587 83.449 32.4987 83.113C32.1227 82.785 31.9347 82.365 31.9347 81.853V81.793C31.9347 81.201 32.1707 80.765 32.6427 80.485C33.1227 80.205 33.6747 80.065 34.2987 80.065ZM35.9547 80.989V80.785H34.2867C33.9187 80.785 33.5947 80.853 33.3147 80.989C32.9787 81.133 32.8107 81.397 32.8107 81.781C32.8107 82.109 32.9347 82.369 33.1827 82.561C33.4227 82.753 33.7267 82.849 34.0947 82.849C34.6147 82.849 35.0587 82.673 35.4267 82.321C35.7787 81.985 35.9547 81.541 35.9547 80.989ZM41.4395 79.513V79.225C41.4395 78.073 41.7195 77.025 42.2795 76.081C42.8315 75.129 43.6115 74.365 44.6195 73.789L44.9795 74.353C43.2115 75.489 42.3275 77.117 42.3275 79.237V79.501C42.3275 81.605 43.2115 83.229 44.9795 84.373L44.6195 84.961C43.6115 84.377 42.8315 83.609 42.2795 82.657C41.7195 81.713 41.4395 80.665 41.4395 79.513ZM49.3609 75.625V83.509H48.4489V75.625H45.5209V74.761H52.2889V75.625H49.3609ZM55.9013 83.593C55.0533 83.593 54.3413 83.337 53.7653 82.825C53.2053 82.337 52.8853 81.769 52.8053 81.121L53.6693 80.881C53.7653 81.393 54.0293 81.829 54.4613 82.189C54.8853 82.549 55.3653 82.729 55.9013 82.729C56.4373 82.729 56.8853 82.601 57.2453 82.345C57.6533 82.065 57.8573 81.661 57.8573 81.133C57.8573 80.589 57.6133 80.173 57.1253 79.885C56.9013 79.749 56.6253 79.649 56.2973 79.585L55.1453 79.357C54.9133 79.309 54.6573 79.225 54.3773 79.105C54.0893 78.969 53.8493 78.805 53.6573 78.613C53.2493 78.213 53.0453 77.709 53.0453 77.101C53.0453 76.621 53.1773 76.193 53.4413 75.817C53.6973 75.449 54.0373 75.161 54.4613 74.953C54.8773 74.761 55.3293 74.665 55.8173 74.665C56.6733 74.665 57.3413 74.877 57.8213 75.301C58.3093 75.725 58.6053 76.213 58.7093 76.765L57.8693 77.029C57.7813 76.637 57.5653 76.289 57.2213 75.985C56.8853 75.673 56.4133 75.517 55.8053 75.517C55.3253 75.501 54.8973 75.645 54.5213 75.949C54.1453 76.253 53.9613 76.625 53.9693 77.065C53.9693 77.409 54.0773 77.705 54.2933 77.953C54.5093 78.201 54.8253 78.365 55.2413 78.445L56.3453 78.661C57.1053 78.805 57.6733 79.061 58.0493 79.429C58.3053 79.661 58.4973 79.929 58.6253 80.233C58.7453 80.529 58.8053 80.797 58.8053 81.037C58.8133 81.797 58.5373 82.417 57.9773 82.897C57.4173 83.377 56.7253 83.609 55.9013 83.593ZM60.6374 83.509V74.761H61.5614V82.645H65.7134V83.509H60.6374ZM73.597 83.509L72.637 81.277H67.873L66.913 83.509H65.977L69.745 74.761H70.789L74.569 83.509H73.597ZM72.289 80.437L70.249 75.709L68.221 80.437H72.289ZM78.4412 79.225V79.513C78.4412 80.673 78.1652 81.725 77.6132 82.669C77.0532 83.613 76.2692 84.377 75.2612 84.961L74.9012 84.373C76.6692 83.229 77.5532 81.605 77.5532 79.501V79.237C77.5532 77.117 76.6692 75.489 74.9012 74.353L75.2612 73.789C76.2692 74.357 77.0532 75.117 77.6132 76.069C78.1652 77.021 78.4412 78.073 78.4412 79.225Z" fill="white"/>
</g>
<defs>
<filter id="filter0_d_183_3151" x="3.68604" y="28.4716" width="30.1289" height="34.7572" filterUnits="userSpaceOnUse" color-interpolation-filters="sRGB">
<feFlood flood-opacity="0" result="BackgroundImageFix"/>
<feColorMatrix in="SourceAlpha" type="matrix" values="0 0 0 0 0 0 0 0 0 0 0 0 0 0 0 0 0 0 127 0" result="hardAlpha"/>
<feOffset dy="4"/>
<feGaussianBlur stdDeviation="2"/>
<feComposite in2="hardAlpha" operator="out"/>
<feColorMatrix type="matrix" values="0 0 0 0 0 0 0 0 0 0 0 0 0 0 0 0 0 0 0.25 0"/>
<feBlend mode="normal" in2="BackgroundImageFix" result="effect1_dropShadow_183_3151"/>
<feBlend mode="normal" in="SourceGraphic" in2="effect1_dropShadow_183_3151" result="shape"/>
</filter>
<filter id="filter1_d_183_3151" x="3.68604" y="28.7593" width="23.3096" height="34.4695" filterUnits="userSpaceOnUse" color-interpolation-filters="sRGB">
<feFlood flood-opacity="0" result="BackgroundImageFix"/>
<feColorMatrix in="SourceAlpha" type="matrix" values="0 0 0 0 0 0 0 0 0 0 0 0 0 0 0 0 0 0 127 0" result="hardAlpha"/>
<feOffset dy="4"/>
<feGaussianBlur stdDeviation="2"/>
<feComposite in2="hardAlpha" operator="out"/>
<feColorMatrix type="matrix" values="0 0 0 0 0 0 0 0 0 0 0 0 0 0 0 0 0 0 0.25 0"/>
<feBlend mode="normal" in2="BackgroundImageFix" result="effect1_dropShadow_183_3151"/>
<feBlend mode="normal" in="SourceGraphic" in2="effect1_dropShadow_183_3151" result="shape"/>
</filter>
<filter id="filter2_d_183_3151" x="22.7786" y="-4.98096" width="47.8535" height="49.0422" filterUnits="userSpaceOnUse" color-interpolation-filters="sRGB">
<feFlood flood-opacity="0" result="BackgroundImageFix"/>
<feColorMatrix in="SourceAlpha" type="matrix" values="0 0 0 0 0 0 0 0 0 0 0 0 0 0 0 0 0 0 127 0" result="hardAlpha"/>
<feOffset dy="4"/>
<feGaussianBlur stdDeviation="5"/>
<feComposite in2="hardAlpha" operator="out"/>
<feColorMatrix type="matrix" values="0 0 0 0 0 0 0 0 0 0 0 0 0 0 0 0 0 0 0.5 0"/>
<feBlend mode="normal" in2="BackgroundImageFix" result="effect1_dropShadow_183_3151"/>
<feBlend mode="normal" in="SourceGraphic" in2="effect1_dropShadow_183_3151" result="shape"/>
</filter>
<filter id="filter3_d_183_3151" x="49.4431" y="-2.60327" width="46.6646" height="67.7244" filterUnits="userSpaceOnUse" color-interpolation-filters="sRGB">
<feFlood flood-opacity="0" result="BackgroundImageFix"/>
<feColorMatrix in="SourceAlpha" type="matrix" values="0 0 0 0 0 0 0 0 0 0 0 0 0 0 0 0 0 0 127 0" result="hardAlpha"/>
<feOffset dy="4"/>
<feGaussianBlur stdDeviation="5"/>
<feComposite in2="hardAlpha" operator="out"/>
<feColorMatrix type="matrix" values="0 0 0 0 0 0 0 0 0 0 0 0 0 0 0 0 0 0 0.5 0"/>
<feBlend mode="normal" in2="BackgroundImageFix" result="effect1_dropShadow_183_3151"/>
<feBlend mode="normal" in="SourceGraphic" in2="effect1_dropShadow_183_3151" result="shape"/>
</filter>
<filter id="filter4_d_183_3151" x="9.771" y="73.7891" width="70.6702" height="15.172" filterUnits="userSpaceOnUse" color-interpolation-filters="sRGB">
<feFlood flood-opacity="0" result="BackgroundImageFix"/>
<feColorMatrix in="SourceAlpha" type="matrix" values="0 0 0 0 0 0 0 0 0 0 0 0 0 0 0 0 0 0 127 0" result="hardAlpha"/>
<feOffset dy="2"/>
<feGaussianBlur stdDeviation="1"/>
<feComposite in2="hardAlpha" operator="out"/>
<feColorMatrix type="matrix" values="0 0 0 0 0 0 0 0 0 0 0 0 0 0 0 0 0 0 0.5 0"/>
<feBlend mode="normal" in2="BackgroundImageFix" result="effect1_dropShadow_183_3151"/>
<feBlend mode="normal" in="SourceGraphic" in2="effect1_dropShadow_183_3151" result="shape"/>
</filter>
<clipPath id="clip0_183_3151">
<rect width="30.5708" height="31.8649" fill="white" transform="translate(31.9294)"/>
</clipPath>
<clipPath id="clip1_183_3151">
<rect width="28.8843" height="51.8684" fill="white" transform="translate(59.613)"/>
</clipPath>
</defs>
</svg>
