<svg width="90" height="89" viewBox="0 0 90 89" fill="none" xmlns="http://www.w3.org/2000/svg">
<rect x="21.5801" y="24.1279" width="45.9342" height="45.9342" rx="22.9671" fill="black"/>
<rect x="21.5801" y="24.1279" width="45.9342" height="45.9342" rx="22.9671" stroke="#CDCCCC"/>
<path fill-rule="evenodd" clip-rule="evenodd" d="M40.4124 34.5792H32.0312L41.9683 47.7048L32.6669 58.7155H36.9644L43.9994 50.3877L50.2462 58.6389H58.6273L48.4015 45.1319L48.4197 45.1552L57.2242 34.7325H52.9267L46.3882 42.4726L40.4124 34.5792ZM36.6575 36.8779H39.2667L54.0011 56.3402H51.3919L36.6575 36.8779Z" fill="white"/>
<g clip-path="url(#clip0_183_2873)">
<g filter="url(#filter0_d_183_2873)">
<path d="M66.9178 55.4018L66.3041 54.6172C62.939 50.2981 58.7525 44.9249 60.4701 37.7246L62.1066 30.8641L63.3173 31.1529C67.6886 32.1956 71.4401 31.0735 72.0438 28.5428L74.4652 29.1204C73.8615 31.6511 76.7026 34.3459 81.0738 35.3886L82.2845 35.6774L80.648 42.5379C78.9304 49.7382 72.7691 52.6431 67.8185 54.9772L66.9178 55.4018Z" fill="#7AB9E8"/>
</g>
<g filter="url(#filter1_d_183_2873)">
<path d="M81.0738 35.3886C76.7025 34.3459 73.8614 31.6511 74.4651 29.1204L73.2544 28.8316L66.9166 55.4004L66.9178 55.4019L67.8185 54.9772C72.769 52.6431 78.9303 49.7383 80.6479 42.5379L82.2845 35.6774L81.0738 35.3886Z" fill="#579ADF"/>
</g>
</g>
<g clip-path="url(#clip1_183_2873)">
<g filter="url(#filter2_d_183_2873)">
<path fill-rule="evenodd" clip-rule="evenodd" d="M35.1481 22.6743C34.8376 23.9347 34.5286 25.194 34.2209 26.4523C37.0558 28.0747 40.6353 28.9807 45.1318 28.9822V23.779L35.1481 22.6743Z" fill="#535353"/>
<path fill-rule="evenodd" clip-rule="evenodd" d="M55.1071 22.6743C55.4216 23.9347 55.7334 25.194 56.0425 26.4523C53.2014 28.0747 49.6301 28.9807 45.1315 28.9822V23.779L55.1071 22.6743Z" fill="#676767"/>
<path fill-rule="evenodd" clip-rule="evenodd" d="M47.3632 9.1104C53.8403 3.38226 41.5928 3.92506 38.1412 1.02289C37.8976 1.26523 37.7531 1.5566 37.7258 1.86077C37.6985 2.16494 37.7895 2.4685 37.9876 2.73371C36.4554 3.68554 33.7617 2.38688 32.3011 4.21123C33.9563 4.13969 34.9641 4.63583 35.5786 5.29994C31.0393 4.77425 32.8153 7.97348 28.9356 8.15389C31.8259 9.37791 38.6144 7.02786 42.8116 9.88804C44.7064 9.83516 45.4684 9.16794 47.3632 9.1104Z" fill="#1B2241"/>
<path fill-rule="evenodd" clip-rule="evenodd" d="M28.9375 8.10096C31.7985 9.36513 38.5373 6.95635 42.7038 9.88802C43.4791 9.85506 44.242 9.7209 44.9609 9.49107C39.5113 4.67829 34.6758 8.95065 28.9355 8.10096H28.9375Z" fill="#1A1A1A"/>
<path fill-rule="evenodd" clip-rule="evenodd" d="M46.9852 8.62379C46.2373 8.68206 45.5036 8.81651 44.8048 9.02337L44.7554 9.03562C44.9995 8.76311 45.2395 8.4906 45.4754 8.21809C47.6188 6.39471 43.1078 4.23758 40.3719 3.79513C39.3866 4.43201 37.8686 4.13041 37.091 4.57746C37.7616 5.11942 38.1771 6.05637 38.8497 6.59833C31.1689 5.8206 34.6678 7.67 30.9817 8.02825C31.2298 7.90278 31.4552 7.75408 31.6523 7.5858C32.8865 6.53709 32.7034 5.39193 35.394 5.69812L36.8915 5.86806C36.6268 5.59453 36.3601 5.3215 36.0913 5.04899C35.4847 4.41602 34.5718 3.98297 33.5447 3.84106C33.7855 3.73622 34.0507 3.6661 34.3264 3.63438C34.5892 3.60477 34.8546 3.58891 35.1204 3.58692C36.3176 3.56549 37.4592 3.63591 38.4116 3.06333L38.7654 2.84747C38.6955 2.75255 38.6235 2.65916 38.5597 2.56577C38.4005 2.35617 38.3336 2.11469 38.3684 1.87531C39.6026 2.57189 41.3099 3.04037 42.7725 3.42923C43.9306 3.73543 45.1463 4.04162 46.2447 4.42283C47.0202 4.69534 47.8903 5.07349 48.3017 5.59095C49.0484 6.55546 47.8944 7.80932 46.9852 8.62379Z" fill="#4386BB"/>
<path fill-rule="evenodd" clip-rule="evenodd" d="M45.906 8.75058C45.5168 8.82677 45.133 8.9178 44.7561 9.02329L44.7069 9.03562C44.9501 8.76136 45.1893 8.48711 45.4243 8.21285C47.5602 6.3778 43.065 4.20686 40.3387 3.76158C39.3569 4.40254 37.8441 4.099 37.0693 4.54891C37.7375 5.09434 38.1516 6.03729 38.8219 6.58272C31.1679 5.80001 34.6546 7.66126 30.9814 8.02179C32.8938 7.64739 32.859 6.2946 33.9454 5.96949C35.0318 5.64439 36.4667 6.3932 37.5612 6.0681C37.4465 5.44101 36.9279 4.93102 36.1735 4.15293C37.221 3.67683 39.8632 4.10209 39.3138 2.72772C41.665 4.67679 49.239 3.86943 46.3652 8.58263L45.906 8.75058Z" fill="#283A84"/>
<path d="M45.217 12.7863C43.2868 12.7863 41.7221 11.7559 41.7221 10.4848C41.7221 9.21366 43.2868 8.18323 45.217 8.18323C47.1472 8.18323 48.7119 9.21366 48.7119 10.4848C48.7119 11.7559 47.1472 12.7863 45.217 12.7863Z" fill="#CDCCCC"/>
<path fill-rule="evenodd" clip-rule="evenodd" d="M45.2013 10.5699C40.8197 10.5699 37.0757 12.3071 35.5782 14.7576C34.7739 15.0159 34.2205 15.5478 34.2205 16.1566C34.2245 16.359 34.2856 16.5585 34.3998 16.742C34.5139 16.9256 34.6785 17.0891 34.8829 17.222C34.9569 20.8055 39.5484 23.6972 45.2013 23.6972C50.8542 23.6972 55.4291 20.8116 55.5155 17.2373C55.7291 17.104 55.9019 16.938 56.0222 16.7505C56.1425 16.563 56.2075 16.3584 56.2129 16.1504C56.2129 15.5355 55.641 14.9928 54.8182 14.7392C53.3144 12.2948 49.5767 10.5699 45.2013 10.5699Z" fill="#8B8A8A"/>
<path fill-rule="evenodd" clip-rule="evenodd" d="M46.8363 20.2875C42.9837 20.2875 39.8465 18.3005 39.8465 15.8549C39.8465 13.4094 42.9899 11.4224 46.8363 11.4224C50.6828 11.4224 53.8262 13.4094 53.8262 15.8549C53.8262 18.3005 50.691 20.2875 46.8363 20.2875Z" fill="#989898"/>
<path fill-rule="evenodd" clip-rule="evenodd" d="M48.9674 15.3435C47.511 15.3435 46.3249 14.5771 46.3249 13.6387C46.3249 12.7002 47.511 11.9338 48.9674 11.9338C50.4237 11.9338 51.6099 12.6987 51.6099 13.6387C51.6099 14.5787 50.4114 15.3435 48.9674 15.3435Z" fill="#ACACAC"/>
<path fill-rule="evenodd" clip-rule="evenodd" d="M45.1316 14.3207H45.2317C46.6254 14.3154 48.0088 14.5037 49.314 14.8764L56.895 17.0291V23.4436C53.5781 26.3792 49.71 28.6782 45.1316 30.1756V14.3207Z" fill="#CDCCCC"/>
<path fill-rule="evenodd" clip-rule="evenodd" d="M46.8362 15.3435C47.4403 15.4199 48.033 15.5429 48.6056 15.7105L50.059 16.1289V26.864C49.0333 27.4553 47.9573 27.9921 46.8383 28.4707V15.3435H46.8362ZM50.7413 16.3257L53.0019 16.9768V24.9403C52.2873 25.4665 51.5344 25.9755 50.7413 26.4596V16.3257ZM53.6822 17.172L55.1899 17.6061V23.1743C54.7068 23.599 54.2043 24.0154 53.6822 24.4234V17.172Z" fill="#333333"/>
<path fill-rule="evenodd" clip-rule="evenodd" d="M45.1318 14.3207H45.0318C43.6415 14.3163 42.2617 14.5046 40.9596 14.8764L33.3685 17.0275V23.442C36.6874 26.3792 40.5555 28.6782 45.1318 30.1756V14.3207Z" fill="#B4B4B4"/>
<path fill-rule="evenodd" clip-rule="evenodd" d="M43.4268 15.3435C42.8103 15.4202 42.2054 15.5431 41.6208 15.7105L40.1375 16.1289V26.864C41.1846 27.455 42.2828 27.9918 43.4247 28.4707V15.3435H43.4268ZM39.441 16.3257L37.1358 16.9768V24.9403C37.8631 25.4665 38.6315 25.9755 39.441 26.4596V16.3257ZM36.4394 17.172L34.9026 17.6061V23.1743C35.3943 23.599 35.9065 24.0154 36.4394 24.4234V17.172Z" fill="#1A1A1A"/>
<path fill-rule="evenodd" clip-rule="evenodd" d="M46.0987 8.69464C45.4444 8.69464 45.1306 9.00067 45.3969 9.37658C45.5655 9.57734 45.8074 9.74545 46.0994 9.86485C46.3915 9.98424 46.7238 10.0509 47.0648 10.0585C47.7171 10.0585 48.0308 9.75388 47.7645 9.37658C47.5958 9.17619 47.3542 9.00834 47.0626 8.88899C46.7711 8.76963 46.4393 8.70273 46.0987 8.69464Z" fill="#E3E3E3"/>
</g>
</g>
<g clip-path="url(#clip2_183_2873)">
<g filter="url(#filter3_d_183_2873)">
<path fill-rule="evenodd" clip-rule="evenodd" d="M29.5726 47.4634L29.4361 47.534C29.2813 47.6171 29.109 47.6624 28.9334 47.6662C28.7578 47.67 28.5837 47.6323 28.4255 47.556C28.2651 47.4845 28.1238 47.3762 28.0132 47.2399C27.9025 47.1036 27.8255 46.9431 27.7884 46.7714C27.4746 45.4 26.8469 43.7242 25.954 41.9935C25.0611 40.2628 24.0584 38.7815 23.1294 37.7318C23.0131 37.601 22.9281 37.4453 22.8811 37.2766C22.8341 37.108 22.8263 36.9308 22.8582 36.7587C22.8901 36.5865 22.961 36.424 23.0654 36.2834C23.1698 36.1428 23.305 36.028 23.4605 35.9477L23.5986 35.8771L23.0306 34.7787L20.363 36.1532L17.6953 37.5262L18.2634 38.6246L18.3999 38.554C18.5562 38.4722 18.7292 38.4275 18.9055 38.4234C19.0818 38.4192 19.2567 38.4558 19.4167 38.5301C19.5766 38.6045 19.7173 38.7147 19.8278 38.8521C19.9383 38.9896 20.0156 39.1507 20.0538 39.3228C20.3677 40.6927 20.9953 42.3701 21.8882 44.0992C22.7811 45.8284 23.7838 47.3112 24.7128 48.361C24.8292 48.4919 24.9141 48.6477 24.9611 48.8165C25.0081 48.9852 25.016 49.1625 24.984 49.3348C24.9521 49.507 24.8812 49.6697 24.7768 49.8104C24.6724 49.9511 24.5373 50.0661 24.3817 50.1466L24.2436 50.2172L24.8116 51.3156L27.4793 49.9426L30.1406 48.5634L29.5726 47.4634Z" fill="#4592CF"/>
<path fill-rule="evenodd" clip-rule="evenodd" d="M22.7819 38.3794C22.3419 38.609 22.9529 40.6955 24.1485 43.0368C25.3441 45.3781 26.6703 47.092 27.1025 46.8624C27.5348 46.6328 26.9315 44.5463 25.7359 42.205C24.5403 39.8638 23.2219 38.1499 22.7819 38.3794Z" fill="#283A84"/>
<path fill-rule="evenodd" clip-rule="evenodd" d="M3.37457 3.40967L4.80432 11.4889L18.1418 37.3359L22.4688 35.1028L9.13127 9.25577L3.37457 3.40967Z" fill="#D1D2D2"/>
<path fill-rule="evenodd" clip-rule="evenodd" d="M7.69042 7.77382L5.41961 6.295L6.2181 11.1149L18.2065 37.3359L4.81048 11.4889L3.37446 3.40967L7.69042 7.77382Z" fill="#E6E6E5"/>
<path fill-rule="evenodd" clip-rule="evenodd" d="M7.12532 10.7405L13.4271 23.6112L19.7305 36.4835L20.4185 36.1334L21.105 35.7833L14.1151 23.2627L7.12532 10.7405Z" fill="#818181"/>
<path fill-rule="evenodd" clip-rule="evenodd" d="M23.7869 33.5505L16.1584 37.5091C15.7662 37.2252 15.2903 37.0824 14.8074 37.1037C14.3246 37.1251 13.863 37.3094 13.4971 37.6268C13.1312 37.9443 12.8822 38.3765 12.7904 38.8536C12.6986 39.3308 12.7692 39.8251 12.9909 40.257C13.2127 40.6888 13.5726 41.033 14.0126 41.234C14.4526 41.4349 14.9471 41.481 15.4164 41.3648C15.8856 41.2485 16.3023 40.9768 16.5992 40.5932C16.896 40.2097 17.0558 39.7368 17.0527 39.2508L24.6812 35.2923C25.074 35.577 25.5506 35.7203 26.0343 35.6992C26.5179 35.6781 26.9804 35.4937 27.3471 35.1758C27.7138 34.8579 27.9633 34.4251 28.0554 33.9471C28.1475 33.4691 28.0768 32.9739 27.8546 32.5413C27.6325 32.1087 27.272 31.764 26.8311 31.5627C26.3903 31.3615 25.8949 31.3155 25.4249 31.4321C24.9548 31.5487 24.5376 31.8212 24.2404 32.2055C23.9432 32.5899 23.7835 33.0637 23.7869 33.5505Z" fill="#333333"/>
</g>
</g>
<g filter="url(#filter4_d_183_2873)">
<path d="M8.99143 75.625V83.509H8.07943V75.625H5.15143V74.761H11.9194V75.625H8.99143ZM14.9034 78.661L13.3194 83.509H12.3594L10.3674 77.545H11.2794L12.8514 82.489L14.4714 77.545H15.3594L16.9794 82.501H16.9914L18.5754 77.545H19.4754L17.4594 83.509H16.4994L14.9154 78.661H14.9034ZM20.7074 75.877C20.5794 75.733 20.5154 75.577 20.5154 75.409C20.5154 75.241 20.5794 75.085 20.7074 74.941C20.8354 74.813 20.9914 74.749 21.1754 74.749C21.3514 74.749 21.5034 74.813 21.6314 74.941C21.7594 75.069 21.8234 75.225 21.8234 75.409C21.8234 75.593 21.7594 75.749 21.6314 75.877C21.5034 76.005 21.3514 76.069 21.1754 76.069C20.9914 76.069 20.8354 76.005 20.7074 75.877ZM20.7314 83.509V77.545H21.6074V83.509H20.7314ZM25.667 83.557C24.539 83.557 23.975 83.025 23.975 81.961V78.313H22.871V77.545H23.975V75.829H24.839V77.545H26.351V78.313H24.839V81.949C24.839 82.509 25.163 82.789 25.811 82.789C25.963 82.789 26.143 82.773 26.351 82.741V83.461C26.143 83.525 25.915 83.557 25.667 83.557ZM29.9092 83.557C28.7812 83.557 28.2172 83.025 28.2172 81.961V78.313H27.1132V77.545H28.2172V75.829H29.0812V77.545H30.5932V78.313H29.0812V81.949C29.0812 82.509 29.4052 82.789 30.0532 82.789C30.2052 82.789 30.3852 82.773 30.5932 82.741V83.461C30.3852 83.525 30.1572 83.557 29.9092 83.557ZM37.0619 80.797H32.2379C32.2699 81.381 32.4899 81.865 32.8979 82.249C33.2979 82.641 33.7899 82.837 34.3739 82.837C34.8299 82.837 35.2179 82.729 35.5379 82.513C35.8579 82.289 36.0859 81.973 36.2219 81.565L36.9899 81.805C36.8219 82.365 36.4979 82.809 36.0179 83.137C35.5219 83.457 34.9779 83.617 34.3859 83.617C33.8259 83.617 33.3099 83.477 32.8379 83.197C32.3659 82.917 32.0059 82.541 31.7579 82.069C31.4939 81.605 31.3619 81.089 31.3619 80.521C31.3619 79.977 31.4859 79.473 31.7339 79.009C31.9659 78.537 32.3139 78.157 32.7779 77.869C33.2259 77.581 33.7219 77.437 34.2659 77.437C34.8659 77.437 35.3779 77.573 35.8019 77.845C36.2339 78.109 36.5539 78.473 36.7619 78.937C36.9699 79.377 37.0739 79.901 37.0739 80.509C37.0739 80.613 37.0699 80.709 37.0619 80.797ZM32.2499 80.053H36.1979C36.1419 79.509 35.9419 79.061 35.5979 78.709C35.2619 78.373 34.8179 78.205 34.2659 78.205C33.7619 78.205 33.3179 78.385 32.9339 78.745C32.5499 79.121 32.3219 79.557 32.2499 80.053ZM38.579 77.545H39.431V78.721C39.711 78.153 40.119 77.769 40.655 77.569C40.871 77.489 41.107 77.449 41.363 77.449C41.515 77.449 41.611 77.457 41.651 77.473V78.397C41.587 78.381 41.475 78.373 41.315 78.373C40.667 78.373 40.195 78.589 39.899 79.021C39.603 79.453 39.455 79.977 39.455 80.593V83.509H38.579V77.545ZM44.8161 79.513V79.225C44.8161 78.073 45.0961 77.025 45.6561 76.081C46.2081 75.129 46.9881 74.365 47.9961 73.789L48.3561 74.353C46.5881 75.489 45.7041 77.117 45.7041 79.237V79.501C45.7041 81.605 46.5881 83.229 48.3561 84.373L47.9961 84.961C46.9881 84.377 46.2081 83.609 45.6561 82.657C45.0961 81.713 44.8161 80.665 44.8161 79.513ZM52.7375 75.625V83.509H51.8255V75.625H48.8975V74.761H55.6655V75.625H52.7375ZM59.9557 83.509H58.9477L56.2117 74.761H57.1717L59.4637 82.189H59.4877L61.7917 74.761H62.8357L65.1637 82.225H65.1757L67.4797 74.761H68.4037L65.6557 83.509H64.6357L62.3077 75.997L59.9557 83.509ZM72.8 75.625V83.509H71.888V75.625H68.96V74.761H75.728V75.625H72.8ZM83.5822 83.509H82.4662L79.8742 79.969H78.0982V83.509H77.1742V74.761H80.2102C81.2582 74.761 82.0382 75.017 82.5502 75.529C83.0382 76.017 83.2822 76.613 83.2822 77.317C83.2822 78.021 83.0542 78.593 82.5982 79.033C82.1422 79.465 81.5702 79.725 80.8822 79.813L83.5822 83.509ZM78.0982 75.625V79.129H80.1262C80.8942 79.129 81.4662 78.941 81.8422 78.565C82.1782 78.229 82.3462 77.821 82.3462 77.341C82.3462 76.853 82.1702 76.445 81.8182 76.117C81.4742 75.789 80.9182 75.625 80.1502 75.625H78.0982ZM87.8413 79.225V79.513C87.8413 80.673 87.5653 81.725 87.0133 82.669C86.4533 83.613 85.6693 84.377 84.6613 84.961L84.3013 84.373C86.0693 83.229 86.9533 81.605 86.9533 79.501V79.237C86.9533 77.117 86.0693 75.489 84.3013 74.353L84.6613 73.789C85.6693 74.357 86.4533 75.117 87.0133 76.069C87.5653 77.021 87.8413 78.073 87.8413 79.225Z" fill="white"/>
</g>
<defs>
<filter id="filter0_d_183_2873" x="52.0713" y="28.5428" width="30.2134" height="34.8591" filterUnits="userSpaceOnUse" color-interpolation-filters="sRGB">
<feFlood flood-opacity="0" result="BackgroundImageFix"/>
<feColorMatrix in="SourceAlpha" type="matrix" values="0 0 0 0 0 0 0 0 0 0 0 0 0 0 0 0 0 0 127 0" result="hardAlpha"/>
<feOffset dx="-4" dy="4"/>
<feGaussianBlur stdDeviation="2"/>
<feComposite in2="hardAlpha" operator="out"/>
<feColorMatrix type="matrix" values="0 0 0 0 0 0 0 0 0 0 0 0 0 0 0 0 0 0 0.25 0"/>
<feBlend mode="normal" in2="BackgroundImageFix" result="effect1_dropShadow_183_2873"/>
<feBlend mode="normal" in="SourceGraphic" in2="effect1_dropShadow_183_2873" result="shape"/>
</filter>
<filter id="filter1_d_183_2873" x="58.9165" y="28.8316" width="23.3682" height="34.5703" filterUnits="userSpaceOnUse" color-interpolation-filters="sRGB">
<feFlood flood-opacity="0" result="BackgroundImageFix"/>
<feColorMatrix in="SourceAlpha" type="matrix" values="0 0 0 0 0 0 0 0 0 0 0 0 0 0 0 0 0 0 127 0" result="hardAlpha"/>
<feOffset dx="-4" dy="4"/>
<feGaussianBlur stdDeviation="2"/>
<feComposite in2="hardAlpha" operator="out"/>
<feColorMatrix type="matrix" values="0 0 0 0 0 0 0 0 0 0 0 0 0 0 0 0 0 0 0.25 0"/>
<feBlend mode="normal" in2="BackgroundImageFix" result="effect1_dropShadow_183_2873"/>
<feBlend mode="normal" in="SourceGraphic" in2="effect1_dropShadow_183_2873" result="shape"/>
</filter>
<filter id="filter2_d_183_2873" x="18.9355" y="-4.97711" width="47.9595" height="49.1527" filterUnits="userSpaceOnUse" color-interpolation-filters="sRGB">
<feFlood flood-opacity="0" result="BackgroundImageFix"/>
<feColorMatrix in="SourceAlpha" type="matrix" values="0 0 0 0 0 0 0 0 0 0 0 0 0 0 0 0 0 0 127 0" result="hardAlpha"/>
<feOffset dy="4"/>
<feGaussianBlur stdDeviation="5"/>
<feComposite in2="hardAlpha" operator="out"/>
<feColorMatrix type="matrix" values="0 0 0 0 0 0 0 0 0 0 0 0 0 0 0 0 0 0 0.5 0"/>
<feBlend mode="normal" in2="BackgroundImageFix" result="effect1_dropShadow_183_2873"/>
<feBlend mode="normal" in="SourceGraphic" in2="effect1_dropShadow_183_2873" result="shape"/>
</filter>
<filter id="filter3_d_183_2873" x="-6.62549" y="-2.59033" width="46.7661" height="67.9059" filterUnits="userSpaceOnUse" color-interpolation-filters="sRGB">
<feFlood flood-opacity="0" result="BackgroundImageFix"/>
<feColorMatrix in="SourceAlpha" type="matrix" values="0 0 0 0 0 0 0 0 0 0 0 0 0 0 0 0 0 0 127 0" result="hardAlpha"/>
<feOffset dy="4"/>
<feGaussianBlur stdDeviation="5"/>
<feComposite in2="hardAlpha" operator="out"/>
<feColorMatrix type="matrix" values="0 0 0 0 0 0 0 0 0 0 0 0 0 0 0 0 0 0 0.5 0"/>
<feBlend mode="normal" in2="BackgroundImageFix" result="effect1_dropShadow_183_2873"/>
<feBlend mode="normal" in="SourceGraphic" in2="effect1_dropShadow_183_2873" result="shape"/>
</filter>
<filter id="filter4_d_183_2873" x="3.15137" y="73.7891" width="86.6899" height="15.172" filterUnits="userSpaceOnUse" color-interpolation-filters="sRGB">
<feFlood flood-opacity="0" result="BackgroundImageFix"/>
<feColorMatrix in="SourceAlpha" type="matrix" values="0 0 0 0 0 0 0 0 0 0 0 0 0 0 0 0 0 0 127 0" result="hardAlpha"/>
<feOffset dy="2"/>
<feGaussianBlur stdDeviation="1"/>
<feComposite in2="hardAlpha" operator="out"/>
<feColorMatrix type="matrix" values="0 0 0 0 0 0 0 0 0 0 0 0 0 0 0 0 0 0 0.5 0"/>
<feBlend mode="normal" in2="BackgroundImageFix" result="effect1_dropShadow_183_2873"/>
<feBlend mode="normal" in="SourceGraphic" in2="effect1_dropShadow_183_2873" result="shape"/>
</filter>
<clipPath id="clip0_183_2873">
<rect width="35.8257" height="35.8257" fill="white" transform="translate(55.1519 19.739) rotate(13.4168)"/>
</clipPath>
<clipPath id="clip1_183_2873">
<rect width="30.6871" height="31.9862" fill="white" transform="matrix(-1 0 0 1 57.7476 0)"/>
</clipPath>
<clipPath id="clip2_183_2873">
<rect width="28.9942" height="52.0657" fill="white" transform="matrix(-1 0 0 1 29.9702 0)"/>
</clipPath>
</defs>
</svg>
