<svg width="90" height="100" viewBox="0 0 90 100" fill="none" xmlns="http://www.w3.org/2000/svg">
<rect x="21.5801" y="24.1279" width="45.9342" height="45.9342" rx="22.9671" fill="#FAB80A"/>
<rect x="21.5801" y="24.1279" width="45.9342" height="45.9342" rx="22.9671" stroke="#CDCCCC"/>
<path fill-rule="evenodd" clip-rule="evenodd" d="M31.0227 39.7582L31.15 54.2107L34.3971 58.2217L44.1385 63.3788L56.108 57.5214L58.5911 51.6003L58.3364 32.4361L49.2956 32.1814L39.8728 33.7094L31.2778 38.6755L31.0227 39.7582Z" fill="#301506"/>
<path d="M44.97 29.3142C39.2959 29.3142 34.3464 30.4127 30.2583 32.5791V49.8985C30.2583 53.5428 31.6276 56.5902 34.2175 58.7132C36.6221 60.6858 44.059 63.9364 44.9703 64.3312C45.8346 63.9551 53.3595 60.6542 55.726 58.7132C58.3145 56.5914 59.6841 53.543 59.6841 49.8985V32.5791C55.5954 30.4124 50.646 29.3139 44.9695 29.3139L44.97 29.3142ZM53.3719 32.6677C55.064 32.6898 56.7255 32.7944 58.3315 32.9436V49.8984C58.3315 53.1565 57.1492 55.7884 54.8681 57.6674C52.8302 59.3456 46.685 62.0989 44.9703 62.8547C43.2326 62.0887 37.0721 59.3007 35.0708 57.6681C32.8031 55.8213 31.6095 53.1269 31.6095 49.899V39.9921C38.1261 34.0159 46.0393 32.5722 53.3713 32.6681L53.3719 32.6677ZM45.3536 40.5625C43.9575 40.5625 42.8311 40.8746 41.9036 41.4732V58.1546H44.4642V52.7654C44.7198 52.8407 45.0907 52.9112 45.6161 52.9112C48.4565 52.9112 50.089 50.3507 50.089 46.6122C50.089 42.881 48.4079 40.5625 45.3536 40.5625ZM54.1029 40.5625C52.4189 40.6113 50.6579 41.8312 50.6686 43.8992C50.6729 45.2608 51.0504 46.2792 53.1607 47.5174C54.287 48.1785 54.7407 48.6141 54.7601 49.4174C54.7817 50.3103 54.1647 50.8488 53.2258 50.8451C52.4089 50.8387 51.4324 50.3853 50.7785 49.8032V52.1596C51.5803 52.6377 52.5807 52.9537 53.5914 52.9537C56.121 52.9537 57.2505 51.1668 57.2994 49.5295C57.3475 48.0371 56.9351 46.9079 54.796 45.651C53.8413 45.0912 53.0873 44.7232 53.1125 43.7914C53.1376 42.882 53.8927 42.5624 54.6177 42.5689C55.5121 42.5768 56.3772 43.0722 56.9113 43.6199V41.3946C56.4612 41.0479 55.5084 40.5194 54.1029 40.5625ZM32.9171 40.8216V48.868C32.9171 51.5806 34.2002 52.9539 36.7327 52.9539C38.2997 52.9539 39.6122 52.5912 40.5898 51.9265V40.8216H38.0349V50.4696C37.7563 50.6606 37.3432 50.7825 36.8235 50.7825C35.6506 50.7825 35.4754 49.707 35.4754 48.9813V40.8218L32.9171 40.8216ZM45.3709 42.624C46.856 42.624 47.4716 43.8097 47.4716 46.6774C47.4716 49.4754 46.7675 50.8273 45.2946 50.8273C44.9479 50.8273 44.6466 50.7414 44.4635 50.6725V42.8093C44.6709 42.7059 45.0234 42.624 45.3709 42.624Z" fill="#FAB80A"/>
<g clip-path="url(#clip0_459_137)">
<g filter="url(#filter0_d_459_137)">
<path d="M66.9175 55.4019L66.3039 54.6173C62.9388 50.2982 58.7522 44.9249 60.4698 37.7246L62.1064 30.8641L63.317 31.1529C67.6883 32.1957 71.4399 31.0736 72.0436 28.5428L74.4649 29.1204C73.8612 31.6512 76.7023 34.3459 81.0736 35.3887L82.2843 35.6775L80.6478 42.5379C78.9302 49.7382 72.7688 52.6431 67.8183 54.9773L66.9175 55.4019Z" fill="#7AB9E8"/>
</g>
<g filter="url(#filter1_d_459_137)">
<path d="M81.0738 35.3887C76.7025 34.3459 73.8614 31.6512 74.4651 29.1205L73.2544 28.8317L66.9166 55.4004L66.9178 55.4019L67.8185 54.9773C72.769 52.6431 78.9303 49.7383 80.6479 42.538L82.2845 35.6775L81.0738 35.3887Z" fill="#579ADF"/>
</g>
</g>
<g clip-path="url(#clip1_459_137)">
<g filter="url(#filter2_d_459_137)">
<path fill-rule="evenodd" clip-rule="evenodd" d="M35.1478 22.6743C34.8374 23.9347 34.5283 25.194 34.2206 26.4523C37.0556 28.0747 40.6351 28.9807 45.1316 28.9822V23.779L35.1478 22.6743Z" fill="#535353"/>
<path fill-rule="evenodd" clip-rule="evenodd" d="M55.1071 22.6743C55.4216 23.9347 55.7334 25.194 56.0425 26.4523C53.2014 28.0747 49.6301 28.9807 45.1315 28.9822V23.779L55.1071 22.6743Z" fill="#676767"/>
<path fill-rule="evenodd" clip-rule="evenodd" d="M47.3632 9.1104C53.8403 3.38226 41.5928 3.92506 38.1412 1.02289C37.8976 1.26523 37.7531 1.5566 37.7258 1.86077C37.6985 2.16494 37.7895 2.4685 37.9876 2.73371C36.4554 3.68554 33.7617 2.38688 32.3011 4.21123C33.9563 4.13969 34.9641 4.63583 35.5786 5.29994C31.0393 4.77425 32.8153 7.97348 28.9356 8.15389C31.8259 9.37791 38.6144 7.02786 42.8116 9.88804C44.7064 9.83516 45.4684 9.16794 47.3632 9.1104Z" fill="#1B2241"/>
<path fill-rule="evenodd" clip-rule="evenodd" d="M28.9377 8.10099C31.7988 9.36516 38.5376 6.95638 42.7041 9.88805C43.4794 9.85509 44.2422 9.72093 44.9612 9.4911C39.5116 4.67832 34.6761 8.95068 28.9357 8.10099H28.9377Z" fill="#1A1A1A"/>
<path fill-rule="evenodd" clip-rule="evenodd" d="M46.985 8.62379C46.237 8.68206 45.5034 8.81651 44.8045 9.02337L44.7552 9.03562C44.9993 8.76311 45.2393 8.4906 45.4751 8.21809C47.6185 6.39471 43.1075 4.23758 40.3717 3.79513C39.3864 4.43201 37.8683 4.13041 37.0908 4.57746C37.7613 5.11942 38.1769 6.05637 38.8495 6.59833C31.1686 5.8206 34.6676 7.67 30.9814 8.02825C31.2295 7.90278 31.4549 7.75408 31.652 7.5858C32.8862 6.53709 32.7032 5.39193 35.3937 5.69812L36.8912 5.86806C36.6266 5.59453 36.3598 5.3215 36.0911 5.04899C35.4845 4.41602 34.5715 3.98297 33.5445 3.84106C33.7853 3.73622 34.0504 3.6661 34.3261 3.63438C34.589 3.60477 34.8543 3.58891 35.1201 3.58692C36.3173 3.56549 37.459 3.63591 38.4114 3.06333L38.7652 2.84747C38.6952 2.75255 38.6232 2.65916 38.5595 2.56577C38.4003 2.35617 38.3333 2.11469 38.3682 1.87531C39.6024 2.57189 41.3097 3.04037 42.7722 3.42923C43.9303 3.73543 45.146 4.04162 46.2445 4.42283C47.02 4.69534 47.8901 5.07349 48.3015 5.59095C49.0482 6.55546 47.8942 7.80932 46.985 8.62379Z" fill="#4386BB"/>
<path fill-rule="evenodd" clip-rule="evenodd" d="M45.9063 8.75058C45.517 8.82677 45.1332 8.9178 44.7563 9.02329L44.7071 9.03562C44.9504 8.76136 45.1895 8.48711 45.4246 8.21285C47.5604 6.3778 43.0652 4.20686 40.339 3.76158C39.3571 4.40254 37.8444 4.099 37.0695 4.54891C37.7378 5.09434 38.1518 6.03729 38.8221 6.58272C31.1681 5.80001 34.6549 7.66126 30.9816 8.02179C32.8941 7.64739 32.8592 6.2946 33.9456 5.96949C35.032 5.64439 36.4669 6.3932 37.5615 6.0681C37.4467 5.44101 36.9281 4.93102 36.1738 4.15293C37.2212 3.67683 39.8634 4.10209 39.3141 2.72772C41.6652 4.67679 49.2392 3.86943 46.3654 8.58263L45.9063 8.75058Z" fill="#283A84"/>
<path d="M45.217 12.7863C43.2868 12.7863 41.7221 11.7558 41.7221 10.4847C41.7221 9.21363 43.2868 8.1832 45.217 8.1832C47.1472 8.1832 48.7119 9.21363 48.7119 10.4847C48.7119 11.7558 47.1472 12.7863 45.217 12.7863Z" fill="#CDCCCC"/>
<path fill-rule="evenodd" clip-rule="evenodd" d="M45.2015 10.57C40.8199 10.57 37.076 12.3072 35.5784 14.7577C34.7741 15.0159 34.2207 15.5478 34.2207 16.1566C34.2248 16.359 34.2859 16.5585 34.4 16.7421C34.5141 16.9256 34.6787 17.0892 34.8831 17.222C34.9572 20.8055 39.5486 23.6972 45.2015 23.6972C50.8544 23.6972 55.4294 20.8117 55.5158 17.2374C55.7293 17.1041 55.9021 16.938 56.0224 16.7505C56.1427 16.563 56.2078 16.3584 56.2131 16.1505C56.2131 15.5355 55.6413 14.9929 54.8184 14.7392C53.3147 12.2949 49.5769 10.57 45.2015 10.57Z" fill="#8B8A8A"/>
<path fill-rule="evenodd" clip-rule="evenodd" d="M46.8366 20.2875C42.984 20.2875 39.8468 18.3005 39.8468 15.855C39.8468 13.4094 42.9901 11.4224 46.8366 11.4224C50.683 11.4224 53.8264 13.4094 53.8264 15.855C53.8264 18.3005 50.6913 20.2875 46.8366 20.2875Z" fill="#989898"/>
<path fill-rule="evenodd" clip-rule="evenodd" d="M48.9676 15.3435C47.5112 15.3435 46.3251 14.5771 46.3251 13.6387C46.3251 12.7002 47.5112 11.9338 48.9676 11.9338C50.424 11.9338 51.6101 12.6987 51.6101 13.6387C51.6101 14.5787 50.4116 15.3435 48.9676 15.3435Z" fill="#ACACAC"/>
<path fill-rule="evenodd" clip-rule="evenodd" d="M45.1316 14.3207H45.2317C46.6254 14.3154 48.0088 14.5037 49.314 14.8764L56.895 17.0291V23.4436C53.5781 26.3792 49.71 28.6782 45.1316 30.1756V14.3207Z" fill="#CDCCCC"/>
<path fill-rule="evenodd" clip-rule="evenodd" d="M46.8365 15.3435C47.4405 15.4199 48.0332 15.5429 48.6059 15.7105L50.0592 16.1289V26.864C49.0336 27.4553 47.9575 27.9921 46.8385 28.4707V15.3435H46.8365ZM50.7416 16.3257L53.0021 16.9768V24.9403C52.2875 25.4665 51.5347 25.9755 50.7416 26.4596V16.3257ZM53.6825 17.172L55.1902 17.6061V23.1743C54.7071 23.599 54.2045 24.0154 53.6825 24.4234V17.172Z" fill="#333333"/>
<path fill-rule="evenodd" clip-rule="evenodd" d="M45.1316 14.3207H45.0316C43.6412 14.3163 42.2614 14.5046 40.9594 14.8764L33.3682 17.0275V23.442C36.6872 26.3792 40.5552 28.6782 45.1316 30.1756V14.3207Z" fill="#B4B4B4"/>
<path fill-rule="evenodd" clip-rule="evenodd" d="M43.4268 15.3435C42.8103 15.4202 42.2054 15.5431 41.6208 15.7105L40.1375 16.1289V26.864C41.1846 27.455 42.2828 27.9918 43.4247 28.4707V15.3435H43.4268ZM39.441 16.3257L37.1358 16.9768V24.9403C37.8631 25.4665 38.6315 25.9755 39.441 26.4596V16.3257ZM36.4394 17.172L34.9026 17.6061V23.1743C35.3943 23.599 35.9065 24.0154 36.4394 24.4234V17.172Z" fill="#1A1A1A"/>
<path fill-rule="evenodd" clip-rule="evenodd" d="M46.0987 8.69464C45.4444 8.69464 45.1306 9.00067 45.3969 9.37658C45.5655 9.57734 45.8074 9.74545 46.0994 9.86485C46.3915 9.98424 46.7238 10.0509 47.0648 10.0585C47.7171 10.0585 48.0308 9.75388 47.7645 9.37658C47.5958 9.17619 47.3542 9.00834 47.0626 8.88899C46.7711 8.76963 46.4393 8.70273 46.0987 8.69464Z" fill="#E3E3E3"/>
</g>
</g>
<g clip-path="url(#clip2_459_137)">
<g filter="url(#filter3_d_459_137)">
<path fill-rule="evenodd" clip-rule="evenodd" d="M29.5728 47.4634L29.4363 47.534C29.2815 47.6171 29.1093 47.6624 28.9337 47.6662C28.758 47.67 28.584 47.6322 28.4257 47.556C28.2654 47.4845 28.1241 47.3762 28.0134 47.2398C27.9027 47.1035 27.8257 46.9431 27.7886 46.7714C27.4748 45.4 26.8471 43.7242 25.9542 41.9935C25.0614 40.2627 24.0587 38.7815 23.1297 37.7317C23.0133 37.6009 22.9284 37.4453 22.8813 37.2766C22.8343 37.108 22.8265 36.9308 22.8584 36.7586C22.8904 36.5865 22.9613 36.4239 23.0657 36.2834C23.1701 36.1428 23.3052 36.028 23.4608 35.9476L23.5989 35.877L23.0308 34.7787L20.3632 36.1532L17.6956 37.5262L18.2636 38.6246L18.4001 38.554C18.5564 38.4722 18.7294 38.4275 18.9057 38.4234C19.0821 38.4192 19.257 38.4557 19.4169 38.5301C19.5769 38.6044 19.7175 38.7146 19.828 38.8521C19.9385 38.9896 20.0159 39.1506 20.0541 39.3228C20.3679 40.6927 20.9956 42.37 21.8885 44.0992C22.7813 45.8284 23.784 47.3112 24.713 48.3609C24.8294 48.4919 24.9144 48.6477 24.9614 48.8164C25.0084 48.9852 25.0162 49.1625 24.9843 49.3347C24.9523 49.507 24.8815 49.6697 24.7771 49.8104C24.6727 49.9511 24.5375 50.0661 24.3819 50.1466L24.2438 50.2172L24.8119 51.3156L27.4795 49.9426L30.1409 48.5633L29.5728 47.4634Z" fill="#4592CF"/>
<path fill-rule="evenodd" clip-rule="evenodd" d="M22.7824 38.3794C22.3424 38.609 22.9534 40.6955 24.149 43.0368C25.3446 45.3781 26.6708 47.092 27.103 46.8624C27.5353 46.6328 26.932 44.5463 25.7364 42.205C24.5408 39.8638 23.2224 38.1499 22.7824 38.3794Z" fill="#283A84"/>
<path fill-rule="evenodd" clip-rule="evenodd" d="M3.37482 3.40967L4.80457 11.4889L18.142 37.3359L22.469 35.1028L9.13151 9.25577L3.37482 3.40967Z" fill="#D1D2D2"/>
<path fill-rule="evenodd" clip-rule="evenodd" d="M7.69091 7.77382L5.4201 6.295L6.21859 11.1149L18.207 37.3359L4.81097 11.4889L3.37495 3.40967L7.69091 7.77382Z" fill="#E6E6E5"/>
<path fill-rule="evenodd" clip-rule="evenodd" d="M7.12556 10.7405L13.4273 23.6112L19.7307 36.4835L20.4188 36.1334L21.1052 35.7833L14.1154 23.2627L7.12556 10.7405Z" fill="#818181"/>
<path fill-rule="evenodd" clip-rule="evenodd" d="M23.7872 33.5505L16.1586 37.509C15.7664 37.2251 15.2905 37.0823 14.8077 37.1037C14.3249 37.1251 13.8633 37.3093 13.4973 37.6268C13.1314 37.9443 12.8825 38.3764 12.7906 38.8536C12.6988 39.3308 12.7694 39.8251 12.9912 40.257C13.2129 40.6888 13.5728 41.033 14.0128 41.2339C14.4529 41.4349 14.9474 41.481 15.4166 41.3648C15.8859 41.2485 16.3025 40.9767 16.5994 40.5932C16.8963 40.2097 17.056 39.7368 17.053 39.2508L24.6815 35.2923C25.0742 35.577 25.5508 35.7203 26.0345 35.6992C26.5182 35.6781 26.9807 35.4937 27.3474 35.1758C27.7141 34.8579 27.9636 34.4251 28.0557 33.9471C28.1477 33.4691 28.077 32.9739 27.8549 32.5413C27.6328 32.1087 27.2722 31.764 26.8314 31.5627C26.3905 31.3615 25.8951 31.3154 25.4251 31.432C24.9551 31.5487 24.5378 31.8211 24.2406 32.2055C23.9435 32.5898 23.7837 33.0636 23.7872 33.5505Z" fill="#333333"/>
</g>
</g>
<g filter="url(#filter4_d_459_137)">
<path d="M24.5939 75.252H25.5179V80.58C25.5179 81.676 25.2299 82.536 24.6539 83.16C24.0779 83.776 23.2659 84.084 22.2179 84.084C21.1779 84.084 20.3739 83.772 19.8059 83.148C19.2299 82.524 18.9419 81.688 18.9419 80.64V75.252H19.8539V80.592C19.8539 81.52 20.0859 82.196 20.5499 82.62C20.9819 83.02 21.5539 83.22 22.2659 83.22C23.0179 83.22 23.5939 82.996 23.9939 82.548C24.3939 82.084 24.5939 81.448 24.5939 80.64V75.252ZM30.6112 80.58H28.7512V84H27.8272V75.252H30.7552C31.7632 75.244 32.5272 75.496 33.0472 76.008C33.5672 76.52 33.8272 77.144 33.8272 77.88C33.8272 78.64 33.5592 79.276 33.0232 79.788C32.4552 80.316 31.6512 80.58 30.6112 80.58ZM30.6832 76.116H28.7512V79.728H30.6352C31.4192 79.728 31.9992 79.532 32.3752 79.14C32.7192 78.796 32.8912 78.384 32.8912 77.904C32.8912 77.408 32.7192 76.988 32.3752 76.644C32.0312 76.292 31.4672 76.116 30.6832 76.116ZM37.8567 84.084C37.0087 84.084 36.2967 83.828 35.7207 83.316C35.1607 82.828 34.8407 82.26 34.7607 81.612L35.6247 81.372C35.7207 81.884 35.9847 82.32 36.4167 82.68C36.8407 83.04 37.3207 83.22 37.8567 83.22C38.3927 83.22 38.8407 83.092 39.2007 82.836C39.6087 82.556 39.8127 82.152 39.8127 81.624C39.8127 81.08 39.5687 80.664 39.0807 80.376C38.8567 80.24 38.5807 80.14 38.2527 80.076L37.1007 79.848C36.8687 79.8 36.6127 79.716 36.3327 79.596C36.0447 79.46 35.8047 79.296 35.6127 79.104C35.2047 78.704 35.0007 78.2 35.0007 77.592C35.0007 77.112 35.1327 76.684 35.3967 76.308C35.6527 75.94 35.9927 75.652 36.4167 75.444C36.8327 75.252 37.2847 75.156 37.7727 75.156C38.6287 75.156 39.2967 75.368 39.7767 75.792C40.2647 76.216 40.5607 76.704 40.6647 77.256L39.8247 77.52C39.7367 77.128 39.5207 76.78 39.1767 76.476C38.8407 76.164 38.3687 76.008 37.7607 76.008C37.2807 75.992 36.8527 76.136 36.4767 76.44C36.1007 76.744 35.9167 77.116 35.9247 77.556C35.9247 77.9 36.0327 78.196 36.2487 78.444C36.4647 78.692 36.7807 78.856 37.1967 78.936L38.3007 79.152C39.0607 79.296 39.6287 79.552 40.0047 79.92C40.2607 80.152 40.4527 80.42 40.5807 80.724C40.7007 81.02 40.7607 81.288 40.7607 81.528C40.7687 82.288 40.4927 82.908 39.9327 83.388C39.3727 83.868 38.6807 84.1 37.8567 84.084ZM45.098 80.004V79.716C45.098 78.564 45.378 77.516 45.938 76.572C46.49 75.62 47.27 74.856 48.278 74.28L48.638 74.844C46.87 75.98 45.986 77.608 45.986 79.728V79.992C45.986 82.096 46.87 83.72 48.638 84.864L48.278 85.452C47.27 84.868 46.49 84.1 45.938 83.148C45.378 82.204 45.098 81.156 45.098 80.004ZM55.6955 75.252H56.6195V80.58C56.6195 81.676 56.3315 82.536 55.7555 83.16C55.1795 83.776 54.3675 84.084 53.3195 84.084C52.2795 84.084 51.4755 83.772 50.9075 83.148C50.3315 82.524 50.0435 81.688 50.0435 80.64V75.252H50.9555V80.592C50.9555 81.52 51.1875 82.196 51.6515 82.62C52.0835 83.02 52.6555 83.22 53.3675 83.22C54.1195 83.22 54.6955 82.996 55.0955 82.548C55.4955 82.084 55.6955 81.448 55.6955 80.64V75.252ZM61.7128 80.58H59.8528V84H58.9288V75.252H61.8568C62.8648 75.244 63.6288 75.496 64.1488 76.008C64.6688 76.52 64.9288 77.144 64.9288 77.88C64.9288 78.64 64.6608 79.276 64.1248 79.788C63.5568 80.316 62.7528 80.58 61.7128 80.58ZM61.7848 76.116H59.8528V79.728H61.7368C62.5208 79.728 63.1008 79.532 63.4768 79.14C63.8208 78.796 63.9928 78.384 63.9928 77.904C63.9928 77.408 63.8208 76.988 63.4768 76.644C63.1328 76.292 62.5688 76.116 61.7848 76.116ZM68.9583 84.084C68.1103 84.084 67.3983 83.828 66.8223 83.316C66.2623 82.828 65.9423 82.26 65.8623 81.612L66.7263 81.372C66.8223 81.884 67.0863 82.32 67.5183 82.68C67.9423 83.04 68.4223 83.22 68.9583 83.22C69.4943 83.22 69.9423 83.092 70.3023 82.836C70.7103 82.556 70.9143 82.152 70.9143 81.624C70.9143 81.08 70.6703 80.664 70.1823 80.376C69.9583 80.24 69.6823 80.14 69.3543 80.076L68.2023 79.848C67.9703 79.8 67.7143 79.716 67.4343 79.596C67.1463 79.46 66.9063 79.296 66.7143 79.104C66.3063 78.704 66.1023 78.2 66.1023 77.592C66.1023 77.112 66.2343 76.684 66.4983 76.308C66.7543 75.94 67.0943 75.652 67.5183 75.444C67.9343 75.252 68.3863 75.156 68.8743 75.156C69.7303 75.156 70.3983 75.368 70.8783 75.792C71.3663 76.216 71.6623 76.704 71.7663 77.256L70.9263 77.52C70.8383 77.128 70.6223 76.78 70.2783 76.476C69.9423 76.164 69.4703 76.008 68.8623 76.008C68.3823 75.992 67.9543 76.136 67.5783 76.44C67.2023 76.744 67.0183 77.116 67.0263 77.556C67.0263 77.9 67.1343 78.196 67.3503 78.444C67.5663 78.692 67.8823 78.856 68.2983 78.936L69.4023 79.152C70.1623 79.296 70.7303 79.552 71.1063 79.92C71.3623 80.152 71.5543 80.42 71.6823 80.724C71.8023 81.02 71.8623 81.288 71.8623 81.528C71.8703 82.288 71.5943 82.908 71.0343 83.388C70.4743 83.868 69.7823 84.1 68.9583 84.084ZM75.5607 79.716V80.004C75.5607 81.164 75.2847 82.216 74.7327 83.16C74.1727 84.104 73.3887 84.868 72.3807 85.452L72.0207 84.864C73.7887 83.72 74.6727 82.096 74.6727 79.992V79.728C74.6727 77.608 73.7887 75.98 72.0207 74.844L72.3807 74.28C73.3887 74.848 74.1727 75.608 74.7327 76.56C75.2847 77.512 75.5607 78.564 75.5607 79.716Z" fill="white"/>
</g>
<defs>
<filter id="filter0_d_459_137" x="52.0713" y="28.5428" width="30.2129" height="34.859" filterUnits="userSpaceOnUse" color-interpolation-filters="sRGB">
<feFlood flood-opacity="0" result="BackgroundImageFix"/>
<feColorMatrix in="SourceAlpha" type="matrix" values="0 0 0 0 0 0 0 0 0 0 0 0 0 0 0 0 0 0 127 0" result="hardAlpha"/>
<feOffset dx="-4" dy="4"/>
<feGaussianBlur stdDeviation="2"/>
<feComposite in2="hardAlpha" operator="out"/>
<feColorMatrix type="matrix" values="0 0 0 0 0 0 0 0 0 0 0 0 0 0 0 0 0 0 0.25 0"/>
<feBlend mode="normal" in2="BackgroundImageFix" result="effect1_dropShadow_459_137"/>
<feBlend mode="normal" in="SourceGraphic" in2="effect1_dropShadow_459_137" result="shape"/>
</filter>
<filter id="filter1_d_459_137" x="58.9165" y="28.8317" width="23.3679" height="34.5703" filterUnits="userSpaceOnUse" color-interpolation-filters="sRGB">
<feFlood flood-opacity="0" result="BackgroundImageFix"/>
<feColorMatrix in="SourceAlpha" type="matrix" values="0 0 0 0 0 0 0 0 0 0 0 0 0 0 0 0 0 0 127 0" result="hardAlpha"/>
<feOffset dx="-4" dy="4"/>
<feGaussianBlur stdDeviation="2"/>
<feComposite in2="hardAlpha" operator="out"/>
<feColorMatrix type="matrix" values="0 0 0 0 0 0 0 0 0 0 0 0 0 0 0 0 0 0 0.25 0"/>
<feBlend mode="normal" in2="BackgroundImageFix" result="effect1_dropShadow_459_137"/>
<feBlend mode="normal" in="SourceGraphic" in2="effect1_dropShadow_459_137" result="shape"/>
</filter>
<filter id="filter2_d_459_137" x="18.9355" y="-4.97711" width="47.9595" height="49.1527" filterUnits="userSpaceOnUse" color-interpolation-filters="sRGB">
<feFlood flood-opacity="0" result="BackgroundImageFix"/>
<feColorMatrix in="SourceAlpha" type="matrix" values="0 0 0 0 0 0 0 0 0 0 0 0 0 0 0 0 0 0 127 0" result="hardAlpha"/>
<feOffset dy="4"/>
<feGaussianBlur stdDeviation="5"/>
<feComposite in2="hardAlpha" operator="out"/>
<feColorMatrix type="matrix" values="0 0 0 0 0 0 0 0 0 0 0 0 0 0 0 0 0 0 0.5 0"/>
<feBlend mode="normal" in2="BackgroundImageFix" result="effect1_dropShadow_459_137"/>
<feBlend mode="normal" in="SourceGraphic" in2="effect1_dropShadow_459_137" result="shape"/>
</filter>
<filter id="filter3_d_459_137" x="-6.62524" y="-2.59033" width="46.7661" height="67.9059" filterUnits="userSpaceOnUse" color-interpolation-filters="sRGB">
<feFlood flood-opacity="0" result="BackgroundImageFix"/>
<feColorMatrix in="SourceAlpha" type="matrix" values="0 0 0 0 0 0 0 0 0 0 0 0 0 0 0 0 0 0 127 0" result="hardAlpha"/>
<feOffset dy="4"/>
<feGaussianBlur stdDeviation="5"/>
<feComposite in2="hardAlpha" operator="out"/>
<feColorMatrix type="matrix" values="0 0 0 0 0 0 0 0 0 0 0 0 0 0 0 0 0 0 0.5 0"/>
<feBlend mode="normal" in2="BackgroundImageFix" result="effect1_dropShadow_459_137"/>
<feBlend mode="normal" in="SourceGraphic" in2="effect1_dropShadow_459_137" result="shape"/>
</filter>
<filter id="filter4_d_459_137" x="16.9419" y="74.28" width="60.6189" height="15.172" filterUnits="userSpaceOnUse" color-interpolation-filters="sRGB">
<feFlood flood-opacity="0" result="BackgroundImageFix"/>
<feColorMatrix in="SourceAlpha" type="matrix" values="0 0 0 0 0 0 0 0 0 0 0 0 0 0 0 0 0 0 127 0" result="hardAlpha"/>
<feOffset dy="2"/>
<feGaussianBlur stdDeviation="1"/>
<feComposite in2="hardAlpha" operator="out"/>
<feColorMatrix type="matrix" values="0 0 0 0 0 0 0 0 0 0 0 0 0 0 0 0 0 0 0.5 0"/>
<feBlend mode="normal" in2="BackgroundImageFix" result="effect1_dropShadow_459_137"/>
<feBlend mode="normal" in="SourceGraphic" in2="effect1_dropShadow_459_137" result="shape"/>
</filter>
<clipPath id="clip0_459_137">
<rect width="35.8257" height="35.8257" fill="white" transform="translate(55.1519 19.739) rotate(13.4168)"/>
</clipPath>
<clipPath id="clip1_459_137">
<rect width="30.6871" height="31.9862" fill="white" transform="matrix(-1 0 0 1 57.7476 0)"/>
</clipPath>
<clipPath id="clip2_459_137">
<rect width="28.9942" height="52.0657" fill="white" transform="matrix(-1 0 0 1 29.9705 0)"/>
</clipPath>
</defs>
</svg>
