<svg width="45" height="34" viewBox="0 0 45 34" fill="none" xmlns="http://www.w3.org/2000/svg">
<path d="M2.97949 1.34399H1.75614L1.99947 2.5429L6.51033 24.7684L6.60847 25.2519L7.05191 25.4682L21.8375 32.681L22.2576 32.886L22.6843 32.6951L38.8065 25.4823L39.2842 25.2685L39.3809 24.7542L43.5576 2.52869L43.7803 1.34399H42.5748H2.97949Z" fill="url(#paint0_radial_182_2536)" stroke="url(#paint1_linear_182_2536)" stroke-width="2"/>
<path d="M6.25 3.75415H5.02582L5.27011 4.95371L9.05531 23.5399L9.15386 24.0238L9.59798 24.2397L22.005 30.2715L22.424 30.4751L22.8495 30.2854L36.378 24.2537L36.8564 24.0404L36.9535 23.5257L40.4583 4.93946L40.6818 3.75415H39.4756H6.25Z" fill="url(#paint2_radial_182_2536)" stroke="url(#paint3_linear_182_2536)" stroke-width="2"/>
<g filter="url(#filter0_d_182_2536)">
<path d="M29.4873 12.6871C29.9239 12.8347 30.3695 12.982 30.8242 13.1297C31.2786 13.2774 31.6831 13.4191 32.037 13.5549C32.8931 13.8854 33.5438 14.3416 33.9894 14.9228C34.435 15.504 34.6579 16.2256 34.6579 17.0875C34.6579 17.6304 34.5309 18.1559 34.2771 18.6636C34.0232 19.171 33.6808 19.5931 33.2501 19.9295C32.7777 20.3014 32.2319 20.5876 31.6123 20.7882C30.9923 20.9888 30.2694 21.0895 29.443 21.0895C28.6755 21.0895 27.96 20.9937 27.296 20.8022C26.6318 20.6106 26.0697 20.385 25.6094 20.1255L24.9984 20.7447H24.2459L24.1309 16.2085H24.8921C25.0633 16.64 25.2816 17.0948 25.5473 17.5733C25.813 18.0518 26.1199 18.4801 26.4682 18.8583C26.8281 19.2542 27.2308 19.576 27.6765 19.8243C28.1221 20.0723 28.6431 20.1962 29.2394 20.1962C30.0421 20.1962 30.6572 20.0005 31.0854 19.608C31.5133 19.2156 31.7274 18.7214 31.7274 18.1256C31.7274 17.6359 31.5457 17.2243 31.1827 16.8911C30.8197 16.5578 30.2576 16.2698 29.496 16.0271C29.0002 15.8672 28.5444 15.7192 28.1281 15.5831C27.712 15.4469 27.3208 15.3076 26.955 15.1655C26.1108 14.8291 25.4838 14.3482 25.0738 13.7224C24.6633 13.097 24.4583 12.3977 24.4583 11.6242C24.4583 11.1343 24.5647 10.6638 24.777 10.2121C24.9894 9.7608 25.2994 9.35475 25.7067 8.99502C26.0962 8.65862 26.5948 8.3842 27.2029 8.17142C27.8107 7.959 28.4719 7.85278 29.1864 7.85278C29.8827 7.85278 30.5348 7.94994 31.1429 8.14461C31.7507 8.33928 32.2288 8.5336 32.5771 8.72826L33.1173 8.19754H33.8876L33.9584 12.4771H33.1971C33.02 12.0164 32.8118 11.5452 32.5726 11.0636C32.3338 10.582 32.0813 10.1818 31.8159 9.86249C31.5265 9.51982 31.1931 9.2468 30.8152 9.04273C30.4375 8.839 29.9947 8.73697 29.4873 8.73697C28.8499 8.73697 28.3289 8.91736 27.9244 9.27744C27.5203 9.63752 27.318 10.0833 27.318 10.6147C27.318 11.1165 27.4938 11.5267 27.8449 11.8457C28.196 12.1647 28.7435 12.4451 29.4873 12.6871ZM22.8204 9.25864C22.5666 9.40629 22.3703 9.5637 22.2315 9.7319C22.0927 9.89975 21.9557 10.1313 21.82 10.4259C21.637 10.8327 21.38 11.4264 21.0497 12.2076C20.7188 12.9887 20.3412 13.8774 19.9165 14.8733C19.5385 15.7694 19.1298 16.7511 18.6901 17.8177C18.2503 18.8847 17.8298 19.9075 17.4285 20.8861H15.6487C14.8223 18.8642 13.9812 16.8099 13.1255 14.7233C12.2694 12.6362 11.6675 11.1862 11.3192 10.3727C11.1835 10.0781 11.0521 9.85552 10.9252 9.70508C10.7982 9.55499 10.5963 9.40037 10.3188 9.24088C10.1179 9.12909 9.94111 9.05108 9.78769 9.00686C9.63426 8.96263 9.43061 8.92258 9.17676 8.88741V8.19754H15.9852V8.86965C15.3481 8.94626 14.9161 9.0274 14.689 9.11272C14.4617 9.19839 14.3484 9.306 14.3484 9.43554C14.3484 9.50067 14.3585 9.56962 14.3794 9.64344C14.4 9.71727 14.431 9.81582 14.4725 9.93945C14.6612 10.4576 15.0032 11.3042 15.4991 12.4792C15.9946 13.6538 16.7293 15.4455 17.7029 17.8539C18.2988 16.3878 18.7947 15.1485 19.1898 14.1358C19.5852 13.1231 19.9332 12.2281 20.2345 11.4508C20.382 11.074 20.5044 10.7219 20.6017 10.395C20.6993 10.068 20.7478 9.82174 20.7478 9.65668C20.7478 9.46793 20.6121 9.31052 20.3408 9.18342C20.0692 9.057 19.5677 8.96402 18.8362 8.90517V8.19754H23.9272V8.90517C23.7323 8.92258 23.5464 8.9581 23.3693 9.01104C23.1922 9.06432 23.0091 9.14685 22.8204 9.25864Z" fill="url(#paint4_linear_182_2536)"/>
<path d="M32.9409 19.5366L32.9423 19.5354C33.3122 19.2465 33.608 18.8835 33.8299 18.4399C34.0506 17.9984 34.1579 17.5492 34.1579 17.0875C34.1579 16.3154 33.96 15.7062 33.5926 15.227C33.2155 14.7351 32.6488 14.3271 31.8575 14.0216C31.5136 13.8896 31.1178 13.7508 30.6698 13.6053L32.9409 19.5366ZM32.9409 19.5366C32.5185 19.8691 32.0263 20.1287 31.4583 20.3125C31.1505 20.4121 30.8095 20.486 30.4338 20.5323L32.9409 19.5366ZM33.4465 11.7624L33.3958 8.69754H33.3218L32.9276 9.08491L32.6603 9.34751L32.3332 9.16474C32.0656 9.01519 31.6951 8.85748 31.2122 8.69382C31.582 8.91677 31.9106 9.19965 32.1979 9.53986L32.2005 9.54292L32.2005 9.54293C32.4965 9.89919 32.769 10.3343 33.0206 10.8414M33.4465 11.7624L33.0206 10.8414M33.4465 11.7624C33.3168 11.4589 33.1748 11.1519 33.0206 10.8414M33.4465 11.7624L33.0206 10.8414M27.5918 8.90412L27.592 8.90398C27.8532 8.67143 28.1495 8.50248 28.4751 8.39281C28.0833 8.43828 27.7146 8.52225 27.3681 8.64337L27.5918 8.90412ZM27.5918 8.90412C27.0835 9.35698 26.818 9.93754 26.818 10.6147C26.818 11.2484 27.0468 11.7962 27.5087 12.2158C27.935 12.6031 28.5583 12.9103 29.3298 13.1616M27.5918 8.90412L29.3298 13.1616M21.3658 10.2168L21.3658 10.2168C21.5114 9.90072 21.6695 9.62707 21.8458 9.41368L21.3658 10.2168ZM21.3658 10.2168L21.3641 10.2207L21.3658 10.2168ZM17.6446 19.0438L17.2393 18.0413C16.266 15.6334 15.5324 13.8446 15.0384 12.6736L17.6446 19.0438ZM17.6446 19.0438C17.457 19.5 17.2732 19.9474 17.0931 20.3861H15.9845C15.1988 18.4644 14.4001 16.5135 13.5881 14.5335L13.5881 14.5335C12.7321 12.4467 12.1289 10.9933 11.7788 10.1758L11.779 10.1758L11.7734 10.1636C11.6293 9.8506 11.4757 9.5823 11.3073 9.38266L11.3069 9.38222C11.1265 9.16881 10.8683 8.97999 10.5679 8.80735L10.5679 8.80731L10.5619 8.80398C10.4934 8.76585 10.4256 8.73025 10.3587 8.69754H14.3883C14.1486 8.81131 13.8484 9.0311 13.8484 9.43554C13.8484 9.55252 13.8665 9.66716 13.898 9.77864C13.922 9.86457 13.9561 9.97221 13.9985 10.0986L13.9983 10.0986L14.0027 10.1105C14.196 10.6415 14.5424 11.4981 15.0384 12.6735L17.6446 19.0438ZM29.3298 13.1616C29.7677 13.3097 30.2143 13.4573 30.6697 13.6052L29.3298 13.1616ZM27.4346 20.3218L27.4346 20.3217C26.797 20.1379 26.2729 19.9256 25.8549 19.69L25.5219 19.5023L25.2535 19.7744L24.7894 20.2447H24.7334L24.6488 16.9094C24.7841 17.2038 24.938 17.506 25.1102 17.816C25.3936 18.3263 25.7229 18.7869 26.0994 19.1959C26.4938 19.6295 26.9385 19.9855 27.4331 20.2611L27.4334 20.2612C27.5176 20.3081 27.6037 20.351 27.6916 20.39C27.6049 20.3689 27.5193 20.3462 27.4346 20.3218ZM28.2835 15.1078C27.8759 14.9744 27.494 14.8384 27.1381 14.7002C26.3696 14.3936 25.8343 13.9708 25.492 13.4484L25.4918 13.4481C25.1368 12.9071 24.9583 12.3038 24.9583 11.6242C24.9583 11.2094 25.0477 10.8115 25.2294 10.425C25.41 10.0413 25.6759 9.68976 26.0355 9.37165C26.3669 9.08602 26.8059 8.84009 27.3679 8.64343L28.2835 15.1078ZM20.1554 13.0353C20.3515 12.5315 20.5331 12.0638 20.7003 11.6324L21.0497 12.2076L20.5893 12.0125C20.5893 12.0126 20.5892 12.0127 20.5892 12.0129C20.4526 12.3353 20.308 12.6762 20.1554 13.0353ZM21.0809 10.5375C21.181 10.2021 21.2478 9.89801 21.2478 9.65668C21.2478 9.17335 20.8855 8.88645 20.553 8.73065L20.5518 8.7301C20.5278 8.71893 20.5028 8.70808 20.4769 8.69754H22.8076C22.7272 8.73686 22.6471 8.78025 22.5673 8.82743C22.2803 8.99458 22.0329 9.18704 21.846 9.41349L21.0809 10.5375Z" stroke="url(#paint5_linear_182_2536)"/>
</g>
<defs>
<filter id="filter0_d_182_2536" x="7.17676" y="7.85278" width="29.481" height="19.2367" filterUnits="userSpaceOnUse" color-interpolation-filters="sRGB">
<feFlood flood-opacity="0" result="BackgroundImageFix"/>
<feColorMatrix in="SourceAlpha" type="matrix" values="0 0 0 0 0 0 0 0 0 0 0 0 0 0 0 0 0 0 127 0" result="hardAlpha"/>
<feOffset dy="4"/>
<feGaussianBlur stdDeviation="1"/>
<feComposite in2="hardAlpha" operator="out"/>
<feColorMatrix type="matrix" values="0 0 0 0 0 0 0 0 0 0 0 0 0 0 0 0 0 0 0.5 0"/>
<feBlend mode="normal" in2="BackgroundImageFix" result="effect1_dropShadow_182_2536"/>
<feBlend mode="normal" in="SourceGraphic" in2="effect1_dropShadow_182_2536" result="shape"/>
</filter>
<radialGradient id="paint0_radial_182_2536" cx="0" cy="0" r="1" gradientUnits="userSpaceOnUse" gradientTransform="translate(5.21749 10.4352) rotate(9.60304) scale(34.5709 46.5041)">
<stop offset="0.102161" stop-color="#B37D16"/>
<stop offset="0.80694" stop-color="#F8F497"/>
<stop offset="1" stop-color="#C4963D"/>
</radialGradient>
<linearGradient id="paint1_linear_182_2536" x1="2.97949" y1="2.34399" x2="33.795" y2="26.2733" gradientUnits="userSpaceOnUse">
<stop stop-color="#F8F497"/>
<stop offset="1" stop-color="#B7851F"/>
</linearGradient>
<radialGradient id="paint2_radial_182_2536" cx="0" cy="0" r="1" gradientUnits="userSpaceOnUse" gradientTransform="translate(24.6704 4.75415) rotate(95.6824) scale(17.3869 23.4688)">
<stop stop-color="#AF4190"/>
<stop offset="0.472281" stop-color="#610547"/>
<stop offset="1" stop-color="#220119"/>
</radialGradient>
<linearGradient id="paint3_linear_182_2536" x1="9.43484" y1="4.75415" x2="35.0857" y2="23.605" gradientUnits="userSpaceOnUse">
<stop stop-color="#F2E586"/>
<stop offset="0.54684" stop-color="#B37D16"/>
<stop offset="0.990875" stop-color="#F7F395"/>
</linearGradient>
<linearGradient id="paint4_linear_182_2536" x1="9.17676" y1="22.7441" x2="9.17676" y2="7.85278" gradientUnits="userSpaceOnUse">
<stop offset="0.276042" stop-color="#B37D16"/>
<stop offset="0.67" stop-color="#F8F497"/>
<stop offset="1" stop-color="#DDB149"/>
</linearGradient>
<linearGradient id="paint5_linear_182_2536" x1="21.9173" y1="7.85278" x2="21.9161" y2="22.3137" gradientUnits="userSpaceOnUse">
<stop stop-color="#DDB149"/>
<stop offset="1" stop-color="#F8F497"/>
</linearGradient>
</defs>
</svg>
