<svg width="90" height="103" viewBox="0 0 90 103" fill="none" xmlns="http://www.w3.org/2000/svg">
<rect x="21.5801" y="24.1279" width="45.9342" height="45.9342" rx="22.9671" fill="white"/>
<rect x="21.5801" y="24.1279" width="45.9342" height="45.9342" rx="22.9671" stroke="#CDCCCC"/>
<g clip-path="url(#clip0_459_224)">
<path fill-rule="evenodd" clip-rule="evenodd" d="M43.519 49.9282L43.7083 48.8536H45.2185L45.0291 49.9282H43.519ZM32.1539 54.2192L31.5032 50.4147H33.0134L33.2577 52.8178L34.3421 50.4147H35.7941L33.8383 54.2192H32.1539V54.2192ZM53.0478 54.2192L53.7187 50.4147H55.0982L54.9931 51.0101C55.4151 50.5526 55.8289 50.3057 56.4024 50.3057C57.4045 50.3057 57.7727 50.8941 57.5883 51.9395L57.1864 54.2193H55.6762L56.0305 52.208C56.0971 51.8304 56.0545 51.4966 55.6261 51.4966C55.1614 51.4966 54.9856 51.7943 54.8998 52.281L54.5579 54.2193L53.0478 54.2192ZM39.6359 54.2192L40.3067 50.4147H41.6789L41.5431 51.1842H41.5576C41.8732 50.589 42.2934 50.3057 42.8814 50.3057C42.9468 50.3057 43.0095 50.3202 43.0736 50.3275L42.8075 51.8377C42.7085 51.8234 42.6046 51.7943 42.503 51.7943C41.8858 51.7943 41.5224 52.0846 41.3779 52.9051L41.146 54.2193L39.6359 54.2192ZM51.1497 51.3222C50.634 51.3222 50.3881 51.852 50.3127 52.2809C50.1861 52.9993 50.3997 53.3118 50.7843 53.3118C51.191 53.3118 51.4929 52.9993 51.6197 52.2809C51.7183 51.7215 51.5455 51.3006 51.1497 51.3222ZM48.7237 52.3605C48.9565 51.039 49.9568 50.3057 51.2421 50.3057C52.5853 50.3057 53.2737 51.0972 53.0648 52.2809C52.8191 53.6747 51.7602 54.3281 50.5403 54.3281C49.3206 54.3281 48.4944 53.66 48.7237 52.3605ZM36.8546 51.8885H38.2267C38.2882 51.54 38.0311 51.2277 37.6754 51.2277C37.2252 51.2277 36.9263 51.4819 36.8546 51.8885ZM39.6013 52.6582H36.7189C36.6397 53.1084 36.9356 53.4059 37.3349 53.4059C37.5746 53.4059 37.8115 53.2972 37.9602 53.0719H39.4049C38.9772 54.0159 37.9637 54.3281 37.078 54.3281C35.8582 54.3281 35.0373 53.6312 35.2625 52.3533C35.4827 51.1043 36.5601 50.3056 37.7799 50.3056C39.1882 50.3056 39.8664 51.2786 39.6013 52.6582ZM44.2726 54.2192H42.7624L43.4332 50.4147H44.9434L44.2726 54.2192Z" fill="black"/>
<mask id="mask0_459_224" style="mask-type:luminance" maskUnits="userSpaceOnUse" x="30" y="39" width="5" height="11">
<mask id="mask1_459_224" style="mask-type:luminance" maskUnits="userSpaceOnUse" x="30" y="39" width="5" height="11">
<mask id="mask2_459_224" style="mask-type:luminance" maskUnits="userSpaceOnUse" x="30" y="39" width="5" height="11">
<mask id="mask3_459_224" style="mask-type:luminance" maskUnits="userSpaceOnUse" x="30" y="39" width="5" height="11">
<path d="M34.7839 39.0007H30V49.3117H34.7839V39.0007Z" fill="white"/>
</mask>
<g mask="url(#mask3_459_224)">
<path d="M34.7839 39.0007H30V49.3117H34.7839V39.0007Z" fill="white"/>
</g>
</mask>
<g mask="url(#mask2_459_224)">
<path d="M30 39.2642L33.6571 49.3117L34.7839 48.9014L34.5207 48.1781L34.1171 48.3249L30.7233 39.0007L30 39.2642Z" fill="white"/>
</g>
</mask>
<g mask="url(#mask1_459_224)">
<path d="M30.642 50.8622L26.7686 40.2201L34.3037 37.4775L38.1771 48.1197L30.642 50.8622Z" fill="url(#paint0_linear_459_224)"/>
</g>
</mask>
<g mask="url(#mask0_459_224)">
<path d="M34.1171 48.325L34.5207 48.1782L34.7839 48.9014L33.657 49.3116L30 39.264L30.7233 39.0008L34.1171 48.325Z" fill="#ED1C24"/>
</g>
<mask id="mask4_459_224" style="mask-type:luminance" maskUnits="userSpaceOnUse" x="33" y="39" width="27" height="11">
<mask id="mask5_459_224" style="mask-type:luminance" maskUnits="userSpaceOnUse" x="33" y="39" width="27" height="11">
<mask id="mask6_459_224" style="mask-type:luminance" maskUnits="userSpaceOnUse" x="33" y="39" width="27" height="11">
<mask id="mask7_459_224" style="mask-type:luminance" maskUnits="userSpaceOnUse" x="33" y="39" width="27" height="11">
<path d="M59.9999 39.0002H33.2805V49.3117H59.9999V39.0002Z" fill="white"/>
</mask>
<g mask="url(#mask7_459_224)">
<path d="M59.9999 39.0002H33.2805V49.3117H59.9999V39.0002Z" fill="white"/>
</g>
</mask>
<g mask="url(#mask6_459_224)">
<path d="M34.1169 48.3248L34.0036 48.0138L33.2803 48.2772L33.6569 49.3117L59.9998 39.7235L59.7365 39.0002L34.1169 48.3248Z" fill="white"/>
</g>
</mask>
<g mask="url(#mask5_459_224)">
<path d="M29.959 40.3002L56.867 30.5065L63.3066 48.1988L36.3985 57.9926L29.959 40.3002Z" fill="url(#paint1_linear_459_224)"/>
</g>
</mask>
<g mask="url(#mask4_459_224)">
<path d="M34.117 48.325L59.7367 39L59.9999 39.7233L33.6569 49.3115L33.2805 48.2772L34.0037 48.0138L34.117 48.325Z" fill="#ED1C24"/>
</g>
<mask id="mask8_459_224" style="mask-type:luminance" maskUnits="userSpaceOnUse" x="44" y="50" width="14" height="6">
<mask id="mask9_459_224" style="mask-type:luminance" maskUnits="userSpaceOnUse" x="44" y="50" width="14" height="6">
<mask id="mask10_459_224" style="mask-type:luminance" maskUnits="userSpaceOnUse" x="44" y="50" width="14" height="6">
<mask id="mask11_459_224" style="mask-type:luminance" maskUnits="userSpaceOnUse" x="44" y="50" width="14" height="6">
<path d="M57.1246 50.4147H44.4602V55.6658H57.1246V50.4147Z" fill="white"/>
</mask>
<g mask="url(#mask11_459_224)">
<path d="M57.1246 50.4147H44.4602V55.6658H57.1246V50.4147Z" fill="white"/>
</g>
</mask>
<g mask="url(#mask10_459_224)">
<path d="M45.3528 50.4147L45.1555 51.5179H47.0432L44.634 54.6934L44.4602 55.6658H48.2265H56.9299L57.1246 54.5628H48.4239H46.3609L48.7857 51.3872L48.9592 50.4147H45.3528Z" fill="white"/>
</g>
</mask>
<g mask="url(#mask9_459_224)">
<path d="M44.7875 48.1827L57.9671 50.5066L56.6874 57.7641L43.5078 55.4402L44.7875 48.1827Z" fill="url(#paint2_linear_459_224)"/>
</g>
</mask>
<g mask="url(#mask8_459_224)">
<path d="M44.4602 55.6658L44.6342 54.6934L47.0432 51.5179H45.1555L45.3528 50.4145H48.9595L48.7854 51.3872L46.3609 54.5628H48.4239H57.1244L56.9301 55.6658H48.2266H44.4602Z" fill="#ED1C24"/>
</g>
</g>
<g clip-path="url(#clip1_459_224)">
<g filter="url(#filter0_d_459_224)">
<path d="M66.9175 55.4019L66.3039 54.6173C62.9388 50.2982 58.7522 44.9249 60.4698 37.7246L62.1064 30.8641L63.317 31.1529C67.6883 32.1957 71.4399 31.0736 72.0436 28.5428L74.4649 29.1204C73.8612 31.6512 76.7023 34.3459 81.0736 35.3887L82.2843 35.6775L80.6478 42.5379C78.9302 49.7382 72.7688 52.6431 67.8183 54.9773L66.9175 55.4019Z" fill="#7AB9E8"/>
</g>
<g filter="url(#filter1_d_459_224)">
<path d="M81.0738 35.3887C76.7025 34.3459 73.8614 31.6512 74.4651 29.1205L73.2544 28.8317L66.9166 55.4004L66.9178 55.4019L67.8185 54.9773C72.769 52.6431 78.9303 49.7383 80.6479 42.538L82.2845 35.6775L81.0738 35.3887Z" fill="#579ADF"/>
</g>
</g>
<g clip-path="url(#clip2_459_224)">
<g filter="url(#filter2_d_459_224)">
<path fill-rule="evenodd" clip-rule="evenodd" d="M35.1478 22.6743C34.8374 23.9347 34.5283 25.194 34.2206 26.4523C37.0556 28.0747 40.6351 28.9807 45.1316 28.9822V23.779L35.1478 22.6743Z" fill="#535353"/>
<path fill-rule="evenodd" clip-rule="evenodd" d="M55.1071 22.6743C55.4216 23.9347 55.7334 25.194 56.0425 26.4523C53.2014 28.0747 49.6301 28.9807 45.1315 28.9822V23.779L55.1071 22.6743Z" fill="#676767"/>
<path fill-rule="evenodd" clip-rule="evenodd" d="M47.3632 9.1104C53.8403 3.38226 41.5928 3.92506 38.1412 1.02289C37.8976 1.26523 37.7531 1.5566 37.7258 1.86077C37.6985 2.16494 37.7895 2.4685 37.9876 2.73371C36.4554 3.68554 33.7617 2.38688 32.3011 4.21123C33.9563 4.13969 34.9641 4.63583 35.5786 5.29994C31.0393 4.77425 32.8153 7.97348 28.9356 8.15389C31.8259 9.37791 38.6144 7.02786 42.8116 9.88804C44.7064 9.83516 45.4684 9.16794 47.3632 9.1104Z" fill="#1B2241"/>
<path fill-rule="evenodd" clip-rule="evenodd" d="M28.9377 8.10099C31.7988 9.36516 38.5376 6.95638 42.7041 9.88805C43.4794 9.85509 44.2422 9.72093 44.9612 9.4911C39.5116 4.67832 34.6761 8.95068 28.9357 8.10099H28.9377Z" fill="#1A1A1A"/>
<path fill-rule="evenodd" clip-rule="evenodd" d="M46.985 8.62379C46.237 8.68206 45.5034 8.81651 44.8045 9.02337L44.7552 9.03562C44.9993 8.76311 45.2393 8.4906 45.4751 8.21809C47.6185 6.39471 43.1075 4.23758 40.3717 3.79513C39.3864 4.43201 37.8683 4.13041 37.0908 4.57746C37.7613 5.11942 38.1769 6.05637 38.8495 6.59833C31.1686 5.8206 34.6676 7.67 30.9814 8.02825C31.2295 7.90278 31.4549 7.75408 31.652 7.5858C32.8862 6.53709 32.7032 5.39193 35.3937 5.69812L36.8912 5.86806C36.6266 5.59453 36.3598 5.3215 36.0911 5.04899C35.4845 4.41602 34.5715 3.98297 33.5445 3.84106C33.7853 3.73622 34.0504 3.6661 34.3261 3.63438C34.589 3.60477 34.8543 3.58891 35.1201 3.58692C36.3173 3.56549 37.459 3.63591 38.4114 3.06333L38.7652 2.84747C38.6952 2.75255 38.6232 2.65916 38.5595 2.56577C38.4003 2.35617 38.3333 2.11469 38.3682 1.87531C39.6024 2.57189 41.3097 3.04037 42.7722 3.42923C43.9303 3.73543 45.146 4.04162 46.2445 4.42283C47.02 4.69534 47.8901 5.07349 48.3015 5.59095C49.0482 6.55546 47.8942 7.80932 46.985 8.62379Z" fill="#4386BB"/>
<path fill-rule="evenodd" clip-rule="evenodd" d="M45.9063 8.75058C45.517 8.82677 45.1332 8.9178 44.7563 9.02329L44.7071 9.03562C44.9504 8.76136 45.1895 8.48711 45.4246 8.21285C47.5604 6.3778 43.0652 4.20686 40.339 3.76158C39.3571 4.40254 37.8444 4.099 37.0695 4.54891C37.7378 5.09434 38.1518 6.03729 38.8221 6.58272C31.1681 5.80001 34.6549 7.66126 30.9816 8.02179C32.8941 7.64739 32.8592 6.2946 33.9456 5.96949C35.032 5.64439 36.4669 6.3932 37.5615 6.0681C37.4467 5.44101 36.9281 4.93102 36.1738 4.15293C37.2212 3.67683 39.8634 4.10209 39.3141 2.72772C41.6652 4.67679 49.2392 3.86943 46.3654 8.58263L45.9063 8.75058Z" fill="#283A84"/>
<path d="M45.217 12.7863C43.2868 12.7863 41.7221 11.7558 41.7221 10.4847C41.7221 9.21363 43.2868 8.1832 45.217 8.1832C47.1472 8.1832 48.7119 9.21363 48.7119 10.4847C48.7119 11.7558 47.1472 12.7863 45.217 12.7863Z" fill="#CDCCCC"/>
<path fill-rule="evenodd" clip-rule="evenodd" d="M45.2015 10.57C40.8199 10.57 37.076 12.3072 35.5784 14.7577C34.7741 15.0159 34.2207 15.5478 34.2207 16.1566C34.2248 16.359 34.2859 16.5585 34.4 16.7421C34.5141 16.9256 34.6787 17.0892 34.8831 17.222C34.9572 20.8055 39.5486 23.6972 45.2015 23.6972C50.8544 23.6972 55.4294 20.8117 55.5158 17.2374C55.7293 17.1041 55.9021 16.938 56.0224 16.7505C56.1427 16.563 56.2078 16.3584 56.2131 16.1505C56.2131 15.5355 55.6413 14.9929 54.8184 14.7392C53.3147 12.2949 49.5769 10.57 45.2015 10.57Z" fill="#8B8A8A"/>
<path fill-rule="evenodd" clip-rule="evenodd" d="M46.8366 20.2875C42.984 20.2875 39.8468 18.3005 39.8468 15.855C39.8468 13.4094 42.9901 11.4224 46.8366 11.4224C50.683 11.4224 53.8264 13.4094 53.8264 15.855C53.8264 18.3005 50.6913 20.2875 46.8366 20.2875Z" fill="#989898"/>
<path fill-rule="evenodd" clip-rule="evenodd" d="M48.9676 15.3435C47.5112 15.3435 46.3251 14.5771 46.3251 13.6387C46.3251 12.7002 47.5112 11.9338 48.9676 11.9338C50.424 11.9338 51.6101 12.6987 51.6101 13.6387C51.6101 14.5787 50.4116 15.3435 48.9676 15.3435Z" fill="#ACACAC"/>
<path fill-rule="evenodd" clip-rule="evenodd" d="M45.1316 14.3207H45.2317C46.6254 14.3154 48.0088 14.5037 49.314 14.8764L56.895 17.0291V23.4436C53.5781 26.3792 49.71 28.6782 45.1316 30.1756V14.3207Z" fill="#CDCCCC"/>
<path fill-rule="evenodd" clip-rule="evenodd" d="M46.8365 15.3435C47.4405 15.4199 48.0332 15.5429 48.6059 15.7105L50.0592 16.1289V26.864C49.0336 27.4553 47.9575 27.9921 46.8385 28.4707V15.3435H46.8365ZM50.7416 16.3257L53.0021 16.9768V24.9403C52.2875 25.4665 51.5347 25.9755 50.7416 26.4596V16.3257ZM53.6825 17.172L55.1902 17.6061V23.1743C54.7071 23.599 54.2045 24.0154 53.6825 24.4234V17.172Z" fill="#333333"/>
<path fill-rule="evenodd" clip-rule="evenodd" d="M45.1316 14.3207H45.0316C43.6412 14.3163 42.2614 14.5046 40.9594 14.8764L33.3682 17.0275V23.442C36.6872 26.3792 40.5552 28.6782 45.1316 30.1756V14.3207Z" fill="#B4B4B4"/>
<path fill-rule="evenodd" clip-rule="evenodd" d="M43.4268 15.3435C42.8103 15.4202 42.2054 15.5431 41.6208 15.7105L40.1375 16.1289V26.864C41.1846 27.455 42.2828 27.9918 43.4247 28.4707V15.3435H43.4268ZM39.441 16.3257L37.1358 16.9768V24.9403C37.8631 25.4665 38.6315 25.9755 39.441 26.4596V16.3257ZM36.4394 17.172L34.9026 17.6061V23.1743C35.3943 23.599 35.9065 24.0154 36.4394 24.4234V17.172Z" fill="#1A1A1A"/>
<path fill-rule="evenodd" clip-rule="evenodd" d="M46.0987 8.69464C45.4444 8.69464 45.1306 9.00067 45.3969 9.37658C45.5655 9.57734 45.8074 9.74545 46.0994 9.86485C46.3915 9.98424 46.7238 10.0509 47.0648 10.0585C47.7171 10.0585 48.0308 9.75388 47.7645 9.37658C47.5958 9.17619 47.3542 9.00834 47.0626 8.88899C46.7711 8.76963 46.4393 8.70273 46.0987 8.69464Z" fill="#E3E3E3"/>
</g>
</g>
<g clip-path="url(#clip3_459_224)">
<g filter="url(#filter3_d_459_224)">
<path fill-rule="evenodd" clip-rule="evenodd" d="M29.5728 47.4634L29.4363 47.534C29.2815 47.6171 29.1093 47.6624 28.9337 47.6662C28.758 47.67 28.584 47.6322 28.4257 47.556C28.2654 47.4845 28.1241 47.3762 28.0134 47.2398C27.9027 47.1035 27.8257 46.9431 27.7886 46.7714C27.4748 45.4 26.8471 43.7242 25.9542 41.9935C25.0614 40.2627 24.0587 38.7815 23.1297 37.7317C23.0133 37.6009 22.9284 37.4453 22.8813 37.2766C22.8343 37.108 22.8265 36.9308 22.8584 36.7586C22.8904 36.5865 22.9613 36.4239 23.0657 36.2834C23.1701 36.1428 23.3052 36.028 23.4608 35.9476L23.5989 35.877L23.0308 34.7787L20.3632 36.1532L17.6956 37.5262L18.2636 38.6246L18.4001 38.554C18.5564 38.4722 18.7294 38.4275 18.9057 38.4234C19.0821 38.4192 19.257 38.4557 19.4169 38.5301C19.5769 38.6044 19.7175 38.7146 19.828 38.8521C19.9385 38.9896 20.0159 39.1506 20.0541 39.3228C20.3679 40.6927 20.9956 42.37 21.8885 44.0992C22.7813 45.8284 23.784 47.3112 24.713 48.3609C24.8294 48.4919 24.9144 48.6477 24.9614 48.8164C25.0084 48.9852 25.0162 49.1625 24.9843 49.3347C24.9523 49.507 24.8815 49.6697 24.7771 49.8104C24.6727 49.9511 24.5375 50.0661 24.3819 50.1466L24.2438 50.2172L24.8119 51.3156L27.4795 49.9426L30.1409 48.5633L29.5728 47.4634Z" fill="#4592CF"/>
<path fill-rule="evenodd" clip-rule="evenodd" d="M22.7824 38.3794C22.3424 38.609 22.9534 40.6955 24.149 43.0368C25.3446 45.3781 26.6708 47.092 27.103 46.8624C27.5353 46.6328 26.932 44.5463 25.7364 42.205C24.5408 39.8638 23.2224 38.1499 22.7824 38.3794Z" fill="#283A84"/>
<path fill-rule="evenodd" clip-rule="evenodd" d="M3.37482 3.40967L4.80457 11.4889L18.142 37.3359L22.469 35.1028L9.13151 9.25577L3.37482 3.40967Z" fill="#D1D2D2"/>
<path fill-rule="evenodd" clip-rule="evenodd" d="M7.69091 7.77382L5.4201 6.295L6.21859 11.1149L18.207 37.3359L4.81097 11.4889L3.37495 3.40967L7.69091 7.77382Z" fill="#E6E6E5"/>
<path fill-rule="evenodd" clip-rule="evenodd" d="M7.12556 10.7405L13.4273 23.6112L19.7307 36.4835L20.4188 36.1334L21.1052 35.7833L14.1154 23.2627L7.12556 10.7405Z" fill="#818181"/>
<path fill-rule="evenodd" clip-rule="evenodd" d="M23.7872 33.5505L16.1586 37.509C15.7664 37.2251 15.2905 37.0823 14.8077 37.1037C14.3249 37.1251 13.8633 37.3093 13.4973 37.6268C13.1314 37.9443 12.8825 38.3764 12.7906 38.8536C12.6988 39.3308 12.7694 39.8251 12.9912 40.257C13.2129 40.6888 13.5728 41.033 14.0128 41.2339C14.4529 41.4349 14.9474 41.481 15.4166 41.3648C15.8859 41.2485 16.3025 40.9767 16.5994 40.5932C16.8963 40.2097 17.056 39.7368 17.053 39.2508L24.6815 35.2923C25.0742 35.577 25.5508 35.7203 26.0345 35.6992C26.5182 35.6781 26.9807 35.4937 27.3474 35.1758C27.7141 34.8579 27.9636 34.4251 28.0557 33.9471C28.1477 33.4691 28.077 32.9739 27.8549 32.5413C27.6328 32.1087 27.2722 31.764 26.8314 31.5627C26.3905 31.3615 25.8951 31.3154 25.4251 31.432C24.9551 31.5487 24.5378 31.8211 24.2406 32.2055C23.9435 32.5898 23.7837 33.0636 23.7872 33.5505Z" fill="#333333"/>
</g>
</g>
<g filter="url(#filter4_d_459_224)">
<path d="M21.0797 75.252L17.5637 84H16.5437L13.0277 75.252H14.0357L17.0597 82.968L20.0957 75.252H21.0797ZM26.0352 81.288H21.2112C21.2432 81.872 21.4632 82.356 21.8712 82.74C22.2712 83.132 22.7632 83.328 23.3472 83.328C23.8032 83.328 24.1912 83.22 24.5112 83.004C24.8312 82.78 25.0592 82.464 25.1952 82.056L25.9632 82.296C25.7952 82.856 25.4712 83.3 24.9912 83.628C24.4952 83.948 23.9512 84.108 23.3592 84.108C22.7992 84.108 22.2832 83.968 21.8112 83.688C21.3392 83.408 20.9792 83.032 20.7312 82.56C20.4672 82.096 20.3352 81.58 20.3352 81.012C20.3352 80.468 20.4592 79.964 20.7072 79.5C20.9392 79.028 21.2872 78.648 21.7512 78.36C22.1992 78.072 22.6952 77.928 23.2392 77.928C23.8392 77.928 24.3512 78.064 24.7752 78.336C25.2072 78.6 25.5272 78.964 25.7352 79.428C25.9432 79.868 26.0472 80.392 26.0472 81C26.0472 81.104 26.0432 81.2 26.0352 81.288ZM21.2232 80.544H25.1712C25.1152 80 24.9152 79.552 24.5712 79.2C24.2352 78.864 23.7912 78.696 23.2392 78.696C22.7352 78.696 22.2912 78.876 21.9072 79.236C21.5232 79.612 21.2952 80.048 21.2232 80.544ZM27.5524 78.036H28.4044V79.212C28.6844 78.644 29.0924 78.26 29.6284 78.06C29.8444 77.98 30.0804 77.94 30.3364 77.94C30.4884 77.94 30.5844 77.948 30.6244 77.964V78.888C30.5604 78.872 30.4484 78.864 30.2884 78.864C29.6404 78.864 29.1684 79.08 28.8724 79.512C28.5764 79.944 28.4284 80.468 28.4284 81.084V84H27.5524V78.036ZM31.7705 76.368C31.6425 76.224 31.5785 76.068 31.5785 75.9C31.5785 75.732 31.6425 75.576 31.7705 75.432C31.8985 75.304 32.0545 75.24 32.2385 75.24C32.4145 75.24 32.5665 75.304 32.6945 75.432C32.8225 75.56 32.8865 75.716 32.8865 75.9C32.8865 76.084 32.8225 76.24 32.6945 76.368C32.5665 76.496 32.4145 76.56 32.2385 76.56C32.0545 76.56 31.8985 76.496 31.7705 76.368ZM31.7945 84V78.036H32.6705V84H31.7945ZM35.1582 83.256H38.9022V84H34.1262V83.256L37.8462 78.78H34.2102V78.036H38.8902V78.78L35.1582 83.256ZM42.7546 84.108C42.2026 84.108 41.6866 83.972 41.2066 83.7C40.7346 83.42 40.3666 83.048 40.1026 82.584C39.8306 82.12 39.6946 81.604 39.6946 81.036C39.6946 80.148 39.9906 79.412 40.5826 78.828C41.1746 78.228 41.9066 77.928 42.7786 77.928C43.6266 77.912 44.3546 78.212 44.9626 78.828C45.5786 79.436 45.8786 80.16 45.8626 81C45.8786 81.864 45.5786 82.604 44.9626 83.22C44.3466 83.828 43.6106 84.124 42.7546 84.108ZM42.7786 83.328C43.4026 83.328 43.9266 83.104 44.3506 82.656C44.7586 82.208 44.9626 81.668 44.9626 81.036C44.9626 80.396 44.7546 79.844 44.3386 79.38C43.9146 78.924 43.3866 78.696 42.7546 78.696C42.1226 78.696 41.6026 78.92 41.1946 79.368C40.7866 79.816 40.5826 80.36 40.5826 81C40.5666 81.632 40.7706 82.18 41.1946 82.644C41.6266 83.108 42.1546 83.336 42.7786 83.328ZM52.5642 84H51.6882V80.532C51.6882 79.98 51.5482 79.54 51.2682 79.212C50.9882 78.884 50.5802 78.72 50.0442 78.72C49.5242 78.72 49.0962 78.9 48.7602 79.26C48.4322 79.628 48.2682 80.076 48.2682 80.604V84H47.3922V78.036H48.2442V79.128C48.7242 78.328 49.4122 77.928 50.3082 77.928C51.0122 77.928 51.5682 78.144 51.9762 78.576C52.3682 79.032 52.5642 79.612 52.5642 80.316V84ZM57.1918 80.004V79.716C57.1918 78.564 57.4718 77.516 58.0318 76.572C58.5838 75.62 59.3638 74.856 60.3718 74.28L60.7318 74.844C58.9638 75.98 58.0798 77.608 58.0798 79.728V79.992C58.0798 82.096 58.9638 83.72 60.7318 84.864L60.3718 85.452C59.3638 84.868 58.5838 84.1 58.0318 83.148C57.4718 82.204 57.1918 81.156 57.1918 80.004ZM69.3492 75.252L65.8332 84H64.8132L61.2972 75.252H62.3052L65.3292 82.968L68.3652 75.252H69.3492ZM76.3313 83.16V84H70.0193V83.16L75.2273 76.092H70.1993V75.252H76.3073V76.092L71.0753 83.16H76.3313ZM80.6349 79.716V80.004C80.6349 81.164 80.3589 82.216 79.8069 83.16C79.2469 84.104 78.4629 84.868 77.4549 85.452L77.0949 84.864C78.8629 83.72 79.7469 82.096 79.7469 79.992V79.728C79.7469 77.608 78.8629 75.98 77.0949 74.844L77.4549 74.28C78.4629 74.848 79.2469 75.608 79.8069 76.56C80.3589 77.512 80.6349 78.564 80.6349 79.716Z" fill="white"/>
</g>
<defs>
<filter id="filter0_d_459_224" x="52.0713" y="28.5428" width="30.2129" height="34.859" filterUnits="userSpaceOnUse" color-interpolation-filters="sRGB">
<feFlood flood-opacity="0" result="BackgroundImageFix"/>
<feColorMatrix in="SourceAlpha" type="matrix" values="0 0 0 0 0 0 0 0 0 0 0 0 0 0 0 0 0 0 127 0" result="hardAlpha"/>
<feOffset dx="-4" dy="4"/>
<feGaussianBlur stdDeviation="2"/>
<feComposite in2="hardAlpha" operator="out"/>
<feColorMatrix type="matrix" values="0 0 0 0 0 0 0 0 0 0 0 0 0 0 0 0 0 0 0.25 0"/>
<feBlend mode="normal" in2="BackgroundImageFix" result="effect1_dropShadow_459_224"/>
<feBlend mode="normal" in="SourceGraphic" in2="effect1_dropShadow_459_224" result="shape"/>
</filter>
<filter id="filter1_d_459_224" x="58.9165" y="28.8317" width="23.3679" height="34.5703" filterUnits="userSpaceOnUse" color-interpolation-filters="sRGB">
<feFlood flood-opacity="0" result="BackgroundImageFix"/>
<feColorMatrix in="SourceAlpha" type="matrix" values="0 0 0 0 0 0 0 0 0 0 0 0 0 0 0 0 0 0 127 0" result="hardAlpha"/>
<feOffset dx="-4" dy="4"/>
<feGaussianBlur stdDeviation="2"/>
<feComposite in2="hardAlpha" operator="out"/>
<feColorMatrix type="matrix" values="0 0 0 0 0 0 0 0 0 0 0 0 0 0 0 0 0 0 0.25 0"/>
<feBlend mode="normal" in2="BackgroundImageFix" result="effect1_dropShadow_459_224"/>
<feBlend mode="normal" in="SourceGraphic" in2="effect1_dropShadow_459_224" result="shape"/>
</filter>
<filter id="filter2_d_459_224" x="18.9355" y="-4.97711" width="47.9595" height="49.1527" filterUnits="userSpaceOnUse" color-interpolation-filters="sRGB">
<feFlood flood-opacity="0" result="BackgroundImageFix"/>
<feColorMatrix in="SourceAlpha" type="matrix" values="0 0 0 0 0 0 0 0 0 0 0 0 0 0 0 0 0 0 127 0" result="hardAlpha"/>
<feOffset dy="4"/>
<feGaussianBlur stdDeviation="5"/>
<feComposite in2="hardAlpha" operator="out"/>
<feColorMatrix type="matrix" values="0 0 0 0 0 0 0 0 0 0 0 0 0 0 0 0 0 0 0.5 0"/>
<feBlend mode="normal" in2="BackgroundImageFix" result="effect1_dropShadow_459_224"/>
<feBlend mode="normal" in="SourceGraphic" in2="effect1_dropShadow_459_224" result="shape"/>
</filter>
<filter id="filter3_d_459_224" x="-6.62524" y="-2.59033" width="46.7661" height="67.9059" filterUnits="userSpaceOnUse" color-interpolation-filters="sRGB">
<feFlood flood-opacity="0" result="BackgroundImageFix"/>
<feColorMatrix in="SourceAlpha" type="matrix" values="0 0 0 0 0 0 0 0 0 0 0 0 0 0 0 0 0 0 127 0" result="hardAlpha"/>
<feOffset dy="4"/>
<feGaussianBlur stdDeviation="5"/>
<feComposite in2="hardAlpha" operator="out"/>
<feColorMatrix type="matrix" values="0 0 0 0 0 0 0 0 0 0 0 0 0 0 0 0 0 0 0.5 0"/>
<feBlend mode="normal" in2="BackgroundImageFix" result="effect1_dropShadow_459_224"/>
<feBlend mode="normal" in="SourceGraphic" in2="effect1_dropShadow_459_224" result="shape"/>
</filter>
<filter id="filter4_d_459_224" x="11.0276" y="74.28" width="71.6074" height="15.172" filterUnits="userSpaceOnUse" color-interpolation-filters="sRGB">
<feFlood flood-opacity="0" result="BackgroundImageFix"/>
<feColorMatrix in="SourceAlpha" type="matrix" values="0 0 0 0 0 0 0 0 0 0 0 0 0 0 0 0 0 0 127 0" result="hardAlpha"/>
<feOffset dy="2"/>
<feGaussianBlur stdDeviation="1"/>
<feComposite in2="hardAlpha" operator="out"/>
<feColorMatrix type="matrix" values="0 0 0 0 0 0 0 0 0 0 0 0 0 0 0 0 0 0 0.5 0"/>
<feBlend mode="normal" in2="BackgroundImageFix" result="effect1_dropShadow_459_224"/>
<feBlend mode="normal" in="SourceGraphic" in2="effect1_dropShadow_459_224" result="shape"/>
</filter>
<linearGradient id="paint0_linear_459_224" x1="34.3572" y1="49.27" x2="30.5907" y2="38.9216" gradientUnits="userSpaceOnUse">
<stop stop-color="white"/>
<stop offset="0.55" stop-color="white"/>
<stop offset="1"/>
</linearGradient>
<linearGradient id="paint1_linear_459_224" x1="33.3069" y1="48.9359" x2="59.9508" y2="39.2383" gradientUnits="userSpaceOnUse">
<stop stop-color="white"/>
<stop offset="0.6" stop-color="white"/>
<stop offset="1"/>
</linearGradient>
<linearGradient id="paint2_linear_459_224" x1="44.7302" y1="52.6336" x2="57.1743" y2="54.8278" gradientUnits="userSpaceOnUse">
<stop stop-color="white"/>
<stop offset="0.5" stop-color="white"/>
<stop offset="1"/>
</linearGradient>
<clipPath id="clip0_459_224">
<rect width="30" height="16.6658" fill="white" transform="translate(30 39)"/>
</clipPath>
<clipPath id="clip1_459_224">
<rect width="35.8257" height="35.8257" fill="white" transform="translate(55.1519 19.739) rotate(13.4168)"/>
</clipPath>
<clipPath id="clip2_459_224">
<rect width="30.6871" height="31.9862" fill="white" transform="matrix(-1 0 0 1 57.7476 0)"/>
</clipPath>
<clipPath id="clip3_459_224">
<rect width="28.9942" height="52.0657" fill="white" transform="matrix(-1 0 0 1 29.9705 0)"/>
</clipPath>
</defs>
</svg>
