<svg width="90" height="102" viewBox="0 0 90 102" fill="none" xmlns="http://www.w3.org/2000/svg">
<rect x="21.5801" y="24.1279" width="45.9342" height="45.9342" rx="22.9671" fill="#1D7AD9"/>
<rect x="21.5801" y="24.1279" width="45.9342" height="45.9342" rx="22.9671" stroke="#CDCCCC"/>
<path d="M44.7086 43.3675C45.3937 43.3675 45.9706 43.01 46.0457 42.5502L46.7248 34.8581C46.7248 34.0964 45.8279 33.4729 44.7086 33.4729C43.5833 33.4729 42.6924 34.0964 42.6924 34.8581L43.3775 42.5502C43.4496 43.01 44.0235 43.3675 44.7086 43.3675Z" fill="#FFC220"/>
<path d="M40.542 45.7745C40.8815 45.1736 40.8619 44.5065 40.4954 44.2091L34.1554 39.7756C33.4959 39.391 32.5087 39.8492 31.9439 40.8197C31.3805 41.7887 31.4947 42.8765 32.1407 43.2536L39.1598 46.5077C39.609 46.676 40.1964 46.3635 40.542 45.7685" fill="#FFC220"/>
<path d="M48.8746 45.7682C49.2336 46.3631 49.821 46.6756 50.2582 46.5163L57.2773 43.2532C57.9293 42.8686 58.027 41.7914 57.4756 40.8223C56.9122 39.8518 55.9191 39.3966 55.2611 39.7737L48.9196 44.2027C48.568 44.5047 48.5425 45.1747 48.882 45.7742" fill="#FFC220"/>
<path d="M44.7086 52.9759C45.3937 52.9759 45.9706 53.3335 46.0457 53.7932L46.7248 61.4853C46.7248 62.247 45.8279 62.8645 44.7086 62.8645C43.5833 62.8645 42.6924 62.247 42.6924 61.4853L43.3775 53.7932C43.4496 53.3335 44.0235 52.9759 44.7086 52.9759Z" fill="#FFC220"/>
<path d="M48.8746 50.5758C49.2336 49.9793 49.821 49.6608 50.2582 49.8336L57.2773 53.0908C57.9293 53.4678 58.027 54.5541 57.4756 55.5246C56.9122 56.4876 55.9191 56.9458 55.2611 56.5687L48.9196 52.1337C48.568 51.8348 48.5425 51.1677 48.882 50.5758" fill="#FFC220"/>
<path d="M40.542 50.569C40.8815 51.1685 40.8619 51.834 40.4954 52.1345L34.1554 56.562C33.4959 56.9466 32.5087 56.4869 31.9439 55.5238C31.3805 54.5548 31.4947 53.4671 32.1407 53.09L39.1598 49.8328C39.609 49.6616 40.1964 49.9771 40.542 50.569Z" fill="#FFC220"/>
<g clip-path="url(#clip0_183_3024)">
<g filter="url(#filter0_d_183_3024)">
<path d="M66.9175 55.4018L66.3039 54.6172C62.9388 50.2981 58.7522 44.9249 60.4698 37.7246L62.1064 30.8641L63.317 31.1529C67.6883 32.1956 71.4399 31.0735 72.0436 28.5428L74.4649 29.1204C73.8612 31.6511 76.7023 34.3459 81.0736 35.3886L82.2843 35.6774L80.6478 42.5379C78.9302 49.7382 72.7688 52.6431 67.8183 54.9772L66.9175 55.4018Z" fill="#7AB9E8"/>
</g>
<g filter="url(#filter1_d_183_3024)">
<path d="M81.0738 35.3886C76.7025 34.3459 73.8614 31.6511 74.4651 29.1204L73.2544 28.8316L66.9166 55.4004L66.9178 55.4019L67.8185 54.9772C72.769 52.6431 78.9303 49.7383 80.6479 42.5379L82.2845 35.6774L81.0738 35.3886Z" fill="#579ADF"/>
</g>
</g>
<g clip-path="url(#clip1_183_3024)">
<g filter="url(#filter2_d_183_3024)">
<path fill-rule="evenodd" clip-rule="evenodd" d="M35.1478 22.6743C34.8374 23.9347 34.5283 25.194 34.2206 26.4523C37.0556 28.0747 40.6351 28.9807 45.1316 28.9822V23.779L35.1478 22.6743Z" fill="#535353"/>
<path fill-rule="evenodd" clip-rule="evenodd" d="M55.1071 22.6743C55.4216 23.9347 55.7334 25.194 56.0425 26.4523C53.2014 28.0747 49.6301 28.9807 45.1315 28.9822V23.779L55.1071 22.6743Z" fill="#676767"/>
<path fill-rule="evenodd" clip-rule="evenodd" d="M47.3632 9.1104C53.8403 3.38226 41.5928 3.92506 38.1412 1.02289C37.8976 1.26523 37.7531 1.5566 37.7258 1.86077C37.6985 2.16494 37.7895 2.4685 37.9876 2.73371C36.4554 3.68554 33.7617 2.38688 32.3011 4.21123C33.9563 4.13969 34.9641 4.63583 35.5786 5.29994C31.0393 4.77425 32.8153 7.97348 28.9356 8.15389C31.8259 9.37791 38.6144 7.02786 42.8116 9.88804C44.7064 9.83516 45.4684 9.16794 47.3632 9.1104Z" fill="#1B2241"/>
<path fill-rule="evenodd" clip-rule="evenodd" d="M28.9377 8.10096C31.7988 9.36513 38.5376 6.95635 42.7041 9.88802C43.4794 9.85506 44.2422 9.7209 44.9612 9.49107C39.5116 4.67829 34.6761 8.95065 28.9357 8.10096H28.9377Z" fill="#1A1A1A"/>
<path fill-rule="evenodd" clip-rule="evenodd" d="M46.985 8.62379C46.237 8.68206 45.5034 8.81651 44.8045 9.02337L44.7552 9.03562C44.9993 8.76311 45.2393 8.4906 45.4751 8.21809C47.6185 6.39471 43.1075 4.23758 40.3717 3.79513C39.3864 4.43201 37.8683 4.13041 37.0908 4.57746C37.7613 5.11942 38.1769 6.05637 38.8495 6.59833C31.1686 5.8206 34.6676 7.67 30.9814 8.02825C31.2295 7.90278 31.4549 7.75408 31.652 7.5858C32.8862 6.53709 32.7032 5.39193 35.3937 5.69812L36.8912 5.86806C36.6266 5.59453 36.3598 5.3215 36.0911 5.04899C35.4845 4.41602 34.5715 3.98297 33.5445 3.84106C33.7853 3.73622 34.0504 3.6661 34.3261 3.63438C34.589 3.60477 34.8543 3.58891 35.1201 3.58692C36.3173 3.56549 37.459 3.63591 38.4114 3.06333L38.7652 2.84747C38.6952 2.75255 38.6232 2.65916 38.5595 2.56577C38.4003 2.35617 38.3333 2.11469 38.3682 1.87531C39.6024 2.57189 41.3097 3.04037 42.7722 3.42923C43.9303 3.73543 45.146 4.04162 46.2445 4.42283C47.02 4.69534 47.8901 5.07349 48.3015 5.59095C49.0482 6.55546 47.8942 7.80932 46.985 8.62379Z" fill="#4386BB"/>
<path fill-rule="evenodd" clip-rule="evenodd" d="M45.9063 8.75058C45.517 8.82677 45.1332 8.9178 44.7563 9.02329L44.7071 9.03562C44.9504 8.76136 45.1895 8.48711 45.4246 8.21285C47.5604 6.3778 43.0652 4.20686 40.339 3.76158C39.3571 4.40254 37.8444 4.099 37.0695 4.54891C37.7378 5.09434 38.1518 6.03729 38.8221 6.58272C31.1681 5.80001 34.6549 7.66126 30.9816 8.02179C32.8941 7.64739 32.8592 6.2946 33.9456 5.96949C35.032 5.64439 36.4669 6.3932 37.5615 6.0681C37.4467 5.44101 36.9281 4.93102 36.1738 4.15293C37.2212 3.67683 39.8634 4.10209 39.3141 2.72772C41.6652 4.67679 49.2392 3.86943 46.3654 8.58263L45.9063 8.75058Z" fill="#283A84"/>
<path d="M45.217 12.7863C43.2868 12.7863 41.7221 11.7559 41.7221 10.4848C41.7221 9.21366 43.2868 8.18323 45.217 8.18323C47.1472 8.18323 48.7119 9.21366 48.7119 10.4848C48.7119 11.7559 47.1472 12.7863 45.217 12.7863Z" fill="#CDCCCC"/>
<path fill-rule="evenodd" clip-rule="evenodd" d="M45.2015 10.5699C40.8199 10.5699 37.076 12.3071 35.5784 14.7576C34.7741 15.0159 34.2207 15.5478 34.2207 16.1566C34.2248 16.359 34.2859 16.5585 34.4 16.742C34.5141 16.9256 34.6787 17.0891 34.8831 17.222C34.9572 20.8055 39.5486 23.6972 45.2015 23.6972C50.8544 23.6972 55.4294 20.8116 55.5158 17.2373C55.7293 17.104 55.9021 16.938 56.0224 16.7505C56.1427 16.563 56.2078 16.3584 56.2131 16.1504C56.2131 15.5355 55.6413 14.9928 54.8184 14.7392C53.3147 12.2948 49.5769 10.5699 45.2015 10.5699Z" fill="#8B8A8A"/>
<path fill-rule="evenodd" clip-rule="evenodd" d="M46.8366 20.2875C42.984 20.2875 39.8468 18.3005 39.8468 15.8549C39.8468 13.4094 42.9901 11.4224 46.8366 11.4224C50.683 11.4224 53.8264 13.4094 53.8264 15.8549C53.8264 18.3005 50.6913 20.2875 46.8366 20.2875Z" fill="#989898"/>
<path fill-rule="evenodd" clip-rule="evenodd" d="M48.9676 15.3435C47.5112 15.3435 46.3251 14.5771 46.3251 13.6387C46.3251 12.7002 47.5112 11.9338 48.9676 11.9338C50.424 11.9338 51.6101 12.6987 51.6101 13.6387C51.6101 14.5787 50.4116 15.3435 48.9676 15.3435Z" fill="#ACACAC"/>
<path fill-rule="evenodd" clip-rule="evenodd" d="M45.1316 14.3207H45.2317C46.6254 14.3154 48.0088 14.5037 49.314 14.8764L56.895 17.0291V23.4436C53.5781 26.3792 49.71 28.6782 45.1316 30.1756V14.3207Z" fill="#CDCCCC"/>
<path fill-rule="evenodd" clip-rule="evenodd" d="M46.8365 15.3435C47.4405 15.4199 48.0332 15.5429 48.6059 15.7105L50.0592 16.1289V26.864C49.0336 27.4553 47.9575 27.9921 46.8385 28.4707V15.3435H46.8365ZM50.7416 16.3257L53.0021 16.9768V24.9403C52.2875 25.4665 51.5347 25.9755 50.7416 26.4596V16.3257ZM53.6825 17.172L55.1902 17.6061V23.1743C54.7071 23.599 54.2045 24.0154 53.6825 24.4234V17.172Z" fill="#333333"/>
<path fill-rule="evenodd" clip-rule="evenodd" d="M45.1316 14.3207H45.0316C43.6412 14.3163 42.2614 14.5046 40.9594 14.8764L33.3682 17.0275V23.442C36.6872 26.3792 40.5552 28.6782 45.1316 30.1756V14.3207Z" fill="#B4B4B4"/>
<path fill-rule="evenodd" clip-rule="evenodd" d="M43.4268 15.3435C42.8103 15.4202 42.2054 15.5431 41.6208 15.7105L40.1375 16.1289V26.864C41.1846 27.455 42.2828 27.9918 43.4247 28.4707V15.3435H43.4268ZM39.441 16.3257L37.1358 16.9768V24.9403C37.8631 25.4665 38.6315 25.9755 39.441 26.4596V16.3257ZM36.4394 17.172L34.9026 17.6061V23.1743C35.3943 23.599 35.9065 24.0154 36.4394 24.4234V17.172Z" fill="#1A1A1A"/>
<path fill-rule="evenodd" clip-rule="evenodd" d="M46.0987 8.69464C45.4444 8.69464 45.1306 9.00067 45.3969 9.37658C45.5655 9.57734 45.8074 9.74545 46.0994 9.86485C46.3915 9.98424 46.7238 10.0509 47.0648 10.0585C47.7171 10.0585 48.0308 9.75388 47.7645 9.37658C47.5958 9.17619 47.3542 9.00834 47.0626 8.88899C46.7711 8.76963 46.4393 8.70273 46.0987 8.69464Z" fill="#E3E3E3"/>
</g>
</g>
<g clip-path="url(#clip2_183_3024)">
<g filter="url(#filter3_d_183_3024)">
<path fill-rule="evenodd" clip-rule="evenodd" d="M29.5728 47.4634L29.4363 47.534C29.2815 47.6171 29.1093 47.6624 28.9337 47.6662C28.758 47.67 28.584 47.6323 28.4257 47.556C28.2654 47.4845 28.1241 47.3762 28.0134 47.2399C27.9027 47.1036 27.8257 46.9431 27.7886 46.7714C27.4748 45.4 26.8471 43.7242 25.9542 41.9935C25.0614 40.2628 24.0587 38.7815 23.1297 37.7318C23.0133 37.601 22.9284 37.4453 22.8813 37.2766C22.8343 37.108 22.8265 36.9308 22.8584 36.7587C22.8904 36.5865 22.9613 36.424 23.0657 36.2834C23.1701 36.1428 23.3052 36.028 23.4608 35.9477L23.5989 35.8771L23.0308 34.7787L20.3632 36.1532L17.6956 37.5262L18.2636 38.6246L18.4001 38.554C18.5564 38.4722 18.7294 38.4275 18.9057 38.4234C19.0821 38.4192 19.257 38.4558 19.4169 38.5301C19.5769 38.6045 19.7175 38.7147 19.828 38.8521C19.9385 38.9896 20.0159 39.1507 20.0541 39.3228C20.3679 40.6927 20.9956 42.3701 21.8885 44.0992C22.7813 45.8284 23.784 47.3112 24.713 48.361C24.8294 48.4919 24.9144 48.6477 24.9614 48.8165C25.0084 48.9852 25.0162 49.1625 24.9843 49.3348C24.9523 49.507 24.8815 49.6697 24.7771 49.8104C24.6727 49.9511 24.5375 50.0661 24.3819 50.1466L24.2438 50.2172L24.8119 51.3156L27.4795 49.9426L30.1409 48.5634L29.5728 47.4634Z" fill="#4592CF"/>
<path fill-rule="evenodd" clip-rule="evenodd" d="M22.7824 38.3794C22.3424 38.609 22.9534 40.6955 24.149 43.0368C25.3446 45.3781 26.6708 47.092 27.103 46.8624C27.5353 46.6328 26.932 44.5463 25.7364 42.205C24.5408 39.8638 23.2224 38.1499 22.7824 38.3794Z" fill="#283A84"/>
<path fill-rule="evenodd" clip-rule="evenodd" d="M3.37482 3.40967L4.80457 11.4889L18.142 37.3359L22.469 35.1028L9.13151 9.25577L3.37482 3.40967Z" fill="#D1D2D2"/>
<path fill-rule="evenodd" clip-rule="evenodd" d="M7.69091 7.77382L5.4201 6.295L6.21859 11.1149L18.207 37.3359L4.81097 11.4889L3.37495 3.40967L7.69091 7.77382Z" fill="#E6E6E5"/>
<path fill-rule="evenodd" clip-rule="evenodd" d="M7.12556 10.7405L13.4273 23.6112L19.7307 36.4835L20.4188 36.1334L21.1052 35.7833L14.1154 23.2627L7.12556 10.7405Z" fill="#818181"/>
<path fill-rule="evenodd" clip-rule="evenodd" d="M23.7872 33.5505L16.1586 37.5091C15.7664 37.2252 15.2905 37.0824 14.8077 37.1037C14.3249 37.1251 13.8633 37.3094 13.4973 37.6268C13.1314 37.9443 12.8825 38.3765 12.7906 38.8536C12.6988 39.3308 12.7694 39.8251 12.9912 40.257C13.2129 40.6888 13.5728 41.033 14.0128 41.234C14.4529 41.4349 14.9474 41.481 15.4166 41.3648C15.8859 41.2485 16.3025 40.9768 16.5994 40.5932C16.8963 40.2097 17.056 39.7368 17.053 39.2508L24.6815 35.2923C25.0742 35.577 25.5508 35.7203 26.0345 35.6992C26.5182 35.6781 26.9807 35.4937 27.3474 35.1758C27.7141 34.8579 27.9636 34.4251 28.0557 33.9471C28.1477 33.4691 28.077 32.9739 27.8549 32.5413C27.6328 32.1087 27.2722 31.764 26.8314 31.5627C26.3905 31.3615 25.8951 31.3155 25.4251 31.4321C24.9551 31.5487 24.5378 31.8212 24.2406 32.2055C23.9435 32.5899 23.7837 33.0637 23.7872 33.5505Z" fill="#333333"/>
</g>
</g>
<g filter="url(#filter4_d_183_3024)">
<path d="M27.3776 83.509H26.3696L23.6336 74.761H24.5936L26.8856 82.189H26.9096L29.2136 74.761H30.2576L32.5856 82.225H32.5976L34.9016 74.761H35.8256L33.0776 83.509H32.0576L29.7296 75.997L27.3776 83.509ZM38.0386 80.065H39.6946V79.669C39.6946 78.701 39.1866 78.217 38.1706 78.217C37.6826 78.217 37.3066 78.349 37.0426 78.613C36.8026 78.853 36.6586 79.125 36.6106 79.429L35.7706 79.249C35.7786 79.081 35.8586 78.869 36.0106 78.613C36.1626 78.357 36.3626 78.129 36.6106 77.929C37.0346 77.601 37.5626 77.437 38.1946 77.437C39.2826 77.437 40.0066 77.849 40.3666 78.673C40.4866 78.953 40.5466 79.281 40.5466 79.657V81.337C40.5466 82.313 40.5786 83.037 40.6426 83.509H39.7786C39.7226 83.205 39.6946 82.857 39.6946 82.465C39.1906 83.233 38.5186 83.617 37.6786 83.617C37.0786 83.617 36.5986 83.449 36.2386 83.113C35.8626 82.785 35.6746 82.365 35.6746 81.853V81.793C35.6746 81.201 35.9106 80.765 36.3826 80.485C36.8626 80.205 37.4146 80.065 38.0386 80.065ZM39.6946 80.989V80.785H38.0266C37.6586 80.785 37.3346 80.853 37.0546 80.989C36.7186 81.133 36.5506 81.397 36.5506 81.781C36.5506 82.109 36.6746 82.369 36.9226 82.561C37.1626 82.753 37.4666 82.849 37.8346 82.849C38.3546 82.849 38.7986 82.673 39.1666 82.321C39.5186 81.985 39.6946 81.541 39.6946 80.989ZM42.4462 83.509V74.401H43.3222V83.509H42.4462ZM50.2139 83.509H49.3619V80.005C49.3619 79.493 49.2339 79.065 48.9779 78.721C48.7139 78.393 48.3299 78.229 47.8259 78.229C47.3139 78.229 46.9099 78.413 46.6139 78.781C46.3179 79.149 46.1699 79.593 46.1699 80.113V83.509H45.2939V77.545H46.1459V78.577C46.4099 78.185 46.6939 77.897 46.9979 77.713C47.3019 77.529 47.6619 77.437 48.0779 77.437C48.9819 77.437 49.6179 77.837 49.9859 78.637C50.4899 77.837 51.1899 77.437 52.0859 77.437C52.7819 77.437 53.3259 77.657 53.7179 78.097C54.0939 78.537 54.2819 79.113 54.2819 79.825V83.509H53.4179V80.041C53.4179 79.497 53.2899 79.061 53.0339 78.733C52.7699 78.397 52.3819 78.229 51.8699 78.229C51.3739 78.229 50.9739 78.409 50.6699 78.769C50.3659 79.121 50.2139 79.557 50.2139 80.077V83.509ZM58.1246 80.065H59.7806V79.669C59.7806 78.701 59.2726 78.217 58.2566 78.217C57.7686 78.217 57.3926 78.349 57.1286 78.613C56.8886 78.853 56.7446 79.125 56.6966 79.429L55.8566 79.249C55.8646 79.081 55.9446 78.869 56.0966 78.613C56.2486 78.357 56.4486 78.129 56.6966 77.929C57.1206 77.601 57.6486 77.437 58.2806 77.437C59.3686 77.437 60.0926 77.849 60.4526 78.673C60.5726 78.953 60.6326 79.281 60.6326 79.657V81.337C60.6326 82.313 60.6646 83.037 60.7286 83.509H59.8646C59.8086 83.205 59.7806 82.857 59.7806 82.465C59.2766 83.233 58.6046 83.617 57.7646 83.617C57.1646 83.617 56.6846 83.449 56.3246 83.113C55.9486 82.785 55.7606 82.365 55.7606 81.853V81.793C55.7606 81.201 55.9966 80.765 56.4686 80.485C56.9486 80.205 57.5006 80.065 58.1246 80.065ZM59.7806 80.989V80.785H58.1126C57.7446 80.785 57.4206 80.853 57.1406 80.989C56.8046 81.133 56.6366 81.397 56.6366 81.781C56.6366 82.109 56.7606 82.369 57.0086 82.561C57.2486 82.753 57.5526 82.849 57.9206 82.849C58.4406 82.849 58.8846 82.673 59.2526 82.321C59.6046 81.985 59.7806 81.541 59.7806 80.989ZM62.5321 77.545H63.3841V78.721C63.6641 78.153 64.0721 77.769 64.6081 77.569C64.8241 77.489 65.0601 77.449 65.3161 77.449C65.4681 77.449 65.5641 77.457 65.6041 77.473V78.397C65.5401 78.381 65.4281 78.373 65.2681 78.373C64.6201 78.373 64.1481 78.589 63.8521 79.021C63.5561 79.453 63.4081 79.977 63.4081 80.593V83.509H62.5321V77.545ZM68.8623 83.557C67.7343 83.557 67.1703 83.025 67.1703 81.961V78.313H66.0663V77.545H67.1703V75.829H68.0343V77.545H69.5463V78.313H68.0343V81.949C68.0343 82.509 68.3583 82.789 69.0063 82.789C69.1583 82.789 69.3383 82.773 69.5463 82.741V83.461C69.3383 83.525 69.1103 83.557 68.8623 83.557ZM27.0212 92.513V92.225C27.0212 91.073 27.3012 90.025 27.8612 89.081C28.4132 88.129 29.1932 87.365 30.2012 86.789L30.5612 87.353C28.7932 88.489 27.9092 90.117 27.9092 92.237V92.501C27.9092 94.605 28.7932 96.229 30.5612 97.373L30.2012 97.961C29.1932 97.377 28.4132 96.609 27.8612 95.657C27.3012 94.713 27.0212 93.665 27.0212 92.513ZM34.9186 96.509H33.9106L31.1746 87.761H32.1346L34.4266 95.189H34.4506L36.7546 87.761H37.7986L40.1266 95.225H40.1386L42.4426 87.761H43.3666L40.6186 96.509H39.5986L37.2706 88.997L34.9186 96.509ZM52.7069 87.761H54.0269V96.509H53.1149V89.009L49.8629 96.509H49.0349L45.8069 89.069V96.509H44.8949V87.761H46.2029L49.4669 95.261L52.7069 87.761ZM59.3293 88.625V96.509H58.4173V88.625H55.4893V87.761H62.2573V88.625H59.3293ZM66.3315 92.225V92.513C66.3315 93.673 66.0555 94.725 65.5035 95.669C64.9435 96.613 64.1595 97.377 63.1515 97.961L62.7915 97.373C64.5595 96.229 65.4435 94.605 65.4435 92.501V92.237C65.4435 90.117 64.5595 88.489 62.7915 87.353L63.1515 86.789C64.1595 87.357 64.9435 88.117 65.5035 89.069C66.0555 90.021 66.3315 91.073 66.3315 92.225Z" fill="white"/>
</g>
<defs>
<filter id="filter0_d_183_3024" x="52.0713" y="28.5428" width="30.2129" height="34.8591" filterUnits="userSpaceOnUse" color-interpolation-filters="sRGB">
<feFlood flood-opacity="0" result="BackgroundImageFix"/>
<feColorMatrix in="SourceAlpha" type="matrix" values="0 0 0 0 0 0 0 0 0 0 0 0 0 0 0 0 0 0 127 0" result="hardAlpha"/>
<feOffset dx="-4" dy="4"/>
<feGaussianBlur stdDeviation="2"/>
<feComposite in2="hardAlpha" operator="out"/>
<feColorMatrix type="matrix" values="0 0 0 0 0 0 0 0 0 0 0 0 0 0 0 0 0 0 0.25 0"/>
<feBlend mode="normal" in2="BackgroundImageFix" result="effect1_dropShadow_183_3024"/>
<feBlend mode="normal" in="SourceGraphic" in2="effect1_dropShadow_183_3024" result="shape"/>
</filter>
<filter id="filter1_d_183_3024" x="58.9165" y="28.8316" width="23.3679" height="34.5703" filterUnits="userSpaceOnUse" color-interpolation-filters="sRGB">
<feFlood flood-opacity="0" result="BackgroundImageFix"/>
<feColorMatrix in="SourceAlpha" type="matrix" values="0 0 0 0 0 0 0 0 0 0 0 0 0 0 0 0 0 0 127 0" result="hardAlpha"/>
<feOffset dx="-4" dy="4"/>
<feGaussianBlur stdDeviation="2"/>
<feComposite in2="hardAlpha" operator="out"/>
<feColorMatrix type="matrix" values="0 0 0 0 0 0 0 0 0 0 0 0 0 0 0 0 0 0 0.25 0"/>
<feBlend mode="normal" in2="BackgroundImageFix" result="effect1_dropShadow_183_3024"/>
<feBlend mode="normal" in="SourceGraphic" in2="effect1_dropShadow_183_3024" result="shape"/>
</filter>
<filter id="filter2_d_183_3024" x="18.9355" y="-4.97711" width="47.9595" height="49.1527" filterUnits="userSpaceOnUse" color-interpolation-filters="sRGB">
<feFlood flood-opacity="0" result="BackgroundImageFix"/>
<feColorMatrix in="SourceAlpha" type="matrix" values="0 0 0 0 0 0 0 0 0 0 0 0 0 0 0 0 0 0 127 0" result="hardAlpha"/>
<feOffset dy="4"/>
<feGaussianBlur stdDeviation="5"/>
<feComposite in2="hardAlpha" operator="out"/>
<feColorMatrix type="matrix" values="0 0 0 0 0 0 0 0 0 0 0 0 0 0 0 0 0 0 0.5 0"/>
<feBlend mode="normal" in2="BackgroundImageFix" result="effect1_dropShadow_183_3024"/>
<feBlend mode="normal" in="SourceGraphic" in2="effect1_dropShadow_183_3024" result="shape"/>
</filter>
<filter id="filter3_d_183_3024" x="-6.62524" y="-2.59033" width="46.7661" height="67.9059" filterUnits="userSpaceOnUse" color-interpolation-filters="sRGB">
<feFlood flood-opacity="0" result="BackgroundImageFix"/>
<feColorMatrix in="SourceAlpha" type="matrix" values="0 0 0 0 0 0 0 0 0 0 0 0 0 0 0 0 0 0 127 0" result="hardAlpha"/>
<feOffset dy="4"/>
<feGaussianBlur stdDeviation="5"/>
<feComposite in2="hardAlpha" operator="out"/>
<feColorMatrix type="matrix" values="0 0 0 0 0 0 0 0 0 0 0 0 0 0 0 0 0 0 0.5 0"/>
<feBlend mode="normal" in2="BackgroundImageFix" result="effect1_dropShadow_183_3024"/>
<feBlend mode="normal" in="SourceGraphic" in2="effect1_dropShadow_183_3024" result="shape"/>
</filter>
<filter id="filter4_d_183_3024" x="21.6335" y="74.4011" width="49.9128" height="27.56" filterUnits="userSpaceOnUse" color-interpolation-filters="sRGB">
<feFlood flood-opacity="0" result="BackgroundImageFix"/>
<feColorMatrix in="SourceAlpha" type="matrix" values="0 0 0 0 0 0 0 0 0 0 0 0 0 0 0 0 0 0 127 0" result="hardAlpha"/>
<feOffset dy="2"/>
<feGaussianBlur stdDeviation="1"/>
<feComposite in2="hardAlpha" operator="out"/>
<feColorMatrix type="matrix" values="0 0 0 0 0 0 0 0 0 0 0 0 0 0 0 0 0 0 0.5 0"/>
<feBlend mode="normal" in2="BackgroundImageFix" result="effect1_dropShadow_183_3024"/>
<feBlend mode="normal" in="SourceGraphic" in2="effect1_dropShadow_183_3024" result="shape"/>
</filter>
<clipPath id="clip0_183_3024">
<rect width="35.8257" height="35.8257" fill="white" transform="translate(55.1519 19.739) rotate(13.4168)"/>
</clipPath>
<clipPath id="clip1_183_3024">
<rect width="30.6871" height="31.9862" fill="white" transform="matrix(-1 0 0 1 57.7476 0)"/>
</clipPath>
<clipPath id="clip2_183_3024">
<rect width="28.9942" height="52.0657" fill="white" transform="matrix(-1 0 0 1 29.9705 0)"/>
</clipPath>
</defs>
</svg>
