<svg width="90" height="103" viewBox="0 0 90 103" fill="none" xmlns="http://www.w3.org/2000/svg">
<rect x="21.5801" y="24.1279" width="45.9342" height="45.9342" rx="22.9671" fill="#FE000C"/>
<rect x="21.5801" y="24.1279" width="45.9342" height="45.9342" rx="22.9671" stroke="#CDCCCC"/>
<g clip-path="url(#clip0_462_898)">
<path fill-rule="evenodd" clip-rule="evenodd" d="M30.0176 52.9133H35.2223L39.9011 46.8983L42.8182 49.8542L36.1428 58.2143H41.366L45.6403 52.6739L53.6858 60.8644H59.9908L48.4275 49.2326L57.5345 37.7241H52.3085L45.5786 46.3687L42.6662 43.4397L50.1523 34.0083H44.9402L39.8274 40.5897L37.0513 37.7241H30.832L37.0955 44.0504L30.0176 52.9133Z" fill="white"/>
</g>
<g clip-path="url(#clip1_462_898)">
<g filter="url(#filter0_d_462_898)">
<path d="M66.9175 55.4019L66.3039 54.6173C62.9388 50.2982 58.7522 44.9249 60.4698 37.7246L62.1064 30.8641L63.317 31.1529C67.6883 32.1957 71.4399 31.0736 72.0436 28.5428L74.4649 29.1204C73.8612 31.6512 76.7023 34.3459 81.0736 35.3887L82.2843 35.6775L80.6478 42.5379C78.9302 49.7382 72.7688 52.6431 67.8183 54.9773L66.9175 55.4019Z" fill="#7AB9E8"/>
</g>
<g filter="url(#filter1_d_462_898)">
<path d="M81.0738 35.3887C76.7025 34.3459 73.8614 31.6512 74.4651 29.1205L73.2544 28.8316L66.9166 55.4004L66.9178 55.4019L67.8185 54.9773C72.769 52.6431 78.9303 49.7383 80.6479 42.538L82.2845 35.6775L81.0738 35.3887Z" fill="#579ADF"/>
</g>
</g>
<g clip-path="url(#clip2_462_898)">
<g filter="url(#filter2_d_462_898)">
<path fill-rule="evenodd" clip-rule="evenodd" d="M35.1478 22.6743C34.8374 23.9347 34.5283 25.194 34.2206 26.4523C37.0556 28.0747 40.6351 28.9807 45.1316 28.9822V23.7791L35.1478 22.6743Z" fill="#535353"/>
<path fill-rule="evenodd" clip-rule="evenodd" d="M55.1071 22.6743C55.4216 23.9347 55.7334 25.194 56.0425 26.4523C53.2014 28.0747 49.6301 28.9807 45.1315 28.9822V23.7791L55.1071 22.6743Z" fill="#676767"/>
<path fill-rule="evenodd" clip-rule="evenodd" d="M47.3632 9.11041C53.8403 3.38228 41.5928 3.92507 38.1412 1.0229C37.8976 1.26525 37.7531 1.55661 37.7258 1.86078C37.6985 2.16496 37.7895 2.46851 37.9876 2.73372C36.4554 3.68556 33.7617 2.38689 32.3011 4.21125C33.9563 4.1397 34.9641 4.63584 35.5786 5.29995C31.0393 4.77426 32.8153 7.97349 28.9356 8.15391C31.8259 9.37792 38.6144 7.02788 42.8116 9.88806C44.7064 9.83518 45.4684 9.16796 47.3632 9.11041Z" fill="#1B2241"/>
<path fill-rule="evenodd" clip-rule="evenodd" d="M28.9377 8.10101C31.7988 9.36518 38.5376 6.9564 42.7041 9.88806C43.4794 9.85511 44.2422 9.72095 44.9612 9.49112C39.5116 4.67834 34.6761 8.9507 28.9357 8.10101H28.9377Z" fill="#1A1A1A"/>
<path fill-rule="evenodd" clip-rule="evenodd" d="M46.985 8.62381C46.237 8.68208 45.5034 8.81653 44.8045 9.02339L44.7552 9.03564C44.9993 8.76312 45.2393 8.49061 45.4751 8.2181C47.6185 6.39472 43.1075 4.2376 40.3717 3.79515C39.3864 4.43203 37.8683 4.13043 37.0908 4.57747C37.7613 5.11943 38.1769 6.05638 38.8495 6.59834C31.1686 5.82061 34.6676 7.67002 30.9814 8.02826C31.2295 7.9028 31.4549 7.75409 31.652 7.58581C32.8862 6.5371 32.7032 5.39194 35.3937 5.69814L36.8912 5.86807C36.6266 5.59454 36.3598 5.32152 36.0911 5.04901C35.4845 4.41603 34.5715 3.98298 33.5445 3.84108C33.7853 3.73624 34.0504 3.66612 34.3261 3.6344C34.589 3.60479 34.8543 3.58893 35.1201 3.58694C36.3173 3.5655 37.459 3.63593 38.4114 3.06335L38.7652 2.84748C38.6952 2.75256 38.6232 2.65917 38.5595 2.56578C38.4003 2.35618 38.3333 2.1147 38.3682 1.87532C39.6024 2.57191 41.3097 3.04038 42.7722 3.42925C43.9303 3.73544 45.146 4.04163 46.2445 4.42284C47.02 4.69536 47.8901 5.0735 48.3015 5.59097C49.0482 6.55548 47.8942 7.80934 46.985 8.62381Z" fill="#4386BB"/>
<path fill-rule="evenodd" clip-rule="evenodd" d="M45.9063 8.75059C45.517 8.82679 45.1332 8.91781 44.7563 9.02331L44.7071 9.03563C44.9504 8.76138 45.1895 8.48712 45.4246 8.21286C47.5604 6.37781 43.0652 4.20687 40.339 3.76159C39.3571 4.40255 37.8444 4.09902 37.0695 4.54892C37.7378 5.09435 38.1518 6.0373 38.8221 6.58273C31.1681 5.80003 34.6549 7.66127 30.9816 8.02181C32.8941 7.6474 32.8592 6.29461 33.9456 5.96951C35.032 5.64441 36.4669 6.39322 37.5615 6.06812C37.4467 5.44103 36.9281 4.93103 36.1738 4.15295C37.2212 3.67685 39.8634 4.1021 39.3141 2.72774C41.6652 4.67681 49.2392 3.86945 46.3654 8.58265L45.9063 8.75059Z" fill="#283A84"/>
<path d="M45.217 12.7863C43.2868 12.7863 41.7221 11.7558 41.7221 10.4847C41.7221 9.21364 43.2868 8.18321 45.217 8.18321C47.1472 8.18321 48.7119 9.21364 48.7119 10.4847C48.7119 11.7558 47.1472 12.7863 45.217 12.7863Z" fill="#CDCCCC"/>
<path fill-rule="evenodd" clip-rule="evenodd" d="M45.2015 10.57C40.8199 10.57 37.076 12.3072 35.5784 14.7577C34.7741 15.0159 34.2207 15.5479 34.2207 16.1566C34.2248 16.359 34.2859 16.5585 34.4 16.7421C34.5141 16.9256 34.6787 17.0892 34.8831 17.222C34.9572 20.8055 39.5486 23.6972 45.2015 23.6972C50.8544 23.6972 55.4294 20.8117 55.5158 17.2374C55.7293 17.1041 55.9021 16.938 56.0224 16.7505C56.1427 16.563 56.2078 16.3584 56.2131 16.1505C56.2131 15.5356 55.6413 14.9929 54.8184 14.7392C53.3147 12.2949 49.5769 10.57 45.2015 10.57Z" fill="#8B8A8A"/>
<path fill-rule="evenodd" clip-rule="evenodd" d="M46.8366 20.2876C42.984 20.2876 39.8468 18.3005 39.8468 15.855C39.8468 13.4094 42.9901 11.4224 46.8366 11.4224C50.683 11.4224 53.8264 13.4094 53.8264 15.855C53.8264 18.3005 50.6913 20.2876 46.8366 20.2876Z" fill="#989898"/>
<path fill-rule="evenodd" clip-rule="evenodd" d="M48.9676 15.3435C47.5112 15.3435 46.3251 14.5771 46.3251 13.6387C46.3251 12.7002 47.5112 11.9339 48.9676 11.9339C50.424 11.9339 51.6101 12.6987 51.6101 13.6387C51.6101 14.5787 50.4116 15.3435 48.9676 15.3435Z" fill="#ACACAC"/>
<path fill-rule="evenodd" clip-rule="evenodd" d="M45.1316 14.3207H45.2317C46.6254 14.3154 48.0088 14.5037 49.314 14.8764L56.895 17.0291V23.4436C53.5781 26.3792 49.71 28.6782 45.1316 30.1756V14.3207Z" fill="#CDCCCC"/>
<path fill-rule="evenodd" clip-rule="evenodd" d="M46.8365 15.3435C47.4405 15.42 48.0332 15.5429 48.6059 15.7105L50.0592 16.129V26.864C49.0336 27.4553 47.9575 27.9921 46.8385 28.4708V15.3435H46.8365ZM50.7416 16.3257L53.0021 16.9768V24.9403C52.2875 25.4665 51.5347 25.9756 50.7416 26.4596V16.3257ZM53.6825 17.172L55.1902 17.6061V23.1743C54.7071 23.599 54.2045 24.0154 53.6825 24.4235V17.172Z" fill="#333333"/>
<path fill-rule="evenodd" clip-rule="evenodd" d="M45.1316 14.3207H45.0316C43.6412 14.3163 42.2614 14.5046 40.9594 14.8764L33.3682 17.0275V23.442C36.6872 26.3792 40.5552 28.6782 45.1316 30.1756V14.3207Z" fill="#B4B4B4"/>
<path fill-rule="evenodd" clip-rule="evenodd" d="M43.4268 15.3435C42.8103 15.4202 42.2054 15.5431 41.6208 15.7105L40.1375 16.129V26.864C41.1846 27.455 42.2828 27.9918 43.4247 28.4708V15.3435H43.4268ZM39.441 16.3257L37.1358 16.9768V24.9403C37.8631 25.4665 38.6315 25.9756 39.441 26.4596V16.3257ZM36.4394 17.172L34.9026 17.6061V23.1743C35.3943 23.599 35.9065 24.0154 36.4394 24.4235V17.172Z" fill="#1A1A1A"/>
<path fill-rule="evenodd" clip-rule="evenodd" d="M46.0987 8.69467C45.4444 8.69467 45.1306 9.0007 45.3969 9.37661C45.5655 9.57737 45.8074 9.74548 46.0994 9.86488C46.3915 9.98427 46.7238 10.051 47.0648 10.0585C47.7171 10.0585 48.0308 9.75391 47.7645 9.37661C47.5958 9.17622 47.3542 9.00838 47.0626 8.88902C46.7711 8.76966 46.4393 8.70276 46.0987 8.69467Z" fill="#E3E3E3"/>
</g>
</g>
<g clip-path="url(#clip3_462_898)">
<g filter="url(#filter3_d_462_898)">
<path fill-rule="evenodd" clip-rule="evenodd" d="M29.5728 47.4634L29.4363 47.534C29.2815 47.6171 29.1093 47.6624 28.9337 47.6662C28.758 47.67 28.584 47.6323 28.4257 47.556C28.2654 47.4845 28.1241 47.3762 28.0134 47.2399C27.9027 47.1035 27.8257 46.9431 27.7886 46.7714C27.4748 45.4 26.8471 43.7242 25.9542 41.9935C25.0614 40.2627 24.0587 38.7815 23.1297 37.7317C23.0133 37.601 22.9284 37.4453 22.8813 37.2766C22.8343 37.108 22.8265 36.9308 22.8584 36.7587C22.8904 36.5865 22.9613 36.4239 23.0657 36.2834C23.1701 36.1428 23.3052 36.028 23.4608 35.9477L23.5989 35.8771L23.0308 34.7787L20.3632 36.1532L17.6956 37.5262L18.2636 38.6246L18.4001 38.554C18.5564 38.4722 18.7294 38.4275 18.9057 38.4234C19.0821 38.4192 19.257 38.4558 19.4169 38.5301C19.5769 38.6045 19.7175 38.7146 19.828 38.8521C19.9385 38.9896 20.0159 39.1507 20.0541 39.3228C20.3679 40.6927 20.9956 42.3701 21.8885 44.0992C22.7813 45.8284 23.784 47.3112 24.713 48.3609C24.8294 48.4919 24.9144 48.6477 24.9614 48.8165C25.0084 48.9852 25.0162 49.1625 24.9843 49.3348C24.9523 49.507 24.8815 49.6697 24.7771 49.8104C24.6727 49.9511 24.5375 50.0661 24.3819 50.1466L24.2438 50.2172L24.8119 51.3156L27.4795 49.9426L30.1409 48.5634L29.5728 47.4634Z" fill="#4592CF"/>
<path fill-rule="evenodd" clip-rule="evenodd" d="M22.7824 38.3794C22.3424 38.609 22.9534 40.6955 24.149 43.0368C25.3446 45.3781 26.6708 47.092 27.103 46.8624C27.5353 46.6328 26.932 44.5463 25.7364 42.205C24.5408 39.8638 23.2224 38.1499 22.7824 38.3794Z" fill="#283A84"/>
<path fill-rule="evenodd" clip-rule="evenodd" d="M3.37482 3.40967L4.80457 11.4889L18.142 37.3359L22.469 35.1028L9.13151 9.25577L3.37482 3.40967Z" fill="#D1D2D2"/>
<path fill-rule="evenodd" clip-rule="evenodd" d="M7.69091 7.77382L5.4201 6.295L6.21859 11.1149L18.207 37.3359L4.81097 11.4889L3.37495 3.40967L7.69091 7.77382Z" fill="#E6E6E5"/>
<path fill-rule="evenodd" clip-rule="evenodd" d="M7.12556 10.7405L13.4273 23.6112L19.7307 36.4835L20.4188 36.1334L21.1052 35.7833L14.1154 23.2627L7.12556 10.7405Z" fill="#818181"/>
<path fill-rule="evenodd" clip-rule="evenodd" d="M23.7872 33.5505L16.1586 37.509C15.7664 37.2251 15.2905 37.0823 14.8077 37.1037C14.3249 37.1251 13.8633 37.3093 13.4973 37.6268C13.1314 37.9443 12.8825 38.3764 12.7906 38.8536C12.6988 39.3308 12.7694 39.8251 12.9912 40.257C13.2129 40.6888 13.5728 41.033 14.0128 41.2339C14.4529 41.4349 14.9474 41.481 15.4166 41.3648C15.8859 41.2485 16.3025 40.9767 16.5994 40.5932C16.8963 40.2097 17.056 39.7368 17.053 39.2508L24.6815 35.2923C25.0742 35.577 25.5508 35.7203 26.0345 35.6992C26.5182 35.6781 26.9807 35.4937 27.3474 35.1758C27.7141 34.8579 27.9636 34.4251 28.0557 33.9471C28.1477 33.4691 28.077 32.9739 27.8549 32.5413C27.6328 32.1087 27.2722 31.764 26.8314 31.5627C26.3905 31.3615 25.8951 31.3154 25.4251 31.432C24.9551 31.5487 24.5378 31.8211 24.2406 32.2055C23.9435 32.5898 23.7837 33.0636 23.7872 33.5505Z" fill="#333333"/>
</g>
</g>
<g filter="url(#filter4_d_462_898)">
<path d="M15.4757 84V75.252H20.9477V76.104H16.3997V79.128H20.5637V79.98H16.3997V83.148H20.9957V84H15.4757ZM26.6016 84L24.7536 81.576L22.9056 84H21.8856L24.2496 80.964L21.9816 78.036H23.0016L24.7656 80.352L26.5296 78.036H27.5376L25.2816 80.952L27.6336 84H26.6016ZM32.754 84L30.906 81.576L29.058 84H28.038L30.402 80.964L28.134 78.036H29.154L30.918 80.352L32.682 78.036H33.69L31.434 80.952L33.786 84H32.754ZM36.9772 84.108C36.4252 84.108 35.9092 83.972 35.4292 83.7C34.9572 83.42 34.5892 83.048 34.3252 82.584C34.0532 82.12 33.9172 81.604 33.9172 81.036C33.9172 80.148 34.2132 79.412 34.8052 78.828C35.3972 78.228 36.1292 77.928 37.0012 77.928C37.8492 77.912 38.5772 78.212 39.1852 78.828C39.8012 79.436 40.1012 80.16 40.0852 81C40.1012 81.864 39.8012 82.604 39.1852 83.22C38.5692 83.828 37.8332 84.124 36.9772 84.108ZM37.0012 83.328C37.6252 83.328 38.1492 83.104 38.5732 82.656C38.9812 82.208 39.1852 81.668 39.1852 81.036C39.1852 80.396 38.9772 79.844 38.5612 79.38C38.1372 78.924 37.6092 78.696 36.9772 78.696C36.3452 78.696 35.8252 78.92 35.4172 79.368C35.0092 79.816 34.8052 80.36 34.8052 81C34.7892 81.632 34.9932 82.18 35.4172 82.644C35.8492 83.108 36.3772 83.336 37.0012 83.328ZM46.7869 84H45.9109V80.532C45.9109 79.98 45.7709 79.54 45.4909 79.212C45.2109 78.884 44.8029 78.72 44.2669 78.72C43.7469 78.72 43.3189 78.9 42.9829 79.26C42.6549 79.628 42.4909 80.076 42.4909 80.604V84H41.6149V78.036H42.4669V79.128C42.9469 78.328 43.6349 77.928 44.5309 77.928C45.2349 77.928 45.7909 78.144 46.1989 78.576C46.5909 79.032 46.7869 79.612 46.7869 80.316V84ZM56.7213 75.252H58.0413V84H57.1293V76.5L53.8773 84H53.0493L49.8213 76.56V84H48.9093V75.252H50.2173L53.4813 82.752L56.7213 75.252ZM62.8757 84.108C62.3237 84.108 61.8077 83.972 61.3277 83.7C60.8557 83.42 60.4877 83.048 60.2237 82.584C59.9517 82.12 59.8157 81.604 59.8157 81.036C59.8157 80.148 60.1117 79.412 60.7037 78.828C61.2957 78.228 62.0277 77.928 62.8997 77.928C63.7477 77.912 64.4757 78.212 65.0837 78.828C65.6997 79.436 65.9997 80.16 65.9837 81C65.9997 81.864 65.6997 82.604 65.0837 83.22C64.4677 83.828 63.7317 84.124 62.8757 84.108ZM62.8997 83.328C63.5237 83.328 64.0477 83.104 64.4717 82.656C64.8797 82.208 65.0837 81.668 65.0837 81.036C65.0837 80.396 64.8757 79.844 64.4597 79.38C64.0357 78.924 63.5077 78.696 62.8757 78.696C62.2437 78.696 61.7237 78.92 61.3157 79.368C60.9077 79.816 60.7037 80.36 60.7037 81C60.6877 81.632 60.8917 82.18 61.3157 82.644C61.7477 83.108 62.2757 83.336 62.8997 83.328ZM73.4893 81.012C73.4893 81.556 73.3733 82.06 73.1413 82.524C72.9093 82.988 72.5813 83.364 72.1573 83.652C71.7253 83.94 71.2333 84.084 70.6813 84.084C69.6973 84.084 68.9253 83.636 68.3653 82.74V84H67.5133V74.904H68.3893V79.32C68.9893 78.392 69.7533 77.928 70.6813 77.928C71.5293 77.928 72.2133 78.248 72.7333 78.888C73.2373 79.512 73.4893 80.22 73.4893 81.012ZM70.5133 83.328C71.1373 83.328 71.6453 83.108 72.0373 82.668C72.4133 82.22 72.6013 81.676 72.6013 81.036C72.6013 80.132 72.2773 79.464 71.6293 79.032C71.3173 78.816 70.9453 78.708 70.5133 78.708C69.9213 78.7 69.4133 78.928 68.9893 79.392C68.5653 79.856 68.3613 80.392 68.3773 81C68.3773 81.64 68.5773 82.184 68.9773 82.632C69.3853 83.096 69.8973 83.328 70.5133 83.328ZM75.001 76.368C74.873 76.224 74.809 76.068 74.809 75.9C74.809 75.732 74.873 75.576 75.001 75.432C75.129 75.304 75.285 75.24 75.469 75.24C75.645 75.24 75.797 75.304 75.925 75.432C76.053 75.56 76.117 75.716 76.117 75.9C76.117 76.084 76.053 76.24 75.925 76.368C75.797 76.496 75.645 76.56 75.469 76.56C75.285 76.56 75.129 76.496 75.001 76.368ZM75.025 84V78.036H75.901V84H75.025ZM77.8727 84V74.892H78.7487V84H77.8727ZM28.8383 93.004V92.716C28.8383 91.564 29.1183 90.516 29.6783 89.572C30.2303 88.62 31.0103 87.856 32.0183 87.28L32.3783 87.844C30.6103 88.98 29.7263 90.608 29.7263 92.728V92.992C29.7263 95.096 30.6103 96.72 32.3783 97.864L32.0183 98.452C31.0103 97.868 30.2303 97.1 29.6783 96.148C29.1183 95.204 28.8383 94.156 28.8383 93.004ZM39.5077 97L36.6637 93.172L33.8437 97H32.7637L36.1237 92.524L32.9197 88.252H33.9877L36.6877 91.852L39.3637 88.252H40.4317L37.2277 92.512L40.5757 97H39.5077ZM49.1538 92.608C49.1538 93.432 48.9658 94.188 48.5898 94.876C48.2058 95.556 47.6778 96.096 47.0058 96.496C46.3178 96.896 45.5618 97.096 44.7378 97.096C44.1378 97.096 43.5578 96.98 42.9978 96.748C42.4458 96.516 41.9818 96.2 41.6058 95.8C41.2298 95.424 40.9258 94.956 40.6938 94.396C40.4698 93.82 40.3578 93.24 40.3578 92.656C40.3578 91.824 40.5498 91.068 40.9338 90.388C41.3098 89.692 41.8378 89.148 42.5178 88.756C43.1818 88.364 43.9338 88.168 44.7738 88.168C45.3898 88.168 45.9698 88.28 46.5138 88.504C47.0578 88.744 47.5218 89.056 47.9058 89.44C48.3058 89.864 48.6098 90.336 48.8178 90.856C49.0418 91.4 49.1538 91.984 49.1538 92.608ZM48.2058 92.656C48.2058 91.656 47.8858 90.804 47.2458 90.1C46.5898 89.38 45.7538 89.02 44.7378 89.02C44.1058 89.02 43.5178 89.18 42.9738 89.5C42.4458 89.836 42.0378 90.272 41.7498 90.808C41.4618 91.36 41.3178 91.96 41.3178 92.608C41.3178 93.616 41.6378 94.464 42.2778 95.152C42.9338 95.872 43.7658 96.232 44.7738 96.232C45.4138 96.232 46.0018 96.068 46.5378 95.74C47.0658 95.436 47.4778 95.004 47.7738 94.444C48.0618 93.9 48.2058 93.304 48.2058 92.656ZM58.7779 88.252H60.0979V97H59.1859V89.5L55.9339 97H55.1059L51.8779 89.56V97H50.9659V88.252H52.2739L55.5379 95.752L58.7779 88.252ZM65.1603 92.716V93.004C65.1603 94.164 64.8843 95.216 64.3323 96.16C63.7723 97.104 62.9883 97.868 61.9803 98.452L61.6203 97.864C63.3883 96.72 64.2723 95.096 64.2723 92.992V92.728C64.2723 90.608 63.3883 88.98 61.6203 87.844L61.9803 87.28C62.9883 87.848 63.7723 88.608 64.3323 89.56C64.8843 90.512 65.1603 91.564 65.1603 92.716Z" fill="white"/>
</g>
<defs>
<filter id="filter0_d_462_898" x="52.0713" y="28.5428" width="30.2129" height="34.8591" filterUnits="userSpaceOnUse" color-interpolation-filters="sRGB">
<feFlood flood-opacity="0" result="BackgroundImageFix"/>
<feColorMatrix in="SourceAlpha" type="matrix" values="0 0 0 0 0 0 0 0 0 0 0 0 0 0 0 0 0 0 127 0" result="hardAlpha"/>
<feOffset dx="-4" dy="4"/>
<feGaussianBlur stdDeviation="2"/>
<feComposite in2="hardAlpha" operator="out"/>
<feColorMatrix type="matrix" values="0 0 0 0 0 0 0 0 0 0 0 0 0 0 0 0 0 0 0.25 0"/>
<feBlend mode="normal" in2="BackgroundImageFix" result="effect1_dropShadow_462_898"/>
<feBlend mode="normal" in="SourceGraphic" in2="effect1_dropShadow_462_898" result="shape"/>
</filter>
<filter id="filter1_d_462_898" x="58.9165" y="28.8316" width="23.3679" height="34.5703" filterUnits="userSpaceOnUse" color-interpolation-filters="sRGB">
<feFlood flood-opacity="0" result="BackgroundImageFix"/>
<feColorMatrix in="SourceAlpha" type="matrix" values="0 0 0 0 0 0 0 0 0 0 0 0 0 0 0 0 0 0 127 0" result="hardAlpha"/>
<feOffset dx="-4" dy="4"/>
<feGaussianBlur stdDeviation="2"/>
<feComposite in2="hardAlpha" operator="out"/>
<feColorMatrix type="matrix" values="0 0 0 0 0 0 0 0 0 0 0 0 0 0 0 0 0 0 0.25 0"/>
<feBlend mode="normal" in2="BackgroundImageFix" result="effect1_dropShadow_462_898"/>
<feBlend mode="normal" in="SourceGraphic" in2="effect1_dropShadow_462_898" result="shape"/>
</filter>
<filter id="filter2_d_462_898" x="18.9355" y="-4.9771" width="47.9595" height="49.1527" filterUnits="userSpaceOnUse" color-interpolation-filters="sRGB">
<feFlood flood-opacity="0" result="BackgroundImageFix"/>
<feColorMatrix in="SourceAlpha" type="matrix" values="0 0 0 0 0 0 0 0 0 0 0 0 0 0 0 0 0 0 127 0" result="hardAlpha"/>
<feOffset dy="4"/>
<feGaussianBlur stdDeviation="5"/>
<feComposite in2="hardAlpha" operator="out"/>
<feColorMatrix type="matrix" values="0 0 0 0 0 0 0 0 0 0 0 0 0 0 0 0 0 0 0.5 0"/>
<feBlend mode="normal" in2="BackgroundImageFix" result="effect1_dropShadow_462_898"/>
<feBlend mode="normal" in="SourceGraphic" in2="effect1_dropShadow_462_898" result="shape"/>
</filter>
<filter id="filter3_d_462_898" x="-6.62524" y="-2.59033" width="46.7661" height="67.9059" filterUnits="userSpaceOnUse" color-interpolation-filters="sRGB">
<feFlood flood-opacity="0" result="BackgroundImageFix"/>
<feColorMatrix in="SourceAlpha" type="matrix" values="0 0 0 0 0 0 0 0 0 0 0 0 0 0 0 0 0 0 127 0" result="hardAlpha"/>
<feOffset dy="4"/>
<feGaussianBlur stdDeviation="5"/>
<feComposite in2="hardAlpha" operator="out"/>
<feColorMatrix type="matrix" values="0 0 0 0 0 0 0 0 0 0 0 0 0 0 0 0 0 0 0.5 0"/>
<feBlend mode="normal" in2="BackgroundImageFix" result="effect1_dropShadow_462_898"/>
<feBlend mode="normal" in="SourceGraphic" in2="effect1_dropShadow_462_898" result="shape"/>
</filter>
<filter id="filter4_d_462_898" x="13.4756" y="74.892" width="67.2732" height="27.56" filterUnits="userSpaceOnUse" color-interpolation-filters="sRGB">
<feFlood flood-opacity="0" result="BackgroundImageFix"/>
<feColorMatrix in="SourceAlpha" type="matrix" values="0 0 0 0 0 0 0 0 0 0 0 0 0 0 0 0 0 0 127 0" result="hardAlpha"/>
<feOffset dy="2"/>
<feGaussianBlur stdDeviation="1"/>
<feComposite in2="hardAlpha" operator="out"/>
<feColorMatrix type="matrix" values="0 0 0 0 0 0 0 0 0 0 0 0 0 0 0 0 0 0 0.5 0"/>
<feBlend mode="normal" in2="BackgroundImageFix" result="effect1_dropShadow_462_898"/>
<feBlend mode="normal" in="SourceGraphic" in2="effect1_dropShadow_462_898" result="shape"/>
</filter>
<clipPath id="clip0_462_898">
<rect width="30" height="26.8781" fill="white" transform="translate(30 34)"/>
</clipPath>
<clipPath id="clip1_462_898">
<rect width="35.8257" height="35.8257" fill="white" transform="translate(55.1519 19.739) rotate(13.4168)"/>
</clipPath>
<clipPath id="clip2_462_898">
<rect width="30.6871" height="31.9862" fill="white" transform="matrix(-1 0 0 1 57.7476 0)"/>
</clipPath>
<clipPath id="clip3_462_898">
<rect width="28.9942" height="52.0657" fill="white" transform="matrix(-1 0 0 1 29.9705 0)"/>
</clipPath>
</defs>
</svg>
