<svg width="18.000000" height="16.000000" viewBox="0 0 18 16" fill="none" xmlns="http://www.w3.org/2000/svg" xmlns:xlink="http://www.w3.org/1999/xlink">
	<desc>
			Created with Pixso.
	</desc>
	<defs/>
	<path id="Vector" d="M17.34 0.65C16.94 0.25 16.38 -0.01 15.76 0L14.74 0L14.22 0L3.77 0L3.25 0L2.23 0C1.61 -0.01 1.05 0.25 0.65 0.65C0.25 1.05 -0.01 1.61 0 2.23L0 3.4C0 4.84 0.87 6.14 2.21 6.67L2.23 6.68L4.55 7.39C4.67 7.54 4.79 7.69 4.93 7.83C5.79 8.71 6.63 9.31 7.2 9.79C7.49 10.03 7.71 10.25 7.84 10.43C7.91 10.52 7.95 10.6 7.98 10.67C8 10.75 8.02 10.81 8.02 10.89C8.02 12.02 8.02 11.37 8.02 12.49C8.02 12.73 7.98 12.93 7.93 13.09C7.85 13.34 7.72 13.51 7.57 13.62C7.41 13.73 7.21 13.8 6.95 13.8C6.02 13.8 6.01 13.8 6.01 13.8L5.5 13.8L5.5 15.41L12.49 15.41L12.49 13.8L11.98 13.8C11.98 13.8 11.97 13.8 11.04 13.8C10.86 13.8 10.72 13.77 10.6 13.72C10.41 13.64 10.27 13.51 10.16 13.31C10.05 13.12 9.97 12.84 9.97 12.49C9.97 11.37 9.97 12.02 9.97 10.89C9.97 10.81 9.99 10.75 10.01 10.67C10.06 10.54 10.16 10.39 10.33 10.21C10.58 9.94 10.99 9.63 11.46 9.25C11.94 8.87 12.5 8.41 13.06 7.83C13.2 7.69 13.32 7.54 13.44 7.39L15.76 6.68L15.78 6.67C17.12 6.14 18 4.84 18 3.4L18 2.23C18 1.61 17.74 1.05 17.34 0.65ZM2.58 5.7C1.64 5.32 1.03 4.41 1.03 3.4L1.03 2.23C1.03 1.9 1.16 1.6 1.38 1.38C1.6 1.16 1.9 1.03 2.23 1.03L3.25 1.03C3.25 1.27 3.25 1.51 3.25 1.75C3.25 2.86 3.27 3.96 3.49 5C3.57 5.37 3.68 5.73 3.81 6.08L2.58 5.7ZM6.38 6.62C6.38 6.62 4.88 5.2 4.88 3.79C4.88 2.38 4.88 1.05 4.88 1.05L6.38 1.05L6.38 6.62ZM16.96 3.4C16.96 4.41 16.35 5.32 15.41 5.7L14.18 6.08C14.41 5.48 14.55 4.85 14.63 4.21C14.73 3.41 14.74 2.59 14.74 1.75C14.74 1.51 14.74 1.27 14.74 1.03L15.76 1.03C16.09 1.03 16.39 1.16 16.61 1.38C16.83 1.6 16.96 1.9 16.96 2.23L16.96 3.4Z" fill="#F8D05F" fill-opacity="1.000000" fill-rule="nonzero"/>
</svg>
