<svg width="16.000000" height="16.000000" viewBox="0 0 16 16" fill="none" xmlns="http://www.w3.org/2000/svg" xmlns:xlink="http://www.w3.org/1999/xlink">
	<desc>
			Created with Pixso.
	</desc>
	<defs>
		<clipPath id="clip13_44">
			<rect id="follower-svgrepo-com 1" width="16.000000" height="16.000000" fill="white" fill-opacity="0"/>
		</clipPath>
	</defs>
	<rect id="follower-svgrepo-com 1" width="16.000000" height="16.000000" fill="#FFFFFF" fill-opacity="0"/>
	<g clip-path="url(#clip13_44)">
		<path id="XMLID_337_" d="M8.67 3.12C8.67 1.43 7.29 0.06 5.6 0.06C3.92 0.06 2.54 1.43 2.54 3.12C2.54 4.8 3.92 6.18 5.6 6.18C7.29 6.18 8.67 4.8 8.67 3.12Z" fill="#F8D05F" fill-opacity="1.000000" fill-rule="nonzero"/>
		<path id="XMLID_338_" d="M11.15 8.83C10.86 8.55 10.4 8.55 10.11 8.83C9.83 9.12 9.83 9.58 10.11 9.87L11.06 10.81L10.11 11.76C9.83 12.04 9.83 12.51 10.11 12.79C10.25 12.94 10.44 13.01 10.63 13.01C10.82 13.01 11 12.94 11.15 12.79L12.61 11.33C12.75 11.19 12.82 11.01 12.82 10.81C12.82 10.62 12.75 10.43 12.61 10.29L11.15 8.83Z" fill="#F8D05F" fill-opacity="1.000000" fill-rule="nonzero"/>
		<path id="XMLID_340_" d="M10.87 5.69C9.19 5.69 7.7 6.51 6.76 7.76C6.38 7.68 6 7.64 5.6 7.64C2.51 7.64 0 10.16 0 13.25C0 13.66 0.32 13.98 0.73 13.98L6.85 13.98C7.79 15.17 9.25 15.93 10.87 15.93C13.7 15.93 16 13.64 16 10.81C16 7.99 13.7 5.69 10.87 5.69ZM10.87 14.47C8.86 14.47 7.21 12.83 7.21 10.81C7.21 8.79 8.86 7.15 10.87 7.15C12.89 7.15 14.53 8.79 14.53 10.81C14.53 12.83 12.89 14.47 10.87 14.47Z" fill="#F8D05F" fill-opacity="1.000000" fill-rule="nonzero"/>
	</g>
</svg>
