<svg width="16.000000" height="18.000000" viewBox="0 0 16 18" fill="none" xmlns="http://www.w3.org/2000/svg" xmlns:xlink="http://www.w3.org/1999/xlink">
	<desc>
			Created with Pixso.
	</desc>
	<defs/>
	<path id="Vector" d="M11.56 4.87L14.64 4.87C15.38 4.87 16 5.44 16 6.2L16 10.77L8.66 10.77L8.66 5.44C8.4 5.37 8.17 5.27 8.02 5.12C8 5.12 8 5.09 7.97 5.09C7.97 5.09 7.97 5.12 7.94 5.12C7.77 5.27 7.56 5.37 7.33 5.44L7.33 10.77L0 10.77L0 6.2C0 5.44 0.58 4.87 1.32 4.87L4.43 4.87C4.07 4.69 3.74 4.44 3.46 4.21C2.24 3.06 2.01 1.45 2.98 0.55C3.38 0.2 3.92 0 4.5 0C5.34 0 6.21 0.32 6.95 1C7.36 1.38 7.74 1.9 7.97 2.4C8.22 1.9 8.61 1.38 9.01 1C9.73 0.32 10.64 0 11.46 0C12.07 0 12.61 0.2 12.99 0.55C13.96 1.45 13.73 3.06 12.48 4.21C12.22 4.44 11.89 4.69 11.56 4.87ZM7.03 4.14C7.13 3.91 6.87 2.76 6.03 1.98C5.6 1.58 5.01 1.35 4.5 1.35C4.35 1.35 4.1 1.38 3.92 1.53C3.87 1.58 3.71 1.68 3.71 1.95C3.71 2.28 3.92 2.78 4.4 3.21C5.01 3.79 5.98 4.19 6.7 4.19C6.92 4.19 7.03 4.14 7.03 4.14ZM8.96 4.14C8.96 4.14 9.09 4.19 9.29 4.19C10.01 4.19 10.98 3.79 11.59 3.21C12.07 2.78 12.22 2.28 12.22 1.95C12.22 1.68 12.1 1.58 12.07 1.53C11.89 1.38 11.61 1.35 11.46 1.35C10.98 1.35 10.36 1.58 9.93 1.98C9.12 2.76 8.84 3.89 8.96 4.16L8.96 4.14L8.96 4.14ZM7.33 18L1.32 18C0.58 18 0 17.42 0 16.69L0 12.1L7.33 12.1L7.33 18ZM14.64 18L8.66 18L8.66 12.1L16 12.1L16 16.69C16 17.42 15.38 18 14.64 18Z" fill="#F8D05F" fill-opacity="1.000000" fill-rule="nonzero"/>
</svg>
