<svg width="16.000000" height="14.000000" viewBox="0 0 16 14" fill="none" xmlns="http://www.w3.org/2000/svg" xmlns:xlink="http://www.w3.org/1999/xlink">
	<desc>
			Created with Pixso.
	</desc>
	<defs/>
	<path id="Vector" d="M2.89 13.94C3.53 13.93 4.15 13.73 4.66 13.35C5.16 12.97 5.52 12.44 5.68 11.85L10.23 11.85C10.37 12.39 10.67 12.89 11.1 13.26C11.54 13.64 12.08 13.89 12.66 13.97C13.23 14.05 13.82 13.96 14.35 13.71C14.88 13.46 15.31 13.07 15.6 12.59C15.9 12.1 16.03 11.54 15.99 10.98C15.95 10.41 15.73 9.88 15.37 9.44C15.01 8.99 14.52 8.67 13.96 8.49C13.4 8.32 12.81 8.32 12.25 8.47L9.99 4.76C10.4 4.37 10.68 3.88 10.79 3.34C10.91 2.79 10.85 2.23 10.63 1.72C10.41 1.21 10.04 0.77 9.57 0.47C9.09 0.16 8.53 0 7.95 0C7.38 0 6.82 0.16 6.34 0.47C5.87 0.77 5.5 1.21 5.28 1.72C5.06 2.23 5 2.79 5.12 3.34C5.23 3.88 5.51 4.37 5.92 4.76L3.67 8.48C3.42 8.4 3.15 8.36 2.89 8.36C2.12 8.36 1.39 8.65 0.84 9.18C0.3 9.7 0 10.41 0 11.15C0 11.89 0.3 12.6 0.84 13.12C1.39 13.64 2.12 13.94 2.89 13.94ZM13.02 9.75C13.31 9.75 13.59 9.84 13.82 9.99C14.06 10.14 14.25 10.36 14.36 10.61C14.47 10.87 14.49 11.15 14.44 11.42C14.38 11.69 14.24 11.94 14.04 12.13C13.84 12.33 13.58 12.46 13.3 12.52C13.02 12.57 12.73 12.54 12.47 12.44C12.2 12.33 11.97 12.15 11.82 11.92C11.66 11.69 11.57 11.42 11.57 11.15C11.57 10.78 11.72 10.42 12 10.16C12.27 9.9 12.64 9.75 13.02 9.75ZM7.95 1.39C8.24 1.39 8.52 1.47 8.76 1.63C9 1.78 9.18 2 9.29 2.25C9.4 2.51 9.43 2.79 9.37 3.06C9.32 3.33 9.18 3.58 8.98 3.77C8.78 3.97 8.52 4.1 8.24 4.15C7.96 4.21 7.66 4.18 7.4 4.07C7.14 3.97 6.91 3.79 6.75 3.56C6.59 3.33 6.51 3.06 6.51 2.79C6.51 2.42 6.66 2.06 6.93 1.8C7.2 1.54 7.57 1.39 7.95 1.39ZM7.17 5.46C7.43 5.53 7.69 5.57 7.95 5.57C8.22 5.57 8.48 5.53 8.74 5.46L10.99 9.17C10.62 9.52 10.36 9.96 10.23 10.45L5.68 10.45C5.55 9.97 5.29 9.52 4.93 9.17L7.17 5.46ZM2.89 9.75C3.18 9.75 3.46 9.84 3.69 9.99C3.93 10.14 4.12 10.36 4.23 10.61C4.34 10.87 4.36 11.15 4.31 11.42C4.25 11.69 4.11 11.94 3.91 12.13C3.71 12.33 3.45 12.46 3.17 12.52C2.89 12.57 2.6 12.54 2.34 12.44C2.07 12.33 1.84 12.15 1.69 11.92C1.53 11.69 1.44 11.42 1.44 11.15C1.44 10.78 1.59 10.42 1.87 10.16C2.14 9.9 2.51 9.75 2.89 9.75Z" fill="#F8D05F" fill-opacity="1.000000" fill-rule="nonzero"/>
</svg>
